<svg width="8" height="8" viewBox="0 0 8 8" fill="none" xmlns="http://www.w3.org/2000/svg">
<g clip-path="url(#clip0_27_2)">
<path d="M4 2.83333V2.49533M4 2.58333C4 1.61666 4.78333 0.833328 5.75 0.833328C6.71667 0.833328 7.5 1.62733 7.5 2.59399C7.5 3.11399 7.27067 3.61233 6.87333 3.94799L4.98767 5.54C4.67823 5.80128 4.42954 6.12693 4.25895 6.49425C4.08837 6.86156 3.99999 7.26167 4 7.66666C4.00001 7.26167 3.91163 6.86156 3.74105 6.49425C3.57046 6.12693 3.32177 5.80128 3.01233 5.54L1.12667 3.94799C0.930237 3.78128 0.772438 3.57382 0.664224 3.34001C0.55601 3.10619 0.499972 2.85163 0.5 2.59399C0.5 1.62733 1.28333 0.833328 2.25 0.833328C3.21667 0.833328 4 1.61666 4 2.58333Z" stroke="#B90F0F"/>
</g>
<defs>
<clipPath id="clip0_27_2">
<rect width="8" height="8" fill="white"/>
</clipPath>
</defs>
</svg>
