<svg width="40" height="40" viewBox="0 0 40 40" fill="none" xmlns="http://www.w3.org/2000/svg">
<g clip-path="url(#clip0_29_2)">
<rect width="40" height="40" fill="#D9D8D6"/>
<mask id="mask0_29_2" style="mask-type:luminance" maskUnits="userSpaceOnUse" x="0" y="0" width="40" height="40">
<path d="M40 0H0V40H40V0Z" fill="white"/>
</mask>
<g mask="url(#mask0_29_2)">
<path d="M33.3336 29.1664C33.9756 29.1667 34.5929 29.414 35.0576 29.857C35.5222 30.3001 35.7986 30.9049 35.8295 31.5462C35.8603 32.1875 35.6433 32.8161 35.2233 33.3017C34.8034 33.7873 34.2126 34.0927 33.5736 34.1547L33.3336 34.1664H6.66699C6.02496 34.166 5.40766 33.9187 4.94301 33.4757C4.47836 33.0326 4.20197 32.4278 4.17111 31.7865C4.14026 31.1452 4.35731 30.5166 4.77728 30.031C5.19725 29.5454 5.78796 29.24 6.42699 29.178L6.66699 29.1664H33.3336ZM33.3336 17.4997C33.9967 17.4997 34.6325 17.7631 35.1014 18.2319C35.5702 18.7008 35.8336 19.3367 35.8336 19.9997C35.8336 20.6627 35.5702 21.2986 35.1014 21.7675C34.6325 22.2363 33.9967 22.4997 33.3336 22.4997H6.66699C6.00395 22.4997 5.36806 22.2363 4.89922 21.7675C4.43038 21.2986 4.16699 20.6627 4.16699 19.9997C4.16699 19.3367 4.43038 18.7008 4.89922 18.2319C5.36806 17.7631 6.00395 17.4997 6.66699 17.4997H33.3336ZM33.3336 5.83301C33.9967 5.83301 34.6325 6.0964 35.1014 6.56524C35.5702 7.03408 35.8336 7.66997 35.8336 8.33301C35.8336 8.99605 35.5702 9.63193 35.1014 10.1008C34.6325 10.5696 33.9967 10.833 33.3336 10.833H6.66699C6.00395 10.833 5.36806 10.5696 4.89922 10.1008C4.43038 9.63193 4.16699 8.99605 4.16699 8.33301C4.16699 7.66997 4.43038 7.03408 4.89922 6.56524C5.36806 6.0964 6.00395 5.83301 6.66699 5.83301H33.3336Z" fill="#BB2C00"/>
</g>
</g>
<defs>
<clipPath id="clip0_29_2">
<rect width="40" height="40" fill="white"/>
</clipPath>
</defs>
</svg>
