<svg width="40" height="40" viewBox="0 0 40 40" fill="none" xmlns="http://www.w3.org/2000/svg">
<g clip-path="url(#clip0_25_3)">
<path d="M33.3334 29.1667C33.9754 29.167 34.5927 29.4143 35.0574 29.8573C35.522 30.3004 35.7984 30.9052 35.8293 31.5465C35.8601 32.1878 35.6431 32.8164 35.2231 33.302C34.8032 33.7876 34.2124 34.093 33.5734 34.155L33.3334 34.1667H6.66675C6.02472 34.1663 5.40742 33.919 4.94277 33.476C4.47812 33.0329 4.20173 32.4281 4.17087 31.7868C4.14002 31.1455 4.35707 30.5169 4.77704 30.0313C5.19701 29.5457 5.78772 29.2403 6.42675 29.1783L6.66675 29.1667H33.3334ZM33.3334 17.5C33.9965 17.5 34.6323 17.7634 35.1012 18.2322C35.57 18.7011 35.8334 19.337 35.8334 20C35.8334 20.663 35.57 21.2989 35.1012 21.7678C34.6323 22.2366 33.9965 22.5 33.3334 22.5H6.66675C6.00371 22.5 5.36782 22.2366 4.89898 21.7678C4.43014 21.2989 4.16675 20.663 4.16675 20C4.16675 19.337 4.43014 18.7011 4.89898 18.2322C5.36782 17.7634 6.00371 17.5 6.66675 17.5H33.3334ZM33.3334 5.83333C33.9965 5.83333 34.6323 6.09672 35.1012 6.56556C35.57 7.0344 35.8334 7.67029 35.8334 8.33333C35.8334 8.99637 35.57 9.63225 35.1012 10.1011C34.6323 10.5699 33.9965 10.8333 33.3334 10.8333H6.66675C6.00371 10.8333 5.36782 10.5699 4.89898 10.1011C4.43014 9.63225 4.16675 8.99637 4.16675 8.33333C4.16675 7.67029 4.43014 7.0344 4.89898 6.56556C5.36782 6.09672 6.00371 5.83333 6.66675 5.83333H33.3334Z" fill="black"/>
</g>
<defs>
<clipPath id="clip0_25_3">
<rect width="40" height="40" fill="white"/>
</clipPath>
</defs>
</svg>
