<?xml version="1.0" standalone="no"?>
<!DOCTYPE svg PUBLIC "-//W3C//DTD SVG 20010904//EN"
 "http://www.w3.org/TR/2001/REC-SVG-20010904/DTD/svg10.dtd">
<svg version="1.0" xmlns="http://www.w3.org/2000/svg"
 width="332.000000pt" height="536.000000pt" viewBox="0 0 332.000000 536.000000"
 preserveAspectRatio="xMidYMid meet">

<g transform="translate(0.000000,536.000000) scale(0.100000,-0.100000)"
fill="#000000" stroke="none">
<path d="M1840 5148 c0 -21 -1 -21 -13 -3 -11 13 -16 15 -22 6 -9 -16 52 -81
76 -81 10 0 20 -9 24 -19 6 -19 7 -19 26 -3 26 22 24 32 -6 32 -19 0 -25 5
-25 21 0 12 -8 23 -20 26 -11 3 -20 14 -20 24 0 11 -4 19 -10 19 -5 0 -10 -10
-10 -22z"/>
<path d="M1960 5155 c-9 -11 -16 -12 -25 -5 -8 7 -16 7 -19 2 -8 -13 13 -27
46 -30 32 -4 46 15 26 34 -13 13 -16 13 -28 -1z"/>
<path d="M1722 5099 c2 -7 10 -15 17 -17 8 -3 12 1 9 9 -2 7 -10 15 -17 17 -8
3 -12 -1 -9 -9z"/>
<path d="M2000 5094 c0 -9 7 -14 17 -12 25 5 28 28 4 28 -12 0 -21 -6 -21 -16z"/>
<path d="M2070 5094 c0 -8 5 -12 10 -9 6 3 10 10 10 16 0 5 -4 9 -10 9 -5 0
-10 -7 -10 -16z"/>
<path d="M1810 5055 c-7 -8 -10 -19 -6 -22 9 -9 38 8 38 22 -1 16 -18 16 -32
0z"/>
<path d="M1746 5044 c-20 -19 -21 -50 -3 -61 8 -4 22 -21 32 -36 l18 -28 15
22 15 22 9 -23 c6 -17 11 -20 22 -11 10 8 16 5 25 -15 11 -26 12 -26 26 -8 19
26 20 58 0 51 -9 -4 -24 6 -39 26 -20 25 -28 29 -38 19 -17 -17 -49 -15 -64 6
-18 23 -17 35 1 28 9 -3 15 0 15 9 0 19 -15 19 -34 -1z"/>
<path d="M1985 5049 c-4 -6 -4 -13 -1 -16 3 -3 -1 -11 -10 -18 -14 -10 -14
-12 0 -24 14 -11 16 -11 16 3 0 9 5 16 10 16 6 0 10 11 10 25 0 26 -14 33 -25
14z"/>
<path d="M1646 5028 c-11 -16 -18 -19 -22 -10 -8 17 -25 15 -49 -6 -17 -14
-20 -24 -15 -57 l7 -40 12 33 c14 35 31 41 51 17 20 -24 30 -18 30 19 0 19 5
38 10 41 6 3 10 -5 10 -19 0 -13 3 -31 6 -40 12 -31 24 -16 24 29 0 25 -4 45
-9 45 -5 0 -16 2 -24 5 -8 4 -21 -4 -31 -17z"/>
<path d="M2058 5018 c-19 -19 -25 -68 -8 -68 6 0 13 7 16 15 4 8 11 15 16 15
6 0 8 -7 4 -15 -6 -17 13 -65 25 -65 5 0 11 11 15 24 6 24 -5 54 -35 91 -15
20 -17 20 -33 3z"/>
<path d="M2143 5013 c-18 -7 -16 -23 2 -23 8 0 15 7 15 15 0 8 -1 15 -2 14 -2
0 -9 -3 -15 -6z"/>
<path d="M2257 5013 c-7 -12 33 -91 49 -97 22 -8 17 28 -6 49 -11 10 -20 24
-20 31 0 15 -17 27 -23 17z"/>
<path d="M1471 4996 c-49 -13 -58 -25 -41 -55 12 -24 30 -28 30 -7 0 7 9 16
20 19 15 4 20 0 20 -14 0 -10 6 -19 13 -19 13 0 22 76 9 83 -4 2 -27 -1 -51
-7z"/>
<path d="M2163 4939 c-22 -32 -21 -59 2 -59 7 0 20 -3 29 -6 13 -5 16 1 16 28
0 19 -6 42 -12 51 -12 15 -15 13 -35 -14z"/>
<path d="M2230 4910 c0 -22 5 -40 10 -40 6 0 10 18 10 40 0 22 -4 40 -10 40
-5 0 -10 -18 -10 -40z"/>
<path d="M1944 4915 c-16 -25 -16 -27 5 -46 25 -24 27 -45 4 -57 -11 -7 -18
-25 -19 -56 -3 -43 -2 -46 23 -46 22 0 24 3 19 25 -4 15 -2 25 4 25 6 0 10 10
9 23 -6 67 9 88 28 38 8 -21 8 -32 0 -40 -9 -9 -8 -17 1 -31 6 -11 12 -44 12
-74 0 -39 5 -60 17 -72 17 -17 18 -16 28 18 17 60 20 51 19 -55 0 -77 -5 -110
-19 -136 -17 -33 -18 -34 -32 -15 -8 11 -11 29 -8 42 9 37 -27 23 -38 -14 -12
-41 9 -144 29 -144 9 0 14 12 15 38 l1 37 10 -35 c13 -46 23 -57 58 -65 44
-10 54 -28 30 -58 -28 -36 -26 -74 8 -102 15 -12 40 -50 57 -84 36 -77 48 -64
39 42 -3 42 -3 77 0 77 3 0 19 -26 35 -58 16 -32 36 -64 45 -71 10 -8 13 -22
9 -41 -4 -24 -2 -29 18 -32 18 -2 24 -10 26 -38 2 -19 10 -55 18 -79 8 -25 15
-66 15 -92 0 -28 6 -51 14 -58 14 -11 11 -47 -4 -56 -4 -2 -17 21 -29 53 -14
35 -18 58 -12 60 17 6 13 25 -15 77 -16 31 -23 57 -19 72 4 18 1 23 -15 23
-17 0 -19 4 -14 25 3 14 2 25 -3 25 -6 0 -15 12 -22 27 -12 27 -13 27 -27 8
-19 -26 -18 -54 7 -100 23 -44 41 -106 41 -147 1 -17 7 -28 19 -31 15 -4 18
-11 13 -35 -4 -19 1 -44 12 -68 10 -22 19 -52 20 -69 1 -16 5 -41 9 -54 6 -18
5 -22 -4 -16 -16 10 -53 94 -46 106 3 4 -1 22 -10 38 -8 17 -15 39 -15 49 0
11 -7 22 -15 26 -9 3 -15 18 -15 40 0 19 -9 55 -20 81 -11 26 -20 59 -20 74 0
20 -14 43 -45 77 -25 27 -41 50 -35 52 5 2 10 13 10 24 0 16 -5 19 -25 16 -20
-4 -25 0 -31 26 -3 17 -12 43 -20 57 -12 24 -11 30 6 52 11 14 20 32 20 40 0
29 -18 27 -40 -3 -12 -16 -25 -30 -30 -30 -5 0 -14 18 -20 40 -6 23 -17 40
-25 40 -9 0 -22 25 -34 66 -18 61 -18 67 -3 94 16 27 16 29 -15 60 -29 30 -31
30 -36 9 -4 -15 -1 -23 14 -26 23 -6 15 -23 -12 -23 -29 0 -33 -23 -15 -77 18
-53 21 -103 6 -103 -5 0 -10 5 -10 12 0 9 -3 9 -12 0 -10 -10 -10 -17 0 -32 8
-13 10 -35 6 -60 -4 -25 -3 -40 4 -40 12 0 22 24 22 56 0 29 6 30 46 5 26 -16
31 -24 27 -45 -3 -14 0 -33 7 -41 11 -13 14 -13 27 0 14 14 33 20 33 10 0 -2
-5 -16 -12 -30 -14 -30 5 -77 28 -68 8 3 14 0 14 -6 0 -6 17 -30 38 -54 60
-67 64 -75 67 -120 3 -39 -8 -79 -18 -67 -24 29 -65 99 -60 103 6 7 -34 94
-47 102 -5 3 -14 -4 -20 -15 -16 -30 -30 -24 -30 13 0 17 -5 49 -11 71 -10 38
-11 38 -26 16 l-15 -22 -20 32 c-17 29 -23 32 -54 27 -30 -5 -34 -3 -34 16 0
13 -7 32 -15 45 -14 18 -19 20 -36 9 -16 -10 -21 -9 -29 3 -5 8 -7 22 -4 32 7
23 -9 30 -31 14 -18 -13 -18 -15 -2 -39 21 -32 22 -48 2 -41 -8 4 -15 17 -15
30 0 32 -8 30 -47 -8 -26 -25 -35 -29 -47 -19 -10 8 -16 9 -21 1 -3 -5 -20
-10 -36 -10 -29 0 -30 -2 -24 -29 7 -31 -11 -53 -21 -27 -10 26 -23 18 -26
-16 -2 -28 -8 -34 -30 -36 -16 -2 -28 -9 -28 -15 0 -6 -21 -42 -47 -79 -36
-54 -49 -65 -60 -57 -10 9 -13 7 -13 -8 0 -11 -14 -41 -31 -67 -17 -26 -32
-58 -31 -72 0 -17 -8 -28 -22 -34 -31 -12 -79 -66 -71 -80 4 -6 2 -47 -5 -91
-10 -65 -16 -79 -29 -77 -17 4 -53 -44 -56 -75 -1 -9 -11 -27 -23 -40 -17 -18
-20 -30 -15 -66 6 -41 5 -44 -15 -39 -19 5 -22 2 -22 -24 0 -17 7 -36 17 -43
15 -11 14 -15 -10 -39 -21 -21 -27 -37 -27 -71 0 -24 5 -56 10 -71 8 -21 7
-31 -5 -44 -20 -22 -20 -51 0 -44 20 8 19 -11 -2 -42 -13 -21 -14 -27 -3 -34
7 -4 9 -13 5 -20 -4 -6 1 -20 10 -30 9 -10 14 -23 11 -29 -4 -6 -1 -19 5 -29
9 -15 7 -28 -9 -64 -12 -27 -16 -51 -11 -59 6 -10 11 -6 18 15 14 35 31 30 54
-17 9 -20 22 -37 27 -37 15 0 40 56 39 87 l-1 28 -14 -32 c-8 -18 -18 -33 -24
-33 -15 0 -22 63 -11 93 14 36 15 34 -14 41 -26 7 -54 50 -41 64 4 4 17 -6 28
-21 15 -21 23 -25 33 -17 18 15 7 50 -15 50 -13 0 -17 6 -13 20 3 11 2 28 -2
37 -5 15 -9 12 -21 -16 -11 -25 -17 -32 -26 -23 -8 8 -5 18 11 37 11 15 18 32
15 37 -4 5 6 22 20 37 24 25 25 31 15 59 -9 27 -14 30 -26 21 -18 -15 -36 1
-27 24 6 17 50 34 61 24 7 -8 33 18 33 32 0 6 -4 11 -10 11 -5 0 -10 -7 -10
-15 0 -8 -4 -15 -9 -15 -5 0 -7 8 -4 18 2 10 -3 24 -11 31 -9 8 -16 23 -16 34
0 20 0 20 24 -2 33 -31 41 -11 11 29 -27 36 -32 65 -14 76 6 3 8 15 6 26 -5
17 -2 19 18 14 29 -8 44 13 21 29 -14 11 -11 17 29 54 25 23 51 41 57 39 22
-8 19 -28 -5 -37 -29 -11 -72 -90 -57 -105 12 -12 13 -53 1 -60 -4 -3 -13 6
-19 19 -16 34 -32 31 -32 -5 0 -23 6 -33 25 -40 34 -13 40 -33 19 -64 -15 -25
-15 -28 0 -45 20 -22 20 -41 1 -67 -8 -10 -15 -36 -15 -56 0 -20 -4 -48 -10
-62 -6 -16 -5 -44 1 -78 5 -29 11 -75 12 -102 1 -28 8 -51 15 -54 15 -5 35
-78 27 -102 -5 -16 -2 -20 14 -20 18 0 21 -6 21 -45 0 -36 7 -54 35 -91 19
-25 35 -54 35 -64 0 -11 15 -26 39 -38 35 -18 41 -19 52 -6 8 10 15 12 22 5 7
-7 5 -16 -6 -29 -23 -26 -21 -37 8 -50 43 -20 52 -15 58 31 6 41 5 43 -51 94
-31 29 -60 52 -64 53 -5 0 -8 -11 -8 -25 0 -52 -18 -22 -23 38 -3 34 -8 73
-12 85 -7 21 -5 23 15 20 18 -2 23 -10 25 -36 4 -46 22 -63 30 -29 4 14 15 33
25 42 18 17 20 16 37 -20 17 -36 17 -37 -6 -54 -19 -15 -21 -19 -8 -29 12 -11
19 -6 38 25 17 28 25 33 27 21 2 -9 -1 -25 -7 -36 -7 -12 -6 -26 2 -42 20 -39
37 -36 37 7 0 28 3 34 10 23 5 -8 10 -27 10 -42 0 -58 42 -42 62 23 13 44 3
64 -17 36 -12 -16 -14 -15 -31 20 -11 21 -31 44 -46 51 -16 7 -28 21 -28 31 0
10 -7 24 -16 31 -8 8 -19 21 -25 31 -7 15 -6 17 6 13 8 -4 15 -3 15 0 0 14
-29 63 -44 75 -9 8 -16 26 -16 41 0 20 -5 27 -17 26 -14 -1 -18 7 -18 36 0 34
-2 37 -22 31 -29 -7 -30 10 -1 29 21 14 21 16 6 40 -11 17 -15 44 -14 94 2 45
-2 76 -11 90 -27 42 1 337 34 361 13 10 14 15 4 27 -14 16 -4 43 23 66 9 7 16
24 16 37 0 15 10 33 26 45 14 11 23 26 20 34 -8 20 65 136 82 129 10 -3 12 0
8 10 -8 21 3 45 20 45 8 0 14 10 14 25 0 16 9 30 28 42 15 9 37 25 48 35 19
17 22 17 28 3 3 -9 11 -13 17 -10 6 4 8 14 5 22 -6 15 19 73 32 73 4 0 13 -13
20 -29 19 -44 71 -54 57 -12 -3 11 3 25 15 36 19 17 27 45 14 45 -3 0 -14 -10
-24 -22 -18 -22 -19 -22 -54 -5 -52 24 -73 22 -80 -9 -7 -26 -7 -26 -28 -8
-16 15 -22 16 -26 5 -2 -7 -13 -20 -23 -29 -12 -11 -16 -24 -13 -39 5 -19 2
-23 -19 -23 -20 0 -27 -6 -32 -29 -7 -33 -29 -56 -44 -46 -6 3 -13 -7 -16 -22
-13 -63 -21 -78 -43 -81 -24 -4 -26 -10 -14 -30 6 -8 -8 -30 -40 -65 -32 -35
-46 -58 -42 -70 3 -9 -2 -24 -10 -33 -9 -8 -16 -25 -16 -37 0 -12 -7 -35 -15
-51 -8 -15 -15 -49 -15 -75 0 -26 -4 -51 -8 -56 -5 -6 -5 -29 0 -52 7 -31 13
-40 24 -36 19 7 8 -23 -23 -60 -27 -33 -29 -52 -8 -61 8 -3 15 -16 15 -30 0
-20 -4 -23 -21 -19 l-22 6 23 -30 c21 -30 21 -31 4 -58 -17 -26 -17 -28 4 -71
12 -24 22 -62 22 -84 0 -22 5 -40 10 -40 6 0 10 -11 10 -24 0 -31 10 -56 21
-56 5 0 9 10 9 23 1 22 1 22 16 2 15 -19 14 -32 -2 -84 -6 -20 -4 -23 9 -18
27 10 32 -14 6 -34 -33 -26 -42 -24 -35 9 4 17 1 35 -8 47 -14 19 -15 19 -26
-6 -9 -20 -9 -32 -1 -47 9 -18 8 -23 -8 -32 -24 -12 -38 4 -21 25 9 10 9 19 0
35 -6 12 -9 28 -6 36 3 7 -6 27 -20 43 -22 26 -23 31 -9 39 14 7 13 11 -10 26
-27 18 -32 60 -7 62 6 1 17 2 22 3 6 0 10 10 10 21 0 14 -7 20 -23 20 -22 0
-23 4 -25 85 -1 71 1 86 16 94 16 9 15 11 -6 33 -23 25 -29 48 -13 48 5 0 7 9
4 20 -4 14 3 27 21 41 32 26 33 40 1 77 -32 39 -31 52 5 87 36 35 39 74 9 117
l-21 29 22 16 c15 11 20 23 17 39 -5 27 10 33 20 8 11 -29 22 8 16 54 -5 39
-4 44 13 40 14 -2 30 20 76 110 32 62 58 124 58 138 0 14 4 23 9 20 5 -3 20 3
33 14 14 11 28 17 31 13 4 -3 11 5 16 19 5 13 17 30 27 38 9 8 25 28 35 44 15
25 19 27 25 13 8 -23 24 -22 24 2 0 10 6 24 14 30 11 9 15 7 20 -11 7 -22 8
-22 15 -4 5 13 10 16 15 8 3 -6 13 -9 20 -6 8 3 17 -3 20 -14 9 -28 35 -47 47
-35 6 6 3 16 -10 27 -16 14 -18 23 -10 37 16 30 32 23 26 -11 -7 -32 3 -39 23
-15 18 22 26 19 40 -15 15 -36 27 -38 33 -7 4 19 4 18 6 -5 1 -30 18 -38 27
-13 9 23 21 18 49 -22 17 -25 25 -51 25 -79 0 -25 6 -47 15 -54 8 -7 15 -24
15 -37 0 -14 9 -36 20 -50 25 -32 36 -88 22 -117 -8 -19 -7 -26 8 -39 11 -9
24 -35 29 -59 6 -24 16 -56 22 -73 6 -16 13 -52 16 -80 2 -30 10 -55 20 -62
21 -16 25 -74 6 -88 -11 -8 -12 -17 -4 -38 6 -16 14 -58 17 -95 5 -55 4 -70
-10 -81 -18 -15 -21 -48 -5 -53 8 -3 6 -14 -5 -36 -10 -19 -21 -76 -26 -137
-5 -58 -14 -114 -20 -126 -8 -15 -8 -29 -1 -51 6 -17 11 -56 11 -86 0 -45 -4
-59 -23 -76 -14 -13 -27 -40 -31 -65 -7 -45 -35 -98 -37 -71 -3 37 4 76 14 90
37 47 72 180 48 180 -6 0 -11 -8 -11 -17 0 -21 -45 -81 -54 -72 -4 3 3 27 14
52 37 83 60 197 72 358 7 88 15 159 18 159 4 0 5 21 3 48 -2 26 -7 97 -12 157
-10 132 -38 245 -60 245 -20 0 -20 -39 -1 -111 12 -40 23 -112 26 -158 3 -47
9 -92 14 -101 6 -11 2 -27 -11 -49 -15 -25 -17 -36 -9 -46 8 -10 8 -19 -2 -34
-9 -15 -10 -23 -1 -32 9 -9 9 -16 0 -30 -9 -14 -9 -21 1 -31 19 -19 14 -45 -9
-51 -16 -4 -20 -10 -14 -24 17 -41 17 -68 0 -100 -14 -25 -16 -36 -7 -45 8 -8
6 -18 -9 -37 -13 -16 -18 -33 -14 -49 4 -17 -2 -33 -25 -58 -30 -35 -39 -68
-20 -79 16 -10 11 -28 -6 -21 -21 8 -64 -37 -64 -67 0 -36 -11 -87 -20 -87
-13 0 -30 50 -30 88 1 32 2 35 13 20 12 -15 15 -11 25 28 7 25 24 57 38 71 23
23 24 26 8 37 -16 12 -15 15 7 45 13 17 29 29 35 27 7 -3 15 2 18 10 10 26 7
34 -14 34 -16 0 -20 7 -20 35 0 19 5 35 10 35 6 0 10 -9 10 -20 0 -11 5 -20
10 -20 6 0 10 13 10 28 0 15 5 33 11 39 12 12 13 26 23 228 3 66 11 150 17
186 10 55 9 74 -5 122 -9 31 -20 58 -25 61 -4 3 -6 39 -3 79 3 58 1 79 -12 99
-16 25 -16 27 9 63 24 36 34 89 18 97 -10 4 -53 91 -53 107 0 19 -16 12 -29
-13 -14 -25 -7 -46 30 -95 26 -32 25 -77 -1 -84 -17 -4 -20 0 -20 25 0 47 -41
107 -65 96 -3 -2 -16 19 -29 46 l-23 48 -16 -23 c-9 -12 -18 -21 -20 -18 -1 2
-16 21 -31 43 l-29 39 -14 -27 c-7 -14 -18 -26 -23 -26 -6 0 -10 -16 -10 -35
0 -19 5 -35 10 -35 6 0 10 9 10 20 0 26 12 25 35 0 10 -12 24 -19 31 -16 7 3
15 -2 19 -11 4 -12 9 -13 17 -5 9 9 16 4 30 -18 10 -17 26 -30 38 -30 24 0 26
-22 5 -40 -25 -21 -19 -41 10 -34 25 6 35 -8 15 -21 -16 -10 -12 -19 20 -59
22 -29 28 -44 24 -65 -4 -20 -1 -30 9 -34 12 -5 14 -18 10 -65 -3 -33 -1 -74
5 -90 8 -24 7 -33 -4 -43 -18 -15 -18 -29 2 -44 14 -10 15 -18 4 -67 -7 -32
-11 -90 -8 -135 3 -53 1 -83 -7 -90 -7 -6 -11 -33 -9 -63 2 -37 -2 -53 -12
-57 -8 -3 -14 -14 -14 -24 0 -10 -5 -19 -11 -19 -7 0 -9 -9 -5 -24 4 -18 2
-23 -11 -22 -14 1 -19 -14 -29 -79 -6 -44 -16 -93 -22 -110 l-10 -30 -1 29 -1
28 -35 -31 c-20 -17 -45 -31 -57 -31 -15 0 -19 -5 -15 -20 5 -20 -12 -70 -24
-70 -3 0 -4 11 -2 24 3 13 0 27 -6 30 -7 5 -11 -2 -11 -16 0 -24 -35 -108 -44
-108 -3 0 -12 14 -19 31 l-12 32 -29 -57 c-23 -46 -26 -59 -16 -71 18 -22 30
-18 30 9 0 24 16 43 27 32 3 -3 0 -32 -8 -66 -11 -50 -17 -60 -34 -60 -12 0
-32 11 -45 25 -27 28 -60 26 -97 -8 -29 -25 -29 -30 0 -42 12 -6 23 -20 25
-33 5 -31 18 -27 31 9 10 28 12 29 26 15 14 -14 14 -18 0 -39 -8 -13 -12 -27
-8 -30 14 -15 31 -6 43 23 14 34 41 42 33 10 -6 -21 21 -70 37 -70 6 0 10 11
10 25 0 33 18 32 31 -2 8 -22 12 -24 19 -13 6 8 10 27 10 41 0 15 9 37 20 50
23 29 24 26 5 -26 -32 -90 -9 -87 50 5 29 46 51 70 64 70 23 0 33 13 55 72 10
27 25 52 34 58 16 8 16 11 0 40 -25 45 4 40 31 -5 11 -19 26 -35 33 -35 7 0
19 -9 26 -20 10 -17 10 -20 -3 -20 -21 0 -85 -51 -85 -67 0 -7 5 -13 10 -13 6
0 10 -4 10 -10 0 -5 -7 -7 -14 -4 -23 9 -65 -28 -66 -56 0 -14 -4 -32 -9 -39
-8 -12 -11 -9 -16 12 -8 31 -25 36 -25 8 0 -10 -21 -37 -47 -59 -35 -29 -47
-47 -48 -67 0 -16 -6 -30 -12 -33 -8 -2 -13 6 -13 23 0 26 -2 27 -42 22 -24
-2 -53 -8 -65 -12 -17 -5 -23 -3 -23 8 0 9 -5 19 -10 22 -16 10 -40 -15 -40
-41 0 -18 5 -24 23 -24 40 0 78 -59 52 -80 -11 -9 -18 -8 -31 5 -10 10 -25 14
-38 11 -12 -3 -24 -6 -28 -6 -9 0 -11 -84 -2 -93 3 -3 16 3 27 14 21 19 21 19
48 -11 30 -32 59 -32 59 2 0 30 19 58 39 58 12 0 21 10 25 25 4 17 11 23 19
18 7 -4 17 -8 22 -8 6 0 11 -10 13 -22 2 -16 -2 -23 -12 -23 -9 0 -16 5 -16
10 0 6 -4 10 -10 10 -6 0 -10 -28 -10 -63 0 -41 -5 -70 -15 -83 -15 -18 -15
-18 -29 0 -14 17 -42 14 -31 -4 3 -5 -4 -18 -16 -29 -17 -15 -20 -27 -16 -51
5 -22 3 -32 -8 -36 -26 -10 -59 4 -77 33 -16 26 -17 26 -18 6 0 -20 -3 -21
-55 -16 -63 7 -70 -5 -33 -52 l21 -27 14 26 c17 33 21 33 34 -1 l11 -28 9 23
c9 24 18 23 52 -6 22 -20 22 -28 -3 -35 -12 -3 -20 -14 -20 -27 0 -12 4 -18
10 -15 6 4 22 0 35 -9 34 -22 45 -20 45 10 0 14 4 23 9 20 18 -11 39 6 45 35
4 23 11 29 32 29 14 0 38 9 53 19 15 11 38 22 52 26 18 4 29 20 44 58 23 59
35 65 49 24 9 -24 7 -30 -7 -38 -9 -6 -28 -31 -41 -57 -13 -26 -33 -53 -45
-59 -11 -7 -23 -28 -27 -48 -3 -20 -15 -41 -25 -49 -12 -8 -18 -23 -17 -36 2
-17 -7 -30 -34 -49 -21 -14 -50 -43 -65 -64 -22 -32 -28 -35 -36 -22 -8 15
-11 15 -30 -3 -50 -45 -97 -55 -97 -21 0 14 -5 19 -14 16 -8 -3 -17 -1 -20 6
-2 7 -5 0 -5 -14 -1 -16 10 -36 29 -54 38 -36 38 -58 0 -72 -29 -11 -40 -36
-20 -48 18 -11 10 -20 -20 -21 -30 -1 -43 20 -17 29 6 2 9 7 6 11 -3 4 -19 2
-35 -4 -25 -10 -31 -8 -46 10 -15 18 -18 19 -26 4 -8 -14 -12 -14 -42 4 -18
11 -39 18 -46 15 -8 -3 -14 0 -14 5 0 19 -31 42 -55 42 -33 0 -35 -28 -3 -62
33 -35 40 -35 32 -2 -5 19 -4 25 5 20 6 -4 11 -23 11 -43 0 -34 1 -35 29 -30
31 7 51 -7 51 -35 0 -24 17 -23 30 2 14 26 28 25 40 -2 6 -13 16 -31 22 -40
17 -24 0 -50 -35 -54 -23 -2 -32 4 -52 37 -27 42 -39 48 -49 23 -8 -21 19 -64
39 -64 10 0 15 -10 15 -31 0 -24 3 -30 16 -25 9 3 40 6 70 6 58 0 65 9 33 41
-25 25 -19 45 27 90 l37 34 -5 -27 c-7 -36 8 -36 17 0 l7 27 9 -23 c10 -25 29
-21 29 6 0 12 6 9 24 -12 l23 -30 28 43 28 42 23 -28 c23 -27 23 -27 24 -5 0
15 6 22 19 22 11 0 23 5 26 10 4 7 13 6 26 -1 22 -11 49 -6 49 11 0 5 -7 10
-15 10 -20 0 -19 10 3 26 23 18 30 17 37 -6 8 -27 23 -25 27 2 2 14 12 24 28
28 18 4 26 15 31 40 4 19 15 40 25 47 15 11 16 17 5 39 -16 37 -8 41 18 8 30
-39 28 -96 -6 -142 -15 -20 -29 -39 -31 -42 -2 -2 -7 2 -12 10 -8 12 -15 10
-39 -15 -17 -16 -32 -41 -34 -54 -3 -19 -13 -27 -49 -36 -25 -6 -58 -19 -72
-28 -25 -17 -26 -17 -41 13 -17 32 -52 43 -40 12 3 -9 9 -30 12 -47 l6 -30
-20 25 c-18 22 -24 23 -47 12 -20 -9 -26 -9 -26 1 -1 6 -8 0 -16 -15 -8 -16
-19 -28 -23 -28 -11 0 -21 25 -21 51 0 11 -4 17 -10 14 -5 -3 -10 -15 -10 -26
0 -10 -6 -19 -14 -19 -18 0 -30 -88 -15 -106 15 -19 25 -10 32 26 8 38 22 38
42 0 9 -16 22 -30 30 -30 20 0 19 29 0 36 -21 9 -19 24 4 24 10 0 26 -11 35
-25 21 -33 46 -33 46 0 0 29 7 31 32 9 16 -16 18 -16 24 0 3 9 13 16 21 16 8
0 13 6 10 13 -2 6 0 20 5 30 8 15 12 16 24 6 21 -18 44 -64 44 -89 0 -12 -9
-33 -20 -47 -11 -14 -20 -32 -20 -39 0 -21 28 -17 40 6 16 29 30 24 30 -10 0
-16 5 -30 10 -30 6 0 10 13 10 30 0 22 4 28 15 24 8 -3 29 -1 47 5 25 9 35 8
48 -4 15 -14 23 -12 75 20 71 42 95 45 95 10 0 -18 -7 -28 -24 -35 -25 -9 -44
-30 -27 -30 5 0 17 -20 27 -45 9 -25 23 -45 30 -45 17 0 18 -14 4 -41 -11 -19
-40 -27 -40 -10 0 5 -7 17 -16 26 -15 14 -18 12 -44 -29 -31 -48 -54 -60 -95
-50 -26 6 -27 6 -20 -26 7 -30 6 -31 -13 -21 -31 16 -61 13 -92 -9 -16 -11
-35 -17 -44 -14 -9 3 -23 1 -31 -6 -12 -10 -16 -8 -24 13 -10 25 -36 41 -52
32 -4 -3 -6 -19 -2 -35 3 -19 1 -30 -6 -30 -6 0 -11 8 -11 17 0 14 -3 13 -23
-5 -25 -24 -62 -29 -73 -11 -5 8 -10 7 -16 -4 -5 -9 -15 -14 -24 -10 -12 5
-15 -1 -12 -28 l3 -34 55 3 c36 2 59 9 68 20 6 9 12 12 12 8 0 -5 6 -3 14 3
11 9 16 5 25 -20 8 -25 14 -29 24 -20 8 6 12 23 9 41 -5 34 13 42 23 10 7 -22
25 -26 43 -8 9 9 18 9 37 0 34 -16 33 -17 38 21 l3 32 13 -32 c15 -39 26 -42
35 -11 11 39 34 64 48 50 21 -21 57 -14 70 13 9 19 14 22 25 13 7 -6 14 -9 16
-7 1 2 7 13 13 24 6 12 29 25 55 31 40 10 44 13 41 40 l-3 28 23 -19 c13 -11
25 -23 29 -27 3 -4 20 -2 37 4 24 9 37 10 50 2 23 -15 28 -44 8 -44 -12 0 -16
-10 -16 -35 0 -42 21 -47 38 -10 12 25 12 25 39 8 16 -9 36 -23 46 -31 16 -14
17 -12 17 20 0 40 14 48 88 48 38 0 42 -2 42 -25 0 -29 -32 -41 -72 -26 -33
13 -38 7 -38 -46 0 -47 -6 -52 -26 -25 -8 10 -13 12 -14 5 0 -22 -40 -15 -40
7 0 30 -13 24 -35 -17 -23 -42 -45 -54 -45 -24 0 30 -16 34 -28 6 -13 -28 -32
-33 -32 -10 0 8 -7 15 -16 15 -13 0 -15 -7 -10 -32 7 -41 -8 -72 -18 -36 -6
21 -7 22 -20 5 -7 -9 -18 -17 -25 -17 -7 0 -10 -14 -8 -37 2 -31 6 -37 22 -35
11 2 29 3 41 3 16 0 23 8 30 37 9 36 10 37 49 34 45 -4 88 -27 82 -45 -2 -7
-27 -23 -55 -37 -34 -16 -52 -31 -52 -43 0 -12 4 -16 13 -10 6 4 20 6 29 5 9
-2 30 4 47 12 41 22 68 20 76 -4 8 -26 21 -25 29 3 9 35 7 39 -15 32 -15 -5
-19 -4 -15 4 4 6 -1 24 -10 40 -14 24 -15 33 -5 44 6 8 21 13 31 10 17 -5 20
0 20 27 0 29 1 30 16 16 19 -20 34 -13 27 13 -7 26 14 36 33 17 8 -9 19 -16
24 -16 5 0 10 -8 12 -17 3 -14 10 -9 27 19 20 33 24 36 38 23 21 -22 35 -8 31
31 -2 23 4 40 20 57 12 13 22 33 22 45 0 14 6 22 18 22 9 0 37 14 62 31 25 16
54 34 65 38 18 8 20 15 15 92 -3 46 -2 102 2 123 12 55 1 80 -18 44 -16 -31
-18 -32 -45 -18 -17 10 -19 7 -19 -20 0 -16 -4 -30 -10 -30 -13 0 -13 53 1 83
8 19 16 23 37 19 21 -4 24 -2 18 13 -6 18 13 75 26 75 3 0 12 -13 20 -30 17
-39 25 -38 45 5 15 32 15 36 -1 54 -11 12 -13 21 -7 25 6 4 8 19 5 35 -5 23
-1 32 25 50 17 12 35 19 41 16 6 -4 10 6 10 24 0 16 -4 33 -10 36 -17 11 -11
50 10 63 17 10 18 15 8 32 -10 16 -10 24 0 40 6 11 12 28 12 38 0 10 3 21 6
25 3 3 7 32 8 64 1 32 6 79 10 104 8 42 6 48 -11 53 -11 4 -26 18 -34 32 -12
23 -11 27 4 35 9 6 17 19 17 29 0 24 -8 25 -32 3 -17 -15 -18 -15 -18 5 0 11
8 34 17 50 15 26 15 32 3 47 -18 22 -25 192 -9 232 l11 28 9 -24 c5 -13 20
-37 34 -53 28 -33 33 -53 10 -44 -12 4 -15 -3 -15 -34 0 -22 -4 -40 -10 -40
-16 0 -12 -14 13 -51 20 -30 22 -43 19 -107 -4 -64 -2 -76 17 -96 18 -19 19
-27 11 -56 -6 -19 -10 -54 -10 -78 0 -36 3 -43 18 -40 13 3 17 14 18 53 0 36
5 51 16 53 12 2 15 23 16 110 0 102 -1 108 -21 117 -24 11 -37 55 -16 55 15 0
6 160 -11 205 -18 44 -22 108 -8 116 9 6 6 14 -10 32 -19 20 -22 34 -22 105 0
66 3 82 15 82 8 0 22 -12 32 -26 16 -24 16 -27 0 -36 -25 -13 -22 -64 3 -71
15 -4 20 -14 20 -40 0 -22 -6 -37 -15 -41 -8 -3 -15 -15 -15 -27 0 -16 5 -20
20 -16 24 6 26 -10 4 -34 -15 -16 -15 -20 0 -41 9 -12 16 -39 16 -60 0 -21 5
-38 10 -38 6 0 10 -27 10 -60 0 -34 4 -60 10 -60 7 0 10 47 8 133 -2 112 0
138 16 170 l18 37 -26 38 c-20 30 -26 50 -26 94 0 31 5 69 10 84 8 21 7 31 -5
44 -11 12 -15 32 -13 57 5 63 22 43 31 -37 5 -41 12 -79 18 -84 12 -13 12 309
-1 354 -7 25 -7 36 2 41 9 6 9 13 1 31 -18 36 -27 70 -29 103 0 17 -4 49 -9
73 -6 34 -5 42 7 42 10 0 14 -7 11 -22 -2 -13 3 -32 11 -43 14 -18 15 -14 16
63 0 75 -2 83 -18 78 -16 -5 -17 3 -13 106 3 99 2 110 -13 105 -14 -6 -16 6
-16 99 0 93 -2 105 -17 102 -13 -2 -19 6 -23 34 -4 20 -12 44 -19 52 -8 9 -11
26 -7 40 4 15 0 28 -10 37 -11 9 -14 22 -10 44 5 24 1 36 -14 50 -21 19 -34
58 -45 138 -3 26 -10 47 -14 47 -15 0 -43 72 -32 83 15 15 13 37 -3 37 -15 0
-26 21 -26 51 0 12 -7 19 -20 19 -16 0 -19 5 -13 30 4 24 2 30 -12 30 -9 0
-15 6 -12 13 2 6 14 12 26 11 16 0 21 5 21 27 0 19 -5 26 -17 25 -15 -1 -17 6
-15 35 2 23 -3 41 -13 49 -12 10 -15 9 -15 -6 0 -11 -9 -34 -20 -52 l-21 -34
-24 27 c-14 14 -25 34 -25 44 0 9 -6 25 -13 35 -13 17 -14 17 -20 2 -6 -14
-10 -14 -27 -4 -28 18 -25 38 5 38 27 0 34 14 11 23 -9 4 -12 14 -9 27 9 34
-59 86 -71 54 -3 -8 -15 -14 -27 -14 -18 0 -21 -4 -16 -32 3 -18 8 -43 12 -55
7 -21 6 -21 -29 -11 -39 12 -45 22 -20 36 14 8 2 30 -74 145 -50 74 -96 138
-102 142 -18 11 -11 -31 10 -55 24 -27 25 -40 5 -40 -12 0 -15 -17 -15 -94 0
-73 -3 -95 -15 -99 -23 -9 -28 11 -11 39 15 22 15 25 1 30 -19 8 -19 28 -1 43
11 9 11 17 2 36 -13 29 -24 32 -33 9 -4 -11 -10 -5 -19 21 -9 29 -10 42 -1 56
6 10 8 22 4 26 -11 10 -24 -13 -38 -62 -9 -32 -8 -44 5 -66 9 -15 16 -34 16
-43 0 -29 -21 -17 -38 22 -11 25 -22 37 -31 34 -15 -5 -41 23 -41 45 0 7 5 12
12 10 6 -1 18 11 26 27 11 22 16 25 23 15 8 -11 12 -10 24 5 17 22 11 33 -33
59 l-30 17 -42 -51 c-37 -44 -41 -53 -32 -74 10 -21 7 -35 -7 -35 -15 0 -33
64 -27 98 11 62 7 94 -14 117 -11 12 -20 30 -20 40 0 17 -2 17 -23 -3 -34 -32
-57 -29 -57 8 0 38 -23 40 -46 5z m142 -115 c13 0 13 -4 -3 -30 l-17 -30 -18
46 c-20 51 -13 82 9 40 7 -14 20 -26 29 -26z m-19 -127 c-3 -10 -5 -4 -5 12 0
17 2 24 5 18 2 -7 2 -21 0 -30z m370 -69 c8 -20 -13 -42 -27 -28 -12 12 -3 44
11 44 5 0 12 -7 16 -16z m-297 -34 c0 -10 5 -20 11 -22 9 -3 9 -10 0 -26 -17
-33 -31 -18 -31 34 0 28 4 43 10 39 6 -3 10 -15 10 -25z m56 13 c7 -10 14 -35
14 -55 0 -31 4 -38 20 -38 47 0 152 -144 136 -186 -4 -11 2 -26 14 -39 12 -13
18 -28 14 -38 -10 -26 -34 -20 -34 7 0 14 -7 32 -16 41 -12 11 -14 25 -9 52 6
34 5 35 -17 29 -13 -3 -29 -6 -35 -6 -9 0 -13 -16 -13 -47 l-1 -48 -19 35
c-12 23 -19 55 -20 92 0 53 -2 59 -36 84 -31 24 -34 29 -20 40 21 15 21 44 0
44 -11 0 -14 5 -10 16 3 9 6 20 6 25 0 14 12 11 26 -8z m297 -36 c17 -22 23
-41 20 -58 -6 -33 21 -99 41 -99 20 0 20 -5 -1 -51 -21 -44 -28 -47 -43 -18
-9 16 -8 24 3 37 13 14 13 21 3 40 -13 24 -25 18 -39 -18 -3 -8 -6 6 -6 32 -1
56 -9 78 -27 78 -17 0 -17 8 0 39 8 14 12 31 9 38 -10 25 15 13 40 -20z m-153
-16 c0 -28 -17 -35 -29 -12 -15 27 -14 31 9 31 13 0 20 -7 20 -19z m48 -96
c-3 -28 -8 -31 -26 -13 -18 18 -14 38 8 38 15 0 19 -6 18 -25z m-283 -65 c-11
-22 -20 -29 -27 -22 -6 6 -2 24 13 53 20 37 24 40 27 22 2 -12 -4 -36 -13 -53z
m75 -10 c-13 -25 -37 -42 -53 -38 -11 2 -10 11 5 46 19 42 20 43 38 27 14 -13
17 -22 10 -35z m506 10 c7 -41 18 -51 28 -25 3 8 10 15 16 15 13 0 13 -56 0
-80 -8 -14 -4 -25 16 -49 21 -25 23 -34 14 -51 -6 -12 -9 -29 -6 -37 6 -14 9
-14 26 2 16 14 20 15 20 4 0 -8 -5 -20 -11 -26 -14 -14 -2 -57 22 -79 10 -9
19 -28 19 -41 0 -13 7 -26 16 -30 14 -5 13 -8 -5 -23 l-22 -16 40 -77 c39 -73
52 -132 31 -139 -6 -2 3 -19 19 -38 27 -33 29 -42 30 -120 1 -61 6 -94 20
-123 13 -26 18 -50 14 -72 -3 -20 1 -45 9 -62 11 -22 12 -35 4 -53 -8 -17 -7
-25 2 -28 7 -2 12 -23 12 -52 0 -30 5 -52 15 -60 11 -9 14 -30 12 -79 -1 -36
2 -75 5 -86 8 -21 -6 -54 -17 -43 -4 4 -10 36 -15 73 -4 36 -15 77 -24 90 -9
14 -12 25 -6 25 13 0 13 37 -1 46 -6 4 -8 20 -5 39 5 27 2 38 -15 54 -12 11
-18 25 -14 31 4 6 1 66 -6 133 -9 92 -17 127 -31 143 -19 22 -24 54 -8 54 17
0 11 29 -11 51 -11 11 -18 27 -15 35 3 9 0 27 -8 42 -7 15 -21 63 -31 107 -9
44 -23 91 -30 105 -7 14 -11 37 -8 51 3 17 -7 53 -26 97 -17 39 -31 79 -31 89
0 23 -45 119 -60 128 -13 8 -13 115 0 115 5 0 13 -18 16 -40z m-482 -84 c-3
-9 -10 -16 -15 -16 -17 0 -22 30 -8 46 11 13 14 13 21 0 4 -8 5 -21 2 -30z
m265 10 c12 -19 28 -37 37 -40 8 -3 14 -11 12 -18 -2 -7 6 -27 18 -43 11 -17
31 -56 44 -89 13 -32 34 -71 48 -87 19 -23 22 -32 12 -43 -9 -11 -8 -21 3 -43
23 -44 56 -163 50 -179 -3 -8 2 -25 11 -39 9 -13 16 -37 16 -52 0 -16 7 -38
15 -51 14 -19 14 -24 0 -46 -13 -19 -13 -25 -3 -28 8 -3 13 -22 13 -49 0 -27
4 -43 11 -42 12 2 30 -214 20 -225 -9 -9 -46 29 -46 48 0 9 5 21 12 28 8 8 8
15 1 24 -10 12 -26 104 -27 153 -1 11 -9 31 -18 46 -15 21 -16 30 -5 58 10 28
10 34 -6 42 -12 7 -15 17 -11 33 3 13 -2 45 -10 70 -9 26 -16 60 -16 77 0 16
-13 56 -30 89 -16 33 -30 74 -30 92 0 22 -10 46 -30 69 -24 30 -28 42 -23 73
6 39 -8 49 -26 19 -8 -16 -12 -13 -25 19 -9 21 -16 49 -16 63 0 14 -4 25 -10
25 -5 0 -10 -4 -10 -10 0 -5 -4 -10 -9 -10 -4 0 -6 12 -3 26 3 15 -1 29 -8 34
-14 9 -7 40 9 40 5 0 19 -15 30 -34z m116 13 c-5 -16 4 -30 41 -64 44 -41 47
-46 36 -70 -18 -38 -15 -54 12 -64 17 -7 26 -22 35 -55 6 -24 15 -48 21 -51 5
-3 10 -25 10 -49 0 -30 9 -56 30 -89 26 -41 30 -58 30 -115 0 -75 19 -164 49
-235 17 -39 18 -47 6 -47 -21 0 -19 -23 5 -53 21 -26 27 -53 10 -42 -16 10
-11 -5 11 -33 l20 -26 -21 -8 c-22 -8 -20 -17 9 -51 12 -15 13 -24 4 -48 -9
-24 -9 -35 0 -50 8 -13 8 -22 1 -29 -8 -8 -5 -23 10 -53 24 -49 48 -227 31
-227 -6 0 -21 14 -34 31 -17 23 -20 33 -11 44 6 7 10 33 8 57 -2 34 -6 42 -20
40 -22 -4 -24 26 -3 34 8 4 15 11 15 16 0 6 -7 7 -16 4 -13 -5 -15 2 -13 40 2
31 -1 48 -11 54 -13 8 -13 12 2 26 15 15 15 20 2 58 -9 22 -13 53 -10 69 3 15
1 27 -4 27 -6 0 -10 13 -10 29 0 17 -4 32 -9 35 -5 3 -9 36 -9 73 0 41 -6 83
-16 107 -9 21 -16 51 -16 67 0 20 -6 30 -22 35 -21 6 -21 7 -3 20 18 13 18 17
-14 106 -18 51 -34 108 -37 127 -3 19 -20 56 -38 81 -22 31 -35 61 -38 94 -4
31 -14 56 -31 74 -24 26 -44 103 -32 123 12 18 26 9 20 -12z m-359 -87 c-15
-15 -16 -15 -16 4 0 28 24 52 28 28 2 -9 -3 -24 -12 -32z m94 3 c0 -17 8 -29
25 -37 19 -8 25 -19 25 -42 0 -18 8 -43 17 -56 10 -14 28 -54 40 -90 12 -36
33 -95 47 -131 13 -37 22 -76 19 -87 -3 -13 4 -33 17 -52 l21 -30 -20 0 c-29
0 -26 -11 11 -44 l33 -28 -22 -17 c-21 -17 -21 -17 -1 -57 11 -22 17 -50 14
-65 -3 -15 2 -36 11 -48 10 -15 13 -33 8 -57 -3 -21 -2 -41 5 -48 5 -8 12 -50
14 -94 2 -44 7 -85 10 -91 8 -13 -11 -51 -26 -51 -6 0 -8 11 -5 29 9 42 -9
150 -28 171 -15 17 -15 19 0 27 14 8 14 12 -5 35 -24 31 -25 38 -5 38 21 0 19
14 -10 48 -17 20 -21 32 -14 39 7 7 7 23 0 49 -6 22 -11 50 -11 63 0 14 -10
45 -22 69 -17 37 -19 50 -11 73 6 16 7 31 3 34 -19 12 -50 130 -44 168 5 29 3
37 -9 37 -9 0 -18 12 -22 29 -6 26 -21 47 -59 78 -8 7 -18 34 -21 60 -4 27
-10 60 -15 76 -8 23 -6 27 11 27 14 0 19 -7 19 -25z m530 -2 c0 -31 26 -63 52
-63 22 0 23 -16 3 -36 -13 -13 -15 -12 -21 11 -9 36 -22 31 -26 -12 -2 -20 -9
-39 -17 -41 -11 -4 -12 3 -7 29 11 59 11 74 -1 74 -20 0 -24 11 -14 39 13 34
31 34 31 -1z m-637 -90 c-17 -48 -33 -48 -33 -1 0 17 -7 39 -16 49 -13 15 -14
20 -2 32 11 13 16 12 39 -11 26 -25 26 -27 12 -69z m57 77 c0 -11 -4 -20 -10
-20 -5 0 -10 9 -10 20 0 11 5 20 10 20 6 0 10 -9 10 -20z m206 -96 c24 -42 44
-88 44 -100 0 -13 6 -27 14 -31 7 -4 16 -26 19 -48 10 -70 19 -110 28 -121 5
-6 11 -44 13 -85 2 -50 12 -91 28 -129 21 -45 26 -77 31 -170 3 -70 9 -116 16
-118 6 -2 11 -21 11 -42 0 -21 5 -42 10 -45 14 -9 13 -92 -2 -97 -12 -4 -8
-20 14 -50 17 -23 2 -36 -19 -16 -10 11 -17 41 -21 86 -3 54 -8 69 -18 65 -16
-6 -20 32 -4 42 15 9 12 56 -5 106 -9 24 -13 56 -10 70 4 16 0 40 -8 56 -8 15
-20 53 -26 83 -7 30 -19 69 -28 87 -14 29 -14 33 1 48 22 22 20 38 -8 72 -15
18 -24 41 -24 60 1 19 -10 44 -27 68 -26 33 -27 38 -12 47 21 11 23 32 2 24
-11 -4 -15 2 -15 22 0 16 -11 44 -26 63 -20 27 -24 41 -19 67 6 31 4 33 -14
27 -24 -7 -29 13 -9 33 15 15 11 19 64 -74z m419 -65 c-3 -9 15 -46 39 -84 41
-61 45 -72 39 -110 -3 -24 -1 -51 6 -61 9 -17 10 -17 11 -1 0 9 4 17 10 17 10
0 8 -99 -2 -116 -3 -5 5 -31 18 -58 13 -28 24 -59 24 -70 0 -11 5 -34 12 -52
9 -27 9 -38 -2 -60 -13 -24 -13 -28 8 -44 12 -10 28 -20 35 -23 9 -3 9 -9 -1
-31 -13 -29 -9 -46 12 -46 17 0 40 -160 34 -229 -5 -50 -38 -117 -46 -93 -2 7
2 22 10 34 12 19 11 23 -14 49 -33 32 -36 55 -8 64 24 8 26 28 4 49 -11 11
-17 42 -21 98 -3 60 -10 89 -24 110 -11 15 -19 38 -18 51 2 12 0 28 -4 34 -21
33 -42 123 -41 168 2 40 -3 57 -23 84 -23 30 -25 39 -19 92 5 49 3 61 -10 66
-11 4 -13 13 -9 33 5 22 0 34 -24 58 -34 33 -37 46 -20 89 8 22 12 24 19 13 5
-8 7 -22 5 -31z m-775 -239 c12 -17 24 -49 27 -70 4 -24 11 -40 19 -40 17 0
28 -40 22 -82 -3 -20 2 -44 12 -62 10 -17 23 -62 30 -101 6 -38 17 -79 25 -91
11 -17 11 -30 3 -64 -8 -30 -8 -55 0 -88 6 -29 7 -53 1 -64 -12 -22 -12 -90 1
-122 6 -17 4 -52 -6 -113 -9 -50 -14 -113 -11 -147 4 -43 1 -65 -10 -82 -11
-18 -12 -27 -3 -44 9 -16 8 -24 -5 -36 -8 -8 -15 -24 -15 -34 0 -10 -9 -25
-21 -34 -15 -10 -19 -20 -14 -35 4 -15 2 -21 -8 -21 -8 0 -17 -7 -21 -15 -4
-10 1 -15 14 -15 11 0 20 -4 20 -10 0 -5 -4 -10 -9 -10 -5 0 -13 -9 -16 -20
-3 -11 -12 -20 -19 -20 -15 0 -41 -120 -31 -149 9 -30 17 -27 54 20 23 28 39
39 54 37 35 -5 31 -32 -12 -82 -23 -26 -41 -51 -41 -56 0 -4 12 -17 27 -28
l26 -19 -21 -42 c-12 -23 -22 -46 -22 -50 0 -12 -52 -71 -62 -71 -17 0 -6 30
34 89 25 38 38 65 31 69 -5 4 -16 18 -23 31 -12 24 -13 24 -26 6 -8 -11 -12
-27 -9 -36 3 -10 1 -20 -4 -23 -6 -4 -30 -33 -55 -66 -37 -48 -46 -68 -46
-100 0 -51 12 -51 35 0 18 41 19 41 38 21 23 -23 17 -77 -8 -67 -9 3 -15 -1
-15 -10 0 -9 -9 -18 -20 -21 -13 -3 -20 -14 -20 -28 0 -13 -7 -30 -15 -39 -8
-8 -15 -19 -15 -24 0 -5 -10 -13 -22 -16 -21 -6 -22 -7 -6 -20 18 -13 14 -26
-8 -26 -20 0 -25 30 -7 56 15 23 15 26 0 37 -20 14 -10 32 18 32 15 0 21 8 23
34 6 63 -18 110 -31 60 -3 -11 -14 -23 -25 -26 -11 -2 -28 -23 -38 -45 -29
-65 -52 -89 -79 -82 -19 5 -28 -2 -55 -40 -37 -54 -70 -79 -94 -70 -26 10 -16
49 12 49 14 0 29 11 41 31 11 18 32 40 47 50 41 28 129 116 137 137 4 10 11
16 15 13 5 -3 14 11 21 30 8 23 19 34 32 34 11 0 19 7 19 16 0 19 42 61 56 58
5 -2 23 25 40 59 25 52 29 67 20 90 -13 36 -22 34 -45 -10 -10 -21 -33 -51
-50 -67 -17 -16 -28 -33 -25 -38 14 -23 -7 -57 -43 -69 -52 -16 -56 -20 -44
-32 19 -19 12 -29 -14 -23 -24 6 -25 4 -25 -33 0 -22 -5 -43 -10 -46 -6 -4
-10 9 -10 31 0 31 -2 35 -15 24 -8 -7 -15 -21 -15 -31 0 -19 -15 -26 -23 -11
-3 4 -8 30 -12 59 -6 46 -5 51 12 50 10 -1 23 -8 29 -16 9 -12 18 -5 45 37 19
28 39 50 45 48 6 -3 17 6 24 19 7 13 28 31 46 41 38 20 43 38 17 53 -17 9 -16
11 1 30 11 12 25 21 32 21 6 0 21 15 33 33 11 17 26 40 33 49 10 14 10 24 1
48 -8 20 -8 30 -1 30 19 0 37 34 28 51 -14 25 -1 57 26 63 19 5 24 13 24 36 0
18 8 37 20 47 18 16 20 30 20 153 0 79 6 163 15 203 10 48 11 76 4 94 -7 19
-5 41 6 80 9 29 13 58 9 64 -3 6 -8 36 -10 67 -5 84 -9 105 -21 127 -6 11 -16
44 -22 73 -6 29 -17 65 -25 80 -7 15 -11 33 -9 40 3 6 0 12 -6 12 -6 0 -11 18
-11 40 0 22 -4 40 -10 40 -5 0 -10 8 -10 18 0 9 -9 31 -20 47 -11 17 -17 38
-14 48 3 11 -2 27 -11 37 -10 11 -15 26 -11 36 4 10 0 21 -10 29 -14 10 -15
15 -3 36 12 23 13 22 30 -33 9 -31 26 -70 39 -88z m115 -53 c4 -23 14 -50 23
-60 13 -15 14 -22 4 -37 -10 -17 -8 -23 18 -41 25 -19 27 -24 15 -33 -13 -9
-13 -17 -4 -42 13 -32 6 -84 -11 -84 -6 0 -10 17 -10 39 0 21 -7 58 -15 81 -8
23 -15 56 -15 72 0 16 -6 31 -15 34 -11 5 -15 22 -15 66 0 67 15 70 25 5z
m214 -177 c4 0 8 -42 8 -92 1 -51 6 -122 12 -158 6 -36 11 -90 11 -121 0 -43
4 -58 16 -63 14 -5 14 -9 3 -22 -10 -13 -10 -17 2 -24 18 -11 22 -219 5 -226
-7 -3 -11 -33 -10 -77 1 -62 4 -72 18 -69 16 3 15 0 -2 -25 -29 -41 -35 -68
-17 -83 19 -16 19 -36 1 -43 -13 -5 -24 -90 -25 -201 0 -16 -7 -36 -15 -45
-27 -30 -54 -115 -42 -134 8 -12 8 -20 1 -25 -26 -18 -45 -65 -45 -108 0 -38
-5 -51 -29 -73 -20 -19 -27 -32 -21 -42 6 -8 4 -19 -5 -29 -8 -9 -21 -36 -30
-60 -9 -25 -25 -54 -36 -66 -17 -18 -19 -26 -10 -42 16 -30 14 -40 -10 -44
-16 -2 -25 -15 -34 -44 -12 -40 -65 -127 -86 -139 -6 -4 -17 1 -24 11 -14 18
-14 18 -15 -5 0 -41 -23 -91 -40 -91 -10 0 -25 -9 -35 -20 -14 -16 -15 -23 -6
-34 12 -15 8 -36 -7 -36 -4 0 -15 12 -24 28 -15 24 -15 29 -1 47 8 11 34 59
59 107 30 60 52 91 71 100 43 21 158 189 148 216 -3 8 3 25 13 36 11 12 25 39
32 61 7 22 19 51 27 64 8 12 12 32 10 43 -6 20 10 53 41 91 9 9 16 29 18 45 5
53 17 97 28 112 19 23 38 114 30 144 -4 16 -2 26 5 26 7 0 11 26 11 73 0 42 5
78 12 85 9 9 8 21 -2 51 -10 31 -10 46 -1 73 7 18 15 83 17 143 3 61 10 125
16 143 8 26 7 37 -5 50 -8 9 -18 28 -22 41 -5 17 -9 20 -15 11 -14 -22 -23 97
-16 201 6 87 5 98 -9 93 -19 -8 -19 0 2 32 15 24 15 27 -6 65 -23 40 -20 65 6
55 8 -3 18 -6 22 -6z m-78 -244 c0 -44 1 -144 2 -221 2 -124 0 -143 -17 -169
-14 -21 -16 -31 -8 -34 13 -4 16 -40 4 -59 -14 -22 -29 1 -35 55 -5 38 -3 54
7 58 16 6 22 254 6 254 -6 0 -10 9 -10 20 0 11 4 20 8 20 5 0 8 15 8 33 0 17
3 39 7 48 5 9 0 24 -13 39 -23 27 -12 51 21 43 18 -5 20 -14 20 -87z m424
-208 c2 -25 13 -76 24 -113 12 -37 19 -70 16 -73 -3 -3 -5 0 -5 6 0 6 -6 9
-14 6 -17 -6 -36 43 -36 95 -1 20 -7 54 -15 76 -10 29 -11 43 -3 52 17 20 28
2 33 -49z m-360 -106 c-5 -38 -10 -51 -16 -41 -13 20 -11 87 3 112 11 20 12
21 16 3 2 -10 1 -44 -3 -74z m169 -23 c11 -107 7 -208 -9 -239 -12 -22 -13
-35 -4 -57 12 -32 2 -290 -12 -299 -5 -3 -9 -20 -9 -37 0 -18 -7 -43 -16 -56
-14 -19 -14 -27 -4 -46 15 -28 5 -48 -21 -40 -22 7 -26 -13 -6 -34 10 -11 9
-13 -5 -8 -26 9 -30 -8 -8 -28 16 -14 17 -21 8 -32 -6 -8 -17 -12 -25 -9 -10
4 -13 -4 -12 -32 2 -52 -63 -231 -91 -252 -20 -15 -22 -23 -16 -60 7 -44 -1
-59 -76 -141 -32 -35 -36 -64 -10 -78 21 -12 8 -40 -26 -56 -17 -7 -22 -18
-22 -47 0 -28 -5 -38 -20 -43 -23 -7 -45 -75 -36 -111 8 -29 -5 -31 -22 -4
-10 17 -8 30 13 80 30 72 55 171 55 223 0 33 7 45 58 92 53 50 56 55 44 75
-12 19 -10 26 13 60 22 32 25 42 15 60 -9 16 -9 25 0 36 16 18 30 9 31 -19 0
-17 4 -14 14 13 17 44 18 95 4 118 -9 14 -6 26 15 56 14 21 26 49 26 61 0 12
7 28 14 35 8 6 22 34 31 61 9 27 21 51 26 54 16 10 10 27 -7 21 -13 -5 -15 -1
-9 21 12 48 34 93 45 93 8 0 11 33 11 108 -1 127 8 273 19 287 13 19 11 154
-4 189 -14 33 -11 42 15 45 3 1 9 -27 13 -60z m-394 -4 c0 -13 -4 -27 -10 -30
-6 -4 -10 8 -10 30 0 22 4 34 10 30 6 -3 10 -17 10 -30z m524 18 c9 -24 -9
-39 -29 -23 -8 7 -15 19 -15 26 0 20 37 17 44 -3z m-54 -109 c0 -46 5 -95 12
-109 10 -22 9 -28 -3 -36 -25 -15 -41 -11 -34 11 3 10 1 56 -5 100 -13 95 -6
148 16 129 10 -8 14 -35 14 -95z m-1387 29 c3 -16 3 -30 1 -33 -7 -7 -24 23
-24 43 0 27 17 20 23 -10z m1841 10 c11 -26 -11 -40 -32 -20 -15 16 -15 19 -2
27 21 14 27 12 34 -7z m-700 -2 c3 -5 3 -23 0 -40 -6 -26 -9 -29 -25 -20 -21
11 -26 55 -6 62 19 8 25 8 31 -2z m336 -6 c14 9 12 -21 -3 -53 -15 -32 -14
-76 2 -95 6 -8 8 -27 5 -45 -3 -17 -1 -54 6 -83 10 -43 10 -53 -1 -60 -11 -6
-14 -42 -16 -151 -1 -79 -5 -151 -8 -161 -4 -9 -2 -24 5 -32 11 -13 10 -21 -1
-41 -11 -21 -11 -27 1 -34 11 -7 11 -11 1 -24 -8 -9 -10 -24 -5 -38 12 -37 10
-97 -3 -103 -8 -2 -13 -23 -13 -52 0 -27 -7 -57 -16 -68 -9 -12 -12 -30 -8
-47 4 -20 1 -30 -10 -34 -21 -8 -20 -21 4 -51 26 -33 25 -43 -4 -43 -25 0 -28
-7 -43 -100 -3 -19 -11 -42 -18 -50 -7 -8 -21 -41 -30 -72 -10 -36 -22 -58
-31 -58 -8 0 -14 -9 -14 -20 0 -28 -59 -142 -70 -135 -11 7 -50 -47 -50 -70 0
-9 -5 -25 -10 -36 -8 -13 -7 -25 0 -39 15 -28 27 -25 33 10 4 17 26 47 52 72
39 36 45 47 39 70 -4 22 -2 28 11 28 9 0 24 18 35 45 11 25 24 45 30 45 5 0
10 14 10 30 0 18 6 33 15 36 10 4 15 20 15 48 0 48 33 141 50 141 28 0 54 69
29 77 -7 2 -3 18 10 44 12 23 24 64 28 92 3 29 10 49 14 46 5 -3 9 2 9 10 0 8
-5 18 -11 22 -7 4 -8 19 -3 43 4 20 8 102 8 183 1 123 4 150 18 164 13 13 14
22 6 46 -6 16 -8 49 -5 73 3 28 -1 55 -10 72 -13 26 -13 29 8 46 20 16 21 19
5 35 -31 36 -7 45 32 13 26 -22 28 -34 7 -51 -8 -7 -15 -19 -15 -26 0 -8 7
-14 15 -14 20 0 19 -16 -1 -24 -11 -4 -14 -13 -11 -28 4 -13 0 -26 -10 -33
-14 -10 -14 -15 2 -44 16 -32 16 -35 -1 -66 -15 -28 -16 -36 -4 -49 11 -14 10
-19 -5 -35 -18 -21 -14 -53 11 -82 15 -17 9 -49 -8 -49 -6 0 -9 -44 -7 -114 3
-80 0 -118 -9 -129 -8 -10 -10 -29 -6 -56 4 -28 3 -41 -5 -41 -14 0 -15 -37
-1 -45 17 -11 11 -23 -12 -27 -19 -2 -22 -8 -20 -34 2 -19 -7 -49 -22 -79 -14
-26 -26 -54 -26 -60 0 -7 -6 -15 -14 -18 -8 -3 -17 -19 -21 -36 -3 -16 -13
-35 -20 -41 -11 -9 -12 -17 -4 -31 6 -13 6 -19 0 -19 -6 0 -15 -17 -20 -38 -6
-21 -22 -53 -36 -72 -15 -21 -25 -47 -25 -69 0 -27 -3 -32 -12 -23 -22 22 -40
14 -36 -15 3 -24 -2 -29 -29 -38 -37 -10 -43 -24 -13 -32 11 -3 20 -9 20 -14
0 -13 -34 -11 -48 3 -8 8 -14 4 -23 -18 -6 -16 -11 -39 -11 -52 -1 -31 -18
-39 -25 -12 -6 21 -7 21 -18 6 -29 -39 -59 11 -33 54 11 17 14 18 29 4 15 -13
16 -9 13 56 -3 64 -1 75 26 119 17 27 38 52 46 55 11 4 15 14 12 31 -4 17 -1
25 9 25 9 0 12 7 7 25 -4 15 -2 25 4 25 14 0 73 86 71 102 -4 35 3 59 19 65
26 10 31 24 20 49 -8 16 -8 31 0 51 6 15 13 49 17 75 3 25 13 52 20 58 8 7 15
28 15 48 0 19 7 43 16 53 12 13 13 22 5 37 -8 15 -7 23 5 33 11 9 14 22 9 47
-3 18 -2 39 3 45 18 22 24 93 10 105 -15 12 -16 141 -2 164 15 23 14 182 -1
205 -13 19 -12 24 7 48 19 24 20 30 8 66 -11 32 -11 44 0 64 10 19 10 27 1 39
-8 9 -10 28 -6 49 4 21 1 47 -9 71 -18 44 -13 61 15 46 11 -6 24 -8 29 -5z
m-1610 -22 c0 -20 -3 -24 -11 -16 -7 7 -9 19 -6 27 10 24 17 19 17 -11z m1682
-43 c-2 -22 0 -46 6 -53 13 -15 19 -98 8 -115 -14 -23 -26 -12 -26 26 0 21 -5
64 -11 96 -11 62 -7 86 13 86 10 0 12 -12 10 -40z m298 9 c0 -5 -9 -9 -20 -9
-22 0 -27 16 -7 23 15 5 27 -1 27 -14z m-588 -24 c0 -5 -5 -11 -11 -13 -6 -2
-11 4 -11 13 0 9 5 15 11 13 6 -2 11 -8 11 -13z m484 -10 c4 -8 3 -22 0 -30
-4 -13 -10 -14 -26 -5 -16 9 -18 15 -10 30 13 24 28 26 36 5z m-623 -114 c-7
-134 -14 -185 -27 -193 -8 -6 -7 -8 2 -8 19 0 14 -35 -8 -55 -11 -10 -20 -30
-20 -44 0 -16 -8 -31 -21 -39 -27 -17 -37 -7 -20 20 23 37 31 79 19 101 -9 18
-6 24 18 45 l28 25 -22 15 c-27 18 -28 30 -1 58 16 17 22 40 26 91 6 85 11
103 23 84 4 -8 6 -53 3 -100z m-70 59 c3 -11 -4 -36 -14 -57 -10 -20 -16 -46
-13 -56 3 -10 -1 -26 -9 -35 -26 -28 -31 -69 -11 -80 19 -10 11 -32 -12 -32
-14 0 -18 -15 -14 -58 1 -18 -3 -22 -17 -20 -16 3 -18 -4 -15 -63 4 -76 -7
-92 -36 -51 -18 24 -19 30 -6 52 7 14 13 35 14 47 0 12 7 26 16 31 10 6 18 32
24 76 4 37 13 72 19 79 5 7 12 28 14 47 3 19 12 52 21 72 9 21 16 47 16 58 0
25 15 19 23 -10z m611 -23 c-4 -35 -2 -64 8 -87 8 -19 13 -61 12 -93 -1 -39 2
-60 11 -63 8 -3 15 -40 19 -107 4 -56 11 -122 16 -147 7 -35 5 -51 -8 -74 -24
-42 -42 -44 -42 -7 0 21 5 31 15 31 16 0 16 -1 -6 98 -6 29 -8 72 -5 94 7 40
-5 68 -28 68 -10 0 -13 -241 -5 -430 2 -30 -1 -87 -5 -126 -7 -56 -5 -76 7
-101 15 -28 15 -32 -1 -46 -10 -9 -27 -14 -39 -11 -27 7 -37 -10 -21 -35 11
-18 10 -23 -7 -35 -29 -22 -30 -21 -30 25 0 32 7 49 28 72 l28 31 -2 150 c-2
116 1 156 12 174 12 20 12 26 -4 54 -16 28 -16 33 -3 40 21 12 20 38 -1 53
-16 12 -16 14 0 29 22 22 21 35 0 52 -15 10 -16 15 -5 25 6 7 12 26 12 43 0
16 7 37 15 46 11 13 13 24 6 46 -21 65 -22 84 -6 78 20 -8 19 15 -1 37 -15 17
-15 21 1 55 11 23 15 47 11 68 -6 32 -1 46 16 46 4 0 5 -24 2 -53z m211 -51
c10 -53 13 -82 6 -89 -12 -12 -31 31 -31 71 0 15 -4 42 -10 61 -10 35 -4 59
10 44 5 -4 16 -44 25 -87z m-125 15 c0 -22 9 -61 20 -87 18 -41 19 -49 6 -62
-22 -22 -33 -8 -40 52 -3 31 -11 66 -17 80 -14 29 -6 56 16 56 11 0 15 -11 15
-39z m-1826 -46 c3 -9 0 -15 -9 -15 -8 0 -15 7 -15 15 0 8 4 15 9 15 5 0 11
-7 15 -15z m1464 -37 c2 -33 -1 -47 -12 -51 -19 -8 -26 12 -19 62 7 55 27 48
31 -11z m-5 -120 c-9 -25 -8 -86 1 -123 5 -20 3 -23 -10 -18 -15 5 -16 0 -10
-38 5 -35 2 -50 -14 -74 -26 -39 -26 -81 0 -95 12 -6 20 -21 20 -35 0 -13 5
-35 11 -48 8 -18 7 -37 -6 -80 -9 -31 -20 -59 -25 -62 -5 -3 -6 -20 -3 -39 6
-36 -8 -54 -25 -33 -7 9 -5 28 8 67 13 37 15 57 8 61 -11 7 -7 22 13 49 8 11
8 27 -1 60 l-13 45 -13 -30 c-7 -16 -13 -51 -14 -77 0 -38 -3 -46 -15 -42 -10
4 -15 0 -15 -14 0 -32 -22 -75 -53 -101 l-28 -23 19 -32 c21 -36 18 -56 -8
-56 -24 0 -39 -27 -47 -87 -3 -26 -14 -58 -24 -71 -9 -12 -25 -45 -35 -73 -10
-27 -24 -55 -30 -60 -7 -6 -10 -26 -8 -47 4 -34 0 -40 -40 -72 -40 -31 -45
-40 -45 -76 -1 -25 -7 -47 -17 -55 -8 -7 -22 -26 -31 -43 -8 -17 -22 -39 -31
-49 -14 -16 -17 -16 -33 -1 -16 14 -18 14 -27 -3 -5 -10 -13 -33 -17 -51 -8
-40 -17 -41 -32 -1 -10 26 -9 34 13 66 14 21 24 51 24 72 1 34 1 35 16 16 8
-11 20 -27 25 -35 14 -23 46 21 54 74 5 32 19 55 55 95 28 31 46 59 43 67 -3
8 7 31 22 50 21 27 26 41 19 52 -7 11 1 35 29 88 21 40 42 76 47 79 6 4 10 18
10 33 1 15 7 38 15 52 8 14 14 39 15 56 0 21 10 40 36 65 25 24 34 41 31 56
-2 13 2 24 9 27 8 3 14 21 14 43 0 21 11 79 24 128 13 50 27 119 30 155 4 36
15 80 24 98 14 27 15 36 4 53 -11 18 -11 24 4 40 23 26 37 24 27 -3z m408 12
c23 -13 24 -26 3 -48 -15 -15 -18 -14 -30 3 -15 20 -18 38 -7 48 8 9 11 9 34
-3z m-1238 -48 c-8 -23 -24 -42 -34 -42 -14 0 -10 19 9 45 19 25 35 24 25 -3z
m167 -9 c0 -10 -4 -24 -9 -32 -12 -19 -24 3 -16 29 8 25 25 26 25 3z m1126
-30 c-12 -12 -29 15 -21 34 7 17 8 16 18 -5 5 -12 7 -25 3 -29z m-739 -35 c-3
-7 -5 -2 -5 12 0 14 2 19 5 13 2 -7 2 -19 0 -25z m-542 -31 c4 -23 5 -58 3
-77 l-4 -35 -22 48 c-18 40 -24 46 -39 38 -27 -14 -59 -51 -86 -99 -21 -37
-26 -41 -37 -27 -10 13 -8 22 14 53 14 21 26 43 26 50 0 7 5 11 12 10 7 -2 16
15 21 40 10 43 21 53 31 27 8 -21 33 -19 46 5 15 29 28 17 35 -33z m499 -62
c3 -9 0 -15 -9 -15 -8 0 -15 -9 -15 -20 0 -11 -4 -20 -10 -20 -15 0 -12 -26 5
-40 8 -7 15 -19 15 -28 0 -12 -5 -11 -21 6 -11 12 -24 20 -30 17 -22 -14 -19
28 5 70 27 46 49 57 60 30z m-54 -171 c0 -7 -3 -20 -6 -28 -5 -13 -9 -14 -20
-5 -15 12 -19 61 -7 73 9 8 33 -22 33 -40z m-58 -98 c-6 -37 -20 -86 -32 -110
-18 -36 -20 -47 -10 -65 9 -17 9 -26 -1 -37 -11 -14 -15 -13 -31 8 -24 31 -23
64 2 71 14 3 20 14 20 32 0 14 7 33 15 41 8 9 15 28 15 43 0 31 20 95 27 87 3
-2 0 -34 -5 -70z m-103 -198 c5 -14 3 -31 -6 -47 -7 -14 -13 -41 -13 -58 0
-34 -8 -41 -27 -22 -17 17 -35 0 -28 -28 4 -19 -2 -32 -36 -63 -22 -22 -45
-40 -50 -40 -5 0 -9 -13 -9 -29 0 -31 -34 -81 -55 -81 -7 0 -23 -15 -34 -32
-11 -18 -36 -46 -56 -61 -19 -16 -48 -47 -62 -69 l-27 -40 -10 28 c-8 26 -4
32 57 88 69 64 87 90 87 127 0 18 2 19 15 9 10 -8 15 -9 15 -2 0 6 10 21 22
32 19 17 21 24 10 40 -11 18 -8 22 26 39 64 33 120 110 155 214 8 23 16 22 26
-5z m474 -10 c2 -7 -2 -26 -10 -42 -8 -15 -17 -54 -19 -85 -7 -73 -13 -105
-21 -97 -7 7 -53 -33 -53 -45 0 -4 7 -15 16 -24 15 -14 15 -18 -1 -41 -9 -14
-23 -28 -31 -31 -8 -3 -14 -14 -14 -26 0 -11 -19 -37 -41 -58 -36 -33 -40 -41
-29 -54 12 -14 8 -21 -30 -54 -39 -33 -43 -42 -45 -85 -2 -39 -8 -53 -36 -82
-25 -26 -33 -42 -31 -63 2 -16 -1 -32 -7 -36 -7 -4 -11 6 -11 25 0 21 -4 30
-12 27 -7 -2 -13 -16 -13 -30 1 -19 -4 -27 -16 -27 -9 0 -22 -13 -29 -30 -8
-19 -20 -30 -32 -30 -16 0 -18 -5 -12 -35 5 -29 3 -35 -11 -35 -12 0 -15 5
-10 20 8 24 5 25 -40 3 -26 -12 -38 -26 -42 -46 -7 -35 -23 -30 -48 16 -15 28
-17 41 -9 54 14 23 34 28 34 9 0 -25 17 -19 37 14 20 35 27 37 39 10 10 -23
20 -17 52 28 15 21 21 40 17 52 -6 20 2 25 34 20 25 -3 61 41 61 76 0 23 5 34
19 39 10 3 29 28 40 56 12 27 29 53 37 56 10 4 13 14 9 37 -5 26 -2 34 24 50
16 11 27 25 24 32 -2 7 7 20 20 29 18 12 29 34 42 83 9 37 23 77 31 90 8 12
12 27 9 32 -4 6 0 13 8 16 8 3 12 14 10 27 -3 15 5 32 21 50 14 16 26 37 26
47 0 23 20 70 31 70 4 0 9 -6 12 -12z m354 -142 c6 -21 6 -37 0 -47 -7 -12 -4
-24 13 -47 19 -26 21 -34 10 -47 -8 -9 -10 -28 -7 -49 3 -19 2 -36 -3 -38 -5
-2 -6 -37 -2 -80 4 -42 4 -74 0 -72 -4 3 -8 -11 -8 -31 0 -46 -23 -101 -49
-114 -13 -8 -21 -23 -23 -49 -3 -36 -4 -37 -41 -35 l-39 3 -37 -82 c-23 -49
-41 -77 -45 -70 -5 9 -14 7 -33 -8 -14 -11 -33 -20 -42 -20 -10 0 -26 -6 -36
-14 -17 -12 -18 -18 -7 -40 13 -28 32 -35 32 -11 0 11 11 15 36 15 31 0 35 3
29 20 -9 29 13 25 27 -6 16 -34 -15 -98 -44 -88 -35 11 -58 -5 -58 -41 0 -19
-4 -37 -10 -40 -5 -3 -10 3 -10 14 0 29 -17 26 -24 -4 -4 -14 -17 -32 -31 -41
-14 -9 -25 -23 -25 -30 0 -17 -12 -18 -27 -3 -7 7 -15 2 -27 -15 -9 -15 -25
-26 -36 -26 -11 0 -24 -9 -30 -20 -16 -29 -48 -25 -61 7 -5 14 -6 29 -2 32 5
3 16 19 26 34 10 15 22 25 27 22 5 -3 11 16 15 42 3 27 9 70 14 96 9 52 -5 71
-33 48 -8 -7 -18 -10 -24 -9 -5 2 -18 -7 -28 -19 -11 -13 -30 -24 -44 -26 -19
-3 -27 -12 -33 -41 -10 -39 -4 -66 13 -66 5 0 10 9 10 20 0 27 21 70 32 64 5
-3 6 -14 3 -25 -12 -37 24 -20 45 21 18 35 40 53 40 33 0 -22 -63 -113 -93
-136 -60 -45 -71 -35 -70 65 1 80 -18 90 -28 16 -8 -50 -24 -88 -39 -88 -15 0
-42 47 -38 66 4 22 28 31 28 10 0 -9 7 -16 15 -16 11 0 15 11 15 36 0 27 7 43
30 64 34 31 36 42 16 60 -12 9 -21 5 -45 -22 -22 -25 -33 -30 -41 -22 -20 20
-7 49 22 52 19 2 31 13 43 38 20 42 39 34 32 -13 -5 -31 -4 -33 15 -27 18 5
20 3 14 -20 -8 -34 -1 -46 25 -39 17 5 20 11 15 34 -7 35 17 58 44 42 21 -14
40 0 41 32 0 11 11 -9 24 -44 23 -63 67 -121 92 -121 16 0 17 -16 2 -25 -6 -4
-21 2 -33 14 -22 21 -23 21 -39 3 -22 -24 -23 -72 -2 -72 8 0 15 -7 15 -15 0
-35 38 -5 114 90 26 32 28 38 16 60 -12 22 -18 24 -52 19 -25 -4 -38 -3 -38 5
0 6 11 11 25 11 27 0 31 10 14 42 -15 27 3 47 26 28 21 -17 23 -13 17 38 -4
42 -22 60 -22 23 0 -11 -4 -22 -9 -26 -15 -8 -25 15 -12 28 6 6 11 23 11 38 0
28 29 89 43 89 4 0 7 12 7 28 0 15 7 36 15 46 8 11 15 28 15 38 0 28 17 21 28
-10 7 -21 6 -35 -4 -53 -7 -13 -14 -40 -14 -59 0 -21 -10 -46 -23 -62 -17 -21
-21 -37 -19 -73 5 -64 41 -59 57 8 10 38 23 43 47 17 16 -17 22 -19 29 -8 6 9
2 19 -12 30 -17 14 -18 21 -9 38 l11 21 18 -22 18 -22 19 39 c14 29 26 40 47
42 31 4 34 17 11 43 -15 17 -15 20 10 49 30 36 30 38 11 64 -14 18 -12 36 4
36 4 0 13 -11 19 -25 16 -34 32 -32 32 4 0 17 5 33 10 36 6 3 10 43 10 89 0
48 5 87 11 93 9 9 6 21 -10 49 -12 20 -20 43 -17 50 3 8 -4 14 -17 16 -22 3
-22 3 3 26 21 19 23 25 12 42 -17 28 -15 39 7 33 10 -2 23 -19 28 -37z m-82
-100 c-14 -21 -14 -24 0 -29 21 -9 19 -66 -4 -96 -11 -14 -23 -21 -30 -17 -8
5 -9 12 -2 20 6 7 6 17 1 26 -5 8 -6 18 -4 22 3 5 7 33 9 63 4 68 12 83 31 56
13 -18 13 -24 -1 -45z m143 22 c-6 -18 -25 -20 -31 -3 -5 10 0 15 14 15 12 0
19 -5 17 -12z m-215 -75 c8 -44 -3 -159 -13 -143 -6 10 -70 -117 -70 -139 0
-5 -6 -14 -14 -20 -11 -10 -16 -8 -20 7 -9 26 9 68 34 84 25 16 28 61 4 51
-12 -4 -15 -2 -12 8 2 8 14 15 26 17 23 4 29 17 12 27 -15 10 -12 23 8 29 13
4 17 16 16 48 -2 74 19 96 29 31z m-628 -74 c4 -6 5 -12 2 -15 -7 -7 -37 7
-37 17 0 13 27 11 35 -2z m725 -24 c0 -8 -9 -19 -20 -25 -14 -7 -19 -17 -15
-29 3 -10 -6 -39 -21 -66 -15 -26 -27 -60 -26 -76 0 -16 -4 -29 -9 -29 -5 0
-9 -9 -9 -20 0 -11 -6 -20 -13 -20 -7 0 -24 -12 -37 -27 -34 -40 -37 -13 -6
56 14 32 26 64 26 72 0 10 3 10 11 2 9 -9 18 4 35 53 12 36 20 72 17 80 -3 8
1 14 10 14 8 0 17 7 21 15 7 19 36 20 36 0z m-750 -40 c0 -27 -9 -32 -28 -13
-18 18 -14 38 8 38 15 0 20 -7 20 -25z m-53 -47 c16 -61 5 -79 -23 -33 -20 35
-22 36 -29 15 -4 -13 2 -42 15 -76 22 -52 22 -55 5 -74 -25 -28 -35 -25 -29 9
3 15 -1 56 -10 90 -9 35 -16 65 -16 67 0 5 62 44 70 44 3 0 11 -19 17 -42z
m-174 0 c8 -11 5 -21 -10 -37 -12 -12 -26 -42 -33 -67 -14 -49 -16 -51 -42
-27 -30 27 -23 67 17 97 19 15 35 34 35 42 0 19 20 14 33 -8z m73 -86 c-12
-11 -18 7 -10 30 l8 23 4 -23 c2 -13 1 -26 -2 -30z m-326 18 c0 -11 -4 -20
-10 -20 -5 0 -10 9 -10 20 0 11 5 20 10 20 6 0 10 -9 10 -20z m-55 -97 c-4
-18 -1 -23 15 -23 11 0 22 6 24 13 15 50 14 49 37 26 l21 -21 -27 -40 c-21
-31 -29 -38 -36 -27 -8 11 -11 10 -21 -5 -10 -18 -12 -17 -39 15 l-27 34 -7
-27 c-9 -37 -33 -57 -46 -37 -17 27 -9 48 39 97 42 45 48 48 60 34 7 -10 10
-27 7 -39z m191 43 c21 -22 17 -34 -16 -51 -16 -9 -30 -20 -30 -25 0 -20 -28
2 -33 26 -5 26 8 48 33 57 24 9 31 8 46 -7z m554 -105 c-11 -22 -30 -28 -30
-10 0 5 8 21 18 34 20 27 30 8 12 -24z m-312 -58 c15 -34 15 -41 -2 -59 -19
-18 -26 -18 -26 1 0 9 -6 18 -14 21 -15 6 -12 27 7 52 14 18 21 15 35 -15z
m-108 -32 c0 -10 7 -24 15 -31 21 -17 19 -23 -15 -42 -25 -14 -30 -15 -30 -3
0 8 -4 15 -10 15 -5 0 -10 -6 -10 -12 0 -7 -3 -23 -6 -35 -5 -18 0 -25 30 -37
40 -16 47 -40 17 -56 -16 -8 -21 -6 -26 10 -7 24 -13 24 -39 5 -31 -23 -36
-18 -34 33 1 39 8 54 39 88 20 23 40 51 44 63 8 26 25 28 25 2z m386 3 c-3 -9
2 -29 11 -45 18 -29 17 -30 -12 -53 -33 -26 -45 -20 -45 23 0 37 22 91 38 91
9 0 12 -6 8 -16z m-149 -250 c2 -7 -7 -11 -21 -11 -17 0 -23 4 -19 14 6 16 34
14 40 -3z m660 -28 c3 -2 2 -13 -1 -24 -6 -17 -12 -19 -41 -12 -30 7 -35 5
-35 -10 0 -11 5 -22 10 -25 21 -13 9 -25 -25 -25 -25 0 -38 5 -42 18 -4 9 -11
20 -16 23 -5 4 -6 16 -2 28 5 18 9 20 21 10 8 -6 14 -18 14 -25 0 -8 4 -14 9
-14 12 0 25 29 30 64 1 8 69 2 78 -8z m-137 -111 c0 -6 -10 -11 -22 -11 -19 1
-22 -4 -20 -26 2 -18 -4 -31 -20 -42 -17 -12 -20 -18 -10 -28 7 -7 12 -19 12
-27 0 -10 -11 -4 -30 18 l-30 32 42 65 c40 60 43 63 60 47 10 -9 18 -21 18
-28z m-90 -196 c0 -10 -4 -19 -10 -19 -5 0 -10 12 -10 26 0 14 4 23 10 19 6
-3 10 -15 10 -26z m-233 -104 c-4 -8 -13 -15 -22 -15 -21 0 -19 28 3 32 22 5
26 2 19 -17z"/>
<path d="M2247 4423 c-4 -3 -7 -18 -7 -32 0 -18 3 -22 11 -14 6 6 18 9 25 6
17 -6 18 2 4 28 -11 20 -22 24 -33 12z"/>
<path d="M2350 4901 c-13 -26 -14 -26 15 -27 20 -2 25 3 25 22 0 29 -25 32
-40 5z"/>
<path d="M1460 4872 c0 -16 7 -35 16 -43 14 -11 15 -8 12 26 -4 46 -28 61 -28
17z"/>
<path d="M1510 4871 c0 -12 6 -21 16 -21 9 0 14 7 12 17 -5 25 -28 28 -28 4z"/>
<path d="M1754 4872 c-18 -11 -22 -68 -5 -64 7 1 19 -5 26 -15 11 -15 13 -11
12 35 -2 50 -9 60 -33 44z"/>
<path d="M1332 4852 c-9 -6 -10 -16 -4 -32 l9 -24 12 21 c20 38 12 53 -17 35z"/>
<path d="M1370 4853 c0 -5 4 -15 10 -23 11 -18 25 -7 17 15 -6 15 -27 21 -27
8z"/>
<path d="M1875 4847 c-4 -9 -4 -37 -1 -61 4 -26 2 -54 -5 -70 -15 -33 -26 -33
-26 0 0 52 -43 58 -65 9 -9 -20 -8 -28 6 -44 16 -18 16 -19 -7 -24 -19 -5 -23
-13 -23 -41 0 -19 -8 -44 -18 -55 -15 -17 -16 -26 -7 -77 14 -73 25 -85 52
-57 20 20 18 50 -2 37 -6 -3 -7 5 -3 22 6 24 5 26 -11 20 -11 -4 -22 -2 -26 5
-11 19 1 39 25 39 16 0 24 10 36 48 10 32 21 48 35 51 11 2 23 8 27 15 5 7 8
3 7 -9 0 -11 -15 -51 -34 -90 -34 -69 -34 -70 -14 -91 10 -11 19 -26 19 -32 0
-7 4 -12 8 -12 17 0 32 25 32 52 0 22 -5 28 -21 28 -13 0 -19 5 -15 13 3 6 9
20 12 30 7 19 24 23 24 5 0 -6 6 -4 13 6 12 16 14 16 26 2 8 -9 24 -16 37 -16
19 0 24 -5 24 -25 0 -30 16 -33 25 -4 4 13 0 28 -11 41 -18 19 -18 20 -1 33
11 8 17 26 17 51 0 29 -3 35 -12 26 -19 -19 -46 -14 -80 17 -31 28 -32 29 -16
54 16 23 16 28 -2 73 -14 38 -20 45 -25 31z m49 -203 c16 -16 22 -44 9 -44
-19 1 -45 30 -40 45 8 19 12 19 31 -1z"/>
<path d="M1563 4837 c-44 -17 -48 -23 -29 -52 21 -33 40 -32 52 3 l11 27 13
-27 c17 -36 25 -35 57 3 14 16 32 28 39 25 8 -3 14 1 14 10 0 20 -30 30 -41
13 -6 -11 -11 -11 -21 -1 -15 15 -52 14 -95 -1z"/>
<path d="M2141 4833 c2 -10 0 -23 -4 -30 -13 -20 14 -26 28 -7 19 24 15 48 -8
52 -13 3 -18 -1 -16 -15z"/>
<path d="M2266 4841 c-8 -12 13 -49 32 -56 15 -5 25 16 20 42 -4 20 -42 30
-52 14z"/>
<path d="M2351 4831 c-12 -22 -17 -118 -7 -128 3 -4 13 0 22 8 12 13 13 21 3
41 -10 22 -8 29 10 47 12 12 21 28 21 36 0 22 -37 19 -49 -4z"/>
<path d="M2525 4840 c-11 -5 -33 -9 -48 -9 -25 -1 -57 -20 -57 -34 0 -3 9 -7
19 -10 11 -2 21 -15 23 -28 2 -16 9 -23 20 -21 13 2 16 -5 16 -28 -1 -37 7
-47 27 -30 21 18 19 30 -11 62 l-27 27 32 30 c17 16 31 34 31 40 0 6 -1 11 -2
10 -2 0 -12 -4 -23 -9z"/>
<path d="M971 4794 c0 -11 3 -14 6 -6 3 7 2 16 -1 19 -3 4 -6 -2 -5 -13z"/>
<path d="M1074 4785 c-9 -14 -13 -32 -10 -41 5 -14 11 -11 31 16 14 19 25 38
25 42 0 18 -31 6 -46 -17z"/>
<path d="M1420 4785 c0 -20 5 -25 25 -25 20 0 25 5 25 25 0 20 -5 25 -25 25
-20 0 -25 -5 -25 -25z"/>
<path d="M1350 4761 c-12 -23 -13 -61 -2 -61 12 1 52 38 52 49 0 6 -9 15 -20
21 -15 8 -21 6 -30 -9z"/>
<path d="M2530 4762 c0 -11 10 -23 23 -29 20 -9 23 -18 25 -78 1 -37 4 -70 6
-73 10 -10 56 9 56 23 0 9 10 15 25 15 28 0 29 3 15 31 -13 23 -30 25 -30 4 0
-8 -3 -15 -7 -15 -13 1 -53 88 -53 115 0 21 -5 25 -30 25 -22 0 -30 -5 -30
-18z"/>
<path d="M1258 4757 c-27 -22 -29 -44 -3 -44 24 0 38 25 26 46 -5 8 -12 7 -23
-2z"/>
<path d="M1736 4746 c7 -19 38 -22 32 -3 -3 6 -12 13 -21 15 -12 2 -15 -1 -11
-12z"/>
<path d="M2600 4745 c0 -8 5 -15 10 -15 6 0 10 7 10 15 0 8 -4 15 -10 15 -5 0
-10 -7 -10 -15z"/>
<path d="M1708 4703 c-8 -10 -18 -42 -21 -70 -11 -97 -55 -153 -119 -153 -30
0 -45 -26 -44 -72 2 -36 16 -68 16 -35 0 23 41 64 71 71 24 5 27 2 34 -27 l8
-32 7 39 c4 22 15 45 24 51 10 8 16 27 16 51 0 21 9 63 20 92 31 82 25 127
-12 85z"/>
<path d="M1550 4696 c-13 -13 -13 -46 -1 -46 6 0 13 5 16 10 13 21 25 9 25
-25 0 -19 4 -35 8 -35 8 0 52 83 52 99 0 11 -89 8 -100 -3z"/>
<path d="M1260 4658 c0 -32 15 -45 24 -21 4 9 0 23 -9 32 -13 14 -15 13 -15
-11z"/>
<path d="M1120 4629 c1 -41 2 -43 15 -25 19 25 19 40 0 56 -13 11 -15 6 -15
-31z"/>
<path d="M1465 4639 c-8 -35 5 -55 29 -46 21 8 21 63 0 71 -22 9 -22 9 -29
-25z"/>
<path d="M1412 4624 c-7 -8 -10 -19 -7 -25 4 -5 2 -16 -5 -24 -18 -22 3 -25
29 -4 17 14 22 25 17 44 -7 28 -15 31 -34 9z"/>
<path d="M1044 4595 c-15 -20 -24 -38 -21 -41 7 -8 77 23 77 35 0 17 -12 41
-21 41 -4 0 -20 -16 -35 -35z"/>
<path d="M1634 4615 c-8 -19 2 -45 16 -45 5 0 10 14 10 30 0 31 -16 41 -26 15z"/>
<path d="M761 4582 c-13 -38 -9 -62 8 -62 12 0 22 70 12 87 -5 10 -11 2 -20
-25z"/>
<path d="M1547 4613 c-4 -3 -7 -26 -7 -50 0 -47 13 -53 36 -17 10 15 9 24 -5
46 -10 16 -21 25 -24 21z"/>
<path d="M901 4579 c-9 -20 -20 -29 -37 -29 -20 0 -24 -5 -24 -30 0 -35 25
-42 35 -10 3 11 10 20 14 20 13 0 51 40 51 54 0 27 -26 24 -39 -5z"/>
<path d="M1240 4586 c0 -8 -7 -19 -16 -24 -12 -7 -15 -17 -10 -36 7 -27 36
-37 36 -12 0 8 8 22 17 31 12 13 14 21 7 33 -14 22 -34 27 -34 8z"/>
<path d="M1326 4539 c-17 -25 -33 -39 -41 -35 -9 3 -15 -3 -17 -17 -2 -16 -11
-23 -31 -25 -40 -5 -32 -34 11 -43 29 -6 35 -4 42 17 5 13 16 24 25 24 8 0 15
7 15 16 0 9 11 27 25 40 27 25 34 64 11 64 -7 0 -25 -18 -40 -41z"/>
<path d="M2025 4570 c-7 -12 32 -56 42 -47 8 9 -14 57 -26 57 -5 0 -13 -4 -16
-10z"/>
<path d="M2720 4567 c0 -8 7 -21 16 -28 14 -11 15 -10 12 11 -3 26 -28 41 -28
17z"/>
<path d="M966 4510 c-19 -49 -19 -50 -3 -50 8 0 19 12 25 26 7 14 17 22 22 19
13 -8 13 1 0 26 -16 28 -26 23 -44 -21z"/>
<path d="M1132 4518 c-15 -15 -16 -38 -2 -38 12 0 23 25 18 40 -2 7 -7 7 -16
-2z"/>
<path d="M775 4489 c-4 -12 -2 -26 3 -31 6 -6 8 -17 5 -24 -3 -8 -2 -14 1 -14
11 0 37 70 31 80 -11 17 -33 11 -40 -11z"/>
<path d="M916 4503 c-11 -11 -6 -23 9 -23 8 0 15 4 15 9 0 13 -16 22 -24 14z"/>
<path d="M2768 4479 c-6 -36 9 -69 29 -69 7 0 13 -12 13 -26 0 -16 5 -24 13
-22 15 5 22 58 8 58 -6 0 -21 21 -34 47 l-24 47 -5 -35z"/>
<path d="M1487 4483 c-12 -11 -8 -23 8 -23 8 0 15 7 15 15 0 16 -12 20 -23 8z"/>
<path d="M1065 4459 c-8 -20 6 -78 20 -82 16 -4 17 56 1 78 -13 18 -15 18 -21
4z"/>
<path d="M1397 4438 c-15 -12 -15 -16 -2 -38 8 -14 17 -31 21 -38 4 -7 -2 -28
-12 -47 -21 -39 -15 -52 16 -35 31 17 40 50 23 83 -14 27 -11 47 7 47 5 0 12
-16 16 -35 3 -19 10 -35 15 -35 5 0 9 16 9 35 0 59 -52 93 -93 63z"/>
<path d="M1711 4424 c0 -11 3 -14 6 -6 3 7 2 16 -1 19 -3 4 -6 -2 -5 -13z"/>
<path d="M1027 4413 c-4 -3 -7 -15 -7 -25 0 -26 24 -17 28 10 3 21 -8 29 -21
15z"/>
<path d="M1860 4381 c0 -23 5 -41 10 -41 6 0 10 15 10 34 0 19 -4 38 -10 41
-6 4 -10 -10 -10 -34z"/>
<path d="M937 4383 c-11 -10 -8 -43 3 -43 6 0 10 11 10 25 0 26 -2 29 -13 18z"/>
<path d="M1151 4358 c-6 -19 -32 -54 -57 -79 -28 -28 -44 -51 -42 -64 1 -11
-1 -26 -5 -32 -5 -8 -3 -13 7 -13 19 0 56 47 56 72 0 11 11 22 25 28 15 6 25
17 25 29 0 11 5 32 12 46 8 18 8 29 1 36 -8 8 -14 1 -22 -23z"/>
<path d="M1200 4372 c0 -11 7 -23 16 -26 11 -4 15 0 12 16 -4 28 -28 36 -28
10z"/>
<path d="M1310 4372 c0 -22 -59 -104 -70 -97 -17 10 -35 -32 -31 -72 2 -20 66
-16 85 6 9 10 26 41 36 69 18 46 18 53 4 81 -18 35 -24 39 -24 13z"/>
<path d="M1708 4374 c-4 -17 -12 -20 -41 -16 -30 3 -42 -2 -80 -37 -24 -23
-47 -41 -51 -41 -3 0 -6 13 -6 29 0 17 -4 33 -10 36 -6 4 -10 -9 -10 -32 -1
-42 -19 -73 -43 -73 -8 0 -31 -22 -50 -49 -20 -27 -45 -52 -56 -56 -12 -3 -21
-13 -21 -20 0 -9 -6 -12 -15 -9 -11 5 -15 -1 -15 -23 0 -32 -16 -53 -40 -53
-17 0 -45 -39 -42 -57 2 -7 -2 -13 -8 -13 -5 0 -10 -10 -10 -23 0 -15 -9 -29
-25 -37 -19 -10 -25 -21 -25 -49 0 -22 -3 -31 -8 -23 -6 9 -15 3 -31 -18 -20
-27 -21 -34 -10 -64 14 -40 0 -92 -25 -90 -10 1 -16 -6 -16 -20 0 -13 -11 -33
-24 -45 -15 -14 -27 -40 -31 -65 -4 -22 -9 -50 -12 -60 -4 -16 -1 -18 18 -13
13 3 29 1 36 -5 19 -15 17 7 -3 42 -16 27 -16 29 10 56 25 27 116 182 116 199
0 4 -11 4 -25 1 -21 -5 -25 -3 -25 17 0 32 10 40 25 20 10 -14 14 -12 35 16
15 23 28 31 41 28 25 -7 26 28 2 38 -17 6 -17 7 1 20 14 11 24 11 38 4 15 -8
23 -7 33 8 9 11 10 22 4 27 -5 6 -9 27 -9 47 0 28 5 38 20 42 10 3 25 20 33
38 l13 34 15 -29 c8 -16 20 -31 27 -34 17 -5 15 27 -3 34 -28 11 -15 37 48 98
34 34 67 70 73 81 11 19 12 19 31 3 23 -21 33 -23 33 -5 0 16 32 47 48 47 7 0
21 -9 33 -21 19 -19 21 -20 33 -3 8 11 18 14 26 9 10 -6 12 -3 8 13 -10 35 7
34 55 -2 33 -25 48 -31 56 -23 16 16 13 47 -5 47 -8 0 -24 20 -35 45 -20 46
-26 48 -61 17 -16 -13 -18 -12 -26 8 -8 22 -9 22 -14 4z m84 -39 c0 -5 -5 -11
-11 -13 -6 -2 -11 4 -11 13 0 9 5 15 11 13 6 -2 11 -8 11 -13z"/>
<path d="M865 4333 c9 -58 11 -63 36 -63 26 0 25 33 -2 76 -30 49 -43 43 -34
-13z"/>
<path d="M742 4304 c-49 -104 -62 -124 -87 -130 -22 -5 -25 -11 -25 -54 0 -30
-6 -52 -15 -60 -8 -7 -15 -23 -15 -36 0 -37 29 -29 46 11 8 20 21 38 29 42 19
7 19 27 0 43 -19 16 -19 30 -1 30 8 0 22 9 30 21 8 12 19 18 25 14 7 -4 11 7
11 31 0 21 7 45 16 55 9 10 14 30 12 50 l-3 33 -23 -50z"/>
<path d="M858 4253 c-11 -3 -16 -14 -15 -36 0 -18 -1 -38 -4 -46 -2 -7 2 -16
9 -18 14 -5 57 82 47 97 -6 10 -9 11 -37 3z"/>
<path d="M1121 4201 c-10 -7 -11 -13 -1 -31 10 -18 14 -20 21 -9 11 17 12 49
2 49 -5 0 -14 -4 -22 -9z"/>
<path d="M1319 4187 c-14 -31 -9 -40 15 -31 18 7 20 22 7 43 -8 12 -12 10 -22
-12z"/>
<path d="M956 4129 c-17 -24 -31 -59 -34 -85 -3 -30 -9 -44 -19 -44 -10 0 -14
-7 -10 -20 3 -13 -1 -21 -14 -25 -12 -4 -18 -14 -16 -28 1 -14 -4 -22 -13 -22
-15 0 -38 -92 -39 -158 -1 -19 -11 -37 -31 -54 -32 -26 -38 -43 -17 -43 8 0
24 -11 37 -25 17 -19 27 -22 36 -14 11 9 10 15 -3 35 -12 19 -13 28 -4 37 6 6
11 30 11 53 0 30 9 57 30 91 16 26 31 65 32 85 2 21 6 38 11 38 4 0 7 7 7 15
0 22 18 18 25 -5 6 -20 25 -28 25 -11 0 21 -13 41 -26 41 -22 0 -16 27 11 48
18 15 25 29 25 56 0 38 10 45 30 21 17 -21 30 -19 30 4 0 17 -34 51 -50 51 -3
0 -18 -19 -34 -41z"/>
<path d="M1168 4114 c-36 -45 -49 -84 -28 -84 6 0 18 9 27 20 13 14 20 17 30
8 10 -8 13 -6 13 10 0 29 11 53 21 46 13 -8 11 20 -3 34 -17 17 -19 16 -60
-34z"/>
<path d="M792 4118 c-15 -15 -15 -29 2 -51 12 -15 18 -16 35 -7 32 17 21 70
-14 70 -6 0 -16 -5 -23 -12z"/>
<path d="M1450 4106 c0 -8 -3 -23 -7 -33 -6 -16 -5 -16 10 -4 18 15 23 51 7
51 -5 0 -10 -6 -10 -14z"/>
<path d="M500 4094 c-11 -13 -10 -19 8 -36 26 -27 34 -21 26 20 -7 36 -15 39
-34 16z"/>
<path d="M1100 4064 c0 -14 4 -23 10 -19 6 3 10 15 10 26 0 10 -4 19 -10 19
-5 0 -10 -12 -10 -26z"/>
<path d="M755 4048 c-2 -7 -5 -26 -7 -43 -2 -18 -8 -29 -15 -27 -8 1 -13 -8
-13 -22 0 -12 -11 -35 -25 -50 -14 -15 -25 -35 -25 -44 0 -26 -38 -82 -55 -82
-10 0 -15 -10 -15 -30 0 -17 -7 -45 -16 -61 -20 -40 -10 -49 21 -19 14 13 25
18 25 12 0 -15 47 -38 57 -29 4 4 -7 21 -22 37 -21 22 -27 34 -20 44 6 7 25
32 43 56 18 24 32 55 32 71 0 32 30 89 46 89 15 0 24 47 17 83 -6 28 -21 36
-28 15z"/>
<path d="M1020 4053 c0 -5 4 -14 9 -22 11 -17 32 -5 24 14 -5 15 -33 21 -33 8z"/>
<path d="M1069 4018 c-1 -7 -1 -30 0 -50 2 -33 0 -38 -18 -38 -18 0 -20 -4
-15 -27 5 -19 2 -30 -11 -39 -17 -13 -16 -16 11 -56 22 -34 29 -39 32 -24 2
10 -1 23 -7 29 -16 16 -14 33 12 72 15 24 28 34 40 31 14 -3 17 0 11 17 -21
69 -52 117 -55 85z"/>
<path d="M810 4011 c0 -5 3 -17 6 -25 6 -15 8 -15 19 1 7 10 11 21 9 25 -7 11
-34 10 -34 -1z"/>
<path d="M1831 4002 c-8 -15 -1 -28 42 -70 29 -29 56 -52 60 -52 5 0 7 17 5
38 -3 32 -6 37 -25 35 -17 -2 -23 2 -23 16 0 50 -39 71 -59 33z"/>
<path d="M525 4000 c-4 -6 -3 -16 3 -22 6 -6 12 -6 17 2 4 6 3 16 -3 22 -6 6
-12 6 -17 -2z"/>
<path d="M553 3953 c-15 -5 -17 -41 -4 -62 8 -12 12 -12 25 -2 31 26 14 76
-21 64z"/>
<path d="M620 3900 c0 -18 4 -29 10 -25 6 3 10 15 10 25 0 10 -4 22 -10 25 -6
4 -10 -7 -10 -25z"/>
<path d="M925 3886 c-5 -31 -2 -61 10 -96 13 -39 14 -54 5 -65 -8 -10 -8 -18
2 -34 18 -29 33 -20 33 19 0 18 5 35 11 37 6 2 10 -7 10 -19 -1 -17 5 -24 23
-26 23 -4 24 -2 17 38 -4 24 -11 51 -17 62 -10 18 -11 18 -28 -3 -18 -23 -41
-19 -41 6 0 9 6 12 15 9 11 -5 15 1 15 20 0 16 -6 26 -15 26 -8 0 -15 -4 -15
-10 0 -5 -5 -10 -11 -10 -12 0 -2 42 13 51 10 6 0 39 -12 39 -5 0 -12 -20 -15
-44z"/>
<path d="M1457 3903 c-12 -11 -8 -23 8 -23 8 0 15 7 15 15 0 16 -12 20 -23 8z"/>
<path d="M1650 3864 c-14 -36 -13 -49 10 -75 28 -34 43 -9 24 37 -9 20 -10 34
-4 34 5 0 10 7 10 15 0 25 -30 17 -40 -11z"/>
<path d="M482 3837 c-18 -25 -32 -50 -32 -56 0 -21 27 -11 49 19 12 17 26 28
32 25 13 -9 11 18 -4 39 -12 16 -16 13 -45 -27z"/>
<path d="M582 3826 c0 -20 4 -36 9 -36 5 0 9 11 9 25 0 14 0 28 1 32 0 4 -4 9
-9 11 -6 2 -10 -13 -10 -32z"/>
<path d="M1594 3831 c5 -7 -10 -36 -35 -68 -23 -31 -56 -91 -74 -132 -17 -42
-35 -75 -40 -73 -14 5 -24 -31 -12 -46 7 -9 5 -18 -8 -31 -10 -12 -14 -27 -11
-39 4 -11 0 -24 -9 -32 -8 -7 -15 -18 -15 -26 0 -7 -10 -29 -21 -49 -19 -31
-20 -39 -9 -66 9 -20 11 -56 7 -107 -5 -63 -3 -80 11 -96 16 -18 16 -19 0 -13
-22 8 -24 -15 -3 -33 28 -23 41 3 40 79 0 52 3 71 12 71 19 0 16 14 -7 35 -21
19 -27 55 -10 55 6 0 10 -4 10 -10 0 -16 20 -12 27 5 3 9 -2 21 -11 28 -16 12
-16 15 1 47 10 19 22 38 26 41 5 4 1 21 -8 39 -14 27 -15 34 -3 41 7 5 16 9
19 9 4 0 9 15 12 33 11 64 20 92 38 116 11 13 19 33 19 45 0 34 20 49 37 28
12 -16 14 -16 25 2 17 29 16 148 -1 154 -9 3 -11 0 -7 -7z"/>
<path d="M885 3747 c-4 -10 -5 -21 -1 -24 10 -10 18 4 13 24 -4 17 -4 17 -12
0z"/>
<path d="M1825 3751 c-8 -15 3 -31 21 -31 9 0 14 7 12 17 -4 20 -24 28 -33 14z"/>
<path d="M453 3735 c5 -14 50 -12 55 3 3 9 -6 12 -27 10 -17 -1 -30 -7 -28
-13z"/>
<path d="M1660 3692 c0 -24 -8 -40 -28 -57 -16 -13 -37 -42 -47 -65 -13 -29
-23 -39 -35 -35 -13 4 -18 -8 -28 -66 -7 -38 -19 -84 -28 -100 -11 -23 -12
-34 -4 -44 9 -11 7 -18 -9 -34 -12 -12 -21 -25 -21 -29 0 -17 14 -22 28 -9 13
10 14 8 7 -13 -4 -14 -13 -30 -21 -36 -16 -13 -19 -84 -4 -84 5 0 14 -9 20
-20 9 -17 7 -28 -10 -56 l-22 -35 22 -51 c15 -35 20 -62 16 -86 -5 -35 7 -72
24 -72 6 0 10 10 10 23 0 35 18 0 26 -51 10 -66 38 -72 36 -7 -1 25 3 35 13
35 22 0 18 27 -5 33 -30 8 -46 51 -30 81 11 21 10 28 -9 52 -11 15 -21 35 -21
45 0 21 -16 26 -23 7 -3 -7 -6 -4 -6 8 -1 11 4 25 11 32 9 9 9 17 -2 36 -9 18
-10 38 -4 73 4 26 7 79 6 116 -1 47 3 76 14 92 8 12 13 29 12 36 -2 7 6 13 16
14 23 0 35 25 12 25 -9 0 -16 2 -16 4 0 14 44 76 54 76 6 0 16 15 21 33 8 24
22 39 64 61 l53 28 42 -22 c56 -31 76 -50 76 -71 0 -26 -19 -34 -34 -13 -13
17 -17 17 -57 4 -24 -8 -50 -14 -56 -12 -8 2 -13 -7 -13 -23 0 -37 -17 -30
-24 10 -4 19 -11 35 -15 35 -8 0 -23 -91 -23 -139 0 -13 -13 -35 -31 -52 -30
-27 -31 -30 -14 -40 18 -10 18 -12 1 -30 -9 -10 -23 -19 -31 -19 -20 0 -16
-48 7 -77 22 -28 26 -52 10 -54 -5 -1 -16 -2 -22 -3 -17 -2 -11 -35 13 -64 23
-30 24 -52 3 -52 -11 0 -14 -5 -10 -16 3 -9 6 -20 6 -25 0 -5 9 -9 21 -9 18 0
20 -4 15 -25 -4 -17 0 -31 14 -45 25 -25 30 -25 30 -1 0 11 5 23 10 26 6 3 10
-5 10 -19 0 -34 16 -41 24 -10 5 20 10 23 20 14 11 -9 22 2 51 50 22 37 35 69
32 80 -3 12 6 34 25 57 26 33 29 43 22 73 -4 19 -8 63 -7 97 0 52 -3 62 -18
66 -13 3 -19 14 -19 31 0 19 -5 26 -20 26 -16 0 -20 -7 -20 -35 0 -19 4 -35 9
-35 17 0 21 -32 5 -47 -11 -12 -14 -27 -10 -52 3 -23 0 -43 -9 -55 -15 -20
-11 -41 6 -31 16 10 10 -12 -7 -26 -9 -7 -21 -25 -27 -39 -10 -24 -11 -24 -14
-3 -3 12 1 31 6 42 14 26 15 271 1 271 -36 0 -78 -161 -65 -248 11 -77 17 -94
31 -88 7 3 18 -2 24 -10 10 -11 9 -14 -5 -14 -9 0 -22 -13 -28 -30 -15 -41
-23 -38 -30 12 -3 22 -15 54 -27 70 -17 23 -19 32 -9 44 7 9 10 33 7 64 -3 32
-1 54 7 60 7 6 15 35 19 66 5 47 12 61 44 92 20 20 43 35 50 33 8 -1 24 5 37
13 14 9 28 16 33 16 13 0 71 -102 78 -139 5 -22 4 -32 -3 -28 -7 4 -10 -33 -9
-106 1 -106 -1 -114 -25 -147 -37 -49 -52 -80 -59 -120 -4 -29 -10 -36 -35
-40 -29 -5 -30 -7 -27 -59 3 -36 0 -51 -7 -47 -6 4 -11 13 -11 20 0 7 -6 21
-14 31 -13 18 -15 18 -31 2 -14 -14 -15 -23 -5 -51 14 -43 48 -76 59 -57 5 8
17 11 30 6 15 -5 21 -2 21 9 0 9 -7 16 -16 16 -13 0 -14 3 -5 14 7 8 20 12 30
9 9 -2 24 3 31 12 12 15 12 19 -3 30 -16 11 -14 15 21 47 38 34 39 38 44 112
4 56 10 82 23 94 16 16 17 16 10 -6 -4 -13 -1 -37 6 -54 11 -26 10 -32 -4 -40
-12 -6 -17 -22 -17 -49 0 -26 -8 -52 -22 -72 -12 -17 -22 -46 -22 -64 0 -23
-5 -33 -16 -33 -17 0 -113 -97 -124 -125 -6 -17 -8 -16 -29 4 -13 11 -27 21
-32 21 -10 0 0 -166 13 -199 l9 -25 6 26 c4 15 4 33 1 42 -4 9 12 36 42 71 51
59 64 66 64 36 0 -25 29 -36 37 -15 4 11 -2 23 -17 34 -20 15 -22 22 -13 42
l11 23 11 -27 c6 -16 15 -28 21 -28 6 0 9 4 6 8 -3 5 3 25 14 44 10 20 17 38
14 40 -2 3 5 13 16 23 11 10 20 25 20 34 0 9 7 30 16 46 10 20 14 43 10 67 -4
23 -2 38 6 40 18 6 19 175 1 182 -12 5 -9 12 11 37 32 37 35 63 6 54 -25 -8
-38 18 -20 40 22 27 30 88 14 106 -15 17 -20 42 -13 69 3 9 -4 14 -16 15 -24
0 -22 17 6 56 l19 27 -33 58 c-22 40 -40 60 -55 62 -12 2 -22 8 -22 14 0 6
-12 22 -27 36 -24 22 -38 26 -90 27 l-63 0 0 -33z m230 -263 c0 -6 -4 -7 -10
-4 -5 3 -10 11 -10 16 0 6 5 7 10 4 6 -3 10 -11 10 -16z m-187 -285 c8 -8 -3
-34 -14 -34 -5 0 -9 9 -9 20 0 19 11 26 23 14z m-173 -198 c0 -8 -4 -18 -10
-21 -5 -3 -10 3 -10 14 0 12 5 21 10 21 6 0 10 -6 10 -14z"/>
<path d="M915 3661 c4 -14 -2 -25 -23 -40 -32 -22 -39 -59 -20 -98 10 -19 8
-26 -12 -43 -20 -17 -22 -23 -12 -45 6 -14 8 -25 4 -25 -5 0 -16 -6 -26 -13
-22 -16 -31 -93 -15 -114 26 -31 58 1 39 38 -12 21 2 58 27 72 8 5 11 16 8 28
-5 15 -1 22 14 26 17 4 21 13 21 44 0 22 -5 39 -10 39 -6 0 -14 10 -19 22 -6
18 -3 25 17 35 33 18 35 17 28 -13 -4 -14 -3 -31 2 -37 6 -7 12 -21 16 -32 3
-11 4 -4 2 16 -2 19 -1 51 3 70 5 22 3 43 -6 62 -16 31 -48 38 -38 8z"/>
<path d="M1555 3650 c-9 -15 4 -30 20 -23 8 3 15 9 15 13 0 12 -29 20 -35 10z"/>
<path d="M530 3605 c-11 -13 -10 -19 5 -35 26 -29 37 -25 33 12 -3 36 -19 46
-38 23z"/>
<path d="M635 3596 c-9 -14 -25 -52 -35 -86 l-19 -61 22 3 c17 2 23 11 25 41
2 20 7 37 13 37 5 0 9 -4 9 -10 0 -11 29 -14 31 -2 1 4 3 28 4 55 2 40 0 47
-16 47 -10 0 -26 -11 -34 -24z"/>
<path d="M412 3602 c-15 -10 -5 -45 12 -39 13 4 21 47 9 47 -4 0 -14 -4 -21
-8z"/>
<path d="M991 3592 c-14 -26 -14 -52 -1 -52 17 0 35 49 23 61 -8 8 -14 5 -22
-9z"/>
<path d="M465 3578 c4 -13 20 -35 36 -50 31 -29 39 -54 14 -44 -8 3 -22 9 -30
12 -12 5 -15 -2 -15 -30 0 -42 13 -45 54 -12 33 27 31 43 -14 105 -33 45 -55
54 -45 19z"/>
<path d="M750 3568 c-1 -62 -36 -183 -53 -186 -21 -4 -22 -16 -2 -32 19 -15 3
-40 -26 -40 -16 0 -18 -8 -17 -57 1 -38 -4 -69 -16 -91 -22 -42 -14 -52 26
-29 16 9 34 15 39 11 17 -10 9 10 -13 34 -21 22 -22 24 -5 33 9 6 17 21 17 34
0 13 4 26 9 29 4 3 11 28 15 55 3 27 15 60 26 74 13 16 20 41 20 69 1 23 7 54
15 68 22 39 19 60 -10 60 -21 0 -25 -5 -25 -32z"/>
<path d="M387 3518 c-3 -13 -9 -33 -12 -45 -11 -34 12 -28 30 8 16 30 14 59
-4 59 -5 0 -11 -10 -14 -22z"/>
<path d="M796 3444 c-3 -9 -3 -20 0 -25 9 -15 34 10 27 27 -7 19 -19 18 -27
-2z"/>
<path d="M405 3419 c-10 -15 1 -23 20 -15 9 3 13 10 10 16 -8 13 -22 13 -30
-1z"/>
<path d="M556 3421 c-8 -13 11 -61 24 -61 5 0 10 4 10 10 0 5 7 7 16 3 12 -5
15 0 12 23 -2 23 -9 30 -30 32 -14 2 -29 -1 -32 -7z"/>
<path d="M507 3413 c-4 -3 -7 -15 -7 -25 0 -26 24 -17 28 10 3 21 -8 29 -21
15z"/>
<path d="M350 3393 c1 -14 30 -47 36 -41 8 8 -14 48 -26 48 -6 0 -10 -3 -10
-7z"/>
<path d="M427 3367 c-28 -29 -37 -45 -36 -70 0 -30 1 -31 11 -9 6 12 16 21 22
19 13 -5 9 -59 -5 -67 -14 -9 -22 -67 -11 -74 14 -8 35 31 28 50 -3 8 3 25 14
36 24 26 25 38 5 64 -21 28 -18 35 10 22 30 -13 45 -3 23 15 -9 6 -18 21 -20
32 -3 17 -8 15 -41 -18z"/>
<path d="M956 3366 c5 -28 0 -47 -27 -95 -33 -60 -33 -61 -15 -91 10 -18 16
-46 15 -68 -3 -39 5 -62 22 -62 6 0 10 36 9 93 -1 66 4 111 18 159 18 63 18
68 2 83 -25 23 -32 18 -24 -19z"/>
<path d="M521 3319 c0 -28 -4 -56 -8 -62 -4 -7 -8 -34 -8 -62 0 -42 -3 -50
-17 -47 -12 2 -20 -6 -24 -25 -4 -15 -13 -35 -20 -44 -11 -12 -12 -23 -3 -47
12 -35 29 -43 29 -14 0 10 4 22 9 27 5 6 11 21 13 35 2 14 13 29 25 35 29 12
51 61 34 78 -15 15 -14 49 4 73 19 25 19 60 0 68 -8 3 -15 12 -15 21 0 8 -4
15 -9 15 -4 0 -9 -23 -10 -51z"/>
<path d="M250 3235 c0 -17 5 -25 13 -22 6 2 12 12 12 22 0 10 -6 20 -12 23 -8
2 -13 -6 -13 -23z"/>
<path d="M787 3253 c-15 -4 -17 -14 -15 -71 3 -76 22 -93 32 -30 21 120 22
111 -17 101z"/>
<path d="M883 3138 c-33 -16 -30 -40 5 -36 19 2 28 9 30 26 4 24 -2 26 -35 10z"/>
<path d="M604 3083 c4 -9 10 -68 13 -130 5 -98 8 -111 21 -101 12 10 13 30 8
100 -5 82 -5 88 16 99 l21 11 -24 19 c-31 24 -64 25 -55 2z"/>
<path d="M310 3070 c0 -5 8 -14 18 -19 14 -9 15 -12 3 -20 -10 -6 -11 -16 -4
-37 13 -39 26 -40 41 -2 8 21 9 34 2 36 -5 2 -10 15 -10 28 0 19 -5 24 -25 24
-14 0 -25 -4 -25 -10z"/>
<path d="M864 3067 c-3 -9 -1 -24 5 -34 7 -14 5 -23 -12 -41 -21 -22 -21 -24
-4 -55 10 -18 15 -41 11 -50 -4 -13 -1 -17 15 -17 13 0 21 6 21 18 0 9 9 34
20 55 27 50 26 58 -15 102 -28 31 -36 35 -41 22z"/>
<path d="M525 3050 c-18 -7 -18 -8 -2 -14 45 -16 48 -16 45 1 -4 20 -17 24
-43 13z"/>
<path d="M743 3052 c-8 -5 -10 -21 -6 -45 3 -21 8 -35 11 -32 3 3 14 -3 24
-12 16 -14 20 -15 33 -2 11 11 12 21 2 52 -15 46 -24 47 -30 5 -4 -32 -4 -32
-5 5 -2 38 -7 43 -29 29z"/>
<path d="M524 2986 c-3 -9 -3 -36 0 -60 6 -39 4 -46 -22 -67 -24 -21 -27 -29
-20 -55 4 -18 15 -37 23 -44 13 -11 18 -10 30 6 11 16 11 21 -1 35 -16 18 -19
39 -5 39 12 0 34 101 29 132 -4 26 -26 35 -34 14z"/>
<path d="M1400 2977 c0 -7 5 -18 11 -24 7 -7 9 -20 5 -29 -6 -16 -10 -15 -32
11 l-25 30 6 -45 c10 -68 15 -82 31 -76 20 8 24 -5 14 -47 -7 -33 -4 -42 31
-91 22 -30 42 -69 45 -85 8 -36 24 -41 25 -8 1 18 3 16 10 -9 5 -17 17 -38 26
-46 19 -17 93 -35 93 -23 0 18 -24 47 -45 55 -17 6 -23 14 -18 25 4 11 -7 29
-30 53 -20 20 -39 50 -43 65 -4 19 -11 26 -21 23 -21 -8 -28 22 -9 43 14 16
15 20 2 30 -21 18 -31 72 -15 81 10 7 7 17 -12 44 -24 36 -49 47 -49 23z"/>
<path d="M407 2953 c-4 -3 -7 -24 -7 -45 0 -44 26 -54 36 -14 10 41 -9 80 -29
59z"/>
<path d="M286 2942 c-3 -3 -6 -26 -6 -52 0 -42 2 -47 23 -45 19 1 22 8 25 47
3 38 0 46 -17 51 -11 2 -22 2 -25 -1z"/>
<path d="M750 2922 c0 -29 -3 -32 -32 -32 l-33 -1 30 -26 c30 -26 30 -26 33
-4 2 14 9 21 20 19 21 -4 19 40 -3 62 -13 13 -15 10 -15 -18z"/>
<path d="M937 2920 c-5 -21 7 -35 22 -26 10 7 3 46 -9 46 -4 0 -10 -9 -13 -20z"/>
<path d="M450 2906 c0 -9 7 -16 16 -16 17 0 14 22 -4 28 -7 2 -12 -3 -12 -12z"/>
<path d="M238 2886 c-7 -36 9 -57 18 -22 3 15 2 32 -3 37 -7 7 -12 2 -15 -15z"/>
<path d="M756 2832 c-9 -11 -27 -46 -40 -80 -21 -52 -22 -63 -11 -79 13 -17
14 -17 20 2 4 11 11 32 17 47 5 15 7 31 4 37 -9 13 23 63 35 55 5 -3 9 -16 9
-29 0 -18 -4 -23 -15 -19 -19 8 -19 -10 -1 -29 8 -8 14 -22 13 -33 -1 -13 4
-19 18 -19 17 0 20 7 20 48 1 28 -5 52 -12 59 -7 6 -13 21 -13 34 0 29 -20 31
-44 6z"/>
<path d="M830 2835 c-10 -12 -7 -17 15 -27 23 -10 26 -17 24 -52 -1 -23 3 -51
10 -64 11 -20 10 -27 -3 -41 -17 -19 -22 -46 -7 -36 10 6 31 -25 31 -45 0 -6
-13 -16 -30 -21 -36 -13 -39 -29 -5 -29 23 0 25 -3 26 -52 1 -29 1 -62 0 -73
-1 -12 5 -34 13 -50 9 -17 16 -38 16 -49 0 -16 2 -16 16 -5 13 10 17 10 24 -1
5 -8 5 -21 -1 -31 -14 -27 -11 -39 10 -39 22 0 36 -29 21 -44 -18 -18 -11 -33
56 -131 36 -53 70 -109 76 -126 5 -16 13 -27 18 -24 13 8 37 -29 43 -68 7 -48
63 -137 86 -137 37 0 55 46 26 70 -12 10 -15 7 -21 -14 -9 -37 -21 -32 -26 9
-3 25 0 34 8 31 7 -3 20 2 31 9 24 19 33 18 33 0 0 -17 35 -55 50 -55 15 0 12
43 -4 66 -8 10 -23 19 -33 19 -12 0 -17 6 -16 20 1 11 0 27 -3 35 -4 10 -8 8
-17 -10 -17 -34 -49 -32 -67 5 -35 68 -37 70 -53 56 -13 -10 -17 -9 -26 7 -5
10 -12 32 -14 48 -2 16 -10 30 -18 30 -32 3 -33 5 -17 18 16 12 15 15 -8 49
-13 20 -35 39 -47 42 -21 6 -22 10 -17 68 7 71 4 93 -16 101 -10 4 -14 -2 -14
-19 0 -14 -4 -25 -10 -25 -13 0 -13 66 0 90 11 21 -5 63 -45 119 -29 39 -35
72 -10 51 28 -23 30 0 2 26 -32 30 -34 54 -11 168 13 62 14 81 4 84 -6 2 -27
17 -45 33 -38 34 -39 34 -55 14z m120 -461 c0 -21 -4 -33 -10 -29 -17 10 -11
65 7 65 2 0 3 -16 3 -36z"/>
<path d="M940 2840 c-11 -7 -11 -11 -1 -24 18 -22 31 -20 31 3 0 24 -12 32
-30 21z"/>
<path d="M239 2792 c-11 -38 -10 -45 4 -60 16 -15 17 -15 17 3 0 11 9 26 20
33 22 13 27 32 9 32 -7 0 -17 8 -24 17 -11 15 -14 12 -26 -25z"/>
<path d="M400 2822 c0 -15 28 -47 35 -40 8 8 -13 48 -25 48 -6 0 -10 -4 -10
-8z"/>
<path d="M596 2810 c-16 -79 -16 -150 0 -175 23 -35 30 -32 43 19 14 56 14
113 1 129 -6 7 -17 21 -25 32 -13 20 -13 19 -19 -5z"/>
<path d="M351 2777 c-10 -19 -10 -29 -2 -46 14 -25 27 -27 35 -5 9 24 7 38 -7
58 -12 16 -14 16 -26 -7z"/>
<path d="M972 2760 c0 -14 2 -19 5 -12 2 6 2 18 0 25 -3 6 -5 1 -5 -13z"/>
<path d="M463 2723 c-22 -28 -28 -43 -22 -58 13 -35 10 -69 -12 -109 l-21 -39
21 -57 c12 -31 21 -77 21 -101 0 -38 3 -45 20 -45 20 0 27 16 13 30 -4 3 -6
28 -4 54 1 27 -3 78 -10 116 -11 64 -10 68 11 91 15 16 20 30 15 44 -3 12 -1
37 5 57 18 53 -1 62 -37 17z"/>
<path d="M1266 2721 c-4 -6 -3 -19 3 -28 9 -17 10 -17 17 0 8 21 -10 45 -20
28z"/>
<path d="M1597 2723 c-13 -12 -7 -51 8 -57 17 -6 40 38 29 55 -6 11 -28 12
-37 2z"/>
<path d="M190 2681 c0 -32 33 -61 45 -41 10 16 -4 49 -26 60 -17 10 -19 7 -19
-19z"/>
<path d="M315 2691 c-8 -15 14 -53 28 -48 18 6 15 51 -5 55 -9 2 -19 -2 -23
-7z"/>
<path d="M250 2645 c0 -19 5 -35 10 -35 6 0 10 3 10 8 0 4 3 17 6 28 4 14 0
23 -10 27 -13 5 -16 -1 -16 -28z"/>
<path d="M950 2625 c0 -28 4 -44 10 -40 6 3 10 21 10 40 0 19 -4 37 -10 40 -6
4 -10 -12 -10 -40z"/>
<path d="M724 2635 c-4 -9 -3 -28 0 -43 16 -65 17 -148 2 -176 -15 -29 -13
-46 5 -46 5 0 9 9 9 19 0 11 11 32 24 46 l24 26 8 -23 c7 -20 9 -18 15 17 6
34 3 47 -22 86 -16 25 -32 60 -35 77 -7 34 -21 42 -30 17z"/>
<path d="M780 2636 c0 -9 5 -16 10 -16 6 0 10 4 10 9 0 6 -4 13 -10 16 -5 3
-10 -1 -10 -9z"/>
<path d="M543 2609 c-27 -32 -28 -39 -9 -39 20 0 38 26 34 48 -3 17 -5 16 -25
-9z"/>
<path d="M316 2612 c-3 -3 -1 -11 5 -18 7 -9 3 -19 -16 -37 -25 -22 -26 -28
-20 -80 5 -37 14 -62 27 -74 21 -18 21 -18 14 48 -6 57 -5 67 9 73 10 3 15 12
11 21 -3 8 -1 17 4 20 17 11 11 42 -9 48 -11 3 -22 2 -25 -1z"/>
<path d="M817 2593 c-11 -10 -8 -53 3 -53 9 0 30 40 30 56 0 7 -26 5 -33 -3z"/>
<path d="M1016 2584 c-11 -29 -6 -41 17 -39 20 2 23 7 19 34 -3 16 -30 20 -36
5z"/>
<path d="M177 2565 c-26 -23 -29 -45 -7 -45 18 0 50 34 50 52 0 24 -9 22 -43
-7z"/>
<path d="M577 2542 c-23 -26 -21 -41 13 -81 18 -22 34 -32 44 -28 20 8 21 43
1 51 -23 8 -18 36 6 36 14 0 19 5 17 18 -5 25 -59 28 -81 4z"/>
<path d="M1096 2542 c-6 -10 11 -57 47 -132 15 -30 27 -69 27 -87 0 -24 9 -39
37 -62 30 -25 34 -31 20 -37 -21 -8 -22 -34 -2 -60 14 -18 16 -18 26 -1 15 26
25 21 38 -23 10 -34 34 -60 56 -60 4 0 4 12 0 28 -5 21 -4 24 6 15 6 -6 18 -9
27 -6 12 5 14 2 9 -15 -21 -68 -21 -68 -3 -51 16 15 19 15 41 -5 l24 -21 -22
-18 c-15 -13 -17 -17 -5 -14 10 4 29 -6 48 -24 30 -29 32 -30 45 -12 19 24 19
83 -1 122 -15 29 -17 31 -29 15 -12 -16 -13 -16 -23 3 -7 12 -25 26 -42 31
-16 6 -30 15 -30 20 0 15 -54 22 -62 9 -5 -9 -10 -9 -20 1 -10 10 -10 19 1 45
7 17 16 46 18 62 l5 30 -24 -35 c-28 -41 -44 -38 -40 8 3 24 -2 40 -18 57 -13
14 -20 31 -16 42 6 19 -19 55 -45 65 -9 4 -19 22 -23 40 -10 57 -52 99 -70 70z"/>
<path d="M1010 2503 c0 -9 7 -25 17 -35 15 -17 15 -19 0 -36 -21 -23 -22 -52
-2 -52 25 0 48 -46 42 -87 -3 -28 1 -44 15 -59 11 -12 26 -48 34 -80 20 -78
39 -107 65 -99 17 6 19 3 14 -18 -6 -22 -4 -24 19 -20 19 4 26 1 26 -11 0 -9
-8 -16 -20 -16 -25 0 -25 -11 -1 -42 16 -19 26 -23 55 -20 46 5 46 24 0 82
-30 37 -34 50 -29 78 6 31 5 32 -19 26 -21 -5 -26 -2 -32 19 -3 14 -3 31 1 36
3 7 -2 11 -14 11 -17 0 -21 6 -21 34 0 19 -5 38 -11 42 -6 4 -27 40 -45 81
-25 55 -34 88 -34 129 0 53 0 54 -30 54 -21 0 -30 -5 -30 -17z"/>
<path d="M143 2486 c-20 -9 -23 -19 -23 -64 0 -46 3 -53 18 -50 13 3 16 12 14
41 -3 27 1 39 12 43 16 6 22 30 9 37 -5 2 -18 -1 -30 -7z"/>
<path d="M220 2441 c0 -11 5 -23 10 -26 6 -3 10 3 10 14 0 11 -4 23 -10 26 -5
3 -10 -3 -10 -14z"/>
<path d="M667 2435 c-16 -23 -17 -27 -1 -56 15 -29 15 -34 -2 -65 -18 -32 -18
-33 10 -73 48 -69 55 -55 32 67 -8 40 -12 91 -9 113 6 45 -4 49 -30 14z"/>
<path d="M820 2452 c0 -15 28 -47 35 -40 8 8 -13 48 -25 48 -6 0 -10 -4 -10
-8z"/>
<path d="M386 2431 c-4 -5 -2 -20 3 -33 9 -21 10 -21 10 10 1 32 -3 39 -13 23z"/>
<path d="M770 2363 c-19 -32 -20 -38 -6 -51 12 -12 18 -13 30 -3 15 12 56 7
56 -7 0 -4 -16 -20 -36 -35 -30 -25 -33 -31 -22 -44 10 -13 10 -17 1 -20 -15
-5 -17 -49 -3 -58 6 -3 10 3 10 14 0 12 5 21 10 21 6 0 10 -15 10 -34 0 -18 7
-39 15 -46 13 -11 15 -8 15 13 0 16 8 31 20 37 11 6 20 20 20 32 0 20 -1 21
-20 3 -19 -17 -20 -17 -26 0 -5 13 1 24 19 39 30 24 35 46 12 46 -20 0 -19 10
3 26 14 10 15 15 5 25 -7 7 -13 21 -13 31 0 23 -9 23 -25 1 -11 -15 -14 -14
-29 15 -9 18 -18 32 -20 32 -2 0 -14 -16 -26 -37z"/>
<path d="M606 2378 c-19 -59 -12 -108 14 -108 8 0 19 45 23 90 2 26 -30 42
-37 18z"/>
<path d="M230 2310 c-25 -48 -27 -154 -5 -207 14 -34 17 -36 32 -20 14 14 15
21 3 56 -20 61 -18 150 3 166 10 7 15 19 11 29 -10 26 -22 19 -44 -24z"/>
<path d="M340 2335 c-7 -8 -19 -15 -26 -15 -19 0 -18 -6 6 -30 30 -30 40 -25
40 20 0 44 -2 47 -20 25z"/>
<path d="M503 2289 c-41 -15 -25 -50 30 -63 26 -6 27 -5 21 21 -9 40 -25 53
-51 42z"/>
<path d="M625 2230 c-6 -19 16 -73 36 -85 5 -4 16 1 23 11 11 15 9 23 -13 55
-30 44 -37 47 -46 19z"/>
<path d="M323 2223 c-26 -10 -12 -32 30 -45 34 -12 43 -20 45 -43 3 -22 0 -27
-13 -22 -13 6 -15 1 -9 -31 4 -20 10 -39 14 -42 4 -3 10 -18 14 -33 6 -27 31
-46 43 -33 18 18 4 105 -26 161 -48 93 -60 104 -98 88z m117 -175 c0 -5 -7 -8
-15 -8 -15 0 -20 21 -8 33 7 7 23 -11 23 -25z"/>
<path d="M560 2205 c-26 -68 -19 -127 17 -157 15 -12 16 -10 9 15 -7 28 7 38
18 12 9 -23 23 -18 30 12 5 18 2 31 -8 42 -15 14 -16 14 -16 -2 0 -9 -4 -17
-10 -17 -6 0 -10 27 -10 60 0 63 -13 78 -30 35z"/>
<path d="M747 2223 c-4 -3 -7 -20 -7 -36 0 -22 -10 -40 -39 -66 -48 -45 -69
-81 -46 -81 8 0 27 14 42 30 14 17 29 30 32 30 3 0 14 -14 23 -30 18 -32 48
-41 48 -14 0 8 -10 37 -21 64 -13 29 -19 62 -17 80 4 29 -1 37 -15 23z"/>
<path d="M1370 2215 c0 -8 7 -15 15 -15 8 0 15 4 15 9 0 5 -7 11 -15 15 -9 3
-15 0 -15 -9z"/>
<path d="M500 2191 c0 -5 -3 -16 -6 -25 -4 -12 0 -16 15 -16 16 0 21 6 21 25
0 16 -6 25 -15 25 -8 0 -15 -4 -15 -9z"/>
<path d="M1058 2175 c-4 -21 -1 -25 18 -25 26 0 31 19 12 38 -18 18 -25 15
-30 -13z"/>
<path d="M875 2100 c-9 -16 -19 -30 -24 -30 -5 0 -8 -18 -7 -40 1 -64 21 -49
55 40 25 65 24 60 6 60 -8 0 -21 -13 -30 -30z"/>
<path d="M934 2068 c1 -46 7 -73 23 -98 13 -21 19 -45 16 -60 -7 -38 12 -79
34 -74 20 5 53 -23 57 -48 1 -8 11 -24 23 -37 25 -27 35 -77 17 -92 -7 -6 -23
-9 -36 -7 -19 2 -23 8 -20 36 1 22 -2 32 -12 32 -27 0 -65 60 -78 120 -12 59
-32 78 -44 45 -5 -13 -9 -13 -21 -3 -8 7 -25 17 -37 23 -13 7 -21 20 -21 35 0
14 -6 29 -12 33 -7 4 -13 15 -13 23 0 22 -24 11 -28 -12 -2 -11 6 -41 17 -67
15 -34 24 -45 36 -41 27 11 17 -20 -20 -59 -39 -41 -41 -49 -21 -67 12 -9 19
-3 41 39 29 57 40 62 57 25 9 -20 9 -27 -2 -34 -11 -7 -10 -11 3 -24 19 -20
27 -20 27 -2 0 8 5 18 10 21 6 4 10 -6 10 -23 0 -22 -6 -31 -22 -35 -20 -6
-21 -8 -6 -24 9 -10 19 -29 23 -43 4 -14 12 -28 18 -31 5 -4 7 -15 3 -25 -6
-15 -12 -10 -36 31 -16 28 -32 65 -36 83 -5 25 -11 32 -29 32 -18 0 -24 -7
-27 -30 -4 -26 -1 -31 20 -37 21 -5 23 -10 18 -37 -5 -26 -1 -37 19 -56 14
-13 39 -49 56 -79 18 -31 40 -66 50 -79 18 -23 18 -23 29 -3 15 28 30 26 30
-3 0 -15 12 -33 35 -50 19 -15 35 -31 35 -35 0 -5 16 -25 35 -45 19 -21 35
-42 35 -47 0 -5 5 -9 10 -9 6 0 10 8 10 17 0 14 6 11 28 -12 l27 -30 3 35 c5
47 23 56 38 20 14 -32 51 -55 107 -65 34 -7 37 -5 37 16 0 29 -33 52 -61 44
-10 -4 -19 -2 -19 4 0 6 -7 8 -16 4 -13 -5 -15 -2 -9 15 5 19 2 22 -19 22 -17
0 -26 6 -26 16 0 13 -5 12 -27 -5 -24 -20 -27 -20 -44 -5 -17 16 -20 15 -38
-7 -16 -19 -20 -20 -21 -8 0 9 7 22 15 29 15 12 21 50 8 50 -3 0 -14 -7 -24
-15 -15 -15 -17 -14 -23 8 -3 14 -15 27 -26 30 -14 3 -20 13 -20 31 0 19 -8
30 -25 38 -17 8 -24 17 -20 28 3 10 -7 29 -25 48 l-30 32 -10 -25 c-16 -43
-20 -28 -15 56 4 75 9 100 18 88 10 -12 47 -110 47 -123 0 -9 7 -16 15 -16 8
0 15 5 15 10 0 6 5 10 10 10 7 0 8 -13 4 -35 -5 -29 -2 -38 17 -54 15 -12 28
-16 34 -10 5 5 17 9 28 9 12 0 17 6 15 18 -2 9 -10 17 -18 17 -8 0 -17 9 -20
20 -3 11 -14 37 -24 57 -15 29 -17 40 -8 51 17 20 101 -19 102 -48 0 -11 14
-36 31 -55 l30 -35 -6 50 c-7 51 -29 104 -49 117 -6 4 -20 8 -31 8 -16 0 -25
16 -46 83 -21 66 -30 83 -47 85 -13 2 -22 -2 -22 -9 0 -7 -3 -10 -6 -7 -9 9
-33 122 -28 130 3 5 -1 8 -9 8 -15 0 -30 24 -31 50 -2 29 -39 110 -51 110 -8
0 -11 -20 -11 -62z m16 -250 c0 -4 -7 -8 -15 -8 -10 0 -15 10 -15 28 1 26 1
26 15 8 8 -11 15 -23 15 -28z"/>
<path d="M190 2070 c0 -16 5 -30 10 -30 6 0 10 14 10 30 0 17 -4 30 -10 30 -5
0 -10 -13 -10 -30z"/>
<path d="M1267 2078 c-7 -25 -1 -38 17 -38 9 0 12 9 8 25 -6 34 -18 40 -25 13z"/>
<path d="M482 2058 c-7 -7 -12 -36 -12 -65 0 -50 1 -53 26 -53 22 0 25 3 20
23 -3 12 -6 41 -6 65 0 43 -7 51 -28 30z"/>
<path d="M248 2049 c-21 -12 -23 -35 -5 -42 9 -3 12 -16 9 -36 -3 -25 1 -36
24 -54 16 -12 34 -22 41 -22 18 0 73 -87 73 -117 0 -19 9 -32 35 -48 20 -12
42 -35 50 -51 15 -27 14 -29 -5 -29 -24 0 -27 -18 -4 -27 9 -3 27 6 45 23 24
23 33 26 47 18 22 -14 41 -68 41 -118 1 -33 3 -37 16 -26 8 7 15 22 15 34 0
29 15 49 31 44 8 -3 19 5 25 16 6 12 21 38 33 59 13 20 18 37 12 37 -6 0 -11
-4 -11 -10 0 -5 -4 -10 -10 -10 -5 0 -10 5 -10 12 0 6 -8 20 -17 30 -16 17
-15 21 4 60 20 38 21 68 3 68 -16 0 -61 -64 -56 -79 18 -57 19 -64 8 -57 -8 5
-12 0 -12 -13 0 -16 6 -21 26 -21 21 0 24 -3 15 -14 -6 -7 -9 -20 -6 -27 3 -9
-6 -21 -24 -32 -39 -23 -41 -22 -41 19 0 47 -13 69 -52 88 -33 17 -50 14 -30
-6 15 -15 16 -28 2 -28 -5 0 -19 19 -31 42 -18 36 -23 40 -33 26 -10 -14 -15
-10 -32 28 -12 25 -17 47 -12 50 12 8 9 37 -7 58 -12 16 -17 17 -31 5 -15 -12
-16 -11 -10 19 6 27 5 32 -10 32 -10 0 -26 -8 -37 -17 -20 -18 -20 -17 -14 32
5 40 3 54 -12 73 -22 25 -20 25 -43 11z"/>
<path d="M1310 2036 c0 -8 5 -18 10 -21 6 -3 10 1 10 9 0 8 -4 18 -10 21 -5 3
-10 -1 -10 -9z"/>
<path d="M707 2022 c-23 -25 -21 -35 3 -29 25 6 35 -25 27 -84 -4 -34 -3 -39
14 -39 16 0 18 -3 9 -19 -15 -30 -12 -41 11 -41 18 0 20 4 15 28 -3 15 -9 51
-12 79 -4 29 -13 58 -20 64 -8 6 -14 22 -14 35 0 29 -11 31 -33 6z"/>
<path d="M542 2009 c2 -7 10 -15 17 -17 8 -3 12 1 9 9 -2 7 -10 15 -17 17 -8
3 -12 -1 -9 -9z"/>
<path d="M620 2004 c0 -9 7 -14 17 -12 25 5 28 28 4 28 -12 0 -21 -6 -21 -16z"/>
<path d="M897 1993 c-3 -16 -8 -39 -12 -52 -7 -19 -5 -22 11 -19 15 2 20 13
22 51 3 50 -12 65 -21 20z"/>
<path d="M1334 1966 c-11 -28 23 -68 54 -64 38 4 41 39 5 56 -50 24 -53 24
-59 8z"/>
<path d="M600 1935 c0 -39 14 -46 30 -14 14 25 6 49 -15 49 -11 0 -15 -10 -15
-35z"/>
<path d="M660 1913 c-19 -25 -20 -28 -5 -31 18 -4 41 12 56 40 16 30 -26 23
-51 -9z"/>
<path d="M1431 1909 c-6 -18 -11 -34 -11 -35 0 -2 14 -4 31 -4 28 0 30 2 27
32 -4 45 -32 49 -47 7z"/>
<path d="M496 1922 c-3 -5 3 -17 14 -27 17 -15 20 -16 20 -3 0 19 -26 42 -34
30z"/>
<path d="M1060 1923 c0 -5 4 -15 10 -23 11 -18 25 -7 17 15 -6 15 -27 21 -27
8z"/>
<path d="M560 1874 c-13 -32 -13 -64 -1 -64 13 0 17 9 25 53 8 43 -9 51 -24
11z"/>
<path d="M606 1854 c-10 -27 -7 -44 9 -44 10 0 15 10 15 30 0 32 -14 40 -24
14z"/>
<path d="M140 1845 c0 -8 0 -18 -1 -22 0 -4 4 -9 10 -11 6 -2 11 8 11 22 0 14
-4 26 -10 26 -5 0 -10 -7 -10 -15z"/>
<path d="M482 1848 c-21 -21 -13 -38 18 -38 18 0 30 5 30 13 0 13 -19 37 -30
37 -3 0 -11 -5 -18 -12z"/>
<path d="M1660 1816 c0 -14 5 -26 10 -26 6 0 10 9 10 19 0 11 -4 23 -10 26 -6
4 -10 -5 -10 -19z"/>
<path d="M180 1809 c-7 -11 -9 -28 -5 -36 5 -14 7 -14 20 3 16 22 20 54 5 54
-5 0 -14 -9 -20 -21z"/>
<path d="M1467 1806 c-4 -9 -14 -12 -27 -9 -37 10 -39 -16 -4 -54 36 -40 54
-38 36 2 -8 16 -8 25 -1 25 12 0 59 -45 59 -57 0 -15 59 -8 75 8 15 14 12 18
-24 42 -22 15 -52 27 -66 27 -16 0 -25 6 -25 15 0 19 -16 20 -23 1z"/>
<path d="M586 1764 c-8 -22 1 -31 16 -16 9 9 9 15 1 23 -7 7 -12 5 -17 -7z"/>
<path d="M232 1719 c-7 -11 -11 -24 -8 -27 10 -9 28 15 24 32 -2 14 -5 13 -16
-5z"/>
<path d="M287 1733 c-4 -3 -7 -15 -7 -25 0 -21 20 -24 38 -6 18 18 15 38 -6
38 -10 0 -22 -3 -25 -7z"/>
<path d="M753 1692 c-23 -31 -21 -72 2 -72 12 0 25 -21 25 -42 0 -6 -7 -8 -15
-4 -24 9 -20 -60 4 -74 12 -6 22 -25 26 -52 6 -44 34 -108 47 -108 3 0 8 8 10
18 3 12 11 5 27 -26 17 -33 27 -42 43 -40 16 2 24 -5 35 -37 7 -22 11 -45 9
-52 -8 -20 -26 -15 -26 7 0 14 -7 20 -23 20 -15 0 -29 11 -40 30 -10 17 -22
30 -28 30 -16 0 -10 -26 11 -45 20 -18 28 -51 10 -40 -14 9 -13 -18 2 -33 7
-7 17 -8 30 -1 13 7 18 6 18 -4 0 -8 7 -20 14 -27 12 -10 20 -1 45 48 51 102
69 94 66 -26 -1 -75 9 -122 27 -122 5 0 11 7 15 16 4 12 9 8 20 -15 9 -18 20
-28 28 -24 22 8 31 -61 11 -89 -16 -22 -16 -22 -16 15 0 41 -15 49 -26 15 -7
-21 -9 -19 -19 16 -13 45 -30 57 -40 27 -8 -26 -25 -28 -18 -2 2 10 -4 26 -14
36 -17 18 -18 18 -24 -11 -13 -58 -9 -68 33 -97 30 -21 48 -27 69 -23 19 3 29
1 33 -10 11 -28 6 -38 -7 -19 -10 13 -16 15 -21 6 -10 -16 59 -108 95 -127 21
-11 34 -12 48 -4 27 14 28 14 35 -20 6 -33 26 -41 26 -11 0 27 37 34 43 9 7
-25 25 -20 51 15 16 22 18 31 9 45 -6 9 -18 16 -26 14 -9 -1 -22 7 -30 18 -14
20 -14 20 -32 -7 l-18 -27 -23 29 -23 29 -11 -25 c-12 -27 -60 -37 -60 -12 0
7 -7 27 -15 43 -9 17 -11 30 -5 30 5 0 10 6 10 13 0 7 7 22 15 33 14 19 14 19
30 -3 20 -28 32 -29 40 -3 5 14 -2 32 -19 55 -14 18 -26 43 -26 53 0 13 -11
25 -30 33 -19 9 -32 23 -35 41 -9 38 -22 43 -29 13 -8 -33 -22 -32 -29 3 -3
15 -9 36 -13 47 -7 17 -5 18 7 8 26 -21 39 15 23 62 -16 47 -41 70 -60 54 -10
-8 -19 1 -38 38 -14 26 -25 41 -26 33 0 -10 -9 -6 -26 13 -23 27 -26 28 -48
13 -33 -21 -41 -8 -11 16 15 12 25 30 25 46 l0 26 -29 -32 c-17 -17 -34 -32
-40 -32 -18 0 -21 17 -6 30 14 11 14 15 -2 32 -9 10 -22 17 -30 14 -21 -9 -29
62 -9 94 21 36 20 38 -6 42 -27 4 -39 48 -14 48 19 0 20 10 3 34 -11 16 -14
15 -34 -12z m224 -404 c-3 -7 -5 -2 -5 12 0 14 2 19 5 13 2 -7 2 -19 0 -25z"/>
<path d="M350 1696 c0 -7 -7 -19 -15 -26 -22 -18 -18 -45 9 -77 l24 -28 7 58
c4 31 5 63 1 72 -7 19 -26 20 -26 1z"/>
<path d="M1332 1697 c-7 -8 -7 -18 -2 -27 6 -8 10 -25 10 -37 0 -33 16 -28 29
8 16 47 -11 88 -37 56z"/>
<path d="M270 1654 c0 -17 22 -14 28 4 2 7 -3 12 -12 12 -9 0 -16 -7 -16 -16z"/>
<path d="M1295 1588 c13 -59 45 -80 45 -30 0 26 -26 62 -44 62 -4 0 -4 -15 -1
-32z"/>
<path d="M390 1573 c0 -32 3 -38 23 -39 18 -1 22 3 21 30 0 17 -5 31 -10 31
-5 0 -15 4 -21 8 -10 6 -13 -2 -13 -30z"/>
<path d="M701 1588 c-7 -18 -18 -28 -30 -28 -24 0 -33 -13 -25 -35 5 -11 16
-15 37 -13 25 2 32 9 39 36 5 19 5 40 -1 50 -8 15 -11 14 -20 -10z"/>
<path d="M540 1569 c0 -28 -1 -29 -16 -14 -20 20 -36 15 -51 -15 -15 -29 0
-52 30 -48 39 6 89 108 53 108 -11 0 -16 -9 -16 -31z"/>
<path d="M843 1573 c-14 -5 -16 -34 -7 -71 6 -21 8 -22 24 -7 16 14 18 14 23
0 8 -19 37 -20 37 -1 0 7 -9 16 -20 19 -10 3 -25 18 -32 35 -7 16 -19 27 -25
25z"/>
<path d="M1354 1545 c-12 -39 0 -62 23 -44 10 9 13 7 13 -9 0 -30 19 -37 36
-13 19 27 37 27 29 1 -8 -25 7 -26 29 -1 16 17 16 23 4 60 -11 32 -17 38 -26
29 -7 -7 -12 -17 -12 -22 0 -6 -4 -17 -9 -25 -10 -16 -51 2 -51 23 0 8 -6 18
-13 24 -9 8 -15 3 -23 -23z"/>
<path d="M1730 1540 c0 -11 -7 -20 -15 -20 -8 0 -19 -9 -25 -20 -16 -29 -97
-83 -103 -67 -3 8 -9 6 -20 -8 -13 -17 -20 -18 -56 -9 -35 10 -43 9 -51 -5 -8
-14 -9 -14 -16 3 -7 18 -8 17 -23 -3 l-17 -22 -66 30 c-37 17 -73 40 -82 52
-14 20 -18 21 -46 9 -33 -14 -50 -37 -50 -69 0 -24 25 -28 34 -6 8 22 19 18
41 -15 18 -26 22 -28 40 -16 17 12 24 10 55 -13 19 -14 36 -29 38 -33 2 -3 19
0 39 9 22 9 49 12 70 8 32 -6 33 -5 33 25 0 19 4 29 11 25 6 -4 7 -19 4 -35
-3 -16 -2 -31 4 -35 6 -3 11 2 11 13 0 29 10 33 41 16 28 -14 30 -14 48 17 11
18 41 45 66 61 47 29 82 86 71 114 -8 21 -36 17 -36 -6z"/>
<path d="M1286 1523 c-12 -12 -6 -43 9 -43 8 0 15 9 15 19 0 21 -13 34 -24 24z"/>
<path d="M230 1480 c0 -22 4 -40 9 -40 10 0 23 58 15 71 -13 21 -24 6 -24 -31z"/>
<path d="M303 1483 c-40 -44 -42 -66 -8 -81 40 -18 50 -15 54 21 11 103 2 115
-46 60z m13 -61 c-15 -15 -16 -14 -16 10 0 14 6 28 13 31 19 6 21 -23 3 -41z"/>
<path d="M723 1498 c-6 -7 -14 -24 -18 -38 -6 -20 -5 -23 6 -13 9 9 16 10 26
2 10 -9 13 -6 13 12 0 35 -14 54 -27 37z"/>
<path d="M190 1474 c0 -14 4 -23 10 -19 6 3 10 15 10 26 0 10 -4 19 -10 19 -5
0 -10 -12 -10 -26z"/>
<path d="M547 1483 c-4 -3 -7 -15 -7 -26 0 -16 3 -17 15 -7 8 7 15 19 15 26 0
15 -12 19 -23 7z"/>
<path d="M622 1473 c-9 -13 -14 -15 -18 -5 -10 22 -23 13 -22 -16 1 -34 45
-73 59 -51 7 11 9 11 9 1 0 -17 42 -12 48 6 2 7 -5 12 -19 12 -21 0 -21 1 -6
18 21 23 22 42 3 42 -8 0 -20 2 -28 5 -7 3 -19 -3 -26 -12z"/>
<path d="M3080 1470 c0 -5 6 -10 14 -10 8 0 18 5 21 10 3 6 -3 10 -14 10 -12
0 -21 -4 -21 -10z"/>
<path d="M430 1424 c0 -9 5 -14 12 -12 18 6 21 28 4 28 -9 0 -16 -7 -16 -16z"/>
<path d="M375 1409 c-3 -4 0 -17 7 -28 11 -18 13 -18 25 -3 7 9 13 20 13 23 0
11 -40 18 -45 8z"/>
<path d="M1031 1361 c-6 -11 -11 -22 -11 -25 0 -11 29 6 34 19 8 23 -12 28
-23 6z"/>
<path d="M284 1355 c-3 -8 -3 -19 1 -25 11 -18 25 -11 25 15 0 27 -17 34 -26
10z"/>
<path d="M406 1348 c-9 -12 -16 -34 -16 -48 1 -23 2 -24 14 -7 7 9 21 17 30
17 11 0 16 9 16 30 0 36 -22 40 -44 8z"/>
<path d="M482 1358 c-18 -18 -14 -38 8 -38 15 0 20 7 20 25 0 27 -9 32 -28 13z"/>
<path d="M650 1333 c0 -36 2 -41 20 -36 30 8 31 16 5 49 l-24 29 -1 -42z"/>
<path d="M720 1331 c0 -17 5 -31 10 -31 6 0 10 11 10 24 0 14 -4 28 -10 31 -6
4 -10 -7 -10 -24z"/>
<path d="M520 1331 c0 -6 5 -13 11 -17 6 -3 9 -18 6 -32 -3 -17 5 -41 25 -74
16 -26 32 -48 34 -48 2 0 4 32 4 70 0 43 -4 70 -11 70 -6 0 -8 -9 -4 -20 3
-11 2 -20 -3 -20 -6 0 -13 12 -17 27 -7 31 -23 53 -36 53 -5 0 -9 -4 -9 -9z"/>
<path d="M750 1289 c0 -32 22 -99 32 -99 5 0 7 15 3 33 l-6 32 20 -25 c11 -14
23 -21 28 -17 9 9 -30 82 -43 82 -5 0 -15 4 -21 8 -9 6 -13 1 -13 -14z"/>
<path d="M3020 1297 c0 -8 -3 -22 -6 -30 -4 -12 0 -14 15 -10 25 6 27 25 6 43
-12 10 -15 10 -15 -3z"/>
<path d="M284 1285 c-7 -17 4 -37 17 -30 12 8 12 45 -1 45 -6 0 -13 -7 -16
-15z"/>
<path d="M665 1252 c-13 -9 -55 -87 -55 -101 0 -6 9 -11 20 -11 14 0 20 -7 20
-23 0 -19 5 -23 35 -24 19 -1 35 2 35 5 0 4 -16 20 -35 35 -42 33 -44 52 -9
83 30 29 21 60 -11 36z"/>
<path d="M470 1220 c0 -11 0 -23 -1 -27 0 -4 4 -9 10 -11 6 -2 11 10 11 27 0
17 -4 31 -10 31 -5 0 -10 -9 -10 -20z"/>
<path d="M360 1191 c0 -25 28 -35 46 -17 22 23 16 36 -16 36 -23 0 -30 -5 -30
-19z"/>
<path d="M730 1181 c0 -11 5 -23 10 -26 6 -4 10 5 10 19 0 14 -4 26 -10 26 -5
0 -10 -9 -10 -19z"/>
<path d="M767 1163 c-30 -53 -43 -163 -19 -163 18 0 46 76 43 115 -3 40 -15
64 -24 48z"/>
<path d="M990 1162 c0 -6 -3 -17 -6 -26 -4 -12 0 -16 16 -16 16 0 21 5 18 22
-3 21 -28 39 -28 20z"/>
<path d="M447 1153 c-4 -3 -7 -15 -7 -25 0 -12 6 -17 21 -15 12 1 24 -4 27
-12 3 -8 0 -11 -7 -7 -6 4 -11 1 -11 -8 0 -25 18 -28 40 -6 22 22 27 52 7 44
-7 -2 -22 4 -32 16 -19 21 -28 24 -38 13z"/>
<path d="M550 1131 c0 -11 26 -22 34 -14 12 12 5 23 -14 23 -11 0 -20 -4 -20
-9z"/>
<path d="M822 1119 c-7 -12 -11 -23 -8 -27 7 -6 46 27 46 40 0 16 -25 8 -38
-13z"/>
<path d="M851 1086 c-8 -10 -9 -16 -1 -21 5 -3 10 -26 10 -49 0 -41 19 -74 33
-59 12 12 7 108 -7 126 -16 21 -20 21 -35 3z"/>
<path d="M924 1068 c9 -44 9 -57 1 -100 -8 -42 4 -50 32 -22 12 11 13 18 4 27
-17 17 -14 50 4 43 22 -8 19 26 -6 58 -28 36 -43 33 -35 -6z"/>
<path d="M2972 1075 c0 -16 2 -22 5 -12 2 9 2 23 0 30 -3 6 -5 -1 -5 -18z"/>
<path d="M554 1066 c-8 -22 0 -51 14 -48 7 1 12 -11 12 -32 0 -19 5 -38 10
-41 13 -8 13 39 0 87 -12 42 -27 57 -36 34z"/>
<path d="M605 1070 c-3 -5 1 -23 10 -39 8 -17 15 -41 15 -56 0 -14 4 -25 8
-25 13 0 39 32 47 58 6 22 5 22 -14 10 -18 -11 -23 -11 -31 2 -5 8 -10 25 -10
38 0 23 -14 30 -25 12z"/>
<path d="M801 1031 c-27 -21 -23 -51 6 -51 27 0 45 33 30 54 -11 14 -14 14
-36 -3z"/>
<path d="M710 1000 c0 -19 3 -21 12 -12 9 9 9 15 0 24 -9 9 -12 7 -12 -12z"/>
<path d="M760 944 c-12 -21 -12 -28 -2 -31 17 -6 15 -28 -3 -43 -8 -7 -14 -24
-14 -39 1 -17 3 -20 6 -8 5 19 28 23 38 7 9 -15 35 -12 35 4 0 8 -7 16 -15 20
-9 3 -15 19 -16 43 0 21 -4 46 -8 56 -6 17 -8 15 -21 -9z"/>
<path d="M693 945 c-17 -19 -16 -22 6 -46 l19 -21 12 22 c10 19 9 25 -6 40
-16 16 -21 16 -31 5z"/>
<path d="M819 884 c6 -11 15 -30 20 -44 6 -18 17 -26 37 -28 53 -4 83 -23 101
-63 20 -45 30 -45 57 0 18 30 18 34 3 43 -9 5 -26 30 -37 55 -19 44 -22 46
-37 30 -16 -15 -18 -15 -35 0 -10 9 -41 18 -69 21 -48 4 -50 4 -40 -14z m161
-80 c0 -8 -4 -12 -10 -9 -5 3 -10 10 -10 16 0 5 5 9 10 9 6 0 10 -7 10 -16z"/>
<path d="M661 824 c-20 -20 -21 -25 -7 -30 11 -4 16 -19 16 -47 l0 -40 24 22
c33 31 38 75 12 100 -21 20 -21 20 -45 -5z"/>
<path d="M1510 821 c0 -28 -2 -30 -28 -25 -20 4 -33 0 -47 -16 -18 -19 -18
-22 -2 -38 17 -16 18 -16 23 6 8 29 20 28 28 -3 6 -22 9 -23 26 -13 17 11 23
8 48 -21 31 -37 52 -35 52 5 0 30 13 31 33 2 l16 -23 0 22 c1 40 19 34 34 -12
11 -30 12 -45 5 -45 -6 0 -20 -7 -30 -17 -17 -15 -19 -15 -36 0 -26 23 -45 21
-80 -8 -23 -20 -41 -25 -82 -25 -28 0 -60 4 -70 10 -15 8 -20 6 -25 -10 -9
-27 -19 -25 -40 6 l-17 26 -11 -23 c-17 -32 -31 -33 -46 -5 -14 25 -36 25 -56
-1 -14 -18 -71 1 -86 29 -7 13 -14 16 -22 10 -7 -5 -26 -11 -44 -14 -30 -4
-31 -3 -26 24 8 38 -10 35 -25 -4 l-13 -33 -21 46 c-21 45 -23 47 -65 45 -50
-2 -78 -27 -40 -37 14 -3 22 -13 21 -26 0 -15 5 -21 18 -20 12 1 18 9 18 24 0
13 5 23 10 23 6 0 10 -11 10 -25 0 -14 10 -35 21 -46 17 -17 30 -20 64 -16 32
3 42 1 38 -8 -7 -19 16 -29 33 -14 12 10 19 8 39 -11 23 -22 26 -22 43 -7 24
22 31 22 73 -7 25 -17 39 -22 46 -15 18 18 86 29 100 17 9 -7 13 -7 13 1 0 6
14 11 30 11 17 0 57 11 90 25 70 29 78 30 102 9 13 -13 21 -14 31 -6 10 9 21
9 40 -1 15 -6 27 -15 27 -19 0 -5 14 -8 30 -8 34 0 41 19 10 27 -41 11 -18 24
38 21 53 -3 58 -1 75 25 9 15 17 46 17 69 l0 42 -27 -42 c-37 -57 -43 -56 -58
11 -5 24 -8 27 -20 17 -17 -14 -20 -46 -5 -55 18 -11 1 -22 -27 -18 -54 10
-68 54 -31 103 18 25 20 33 10 55 -15 32 -29 32 -44 0 -11 -25 -28 -34 -28
-15 0 6 -19 7 -47 4 -40 -6 -46 -4 -35 7 6 7 12 17 12 21 0 12 -28 9 -32 -4
-3 -7 -13 -5 -31 7 l-27 17 0 -31z"/>
<path d="M811 741 c-17 -33 -28 -61 -23 -61 35 0 86 90 64 112 -7 7 -20 -9
-41 -51z"/>
<path d="M902 792 c-7 -5 -10 -16 -6 -25 9 -25 24 -20 24 8 0 28 0 28 -18 17z"/>
<path d="M1087 793 c-2 -5 -7 -26 -11 -48 -6 -39 -6 -39 10 -17 22 30 34 28
34 -7 0 -29 15 -49 28 -37 9 9 -17 99 -31 108 -15 10 -25 10 -30 1z"/>
<path d="M755 780 c-15 -25 -23 -71 -16 -97 7 -27 7 -27 28 17 35 74 37 90 14
90 -11 0 -23 -5 -26 -10z"/>
<path d="M2018 744 c-30 -21 -40 -24 -52 -15 -11 9 -18 6 -36 -16 -21 -27 -21
-27 -1 -35 11 -4 25 -16 31 -27 15 -29 24 -26 38 11 11 30 13 31 25 14 12 -17
14 -16 25 8 6 14 18 26 27 26 20 0 19 13 -2 39 l-18 21 -37 -26z"/>
<path d="M1190 701 c0 -12 6 -21 15 -21 8 0 15 4 15 9 0 5 -7 14 -15 21 -13
10 -15 9 -15 -9z"/>
<path d="M1407 683 c-16 -15 -6 -33 18 -33 18 0 25 5 25 20 0 20 -28 28 -43
13z"/>
<path d="M817 629 c-19 -11 -24 -53 -5 -47 17 6 41 45 31 51 -5 3 -16 1 -26
-4z"/>
<path d="M737 583 c-7 -12 9 -47 27 -62 9 -7 16 -27 16 -43 0 -17 4 -27 10
-23 15 9 12 46 -10 93 -18 39 -33 52 -43 35z"/>
<path d="M1575 579 c-4 -6 -2 -15 5 -19 17 -10 42 -1 37 14 -5 16 -34 19 -42
5z"/>
<path d="M2780 576 c0 -10 9 -16 21 -16 24 0 21 23 -4 28 -10 2 -17 -3 -17
-12z"/>
<path d="M941 560 c-17 -10 -7 -40 14 -40 8 0 15 9 15 19 0 24 -12 32 -29 21z"/>
<path d="M2250 545 c-15 -29 -25 -32 -34 -9 -9 24 -26 6 -26 -27 0 -37 -14
-37 -30 0 -15 38 -40 49 -40 18 0 -13 5 -28 12 -35 9 -9 9 -15 0 -24 -14 -14
-15 -37 -3 -57 7 -11 13 -11 32 3 13 9 32 16 42 16 11 0 21 9 24 20 4 15 9 18
18 10 10 -8 17 0 28 35 23 65 5 103 -23 50z"/>
<path d="M985 516 c-15 -23 -15 -27 -2 -47 15 -21 15 -21 32 10 14 28 14 33 1
47 -13 13 -17 12 -31 -10z"/>
<path d="M2740 510 c-7 -16 -16 -30 -21 -30 -12 0 -11 -37 1 -45 34 -21 -19
-55 -86 -55 -28 0 -34 -4 -34 -20 0 -17 -3 -19 -19 -10 -16 8 -21 6 -30 -18
-9 -27 -10 -27 -16 -4 -9 27 -32 28 -64 1 -22 -18 -23 -22 -10 -46 8 -14 32
-38 53 -52 32 -21 40 -23 44 -11 3 8 20 30 39 49 29 29 38 33 72 28 29 -3 40
-1 49 13 8 13 7 21 -1 29 -9 10 -5 19 21 42 35 31 38 40 21 68 -10 15 -8 22
10 40 24 24 24 44 -1 49 -9 2 -20 -9 -28 -28z m-187 -257 c-15 -12 -18 -12
-21 1 -2 8 5 23 15 33 17 18 18 18 21 -1 2 -11 -4 -26 -15 -33z"/>
<path d="M1047 506 c-9 -10 -17 -21 -17 -25 0 -9 73 -81 83 -81 4 0 8 17 8 38
2 33 2 34 6 7 7 -57 12 -62 33 -35 19 24 20 24 20 3 0 -28 10 -53 21 -53 5 0
9 9 9 19 0 25 18 37 33 22 9 -9 9 -14 -2 -20 -20 -13 7 -49 36 -47 12 0 23 5
23 10 0 5 8 18 17 28 16 18 17 17 29 -12 16 -36 34 -39 34 -5 0 28 12 32 30
10 18 -22 30 -9 23 25 -7 36 2 38 27 8 16 -20 19 -21 25 -7 9 24 2 102 -10
106 -6 2 -26 -12 -45 -32 -41 -41 -45 -42 -55 -12 l-8 22 -4 -22 c-5 -28 -23
-30 -30 -3 -7 25 -23 26 -23 2 0 -11 -8 -26 -18 -35 -17 -16 -19 -14 -39 24
l-21 41 -16 -24 c-16 -21 -18 -22 -27 -5 -5 9 -18 17 -29 17 -12 0 -20 8 -22
23 -4 32 -21 27 -34 -11 -10 -32 -10 -32 -21 -10 -7 13 -13 29 -15 37 -3 11
-7 10 -21 -3z"/>
<path d="M2070 479 c0 -15 -5 -19 -15 -15 -10 4 -15 -1 -16 -17 l0 -22 -11 22
c-10 22 -10 22 -34 -7 -15 -17 -48 -36 -82 -48 -54 -18 -60 -18 -69 -3 -9 14
-15 14 -45 4 -19 -7 -44 -13 -56 -13 -17 0 -22 -6 -22 -27 0 -16 4 -35 10 -43
7 -11 11 -9 19 13 6 15 15 27 21 27 15 0 12 -16 -5 -30 -8 -7 -15 -18 -15 -25
0 -16 45 -39 64 -32 25 10 19 27 -9 27 -25 0 -25 1 -10 29 21 43 28 44 79 17
43 -23 46 -23 51 -5 9 28 28 23 47 -11 10 -17 13 -30 6 -30 -6 0 -8 -10 -4
-24 4 -15 0 -28 -10 -37 -27 -22 -33 -43 -19 -68 l13 -25 16 32 c21 40 52 58
71 42 12 -10 17 -7 24 14 6 14 21 28 33 31 19 5 23 13 23 45 0 47 -6 50 -29
15 -9 -14 -21 -23 -27 -19 -6 3 -13 -3 -16 -15 -8 -30 -18 -26 -43 14 -26 41
-23 66 8 80 12 5 22 18 22 27 0 10 5 18 10 18 6 0 10 -4 10 -9 0 -5 9 -7 20
-4 20 5 27 43 14 77 -9 23 -24 20 -24 -5z"/>
<path d="M845 380 c-4 -7 -3 -16 3 -22 14 -14 45 -2 40 15 -6 16 -34 21 -43 7z"/>
<path d="M1148 350 c-19 -33 -48 -32 -48 1 0 23 -16 25 -24 3 -8 -22 -8 -24 7
-24 7 0 19 -9 27 -20 10 -14 17 -16 26 -9 7 6 17 8 23 5 12 -8 26 53 14 65 -4
4 -16 -5 -25 -21z"/>
<path d="M1670 352 c0 -11 7 -25 15 -32 12 -10 15 -9 15 8 0 11 -7 25 -15 32
-12 10 -15 9 -15 -8z"/>
<path d="M1000 351 c0 -19 23 -60 37 -65 16 -7 26 14 21 46 -2 17 -11 24 -30
26 -16 2 -28 -1 -28 -7z"/>
<path d="M1620 336 c0 -30 -3 -31 -35 -10 -20 13 -31 14 -56 5 -18 -6 -44 -11
-59 -11 -19 0 -33 -8 -45 -26 -13 -20 -22 -24 -41 -20 -14 4 -24 2 -24 -4 0
-6 -7 -10 -17 -8 -11 2 -19 -8 -26 -32 -6 -22 -12 -29 -15 -20 -3 8 -9 26 -14
40 l-10 25 -14 -27 c-13 -25 -54 -40 -54 -20 0 5 -6 17 -14 28 -14 18 -15 18
-25 -8 -6 -16 -17 -28 -26 -28 -19 0 -20 -34 0 -50 8 -6 23 -9 34 -5 10 3 22
1 26 -4 4 -7 14 -6 30 1 19 9 29 7 49 -5 24 -16 25 -16 35 14 l11 31 26 -31
26 -31 28 42 c49 78 98 115 115 88 3 -5 15 -10 26 -10 10 0 19 -4 19 -10 0
-17 54 -11 80 9 18 15 21 22 13 33 -6 7 -13 24 -15 37 -4 34 -28 40 -28 7z"/>
<path d="M880 325 c-10 -12 -10 -15 3 -15 19 0 31 16 18 24 -5 3 -14 -1 -21
-9z"/>
<path d="M1907 249 c-10 -6 -29 -8 -43 -5 -17 5 -24 2 -24 -8 0 -20 -51 -27
-77 -10 -13 8 -23 11 -23 6 0 -4 -6 -16 -13 -26 -13 -17 -15 -17 -45 -2 -47
24 -72 21 -72 -9 0 -22 3 -25 24 -19 14 3 35 -2 57 -15 23 -14 37 -17 45 -10
17 14 116 18 132 6 8 -6 12 -5 12 3 0 9 7 7 20 -5 20 -18 20 -17 20 17 0 19 7
43 15 54 26 34 11 46 -28 23z"/>
<path d="M1010 226 c0 -14 4 -27 9 -30 10 -6 23 33 15 46 -10 16 -24 7 -24
-16z"/>
<path d="M2235 230 c-3 -5 -15 -10 -25 -10 -24 0 -34 -33 -19 -61 8 -17 13
-19 19 -8 7 10 11 10 24 0 14 -12 16 -8 16 38 0 51 -3 60 -15 41z"/>
</g>
</svg>
