<?xml version="1.0" standalone="no"?>
<!DOCTYPE svg PUBLIC "-//W3C//DTD SVG 20010904//EN"
 "http://www.w3.org/TR/2001/REC-SVG-20010904/DTD/svg10.dtd">
<svg version="1.0" xmlns="http://www.w3.org/2000/svg"
 width="335.000000pt" height="527.000000pt" viewBox="0 0 335.000000 527.000000"
 preserveAspectRatio="xMidYMid meet">

<g transform="translate(0.000000,527.000000) scale(0.100000,-0.100000)"
fill="#000000" stroke="none">
<path d="M1676 5138 c-8 -12 -13 -25 -10 -29 7 -12 59 9 80 32 17 18 16 19
-19 19 -25 0 -40 -6 -51 -22z"/>
<path d="M1387 5106 c-3 -8 -2 -18 3 -21 13 -8 24 15 12 27 -6 6 -11 4 -15 -6z"/>
<path d="M1555 5096 c-76 -30 -150 -67 -223 -113 -91 -58 -342 -237 -337 -241
11 -11 72 15 147 63 46 29 104 60 129 68 35 12 44 20 44 38 0 21 7 25 49 31
26 4 71 18 99 32 75 36 197 148 160 146 -5 -1 -35 -11 -68 -24z"/>
<path d="M2052 5103 c2 -12 12 -18 28 -18 16 0 26 6 28 18 3 13 -3 17 -28 17
-25 0 -31 -4 -28 -17z"/>
<path d="M1285 5054 c-19 -19 -15 -27 9 -18 9 3 16 12 16 20 0 18 -5 18 -25
-2z"/>
<path d="M1675 5030 c-49 -16 -109 -34 -132 -40 -26 -6 -44 -18 -48 -30 -10
-31 -59 -66 -133 -94 -52 -20 -81 -39 -117 -77 -37 -39 -76 -64 -179 -114
-133 -65 -206 -115 -206 -141 0 -19 2 -18 65 12 30 14 71 28 92 31 24 4 53 19
79 43 23 21 64 45 95 55 91 30 125 52 185 120 61 69 109 105 139 105 10 0 38
18 62 41 52 48 98 69 151 69 25 0 45 7 55 18 37 41 14 41 -108 2z"/>
<path d="M1875 4989 c-40 -9 -69 -34 -59 -50 3 -5 20 -9 39 -9 24 0 39 7 54
26 21 27 27 45 14 43 -5 -1 -26 -5 -48 -10z"/>
<path d="M1950 4980 c0 -16 7 -20 35 -20 28 0 35 4 35 20 0 16 -7 20 -35 20
-28 0 -35 -4 -35 -20z"/>
<path d="M2124 4985 c3 -9 6 -19 6 -21 0 -2 7 -4 16 -4 22 0 13 34 -10 38 -14
3 -17 0 -12 -13z"/>
<path d="M1763 4945 c-3 -9 -3 -18 0 -21 9 -9 27 6 27 22 0 19 -19 18 -27 -1z"/>
<path d="M1646 4904 c-6 -15 17 -43 37 -44 11 0 8 35 -5 48 -16 16 -25 15 -32
-4z"/>
<path d="M1939 4910 c-105 -5 -106 -5 -133 -37 -20 -23 -36 -33 -57 -33 -16 0
-46 -6 -66 -14 -21 -8 -89 -31 -152 -51 -69 -21 -142 -53 -185 -79 -39 -24
-82 -47 -96 -51 -14 -4 -43 -24 -65 -44 -22 -21 -59 -43 -82 -50 -24 -6 -52
-24 -67 -41 -18 -22 -34 -30 -56 -30 -23 0 -33 -5 -37 -19 -3 -10 -26 -32 -51
-49 -26 -17 -60 -44 -77 -62 l-30 -31 45 7 c74 11 100 30 100 71 0 20 2 21 25
11 32 -14 71 3 165 72 36 26 80 55 98 64 21 11 32 24 32 37 0 18 2 19 15 9 12
-10 19 -10 27 -2 7 7 20 12 29 12 9 0 56 25 105 55 88 56 218 105 275 105 17
0 45 11 62 24 33 25 108 53 207 76 56 14 85 31 79 47 -2 4 -52 6 -110 3z"/>
<path d="M2080 4910 c0 -5 6 -10 14 -10 8 0 18 5 21 10 3 6 -3 10 -14 10 -12
0 -21 -4 -21 -10z"/>
<path d="M1534 4880 c-20 -8 -68 -60 -61 -66 6 -6 128 34 144 47 13 12 13 14
-4 20 -24 10 -53 10 -79 -1z"/>
<path d="M2139 4860 c-80 -14 -144 -59 -137 -96 3 -16 7 -15 29 9 l25 28 19
-21 c24 -26 27 -26 103 12 l65 31 74 -18 74 -19 26 27 27 26 -30 12 c-36 14
-214 21 -275 9z"/>
<path d="M1791 4743 c-100 -29 -217 -67 -260 -84 -92 -37 -201 -104 -257 -157
-27 -27 -50 -39 -68 -39 -19 0 -42 -14 -74 -45 -26 -25 -114 -89 -197 -143
-151 -98 -188 -126 -305 -225 -77 -65 -80 -68 -80 -98 0 -35 31 -24 55 20 16
30 31 41 77 58 31 11 71 34 87 50 16 17 40 30 52 30 32 0 81 41 119 99 17 28
37 51 44 51 30 0 123 56 241 144 173 131 204 147 388 207 87 28 174 62 193 75
60 41 95 56 118 50 29 -7 59 15 54 40 -3 19 -11 18 -187 -33z"/>
<path d="M2299 4740 c-31 -5 -109 -22 -175 -39 -65 -16 -144 -32 -174 -36 -59
-8 -99 -24 -119 -49 -12 -14 -9 -16 26 -16 22 0 116 14 209 32 148 28 190 32
339 32 150 0 177 -2 228 -21 56 -22 57 -22 57 -2 0 11 -8 22 -17 26 -10 3 -49
21 -88 40 -57 27 -85 34 -150 38 -44 2 -105 0 -136 -5z"/>
<path d="M2278 4610 c-15 -4 -52 -22 -81 -39 -59 -34 -89 -37 -166 -19 -48 11
-53 10 -75 -11 -18 -17 -33 -21 -62 -19 -36 3 -39 1 -42 -26 l-4 -29 57 7 c32
3 159 27 284 51 312 62 329 64 367 32 17 -15 49 -29 72 -33 42 -7 92 1 92 14
0 12 -72 49 -129 66 -59 17 -263 21 -313 6z"/>
<path d="M1682 4575 c-230 -59 -546 -261 -749 -479 -39 -41 -70 -66 -84 -66
-12 0 -42 -22 -72 -52 -29 -29 -74 -69 -102 -88 -27 -19 -59 -51 -70 -71 -17
-31 -23 -35 -38 -25 -15 9 -22 6 -42 -16 -26 -30 -68 -133 -63 -155 2 -9 40
21 98 77 106 104 230 205 359 295 66 47 92 72 113 110 15 27 42 62 60 77 64
54 265 176 451 274 157 83 258 144 237 143 -3 0 -47 -11 -98 -24z"/>
<path d="M2290 4490 c0 -17 48 -60 83 -75 53 -22 133 -29 166 -15 27 11 33 9
64 -14 55 -42 276 -120 293 -103 12 12 -18 47 -41 47 -19 0 -26 7 -33 33 -8
31 -12 33 -145 74 -75 23 -164 47 -199 53 -83 13 -188 13 -188 0z"/>
<path d="M1645 4462 c-64 -22 -117 -53 -233 -137 -52 -37 -133 -89 -180 -117
-48 -27 -106 -65 -129 -84 -39 -32 -90 -100 -81 -109 10 -11 114 50 218 128
115 87 293 187 411 231 55 20 65 28 71 55 8 29 12 31 53 31 24 0 47 5 50 10
10 17 -126 11 -180 -8z"/>
<path d="M2100 4436 c-14 -9 -51 -16 -85 -16 -70 0 -82 -6 -94 -46 l-8 -30
151 4 c146 4 226 14 226 31 0 4 -13 20 -30 36 -36 34 -119 45 -160 21z"/>
<path d="M2300 4368 c0 -30 15 -52 28 -44 6 4 26 -7 45 -23 26 -23 61 -37 157
-61 147 -37 183 -51 233 -91 29 -24 44 -29 66 -24 22 5 35 0 59 -20 16 -14 34
-25 40 -25 17 0 23 32 10 48 -26 31 -161 112 -236 141 -85 32 -369 121 -389
121 -7 0 -13 -10 -13 -22z"/>
<path d="M1810 4360 c-197 -41 -405 -150 -623 -329 -84 -69 -107 -82 -107 -61
0 14 -43 13 -58 -2 -7 -7 -12 -22 -12 -34 0 -27 -16 -40 -24 -19 -8 22 -40 18
-62 -6 -10 -12 -71 -63 -134 -114 -120 -96 -219 -196 -245 -246 -13 -24 -20
-28 -40 -23 -20 5 -28 0 -45 -29 -12 -19 -27 -38 -35 -41 -8 -3 -20 -24 -26
-47 -10 -32 -20 -45 -46 -56 -38 -15 -53 -41 -32 -54 37 -23 108 42 129 117
13 44 24 48 32 11 2 -15 25 0 111 70 60 48 117 92 127 97 10 6 26 24 36 40 51
88 132 152 319 256 72 40 177 108 235 151 137 101 210 145 270 160 33 8 52 20
61 37 17 31 65 55 95 48 14 -4 34 0 47 8 12 8 39 18 59 21 40 8 62 26 56 48
-2 12 -16 12 -88 -3z"/>
<path d="M1953 4286 c-70 -16 -93 -27 -146 -69 -30 -23 -41 -27 -47 -17 -13
20 -93 6 -163 -29 -34 -17 -116 -72 -182 -122 -67 -51 -157 -109 -205 -131
-95 -46 -195 -121 -350 -263 -58 -54 -120 -109 -138 -122 -22 -18 -36 -40 -43
-70 -13 -50 -25 -62 -34 -33 -9 29 -25 25 -25 -7 0 -38 -10 -73 -21 -73 -5 0
-9 11 -9 25 0 14 -4 25 -10 25 -5 0 -10 -7 -10 -16 0 -9 -14 -21 -30 -27 -29
-11 -31 -14 -25 -49 7 -38 7 -38 -24 -32 -25 5 -36 1 -61 -24 -24 -24 -30 -39
-30 -72 0 -39 1 -41 27 -38 25 3 28 7 27 41 -1 38 12 47 34 25 10 -10 36 11
125 105 66 69 130 127 156 140 32 17 48 32 56 57 9 27 45 58 196 168 101 74
247 185 324 247 158 126 206 160 285 200 47 24 58 26 85 16 34 -12 83 -2 280
59 60 18 116 30 140 28 35 -3 40 0 43 19 3 17 -3 26 -21 32 -46 18 -141 21
-204 7z"/>
<path d="M2245 4292 c-37 -8 -55 -31 -43 -57 9 -20 20 -23 89 -29 64 -6 85
-12 109 -32 34 -29 64 -28 68 1 5 37 -168 128 -223 117z"/>
<path d="M2535 4190 c-7 -12 2 -30 16 -30 12 0 12 27 0 35 -5 3 -12 1 -16 -5z"/>
<path d="M2598 4148 c-3 -32 -4 -33 -43 -30 -55 4 -147 20 -228 39 -95 22
-230 13 -372 -27 -60 -16 -173 -46 -251 -64 -192 -47 -304 -100 -335 -159 -10
-18 -8 -18 23 -12 18 4 79 23 135 41 71 24 120 34 163 34 56 0 64 3 87 30 16
19 34 30 51 30 14 0 93 14 176 31 192 39 270 41 349 5 65 -29 95 -32 122 -12
16 12 24 9 63 -18 38 -27 52 -31 108 -31 35 0 64 -3 64 -7 0 -16 50 -39 109
-49 51 -9 74 -20 123 -60 55 -44 108 -64 108 -40 0 16 -156 156 -213 189 -31
19 -86 44 -124 56 -57 19 -70 28 -82 54 -19 41 -29 40 -33 0z"/>
<path d="M2095 3991 c-55 -25 -63 -27 -82 -14 -20 14 -27 13 -69 -11 -28 -16
-62 -26 -86 -26 -42 0 -190 -48 -197 -63 -10 -24 -68 -80 -102 -98 -22 -11
-87 -35 -146 -54 -129 -42 -208 -93 -337 -215 -80 -76 -366 -391 -366 -404 0
-2 17 0 37 6 60 16 117 64 230 191 69 77 137 142 197 186 113 84 407 261 433
261 10 0 48 16 85 35 36 20 101 44 143 55 42 11 103 36 136 56 58 36 60 37
139 31 45 -3 86 -10 93 -15 7 -6 48 -10 92 -11 62 0 105 -8 195 -36 63 -19
136 -35 161 -35 29 0 51 -6 59 -15 17 -21 96 -65 116 -65 9 0 43 -18 76 -40
33 -22 68 -40 77 -40 9 0 25 -13 34 -29 19 -33 53 -49 70 -32 18 18 -7 54 -84
122 -40 35 -95 87 -122 114 -27 28 -47 42 -43 33 3 -10 9 -26 13 -35 6 -17 5
-17 -14 0 -11 9 -25 17 -31 17 -6 0 -24 11 -40 25 -17 15 -53 29 -84 35 -29 6
-96 23 -148 39 -162 50 -215 61 -296 61 -66 0 -89 -5 -139 -29z"/>
<path d="M1522 3895 c-173 -32 -230 -58 -343 -155 -44 -38 -112 -86 -150 -106
-104 -55 -261 -233 -362 -411 -32 -56 -47 -73 -62 -71 -14 2 -21 -4 -23 -19
-6 -39 28 -27 116 40 30 22 114 111 187 196 131 154 208 225 315 293 94 60
235 126 299 141 65 15 94 35 117 79 17 33 18 33 -94 13z"/>
<path d="M793 3855 c-3 -9 -3 -18 0 -21 9 -9 27 6 27 22 0 19 -19 18 -27 -1z"/>
<path d="M1975 3825 c-457 -143 -689 -285 -1085 -662 -87 -83 -113 -103 -138
-103 -26 0 -32 -6 -56 -59 -14 -32 -26 -65 -26 -72 0 -10 -4 -9 -16 3 -15 14
-23 10 -102 -46 -55 -39 -95 -76 -111 -103 -14 -23 -33 -45 -42 -48 -8 -3 -25
-23 -38 -45 -12 -22 -30 -45 -39 -52 -11 -9 -18 -30 -20 -60 -1 -27 0 -48 3
-48 2 0 37 26 76 58 47 37 79 71 90 97 10 22 19 34 19 28 0 -7 3 -13 8 -13 4
0 63 55 132 123 69 67 204 192 300 276 96 85 227 202 290 260 79 74 130 112
161 124 26 10 100 50 165 89 223 133 324 166 544 175 176 7 327 -18 534 -88
176 -59 204 -73 215 -102 6 -15 17 -22 39 -23 20 -1 51 -18 89 -48 55 -43 95
-57 107 -38 9 14 -93 140 -143 176 -65 48 -113 67 -172 68 -47 1 -49 3 -49 29
0 27 -2 28 -32 22 -18 -4 -44 -7 -58 -8 -22 0 -25 4 -25 38 0 20 -3 37 -7 37
-5 0 -8 -6 -8 -14 0 -29 -22 -27 -113 11 -86 36 -99 38 -197 39 -61 0 -114 5
-127 12 -26 15 -3 19 -168 -33z"/>
<path d="M699 3781 c-32 -33 -41 -63 -11 -40 36 27 62 53 62 61 0 16 -22 7
-51 -21z"/>
<path d="M2145 3693 c-22 -2 -110 -13 -194 -24 -145 -19 -157 -22 -190 -51
-39 -35 -73 -50 -148 -68 -68 -15 -134 -56 -268 -164 -60 -48 -135 -101 -165
-116 -34 -17 -74 -50 -106 -87 -80 -92 -213 -223 -418 -413 l-188 -175 6 -57
c6 -63 -9 -89 -20 -33 -3 19 -9 35 -13 35 -11 -1 -36 -25 -69 -67 -19 -25 -42
-43 -53 -43 -17 0 -19 -5 -13 -34 8 -45 -4 -66 -22 -41 -13 17 -15 16 -29 -18
-18 -43 -20 -133 -3 -143 14 -9 59 45 56 66 -2 8 -13 16 -26 18 -47 7 -16 32
39 32 45 0 74 36 83 100 7 46 9 51 17 33 4 -13 14 -23 22 -23 7 0 44 39 82 88
38 48 132 151 209 229 103 107 137 147 133 161 -4 16 4 22 37 32 33 9 66 38
166 141 69 71 133 129 142 129 18 0 79 55 117 105 14 19 24 26 27 18 9 -20 21
-16 76 28 67 52 141 90 298 149 69 26 153 61 185 76 58 28 64 29 220 29 l160
0 155 -58 c98 -37 181 -61 225 -67 93 -11 96 -12 149 -80 45 -57 86 -82 178
-105 34 -9 51 -25 81 -72 27 -42 47 -55 47 -30 0 30 -80 145 -141 201 -86 80
-182 127 -346 172 -7 2 -13 14 -13 28 0 14 -4 28 -10 31 -5 3 -10 -1 -10 -9 0
-27 -18 -27 -62 2 -99 66 -233 91 -403 75z"/>
<path d="M2126 3552 c-22 -25 -37 -29 -201 -47 -178 -19 -215 -32 -310 -110
-44 -36 -111 -81 -150 -102 -171 -89 -369 -247 -478 -383 -37 -46 -80 -89 -96
-96 -16 -7 -41 -29 -57 -49 -58 -75 -95 -113 -117 -119 -16 -4 -35 -32 -70
-101 -26 -52 -47 -102 -47 -110 0 -20 -10 -19 -27 3 -13 16 -14 16 -29 -3 -8
-11 -28 -41 -44 -67 -21 -33 -36 -48 -51 -48 -20 0 -21 -3 -15 -49 4 -30 2
-52 -4 -56 -5 -3 -10 3 -10 14 0 20 -17 38 -26 28 -3 -3 -2 -31 2 -63 l7 -57
55 59 c31 32 89 94 129 136 43 45 73 85 73 97 0 14 6 21 20 21 14 0 30 16 50
48 16 26 46 65 67 87 21 22 56 68 78 102 25 38 52 67 72 77 21 10 35 25 39 43
3 15 6 31 7 35 5 19 304 267 402 333 174 116 454 248 620 290 107 27 251 16
390 -30 78 -26 255 -115 425 -215 157 -92 278 -155 286 -148 2 2 -8 21 -22 42
-16 23 -68 65 -138 111 -62 41 -125 90 -140 109 -18 24 -40 39 -67 46 -22 6
-104 38 -181 71 -175 73 -278 106 -360 115 -56 5 -65 4 -82 -14z"/>
<path d="M1975 3394 c-173 -38 -342 -115 -531 -243 -171 -115 -252 -191 -442
-416 -173 -205 -189 -222 -226 -240 -29 -14 -80 -93 -97 -150 -9 -32 -21 -50
-36 -56 -12 -4 -34 -27 -48 -50 -24 -37 -25 -42 -11 -58 9 -10 16 -23 16 -29
0 -19 25 -14 47 11 11 12 30 40 41 62 11 22 34 50 51 63 17 12 40 41 52 65 12
23 54 76 93 117 39 41 100 118 135 170 70 105 106 141 326 327 83 70 170 145
195 168 38 34 56 43 113 53 38 7 110 31 160 53 270 119 323 126 497 66 58 -19
121 -38 141 -41 19 -4 79 -35 132 -70 95 -63 153 -93 162 -84 3 2 8 19 11 36
5 25 3 33 -12 39 -11 5 -50 29 -89 54 -88 58 -192 111 -275 139 -87 30 -301
37 -405 14z"/>
<path d="M1973 3281 c-18 -12 -33 -25 -33 -30 0 -11 57 -19 137 -20 57 0 107
-21 122 -50 8 -15 26 -19 86 -23 65 -4 89 -12 168 -51 112 -56 208 -138 406
-346 79 -84 145 -150 148 -147 7 7 -44 103 -102 191 -72 111 -127 169 -186
198 -27 14 -64 43 -80 63 -74 93 -144 126 -414 195 -163 41 -211 45 -252 20z"/>
<path d="M590 3230 c-8 -16 -8 -20 4 -20 16 0 29 27 16 35 -5 3 -14 -4 -20
-15z"/>
<path d="M1800 3195 c-27 -22 -49 -33 -60 -30 -41 13 -162 -63 -308 -194 -53
-47 -144 -126 -201 -175 -113 -99 -173 -166 -222 -254 -18 -31 -56 -82 -84
-113 -28 -31 -73 -89 -100 -130 -26 -41 -49 -76 -51 -78 -2 -2 -10 1 -17 8
-17 13 -31 -5 -65 -82 -31 -70 -61 -108 -98 -123 -20 -9 -34 -21 -34 -32 0
-27 -37 -81 -64 -94 -14 -6 -26 -20 -28 -31 -2 -11 -16 -28 -33 -37 -23 -13
-31 -25 -35 -56 -4 -29 -7 -35 -13 -21 -11 29 -30 14 -43 -34 -6 -27 -16 -43
-24 -41 -8 2 -10 -3 -5 -15 4 -10 10 -26 12 -35 9 -30 33 -20 50 20 19 47 19
47 39 31 18 -15 13 -20 75 69 17 24 46 52 64 64 22 12 46 41 65 77 17 31 51
81 75 111 25 30 64 86 87 125 23 38 57 89 75 113 18 24 33 55 33 69 0 16 13
37 37 59 20 19 40 34 44 34 4 0 49 51 99 113 97 118 147 168 192 192 18 10 33
32 45 65 16 45 33 66 33 40 0 -21 20 -8 82 53 40 39 94 79 147 107 47 25 121
71 165 103 l80 58 126 -3 c116 -2 128 -1 168 22 47 27 53 40 19 40 -13 0 -66
9 -118 20 -136 28 -159 27 -209 -15z"/>
<path d="M347 3174 c-11 -20 -18 -73 -11 -98 10 -40 34 -14 34 38 0 41 -13 75
-23 60z"/>
<path d="M521 3156 c-8 -9 -11 -19 -7 -23 9 -9 29 13 24 27 -2 8 -8 7 -17 -4z"/>
<path d="M2755 3108 c-5 -31 1 -40 97 -140 105 -109 139 -129 177 -108 29 15
27 22 -13 44 -19 10 -65 56 -101 102 -65 82 -120 134 -143 134 -6 0 -14 -15
-17 -32z"/>
<path d="M431 3092 c-14 -26 -7 -42 10 -25 6 6 9 19 7 29 -3 17 -5 17 -17 -4z"/>
<path d="M2155 3104 c-11 -2 -76 -8 -145 -13 -153 -13 -194 -25 -243 -74 -28
-28 -42 -36 -51 -28 -9 8 -29 -5 -76 -49 -35 -32 -67 -57 -72 -54 -4 3 -28 -4
-53 -15 -58 -26 -309 -278 -433 -434 -48 -61 -120 -150 -159 -198 -40 -49 -73
-91 -73 -94 0 -3 -16 -39 -35 -81 -19 -41 -35 -82 -35 -90 0 -11 -6 -13 -20
-9 -14 4 -22 1 -27 -12 -3 -10 -23 -41 -44 -69 -22 -28 -42 -64 -45 -81 -4
-20 -16 -35 -39 -47 -19 -10 -70 -58 -114 -106 -44 -48 -96 -95 -117 -105 -36
-17 -36 -18 -30 -63 3 -25 9 -48 12 -51 15 -15 62 30 90 87 22 44 33 59 37 48
4 -9 16 -16 28 -16 20 0 21 4 15 41 -5 29 -3 39 5 33 11 -7 109 90 109 108 0
5 4 7 9 3 17 -10 74 58 123 146 58 102 70 117 130 158 47 31 73 79 93 169 4
18 24 53 46 78 21 25 39 54 39 64 0 13 14 27 39 40 25 12 70 57 123 122 100
123 165 179 408 351 170 121 188 131 225 129 22 -1 78 5 124 14 46 8 101 12
121 9 33 -6 38 -4 45 17 6 19 8 20 12 6 6 -24 38 -32 110 -29 78 3 126 -17
235 -99 44 -34 92 -63 107 -66 20 -4 35 -22 63 -73 55 -101 149 -221 235 -300
42 -39 78 -69 81 -67 2 3 -4 28 -13 57 -14 40 -36 72 -96 134 -44 45 -79 90
-79 99 0 31 -48 92 -131 167 -219 197 -378 270 -534 243z"/>
<path d="M2935 3079 c23 -73 82 -134 122 -126 18 3 23 0 23 -15 0 -25 18 -58
32 -58 15 0 2 56 -23 97 -12 18 -46 51 -78 72 -86 58 -84 57 -76 30z"/>
<path d="M270 3073 c1 -14 30 -47 36 -41 10 11 -7 48 -22 48 -8 0 -14 -3 -14
-7z"/>
<path d="M512 3068 c-7 -7 -12 -26 -12 -44 0 -27 -3 -31 -19 -27 -10 3 -22 0
-25 -6 -4 -6 -16 -11 -28 -11 -17 0 -19 -4 -13 -22 4 -13 7 -33 7 -45 0 -13 3
-23 7 -23 11 0 46 41 61 69 9 17 14 20 20 11 6 -9 12 -9 30 0 19 10 21 17 15
43 -4 18 -8 40 -8 50 -1 20 -18 22 -35 5z"/>
<path d="M583 3069 c-16 -16 -17 -49 -3 -49 13 0 23 24 18 45 -2 13 -5 14 -15
4z"/>
<path d="M638 3028 c-32 -36 -35 -48 -13 -48 18 0 48 44 43 64 -2 12 -10 7
-30 -16z"/>
<path d="M1915 2952 c-171 -63 -177 -66 -201 -103 -31 -49 -77 -86 -181 -144
-102 -56 -171 -117 -204 -180 -14 -27 -35 -49 -52 -56 -16 -7 -52 -39 -79 -73
-28 -33 -70 -75 -93 -92 -43 -33 -69 -79 -63 -109 5 -27 110 56 278 220 138
134 240 219 304 252 23 12 33 13 52 3 27 -15 46 -5 107 53 33 31 41 34 84 30
27 -3 78 2 115 11 67 16 68 16 104 -9 44 -30 98 -41 130 -26 34 15 30 45 -8
74 -68 50 -126 57 -268 32 -47 -8 -110 -15 -140 -15 -52 0 -53 1 -32 16 72 50
261 80 320 50 38 -20 56 -20 75 -2 13 13 18 10 46 -24 19 -23 57 -51 96 -71
36 -17 65 -38 65 -46 0 -9 11 -28 25 -45 14 -16 25 -35 25 -43 0 -7 23 -28 51
-46 69 -44 131 -121 229 -286 46 -76 106 -169 135 -208 29 -38 59 -90 66 -114
8 -28 30 -61 56 -87 31 -31 64 -87 118 -200 42 -86 78 -154 81 -151 9 9 -17
130 -37 177 -11 25 -32 58 -47 73 -20 21 -26 36 -24 61 4 37 -11 54 -32 37
-11 -9 -15 -5 -19 21 -15 86 -23 105 -68 164 -27 36 -100 142 -163 237 -63 94
-159 224 -213 288 -55 64 -110 130 -122 147 -16 23 -30 32 -50 32 -22 0 -43
16 -95 71 -52 56 -71 70 -88 66 -14 -4 -26 1 -38 16 -15 18 -30 22 -91 25 -62
2 -87 -2 -154 -26z"/>
<path d="M2271 2959 c-28 -11 -27 -13 48 -63 29 -20 65 -36 80 -36 20 0 31 -9
49 -40 12 -22 48 -58 80 -81 31 -22 68 -54 82 -69 21 -24 28 -26 42 -16 38 28
-21 126 -76 126 -13 0 -32 15 -49 40 -68 96 -194 164 -256 139z"/>
<path d="M345 2914 c-3 -25 -13 -64 -21 -86 -8 -23 -13 -43 -11 -44 2 -2 16 2
31 9 21 9 25 17 21 35 -4 14 2 30 15 44 13 15 17 25 10 32 -5 5 -10 20 -10 33
0 43 -27 25 -35 -23z"/>
<path d="M287 2882 c-32 -35 -49 -114 -27 -127 11 -7 19 12 44 93 15 54 10 65
-17 34z"/>
<path d="M2980 2811 c0 -32 200 -236 208 -211 2 5 -13 41 -33 80 -45 84 -102
140 -145 140 -17 0 -30 -4 -30 -9z"/>
<path d="M2262 2713 c2 -17 9 -28 18 -28 9 0 16 11 18 28 3 22 -1 27 -18 27
-17 0 -21 -5 -18 -27z"/>
<path d="M1880 2706 c-20 -8 -60 -26 -90 -41 -30 -15 -81 -34 -114 -42 -76
-17 -95 -31 -256 -187 l-135 -131 -10 -72 c-6 -40 -7 -73 -3 -73 4 0 28 26 55
57 102 121 167 181 208 192 28 7 46 20 59 42 23 38 72 69 111 69 23 0 41 11
69 39 135 138 360 109 648 -83 76 -50 86 -62 116 -122 18 -36 80 -144 137
-240 133 -222 136 -227 134 -271 -1 -21 10 -69 24 -108 37 -102 77 -241 88
-308 11 -69 24 -97 46 -97 29 0 8 107 -48 252 -44 113 -53 146 -57 218 -4 84
-5 87 -103 280 -144 287 -224 404 -337 492 -54 43 -60 46 -75 31 -15 -15 -19
-12 -59 27 -41 41 -46 44 -103 45 -37 2 -77 10 -105 23 -52 25 -144 28 -200 8z"/>
<path d="M2310 2697 c0 -22 27 -57 43 -57 12 0 8 55 -5 68 -19 19 -38 14 -38
-11z"/>
<path d="M2667 2653 c-19 -18 -6 -71 24 -99 17 -16 42 -48 56 -71 13 -24 38
-54 54 -67 16 -14 29 -32 29 -41 0 -38 39 -92 87 -117 42 -23 51 -34 67 -80
33 -93 75 -168 101 -180 35 -16 40 -5 22 44 -29 75 -102 190 -229 359 -67 90
-134 186 -148 212 -23 43 -46 58 -63 40z"/>
<path d="M247 2593 c-4 -3 -7 -16 -7 -29 0 -17 4 -21 20 -17 13 3 20 14 20 29
0 23 -19 32 -33 17z"/>
<path d="M1872 2593 c-24 -5 -92 -64 -92 -80 0 -6 23 -8 55 -5 33 3 90 -3 141
-13 70 -15 92 -16 119 -7 41 16 63 8 161 -59 42 -28 90 -57 109 -65 24 -10 42
-30 68 -76 19 -35 71 -125 115 -201 44 -76 97 -183 118 -238 28 -73 42 -99 55
-99 14 0 23 -22 44 -117 65 -284 87 -373 112 -448 27 -83 69 -175 80 -175 13
0 -9 98 -37 159 -18 42 -38 117 -55 207 -36 205 -88 374 -114 374 -5 0 -11 24
-13 53 -7 73 -95 266 -125 273 -13 4 -21 10 -18 14 10 17 -25 102 -69 169 -58
87 -176 205 -249 249 -30 18 -82 43 -116 54 -56 19 -67 20 -115 8 -51 -12 -56
-11 -81 9 -27 20 -45 23 -93 14z"/>
<path d="M3020 2582 c0 -28 29 -62 54 -62 20 0 24 -6 29 -42 4 -28 15 -51 36
-72 36 -36 39 -26 16 53 -25 82 -135 183 -135 123z"/>
<path d="M243 2494 c-15 -23 -18 -24 -29 -10 -10 15 -12 14 -18 -8 -6 -26 1
-56 14 -56 15 0 60 61 60 81 0 26 -6 24 -27 -7z"/>
<path d="M2090 2449 c0 -23 109 -121 175 -156 61 -34 70 -42 78 -75 5 -21 26
-57 48 -81 63 -73 167 -345 215 -567 9 -41 19 -151 23 -245 8 -168 8 -171 48
-270 33 -80 47 -138 72 -287 30 -173 55 -278 68 -278 4 0 3 44 0 99 -7 99 -29
219 -67 365 -11 44 -20 95 -20 115 -1 20 -9 54 -20 76 -12 25 -20 62 -20 100
0 38 -8 76 -21 105 -14 31 -19 56 -15 81 4 22 0 51 -8 71 -12 28 -13 49 -5
106 12 87 0 146 -59 278 -22 49 -45 107 -52 129 -34 107 -130 240 -247 340
-87 75 -193 126 -193 94z"/>
<path d="M1655 2420 c-120 -48 -279 -206 -372 -368 -26 -47 -69 -108 -94 -136
-25 -28 -72 -85 -105 -126 -32 -41 -76 -92 -97 -113 -35 -34 -37 -40 -31 -75
8 -46 12 -52 30 -52 10 0 14 14 14 58 l1 57 16 -30 16 -29 16 24 c9 14 50 67
92 120 42 52 88 116 103 141 15 26 35 49 46 52 10 3 34 26 52 53 18 26 48 67
66 91 19 26 32 55 32 73 0 27 2 29 29 24 41 -9 63 7 110 80 44 68 72 86 96 66
12 -10 16 -9 21 6 16 50 27 74 34 74 17 0 19 -50 4 -85 -8 -20 -13 -39 -11
-41 2 -2 18 2 35 8 33 13 41 35 21 55 -7 7 -9 19 -5 28 5 13 14 16 40 11 26
-5 35 -3 40 10 11 28 -10 38 -82 41 -49 2 -81 -2 -117 -17z"/>
<path d="M1870 2406 c0 -40 21 -52 74 -42 20 4 39 1 51 -8 19 -14 20 -15 2
-45 -21 -35 -15 -74 11 -69 9 2 20 18 26 36 5 17 13 32 18 32 5 0 40 -29 78
-65 38 -36 76 -65 83 -65 8 0 33 -38 55 -85 23 -47 68 -130 102 -184 33 -54
60 -109 60 -123 0 -14 12 -66 26 -114 14 -49 32 -114 41 -144 11 -41 17 -145
23 -408 8 -340 8 -355 -11 -387 -20 -34 -54 -184 -43 -194 13 -13 43 42 59
109 10 42 25 76 36 83 16 12 19 34 25 183 22 574 -111 1086 -348 1340 -57 61
-89 77 -104 53 -3 -6 -19 11 -35 39 -36 63 -90 92 -172 92 l-57 0 0 -34z"/>
<path d="M3022 2388 c-17 -17 -15 -24 12 -51 14 -14 38 -51 54 -83 16 -33 39
-68 51 -78 21 -19 21 -19 21 10 0 33 -20 72 -67 134 -18 24 -33 51 -33 62 0
20 -20 24 -38 6z"/>
<path d="M1820 2325 c-19 -23 -4 -47 27 -43 22 2 29 9 31 31 3 23 0 27 -21 27
-14 0 -30 -7 -37 -15z"/>
<path d="M1912 2305 c-17 -37 -15 -45 12 -45 32 0 41 16 25 46 -16 30 -23 30
-37 -1z"/>
<path d="M1628 2289 c-18 -10 -26 -79 -10 -79 23 0 52 34 52 61 0 30 -12 36
-42 18z"/>
<path d="M170 2246 c0 -19 -4 -38 -10 -41 -12 -7 -13 -52 -2 -59 12 -7 72 31
72 45 0 7 -5 29 -12 50 -8 27 -17 39 -30 39 -14 0 -18 -8 -18 -34z"/>
<path d="M1188 2240 c-40 -22 -69 -58 -86 -107 -13 -39 -9 -40 38 -12 59 36
120 103 120 134 0 11 -36 3 -72 -15z"/>
<path d="M1760 2253 c-56 -3 -67 -7 -75 -26 -6 -13 -21 -23 -37 -25 -14 -2
-33 -14 -42 -27 -10 -15 -22 -22 -35 -18 -14 4 -29 -9 -62 -54 -23 -32 -84
-98 -135 -146 -103 -97 -169 -188 -187 -255 -8 -30 -19 -47 -34 -53 -13 -5
-23 -15 -23 -24 0 -8 -9 -15 -20 -15 -15 0 -22 -9 -27 -31 -4 -21 -18 -38 -44
-55 -42 -26 -72 -74 -67 -107 5 -37 32 -24 58 28 15 28 31 49 38 48 7 -2 12 8
12 22 0 22 3 25 24 19 21 -5 25 -2 28 22 2 21 10 30 33 36 18 5 44 27 65 53
19 25 50 52 67 61 29 13 33 20 33 53 0 32 6 42 41 71 23 18 61 64 86 101 32
50 56 75 86 90 23 12 84 50 136 85 51 35 101 64 111 64 10 0 50 -7 89 -16 75
-17 110 -14 135 12 24 23 20 32 -19 51 -28 13 -42 15 -64 7 -24 -10 -30 -8
-49 13 -11 12 -29 22 -39 21 -10 -1 -47 -3 -83 -5z"/>
<path d="M2040 2166 c0 -45 3 -56 19 -61 25 -8 66 -56 113 -133 22 -37 52 -71
76 -85 37 -24 41 -31 70 -134 47 -161 70 -270 88 -410 19 -144 12 -215 -30
-318 -22 -56 -31 -91 -56 -225 -8 -44 -23 -72 -71 -135 -34 -44 -83 -125 -110
-180 -29 -62 -65 -118 -93 -147 -46 -48 -82 -105 -72 -115 3 -3 20 4 38 15 37
23 82 81 150 192 26 41 58 86 73 100 31 29 55 81 55 118 0 13 11 34 23 46 29
27 49 81 77 208 13 58 29 107 41 120 l20 23 -4 -75 c-3 -42 -22 -136 -43 -212
-45 -166 -35 -198 24 -73 42 89 47 136 44 434 -3 255 -5 293 -26 385 -13 55
-32 146 -42 201 -16 83 -25 109 -59 160 -23 33 -63 98 -90 145 -65 115 -92
148 -144 182 -64 40 -71 38 -71 -26z"/>
<path d="M342 2203 c-7 -3 -28 -36 -47 -73 -27 -54 -38 -67 -53 -63 -12 3 -22
-4 -30 -21 -6 -14 -8 -26 -3 -26 5 0 12 -11 15 -25 8 -33 17 -31 38 5 10 17
32 38 49 48 17 9 42 26 55 37 21 19 22 23 11 73 -6 28 -13 52 -16 51 -4 0 -12
-3 -19 -6z"/>
<path d="M531 2158 c-5 -14 -10 -17 -15 -10 -12 21 -36 0 -97 -84 -33 -46 -69
-89 -80 -94 -22 -12 -24 -33 -8 -79 12 -33 29 -40 48 -17 8 9 8 21 2 39 -12
31 -5 40 20 24 26 -16 46 -2 85 57 40 60 74 96 91 96 7 0 13 9 13 21 0 49 -45
85 -59 47z"/>
<path d="M1202 2121 c-22 -17 -68 -69 -102 -118 -35 -48 -86 -115 -114 -148
-29 -33 -64 -76 -78 -95 -29 -38 -72 -139 -63 -148 3 -3 16 0 29 6 16 7 29 27
40 60 14 41 25 55 64 79 32 20 76 67 139 149 50 65 108 137 128 159 19 21 33
45 30 53 -3 7 -5 18 -5 23 0 17 -27 9 -68 -20z"/>
<path d="M1455 2114 c-9 -14 -14 -28 -11 -31 8 -9 46 27 46 44 0 21 -16 15
-35 -13z"/>
<path d="M999 2089 c-19 -23 -51 -60 -72 -82 -20 -22 -46 -58 -58 -81 -11 -22
-29 -57 -39 -76 -11 -19 -20 -45 -20 -58 0 -20 5 -23 28 -20 25 3 27 6 24 41
-2 32 0 37 19 37 29 0 68 45 103 117 22 47 33 59 46 56 24 -6 52 37 48 74 -5
46 -39 42 -79 -8z"/>
<path d="M1780 2080 c-32 -11 -66 -31 -82 -49 -21 -24 -36 -31 -63 -31 -48 0
-106 -54 -146 -135 -25 -52 -34 -61 -52 -58 -19 4 -29 -8 -64 -69 -23 -41 -51
-82 -61 -91 -16 -14 -18 -27 -14 -65 8 -80 15 -81 62 -13 23 35 70 94 103 133
34 39 90 105 125 147 40 49 72 78 90 83 15 3 37 10 49 13 18 6 22 3 25 -21 2
-15 9 -30 17 -32 10 -3 12 1 8 17 -13 50 39 141 81 141 12 0 14 -16 11 -92
l-4 -93 33 1 c26 2 32 -2 32 -19 0 -11 14 -42 32 -69 21 -34 32 -66 36 -101 2
-29 13 -78 25 -110 19 -54 19 -65 8 -140 -26 -177 -82 -350 -154 -479 -37 -66
-53 -84 -90 -103 -11 -5 -48 -50 -81 -100 -42 -62 -73 -96 -98 -110 -32 -17
-38 -25 -38 -54 0 -30 -2 -33 -24 -27 -22 5 -24 3 -29 -51 -6 -59 -1 -84 10
-45 4 18 13 22 42 22 44 1 79 29 146 120 27 36 76 94 110 130 78 82 99 120
175 305 49 120 62 163 65 215 2 36 10 83 18 105 37 103 28 321 -17 421 -27 59
-82 124 -131 154 l-33 20 19 40 c11 22 21 40 23 40 4 0 128 -213 154 -265 42
-84 56 -155 55 -275 -1 -175 -43 -336 -134 -525 -62 -129 -118 -213 -200 -300
-47 -50 -68 -80 -73 -106 -5 -29 -13 -38 -41 -49 -19 -8 -35 -18 -35 -24 0 -6
-20 -31 -44 -56 -43 -43 -50 -59 -47 -107 2 -37 29 -27 37 13 5 26 13 38 33
45 85 31 178 116 242 223 21 34 41 56 52 56 33 0 174 320 222 505 38 149 48
244 42 409 -6 166 -28 298 -58 359 -26 49 -91 120 -137 149 l-35 22 -15 -22
c-18 -27 -27 -27 -52 -2 -25 25 -59 25 -130 0z"/>
<path d="M1812 2001 c-19 -12 -11 -45 12 -49 25 -5 39 12 31 37 -7 22 -21 26
-43 12z"/>
<path d="M133 1983 c-28 -5 -29 -30 -3 -62 19 -22 21 -23 45 -7 24 16 36 66
16 66 -5 0 -15 2 -23 4 -7 2 -23 1 -35 -1z"/>
<path d="M3120 1931 c0 -28 7 -48 25 -68 l24 -28 1 38 c0 40 -24 97 -40 97 -6
0 -10 -18 -10 -39z"/>
<path d="M272 1898 c-26 -26 -8 -108 24 -108 12 0 14 11 12 57 -3 57 -14 73
-36 51z"/>
<path d="M1653 1869 c-16 -16 -17 -41 -1 -57 17 -17 1 -27 -25 -15 -23 11 -28
5 -93 -85 -171 -239 -364 -462 -423 -490 -49 -23 -81 -74 -81 -128 0 -24 5
-46 11 -49 5 -4 27 5 48 19 20 14 42 26 49 26 16 0 31 33 34 74 3 41 6 43 25
19 13 -17 15 -16 30 7 9 14 40 48 69 75 28 28 60 64 70 80 11 17 40 53 67 80
26 28 74 91 107 141 67 103 131 167 196 195 l44 20 42 -24 c24 -14 48 -23 54
-21 6 3 15 -12 20 -32 18 -73 67 -69 62 6 -3 28 -12 41 -56 75 -29 22 -58 51
-65 65 -16 32 -60 37 -107 12 -34 -19 -35 -19 -50 0 -12 15 -17 17 -27 7z"/>
<path d="M2200 1839 c0 -19 12 -81 27 -139 26 -98 27 -118 26 -293 -1 -141 1
-187 10 -184 7 2 17 21 23 43 17 61 39 51 35 -16 -4 -90 -30 -187 -89 -335
-33 -85 -57 -161 -60 -193 -4 -44 -9 -55 -29 -65 -27 -12 -51 -49 -83 -130
-18 -47 -26 -56 -41 -52 -13 4 -19 1 -19 -9 0 -8 -27 -38 -59 -66 -64 -56 -79
-88 -61 -135 l11 -28 16 24 c10 13 52 67 94 119 74 91 129 185 129 222 0 11 5
15 14 12 18 -7 37 29 61 111 11 40 28 72 52 97 30 30 37 46 41 90 3 31 15 71
31 98 22 38 26 59 29 143 3 54 -1 124 -7 155 -6 31 -16 110 -21 175 -17 179
-64 335 -114 376 -14 12 -16 9 -16 -20z"/>
<path d="M2903 1818 c5 -23 45 -144 74 -228 9 -25 31 -59 50 -77 27 -26 33
-39 33 -75 0 -55 12 -75 30 -53 36 44 -128 453 -184 455 -4 0 -6 -10 -3 -22z"/>
<path d="M200 1799 c0 -26 -3 -30 -22 -27 -18 2 -24 -3 -26 -21 -6 -37 14 -48
41 -23 13 12 28 22 35 22 20 0 23 19 7 50 -20 39 -35 38 -35 -1z"/>
<path d="M763 1750 c-20 -37 -49 -68 -110 -116 -21 -18 -54 -60 -72 -94 -39
-73 -65 -102 -85 -94 -8 3 -18 -2 -23 -13 -16 -31 -9 -48 19 -51 20 -2 40 10
90 56 34 32 73 64 86 71 23 12 23 19 5 69 -3 7 4 12 20 12 30 0 65 41 98 114
19 44 19 50 5 64 -14 14 -17 12 -33 -18z"/>
<path d="M94 1725 c1 -33 16 -33 16 0 0 14 -4 25 -9 25 -5 0 -8 -11 -7 -25z"/>
<path d="M1760 1710 c-8 -5 -27 -10 -42 -10 -37 0 -95 -69 -193 -231 -66 -108
-103 -156 -209 -267 -71 -75 -143 -143 -160 -151 -17 -9 -49 -40 -71 -70 -32
-42 -53 -58 -92 -73 -60 -22 -123 -85 -123 -123 0 -24 1 -24 38 -11 112 40
219 114 386 269 l106 99 1 51 c1 29 4 40 6 25 8 -50 37 -29 103 76 23 36 50
68 61 71 11 4 19 15 19 29 0 46 12 85 25 80 6 -3 35 26 63 66 29 39 63 76 77
82 21 9 25 18 25 55 0 23 -1 43 -2 43 -2 0 -10 -5 -18 -10z"/>
<path d="M1796 1678 c-3 -7 -7 -33 -9 -56 -4 -31 -12 -49 -29 -60 -42 -30 -66
-63 -114 -155 -27 -54 -69 -115 -99 -148 -29 -30 -64 -78 -79 -106 -14 -28
-38 -60 -53 -71 -16 -11 -77 -70 -137 -130 -65 -66 -119 -112 -135 -115 -14
-3 -72 -33 -128 -67 -79 -48 -112 -62 -148 -65 -30 -2 -54 -10 -65 -21 -23
-24 -38 -94 -20 -94 28 0 220 64 287 96 69 33 123 81 123 110 0 8 5 14 10 14
6 0 10 -9 10 -20 0 -11 5 -20 10 -20 6 0 10 4 10 9 0 5 31 34 70 65 41 33 72
67 76 82 4 15 12 23 20 20 8 -3 31 16 56 45 24 27 68 76 99 107 54 56 71 85
156 272 35 76 99 167 110 157 2 -2 -8 -40 -22 -83 -28 -86 -74 -179 -75 -151
0 24 -20 22 -20 -3 0 -11 4 -20 9 -20 4 0 -8 -38 -27 -84 -29 -68 -42 -87 -70
-102 -18 -10 -65 -57 -103 -105 -84 -106 -164 -181 -259 -244 -99 -66 -259
-143 -332 -160 -72 -16 -99 -40 -101 -86 -2 -27 3 -35 24 -42 34 -13 79 9 149
74 67 62 95 75 185 84 91 9 129 31 240 145 50 50 109 103 133 117 23 14 50 39
59 57 34 67 77 119 108 132 30 12 38 25 73 116 47 119 72 231 72 318 0 54 -2
60 -21 60 -17 0 -20 5 -17 37 4 50 21 52 52 6 25 -36 26 -44 26 -179 0 -127
-2 -143 -20 -159 -21 -19 -46 -86 -56 -153 -5 -29 -11 -41 -19 -38 -7 2 -33
-21 -59 -52 -99 -124 -153 -182 -201 -218 -27 -21 -67 -57 -89 -81 -50 -56
-127 -112 -170 -124 -25 -7 -37 -18 -45 -41 -31 -89 -103 -137 -217 -145 -72
-6 -74 -7 -74 -32 0 -32 17 -51 45 -51 41 0 184 80 277 155 73 59 100 75 125
75 24 0 44 10 72 35 21 19 46 35 55 35 9 0 16 6 16 14 0 25 41 66 91 91 27 14
55 35 62 48 8 12 29 47 47 79 18 31 44 61 57 67 15 7 23 19 23 37 0 16 15 43
39 70 75 85 121 255 121 443 l0 97 -47 46 c-27 26 -65 54 -85 63 -45 18 -48
18 -52 3z"/>
<path d="M267 1674 c-4 -4 -7 -16 -7 -26 0 -13 -7 -18 -25 -18 -19 0 -26 -7
-31 -27 -9 -45 -13 -53 -23 -53 -5 0 -13 9 -16 20 -3 11 -13 20 -21 20 -17 0
-20 -85 -4 -95 6 -3 10 3 10 14 0 17 4 18 28 11 49 -14 108 23 130 81 8 21 6
31 -11 53 -12 15 -26 24 -30 20z"/>
<path d="M2690 1628 c1 -85 21 -196 65 -358 24 -91 56 -237 70 -324 28 -167
53 -252 84 -280 38 -34 35 16 -8 141 -11 34 -21 77 -21 95 0 18 -9 57 -20 86
-35 92 -58 189 -100 422 -22 124 -43 233 -46 243 -10 32 -24 17 -24 -25z"/>
<path d="M776 1584 c-10 -14 -26 -57 -36 -97 -12 -50 -20 -67 -25 -54 -10 25
-42 21 -49 -5 -3 -13 -26 -36 -51 -51 -45 -29 -60 -55 -53 -98 2 -18 8 -23 23
-21 38 6 100 57 122 101 12 24 31 54 42 65 24 26 91 168 85 178 -11 17 -42 7
-58 -18z"/>
<path d="M1240 1570 c-7 -13 -47 -60 -90 -106 -43 -46 -83 -98 -90 -118 -7
-23 -18 -36 -32 -38 -32 -5 -65 -54 -52 -76 16 -24 47 -21 59 6 5 12 18 22 28
22 11 0 25 15 36 40 10 22 21 37 25 33 8 -9 123 103 142 139 17 33 17 66 0 97
l-13 24 -13 -23z"/>
<path d="M886 1541 c-22 -41 -20 -51 9 -51 27 0 33 8 37 50 4 37 -27 38 -46 1z"/>
<path d="M292 1465 c-7 -15 -16 -48 -19 -74 -6 -42 -5 -45 10 -32 23 18 41 89
30 114 -8 18 -10 17 -21 -8z"/>
<path d="M834 1482 c-16 -10 -34 -48 -34 -71 0 -42 51 -13 63 36 5 24 -12 46
-29 35z"/>
<path d="M910 1405 c-13 -35 -13 -102 1 -110 17 -11 23 2 27 64 5 64 -11 90
-28 46z"/>
<path d="M206 1386 c-7 -28 8 -76 24 -76 15 0 9 92 -6 97 -7 2 -14 -7 -18 -21z"/>
<path d="M382 1365 c-33 -36 -46 -71 -40 -100 2 -14 13 -9 56 26 44 37 52 49
50 74 -4 42 -29 42 -66 0z"/>
<path d="M846 1360 c-34 -11 -65 -37 -76 -66 -6 -14 -21 -24 -44 -28 -46 -9
-111 -53 -229 -157 -92 -80 -95 -84 -69 -89 75 -16 175 32 269 127 40 40 78
73 86 73 7 0 28 11 47 25 19 14 39 25 44 25 6 0 11 22 11 50 0 28 -2 50 -5 49
-3 0 -18 -5 -34 -9z"/>
<path d="M1860 1305 c0 -19 5 -35 10 -35 6 0 10 16 10 35 0 19 -4 35 -10 35
-5 0 -10 -16 -10 -35z"/>
<path d="M2990 1305 c-10 -12 -8 -32 15 -112 14 -54 35 -114 46 -133 l20 -35
-4 67 c-4 51 -12 79 -37 123 -26 46 -30 58 -19 71 8 10 9 18 2 25 -7 7 -14 5
-23 -6z"/>
<path d="M439 1237 c-84 -79 -121 -127 -97 -127 24 0 162 70 190 97 21 20 26
32 21 52 -6 28 -21 51 -32 51 -3 -1 -40 -33 -82 -73z"/>
<path d="M270 1220 c0 -60 12 -64 30 -11 13 41 8 61 -16 61 -10 0 -14 -13 -14
-50z"/>
<path d="M927 1205 c-20 -18 -35 -23 -52 -19 -18 4 -25 1 -30 -15 -5 -16 -15
-21 -38 -21 -39 0 -61 -14 -156 -102 -43 -40 -87 -72 -103 -75 -36 -7 -43 -22
-31 -69 l8 -36 50 44 c72 64 300 228 318 228 2 0 1 -16 -1 -35 -6 -49 10 -44
42 15 15 27 34 54 43 58 12 7 13 13 4 31 -15 26 -19 26 -54 -4z"/>
<path d="M193 1195 c-3 -9 -3 -18 0 -21 9 -9 27 6 27 22 0 19 -19 18 -27 -1z"/>
<path d="M2220 1194 c0 -10 -25 -90 -55 -179 -30 -90 -55 -168 -55 -175 0 -7
-13 -29 -28 -49 -16 -20 -51 -74 -78 -120 -27 -46 -80 -115 -117 -153 -62 -63
-106 -132 -107 -166 0 -16 100 60 165 124 51 51 90 120 101 178 4 25 20 52 43
75 24 24 54 78 90 160 67 153 81 200 81 268 0 46 -2 53 -20 53 -12 0 -20 -7
-20 -16z"/>
<path d="M122 1159 c2 -19 8 -33 13 -31 15 3 12 55 -3 60 -10 3 -13 -5 -10
-29z"/>
<path d="M2616 1039 c-10 -51 -7 -118 9 -214 9 -49 19 -136 24 -192 5 -56 12
-106 16 -112 28 -47 34 109 9 284 -8 61 -17 140 -21 177 -7 77 -27 108 -37 57z"/>
<path d="M291 1020 c-14 -46 -14 -50 -1 -50 6 0 10 7 10 16 0 13 7 15 40 9 36
-6 40 -5 40 14 0 12 -6 21 -12 21 -7 0 -25 6 -39 14 -26 13 -27 13 -38 -24z"/>
<path d="M828 1043 c-9 -10 -20 -28 -26 -39 -6 -12 -25 -24 -43 -28 -59 -12
-119 -55 -139 -99 -10 -23 -18 -43 -16 -44 3 -4 183 92 203 109 24 20 73 100
67 109 -9 14 -30 10 -46 -8z"/>
<path d="M938 1035 c-22 -22 -48 -83 -48 -114 0 -16 93 57 108 86 28 52 -16
73 -60 28z"/>
<path d="M205 1031 c-42 -9 -47 -52 -10 -77 15 -10 29 -13 34 -8 11 12 23 94
14 93 -5 -1 -21 -4 -38 -8z"/>
<path d="M2957 964 c-8 -8 2 -55 13 -67 10 -11 24 49 15 63 -7 11 -19 13 -28
4z"/>
<path d="M440 940 c-8 -5 -23 -7 -32 -4 -14 4 -18 -1 -18 -24 0 -38 -10 -46
-27 -22 -18 26 -22 25 -60 -11 -51 -47 -44 -59 31 -59 109 0 165 34 158 95 -4
36 -21 45 -52 25z"/>
<path d="M842 918 c-17 -17 -15 -48 3 -48 17 0 39 36 30 50 -8 13 -18 13 -33
-2z"/>
<path d="M778 848 c-18 -18 -28 -40 -28 -58 0 -33 3 -35 30 -20 22 12 48 86
34 99 -5 5 -21 -4 -36 -21z"/>
<path d="M665 771 c-9 -18 -11 -32 -5 -36 11 -7 50 12 50 25 0 4 3 15 6 24 12
31 -34 18 -51 -13z"/>
<path d="M824 775 c-3 -14 -4 -28 -1 -31 10 -10 27 7 27 26 0 30 -19 33 -26 5z"/>
<path d="M571 781 c-23 -6 -43 -38 -34 -53 5 -10 44 -10 60 0 6 4 15 20 18 35
8 29 2 31 -44 18z"/>
<path d="M506 765 c-4 -12 -10 -14 -25 -5 -14 7 -22 7 -26 0 -13 -21 4 -40 35
-40 27 0 30 3 30 30 0 33 -5 38 -14 15z"/>
<path d="M370 741 c-16 -31 -12 -61 8 -61 26 0 42 20 42 52 0 21 -5 28 -20 28
-10 0 -24 -9 -30 -19z"/>
<path d="M300 720 c0 -13 5 -18 15 -14 8 4 15 12 15 20 0 8 -7 14 -15 14 -8 0
-15 -9 -15 -20z"/>
<path d="M2566 598 c-5 -60 -16 -94 -62 -191 -31 -65 -54 -120 -51 -123 9 -9
43 14 61 41 10 15 18 47 19 71 1 24 5 44 10 44 4 0 16 15 27 33 15 24 20 50
20 102 0 99 -15 113 -24 23z"/>
<path d="M562 634 c2 -15 9 -29 16 -32 10 -3 13 4 10 24 -2 15 -9 29 -16 32
-10 3 -13 -4 -10 -24z"/>
<path d="M644 646 c-8 -22 -1 -59 14 -64 8 -2 12 9 12 37 0 40 -15 55 -26 27z"/>
<path d="M716 644 c-9 -24 -7 -64 4 -64 13 0 30 34 30 59 0 25 -25 28 -34 5z"/>
<path d="M436 624 c-10 -27 -7 -44 9 -44 9 0 15 9 15 24 0 30 -15 42 -24 20z"/>
<path d="M356 604 c-4 -9 -4 -19 -1 -22 6 -6 35 18 35 29 0 16 -28 10 -34 -7z"/>
<path d="M2330 562 c0 -7 -24 -39 -54 -71 -48 -52 -78 -113 -63 -128 10 -9 58
30 86 71 34 50 55 116 41 130 -7 7 -10 6 -10 -2z"/>
<path d="M1094 541 c-28 -17 -74 -70 -74 -85 0 -8 121 5 141 15 9 5 22 22 27
39 9 25 8 31 -8 40 -28 15 -51 12 -86 -9z"/>
<path d="M752 514 c-26 -18 -29 -62 -6 -71 20 -8 44 21 44 53 0 31 -12 36 -38
18z"/>
<path d="M1443 506 c-31 -15 -34 -86 -4 -86 25 0 51 37 51 72 0 30 -10 33 -47
14z"/>
<path d="M587 486 c-10 -25 -9 -66 2 -66 13 0 21 39 12 63 -7 18 -8 19 -14 3z"/>
<path d="M2412 488 c-17 -17 -15 -68 2 -68 16 0 26 21 26 56 0 26 -10 30 -28
12z"/>
<path d="M650 461 c0 -11 5 -23 10 -26 6 -4 10 5 10 19 0 14 -4 26 -10 26 -5
0 -10 -9 -10 -19z"/>
<path d="M1335 440 c-16 -11 -42 -36 -58 -57 -26 -35 -27 -39 -11 -50 23 -17
23 -17 76 7 40 17 46 25 52 57 3 21 6 44 6 51 0 18 -31 15 -65 -8z"/>
<path d="M895 387 c-10 -25 -1 -62 15 -62 21 0 24 31 6 57 -13 18 -16 19 -21
5z"/>
<path d="M368 356 c-22 -49 34 -75 124 -58 34 7 54 6 72 -3 28 -15 36 -11 36
20 0 44 -26 52 -90 28 -59 -21 -59 -21 -77 -1 -34 38 -52 41 -65 14z"/>
<path d="M802 365 c-42 -18 -37 -39 10 -43 28 -2 40 2 52 20 9 12 16 26 16 30
0 13 -42 9 -78 -7z"/>
<path d="M716 345 c-3 -8 -13 -15 -22 -15 -22 0 -12 -24 13 -28 24 -4 47 22
39 43 -7 19 -22 19 -30 0z"/>
<path d="M1530 340 c0 -11 5 -20 10 -20 6 0 10 9 10 20 0 11 -4 20 -10 20 -5
0 -10 -9 -10 -20z"/>
<path d="M1717 332 c-18 -19 -27 -38 -25 -53 l3 -22 28 24 c22 18 28 32 25 53
l-3 28 -28 -30z"/>
<path d="M1152 320 c-18 -11 -38 -31 -44 -45 -10 -22 -12 -23 -23 -8 -22 30
-45 9 -45 -42 0 -53 23 -63 43 -17 8 19 18 26 30 24 36 -7 68 9 97 50 17 22
30 45 30 50 0 15 -55 8 -88 -12z"/>
<path d="M630 313 c0 -12 5 -25 10 -28 13 -8 13 15 0 35 -8 12 -10 11 -10 -7z"/>
<path d="M1395 280 c-7 -21 11 -64 24 -56 10 6 1 76 -9 76 -5 0 -11 -9 -15
-20z"/>
<path d="M2600 278 c0 -7 5 -20 10 -28 8 -12 10 -11 10 7 0 12 -4 25 -10 28
-5 3 -10 0 -10 -7z"/>
<path d="M2402 257 c-29 -31 -28 -45 3 -39 14 2 25 10 25 17 0 8 3 20 6 29 9
23 -9 19 -34 -7z"/>
<path d="M1334 255 c-4 -10 -20 -15 -50 -15 -58 0 -120 -26 -144 -60 -45 -63
-17 -75 80 -36 32 13 73 27 89 31 23 5 31 12 31 28 0 12 9 28 20 35 12 7 18
17 15 22 -9 15 -35 12 -41 -5z"/>
<path d="M1791 244 c-23 -30 -28 -64 -8 -64 25 1 66 47 60 69 -7 28 -27 26
-52 -5z"/>
<path d="M948 249 c-26 -15 -22 -32 13 -52 38 -21 49 -15 49 29 0 29 -3 34
-22 34 -13 0 -31 -5 -40 -11z"/>
<path d="M1617 253 c-16 -15 -6 -34 15 -31 29 4 38 38 10 38 -10 0 -22 -3 -25
-7z"/>
<path d="M1550 183 c0 -25 15 -38 25 -22 4 6 0 18 -9 27 -15 15 -16 15 -16 -5z"/>
<path d="M1913 188 c-6 -7 -13 -21 -16 -30 -5 -14 -1 -18 17 -18 23 0 36 17
36 46 0 17 -24 18 -37 2z"/>
<path d="M675 170 c-3 -5 -1 -19 5 -31 11 -20 12 -20 25 -2 8 10 15 24 15 31
0 14 -36 16 -45 2z"/>
<path d="M1685 160 c-10 -11 -24 -20 -32 -20 -15 0 -17 -28 -4 -49 7 -11 17
-8 50 18 43 34 55 71 23 71 -11 0 -27 -9 -37 -20z"/>
<path d="M1478 135 c-23 -30 -23 -58 -1 -53 19 4 39 56 27 68 -5 5 -17 -2 -26
-15z"/>
<path d="M1327 103 c-12 -11 -8 -23 8 -23 8 0 15 7 15 15 0 16 -12 20 -23 8z"/>
</g>
</svg>
