<?xml version="1.0" standalone="no"?>
<!DOCTYPE svg PUBLIC "-//W3C//DTD SVG 20010904//EN"
 "http://www.w3.org/TR/2001/REC-SVG-20010904/DTD/svg10.dtd">
<svg version="1.0" xmlns="http://www.w3.org/2000/svg"
 width="327.000000pt" height="515.000000pt" viewBox="0 0 327.000000 515.000000"
 preserveAspectRatio="xMidYMid meet">

<g transform="translate(0.000000,515.000000) scale(0.100000,-0.100000)"
fill="#000000" stroke="none">
<path d="M1722 5103 c4 -21 45 -30 62 -13 14 14 -8 30 -42 30 -17 0 -23 -5
-20 -17z"/>
<path d="M1950 5105 c0 -8 6 -15 14 -15 7 0 16 -10 20 -22 4 -17 8 -20 17 -11
8 8 7 18 -7 37 -21 28 -44 34 -44 11z"/>
<path d="M1440 5066 c0 -16 27 -29 41 -20 13 8 -9 34 -27 34 -8 0 -14 -6 -14
-14z"/>
<path d="M1556 5071 c-7 -11 22 -23 35 -15 5 3 9 9 9 15 0 12 -37 12 -44 0z"/>
<path d="M2020 5060 c0 -15 27 -23 47 -16 15 6 15 8 3 16 -20 13 -50 12 -50 0z"/>
<path d="M2117 5053 c-12 -11 -8 -23 8 -23 8 0 15 7 15 15 0 16 -12 20 -23 8z"/>
<path d="M1643 5033 c9 -9 19 -14 23 -11 10 10 -6 28 -24 28 -15 0 -15 -1 1
-17z"/>
<path d="M1748 5043 c-26 -7 -22 -22 9 -34 30 -11 49 1 40 25 -6 16 -16 18
-49 9z"/>
<path d="M1877 5022 c-25 -27 -21 -32 23 -32 40 0 45 5 34 34 -8 21 -37 20
-57 -2z"/>
<path d="M1376 4998 c-8 -12 -13 -25 -10 -30 9 -14 52 -9 69 9 16 16 16 17 -1
30 -25 18 -41 16 -58 -9z"/>
<path d="M1485 4989 c-4 -6 -1 -15 6 -20 20 -13 54 -6 54 11 0 18 -50 26 -60
9z"/>
<path d="M1978 4989 c-50 -19 -30 -29 60 -29 87 0 88 0 121 -35 33 -35 71 -47
71 -22 0 53 -180 114 -252 86z"/>
<path d="M2252 4983 c2 -11 14 -19 31 -21 23 -3 28 0 25 15 -2 11 -14 19 -31
21 -23 3 -28 0 -25 -15z"/>
<path d="M2402 4984 c4 -21 22 -23 26 -1 2 10 -3 17 -13 17 -10 0 -15 -6 -13
-16z"/>
<path d="M1237 4984 c-3 -3 -3 -12 0 -20 7 -18 53 -18 53 0 0 19 -39 34 -53
20z"/>
<path d="M1610 4969 c0 -9 42 -25 126 -47 143 -36 252 -84 306 -131 24 -21 44
-31 55 -27 10 3 40 -1 67 -9 26 -8 52 -12 57 -9 5 3 23 -6 40 -20 17 -14 35
-26 39 -26 5 0 24 -13 42 -28 18 -16 56 -37 83 -47 77 -28 109 -52 265 -195
80 -72 157 -139 172 -148 15 -9 32 -28 39 -44 6 -15 29 -43 50 -62 21 -19 45
-48 53 -65 19 -36 62 -71 87 -71 11 0 19 3 19 6 0 14 -27 53 -67 97 -24 26
-50 62 -58 81 -10 23 -23 35 -42 39 -19 4 -48 30 -88 78 -33 40 -73 84 -88 98
-139 126 -182 161 -243 194 -126 68 -272 162 -292 188 -23 28 -132 89 -161 89
-10 0 -21 -7 -25 -15 -8 -21 -26 -19 -68 10 -22 15 -51 25 -72 25 -19 0 -51 9
-70 21 -32 19 -75 24 -156 18 -14 -1 -35 2 -47 6 -16 5 -23 3 -23 -6z m565
-151 c14 -6 25 -15 25 -20 0 -15 -27 -8 -45 12 -21 23 -16 25 20 8z m93 -57
c3 -8 -1 -12 -9 -9 -7 2 -15 10 -17 17 -3 8 1 12 9 9 7 -2 15 -10 17 -17z"/>
<path d="M2465 4940 c-4 -6 -2 -17 5 -25 22 -26 -10 -27 -49 -1 -33 24 -71 34
-71 21 0 -30 97 -115 131 -115 15 0 17 6 12 35 -3 21 -1 41 7 50 7 8 10 22 6
30 -6 17 -32 20 -41 5z"/>
<path d="M1529 4919 c-8 -16 -8 -23 1 -29 15 -9 102 -22 108 -16 10 11 -11 44
-34 54 -37 18 -62 14 -75 -9z"/>
<path d="M1275 4914 c-16 -8 -38 -23 -48 -32 -17 -15 -17 -16 5 -29 30 -16 38
-16 38 0 0 26 20 35 55 24 26 -8 38 -7 50 3 21 17 19 25 -10 38 -34 16 -54 15
-90 -4z"/>
<path d="M1433 4918 c2 -7 10 -13 17 -13 7 0 15 6 18 13 2 7 -5 12 -18 12 -13
0 -20 -5 -17 -12z"/>
<path d="M1142 4891 c2 -7 7 -12 11 -12 12 1 9 15 -3 20 -7 2 -11 -2 -8 -8z"/>
<path d="M2250 4880 c0 -12 12 -26 32 -36 18 -9 55 -34 83 -55 27 -20 64 -41
80 -45 17 -4 43 -23 59 -42 16 -19 46 -42 65 -51 24 -11 36 -23 36 -36 0 -16
8 -21 38 -23 20 -2 37 -7 37 -12 0 -19 57 -74 126 -121 48 -32 74 -56 74 -68
0 -11 21 -34 51 -56 28 -20 58 -49 67 -65 10 -18 25 -30 38 -30 11 0 31 -11
44 -25 23 -25 50 -33 50 -16 0 16 -41 60 -91 97 -29 21 -58 52 -65 70 -8 18
-24 38 -36 45 -12 6 -59 47 -105 90 -46 43 -101 88 -123 99 -22 11 -40 27 -40
34 0 24 -50 76 -73 76 -37 0 -119 45 -181 99 -54 46 -131 91 -156 91 -5 0 -10
-9 -10 -20z"/>
<path d="M1694 4865 c6 -23 4 -25 -29 -25 -28 0 -35 -4 -35 -20 0 -20 18 -33
62 -44 23 -5 27 -2 37 26 6 17 18 40 27 49 22 24 10 39 -33 39 -33 0 -35 -2
-29 -25z"/>
<path d="M1798 4864 c-3 -2 -3 -16 0 -32 3 -25 18 -34 148 -95 144 -67 288
-117 300 -104 4 4 1 13 -6 21 -17 21 -129 83 -165 92 -17 4 -41 15 -55 24 -57
39 -212 105 -222 94z"/>
<path d="M1090 4850 c0 -5 5 -10 10 -10 6 0 10 5 10 10 0 6 -4 10 -10 10 -5 0
-10 -4 -10 -10z"/>
<path d="M1402 4841 c-56 -19 -92 -46 -92 -68 0 -20 38 -16 71 8 22 15 37 19
60 14 21 -5 44 -1 71 11 33 15 43 16 60 5 17 -11 19 -10 16 6 -8 43 -97 55
-186 24z"/>
<path d="M2526 4821 c-3 -4 6 -18 19 -31 21 -20 28 -22 50 -12 33 15 32 28 -6
41 -38 13 -56 14 -63 2z"/>
<path d="M1150 4784 c-6 -14 -14 -23 -19 -19 -5 3 -12 1 -16 -4 -3 -5 14 -14
37 -19 71 -15 105 18 53 52 -33 22 -44 20 -55 -10z"/>
<path d="M2620 4767 c0 -19 21 -37 42 -37 23 0 24 35 2 44 -26 10 -44 7 -44
-7z"/>
<path d="M1413 4746 c-37 -17 -40 -27 -17 -50 20 -21 53 -20 142 4 61 16 85
18 145 10 107 -14 157 -13 157 4 0 29 -30 34 -210 40 -152 6 -191 4 -217 -8z"/>
<path d="M956 4709 c-15 -9 -16 -13 -5 -20 12 -7 11 -14 -4 -40 -9 -17 -15
-35 -11 -40 9 -15 34 -10 41 9 4 9 19 32 35 50 16 18 26 37 23 43 -8 12 -56
11 -79 -2z"/>
<path d="M1255 4713 c-43 -11 -125 -45 -125 -52 0 -4 6 -15 13 -24 11 -15 18
-15 95 7 77 22 122 47 122 68 0 8 -71 9 -105 1z"/>
<path d="M1868 4712 c-30 -6 -20 -32 20 -49 20 -8 66 -32 102 -53 76 -45 139
-64 182 -55 27 6 28 8 13 25 -9 10 -36 23 -60 30 -24 7 -53 21 -64 31 -11 10
-28 19 -38 19 -10 0 -36 11 -59 23 -46 27 -72 35 -96 29z"/>
<path d="M2805 4710 c-3 -5 -1 -10 4 -10 6 0 11 5 11 10 0 6 -2 10 -4 10 -3 0
-8 -4 -11 -10z"/>
<path d="M2710 4687 c0 -28 17 -47 42 -47 21 0 25 39 6 58 -21 21 -48 14 -48
-11z"/>
<path d="M1583 4673 c-30 -6 -29 -19 1 -38 16 -11 45 -15 93 -14 67 2 71 0
228 -79 88 -44 184 -88 214 -99 30 -10 65 -31 80 -48 14 -17 48 -39 74 -49 55
-21 119 -66 192 -136 68 -65 145 -121 156 -114 14 8 -1 56 -25 83 -11 13 -36
30 -55 38 -19 8 -43 26 -54 39 -11 14 -59 52 -107 84 -49 33 -91 64 -95 70 -8
13 -72 40 -95 40 -10 0 -34 18 -53 41 -32 36 -41 41 -93 46 -50 5 -66 12 -103
44 -53 47 -123 74 -225 88 -79 11 -94 12 -133 4z"/>
<path d="M1021 4606 c-24 -24 -56 -47 -73 -50 -35 -7 -33 -30 4 -34 15 -2 36
6 54 21 16 14 44 28 62 32 40 8 74 52 51 66 -28 18 -56 8 -98 -35z"/>
<path d="M1380 4630 c-26 -11 -71 -19 -107 -19 -57 -1 -63 -3 -75 -28 -11 -21
-31 -32 -108 -58 -102 -33 -162 -64 -154 -77 11 -18 97 -7 176 23 76 28 90 31
169 26 47 -3 105 -3 128 0 40 6 42 7 39 37 -3 28 -7 31 -40 34 -30 3 -40 -1
-54 -23 l-16 -25 -25 25 c-42 41 -26 55 63 55 64 0 86 -5 138 -30 45 -21 91
-33 176 -45 154 -20 170 -24 170 -41 0 -19 -43 -18 -157 5 -88 17 -93 17 -93
1 0 -28 20 -37 99 -43 51 -4 83 -12 101 -25 19 -14 51 -21 125 -27 72 -5 106
-12 124 -26 36 -26 91 -36 91 -16 0 18 -15 30 -60 47 -19 7 -47 24 -62 38 -25
23 -32 24 -93 18 -68 -7 -89 6 -39 24 33 13 29 46 -5 42 -12 -1 -35 6 -49 17
-38 26 -82 38 -201 56 -62 9 -118 23 -138 35 -41 24 -63 24 -123 0z"/>
<path d="M2281 4631 c-25 -16 14 -58 90 -96 38 -20 79 -47 91 -60 12 -14 32
-25 45 -25 15 0 23 -6 23 -18 0 -10 18 -26 44 -40 64 -34 227 -203 235 -244 6
-27 12 -34 38 -38 26 -4 40 -17 73 -70 23 -36 58 -82 78 -103 43 -45 121 -101
129 -93 13 12 -25 75 -82 136 -33 36 -73 82 -89 103 -16 20 -34 37 -41 37 -7
0 -23 21 -36 48 -16 31 -39 57 -70 77 -25 17 -59 51 -74 76 -16 25 -45 55 -65
66 -19 12 -80 57 -135 101 -80 65 -153 111 -235 149 -3 2 -11 -1 -19 -6z"/>
<path d="M2790 4613 c0 -24 8 -32 68 -63 42 -22 74 -47 87 -67 11 -18 28 -32
37 -33 10 0 22 -9 28 -20 13 -25 30 -26 30 -2 0 10 -17 35 -37 54 -21 20 -55
54 -75 76 -36 40 -70 62 -115 76 -20 6 -23 4 -23 -21z"/>
<path d="M1460 4526 c0 -7 7 -19 15 -26 27 -23 4 -30 -96 -30 -55 0 -109 -5
-120 -10 -10 -6 -45 -15 -76 -21 -31 -6 -89 -23 -128 -39 -39 -15 -92 -31
-118 -35 -25 -4 -51 -13 -57 -20 -6 -8 -18 -11 -26 -8 -20 7 -64 -5 -64 -19 0
-13 30 -37 48 -38 7 0 26 10 42 21 24 18 36 20 75 14 43 -6 51 -4 86 24 26 21
49 31 72 31 19 0 79 12 133 26 55 14 143 32 198 39 75 10 103 18 119 34 12 11
19 22 16 23 -33 21 -91 48 -103 48 -9 0 -16 -6 -16 -14z"/>
<path d="M2240 4521 c0 -25 46 -63 103 -85 28 -10 71 -41 107 -77 33 -32 103
-93 155 -134 58 -47 97 -85 101 -100 5 -19 13 -25 34 -25 16 0 27 -5 26 -12
-3 -30 29 -86 60 -106 19 -12 45 -44 58 -71 14 -27 32 -51 40 -54 8 -3 38 -36
67 -72 49 -63 76 -84 127 -99 16 -5 22 -3 22 7 0 15 -116 150 -218 254 -28 29
-53 62 -57 72 -3 11 -26 36 -51 56 -24 20 -53 53 -63 73 -23 43 -83 103 -127
125 -17 9 -42 33 -57 55 -19 30 -35 41 -62 46 -25 5 -41 16 -55 38 -10 17 -36
38 -57 48 -22 10 -55 31 -75 49 -41 36 -78 41 -78 12z"/>
<path d="M785 4479 c-4 -5 -18 -14 -31 -19 -14 -6 -27 -18 -30 -27 -3 -10 -9
-25 -14 -34 -10 -20 -3 -29 21 -29 11 0 20 11 24 30 5 25 10 29 20 20 11 -9
17 -6 30 14 17 26 15 56 -4 56 -5 0 -13 -5 -16 -11z"/>
<path d="M855 4424 c-47 -27 -51 -48 -11 -52 63 -7 105 28 76 63 -15 18 -16
18 -65 -11z"/>
<path d="M1600 4392 c0 -31 29 -42 109 -42 51 0 98 -9 181 -35 61 -19 121 -35
133 -35 12 0 41 -18 65 -39 27 -25 49 -37 61 -34 10 2 31 -6 48 -21 17 -14 41
-26 54 -26 22 0 22 1 -7 31 -49 52 -171 127 -241 149 -36 11 -97 23 -137 27
-39 3 -80 12 -92 20 -11 7 -55 16 -97 19 -74 7 -77 6 -77 -14z"/>
<path d="M1330 4374 c-52 -13 -116 -24 -141 -24 -33 0 -51 -6 -64 -20 -9 -10
-41 -24 -69 -30 -56 -11 -138 -48 -224 -99 -29 -17 -63 -31 -76 -31 -12 0 -32
-11 -44 -25 -12 -14 -28 -25 -36 -25 -8 0 -16 -7 -19 -15 -4 -8 -25 -26 -49
-41 -62 -40 -98 -75 -98 -96 0 -32 20 -21 123 64 31 26 76 53 98 59 27 9 44
21 50 36 7 18 16 23 46 23 25 0 52 9 78 27 24 16 57 28 87 31 31 3 48 9 48 18
0 19 38 41 85 49 22 3 51 13 64 22 15 10 36 13 58 10 26 -5 42 -1 63 15 23 17
39 20 79 16 36 -4 51 -1 55 8 3 8 23 17 46 20 42 7 51 18 24 28 -29 11 -88 5
-184 -20z"/>
<path d="M1441 4318 c-13 -7 -24 -17 -25 -23 -1 -5 61 -15 144 -22 291 -24
446 -61 513 -122 23 -21 62 -48 86 -61 24 -12 59 -37 76 -56 32 -34 58 -43 70
-24 8 13 -93 110 -116 110 -10 0 -39 18 -64 40 -96 83 -280 152 -415 155 -47
1 -121 5 -165 9 -58 5 -86 4 -104 -6z"/>
<path d="M2170 4326 c0 -11 174 -155 239 -197 40 -27 85 -66 98 -87 14 -20 44
-53 68 -72 42 -36 64 -62 113 -138 27 -42 69 -79 78 -69 10 10 -40 120 -76
166 -22 27 -89 93 -150 146 -61 54 -115 106 -121 116 -5 11 -31 30 -57 44 -26
14 -69 41 -96 60 -40 29 -96 47 -96 31z"/>
<path d="M746 4275 c-3 -8 -21 -21 -41 -29 -34 -15 -46 -38 -25 -51 19 -12 80
15 80 35 0 10 5 22 10 25 14 9 12 22 -4 28 -8 3 -17 -1 -20 -8z"/>
<path d="M1260 4283 c-8 -3 -63 -27 -122 -54 -59 -27 -115 -49 -126 -49 -23 0
-46 -25 -37 -40 10 -16 52 -12 95 10 22 11 47 20 56 20 9 0 22 8 29 17 10 13
26 17 65 15 56 -2 114 23 154 67 l19 21 -59 -1 c-32 0 -66 -3 -74 -6z"/>
<path d="M1407 4226 c-22 -8 -49 -24 -61 -35 -16 -15 -36 -21 -67 -21 -48 0
-116 -27 -138 -53 -12 -15 -11 -17 12 -17 45 0 169 28 282 63 144 45 163 49
170 37 9 -15 51 -12 65 5 7 9 11 17 9 19 -2 3 -56 7 -119 10 -87 5 -124 3
-153 -8z"/>
<path d="M1730 4195 c-17 -20 -15 -21 70 -56 39 -16 83 -38 97 -49 15 -11 41
-20 62 -20 52 -1 95 -19 185 -78 43 -29 84 -52 90 -52 6 0 24 -16 40 -36 47
-59 126 -96 126 -59 0 23 -62 79 -133 119 -36 20 -80 51 -98 68 -35 35 -86 59
-134 62 -58 4 -96 19 -112 43 -39 59 -162 96 -193 58z"/>
<path d="M1910 4190 c0 -5 7 -10 15 -10 8 0 15 -6 15 -13 0 -8 11 -19 25 -25
34 -16 45 -15 45 1 0 21 -37 50 -54 44 -9 -4 -18 -2 -21 3 -8 13 -25 13 -25 0z"/>
<path d="M598 4159 c-21 -12 -24 -39 -4 -39 7 0 19 7 26 15 17 21 1 37 -22 24z"/>
<path d="M2274 4149 c-13 -21 9 -48 49 -62 33 -10 43 -19 45 -38 2 -15 15 -32
33 -43 16 -10 59 -53 95 -96 36 -44 80 -88 98 -99 29 -18 34 -28 40 -73 11
-81 36 -118 82 -118 37 0 -6 99 -103 235 -40 56 -74 95 -84 95 -10 0 -27 15
-38 34 -12 19 -43 51 -69 72 -26 20 -62 51 -79 68 -34 31 -59 40 -69 25z"/>
<path d="M1477 4139 c-21 -5 -52 -17 -70 -26 l-32 -18 95 -5 c111 -7 229 -4
238 4 10 11 -32 35 -81 45 -56 13 -97 13 -150 0z"/>
<path d="M855 4115 c-30 -29 -32 -55 -6 -55 11 0 44 10 75 21 49 19 54 24 45
40 -15 29 -83 26 -114 -6z"/>
<path d="M1058 4099 c-25 -14 -22 -29 5 -29 23 0 47 17 47 32 0 11 -31 9 -52
-3z"/>
<path d="M1743 4091 c-10 -15 -6 -21 23 -35 19 -9 48 -16 65 -16 16 0 46 -11
67 -24 20 -14 78 -39 127 -56 61 -21 99 -41 117 -61 26 -28 78 -41 78 -19 0
32 -75 78 -222 140 -43 17 -94 43 -114 57 -25 16 -45 22 -60 19 -12 -3 -33 -2
-46 3 -19 7 -27 5 -35 -8z"/>
<path d="M1302 4085 c-7 -8 -37 -22 -67 -30 -84 -25 -115 -65 -50 -65 41 0
129 32 156 56 27 24 25 54 -3 54 -13 -1 -29 -7 -36 -15z"/>
<path d="M2650 4080 c0 -28 33 -81 87 -141 34 -37 66 -83 73 -103 7 -23 22
-42 41 -52 16 -8 27 -19 24 -24 -10 -15 6 -38 46 -66 22 -15 42 -38 45 -51 4
-13 19 -30 34 -38 15 -8 35 -26 45 -41 10 -16 39 -50 64 -77 25 -27 60 -64 77
-83 18 -19 39 -34 48 -34 24 0 19 15 -9 28 -16 8 -25 20 -25 35 0 13 -9 32
-21 43 -12 10 -30 36 -41 57 -10 21 -51 68 -90 105 -39 37 -135 153 -215 259
-101 136 -150 193 -163 193 -11 0 -20 -5 -20 -10z"/>
<path d="M980 4054 c-25 -12 -66 -30 -92 -39 -35 -12 -48 -22 -48 -36 0 -29
44 -25 127 13 57 26 72 38 73 55 0 32 -10 34 -60 7z"/>
<path d="M1401 4047 c-52 -26 -37 -37 56 -37 98 -1 263 -14 307 -25 26 -7 27
-6 17 12 -19 36 -84 51 -256 58 -67 3 -108 1 -124 -8z"/>
<path d="M679 3999 c-42 -22 -96 -56 -119 -76 -42 -36 -100 -108 -100 -124 0
-18 57 15 105 60 28 27 60 51 72 55 12 4 24 17 27 30 4 16 15 25 38 30 35 7
68 32 68 53 0 19 -6 17 -91 -28z"/>
<path d="M3130 4001 c0 -12 6 -21 16 -21 9 0 14 7 12 17 -5 25 -28 28 -28 4z"/>
<path d="M1046 3981 c-9 -10 -35 -21 -57 -25 -22 -4 -74 -24 -116 -46 -41 -22
-80 -40 -87 -40 -7 0 -21 -10 -32 -21 -10 -12 -51 -43 -90 -70 -107 -72 -154
-137 -119 -163 14 -10 5 -23 -74 -103 -84 -85 -115 -134 -75 -119 9 3 22 6 30
6 8 0 23 15 34 33 11 17 43 50 71 72 28 22 58 53 68 68 15 26 15 29 -1 38 -10
6 -18 16 -18 22 0 19 68 80 135 122 33 21 74 50 90 65 17 15 41 30 55 33 14 4
55 24 92 47 37 22 78 40 91 40 31 0 73 33 63 48 -11 18 -41 14 -60 -7z"/>
<path d="M1815 3989 c-8 -13 -9 -12 40 -37 48 -24 115 -38 115 -25 0 12 -38
47 -67 62 -27 14 -80 14 -88 0z"/>
<path d="M2314 3988 c-4 -7 2 -18 16 -27 44 -31 77 -70 162 -197 47 -71 95
-138 107 -148 21 -19 21 -19 21 11 0 63 -58 153 -173 266 -61 59 -113 107
-118 107 -4 0 -11 -5 -15 -12z"/>
<path d="M770 3962 c-19 -9 -43 -32 -54 -51 l-20 -34 39 6 c42 7 95 51 95 79
0 23 -16 23 -60 0z"/>
<path d="M1255 3959 c-163 -35 -294 -85 -376 -144 -26 -19 -74 -47 -107 -64
-32 -16 -76 -49 -97 -73 -37 -40 -38 -43 -18 -46 29 -4 68 17 140 77 33 28 63
48 67 44 3 -3 6 -19 6 -34 0 -22 -6 -29 -30 -34 -39 -9 -80 -42 -80 -66 0 -10
3 -19 6 -19 19 0 93 54 102 75 8 17 20 25 36 25 46 0 155 40 173 64 26 33 56
46 102 46 22 0 84 10 138 21 92 21 105 21 223 9 69 -6 140 -18 159 -26 45 -19
58 -18 70 5 9 16 4 22 -37 42 -43 21 -64 24 -228 27 l-180 4 -186 -65 c-102
-36 -201 -68 -219 -72 -31 -7 -32 -6 -19 9 19 24 96 62 198 97 48 17 102 39
120 50 21 12 42 16 62 13 34 -7 80 17 80 41 0 18 7 18 -105 -6z"/>
<path d="M1428 3964 c-5 -4 -8 -11 -8 -14 0 -15 91 -30 177 -30 70 0 95 -4
121 -20 18 -11 42 -20 55 -20 12 0 49 -12 82 -26 33 -14 78 -31 100 -37 21 -6
54 -25 71 -43 18 -17 50 -38 71 -45 20 -6 45 -22 55 -35 10 -12 37 -33 60 -47
24 -14 66 -51 95 -81 37 -40 60 -56 78 -56 36 0 31 17 -18 64 -123 118 -289
239 -347 253 -14 3 -35 15 -48 26 -23 21 -85 48 -112 49 -8 0 -30 12 -48 25
-24 18 -50 26 -95 29 -65 5 -145 7 -174 4 -10 -1 -38 1 -63 5 -25 4 -48 3 -52
-1z"/>
<path d="M1990 3911 c0 -12 86 -81 128 -103 47 -24 105 -25 100 -1 -2 9 -17
21 -33 27 -17 6 -46 23 -65 38 -53 40 -130 64 -130 39z"/>
<path d="M594 3841 c-43 -31 -84 -91 -63 -91 41 0 149 83 149 114 0 16 -52 3
-86 -23z"/>
<path d="M2240 3852 c0 -13 71 -76 136 -121 54 -37 121 -121 97 -121 -5 0 -47
33 -94 73 -80 69 -143 107 -155 94 -8 -8 78 -90 109 -104 14 -6 37 -34 52 -61
18 -33 49 -66 91 -98 35 -27 64 -54 64 -62 0 -24 30 -72 46 -72 21 0 28 25 13
52 -7 13 -34 47 -61 76 -26 30 -48 60 -48 68 0 21 17 17 23 -6 10 -38 30 -23
24 19 -14 107 -103 197 -247 252 -28 10 -50 15 -50 11z"/>
<path d="M1826 3804 c-24 -24 -15 -39 27 -42 28 -2 41 -10 54 -32 12 -21 27
-31 54 -35 21 -4 44 -14 51 -23 7 -8 53 -42 101 -74 85 -55 147 -102 147 -111
0 -2 -13 -2 -28 1 -18 2 -33 -2 -41 -12 -12 -14 -24 -7 -100 67 -93 90 -162
134 -256 165 -96 31 -115 34 -115 18 0 -21 50 -60 106 -81 64 -24 92 -42 99
-66 4 -12 16 -19 33 -19 15 -1 39 -6 53 -13 40 -18 149 -122 149 -141 0 -9 18
-36 40 -59 41 -42 70 -89 70 -113 0 -7 9 -18 21 -24 19 -11 41 -53 95 -179 19
-46 52 -75 79 -69 24 5 -48 145 -161 313 -52 78 -94 146 -94 153 0 7 9 12 20
12 11 0 20 -4 20 -9 0 -4 29 -51 64 -103 68 -100 121 -198 156 -288 12 -30 30
-62 42 -71 11 -9 32 -40 47 -70 18 -38 33 -55 48 -57 20 -3 21 -1 13 29 -5 18
-21 44 -34 58 -14 15 -32 46 -41 71 -9 25 -43 90 -75 145 -33 56 -63 116 -66
134 -4 20 -20 43 -40 59 -19 15 -34 31 -34 36 0 6 -12 27 -26 48 -29 42 -26
62 5 34 11 -10 29 -16 42 -14 21 3 20 6 -19 55 -30 37 -60 60 -108 84 -36 18
-73 44 -82 57 -9 14 -30 31 -48 38 -17 7 -56 34 -85 59 -87 75 -153 100 -183
69z"/>
<path d="M3160 3811 c0 -6 9 -15 21 -21 18 -10 20 -9 17 7 -3 19 -38 32 -38
14z"/>
<path d="M1380 3785 c0 -9 7 -18 15 -20 8 -3 22 -7 31 -10 27 -9 14 -13 -76
-25 -97 -13 -146 -33 -156 -62 -3 -11 -4 -21 -2 -23 2 -2 28 5 58 15 30 11 72
19 92 20 20 0 54 10 75 22 31 19 57 24 157 28 132 6 156 18 89 46 -29 13 -48
15 -83 8 -32 -7 -52 -6 -70 3 -37 19 -130 17 -130 -2z"/>
<path d="M1225 3775 c-85 -16 -120 -29 -162 -61 -17 -13 -45 -24 -61 -24 -21
0 -35 -8 -47 -26 -14 -21 -22 -25 -46 -20 -19 3 -29 1 -29 -6 0 -7 -12 -22
-27 -35 -38 -30 -16 -47 34 -27 19 8 38 12 43 9 5 -3 14 3 19 14 11 19 111 81
132 81 6 0 37 16 70 36 43 27 65 35 84 30 31 -8 110 11 126 30 9 12 5 14 -27
13 -22 0 -70 -7 -109 -14z"/>
<path d="M2764 3745 c-3 -8 -1 -29 5 -46 6 -18 11 -42 11 -54 0 -15 8 -25 21
-28 11 -3 23 -15 26 -26 3 -13 14 -21 27 -21 30 -1 59 -27 91 -82 19 -35 33
-48 49 -48 23 0 76 -47 76 -69 0 -22 32 -76 68 -113 52 -55 68 -49 37 12 -14
27 -25 58 -25 69 0 11 -14 27 -34 39 -20 12 -45 39 -57 63 -12 24 -67 91 -123
149 -56 58 -108 120 -115 138 -14 34 -47 44 -57 17z"/>
<path d="M472 3734 c-28 -19 -30 -64 -4 -64 20 0 52 29 52 47 0 24 -26 33 -48
17z"/>
<path d="M1472 3685 c-77 -21 -117 -44 -103 -58 8 -8 37 -7 114 6 129 22 149
21 189 -3 18 -11 39 -20 47 -20 15 0 40 28 41 45 0 6 -42 16 -92 23 -51 7
-104 15 -118 17 -14 3 -49 -2 -78 -10z"/>
<path d="M3130 3652 c0 -13 24 -39 43 -45 20 -7 24 22 5 41 -14 14 -48 16 -48
4z"/>
<path d="M1076 3629 c-33 -26 -33 -39 2 -39 30 0 92 34 92 50 0 18 -67 11 -94
-11z"/>
<path d="M1217 3606 c-39 -13 -80 -35 -95 -50 l-27 -28 45 7 c70 10 105 24
130 50 37 39 21 46 -53 21z"/>
<path d="M448 3588 c-43 -34 -42 -56 1 -34 36 19 57 44 45 56 -5 5 -24 -4 -46
-22z"/>
<path d="M1468 3600 c-61 -10 -118 -34 -118 -50 0 -15 46 -12 85 4 20 9 49 12
69 9 18 -3 49 0 68 6 28 9 40 8 65 -4 47 -24 147 -38 208 -30 30 3 55 9 55 13
0 10 -65 50 -92 57 -16 4 -32 0 -49 -14 l-24 -19 -23 21 c-22 20 -24 21 -33 4
-7 -12 -15 -15 -27 -8 -27 15 -123 20 -184 11z"/>
<path d="M666 3573 c-14 -15 -26 -31 -26 -35 0 -5 -18 -15 -40 -24 -22 -9 -49
-28 -61 -42 -17 -23 -18 -27 -5 -40 13 -13 18 -11 42 17 14 17 55 52 91 78 35
25 62 50 60 57 -7 22 -35 17 -61 -11z"/>
<path d="M2736 3582 c-8 -13 32 -72 48 -72 8 0 31 -21 51 -47 19 -26 63 -71
96 -101 65 -60 90 -98 91 -144 1 -21 7 -32 24 -38 13 -5 30 -22 38 -37 8 -15
30 -44 50 -62 22 -21 36 -45 36 -59 0 -28 17 -62 30 -62 15 0 12 57 -5 90 -8
15 -25 37 -38 47 -12 10 -41 56 -63 103 -23 47 -65 113 -95 147 -30 34 -68 82
-84 105 -29 40 -145 138 -165 138 -5 0 -11 -4 -14 -8z"/>
<path d="M2650 3574 c0 -29 81 -143 162 -229 54 -58 98 -109 98 -115 0 -28 46
-102 71 -115 15 -8 30 -15 34 -15 14 0 2 47 -20 76 -14 18 -25 38 -25 44 0 6
-21 32 -46 58 -25 26 -73 83 -106 127 -88 116 -168 196 -168 169z"/>
<path d="M913 3555 c-28 -12 -52 -49 -40 -61 18 -18 135 33 145 64 5 17 -64
15 -105 -3z"/>
<path d="M1285 3560 c-11 -4 -28 -17 -39 -28 -10 -12 -42 -26 -75 -33 -41 -8
-67 -21 -96 -48 -22 -20 -66 -51 -97 -70 -58 -32 -118 -85 -118 -102 0 -5 -17
-17 -38 -28 -22 -11 -46 -35 -60 -60 -13 -23 -30 -41 -38 -41 -22 0 -98 -80
-86 -92 6 -6 20 -4 40 6 17 9 37 16 44 16 8 0 22 13 31 29 10 17 47 56 84 88
37 32 93 84 125 116 32 31 68 57 79 57 11 0 23 10 28 23 13 34 47 59 74 55 14
-1 33 4 44 13 10 9 42 24 71 34 44 14 72 37 72 58 0 10 -26 14 -45 7z"/>
<path d="M770 3548 c0 -6 -3 -9 -6 -5 -9 9 -101 -51 -124 -80 -28 -36 -26 -63
5 -63 18 0 32 11 51 40 15 23 35 40 45 40 11 0 21 10 25 24 3 13 14 26 25 29
25 7 25 27 -1 27 -11 0 -20 -5 -20 -12z"/>
<path d="M356 3519 c-44 -35 -33 -78 15 -54 28 15 45 47 34 65 -9 15 -19 12
-49 -11z"/>
<path d="M2600 3518 c0 -44 57 -114 77 -95 14 15 -46 117 -69 117 -4 0 -8 -10
-8 -22z"/>
<path d="M1008 3510 c-20 -11 -47 -34 -59 -51 l-23 -32 33 6 c19 4 37 7 41 7
16 0 60 51 60 70 0 24 -5 24 -52 0z"/>
<path d="M1425 3509 c-89 -12 -93 -13 -97 -41 -2 -19 -8 -22 -30 -20 -15 2
-38 -4 -50 -12 -12 -9 -33 -16 -46 -16 -21 0 -41 -24 -29 -36 7 -8 189 45 217
63 19 13 47 16 130 14 57 -1 109 -6 115 -11 5 -4 37 -13 70 -20 84 -17 156
-46 204 -80 35 -26 44 -28 61 -18 14 9 22 10 31 1 8 -8 6 -13 -10 -18 -12 -3
-21 -10 -21 -15 0 -5 26 -33 58 -64 35 -33 82 -96 122 -162 36 -60 84 -134
108 -166 23 -32 42 -67 42 -78 0 -29 38 -125 61 -153 12 -16 15 -28 9 -32 -5
-3 -10 -9 -10 -13 0 -11 52 -32 63 -25 18 11 0 87 -27 110 -19 16 -26 32 -26
60 0 29 -23 76 -107 221 -59 101 -143 231 -186 288 -78 104 -79 105 -113 98
-27 -5 -33 -3 -29 8 4 9 -4 20 -20 28 -14 8 -24 21 -23 29 14 74 211 -81 276
-216 9 -19 23 -33 34 -33 12 0 18 -7 18 -22 0 -21 14 -47 87 -167 13 -20 23
-48 23 -62 0 -15 7 -32 16 -39 29 -25 63 -95 94 -195 17 -55 41 -124 52 -153
21 -53 21 -53 41 -34 19 19 19 22 3 68 -9 26 -16 63 -16 81 0 54 -185 407
-316 603 -105 157 -116 170 -148 170 -14 0 -26 5 -26 10 0 6 -11 22 -25 35
-34 35 -108 35 -159 0 l-37 -25 -67 20 c-79 25 -217 33 -317 19z"/>
<path d="M2410 3469 c0 -12 13 -37 30 -55 16 -19 55 -78 87 -131 31 -54 74
-116 95 -139 21 -23 38 -49 38 -58 0 -9 7 -16 15 -16 27 0 16 45 -19 79 -22
22 -45 61 -65 116 -38 101 -82 168 -130 201 -44 29 -51 30 -51 3z"/>
<path d="M782 3458 c-20 -20 -14 -30 15 -26 32 4 46 38 16 38 -11 0 -24 -5
-31 -12z"/>
<path d="M2365 3408 c11 -36 73 -146 116 -207 21 -30 39 -63 39 -74 0 -11 16
-37 35 -58 19 -22 35 -47 35 -58 0 -10 7 -24 16 -32 20 -17 44 -63 44 -87 0
-11 11 -31 25 -46 14 -15 25 -34 25 -42 0 -8 7 -17 15 -20 8 -4 15 -19 15 -35
0 -40 45 -158 69 -183 l21 -20 0 22 c0 55 -33 163 -65 212 -26 40 -32 57 -25
71 8 13 1 28 -28 66 -47 58 -62 86 -62 110 0 10 -16 28 -36 41 -27 18 -35 28
-31 44 4 13 -3 33 -17 52 -13 17 -40 63 -60 103 -37 74 -84 136 -118 154 -18
10 -19 8 -13 -13z"/>
<path d="M676 3369 c-26 -28 -67 -65 -91 -80 -41 -26 -67 -70 -52 -86 13 -12
94 48 131 96 21 29 50 61 64 72 23 18 24 21 10 35 -13 14 -20 10 -62 -37z"/>
<path d="M855 3409 c-11 -6 -29 -21 -40 -34 -11 -12 -62 -57 -112 -99 -99 -81
-129 -117 -119 -141 6 -18 46 -20 46 -3 0 13 60 110 75 120 5 4 20 8 32 8 12
0 35 12 51 28 16 15 48 42 71 61 53 42 50 89 -4 60z"/>
<path d="M1402 3405 c-18 -8 -31 -19 -28 -23 3 -5 56 -12 118 -15 105 -5 232
-25 304 -48 20 -6 36 -21 47 -44 16 -34 52 -53 81 -42 10 4 17 -7 25 -38 11
-43 61 -114 120 -169 19 -19 31 -40 31 -56 0 -15 10 -36 24 -49 13 -12 29 -42
35 -67 6 -24 25 -59 41 -78 49 -55 84 -162 100 -303 4 -40 13 -80 20 -88 18
-21 48 -18 55 5 14 46 -22 183 -61 230 -15 17 -20 31 -14 35 5 3 10 13 10 22
0 30 -131 288 -174 343 -24 30 -53 73 -64 95 -28 54 -53 82 -142 156 -41 35
-81 69 -87 75 -7 7 -27 15 -45 19 -18 4 -64 18 -101 31 -73 26 -136 31 -154
13 -8 -8 -17 -8 -31 0 -28 15 -70 13 -110 -4z"/>
<path d="M585 3391 c-28 -12 -52 -41 -60 -73 -5 -19 -3 -28 5 -28 20 0 80 67
80 89 0 12 -1 21 -2 20 -2 0 -12 -4 -23 -8z"/>
<path d="M2700 3370 c0 -38 22 -82 53 -107 13 -10 36 -42 53 -72 27 -51 88
-121 104 -121 29 0 7 84 -25 96 -16 6 -125 154 -146 198 -20 42 -39 45 -39 6z"/>
<path d="M453 3370 c-36 -22 -80 -78 -106 -136 -10 -22 -31 -47 -47 -56 -27
-15 -43 -58 -22 -58 18 0 52 33 52 51 0 11 8 22 18 26 40 15 77 50 118 114 24
37 44 70 44 73 0 12 -26 5 -57 -14z"/>
<path d="M1110 3350 c0 -36 26 -41 39 -7 6 16 4 24 -8 29 -27 11 -31 9 -31
-22z"/>
<path d="M1240 3354 c-19 -14 -61 -39 -93 -56 -60 -32 -127 -97 -127 -123 0
-8 3 -15 6 -15 14 0 52 26 91 61 26 24 52 39 68 39 17 0 28 7 34 23 6 15 23
26 54 34 42 12 64 34 51 54 -10 16 -48 9 -84 -17z"/>
<path d="M318 3342 c-33 -32 -38 -72 -9 -72 25 0 61 45 61 76 0 31 -18 30 -52
-4z"/>
<path d="M2607 3364 c-10 -10 42 -126 73 -162 26 -30 74 -101 142 -206 4 -6 9
-23 13 -38 3 -15 19 -43 35 -62 17 -18 30 -39 30 -45 0 -15 46 -61 61 -61 18
0 2 46 -46 129 -24 42 -54 98 -65 124 -13 29 -31 52 -44 57 -13 5 -26 19 -29
32 -4 13 -29 59 -57 103 -27 43 -50 85 -50 92 0 14 -54 46 -63 37z"/>
<path d="M1030 3309 c-19 -12 -53 -40 -76 -63 -22 -22 -64 -60 -92 -84 -63
-53 -124 -172 -88 -172 24 0 46 29 46 61 0 19 5 29 15 29 9 0 21 11 27 25 6
14 30 35 54 46 23 12 45 30 47 40 3 10 20 27 38 36 44 24 89 68 89 87 0 22
-18 20 -60 -5z"/>
<path d="M1389 3312 c-80 -23 -89 -28 -89 -53 0 -23 2 -23 65 -3 31 10 86 16
147 16 73 0 100 3 109 14 21 26 -6 39 -89 41 -51 2 -99 -3 -143 -15z"/>
<path d="M1645 3299 c-9 -26 -4 -31 53 -49 28 -9 48 -22 50 -32 3 -15 -3 -15
-70 3 -98 25 -182 28 -206 6 -13 -12 -28 -15 -50 -11 -25 5 -32 3 -32 -9 0
-29 35 -39 98 -27 46 9 75 9 147 -4 50 -9 107 -16 128 -16 34 0 45 -7 91 -55
39 -41 59 -55 80 -55 24 0 26 3 21 23 -22 71 -108 153 -227 213 -37 19 -70 34
-72 34 -3 0 -8 -9 -11 -21z m155 -85 c0 -8 -4 -12 -10 -9 -5 3 -10 10 -10 16
0 5 5 9 10 9 6 0 10 -7 10 -16z"/>
<path d="M394 3179 c-38 -44 -78 -99 -89 -123 -11 -24 -32 -51 -48 -59 -31
-18 -55 -63 -41 -76 18 -18 55 9 75 54 11 25 33 55 50 67 16 13 34 39 41 60 6
21 19 40 29 43 21 7 79 74 79 91 0 35 -33 15 -96 -57z"/>
<path d="M1217 3230 c-15 -5 -43 -22 -62 -38 -18 -17 -40 -34 -47 -39 -8 -4
-25 -24 -38 -43 -13 -19 -43 -53 -66 -76 -22 -22 -58 -71 -79 -108 -37 -67
-47 -71 -59 -29 -5 16 0 29 15 44 13 13 24 34 25 47 5 43 54 96 109 115 11 4
-23 47 -37 47 -17 0 -88 -83 -128 -153 -52 -88 -95 -144 -122 -158 -18 -10
-19 -9 -7 13 6 13 23 36 35 51 27 32 30 47 13 64 -16 16 -71 -25 -64 -47 3
-10 -8 -33 -25 -55 -17 -21 -30 -50 -30 -65 0 -15 -9 -35 -19 -44 -22 -20 -55
-94 -66 -146 l-7 -35 27 25 c31 28 60 87 70 142 4 20 14 39 23 42 10 3 23 9
30 12 22 10 13 -40 -16 -87 -41 -65 -45 -79 -21 -79 12 0 28 14 40 35 12 19
25 35 29 35 5 0 2 -16 -6 -35 -13 -33 -13 -35 4 -35 28 0 54 34 62 82 10 51 6
57 -21 39 -29 -17 -31 -11 -14 39 18 51 32 70 52 70 12 0 12 -3 -1 -22 -34
-48 -10 -85 30 -47 13 12 26 21 28 18 2 -2 -14 -49 -35 -104 -21 -55 -38 -112
-39 -127 0 -18 -7 -29 -20 -33 -11 -3 -20 -15 -20 -25 0 -10 -9 -34 -20 -52
-12 -21 -16 -38 -11 -47 13 -20 39 -6 52 26 6 15 17 41 25 56 8 16 14 37 14
48 0 11 14 43 30 72 17 30 30 63 30 76 0 12 11 39 25 60 13 22 33 64 43 95 11
31 35 73 58 98 21 24 70 83 108 131 61 76 75 89 113 98 45 12 69 31 58 49 -7
12 -28 12 -68 0z"/>
<path d="M1304 3176 c-18 -12 -46 -29 -63 -38 -19 -11 -31 -25 -31 -38 0 -13
-7 -20 -19 -20 -10 0 -29 -8 -42 -19 -19 -15 -21 -21 -11 -33 13 -16 7 -28
-15 -28 -7 0 -36 -23 -64 -51 -40 -40 -50 -56 -46 -76 3 -18 -5 -36 -33 -68
-29 -33 -36 -50 -33 -69 4 -19 1 -26 -11 -26 -10 0 -16 -9 -16 -24 0 -14 -12
-38 -26 -56 -18 -20 -31 -54 -39 -98 -8 -42 -26 -88 -46 -121 -22 -36 -33 -64
-32 -88 1 -20 -5 -43 -13 -50 -19 -19 -19 -73 0 -73 27 0 46 30 46 74 0 28 7
52 19 68 12 14 18 33 15 45 -3 11 1 25 10 32 9 8 19 31 22 53 4 21 14 43 24
48 11 6 15 18 12 38 -2 18 2 33 12 41 9 8 16 23 16 36 0 14 9 26 25 33 21 10
25 18 25 57 0 42 2 46 40 65 23 12 40 28 40 38 0 58 92 185 159 222 12 6 21
19 21 29 0 12 9 21 24 25 27 7 106 56 106 66 0 4 -10 11 -22 17 -18 7 -30 5
-54 -11z"/>
<path d="M490 3166 c0 -17 -10 -30 -35 -45 -21 -12 -45 -40 -62 -73 -16 -29
-47 -71 -70 -93 -52 -50 -114 -195 -83 -195 18 0 30 19 30 47 0 9 44 68 98
132 130 153 181 229 161 242 -24 15 -39 10 -39 -15z"/>
<path d="M1442 3121 c-23 -16 -64 -35 -91 -42 -31 -8 -53 -20 -58 -32 -5 -11
-36 -38 -68 -61 -55 -38 -89 -86 -73 -102 4 -3 20 -3 36 1 22 4 31 13 35 34 4
19 19 37 42 51 19 12 40 31 46 42 6 12 17 17 26 14 8 -4 41 6 72 21 48 24 71
29 157 31 l101 4 92 -63 c88 -61 94 -67 153 -168 33 -58 73 -118 88 -133 19
-18 26 -34 23 -50 -6 -32 36 -140 103 -267 40 -76 57 -121 63 -165 5 -34 11
-69 15 -78 5 -11 1 -20 -13 -28 -15 -8 -20 -17 -16 -33 4 -15 -6 -40 -29 -76
-38 -59 -50 -64 -153 -64 -44 0 -61 6 -107 36 -38 25 -58 46 -62 64 -4 16 -22
57 -40 92 -19 35 -34 75 -34 88 0 12 -4 23 -10 23 -14 0 -42 58 -38 81 3 18 5
18 31 -6 15 -14 27 -36 27 -49 0 -47 59 -142 136 -219 l77 -76 54 1 c31 1 58
7 64 15 7 7 17 13 25 13 15 0 20 28 29 149 l7 83 -66 132 c-35 72 -97 210
-136 306 -40 96 -79 180 -87 185 -46 30 -78 64 -95 101 -18 42 -19 42 -90 54
-94 16 -187 8 -231 -19 -19 -11 -37 -18 -40 -15 -7 7 -69 -29 -87 -51 -10 -11
-9 -18 4 -30 9 -9 16 -25 16 -36 0 -26 6 -24 57 20 62 55 156 85 207 65 25
-10 19 -34 -8 -34 -14 0 -28 -4 -31 -10 -3 -5 -23 -10 -43 -10 -55 0 -135 -37
-154 -71 -10 -17 -25 -29 -37 -29 -11 0 -26 -11 -33 -24 -125 -230 -176 -383
-185 -556 -2 -52 -14 -132 -25 -177 -19 -74 -20 -91 -9 -171 6 -48 11 -115 11
-148 0 -44 6 -70 25 -103 29 -51 29 -51 10 -51 -18 0 -18 -2 -5 -32 5 -13 14
-42 20 -66 11 -43 40 -82 61 -82 17 0 4 68 -28 140 -20 48 -23 64 -14 70 10 6
9 23 -4 86 -10 44 -19 131 -21 194 -2 73 -7 116 -14 118 -7 3 -3 10 8 18 16
11 20 29 25 101 3 48 17 138 31 198 15 61 29 136 33 167 4 45 11 61 28 72 13
8 41 54 64 101 29 61 49 91 71 103 22 12 30 25 30 44 0 32 13 42 38 29 11 -6
31 -6 53 -1 124 33 129 33 154 22 21 -10 25 -9 25 3 0 8 7 15 15 15 21 0 19 9
-7 30 -13 10 -20 22 -15 26 4 4 20 -5 35 -19 16 -15 40 -27 54 -27 19 0 27 -6
30 -25 6 -29 1 -30 -26 -10 -26 19 -56 19 -56 0 0 -25 38 -55 71 -55 25 0 29
-3 24 -19 -4 -14 3 -24 30 -39 19 -12 35 -26 35 -32 0 -6 17 -37 39 -68 53
-80 71 -117 71 -149 -1 -28 -1 -28 -20 8 -23 44 -74 89 -101 89 -29 0 -26 -47
4 -61 13 -6 32 -25 42 -41 10 -17 58 -73 106 -124 l89 -93 -6 -78 c-4 -43 -11
-86 -16 -95 -6 -13 -5 -18 7 -18 8 0 15 -4 15 -10 0 -15 -74 -12 -96 4 -17 13
-21 13 -37 -7 l-19 -22 6 28 c6 24 2 30 -29 48 -20 12 -43 35 -52 53 -9 17
-29 46 -44 64 -25 28 -39 72 -24 72 12 0 75 -70 75 -83 0 -16 31 -47 48 -47 6
0 14 -9 17 -21 8 -25 62 -59 93 -59 20 0 22 4 17 23 -14 46 -38 69 -99 97 -46
20 -65 35 -69 51 -16 60 -156 177 -197 164 -11 -4 -37 -26 -57 -51 -21 -24
-40 -44 -44 -44 -3 0 -6 17 -5 39 0 26 5 37 13 34 6 -3 19 9 27 25 18 36 44
46 88 37 68 -15 107 -42 151 -101 41 -56 142 -155 180 -175 15 -8 17 -5 17 27
0 30 -7 43 -37 68 -20 17 -57 53 -82 80 -25 27 -75 80 -110 118 -35 37 -83 77
-106 88 -46 22 -143 27 -177 9 -21 -11 -21 -12 -3 -25 18 -13 17 -14 -7 -14
-29 0 -58 -23 -58 -45 0 -8 -11 -39 -24 -69 -24 -55 -29 -77 -27 -128 1 -21 6
-28 21 -28 27 0 42 42 34 95 -5 36 -3 44 18 57 13 8 33 36 46 61 31 61 93 108
73 55 -6 -16 -4 -33 6 -52 14 -27 14 -28 -3 -22 -35 14 -39 11 -71 -53 -35
-68 -41 -116 -20 -145 12 -17 15 -16 45 9 l32 27 0 -31 c0 -37 17 -41 30 -6 5
14 14 25 19 25 15 0 37 -49 45 -99 8 -54 59 -153 98 -189 157 -149 162 -153
193 -146 80 16 105 26 105 40 0 12 -6 15 -25 10 -19 -5 -25 -2 -25 10 0 14 6
15 38 9 73 -14 71 -15 103 65 56 141 69 238 37 278 -8 9 -5 12 10 12 29 0 36
44 23 145 -12 97 -40 180 -118 350 -33 72 -65 142 -71 157 -6 15 -22 30 -36
34 -17 4 -22 11 -19 25 7 24 -21 36 -42 19 -19 -15 -12 -43 21 -87 13 -17 29
-44 34 -59 6 -15 35 -71 66 -125 31 -55 63 -129 73 -171 11 -40 27 -91 35
-113 17 -44 20 -113 7 -133 -6 -10 -10 -4 -15 19 -3 18 -26 75 -50 128 -24 53
-46 109 -50 126 -4 16 -16 48 -27 72 -10 23 -19 45 -19 49 0 4 -17 35 -38 68
-21 34 -61 99 -88 145 -87 148 -169 200 -297 188 -34 -3 -69 -8 -78 -12 -8 -3
-26 3 -39 15 -13 11 -23 20 -24 20 -1 0 -20 -13 -44 -29z"/>
<path d="M546 3101 c-11 -12 -16 -27 -12 -37 6 -15 9 -15 29 -1 23 15 30 48
11 54 -6 2 -19 -5 -28 -16z"/>
<path d="M226 3093 c-11 -11 -6 -23 9 -23 8 0 15 4 15 9 0 13 -16 22 -24 14z"/>
<path d="M3031 3038 c22 -57 67 -128 80 -128 5 0 6 -6 3 -14 -6 -16 21 -46 42
-46 30 0 3 80 -47 137 -17 20 -38 51 -47 69 -9 20 -23 34 -34 34 -17 0 -17 -3
3 -52z"/>
<path d="M2920 3038 c0 -37 45 -122 84 -162 63 -62 72 -45 27 50 -28 60 -85
134 -102 134 -5 0 -9 -10 -9 -22z"/>
<path d="M406 2908 c-49 -79 -113 -174 -142 -213 -36 -49 -54 -83 -59 -115
l-7 -45 30 30 c40 40 162 216 162 234 0 8 7 22 16 32 8 9 16 26 17 38 1 13 12
24 29 30 44 15 94 133 62 145 -9 3 -16 6 -17 6 -1 0 -42 -64 -91 -142z"/>
<path d="M580 3000 c0 -35 23 -41 40 -11 16 31 12 41 -15 41 -21 0 -25 -5 -25
-30z"/>
<path d="M680 3023 c-19 -7 -30 -24 -24 -35 9 -15 51 -8 67 10 25 27 0 41 -43
25z"/>
<path d="M2729 2957 c20 -40 45 -95 55 -121 11 -27 31 -63 46 -80 15 -17 37
-54 50 -83 12 -28 37 -65 56 -82 24 -22 34 -40 34 -61 0 -36 13 -72 35 -93 41
-42 46 -6 10 71 -14 30 -25 66 -25 81 0 20 -7 29 -30 38 -46 17 -84 117 -40
106 11 -3 20 -1 20 3 0 20 -17 29 -50 29 -32 0 -35 2 -35 30 -1 17 -10 44 -22
60 -11 17 -35 58 -52 92 -28 56 -53 83 -79 83 -4 0 8 -33 27 -73z"/>
<path d="M629 2945 c-28 -15 -49 -60 -49 -103 0 -13 -25 -60 -56 -105 -31 -44
-68 -105 -82 -136 -14 -31 -36 -64 -48 -73 -11 -10 -27 -31 -34 -47 -7 -17
-21 -33 -31 -36 -12 -4 -19 -16 -19 -30 0 -13 -11 -41 -25 -61 -26 -39 -32
-64 -15 -64 20 0 59 48 86 104 14 30 37 66 51 80 14 14 22 29 19 35 -3 5 6 23
20 40 14 17 24 38 21 46 -4 8 2 16 14 20 31 10 59 45 90 113 15 34 39 73 52
86 14 14 27 38 31 55 3 17 9 45 12 61 7 33 1 36 -37 15z"/>
<path d="M487 2858 c-32 -51 -65 -114 -74 -140 -10 -28 -26 -51 -39 -57 -13
-5 -31 -29 -42 -53 -11 -24 -41 -68 -66 -98 -25 -30 -50 -67 -55 -82 -9 -25
-7 -28 10 -28 13 0 25 11 34 33 8 19 22 40 31 48 38 32 132 165 133 190 1 8
17 31 37 50 36 34 99 152 106 198 7 49 -19 28 -75 -61z"/>
<path d="M2470 2920 c0 -12 9 -38 20 -60 11 -22 25 -63 31 -92 6 -29 17 -60
25 -69 8 -8 14 -25 14 -36 0 -11 9 -32 20 -46 11 -14 17 -32 14 -41 -3 -9 1
-34 10 -56 12 -29 16 -73 16 -158 0 -87 4 -123 15 -139 13 -18 12 -22 -5 -38
-17 -16 -19 -26 -14 -68 6 -42 4 -52 -12 -64 -16 -12 -17 -16 -6 -34 11 -18
11 -24 -3 -39 -9 -10 -29 -67 -45 -126 -35 -136 -43 -154 -69 -178 -20 -18
-30 -66 -13 -66 15 0 70 65 91 107 12 24 37 100 55 170 19 71 39 141 45 156 6
16 11 65 11 110 1 45 6 109 13 142 12 58 12 61 -16 113 -23 43 -27 55 -17 68
22 25 -86 358 -140 434 -25 35 -40 38 -40 10z"/>
<path d="M1196 2800 c-59 -91 -85 -147 -86 -188 0 -13 -15 -35 -34 -53 -39
-33 -65 -94 -48 -111 13 -13 32 -2 32 18 0 8 5 14 11 14 13 0 4 -58 -16 -107
-19 -45 -33 -41 -37 9 -3 38 -28 69 -28 34 0 -9 -9 -30 -20 -48 -11 -18 -20
-44 -20 -57 0 -20 3 -22 23 -16 12 5 38 8 59 9 47 0 58 23 93 186 23 110 42
161 78 213 10 14 9 19 -3 27 -16 10 -15 12 22 28 34 14 57 48 60 92 5 63 -23
47 -86 -50z"/>
<path d="M1110 2855 c-7 -9 -10 -27 -7 -43 5 -24 2 -30 -23 -39 -36 -13 -63
-56 -63 -96 0 -18 -7 -41 -17 -52 -17 -20 -43 -96 -35 -103 13 -13 39 15 61
65 14 32 35 68 46 80 15 16 17 25 10 40 -9 16 -5 24 24 47 42 33 58 69 44 97
-13 23 -23 24 -40 4z"/>
<path d="M3176 2821 c-3 -5 1 -12 10 -15 20 -8 29 -1 19 13 -8 13 -22 14 -29
2z"/>
<path d="M1521 2810 c-13 -6 -37 -21 -53 -35 -16 -14 -40 -28 -53 -31 -12 -3
-28 -18 -34 -32 -7 -15 -31 -55 -53 -90 -45 -68 -64 -152 -36 -152 27 0 38 24
28 58 -8 31 -7 32 20 32 22 0 29 6 35 28 11 43 45 92 79 113 38 23 86 25 86 4
0 -9 -12 -20 -27 -26 -49 -20 -58 -26 -56 -44 1 -10 -11 -28 -27 -41 -33 -29
-57 -83 -66 -156 -4 -29 -15 -64 -25 -77 -23 -29 -25 -79 -3 -88 24 -9 33 7
63 108 33 113 63 173 96 195 15 10 25 26 25 39 0 17 9 26 31 34 49 17 89 13
175 -14 83 -28 129 -29 129 -5 0 8 -12 20 -26 27 -17 8 -29 24 -32 42 -5 24
-21 38 -78 72 -76 45 -149 59 -198 39z m143 -76 c25 -4 46 -10 46 -14 0 -22
-119 -15 -143 9 -13 13 23 15 97 5z"/>
<path d="M2600 2802 c0 -11 11 -24 25 -30 21 -10 24 -17 19 -37 -4 -15 0 -34
9 -49 9 -13 21 -52 27 -87 12 -64 32 -109 50 -109 36 0 -41 274 -87 310 -32
25 -43 25 -43 2z"/>
<path d="M3060 2799 c0 -29 29 -75 57 -90 31 -17 34 -11 18 34 -23 66 -75 105
-75 56z"/>
<path d="M2980 2758 c0 -34 44 -138 80 -188 13 -18 16 -31 10 -35 -5 -3 -10
-17 -10 -29 0 -22 21 -35 54 -36 17 0 -2 78 -38 158 -20 44 -36 84 -36 91 0 6
-11 13 -24 17 -17 4 -22 11 -19 24 3 10 0 21 -6 24 -7 5 -11 -5 -11 -26z"/>
<path d="M2930 2696 c0 -28 17 -43 32 -28 7 7 6 17 -1 31 -16 28 -31 27 -31
-3z"/>
<path d="M3122 2664 c2 -11 11 -20 22 -22 13 -3 17 1 14 14 -2 11 -11 20 -22
22 -13 3 -17 -1 -14 -14z"/>
<path d="M2830 2636 c0 -28 12 -46 31 -46 23 0 24 9 3 38 -17 25 -34 29 -34 8z"/>
<path d="M579 2502 c-29 -59 -68 -123 -85 -143 -31 -35 -53 -94 -40 -106 10
-10 66 48 88 91 11 21 35 75 54 119 18 44 43 90 55 103 21 22 21 22 1 33 -17
9 -24 0 -73 -97z"/>
<path d="M695 2554 c-19 -65 -17 -74 11 -64 28 11 61 100 42 112 -26 16 -37 6
-53 -48z"/>
<path d="M2396 2564 c-9 -24 12 -54 39 -54 29 0 32 16 9 48 -18 26 -39 29 -48
6z"/>
<path d="M508 2543 c-29 -32 -58 -85 -58 -108 0 -8 -9 -15 -19 -15 -13 0 -21
-9 -26 -29 -3 -16 -28 -64 -56 -107 -50 -80 -59 -104 -36 -104 26 0 55 31 61
65 4 20 13 35 21 35 7 0 16 9 20 20 3 10 29 54 57 97 53 81 78 132 78 158 0
22 -13 18 -42 -12z"/>
<path d="M2886 2533 c13 -55 45 -131 59 -143 13 -11 15 -7 15 26 0 49 -32 119
-59 134 -20 10 -21 9 -15 -17z"/>
<path d="M2803 2477 l1 -63 33 0 c33 1 34 2 28 36 -6 36 -33 81 -52 87 -7 3
-10 -19 -10 -60z"/>
<path d="M938 2489 c-10 -5 -18 -21 -18 -34 0 -13 -11 -35 -25 -49 -27 -27
-29 -34 -16 -55 21 -33 75 35 95 122 7 29 -5 35 -36 16z"/>
<path d="M2417 2484 c-11 -11 3 -24 24 -24 12 0 19 5 17 13 -5 14 -31 21 -41
11z"/>
<path d="M2516 2453 c-12 -76 1 -137 27 -127 35 13 47 86 22 134 -21 41 -41
38 -49 -7z"/>
<path d="M623 2423 c-37 -59 -43 -76 -33 -92 12 -20 42 5 78 63 22 37 27 54
20 63 -18 23 -34 14 -65 -34z"/>
<path d="M1263 2445 c-21 -15 -25 -28 -37 -117 -4 -34 -2 -38 18 -38 33 0 46
19 46 66 0 28 5 44 15 48 8 3 15 17 15 31 0 29 -24 33 -57 10z"/>
<path d="M2710 2394 c0 -37 5 -107 12 -156 9 -68 9 -94 0 -108 -15 -24 8 -45
38 -35 20 6 21 11 15 88 -4 45 -11 120 -16 167 -5 47 -9 91 -9 98 0 6 -9 12
-20 12 -18 0 -20 -7 -20 -66z"/>
<path d="M2424 2414 c-15 -22 -16 -32 -6 -75 18 -76 15 -93 -25 -182 -94 -204
-104 -219 -169 -250 -44 -21 -63 -37 -71 -58 -11 -29 -33 -40 -33 -16 0 6 -4
19 -9 26 -8 12 -13 11 -28 -8 -15 -18 -31 -23 -83 -27 -90 -7 -110 -12 -110
-29 0 -26 35 -36 84 -25 29 6 54 6 70 0 18 -6 28 -5 36 6 7 8 30 14 54 14 36
0 50 8 111 62 39 34 73 73 77 88 4 15 17 35 28 45 11 10 20 31 20 47 0 15 5
28 10 28 6 0 26 35 46 78 53 115 71 302 29 302 -8 0 -22 -12 -31 -26z"/>
<path d="M2807 2393 c-12 -11 -8 -68 9 -140 10 -44 13 -86 9 -120 -7 -59 0
-93 20 -93 46 0 41 238 -6 303 -11 16 -18 35 -15 43 6 14 -5 19 -17 7z"/>
<path d="M690 2360 c-11 -11 -20 -28 -20 -39 0 -40 -21 -79 -43 -79 -12 -1
-37 -2 -55 -2 -18 -1 -30 -6 -27 -11 4 -5 -2 -9 -12 -10 -22 -1 -68 -54 -88
-103 -29 -69 20 -38 86 56 32 44 30 10 -4 -73 -41 -98 -60 -180 -55 -229 3
-30 8 -20 42 80 44 132 81 212 108 236 17 16 18 16 18 -3 0 -21 -23 -90 -63
-188 -34 -82 -40 -105 -29 -105 20 0 91 121 116 197 25 77 66 249 66 278 0 21
-16 19 -40 -5z"/>
<path d="M2316 2348 c-2 -7 -17 -88 -32 -180 -26 -150 -31 -168 -51 -177 -15
-7 -23 -19 -23 -36 0 -36 16 -31 51 18 62 85 81 135 89 235 4 51 12 98 18 104
17 17 15 23 -13 36 -32 15 -35 15 -39 0z"/>
<path d="M2890 2341 c0 -12 6 -21 16 -21 9 0 14 7 12 17 -5 25 -28 28 -28 4z"/>
<path d="M2960 2325 c0 -38 22 -57 42 -37 8 8 7 20 -2 41 -17 43 -40 40 -40
-4z"/>
<path d="M3058 2318 c-3 -7 1 -26 7 -42 12 -28 13 -29 19 -8 12 38 -13 85 -26
50z"/>
<path d="M880 2305 c10 -12 7 -20 -13 -45 -43 -51 -100 -241 -76 -255 13 -9
39 25 39 51 0 14 11 46 24 72 26 51 56 145 56 174 0 12 -7 18 -21 18 -18 0
-19 -3 -9 -15z"/>
<path d="M2548 2306 c-13 -10 -18 -27 -18 -67 0 -77 -50 -279 -70 -279 -8 0
-23 -17 -32 -38 -10 -20 -27 -53 -38 -72 -18 -31 -18 -35 -4 -38 23 -5 59 33
79 85 12 32 20 42 28 34 20 -20 27 -12 27 28 0 21 6 44 14 50 19 16 33 85 41
194 3 49 9 95 12 103 7 18 -16 18 -39 0z"/>
<path d="M552 2289 c-7 -11 -11 -24 -7 -27 9 -9 40 13 40 28 0 22 -19 21 -33
-1z"/>
<path d="M2900 2240 c0 -41 3 -50 18 -50 10 0 23 5 30 12 9 9 16 0 32 -36 11
-26 20 -59 20 -72 0 -14 6 -24 15 -24 17 0 19 80 3 148 -11 44 -27 53 -48 27
-18 -21 -24 -19 -37 15 -17 46 -33 37 -33 -20z"/>
<path d="M1020 2251 c0 -11 -11 -81 -25 -156 -20 -105 -23 -145 -16 -172 6
-21 6 -44 1 -58 -13 -33 12 -170 35 -195 14 -15 21 -17 32 -9 19 16 16 26 -9
33 -21 6 -21 7 -5 17 23 13 22 50 -4 110 -21 47 -21 50 -4 69 13 15 16 29 11
67 -10 76 -9 86 7 128 9 23 16 71 17 113 0 65 -2 72 -20 72 -13 0 -20 -7 -20
-19z"/>
<path d="M406 2224 c-18 -17 -19 -24 -10 -48 9 -24 31 -19 50 9 28 43 -4 75
-40 39z"/>
<path d="M1407 2173 c-3 -37 -1 -78 4 -92 8 -19 6 -27 -6 -33 -16 -9 -20 -39
-8 -52 4 -4 9 -28 10 -54 3 -75 7 -86 31 -100 19 -11 21 -18 16 -51 -6 -39 8
-81 27 -81 7 0 8 12 4 30 -5 24 -3 30 9 30 10 0 19 -12 23 -30 3 -17 10 -33
14 -36 5 -3 9 -15 9 -26 0 -40 41 -107 90 -148 42 -36 52 -40 70 -30 28 15 21
31 -23 53 -24 11 -37 24 -37 37 0 10 -9 24 -20 30 -11 6 -20 21 -20 34 0 13
-29 74 -65 136 -78 136 -93 194 -77 284 17 90 15 130 -6 149 -31 28 -39 20
-45 -50z"/>
<path d="M920 2220 c0 -5 4 -10 9 -10 5 0 -2 -28 -16 -62 -32 -80 -53 -191
-53 -285 l0 -75 23 14 c18 13 22 26 25 74 1 33 7 68 12 79 5 11 14 53 19 92 5
40 16 85 24 101 12 25 12 33 0 56 -13 25 -43 36 -43 16z"/>
<path d="M1297 2208 c-3 -13 -7 -97 -8 -188 l-2 -165 24 -6 c64 -18 73 -1 44
82 -9 24 -13 56 -10 71 6 24 3 28 -15 28 l-21 0 22 30 c22 29 53 146 43 162
-3 4 -20 8 -39 8 -26 0 -34 -5 -38 -22z"/>
<path d="M1504 2174 c-20 -70 -14 -138 15 -167 24 -25 27 -14 9 45 -10 33 -9
41 5 55 22 22 25 17 38 -53 12 -62 34 -114 49 -114 20 0 19 40 -5 108 -14 39
-25 85 -25 101 0 51 -17 81 -44 81 -22 0 -28 -7 -42 -56z"/>
<path d="M1196 2186 c-11 -55 19 -108 41 -73 12 18 31 96 25 102 -3 3 -18 5
-33 5 -23 0 -28 -5 -33 -34z"/>
<path d="M1620 2174 c0 -22 14 -64 34 -104 19 -37 39 -85 45 -108 8 -30 27
-54 68 -91 60 -53 79 -59 128 -37 l30 14 -30 11 c-82 33 -141 110 -200 259
-29 71 -41 92 -56 92 -15 0 -19 -7 -19 -36z"/>
<path d="M692 2063 c-51 -139 -64 -204 -51 -262 5 -23 7 -47 4 -52 -18 -28
-22 -122 -9 -219 8 -58 14 -119 14 -136 0 -18 8 -38 20 -49 12 -11 20 -31 20
-51 0 -45 36 -137 64 -165 13 -13 30 -40 39 -60 13 -33 65 -85 74 -75 8 8 -19
92 -43 134 -14 23 -38 57 -53 75 -19 21 -33 53 -41 92 -6 33 -21 94 -33 135
-41 147 -25 399 39 615 32 107 34 128 14 132 -11 3 -27 -29 -58 -114z"/>
<path d="M267 2163 c-16 -15 -6 -33 18 -33 27 0 32 9 13 28 -14 14 -22 15 -31
5z"/>
<path d="M2442 2135 c-11 -14 -23 -45 -27 -68 -4 -23 -14 -53 -22 -66 -11 -17
-12 -26 -3 -35 22 -21 65 60 85 162 8 39 -6 42 -33 7z"/>
<path d="M356 2134 c-11 -27 -7 -35 16 -32 29 4 34 24 10 37 -16 8 -21 7 -26
-5z"/>
<path d="M2917 2095 c-4 -8 -3 -37 0 -65 6 -48 7 -50 24 -34 21 19 25 64 9 95
-13 23 -26 25 -33 4z"/>
<path d="M220 2088 c0 -7 5 -20 10 -28 8 -13 11 -12 24 5 21 28 20 35 -9 35
-14 0 -25 -6 -25 -12z"/>
<path d="M1193 2075 c-3 -9 -3 -37 1 -63 9 -62 9 -60 -4 -112 -22 -86 11 -239
64 -300 8 -8 17 -34 21 -57 7 -42 52 -123 68 -123 14 0 1 56 -43 187 -47 144
-60 217 -60 354 0 68 -4 109 -12 117 -16 16 -27 15 -35 -3z"/>
<path d="M289 2042 c-24 -62 1 -96 29 -39 7 15 20 27 28 27 18 0 18 -37 -1
-74 -21 -40 -19 -43 11 -15 28 26 58 73 68 105 6 20 3 21 -60 20 -60 0 -67 -3
-75 -24z"/>
<path d="M2740 2060 c0 -5 7 -10 16 -10 8 0 12 5 9 10 -3 6 -10 10 -16 10 -5
0 -9 -4 -9 -10z"/>
<path d="M3010 2010 c0 -20 5 -30 15 -30 21 0 30 27 15 45 -19 23 -30 18 -30
-15z"/>
<path d="M358 1847 c-75 -160 -101 -237 -79 -237 15 0 38 39 46 80 11 59 16
70 31 70 14 0 17 9 15 45 -1 12 7 24 21 30 15 7 26 25 33 55 7 25 17 56 24 68
12 23 9 52 -6 52 -4 0 -43 -73 -85 -163z"/>
<path d="M2730 2000 c-8 -5 -25 -10 -37 -10 -19 0 -23 -5 -23 -35 0 -19 -12
-65 -26 -102 -14 -38 -26 -89 -26 -115 0 -39 -5 -50 -28 -68 -16 -12 -31 -33
-34 -46 -4 -14 -36 -53 -71 -87 -63 -61 -85 -107 -50 -107 13 0 65 48 65 60 0
3 23 23 50 45 51 40 90 103 90 143 0 11 11 42 24 67 14 25 30 79 37 119 10 63
16 77 40 95 44 33 34 70 -11 41z"/>
<path d="M2837 2003 c-4 -3 -7 -15 -7 -25 0 -13 7 -18 25 -18 26 0 29 7 19 34
-6 16 -26 21 -37 9z"/>
<path d="M759 1973 c-1 -5 -2 -21 -4 -38 -1 -16 -6 -40 -10 -52 -6 -19 -4 -23
13 -23 28 0 39 18 44 73 5 44 4 47 -18 47 -13 0 -25 -3 -25 -7z"/>
<path d="M1522 1958 c7 -19 38 -22 38 -4 0 10 -9 16 -21 16 -12 0 -19 -5 -17
-12z"/>
<path d="M250 1950 c0 -5 7 -10 15 -10 8 0 15 5 15 10 0 6 -7 10 -15 10 -8 0
-15 -4 -15 -10z"/>
<path d="M2927 1944 c-4 -4 -7 -32 -7 -61 0 -46 3 -54 17 -51 24 4 39 51 27
85 -9 27 -25 39 -37 27z"/>
<path d="M2834 1905 c-18 -45 -18 -90 2 -109 25 -25 31 -20 43 44 18 90 -14
137 -45 65z"/>
<path d="M1621 1916 c-17 -20 -6 -50 15 -42 9 3 22 6 31 6 9 0 13 8 11 23 -4
27 -39 35 -57 13z"/>
<path d="M2755 1893 c-3 -21 -21 -87 -40 -148 -19 -60 -37 -129 -41 -152 -5
-36 -10 -43 -30 -43 -14 0 -25 -8 -29 -20 -3 -10 -24 -34 -46 -51 -23 -18 -45
-43 -50 -55 -6 -16 -17 -24 -32 -24 -29 0 -77 -35 -77 -56 0 -26 47 -15 101
25 30 22 57 44 62 48 26 27 47 58 47 68 0 7 14 18 31 25 42 18 77 68 100 141
23 74 37 263 21 273 -7 4 -13 -7 -17 -31z"/>
<path d="M202 1895 c-16 -36 -15 -45 7 -45 20 0 31 18 31 51 0 27 -25 23 -38
-6z"/>
<path d="M2326 1899 c-14 -11 -46 -47 -71 -79 -49 -63 -67 -73 -174 -89 -35
-6 -66 -13 -69 -16 -8 -8 10 -35 34 -51 17 -12 31 -8 109 29 96 45 185 124
185 164 0 12 7 23 15 27 16 6 21 36 6 36 -4 0 -20 -9 -35 -21z"/>
<path d="M1530 1883 c0 -28 6 -39 64 -122 24 -34 34 -41 63 -41 26 0 36 -5 42
-22 12 -31 44 -58 126 -108 l70 -43 100 12 c123 14 145 14 145 1 0 -6 -16 -20
-36 -32 -33 -19 -36 -24 -31 -55 7 -41 -11 -53 -98 -63 -33 -4 -68 -10 -77
-15 -15 -6 -18 -2 -18 24 0 25 -4 31 -20 31 -12 0 -42 11 -68 25 -40 22 -48
23 -61 10 -21 -21 -3 -38 85 -79 66 -32 74 -39 74 -63 0 -16 5 -35 10 -43 7
-11 4 -19 -13 -32 l-22 -17 30 -11 30 -12 -32 -15 c-38 -19 -67 -11 -60 17 4
14 -3 23 -25 35 -17 8 -34 12 -39 9 -14 -8 -11 -30 7 -44 13 -12 10 -15 -26
-27 -37 -13 -43 -12 -67 7 -14 11 -35 20 -47 20 -11 0 -30 7 -40 15 -11 8 -31
15 -44 15 -36 0 -24 -28 28 -68 41 -32 48 -34 97 -28 40 5 55 2 68 -10 12 -13
18 -14 31 -4 10 9 35 11 83 6 76 -7 101 -2 101 21 0 12 6 13 23 7 12 -4 51 -7
87 -6 51 1 68 5 80 20 9 11 35 31 58 46 46 29 47 46 3 46 -53 0 -90 -19 -93
-48 -4 -34 -24 -30 -21 4 2 24 0 25 -55 22 -43 -2 -57 -7 -57 -18 0 -9 12 -16
30 -18 l30 -4 -30 -12 c-34 -14 -45 -6 -45 32 0 31 43 48 154 62 103 13 129
21 150 51 24 35 4 44 -49 20 -26 -12 -63 -21 -81 -21 -19 0 -61 -7 -93 -16
-38 -11 -72 -14 -96 -10 -37 7 -37 8 -16 23 16 11 34 13 67 8 41 -6 46 -4 51
14 4 18 13 21 55 21 70 0 118 29 118 71 0 15 -28 10 -70 -11 -40 -20 -40 -20
-40 0 0 22 42 46 126 74 28 9 62 28 74 41 13 14 28 25 35 25 11 0 74 70 107
119 10 14 18 42 18 61 0 23 7 42 20 53 11 9 20 24 20 32 0 40 -46 -5 -85 -85
-15 -30 -36 -67 -46 -81 -12 -18 -15 -29 -8 -36 7 -7 0 -12 -21 -17 -18 -3
-55 -24 -82 -46 -71 -56 -131 -55 -83 2 14 16 25 34 25 39 0 5 9 9 21 9 29 0
59 18 59 35 0 10 -10 15 -27 15 -53 0 -73 -11 -81 -44 -6 -22 -14 -30 -28 -29
-10 2 -43 -4 -73 -13 -66 -20 -199 -13 -217 11 -6 8 -27 20 -45 27 -70 24
-128 74 -242 212 -44 53 -57 57 -57 19z"/>
<path d="M1660 1852 c0 -15 56 -87 90 -115 44 -38 94 -57 146 -57 32 0 44 4
44 14 0 21 -35 43 -108 67 -48 16 -68 29 -81 50 -21 37 -91 68 -91 41z"/>
<path d="M775 1800 c-9 -54 2 -102 23 -98 14 3 17 15 17 63 0 54 -7 74 -27 75
-3 0 -9 -18 -13 -40z"/>
<path d="M515 1796 c-37 -48 -53 -104 -74 -260 l-20 -140 70 -75 c67 -71 119
-152 119 -185 0 -9 9 -20 20 -26 12 -6 25 -22 30 -36 12 -30 39 -42 51 -23 13
20 12 21 -21 70 -16 24 -30 52 -30 62 0 10 -35 53 -78 95 -138 136 -155 219
-75 383 l41 84 11 -29 c10 -25 9 -37 -10 -80 -18 -42 -21 -64 -17 -135 5 -94
32 -164 82 -210 l26 -24 0 32 c0 25 -6 36 -29 49 -27 15 -28 18 -14 38 11 17
12 28 4 43 -25 47 -30 118 -16 217 20 134 20 149 -10 168 -32 21 -30 21 -60
-18z"/>
<path d="M422 1799 c-19 -31 -15 -51 11 -47 15 2 23 11 25 29 4 33 -20 44 -36
18z"/>
<path d="M235 1786 c-9 -13 -19 -41 -22 -61 -11 -70 37 -20 62 63 9 31 -20 30
-40 -2z"/>
<path d="M714 1774 c-11 -58 3 -191 31 -293 16 -60 23 -106 19 -126 -6 -35 20
-99 52 -126 9 -7 25 -34 36 -59 11 -25 45 -72 77 -105 32 -33 76 -80 98 -104
31 -35 44 -42 61 -37 12 4 22 13 22 21 0 15 -42 51 -70 60 -20 6 -143 174
-191 260 -44 80 -61 155 -57 253 3 76 1 87 -13 84 -21 -3 -28 22 -22 85 5 51
-11 123 -27 123 -5 0 -12 -16 -16 -36z"/>
<path d="M1360 1778 c0 -39 53 -209 66 -210 20 -2 28 32 15 64 -7 18 -18 56
-25 83 -22 90 -56 128 -56 63z"/>
<path d="M2915 1746 c-10 -77 -1 -89 25 -32 16 35 20 54 13 65 -20 31 -31 22
-38 -33z"/>
<path d="M1300 1748 c0 -24 16 -88 36 -143 22 -61 38 -129 42 -175 7 -73 8
-75 42 -93 24 -12 35 -24 35 -39 0 -14 10 -27 24 -35 30 -15 41 -9 41 22 0 26
-16 46 -60 72 -22 13 -28 22 -24 39 3 13 -10 61 -34 120 -22 55 -45 130 -51
167 -18 104 -51 146 -51 65z"/>
<path d="M2330 1768 c-25 -27 -22 -52 5 -56 20 -3 55 41 55 67 0 19 -38 12
-60 -11z"/>
<path d="M862 1742 c4 -25 0 -45 -9 -58 -20 -27 -7 -244 16 -260 13 -10 13
-14 2 -28 -11 -13 -11 -22 -2 -42 6 -14 11 -38 11 -53 0 -20 7 -31 25 -39 16
-8 25 -20 25 -35 0 -29 52 -112 80 -127 11 -6 25 -22 30 -35 5 -13 27 -36 50
-50 22 -14 40 -30 40 -35 0 -6 19 -10 43 -10 49 0 87 -22 87 -50 0 -13 5 -17
15 -14 17 7 20 37 5 64 -7 13 -7 21 0 25 6 4 8 11 4 16 -3 5 -9 7 -14 4 -4 -3
-6 5 -3 16 7 26 -19 49 -55 49 -21 0 -23 -3 -17 -30 6 -25 3 -30 -12 -30 -31
0 -110 56 -142 100 -16 22 -49 80 -74 128 -41 79 -46 101 -67 240 -21 143 -22
228 -4 276 4 12 0 16 -16 16 -20 0 -22 -4 -18 -38z m386 -749 c2 -26 1 -26
-13 -7 -18 24 -19 34 -2 34 7 0 14 -12 15 -27z"/>
<path d="M2826 1754 c-9 -24 -8 -26 16 -22 29 4 38 38 10 38 -11 0 -23 -7 -26
-16z"/>
<path d="M925 1713 c-8 -60 7 -192 35 -309 26 -110 30 -119 64 -110 l26 6 -19
48 c-10 26 -26 85 -35 132 -10 47 -22 100 -28 119 -8 25 -7 39 2 57 9 16 10
27 3 36 -6 7 -13 25 -17 41 -10 41 -23 32 -31 -20z"/>
<path d="M2810 1678 c-11 -24 -20 -60 -20 -80 0 -27 -5 -38 -19 -43 -28 -8
-91 -81 -91 -104 0 -19 -55 -61 -80 -61 -6 0 -29 -15 -50 -33 -21 -18 -75 -48
-120 -66 -44 -19 -83 -38 -86 -42 -3 -5 -20 -9 -37 -9 -32 0 -77 -23 -77 -39
0 -20 36 -20 72 -1 22 11 43 18 48 15 5 -3 19 -1 30 5 27 14 27 -5 0 -22 -24
-15 -27 -58 -4 -58 9 0 20 12 26 28 10 25 14 27 72 27 70 0 130 25 189 79 23
20 44 32 55 29 22 -5 87 38 87 59 0 8 6 23 14 32 23 28 4 30 -31 3 -18 -14
-53 -35 -78 -47 -25 -13 -65 -37 -90 -54 -48 -33 -102 -57 -135 -59 -30 -3
-25 27 5 31 14 2 34 12 46 23 11 11 38 25 60 32 46 14 206 175 229 231 18 43
19 73 3 79 -10 3 -8 9 5 24 19 22 22 49 7 58 -6 4 -19 -13 -30 -37z"/>
<path d="M370 1675 c-24 -39 -38 -109 -23 -118 17 -11 52 23 63 61 24 89 1
123 -40 57z"/>
<path d="M1630 1683 c2 -35 130 -169 179 -187 20 -8 60 -23 89 -35 48 -19 55
-20 74 -7 15 10 27 12 39 6 13 -7 21 -4 33 15 9 13 16 29 16 35 0 16 -56 12
-70 -5 -15 -18 -31 -20 -27 -3 1 9 -17 15 -53 18 -70 7 -98 23 -189 104 -69
62 -91 76 -91 59z"/>
<path d="M775 1659 c-8 -25 -1 -34 20 -26 19 8 20 47 1 47 -8 0 -18 -9 -21
-21z"/>
<path d="M1476 1643 c9 -37 49 -110 77 -141 21 -23 22 -46 3 -61 -16 -13 -21
-8 -56 56 -28 52 -46 60 -55 26 -4 -17 1 -39 16 -67 12 -22 29 -55 38 -73 10
-20 30 -37 54 -47 21 -8 41 -23 43 -33 3 -11 25 -26 53 -36 62 -22 85 -22 77
-1 -3 9 -6 23 -6 31 0 12 -7 14 -28 10 -22 -5 -30 -1 -37 16 -6 12 -28 31 -50
43 -26 13 -41 28 -43 44 -3 21 -1 22 29 16 17 -3 52 -25 77 -48 l46 -42 12 29
c11 26 10 33 -9 53 -11 12 -32 22 -47 22 -21 0 -31 8 -46 36 -10 20 -32 51
-49 68 -16 18 -42 54 -57 79 -30 53 -52 63 -42 20z"/>
<path d="M1026 1578 c4 -35 13 -67 20 -73 6 -5 14 -36 16 -68 4 -44 18 -83 61
-172 32 -63 57 -116 57 -119 0 -4 -16 -6 -35 -6 -36 0 -43 8 -25 26 8 8 0 27
-26 65 -39 58 -50 64 -68 36 -9 -14 -6 -25 12 -55 12 -20 32 -56 43 -79 17
-36 25 -43 48 -43 20 0 34 8 46 26 l17 26 27 -26 c15 -14 36 -26 47 -26 14 0
24 -11 32 -34 9 -25 20 -35 40 -39 15 -2 51 -15 80 -28 51 -23 55 -23 82 -7
17 10 32 13 35 7 9 -14 61 -11 74 5 9 11 -1 14 -54 20 -115 12 -170 39 -265
133 -47 45 -92 83 -100 83 -17 0 -55 114 -44 131 3 6 -1 18 -9 27 -18 22 -37
77 -37 111 0 42 -20 101 -41 122 -33 33 -41 24 -33 -43z"/>
<path d="M2900 1630 c0 -5 7 -10 15 -10 8 0 15 5 15 10 0 6 -7 10 -15 10 -8 0
-15 -4 -15 -10z"/>
<path d="M245 1586 c-11 -8 -16 -19 -12 -30 9 -23 34 -20 42 5 9 29 -7 42 -30
25z"/>
<path d="M2412 1580 c-23 -10 -39 -36 -29 -47 9 -9 63 16 83 38 16 18 16 19
-7 18 -13 0 -34 -4 -47 -9z"/>
<path d="M1214 1532 c6 -57 40 -134 86 -192 17 -21 30 -44 30 -51 0 -37 41
-77 119 -118 45 -23 89 -53 97 -67 14 -20 24 -24 64 -24 31 0 52 -5 61 -16 10
-12 23 -14 58 -9 56 8 64 15 46 38 -15 21 -50 19 -50 -3 0 -8 -10 -16 -22 -18
-19 -3 -23 1 -23 22 0 22 -5 26 -28 26 -15 0 -52 16 -82 35 -30 19 -66 35 -79
35 -16 0 -21 4 -17 15 3 9 -5 22 -20 32 -60 42 -84 66 -84 83 0 10 -11 25 -25
34 -29 19 -51 59 -71 127 -8 27 -26 61 -40 76 l-25 28 5 -53z"/>
<path d="M2871 1561 c-15 -27 -30 -100 -22 -105 15 -10 32 13 51 65 24 65 24
59 0 59 -10 0 -24 -8 -29 -19z"/>
<path d="M2287 1506 c-38 -35 -48 -66 -21 -66 20 0 54 18 81 43 22 19 22 22 6
39 -21 24 -23 23 -66 -16z"/>
<path d="M300 1511 c-10 -21 -4 -51 11 -51 15 0 49 39 49 55 0 22 -47 19 -60
-4z"/>
<path d="M320 1407 c0 -41 7 -49 32 -36 28 15 21 63 -9 67 -20 3 -23 -1 -23
-31z"/>
<path d="M252 1418 c6 -18 28 -21 28 -4 0 9 -7 16 -16 16 -9 0 -14 -5 -12 -12z"/>
<path d="M2307 1413 c-4 -3 -7 -14 -7 -23 0 -23 47 -14 61 11 8 17 6 19 -19
19 -16 0 -32 -3 -35 -7z"/>
<path d="M1756 1351 c-17 -19 -17 -20 13 -35 36 -19 72 -21 89 -4 19 19 15 25
-28 42 -51 20 -53 20 -74 -3z"/>
<path d="M330 1331 c0 -25 74 -90 111 -98 20 -4 34 -15 45 -38 14 -30 77 -76
88 -64 3 3 -4 25 -17 50 -25 49 -71 85 -132 100 -32 8 -44 17 -52 40 -12 32
-43 40 -43 10z"/>
<path d="M1190 1340 c0 -6 11 -21 25 -34 14 -13 25 -31 25 -39 0 -9 20 -39 45
-67 25 -28 45 -56 45 -63 0 -14 58 -39 71 -31 20 12 6 40 -29 59 -28 15 -46
37 -73 89 -21 39 -45 76 -55 83 -21 16 -54 17 -54 3z"/>
<path d="M2301 1313 c-36 -44 -38 -53 -11 -53 20 0 90 63 90 80 0 6 -11 10
-24 10 -16 0 -35 -13 -55 -37z"/>
<path d="M297 1254 c-19 -19 -3 -46 45 -78 29 -20 54 -34 56 -31 2 2 1 20 -2
40 -7 34 -28 47 -41 25 -9 -14 -25 -12 -25 3 0 19 -24 49 -33 41z"/>
<path d="M2700 1236 c0 -9 5 -16 10 -16 6 0 10 4 10 9 0 6 -4 13 -10 16 -5 3
-10 -1 -10 -9z"/>
<path d="M2628 1194 c-15 -8 -40 -14 -55 -13 -16 1 -44 -7 -63 -19 -19 -11
-53 -24 -75 -28 -22 -3 -49 -15 -60 -24 -20 -18 -23 -19 -282 -32 -46 -2 -67
-8 -85 -24 -19 -18 -39 -22 -124 -27 -61 -3 -113 -11 -130 -20 -25 -13 -31
-13 -51 0 -28 18 -43 10 -43 -24 l0 -26 105 6 c115 7 222 27 330 60 39 11 93
22 120 23 112 5 170 16 193 37 17 16 25 18 34 9 19 -19 42 -14 94 23 27 19 60
35 74 35 14 0 40 9 58 20 54 33 17 56 -40 24z"/>
<path d="M2190 1154 c-36 -7 -88 -13 -116 -13 -33 -1 -54 -6 -57 -14 -4 -11
-18 -11 -67 -3 -58 9 -63 9 -78 -11 -10 -12 -27 -23 -40 -25 -43 -6 -27 -23
26 -26 33 -2 87 6 145 22 57 15 136 27 210 31 114 7 130 12 105 32 -24 19 -62
21 -128 7z"/>
<path d="M429 1144 c-11 -13 -11 -17 3 -25 9 -5 58 -43 109 -85 93 -76 194
-134 234 -134 45 0 86 -53 51 -66 -21 -8 -141 52 -165 83 -14 17 -32 26 -54
28 -19 1 -54 16 -80 33 -25 18 -57 36 -71 42 -14 5 -26 16 -26 25 0 10 -10 15
-28 15 -39 0 -42 -6 -25 -41 11 -22 21 -29 42 -29 16 0 47 -14 72 -33 75 -57
329 -206 335 -196 3 5 14 9 25 9 15 0 19 6 17 23 -5 34 38 37 53 3 7 -14 22
-32 34 -40 31 -20 91 -30 99 -17 12 19 -10 43 -70 75 -36 19 -64 42 -72 58 -9
19 -23 29 -47 34 -30 5 -38 13 -64 70 -27 59 -53 85 -67 71 -4 -3 1 -20 10
-38 19 -38 20 -55 5 -65 -7 -4 -34 17 -65 50 -43 48 -57 57 -81 54 -20 -2 -31
3 -38 17 -6 12 -23 21 -40 23 -22 2 -34 11 -45 35 -18 37 -32 43 -51 21z"/>
<path d="M1446 1113 c-3 -4 -6 -17 -6 -30 0 -20 5 -23 40 -23 22 0 40 4 40 8
0 20 -62 57 -74 45z"/>
<path d="M2593 1113 c-7 -2 -13 -13 -13 -24 0 -23 27 -25 54 -4 16 12 22 12
28 2 6 -9 10 -9 18 3 5 8 10 18 10 23 0 8 -78 8 -97 0z"/>
<path d="M320 1080 c0 -5 7 -10 15 -10 8 0 15 5 15 10 0 6 -7 10 -15 10 -8 0
-15 -4 -15 -10z"/>
<path d="M2491 1055 c-39 -35 -64 -44 -76 -25 -11 17 -61 11 -89 -11 -24 -19
-30 -20 -57 -9 -25 11 -47 9 -140 -10 -102 -22 -129 -36 -99 -55 6 -3 10 -13
10 -22 0 -13 -9 -14 -52 -9 -151 18 -184 19 -216 2 -26 -13 -37 -14 -54 -5
-15 8 -52 10 -113 6 -84 -6 -92 -5 -103 14 -7 11 -18 18 -25 16 -7 -2 -32 2
-57 9 -62 19 -83 17 -98 -7 -7 -12 -12 -22 -10 -23 2 -1 61 -15 132 -30 96
-21 142 -27 183 -22 43 5 55 3 59 -9 8 -20 41 -19 53 2 8 16 23 17 118 15 59
-2 112 -8 117 -13 6 -5 27 -9 47 -9 35 0 49 -12 49 -41 0 -5 -77 -9 -177 -10
-98 0 -195 -3 -215 -7 -37 -7 -37 -7 -20 -30 16 -21 20 -22 77 -11 45 9 106 8
248 -1 195 -13 270 -9 350 16 35 12 47 21 47 35 0 30 -21 32 -79 9 -28 -11
-67 -20 -86 -20 -18 0 -46 -5 -61 -10 -23 -9 -31 -8 -47 9 -19 19 -19 21 -4
45 16 23 18 24 45 10 25 -12 36 -12 83 2 30 8 78 18 107 21 28 3 52 8 52 12 0
13 -37 61 -43 55 -3 -3 -29 -9 -59 -13 -41 -5 -55 -11 -64 -29 -17 -35 -21
-36 -50 -13 -15 11 -41 21 -58 21 -17 0 -37 4 -45 9 -18 11 41 24 268 58 97
14 186 29 199 34 22 8 28 32 16 63 -9 23 -19 20 -63 -19z"/>
<path d="M880 1015 c0 -3 9 -23 20 -45 11 -22 20 -45 20 -53 0 -7 15 -20 33
-28 17 -9 63 -32 100 -53 45 -24 82 -36 108 -36 21 0 39 -4 39 -10 0 -17 41
-31 71 -25 16 4 29 10 29 14 0 11 -100 47 -170 62 -38 8 -60 19 -74 38 -55 73
-176 166 -176 136z"/>
<path d="M2475 968 c-27 -15 -65 -50 -65 -60 0 -13 41 -9 100 12 40 13 56 24
58 39 3 18 -2 21 -35 21 -21 0 -47 -6 -58 -12z"/>
<path d="M2600 970 c0 -5 9 -10 20 -10 11 0 20 5 20 10 0 6 -9 10 -20 10 -11
0 -20 -4 -20 -10z"/>
<path d="M392 914 c5 -27 49 -54 113 -70 33 -9 71 -22 84 -31 21 -13 25 -13
39 1 9 8 14 17 11 18 -31 21 -107 48 -136 48 -25 0 -42 7 -59 25 -26 29 -57
34 -52 9z"/>
<path d="M1117 913 c-11 -11 13 -31 31 -26 10 2 34 -9 56 -26 31 -25 48 -31
88 -31 27 0 63 -7 80 -16 19 -10 44 -14 63 -11 30 5 55 -6 55 -24 0 -5 -21 -9
-47 -11 -25 -2 -48 -8 -50 -15 -2 -6 21 -21 54 -33 48 -18 69 -20 121 -15 57
6 66 4 87 -15 23 -22 25 -22 342 -17 339 5 398 12 527 62 l61 24 -56 0 c-31 1
-89 -8 -130 -18 -58 -15 -120 -20 -281 -22 -113 -2 -210 -1 -214 4 -11 11 -49
8 -62 -5 -8 -8 -24 -9 -64 0 -29 6 -82 14 -118 18 -96 10 -114 18 -107 53 8
38 -8 51 -66 51 -26 0 -58 6 -70 12 -12 7 -40 13 -62 14 -74 2 -145 16 -145
29 0 20 -77 35 -93 18z m598 -203 c3 -5 -1 -10 -10 -10 -9 0 -13 5 -10 10 3 6
8 10 10 10 2 0 7 -4 10 -10z"/>
<path d="M2503 876 c-68 -14 -93 -29 -93 -57 0 -24 16 -24 71 0 24 11 61 23
82 26 28 5 37 12 35 24 -4 21 -20 22 -95 7z"/>
<path d="M1346 783 c-12 -12 -6 -33 9 -33 8 0 15 6 15 14 0 17 -14 28 -24 19z"/>
<path d="M445 769 c-13 -20 19 -36 119 -59 67 -15 116 -20 148 -17 37 5 48 3
48 -8 0 -23 39 -37 112 -40 60 -3 69 -1 66 13 -2 10 -16 19 -33 22 -17 3 -46
13 -65 22 -19 8 -75 18 -124 21 -65 5 -94 11 -108 24 -13 11 -37 18 -66 19
-26 0 -57 4 -69 8 -12 4 -24 2 -28 -5z"/>
<path d="M1080 721 c0 -8 52 -30 108 -46 17 -5 22 -2 22 12 0 11 -5 24 -12 31
-14 14 -118 17 -118 3z"/>
<path d="M1253 680 c-27 -11 -28 -14 -7 -34 20 -21 94 -22 94 -1 0 11 -49 47
-62 44 -2 0 -13 -4 -25 -9z"/>
<path d="M480 654 c0 -15 8 -17 55 -14 23 1 32 -5 40 -22 15 -33 49 -30 53 5
4 32 0 34 -85 40 -50 4 -63 2 -63 -9z"/>
<path d="M956 654 c-9 -24 -1 -29 74 -52 96 -29 153 -37 148 -21 -8 25 -53 48
-118 62 -36 8 -72 17 -81 21 -11 5 -19 1 -23 -10z"/>
<path d="M1380 636 c0 -13 6 -26 14 -29 26 -10 195 -19 232 -13 43 9 38 15
-35 44 -68 28 -98 28 -106 2 -3 -11 -12 -20 -18 -20 -7 0 -18 9 -25 20 -7 11
-23 20 -37 20 -20 0 -25 -5 -25 -24z"/>
<path d="M2396 653 c-4 -4 -49 -9 -101 -10 -89 -1 -209 -26 -221 -44 -10 -17
103 -14 231 7 50 7 108 14 130 14 l40 1 -24 19 c-24 21 -43 25 -55 13z"/>
<path d="M688 620 c-29 -18 -21 -37 20 -44 20 -3 83 -6 140 -6 80 0 102 3 102
14 0 25 -27 36 -86 35 -33 -1 -81 1 -109 5 -30 4 -57 2 -67 -4z"/>
<path d="M1693 623 c-7 -2 -13 -13 -13 -23 0 -15 12 -19 85 -25 62 -5 90 -3
100 5 24 20 17 32 -13 25 -15 -3 -47 1 -71 10 -44 15 -66 17 -88 8z"/>
<path d="M1968 619 c-10 -5 -18 -19 -18 -29 0 -16 7 -20 39 -20 40 0 72 23 55
40 -15 15 -58 20 -76 9z"/>
<path d="M1223 589 c-31 -11 -29 -18 12 -35 39 -16 105 -19 105 -4 0 26 -81
54 -117 39z"/>
<path d="M2253 559 c-75 -9 -143 -31 -143 -47 0 -20 61 -20 151 -2 52 11 107
20 122 20 22 0 28 4 25 18 -4 21 -48 24 -155 11z"/>
<path d="M1393 553 c-21 -8 -15 -40 8 -46 25 -7 69 8 69 22 0 21 -48 36 -77
24z"/>
<path d="M1518 538 c-62 -22 -11 -44 76 -34 35 5 76 2 120 -8 107 -25 156 -18
156 21 0 10 -13 12 -53 7 -38 -5 -62 -2 -83 8 -33 17 -173 21 -216 6z"/>
<path d="M533 525 c5 -14 96 -45 113 -38 8 3 14 13 14 23 0 15 -10 19 -65 22
-40 2 -64 -1 -62 -7z"/>
<path d="M1941 531 c-50 -14 -33 -44 31 -56 34 -6 38 -5 43 18 12 45 -11 56
-74 38z"/>
<path d="M821 513 c-28 -14 -40 -15 -79 -4 -52 14 -74 3 -51 -25 27 -32 56
-35 157 -12 89 19 105 20 204 9 78 -9 112 -10 127 -1 35 18 24 27 -48 39 -97
15 -158 14 -191 -6 -26 -15 -29 -15 -45 0 -20 21 -31 21 -74 0z"/>
<path d="M2432 518 c-6 -6 -12 -21 -12 -31 0 -15 5 -18 23 -13 12 3 26 6 30 6
5 0 7 10 5 22 -3 26 -28 34 -46 16z"/>
<path d="M2042 503 c2 -10 10 -18 18 -18 8 0 16 8 18 18 2 12 -3 17 -18 17
-15 0 -20 -5 -18 -17z"/>
<path d="M1253 503 c-20 -7 -15 -21 12 -39 28 -19 75 -12 75 11 0 26 -52 43
-87 28z"/>
<path d="M2380 480 c0 -5 5 -10 11 -10 5 0 7 5 4 10 -3 6 -8 10 -11 10 -2 0
-4 -4 -4 -10z"/>
<path d="M2262 460 c-29 -18 -39 -19 -67 -10 -26 9 -40 8 -57 -1 -38 -20 -332
-31 -395 -15 -30 8 -33 6 -33 -13 0 -25 23 -32 110 -30 36 0 98 -2 138 -6 57
-6 104 -2 230 20 86 15 159 29 160 30 2 2 1 13 -3 24 -8 27 -40 27 -83 1z"/>
<path d="M520 455 c0 -8 7 -15 15 -15 8 0 15 7 15 15 0 8 -7 15 -15 15 -8 0
-15 -7 -15 -15z"/>
<path d="M1391 431 c-42 -6 -44 -7 -28 -23 10 -10 34 -20 53 -24 43 -8 114 11
114 30 0 26 -40 30 -139 17z"/>
<path d="M1587 429 c-27 -16 -10 -29 38 -29 42 0 70 16 43 24 -39 12 -65 14
-81 5z"/>
<path d="M1137 402 c-20 -22 -13 -32 24 -32 35 0 44 14 23 34 -20 20 -27 20
-47 -2z"/>
<path d="M872 400 c-13 -6 -59 -9 -102 -7 -52 1 -83 -2 -91 -10 -23 -23 1 -28
127 -29 l125 -1 -3 26 c-3 28 -21 35 -56 21z"/>
<path d="M972 388 c6 -43 118 -34 118 8 0 10 -16 14 -61 14 -57 0 -60 -1 -57
-22z"/>
<path d="M1260 391 c0 -21 39 -36 54 -21 15 15 -2 40 -29 40 -18 0 -25 -5 -25
-19z"/>
<path d="M2285 370 c-21 -11 -55 -20 -75 -20 -19 0 -49 -8 -66 -19 -26 -16
-37 -17 -80 -8 -53 11 -103 -3 -112 -32 -4 -11 5 -13 43 -8 29 4 53 3 61 -4 9
-7 28 -6 66 5 29 9 85 20 123 26 122 18 125 19 125 46 0 13 -4 24 -9 24 -5 0
-15 2 -23 5 -7 3 -31 -4 -53 -15z"/>
<path d="M1637 324 c-11 -4 -16 -12 -13 -21 3 -8 6 -16 6 -18 0 -2 15 -1 34 2
19 3 72 0 118 -7 71 -10 90 -9 119 3 l34 15 -30 12 c-31 12 -237 23 -268 14z"/>
<path d="M1240 310 c-8 -5 -33 -7 -55 -4 -49 7 -89 -16 -67 -38 22 -22 212 -4
212 20 0 28 -59 42 -90 22z"/>
<path d="M1356 303 c-10 -25 1 -30 56 -28 44 1 53 5 56 21 2 17 -4 19 -52 20
-40 1 -56 -2 -60 -13z"/>
<path d="M1513 313 c-22 -8 -15 -43 8 -43 29 0 59 18 59 35 0 15 -40 20 -67 8z"/>
<path d="M924 291 c-2 -2 -4 -14 -4 -26 0 -21 2 -22 53 -13 95 16 101 18 88
31 -11 11 -127 18 -137 8z"/>
<path d="M831 281 c-12 -8 -12 -12 -2 -25 21 -25 53 -21 49 6 -3 25 -25 33
-47 19z"/>
<path d="M1891 211 c-32 -32 -17 -44 46 -36 38 5 59 3 70 -6 13 -11 18 -10 35
10 26 33 13 42 -65 48 -57 5 -67 3 -86 -16z"/>
<path d="M1426 209 c-11 -7 -38 -9 -67 -5 -53 7 -89 -5 -89 -29 0 -12 18 -15
98 -15 104 0 126 7 120 36 -4 22 -35 29 -62 13z"/>
<path d="M1547 212 c-16 -7 -16 -10 -5 -19 15 -13 54 -16 158 -14 71 1 73 2
57 19 -14 13 -37 18 -105 19 -48 2 -95 -1 -105 -5z"/>
<path d="M1802 203 c4 -21 19 -26 38 -13 13 9 13 11 0 20 -23 15 -42 12 -38
-7z"/>
<path d="M2100 210 c0 -5 7 -10 15 -10 8 0 15 5 15 10 0 6 -7 10 -15 10 -8 0
-15 -4 -15 -10z"/>
<path d="M1150 180 c0 -5 7 -10 16 -10 8 0 12 5 9 10 -3 6 -10 10 -16 10 -5 0
-9 -4 -9 -10z"/>
<path d="M1802 108 c2 -19 10 -24 42 -26 21 -2 44 2 50 8 16 17 -20 40 -62 40
-29 0 -33 -3 -30 -22z"/>
<path d="M1718 109 c-27 -15 -21 -31 9 -27 17 2 29 10 31 21 4 19 -14 22 -40
6z"/>
<path d="M1610 100 c0 -5 5 -10 10 -10 6 0 10 5 10 10 0 6 -4 10 -10 10 -5 0
-10 -4 -10 -10z"/>
</g>
</svg>
