<?xml version="1.0" standalone="no"?>
<!DOCTYPE svg PUBLIC "-//W3C//DTD SVG 20010904//EN"
 "http://www.w3.org/TR/2001/REC-SVG-20010904/DTD/svg10.dtd">
<svg version="1.0" xmlns="http://www.w3.org/2000/svg"
 width="321.000000pt" height="511.000000pt" viewBox="0 0 321.000000 511.000000"
 preserveAspectRatio="xMidYMid meet">

<g transform="translate(0.000000,511.000000) scale(0.100000,-0.100000)"
fill="#000000" stroke="none">
<path d="M1387 5103 c-25 -6 -15 -29 12 -26 11 2 21 -3 21 -10 0 -7 7 -4 15 7
24 31 4 43 -48 29z"/>
<path d="M1503 5069 c0 -31 14 -37 48 -19 13 7 19 7 19 0 0 -5 7 -10 15 -10 8
0 15 6 15 13 -1 24 -26 42 -61 44 -33 1 -36 -1 -36 -28z"/>
<path d="M1460 5075 c-10 -13 -9 -15 9 -15 12 0 21 6 21 15 0 8 -4 15 -9 15
-5 0 -14 -7 -21 -15z"/>
<path d="M1183 5064 c-9 -9 -10 -15 -2 -20 14 -8 30 8 21 22 -5 9 -10 8 -19
-2z"/>
<path d="M1810 5071 c0 -8 52 -31 71 -31 5 0 1 9 -8 20 -17 20 -63 28 -63 11z"/>
<path d="M1235 5060 c-19 -7 -19 -7 2 -14 13 -4 30 -3 39 2 15 8 14 10 -3 14
-10 3 -27 2 -38 -2z"/>
<path d="M1610 5065 c0 -9 25 -50 35 -57 6 -4 20 -8 33 -8 17 0 22 6 22 24 0
18 -8 27 -31 35 -34 12 -59 14 -59 6z"/>
<path d="M1720 5015 c0 -16 7 -28 18 -31 9 -4 31 -12 47 -19 17 -7 57 -13 89
-14 38 -1 66 -7 76 -16 9 -8 24 -15 33 -15 9 0 17 -4 17 -10 0 -5 13 -10 28
-10 15 0 33 -5 38 -10 6 -6 18 -8 28 -4 23 9 2 34 -30 34 -12 0 -26 5 -29 10
-3 6 -17 10 -31 10 -13 0 -24 5 -24 10 0 6 -12 15 -27 21 -16 7 -38 16 -50 22
-12 5 -31 7 -42 4 -11 -2 -41 6 -68 19 -61 30 -73 30 -73 -1z"/>
<path d="M1160 5009 c-14 -6 -36 -8 -49 -6 -32 6 -71 -8 -71 -26 0 -18 141
-31 189 -17 58 16 321 -2 321 -22 0 -5 13 -7 29 -3 21 4 44 -1 79 -19 28 -14
69 -28 91 -32 23 -4 44 -11 47 -15 3 -5 21 -9 40 -9 21 0 34 -5 34 -13 0 -7
16 -19 36 -26 19 -7 38 -19 41 -27 3 -8 16 -14 28 -14 13 0 27 -4 30 -10 9
-15 65 -12 65 3 0 23 -24 43 -67 57 -24 7 -43 16 -43 20 0 7 -61 30 -82 30 -9
0 -21 7 -28 15 -8 10 -21 13 -37 9 -18 -5 -28 -1 -39 15 -8 11 -26 21 -38 21
-13 0 -37 7 -52 15 -16 8 -37 15 -47 15 -10 0 -29 7 -42 16 -16 10 -36 14 -54
11 -15 -3 -33 -1 -38 4 -14 14 -311 20 -343 8z"/>
<path d="M1300 4922 c-19 -1 -42 -5 -50 -9 -20 -7 -201 -6 -261 2 -57 8 -113
-13 -122 -45 -6 -21 -4 -22 36 -15 68 12 233 6 270 -10 9 -4 30 -2 45 4 18 8
67 9 147 5 229 -12 245 -12 245 7 0 33 -197 72 -310 61z"/>
<path d="M2130 4865 c0 -9 5 -15 11 -13 6 2 11 8 11 13 0 5 -5 11 -11 13 -6 2
-11 -4 -11 -13z"/>
<path d="M1637 4850 c-5 -20 -3 -22 26 -17 19 3 38 -1 48 -9 8 -8 38 -17 65
-20 l49 -7 -29 23 c-15 13 -44 26 -65 30 -20 4 -48 11 -62 14 -22 6 -27 4 -32
-14z"/>
<path d="M925 4812 c-22 -2 -44 -7 -50 -11 -5 -5 -22 -11 -37 -15 -17 -4 -28
-13 -28 -24 0 -14 -2 -15 -10 -2 -11 18 -23 8 -14 -14 8 -20 45 -21 110 -1 27
8 78 18 114 21 63 7 80 15 80 41 0 13 -52 14 -165 5z"/>
<path d="M1189 4796 c-42 -12 -61 -20 -124 -53 -43 -22 -156 -53 -194 -53 -42
0 -58 -13 -53 -42 4 -20 -9 -23 -25 -7 -8 8 -17 8 -33 -1 -12 -6 -31 -9 -42
-7 -13 4 -29 -3 -43 -17 -12 -13 -33 -22 -46 -22 -17 1 -24 -4 -24 -17 0 -10
-8 -23 -18 -28 -9 -6 -17 -14 -17 -19 0 -17 26 -11 45 10 10 11 36 23 56 26
21 4 44 13 50 20 6 8 17 14 25 14 7 0 20 7 28 16 9 8 16 11 16 5 0 -6 7 -11
15 -11 8 0 15 4 15 9 0 5 23 12 52 15 61 8 166 42 188 60 29 25 127 43 275 52
57 3 103 10 107 17 5 8 13 7 32 -2 14 -8 38 -14 53 -13 15 0 52 1 81 2 30 0
60 -4 68 -11 8 -6 14 -8 14 -4 0 4 6 3 13 -2 6 -6 45 -10 86 -11 41 -1 77 -5
80 -11 10 -15 62 -32 81 -26 9 3 23 -1 30 -10 7 -8 21 -15 31 -15 10 0 21 -5
24 -10 4 -6 12 -7 22 -1 12 6 30 1 61 -16 45 -25 149 -46 157 -32 10 15 -7 37
-33 42 -15 3 -58 17 -97 32 -38 15 -86 29 -105 32 -19 3 -40 9 -46 14 -6 5
-32 12 -57 15 -26 4 -52 13 -58 20 -8 10 -35 14 -85 14 -40 0 -95 4 -121 10
-127 26 -417 35 -484 16z"/>
<path d="M2088 4782 c-4 -14 3 -26 23 -41 28 -21 30 -21 65 -5 31 15 33 19 19
27 -13 7 -14 11 -5 17 7 4 0 7 -17 7 -15 0 -40 3 -54 7 -21 6 -27 4 -31 -12z"/>
<path d="M2220 4751 c0 -12 5 -21 10 -21 6 0 10 6 10 14 0 8 -4 18 -10 21 -5
3 -10 -3 -10 -14z"/>
<path d="M700 4710 c0 -5 5 -10 10 -10 6 0 10 5 10 10 0 6 -4 10 -10 10 -5 0
-10 -4 -10 -10z"/>
<path d="M2178 4713 c7 -3 16 -2 19 1 4 3 -2 6 -13 5 -11 0 -14 -3 -6 -6z"/>
<path d="M2270 4703 c0 -5 4 -15 10 -23 11 -18 25 -7 17 15 -6 15 -27 21 -27
8z"/>
<path d="M1233 4686 c-29 -7 -55 -11 -58 -7 -3 3 -20 -2 -38 -11 -18 -9 -86
-33 -152 -53 -66 -20 -148 -48 -182 -61 -34 -13 -67 -24 -75 -24 -7 0 -28 -9
-46 -20 -18 -11 -39 -20 -47 -20 -8 0 -15 -4 -15 -8 0 -5 -19 -19 -42 -32 -49
-27 -68 -44 -68 -59 0 -13 5 -14 28 -2 51 28 157 71 172 71 10 0 23 6 29 14 7
8 28 17 47 21 19 3 38 13 41 21 3 9 12 12 25 8 10 -3 24 -1 31 4 11 9 78 30
162 50 17 4 34 17 40 30 12 26 25 29 25 5 0 -13 3 -14 11 -6 6 6 17 9 24 6 8
-2 24 1 37 9 23 13 46 16 146 17 45 1 55 5 59 21 7 26 29 26 43 0 9 -17 14
-18 31 -9 15 7 24 7 34 -1 8 -7 20 -8 27 -4 7 5 43 9 80 9 51 0 68 -3 68 -14
0 -9 7 -11 22 -8 12 3 30 1 40 -4 10 -6 41 -11 68 -11 31 -1 51 -6 54 -15 3
-8 22 -13 48 -13 24 0 52 -7 62 -15 11 -8 28 -12 38 -9 11 3 30 -2 44 -11 14
-9 33 -13 44 -10 12 4 28 -1 42 -14 12 -12 30 -21 40 -21 10 0 18 -4 18 -9 0
-9 38 -26 84 -36 15 -3 41 -16 57 -27 27 -20 31 -21 45 -6 15 15 14 18 -17 34
-19 9 -47 27 -64 39 -16 13 -41 26 -54 30 -13 4 -40 14 -60 23 -20 9 -42 15
-48 13 -7 -1 -13 3 -13 9 0 6 -16 10 -37 9 -21 -2 -48 3 -60 9 -12 7 -33 12
-47 12 -14 0 -28 5 -32 11 -3 6 -14 9 -24 6 -11 -3 -21 2 -24 10 -3 8 -16 13
-28 12 -23 -2 -51 3 -118 22 -88 24 -437 34 -517 15z"/>
<path d="M2320 4680 c-8 -5 -12 -12 -9 -15 8 -8 39 5 39 16 0 11 -11 11 -30
-1z"/>
<path d="M1645 4610 c-4 -6 5 -10 20 -10 15 0 24 4 20 10 -3 6 -12 10 -20 10
-8 0 -17 -4 -20 -10z"/>
<path d="M1265 4589 c-22 -5 -65 -15 -95 -21 -30 -6 -73 -18 -95 -28 -22 -9
-59 -20 -82 -24 -23 -3 -57 -15 -75 -25 -18 -10 -50 -22 -72 -26 -39 -6 -46
-9 -104 -38 -19 -9 -39 -17 -46 -17 -7 0 -33 -11 -57 -23 -24 -13 -47 -24 -52
-25 -4 -1 -17 -8 -30 -16 -12 -7 -35 -20 -51 -27 -16 -8 -32 -20 -34 -28 -7
-20 75 -6 108 18 14 10 43 21 65 25 22 4 54 15 70 25 17 9 58 25 93 35 34 11
62 23 62 27 0 6 96 39 115 40 2 0 28 11 57 24 29 14 63 25 76 25 12 0 25 6 28
14 4 10 16 12 44 9 25 -4 50 0 71 11 21 11 35 13 37 6 5 -14 22 -13 56 5 16 9
32 12 35 7 7 -11 132 -23 275 -27 59 -1 111 -7 115 -12 6 -10 93 -35 166 -49
22 -4 47 -8 55 -10 8 -2 29 -6 47 -10 18 -3 38 -12 44 -20 6 -8 26 -14 44 -14
18 0 38 -7 45 -15 7 -8 19 -15 26 -15 7 0 28 -9 46 -20 18 -11 42 -20 54 -20
11 0 36 -11 54 -25 19 -14 41 -25 50 -23 21 3 62 -12 81 -28 23 -21 81 -36 76
-21 -6 20 -101 78 -120 73 -10 -2 -21 2 -24 10 -3 8 -12 14 -20 14 -8 0 -29
11 -46 23 -41 30 -129 67 -159 67 -13 0 -33 7 -44 15 -10 8 -31 15 -46 15 -16
0 -37 9 -48 20 -11 11 -31 20 -44 20 -14 0 -28 5 -32 11 -3 6 -15 8 -27 5 -11
-3 -32 1 -46 8 -14 7 -51 17 -81 21 -30 4 -82 12 -115 17 -33 5 -82 11 -110
13 -27 1 -58 6 -68 10 -10 4 -46 4 -80 0 -77 -9 -96 -10 -127 -3 -14 4 -43 2
-65 -3z"/>
<path d="M2336 4574 c-12 -32 -6 -44 23 -44 15 0 40 -9 55 -21 28 -22 56 -20
56 5 0 9 -12 19 -27 22 -15 4 -39 18 -53 31 -29 27 -45 29 -54 7z"/>
<path d="M1253 4488 c-33 -8 -43 -16 -43 -31 0 -18 4 -19 68 -11 87 10 343 11
349 1 2 -4 15 -4 28 -1 14 3 50 -3 85 -15 76 -26 80 -26 80 3 0 20 -8 26 -47
36 -79 22 -454 34 -520 18z"/>
<path d="M1117 4455 c-15 -8 -34 -12 -41 -9 -8 3 -17 1 -21 -5 -3 -6 -1 -11 5
-11 6 0 8 -5 5 -10 -5 -8 -11 -7 -21 0 -10 9 -21 8 -44 -4 -17 -8 -52 -18 -78
-22 -26 -4 -64 -18 -84 -30 -21 -13 -43 -24 -49 -24 -15 0 -179 -65 -244 -96
-28 -13 -55 -24 -61 -24 -7 0 -17 -6 -23 -14 -10 -12 -8 -17 9 -26 14 -8 25
-8 33 -2 7 6 29 13 50 17 31 6 38 11 34 26 -4 15 -1 18 17 13 12 -3 35 2 51
10 17 9 41 16 55 16 14 0 39 8 55 18 17 10 73 33 125 52 52 18 121 47 153 63
31 16 75 30 97 31 43 2 67 17 56 35 -10 15 -46 14 -79 -4z"/>
<path d="M1840 4421 c0 -22 26 -31 98 -31 41 0 52 -3 52 -16 0 -11 8 -15 29
-12 20 2 38 -5 53 -19 35 -33 78 -35 78 -4 0 21 -76 55 -160 71 -25 5 -58 13
-73 19 -45 17 -77 14 -77 -8z"/>
<path d="M2460 4397 c0 -16 89 -71 99 -61 3 3 -2 10 -12 15 -9 6 -17 18 -17
27 0 15 -2 15 -10 2 -8 -13 -10 -12 -10 3 0 9 -4 17 -9 17 -5 0 -16 3 -25 6
-10 4 -16 1 -16 -9z"/>
<path d="M1212 4381 c-35 -11 -70 -17 -77 -15 -7 3 -23 -4 -34 -15 -12 -12
-34 -21 -52 -21 -17 0 -43 -6 -57 -14 -15 -8 -61 -24 -102 -36 -155 -46 -351
-128 -346 -145 5 -18 54 -17 93 3 21 11 68 29 106 41 37 13 73 32 81 43 8 11
15 15 18 8 2 -8 22 -7 70 6 37 10 65 21 63 25 -3 3 12 9 33 13 21 3 47 14 57
23 11 10 31 19 45 20 14 2 41 4 60 6 19 2 42 7 49 12 14 8 160 27 211 27 46 0
275 -11 300 -15 14 -2 39 -11 57 -20 18 -10 42 -17 53 -17 12 0 53 -9 91 -21
38 -12 76 -19 84 -15 8 3 17 1 20 -4 3 -5 25 -14 48 -21 23 -6 56 -16 72 -23
231 -97 282 -112 273 -83 -6 16 -78 57 -103 57 -11 0 -33 9 -49 19 -17 11 -33
18 -38 15 -4 -3 -20 3 -34 13 -20 13 -29 14 -32 5 -5 -16 -22 -16 -22 1 0 12
-64 37 -97 37 -10 0 -26 7 -36 15 -11 7 -38 17 -60 20 -23 4 -48 12 -55 17 -6
6 -31 12 -55 13 -23 1 -60 10 -82 20 -33 14 -79 18 -265 21 -201 4 -232 2
-288 -15z"/>
<path d="M2160 4330 c0 -11 6 -22 13 -24 16 -4 69 -23 130 -46 40 -16 49 -16
53 -5 8 20 -2 32 -33 38 -16 3 -41 11 -58 18 -16 7 -34 11 -38 10 -4 -1 -15 5
-23 14 -22 21 -44 19 -44 -5z"/>
<path d="M1360 4294 c-36 -6 -84 -12 -107 -13 -55 -1 -143 -22 -143 -34 0 -5
-7 -7 -15 -4 -17 7 -100 -37 -136 -72 -27 -26 -80 -66 -89 -66 -17 -1 -120
-57 -120 -66 0 -6 -4 -8 -10 -4 -5 3 -38 -9 -72 -27 -35 -18 -70 -33 -78 -33
-8 0 -48 -17 -87 -38 -40 -20 -80 -37 -89 -37 -24 0 -60 -33 -56 -52 2 -12 -2
-15 -16 -11 -11 2 -23 0 -27 -7 -15 -25 8 -22 83 8 42 18 82 32 88 32 6 0 19
9 29 20 10 11 28 20 40 20 13 0 28 7 35 15 6 8 22 17 33 20 12 4 58 24 102 45
44 21 100 48 125 60 66 30 100 52 132 83 15 15 30 27 32 27 3 0 22 11 42 25
20 14 48 25 61 25 13 0 33 5 45 11 11 6 32 13 46 15 15 3 34 12 43 20 14 12
18 13 21 2 4 -10 8 -10 22 1 12 10 20 11 24 4 5 -7 32 -7 82 -2 41 5 83 6 94
3 10 -3 29 0 43 7 22 12 26 11 35 -4 5 -10 14 -14 21 -10 15 9 108 11 127 2
73 -33 102 -42 150 -46 30 -3 65 -12 77 -19 26 -16 53 -18 53 -4 0 6 7 10 15
10 8 0 15 -7 15 -15 0 -9 9 -15 25 -15 15 0 25 6 25 14 0 21 -27 38 -49 31
-10 -3 -22 -1 -26 5 -3 5 -14 10 -24 10 -10 0 -63 14 -117 30 -71 22 -111 29
-148 26 -28 -2 -56 1 -63 6 -18 15 -218 16 -293 2z"/>
<path d="M2417 4233 c7 -18 53 -45 68 -39 7 2 16 -2 19 -10 7 -18 47 -15 54 4
2 6 -2 12 -8 12 -7 0 -24 8 -38 19 -32 22 -102 33 -95 14z"/>
<path d="M1449 4216 c-7 -7 -117 -18 -167 -17 -23 1 -58 -6 -78 -14 -20 -8
-48 -15 -61 -15 -32 0 -95 -29 -87 -41 7 -11 57 -12 69 0 36 31 451 47 585 22
30 -5 82 -15 115 -21 64 -12 75 -14 173 -26 34 -4 65 -11 68 -15 2 -4 11 -6
18 -3 8 3 17 1 21 -5 3 -6 17 -11 30 -11 13 0 28 -6 32 -13 4 -7 42 -27 83
-46 41 -18 102 -46 134 -62 37 -18 75 -29 100 -29 23 0 51 -7 62 -15 10 -8 30
-15 44 -15 15 0 31 -5 38 -12 6 -6 15 -9 19 -5 12 13 -32 43 -82 56 -28 7 -78
28 -112 47 -34 19 -73 34 -88 34 -14 0 -40 8 -58 17 -52 27 -191 83 -208 83
-9 0 -30 7 -45 15 -16 8 -45 15 -65 15 -20 0 -50 7 -65 15 -16 8 -46 15 -66
15 -20 0 -40 5 -43 10 -4 6 -14 9 -23 6 -10 -3 -35 -1 -57 5 -22 5 -80 12
-130 14 -49 3 -104 7 -121 10 -17 3 -33 3 -35 1z"/>
<path d="M860 4174 c-30 -8 -70 -24 -88 -35 -18 -10 -37 -17 -41 -14 -18 11
-352 -139 -358 -161 -5 -15 70 -9 98 9 13 8 40 18 60 21 21 4 48 15 60 25 13
10 39 22 57 26 18 4 56 22 85 41 28 19 57 34 65 34 7 0 32 9 54 20 23 11 47
20 54 20 6 0 17 7 24 15 16 19 5 19 -70 -1z"/>
<path d="M2582 4179 c5 -15 56 -34 65 -25 10 9 -8 23 -40 30 -21 5 -28 3 -25
-5z"/>
<path d="M2117 4173 c-14 -13 -6 -22 25 -28 18 -4 48 -16 68 -26 45 -24 85
-28 85 -10 0 7 -25 22 -55 33 -30 11 -59 24 -64 29 -12 11 -50 12 -59 2z"/>
<path d="M2465 4130 c-10 -16 2 -27 36 -34 17 -3 44 -17 61 -31 16 -14 35 -25
42 -25 6 0 20 -10 30 -21 27 -32 43 -9 20 30 -17 29 -65 56 -91 52 -7 -1 -13
2 -13 7 0 10 -44 32 -65 32 -8 0 -17 -4 -20 -10z"/>
<path d="M461 4112 c-53 -26 -54 -47 -1 -38 53 8 80 22 80 41 0 20 -37 19 -79
-3z"/>
<path d="M1460 4113 c-15 -6 -30 -23 -30 -34 0 -9 131 -20 158 -13 12 4 22 12
22 20 0 7 -10 16 -22 18 -48 10 -114 14 -128 9z"/>
<path d="M1170 4102 c-14 -2 -29 -7 -35 -11 -5 -4 -30 -9 -55 -10 -55 -2 -127
-26 -200 -66 -99 -55 -228 -115 -249 -115 -11 0 -26 -6 -33 -13 -7 -7 -62 -37
-123 -67 -134 -67 -185 -98 -185 -116 0 -17 5 -17 58 1 65 23 255 127 291 159
24 22 79 45 126 53 17 3 41 13 55 23 14 9 47 27 75 39 27 12 57 29 67 38 10 9
18 13 18 10 0 -3 15 -1 33 4 17 5 57 14 87 19 30 5 77 13 103 18 26 5 80 6
119 2 53 -4 71 -3 75 7 3 7 9 10 14 7 5 -3 9 0 9 5 0 6 -3 12 -7 12 -19 3
-221 4 -243 1z"/>
<path d="M1626 4103 c-25 -25 48 -61 127 -62 20 0 46 -5 57 -11 10 -6 23 -9
27 -8 10 3 73 -30 95 -49 9 -8 52 -27 95 -42 43 -15 99 -39 124 -54 25 -15 50
-27 56 -27 6 0 28 -14 49 -31 29 -23 46 -29 65 -25 23 4 26 2 22 -14 -4 -14 2
-22 20 -29 14 -5 28 -15 32 -20 3 -6 13 -11 21 -11 8 0 22 -7 32 -15 27 -25
141 -97 216 -139 38 -21 85 -53 105 -72 20 -18 49 -36 65 -40 15 -3 33 -15 39
-25 14 -23 37 -25 37 -4 0 8 -4 15 -10 15 -5 0 -30 20 -55 44 -25 25 -63 53
-85 62 -22 10 -40 22 -40 26 0 5 -20 18 -45 30 -25 12 -47 29 -50 38 -3 9 -45
36 -93 60 -48 24 -104 59 -125 77 -20 18 -42 33 -48 33 -6 0 -25 11 -42 24
-40 30 -183 106 -201 106 -17 0 -172 76 -180 88 -3 6 -19 13 -35 17 -16 3 -35
13 -42 21 -7 8 -30 14 -59 14 -26 0 -60 4 -76 9 -45 14 -91 21 -98 14z"/>
<path d="M2322 4089 c2 -8 22 -23 44 -33 21 -11 50 -25 64 -32 14 -6 57 -24
95 -38 39 -15 78 -31 87 -37 23 -12 58 -12 58 1 0 6 -21 20 -47 31 -27 12 -55
26 -63 30 -60 35 -165 78 -214 86 -21 4 -27 2 -24 -8z"/>
<path d="M1950 4061 c0 -6 9 -11 19 -11 10 0 21 -6 24 -14 3 -7 22 -17 43 -21
21 -3 54 -15 74 -25 19 -9 50 -21 67 -25 18 -3 35 -11 39 -16 6 -10 74 -47 88
-47 5 0 12 -4 15 -9 3 -4 26 -22 50 -38 24 -16 57 -42 72 -56 16 -15 68 -46
116 -70 49 -24 90 -45 93 -48 10 -11 69 -51 76 -51 4 0 31 -21 60 -46 30 -25
58 -43 63 -39 13 7 -7 65 -22 65 -6 0 -31 17 -56 38 -25 21 -61 44 -80 50 -19
7 -52 27 -75 45 -23 18 -68 46 -101 61 -33 16 -66 31 -74 35 -27 13 -26 34 0
28 38 -8 130 -50 173 -77 101 -65 126 -73 126 -40 0 16 -22 32 -102 70 -56 28
-114 50 -129 50 -43 0 -179 46 -221 75 -20 14 -42 25 -48 25 -6 0 -54 21 -106
46 -93 45 -184 67 -184 45z"/>
<path d="M1205 4024 c-38 -8 -79 -18 -90 -23 -11 -6 -36 -13 -55 -16 -19 -4
-55 -17 -80 -29 -124 -61 -157 -76 -174 -78 -11 -2 -21 -9 -24 -17 -3 -9 2
-11 17 -6 27 8 27 -2 -1 -24 -14 -12 -17 -20 -10 -25 6 -3 27 8 47 25 41 36
101 69 127 69 10 0 18 4 18 9 0 5 15 12 33 16 45 9 77 26 77 42 0 15 16 17 25
3 10 -16 47 -12 83 10 18 11 46 20 62 20 39 0 83 18 75 30 -8 13 -42 11 -130
-6z"/>
<path d="M1578 4024 c-4 -3 -39 -6 -78 -5 -43 1 -85 -5 -104 -13 -17 -8 -48
-17 -68 -21 -55 -9 -62 -29 -7 -21 24 3 114 7 199 7 158 1 234 -9 330 -46 25
-9 61 -23 80 -30 19 -7 36 -19 38 -27 1 -8 28 -23 60 -33 31 -10 82 -33 112
-51 30 -18 71 -41 92 -51 20 -10 52 -31 71 -46 19 -15 44 -29 55 -32 11 -2 30
-13 41 -24 12 -12 29 -21 38 -21 10 0 26 -9 38 -20 11 -12 40 -34 65 -50 93
-62 177 -121 248 -177 61 -48 120 -83 138 -83 2 0 4 7 4 15 0 8 -12 22 -27 32
-16 10 -36 28 -46 40 -10 13 -37 34 -61 48 -23 13 -55 38 -71 55 -16 16 -33
30 -37 30 -5 0 -21 8 -36 19 -15 10 -61 40 -102 66 -41 26 -86 56 -100 67 -14
10 -44 27 -68 38 -24 11 -69 38 -99 60 -31 22 -60 40 -64 40 -4 0 -28 14 -52
30 -25 17 -51 30 -59 30 -7 0 -46 16 -87 35 -40 19 -79 35 -86 35 -7 0 -26 11
-42 24 -15 12 -41 26 -58 30 -100 23 -125 28 -170 35 -27 5 -57 11 -66 15 -8
4 -18 4 -21 0z"/>
<path d="M1425 3931 c-3 -3 -56 -6 -118 -7 -62 -2 -119 -5 -127 -8 -8 -3 -24
-7 -35 -9 -11 -2 -29 -8 -40 -14 -11 -5 -35 -13 -53 -17 -19 -3 -46 -15 -62
-26 -15 -11 -35 -20 -43 -20 -17 0 -75 -28 -82 -41 -4 -5 -13 -9 -21 -9 -8 0
-50 -21 -94 -46 -50 -29 -87 -45 -99 -41 -11 3 -25 -1 -32 -9 -6 -8 -21 -14
-33 -14 -11 0 -54 -18 -94 -40 -40 -22 -79 -40 -86 -40 -7 0 -21 -9 -31 -20
-10 -11 -22 -20 -26 -20 -4 0 -35 -18 -68 -40 -64 -43 -84 -72 -29 -44 17 9
56 25 86 35 31 11 76 33 102 49 26 17 50 30 53 30 3 0 32 16 64 35 32 19 67
35 78 35 11 0 36 11 55 24 19 13 49 26 66 30 18 4 53 20 78 37 26 16 53 29 62
29 8 0 32 9 54 20 22 11 48 20 59 20 11 0 22 4 25 9 6 9 62 27 159 52 26 6 49
15 52 18 2 4 97 6 212 4 243 -3 313 -14 455 -71 35 -14 58 -11 58 8 0 18 -139
69 -240 90 -59 11 -296 20 -305 11z"/>
<path d="M2677 3873 c-14 -13 -6 -20 33 -33 48 -16 64 -5 31 21 -23 19 -52 25
-64 12z"/>
<path d="M699 3851 c-21 -17 -22 -20 -7 -26 19 -8 70 14 76 33 6 19 -43 14
-69 -7z"/>
<path d="M1360 3849 c-47 -4 -105 -14 -130 -21 -25 -7 -49 -13 -55 -13 -5 -1
-23 -6 -38 -13 -16 -7 -35 -12 -44 -12 -9 0 -34 -9 -57 -19 -23 -10 -85 -36
-139 -57 -54 -21 -101 -42 -103 -46 -3 -4 -13 -8 -23 -8 -10 0 -39 -11 -65
-25 -26 -14 -55 -25 -65 -25 -10 0 -24 -7 -31 -15 -7 -8 -17 -15 -22 -15 -23
0 -122 -57 -136 -78 -12 -19 -21 -23 -44 -18 -15 3 -28 1 -28 -3 0 -5 -31 -24
-69 -41 -39 -18 -80 -43 -92 -56 -12 -13 -28 -24 -36 -24 -7 0 -13 -9 -13 -21
0 -19 1 -19 16 -5 8 9 24 16 35 16 11 0 49 18 85 40 36 22 70 40 74 40 12 0
72 29 105 50 17 11 37 22 45 25 8 3 29 13 45 22 83 45 215 109 255 124 25 9
74 28 110 42 36 13 80 30 98 36 17 6 47 16 65 22 17 6 46 13 62 16 17 2 39 8
50 13 55 23 148 32 296 29 112 -2 162 0 170 8 10 10 7 14 -12 21 -37 14 -215
20 -309 11z"/>
<path d="M570 3781 c-35 -28 -75 -53 -88 -56 -13 -3 -33 -15 -45 -25 -11 -11
-28 -20 -38 -20 -9 0 -37 -16 -61 -35 -71 -58 -80 -67 -67 -79 8 -8 13 -7 16
1 3 7 21 20 41 29 20 8 48 21 62 29 14 7 50 27 80 43 30 16 83 37 118 46 108
27 200 74 175 89 -4 3 -35 -7 -68 -22 -123 -56 -157 -58 -74 -5 38 23 46 43
23 51 -6 2 -39 -19 -74 -46z"/>
<path d="M1740 3821 c-21 -6 -16 -10 40 -30 85 -31 153 -40 144 -18 -6 17 -41
32 -94 42 -19 4 -42 8 -50 10 -8 1 -26 0 -40 -4z"/>
<path d="M1946 3781 c-11 -17 0 -27 51 -46 80 -30 285 -125 314 -146 15 -10
32 -19 38 -19 6 0 19 -7 29 -15 15 -14 108 -82 197 -145 17 -12 55 -37 85 -56
30 -19 62 -42 70 -52 36 -42 183 -142 209 -142 22 0 10 31 -19 48 -16 10 -39
30 -50 45 -11 14 -31 29 -43 33 -12 3 -35 19 -52 34 -16 15 -46 36 -65 47 -19
10 -47 29 -61 43 -57 53 -198 151 -264 182 -54 25 -81 42 -102 61 -24 21 -163
87 -184 87 -9 0 -22 6 -28 14 -6 7 -26 16 -44 19 -17 4 -42 9 -53 12 -12 4
-25 2 -28 -4z"/>
<path d="M1385 3763 c-16 -3 -34 -8 -39 -13 -5 -5 -22 -6 -37 -3 -31 6 -89
-13 -89 -29 0 -6 -8 -7 -17 -4 -20 8 -106 -10 -146 -30 -16 -8 -34 -14 -41
-14 -17 0 -66 -24 -66 -32 0 -3 -19 -9 -42 -13 -44 -7 -261 -98 -288 -120 -8
-7 -25 -16 -38 -20 -56 -17 -263 -124 -337 -175 -50 -34 -65 -48 -65 -63 0
-20 132 52 180 98 14 14 34 25 44 25 10 0 33 9 50 19 17 11 51 25 76 32 25 7
50 16 56 21 30 22 246 129 251 124 3 -3 20 2 37 12 17 10 51 24 76 32 25 7 68
21 95 30 79 28 164 51 201 55 19 2 42 9 50 16 10 8 50 14 111 15 55 1 100 7
106 13 25 25 -37 37 -128 24z"/>
<path d="M1539 3754 c-10 -13 -10 -17 2 -25 36 -23 84 2 56 30 -16 16 -42 14
-58 -5z"/>
<path d="M1627 3754 c-14 -14 -7 -26 13 -21 11 3 20 1 20 -4 0 -5 16 -9 36 -9
19 0 43 -4 52 -9 9 -4 38 -11 65 -14 35 -5 47 -3 47 7 0 13 -63 37 -115 43
-16 2 -48 6 -70 9 -22 3 -43 2 -48 -2z"/>
<path d="M2765 3740 c-3 -5 -1 -10 4 -10 6 0 10 -5 9 -12 -2 -6 5 -14 15 -16
24 -5 22 25 -2 38 -13 7 -22 7 -26 0z"/>
<path d="M1880 3695 c0 -17 19 -26 90 -45 48 -13 53 -15 115 -48 22 -11 74
-37 115 -57 90 -43 246 -135 290 -171 8 -7 33 -29 54 -49 22 -19 50 -38 63
-41 13 -4 23 -10 23 -15 0 -5 15 -16 33 -25 17 -9 38 -25 45 -36 7 -10 26 -25
41 -33 16 -8 75 -53 131 -100 57 -47 109 -85 116 -85 8 0 14 9 14 20 0 11 -7
20 -15 20 -8 0 -15 4 -15 10 0 15 -71 86 -100 100 -14 7 -32 19 -40 26 -64 56
-98 84 -104 84 -12 0 -129 86 -155 114 -14 14 -31 26 -39 26 -7 0 -37 19 -65
43 -73 60 -157 114 -189 122 -15 4 -32 13 -39 21 -6 8 -18 14 -25 14 -8 0 -49
16 -91 37 -43 20 -101 47 -128 60 -59 27 -125 31 -125 8z"/>
<path d="M2830 3690 c0 -5 5 -10 11 -10 5 0 7 5 4 10 -3 6 -8 10 -11 10 -2 0
-4 -4 -4 -10z"/>
<path d="M1305 3666 c-107 -33 -109 -60 -3 -40 40 8 114 15 165 17 92 2 110 7
99 26 -9 14 -212 12 -261 -3z"/>
<path d="M1666 3672 c-3 -5 -19 -7 -37 -4 -24 3 -30 1 -27 -9 3 -8 16 -14 29
-14 13 0 34 -6 47 -13 12 -7 32 -10 43 -7 23 8 127 -22 250 -71 48 -19 94 -34
103 -34 9 0 24 -8 34 -18 9 -9 37 -24 62 -32 75 -24 221 -113 243 -147 4 -7
14 -13 22 -13 7 0 16 -9 20 -19 3 -10 17 -22 30 -25 15 -4 42 -32 71 -74 27
-37 103 -122 170 -190 68 -68 124 -127 126 -131 2 -5 30 -31 63 -59 33 -28 81
-70 108 -93 59 -52 63 -30 7 38 -49 58 -30 39 -175 179 -66 63 -124 119 -130
125 -71 69 -125 129 -125 139 0 12 10 4 139 -110 35 -30 68 -57 74 -59 7 -2
46 -38 88 -80 85 -86 135 -131 144 -131 11 0 -7 44 -32 78 -14 18 -36 38 -49
44 -13 6 -24 16 -24 22 0 18 -163 165 -210 190 -25 13 -58 38 -74 55 -17 17
-37 31 -46 31 -9 0 -25 9 -35 20 -10 11 -22 20 -27 20 -12 0 -91 56 -128 90
-23 22 -73 55 -144 97 -12 7 -39 21 -61 31 -22 10 -49 23 -60 29 -37 21 -88
43 -99 43 -7 0 -30 9 -51 21 -52 27 -130 49 -178 49 -21 0 -49 7 -62 16 -14 9
-33 14 -44 11 -10 -2 -25 0 -34 4 -9 5 -18 5 -21 1z"/>
<path d="M1120 3615 c-7 -8 -16 -13 -20 -10 -8 5 -99 -23 -115 -36 -6 -4 -31
-11 -55 -15 -23 -4 -52 -16 -64 -28 l-21 -21 27 -3 c15 -2 54 8 85 21 32 14
92 35 133 47 104 31 122 39 115 50 -10 15 -71 12 -85 -5z"/>
<path d="M1497 3594 c-3 -3 -45 -6 -92 -5 -56 0 -100 -5 -125 -15 -21 -8 -44
-14 -51 -13 -22 4 -124 -26 -195 -57 -16 -7 -67 -25 -112 -39 -81 -26 -102
-39 -85 -56 9 -9 147 31 165 49 7 7 22 12 35 12 21 0 40 6 113 38 19 8 58 17
85 19 28 3 61 8 75 13 14 5 83 12 154 14 71 3 131 8 134 10 2 3 2 12 -1 21 -5
10 -20 15 -50 15 -24 0 -46 -3 -50 -6z"/>
<path d="M1634 3576 c-10 -25 5 -36 49 -36 23 0 70 -6 105 -14 34 -7 64 -10
67 -8 11 11 4 32 -10 32 -9 0 -28 6 -43 14 -15 7 -57 16 -95 20 -55 5 -68 4
-73 -8z"/>
<path d="M1888 3533 c-38 -10 -14 -29 65 -52 45 -13 90 -24 100 -25 10 -1 22
-7 25 -12 10 -13 61 -40 107 -54 70 -23 225 -149 347 -282 200 -218 206 -223
219 -211 10 10 9 17 -9 36 -12 13 -22 29 -22 35 0 7 -4 12 -9 12 -5 0 -41 37
-80 83 -40 45 -75 85 -79 89 -65 65 -143 138 -148 138 -3 0 -24 15 -47 33 -52
42 -110 77 -127 77 -7 0 -18 6 -24 13 -15 18 -171 88 -212 94 -19 3 -39 12
-45 19 -11 14 -28 16 -61 7z"/>
<path d="M795 3500 c-52 -12 -138 -61 -185 -106 -86 -84 -170 -152 -213 -173
-23 -12 -62 -37 -87 -56 -25 -19 -50 -38 -57 -41 -7 -3 -33 -25 -58 -49 -25
-24 -59 -56 -76 -71 -30 -28 -37 -44 -19 -44 6 0 44 27 86 60 41 33 86 63 99
66 13 3 31 17 40 31 9 13 29 30 43 36 43 19 248 174 266 201 8 14 51 43 95 66
109 57 143 97 66 80z"/>
<path d="M1377 3499 c-8 -5 -27 -8 -43 -8 -49 1 -211 -42 -314 -83 -13 -5 -58
-21 -100 -35 -41 -15 -76 -30 -78 -35 -2 -4 -9 -8 -16 -8 -7 0 -32 -13 -54
-30 -23 -16 -46 -30 -51 -30 -6 0 -17 -10 -25 -21 -8 -12 -24 -27 -35 -33 -11
-6 -54 -38 -96 -71 -42 -33 -88 -66 -101 -73 -13 -7 -24 -17 -24 -22 0 -5 -33
-31 -72 -58 -40 -27 -82 -59 -92 -71 -11 -11 -27 -21 -37 -21 -10 0 -39 -18
-64 -40 -26 -22 -61 -47 -79 -54 -20 -8 -38 -26 -46 -45 -14 -35 -7 -53 13
-30 6 8 38 32 71 54 32 21 80 58 106 82 26 23 71 51 100 63 29 11 76 40 104
64 28 24 70 55 93 70 23 14 47 35 53 46 6 11 16 20 23 20 7 0 30 20 52 45 22
25 45 45 51 45 7 0 35 16 63 35 28 19 54 35 59 35 4 0 26 13 48 29 21 16 55
31 74 34 19 2 73 18 120 35 47 17 111 36 143 43 31 8 57 16 57 20 0 24 433 25
462 2 7 -6 31 -13 53 -17 22 -4 64 -16 93 -27 29 -10 61 -19 71 -19 10 0 32
-7 47 -15 16 -8 45 -15 64 -15 19 0 44 -7 54 -15 11 -8 26 -15 33 -15 14 0 55
-29 137 -97 22 -18 46 -33 53 -33 7 0 13 -4 13 -9 0 -5 35 -45 78 -88 76 -78
183 -198 252 -284 43 -53 239 -249 249 -249 4 0 32 -18 61 -40 29 -22 58 -40
63 -40 19 0 1 45 -23 57 -14 6 -42 30 -64 53 -21 22 -55 53 -75 67 -35 26
-100 92 -101 103 -1 13 -408 439 -420 440 -3 0 -32 24 -63 54 -32 30 -86 67
-120 84 -89 42 -184 75 -196 67 -6 -3 -24 3 -40 14 -16 12 -38 21 -49 21 -11
0 -38 6 -60 14 -23 8 -68 15 -100 14 -40 -1 -67 5 -83 16 -26 18 -109 22 -109
5 0 -5 -5 -7 -12 -3 -17 11 -153 13 -171 3z"/>
<path d="M1442 3419 c-13 -5 -53 -10 -90 -12 -37 -2 -87 -10 -112 -16 -119
-33 -150 -44 -156 -52 -3 -5 -16 -9 -28 -9 -13 0 -29 -7 -36 -15 -24 -29 1
-32 60 -8 33 13 64 21 69 18 5 -3 11 0 13 5 7 22 372 67 442 55 17 -3 51 -8
76 -10 81 -9 120 -17 126 -26 3 -5 13 -9 22 -9 10 0 34 -9 55 -20 20 -11 43
-20 50 -20 8 0 36 -16 63 -35 27 -19 54 -35 60 -35 7 0 14 -7 18 -15 3 -8 14
-15 23 -15 10 0 33 -13 51 -30 18 -16 39 -30 46 -30 7 0 31 -16 53 -35 23 -19
46 -35 52 -35 6 0 11 -4 11 -8 0 -5 21 -34 48 -64 26 -30 58 -70 72 -87 14
-18 37 -47 53 -65 15 -19 27 -37 27 -41 0 -4 25 -34 55 -67 31 -33 63 -72 72
-87 60 -95 340 -421 387 -450 36 -23 66 -27 66 -11 0 6 -34 45 -75 86 -41 41
-75 78 -75 82 0 5 -18 26 -40 47 -22 21 -40 45 -40 52 0 8 -7 16 -15 19 -8 3
-23 20 -34 37 -11 18 -40 52 -65 77 -25 25 -46 50 -46 56 0 5 -14 23 -31 40
-17 16 -51 55 -75 88 -24 32 -55 67 -69 77 -13 11 -26 27 -29 37 -5 14 -78
100 -128 150 -61 61 -139 126 -168 141 -19 11 -44 28 -54 40 -11 12 -24 21
-31 21 -6 0 -43 24 -81 54 -39 29 -83 56 -100 59 -16 3 -58 13 -94 22 -36 9
-77 18 -91 19 -14 2 -30 5 -35 8 -5 4 -52 9 -104 13 -52 4 -106 8 -121 9 -14
2 -35 -1 -47 -5z"/>
<path d="M480 3361 c-133 -72 -238 -141 -279 -182 -14 -14 -38 -33 -54 -43
-31 -21 -34 -34 -11 -43 10 -3 29 8 53 31 20 20 44 36 52 36 8 0 37 22 63 49
27 28 52 49 55 48 17 -4 212 111 226 132 15 25 -30 13 -105 -28z"/>
<path d="M771 3396 c-7 -8 -24 -17 -38 -21 -15 -3 -51 -29 -81 -56 -30 -28
-71 -58 -91 -69 -20 -10 -42 -28 -49 -39 -6 -11 -29 -32 -50 -45 -20 -14 -62
-43 -92 -65 -30 -22 -75 -53 -100 -68 -49 -29 -61 -43 -54 -55 3 -4 -7 -8 -21
-8 -18 0 -31 -9 -43 -29 -9 -17 -24 -32 -33 -34 -10 -3 -22 -14 -28 -26 -21
-39 14 -24 89 39 39 33 76 60 82 60 5 0 30 15 56 33 26 17 55 37 64 42 56 32
187 132 188 142 0 7 17 23 38 37 20 13 46 33 56 45 11 12 36 31 55 43 48 29
91 70 85 80 -8 12 -20 10 -33 -6z"/>
<path d="M1500 3340 c-8 -5 -35 -10 -58 -10 -31 0 -67 -12 -123 -40 -44 -22
-87 -40 -97 -40 -9 0 -26 -7 -36 -15 -11 -8 -29 -15 -41 -15 -11 0 -37 -11
-57 -25 -20 -14 -41 -25 -45 -25 -16 0 -212 -101 -224 -116 -18 -22 -4 -28 28
-11 15 8 62 29 103 47 41 17 82 36 90 41 22 13 69 35 120 54 49 18 105 42 132
56 10 5 27 9 37 9 11 0 23 5 26 10 3 6 17 10 30 10 13 0 26 4 29 9 10 15 166
33 220 25 28 -4 57 -7 65 -5 7 1 24 -7 37 -20 18 -17 30 -20 58 -15 23 4 36 3
36 -3 0 -13 69 -43 81 -35 5 3 9 -2 9 -10 0 -9 12 -19 28 -22 15 -4 37 -16 50
-28 13 -11 33 -25 46 -31 13 -5 43 -33 67 -62 24 -28 73 -87 109 -130 36 -42
76 -88 90 -101 61 -57 70 -67 70 -78 0 -6 9 -19 20 -29 10 -9 37 -47 59 -84
22 -36 65 -97 96 -136 31 -38 69 -91 83 -117 15 -27 34 -50 42 -53 8 -3 23
-17 33 -32 22 -34 77 -115 114 -167 15 -22 33 -46 38 -55 6 -9 43 -49 82 -89
62 -62 76 -72 98 -66 15 4 25 2 25 -5 0 -6 -4 -11 -10 -11 -16 0 -11 -17 7
-24 15 -6 32 8 33 27 0 5 -22 32 -50 61 -27 29 -50 57 -50 62 0 5 -17 20 -38
33 -21 13 -43 35 -50 50 -6 14 -32 48 -57 74 -25 27 -45 53 -45 58 0 4 -28 41
-63 81 -34 40 -76 91 -92 112 -17 22 -46 60 -66 85 -19 26 -70 97 -113 158
-42 62 -90 125 -106 140 -17 15 -30 33 -30 39 0 7 -45 55 -101 108 -55 53 -99
101 -97 107 6 19 157 -120 234 -216 41 -52 78 -95 83 -95 4 0 24 -30 45 -67
20 -38 61 -97 89 -132 29 -35 59 -74 67 -87 20 -30 75 -96 122 -144 20 -21 46
-56 57 -78 11 -22 25 -44 31 -47 6 -4 22 -24 36 -46 21 -35 94 -109 113 -117
4 -1 15 4 26 12 18 13 18 16 -19 60 -20 25 -44 46 -52 46 -7 0 -25 17 -39 38
-96 144 -183 252 -202 252 -5 0 -16 15 -25 33 -9 17 -41 61 -72 96 -31 36 -56
68 -56 71 0 4 -13 25 -30 46 -29 39 -44 58 -100 125 -16 20 -30 41 -30 46 0 6
-26 34 -57 64 -31 30 -75 72 -98 95 -42 43 -101 78 -116 68 -5 -3 -9 1 -9 8 0
13 -98 78 -118 78 -5 0 -16 7 -23 16 -16 19 -99 57 -107 49 -3 -3 -12 1 -21 9
-22 20 -153 53 -236 61 -38 3 -81 8 -95 10 -14 3 -32 1 -40 -5z"/>
<path d="M2050 3328 c0 -8 30 -31 68 -53 119 -69 240 -177 350 -315 42 -52 91
-110 110 -129 19 -19 61 -68 94 -110 33 -42 88 -105 122 -141 34 -36 74 -84
89 -108 38 -59 170 -192 190 -192 21 0 21 2 1 42 -9 18 -40 53 -69 78 -29 25
-58 54 -64 65 -41 74 -67 107 -139 184 -45 47 -100 109 -122 136 -23 28 -49
59 -59 70 -10 11 -52 59 -93 107 -90 103 -258 268 -273 268 -6 0 -26 15 -44
34 -19 19 -55 41 -80 50 -26 8 -55 18 -64 22 -11 4 -17 1 -17 -8z"/>
<path d="M1200 3310 c-25 -9 -52 -20 -60 -23 -8 -4 -27 -11 -42 -16 -27 -10
-39 -31 -18 -31 21 0 148 39 179 54 32 17 34 37 3 35 -9 -1 -37 -9 -62 -19z"/>
<path d="M910 3274 c-36 -19 -72 -40 -80 -46 -8 -7 -20 -12 -26 -10 -6 1 -33
-18 -59 -43 -27 -25 -50 -45 -51 -45 -10 0 -128 -87 -137 -101 -7 -11 -15 -19
-19 -19 -4 0 -18 -10 -32 -22 -13 -13 -39 -34 -56 -47 -59 -45 -104 -121 -71
-121 5 0 37 28 73 63 74 71 129 117 139 117 4 0 22 13 41 30 79 71 90 80 94
80 3 0 40 27 82 60 43 33 84 60 92 60 8 0 35 18 60 40 55 49 37 50 -50 4z"/>
<path d="M1465 3250 c-64 -10 -114 -26 -134 -44 -9 -8 -41 -22 -71 -31 -103
-31 -141 -47 -168 -70 -15 -12 -56 -31 -92 -40 -36 -10 -72 -24 -81 -32 -8 -7
-20 -13 -26 -13 -6 0 -16 -6 -22 -14 -6 -7 -26 -16 -43 -20 -44 -9 -177 -87
-184 -108 -3 -10 -10 -18 -15 -18 -19 0 -99 -61 -99 -75 0 -8 -6 -15 -14 -15
-8 0 -24 -12 -36 -27 -12 -16 -68 -78 -126 -140 -57 -61 -104 -115 -104 -118
0 -4 -28 -35 -62 -69 -85 -83 -163 -174 -163 -189 0 -6 8 -13 19 -15 13 -3 45
24 108 90 49 51 100 109 114 128 13 20 56 69 96 110 72 74 81 84 147 174 19
25 40 46 47 46 7 0 22 13 32 28 11 15 33 34 49 42 15 8 42 24 58 36 17 12 57
36 91 52 34 17 75 42 91 56 17 14 33 23 36 20 3 -3 34 10 69 29 35 19 79 38
98 42 19 4 47 16 62 27 50 35 183 91 233 98 28 4 86 13 129 20 62 9 89 9 122
0 24 -7 59 -9 78 -6 25 5 37 3 43 -8 4 -7 26 -20 48 -28 58 -20 159 -74 174
-92 8 -9 19 -16 25 -16 6 0 31 -18 55 -40 24 -22 49 -40 55 -40 6 0 35 -36 64
-81 29 -44 65 -87 81 -97 29 -18 111 -107 111 -122 0 -14 69 -112 111 -157 21
-23 39 -46 39 -51 0 -5 9 -19 20 -32 11 -13 23 -35 27 -49 3 -14 14 -36 25
-47 10 -12 18 -25 17 -30 -1 -5 1 -16 4 -24 3 -8 17 -44 30 -80 35 -93 75
-171 106 -202 14 -14 40 -51 56 -81 17 -30 44 -73 60 -96 92 -129 89 -126 130
-129 39 -3 39 -3 21 17 -10 11 -27 23 -37 26 -11 4 -19 11 -19 16 0 14 26 11
40 -6 13 -16 50 -21 50 -6 0 11 -85 81 -98 81 -6 0 -36 34 -68 76 -33 42 -69
87 -81 100 -12 13 -24 32 -27 42 -4 11 -15 27 -26 37 -11 10 -20 23 -20 29 0
6 -9 29 -21 50 -11 21 -37 86 -58 145 -37 107 -73 166 -154 254 -22 23 -50 64
-64 91 -34 68 -97 150 -128 166 -13 7 -37 31 -51 52 -15 22 -44 52 -65 69 -20
16 -49 49 -63 73 -23 39 -87 91 -157 128 -15 7 -53 27 -85 44 -33 17 -77 34
-99 37 -58 8 -81 14 -104 26 -22 12 -128 12 -206 1z"/>
<path d="M151 3231 c-10 -6 -10 -10 -1 -16 13 -8 24 -1 19 14 -3 6 -10 7 -18
2z"/>
<path d="M990 3225 c-14 -8 -36 -19 -50 -24 -52 -22 -160 -93 -160 -106 0 -12
-90 -82 -118 -92 -17 -7 -48 -32 -104 -85 -16 -16 -33 -28 -38 -28 -4 0 -29
-21 -54 -47 -25 -27 -87 -91 -138 -144 -51 -53 -106 -115 -123 -137 -16 -22
-42 -46 -58 -53 -15 -6 -47 -39 -72 -73 -25 -33 -52 -70 -60 -81 -15 -20 -19
-35 -9 -35 17 0 113 73 133 102 13 18 52 59 87 91 34 31 73 74 85 95 13 20 35
48 49 63 14 14 33 34 42 45 10 10 40 37 67 59 27 22 50 45 50 50 1 11 151 127
219 169 28 18 44 36 48 54 4 19 22 37 62 63 81 51 101 62 152 79 26 9 45 21
45 30 0 20 -25 23 -55 5z"/>
<path d="M1459 3159 c-141 -20 -315 -107 -423 -211 -34 -32 -64 -58 -68 -58
-3 0 -25 -16 -48 -35 -23 -19 -48 -35 -55 -35 -21 0 -183 -178 -233 -255 -25
-38 -48 -72 -51 -75 -19 -16 -111 -130 -111 -137 0 -4 -19 -26 -41 -48 -49
-48 -101 -117 -153 -203 -21 -35 -44 -66 -52 -69 -7 -3 -16 -14 -19 -24 -4
-11 -28 -46 -54 -77 -26 -31 -60 -78 -75 -104 -27 -47 -27 -48 -7 -48 12 0 21
5 21 10 0 6 23 32 50 57 28 26 56 56 63 68 7 13 22 41 35 64 12 22 27 41 32
41 5 0 11 9 15 20 3 10 24 41 46 67 21 26 39 53 39 59 0 12 13 28 123 149 110
122 147 170 147 190 0 10 16 37 35 61 19 23 35 45 35 49 0 3 15 21 33 39 17
18 38 39 44 47 24 26 48 46 91 74 23 15 42 33 42 39 0 6 31 31 68 56 37 25 87
63 112 85 38 34 88 63 240 135 8 4 40 13 70 20 30 7 65 16 78 21 39 15 120 10
179 -11 32 -11 71 -20 89 -20 30 0 114 -38 144 -66 8 -7 45 -40 82 -71 37 -32
81 -77 98 -101 17 -24 37 -45 45 -48 7 -3 21 -20 30 -37 9 -18 24 -44 33 -59
41 -63 82 -139 82 -149 0 -7 11 -31 25 -54 13 -23 22 -45 19 -48 -3 -3 2 -19
11 -37 9 -18 14 -34 11 -38 -3 -3 1 -16 9 -28 31 -48 48 -251 23 -281 -5 -7
-7 -17 -3 -22 8 -13 -17 -171 -27 -171 -4 0 -8 -8 -8 -17 0 -23 -72 -83 -98
-83 -11 0 -25 -6 -31 -14 -33 -40 -284 -56 -337 -21 -13 8 -28 15 -35 15 -6 0
-31 14 -56 30 -24 17 -50 30 -57 30 -13 0 -62 47 -80 78 -51 87 -67 125 -57
135 6 6 11 18 11 27 -1 12 -3 11 -15 -4 -17 -22 -19 -18 -36 59 -12 57 -12 65
-1 160 13 98 30 135 63 135 14 0 40 5 57 11 54 19 226 -51 197 -79 -3 -3 -34
9 -68 26 -131 67 -167 33 -144 -140 12 -85 13 -88 71 -155 34 -40 70 -71 85
-74 43 -11 119 -10 126 1 5 8 11 7 20 0 11 -9 28 -4 75 21 34 18 65 39 69 48
11 22 21 118 14 136 -11 29 -31 15 -37 -27 -13 -87 -23 -103 -68 -115 -46 -12
-68 -8 -68 13 0 10 -12 14 -40 14 -121 0 -198 49 -207 132 -7 64 8 112 36 116
57 9 165 -38 143 -60 -8 -8 -24 -3 -57 17 -48 28 -95 29 -95 1 0 -18 99 -66
136 -66 63 0 83 72 44 159 -11 24 -20 53 -20 64 0 21 1 21 24 -3 31 -31 39
-65 37 -155 -2 -85 -8 -105 -28 -105 -10 0 -14 -6 -10 -20 6 -25 -11 -27 -20
-2 -9 23 -23 32 -52 32 -13 0 -39 11 -57 25 -67 51 -88 16 -29 -47 27 -29 43
-38 68 -38 18 0 38 -5 44 -11 7 -7 25 -9 45 -5 41 9 72 54 82 122 10 63 10 52
-3 172 -12 110 -17 126 -50 156 -12 11 -21 25 -21 31 0 7 -7 18 -15 25 -17 14
-18 20 -6 39 7 11 17 6 45 -22 20 -20 36 -45 36 -55 0 -11 9 -40 20 -65 24
-55 41 -213 30 -277 -11 -60 -32 -115 -54 -139 -18 -20 -18 -21 -1 -27 30 -12
49 10 77 91 41 124 43 166 13 291 -15 60 -35 123 -46 140 -10 17 -19 37 -19
43 0 15 -102 139 -116 140 -6 1 -36 15 -68 32 -40 22 -64 29 -82 25 -13 -4
-44 0 -68 8 -40 14 -48 13 -127 -10 -46 -14 -98 -31 -114 -39 -40 -16 -165
-104 -165 -115 0 -4 -14 -23 -32 -41 -17 -19 -46 -57 -64 -86 -41 -63 -52 -71
-46 -32 3 24 1 28 -12 23 -9 -3 -16 -2 -16 4 0 5 11 13 24 16 14 3 27 14 30
24 7 20 147 164 198 205 20 15 44 27 55 27 10 0 30 8 43 18 14 9 41 23 60 30
43 16 148 24 156 11 3 -5 23 -6 44 -3 31 5 50 1 89 -19 27 -15 61 -28 75 -31
53 -10 196 -200 196 -262 0 -8 5 -14 10 -14 6 0 10 -12 10 -26 0 -14 5 -35 12
-47 15 -29 49 -242 54 -342 7 -115 -6 -132 -122 -166 -86 -25 -138 -30 -162
-15 -7 4 -16 5 -21 2 -30 -19 -151 79 -190 155 -18 33 -19 52 -15 148 4 97 3
111 -11 111 -29 0 -48 -67 -42 -150 7 -97 56 -215 87 -207 14 4 24 -4 39 -28
32 -54 97 -80 208 -81 86 -2 96 0 160 32 46 23 76 47 94 72 26 38 26 39 18
158 -5 65 -16 146 -24 179 -8 33 -19 86 -25 119 -5 32 -14 64 -19 70 -12 14
-41 96 -41 115 0 31 -90 158 -125 176 -19 11 -35 22 -35 26 0 4 -8 9 -17 12
-10 4 -36 13 -57 21 -22 8 -52 12 -66 9 -15 -3 -37 0 -49 7 -12 6 -59 12 -104
12 -78 0 -142 -13 -247 -54 -59 -22 -209 -139 -210 -163 0 -6 -9 -16 -20 -23
-11 -7 -20 -18 -20 -26 0 -8 -6 -16 -13 -19 -16 -6 -167 -190 -167 -203 0 -5
-14 -29 -30 -53 -16 -24 -32 -60 -36 -80 -4 -20 -12 -43 -19 -51 -18 -23 -52
-110 -60 -155 -3 -22 -13 -50 -20 -62 -8 -11 -19 -42 -26 -67 -6 -25 -16 -44
-22 -43 -20 4 -40 -56 -53 -155 -18 -139 -14 -163 40 -240 25 -36 46 -69 46
-72 0 -9 79 -86 88 -86 5 0 21 -13 37 -30 16 -16 35 -30 44 -30 8 0 40 -27 70
-59 31 -32 83 -75 116 -95 75 -46 85 -52 163 -104 35 -23 73 -42 85 -42 24 0
93 -22 103 -33 4 -4 22 -7 41 -7 49 0 43 26 -9 41 -46 13 -76 34 -65 45 4 4
17 3 30 -3 42 -21 130 -44 156 -42 14 1 33 -1 42 -5 8 -4 28 -2 43 4 42 15
131 13 146 -5 7 -8 17 -12 23 -8 5 3 66 5 133 4 68 -1 129 1 136 5 7 4 32 7
57 5 26 -1 78 5 116 15 39 9 95 20 125 24 30 5 78 14 105 21 28 6 61 13 75 14
14 2 32 5 40 8 8 4 49 13 90 22 120 24 152 33 162 43 18 18 -9 22 -53 7 -29
-11 -60 -13 -103 -9 -47 5 -70 2 -101 -11 -22 -10 -51 -19 -65 -20 -30 -3
-157 -31 -220 -49 -25 -7 -73 -14 -108 -15 -35 -1 -74 -6 -87 -11 -41 -16
-305 -12 -396 5 -24 5 -45 2 -65 -8 -27 -13 -37 -12 -139 17 -60 17 -121 39
-135 49 -13 9 -32 17 -41 17 -9 0 -24 9 -34 20 -10 11 -22 20 -26 20 -4 0 -28
14 -52 30 -25 17 -49 30 -54 30 -5 0 -25 16 -44 36 -18 19 -56 52 -84 72 -27
20 -65 52 -83 69 -18 18 -37 33 -42 33 -6 0 -10 4 -10 10 0 5 -33 42 -72 82
-51 50 -77 85 -85 113 -17 58 -27 225 -15 255 5 14 6 35 1 47 -6 17 0 41 22
90 47 104 47 104 70 173 23 70 38 103 39 83 0 -25 40 -14 52 15 7 15 25 43 40
63 15 20 28 44 28 52 0 8 7 20 15 27 25 20 18 -8 -15 -69 -17 -30 -30 -60 -30
-68 0 -8 -22 -35 -48 -61 -42 -41 -102 -147 -102 -180 0 -5 -6 -22 -14 -37 -8
-15 -18 -51 -21 -79 -4 -28 -12 -59 -17 -69 -15 -29 11 -164 45 -237 29 -60
84 -139 98 -140 9 0 119 -112 119 -121 0 -5 21 -21 48 -36 26 -15 56 -38 67
-51 20 -23 43 -38 165 -108 36 -21 73 -45 82 -55 9 -9 36 -20 60 -24 24 -3 78
-18 122 -31 43 -14 81 -23 83 -20 13 12 -8 35 -39 41 -18 4 -79 29 -135 56
-55 27 -104 49 -108 49 -3 0 -21 11 -39 25 -18 14 -36 25 -39 25 -10 0 -101
71 -105 81 -2 5 -12 9 -22 9 -24 0 -267 243 -304 304 -21 34 -29 60 -28 88 1
21 -5 50 -14 63 -15 22 -14 31 1 102 9 43 23 98 31 123 8 25 14 52 14 60 0 18
39 84 46 78 2 -3 -3 -22 -11 -42 -9 -21 -18 -55 -20 -76 -2 -21 -8 -48 -14
-59 -26 -48 -3 -250 34 -291 9 -10 14 -23 11 -28 -9 -15 113 -172 133 -172 5
0 19 -16 31 -35 12 -19 28 -35 35 -35 8 0 29 -16 48 -35 19 -19 37 -35 42 -35
4 0 29 -16 55 -35 26 -19 52 -35 57 -35 11 0 96 -61 101 -72 2 -5 14 -8 27 -8
12 0 28 -6 34 -14 7 -8 25 -18 41 -21 16 -3 31 -13 34 -21 3 -9 17 -14 33 -12
16 1 39 -6 53 -15 14 -9 47 -21 74 -27 41 -9 52 -8 64 4 18 18 8 36 -21 36
-12 0 -60 14 -107 31 -47 16 -94 33 -105 36 -11 4 -39 21 -63 39 -24 18 -57
36 -73 39 -17 4 -33 13 -36 21 -3 8 -13 14 -22 14 -10 0 -32 16 -50 35 -17 19
-35 35 -40 35 -5 0 -25 15 -44 33 -19 17 -57 52 -85 77 -29 25 -63 61 -77 81
-19 27 -32 35 -46 32 -15 -4 -19 0 -19 17 0 13 -11 46 -24 74 -63 131 -67 154
-44 281 33 191 32 188 53 244 19 53 43 101 60 121 7 8 18 33 25 55 12 35 60
115 127 209 12 17 22 37 22 44 1 6 7 12 15 12 8 0 21 8 28 18 18 23 115 82
136 82 10 0 26 6 37 13 28 19 156 41 203 35 21 -3 58 -20 82 -37 24 -17 49
-31 56 -31 21 0 56 -42 44 -54 -6 -6 -25 4 -53 27 -46 38 -137 67 -192 62 -42
-4 -133 -32 -177 -55 -20 -11 -42 -20 -49 -20 -35 0 -159 -129 -159 -165 0 -8
-8 -19 -17 -24 -10 -5 -33 -40 -52 -78 -18 -37 -38 -76 -42 -85 -5 -10 -13
-26 -18 -35 -11 -23 -22 -49 -60 -148 -26 -68 -31 -95 -33 -180 -2 -99 8 -201
22 -220 4 -5 10 -23 14 -38 5 -20 11 -27 22 -23 10 4 15 0 13 -12 -3 -32 1
-40 21 -45 11 -3 20 -13 20 -24 1 -23 73 -103 94 -103 9 0 16 -6 16 -13 0 -17
85 -107 102 -107 7 0 24 -9 38 -20 14 -11 31 -20 39 -20 8 0 38 -21 67 -46 34
-28 67 -47 90 -51 20 -3 38 -12 41 -19 10 -27 187 -92 217 -81 10 4 16 15 14
24 -3 18 -14 22 -103 43 -27 6 -57 18 -66 25 -8 8 -30 18 -48 21 -20 4 -56 28
-89 59 -32 29 -80 64 -108 78 -32 16 -54 34 -57 48 -4 16 -11 20 -26 16 -13
-3 -21 0 -21 8 0 7 -12 20 -26 30 -15 9 -40 33 -58 53 -17 20 -40 45 -51 57
-11 11 -19 25 -17 31 1 6 -5 17 -13 24 -8 7 -15 18 -15 25 0 8 -10 26 -23 42
-21 26 -36 64 -53 138 -9 42 -4 228 7 240 5 5 9 15 9 23 0 8 9 25 20 39 11 14
20 32 20 39 0 17 67 160 90 194 10 14 21 36 25 50 10 33 141 177 168 186 12 3
31 14 42 23 20 17 79 34 161 46 52 8 146 -24 186 -62 15 -14 26 -29 23 -31 -3
-3 -15 4 -28 15 -12 12 -46 29 -76 39 -46 15 -60 15 -103 4 -27 -6 -52 -10
-55 -6 -3 3 -15 -1 -27 -9 -11 -8 -28 -15 -38 -15 -23 0 -135 -77 -161 -112
-12 -16 -31 -41 -43 -56 -21 -27 -66 -113 -97 -185 -24 -53 -33 -117 -18 -126
9 -6 8 -16 -3 -42 -15 -37 -9 -153 14 -257 17 -78 6 -86 -18 -12 -22 67 -30
207 -16 294 8 49 -13 46 -38 -5 -23 -43 -24 -204 -3 -264 9 -24 11 -41 5 -43
-16 -6 -11 -42 5 -42 16 0 48 -54 38 -64 -4 -4 12 -26 35 -49 24 -24 40 -46
36 -49 -6 -7 60 -78 73 -78 4 0 26 -23 48 -50 22 -27 49 -52 60 -56 11 -4 36
-20 56 -35 20 -16 41 -29 46 -29 5 0 17 -14 27 -31 10 -17 30 -35 44 -41 15
-6 43 -18 62 -28 47 -24 118 -43 158 -42 44 2 54 9 43 31 -13 24 -80 74 -102
76 -9 1 -24 6 -31 13 -16 13 -175 82 -190 82 -6 0 -31 21 -57 46 -25 26 -61
58 -78 71 -18 14 -33 32 -33 39 0 8 -10 14 -25 14 -21 0 -25 5 -25 30 0 20 -8
35 -25 46 -16 11 -25 26 -25 43 0 15 -7 37 -16 49 -10 14 -17 53 -20 110 -2
48 -8 126 -12 174 -6 65 -4 91 5 104 7 10 13 29 13 43 0 34 37 131 59 156 10
11 21 31 24 45 8 34 88 115 134 137 21 9 46 27 56 38 13 14 20 16 23 8 8 -18
44 -16 44 2 0 25 50 39 85 25 17 -7 43 -15 59 -19 16 -3 31 -12 34 -19 5 -16
-40 -16 -56 0 -18 18 -91 10 -120 -12 -14 -11 -37 -20 -52 -20 -30 0 -140 -68
-140 -87 0 -7 -13 -28 -30 -46 -16 -19 -30 -40 -30 -46 0 -6 -13 -37 -30 -68
-16 -31 -30 -68 -30 -82 0 -15 -5 -32 -12 -39 -23 -23 3 -325 34 -388 5 -12 7
-32 3 -45 -4 -13 -4 -21 0 -17 10 10 35 -10 35 -28 0 -8 21 -36 48 -62 26 -27
57 -63 70 -80 14 -19 28 -29 37 -25 9 3 15 -1 15 -10 0 -16 46 -47 99 -65 19
-7 49 -23 67 -37 18 -14 40 -25 49 -25 8 0 32 -10 53 -23 20 -13 53 -29 72
-37 19 -7 45 -22 56 -32 18 -16 43 -20 159 -24 130 -4 163 -1 230 27 11 4 40
13 65 20 61 15 154 55 204 87 22 14 61 36 86 49 25 12 52 27 60 31 8 5 31 15
50 22 19 6 64 23 100 36 38 14 87 24 118 24 66 0 67 21 1 32 -50 9 -128 -4
-164 -28 -13 -9 -29 -13 -34 -10 -5 4 -26 -5 -47 -19 -20 -14 -43 -25 -50 -25
-7 0 -29 -9 -48 -21 -20 -12 -36 -17 -36 -13 0 4 -16 -7 -35 -26 -19 -19 -35
-30 -35 -26 0 4 -15 -1 -33 -12 -17 -11 -43 -23 -57 -27 -14 -4 -50 -18 -80
-33 -71 -33 -108 -42 -200 -51 -143 -15 -191 -8 -252 32 -30 21 -60 37 -65 37
-5 0 -20 9 -33 20 -13 11 -30 20 -37 20 -8 0 -33 16 -56 35 -22 19 -45 34 -51
34 -25 -3 -37 3 -79 39 -24 20 -53 44 -63 53 -30 25 -84 90 -84 101 0 5 -18
35 -40 65 -22 31 -40 63 -40 71 0 8 -8 36 -17 63 -15 40 -15 53 -5 69 16 27
15 33 -4 26 -15 -6 -16 0 -11 46 4 29 8 87 11 128 3 55 11 91 30 130 14 29 26
59 26 65 0 18 79 125 92 125 6 0 20 7 30 17 36 32 17 -4 -22 -43 -81 -79 -140
-230 -129 -329 4 -32 5 -65 2 -71 -2 -7 3 -53 11 -104 16 -92 41 -155 70 -179
9 -8 16 -21 16 -30 0 -10 11 -28 25 -41 14 -13 25 -30 25 -37 0 -7 10 -18 23
-24 12 -5 30 -23 39 -40 9 -16 24 -29 32 -29 16 0 96 -50 96 -60 0 -4 19 -15
43 -25 23 -10 56 -28 72 -40 24 -18 51 -23 140 -29 134 -9 121 -10 229 8 102
17 233 76 280 125 17 17 35 31 41 31 6 0 29 19 52 43 39 40 72 101 86 158 11
43 -9 219 -27 238 -9 10 -16 26 -16 36 0 15 -18 64 -90 250 -11 28 -20 57 -20
66 0 8 -7 24 -15 35 -8 10 -15 30 -15 43 0 31 -38 111 -56 118 -7 2 -16 17
-19 31 -9 42 -69 137 -88 140 -28 6 -20 -22 28 -95 25 -37 50 -84 57 -103 6
-19 17 -44 24 -55 12 -18 84 -226 104 -300 5 -16 18 -55 29 -85 34 -90 60
-283 40 -296 -4 -2 -13 -29 -20 -59 -9 -42 -20 -61 -43 -79 -17 -13 -63 -55
-101 -92 -75 -73 -78 -74 -240 -110 -83 -19 -65 -18 -195 -9 -73 6 -117 14
-145 28 -77 39 -177 110 -187 133 -6 13 -15 24 -20 24 -12 0 -88 71 -88 82 0
6 -13 27 -30 48 -44 56 -80 139 -80 187 0 23 -4 45 -10 48 -24 15 -3 253 28
307 9 17 23 42 31 57 21 40 109 130 115 117 3 -7 12 -2 23 12 18 22 21 23 61
10 45 -14 62 -35 34 -45 -9 -3 -27 -15 -39 -26 -13 -11 -26 -18 -29 -15 -3 4
4 11 15 18 25 13 27 35 5 44 -22 9 -20 9 -61 -28 -21 -18 -48 -36 -60 -40 -12
-4 -26 -19 -32 -34 -6 -15 -21 -45 -33 -67 -19 -34 -23 -58 -26 -173 -3 -90
-1 -137 7 -145 6 -6 11 -21 11 -34 0 -12 6 -37 14 -55 8 -18 17 -44 20 -58 3
-14 20 -41 38 -60 18 -19 32 -40 33 -45 0 -16 75 -88 109 -105 22 -10 32 -24
34 -42 2 -19 9 -28 21 -28 10 0 24 -7 31 -15 7 -8 19 -15 27 -15 7 0 24 -6 36
-14 61 -38 273 -53 367 -26 25 8 50 13 55 12 19 -3 110 36 119 51 18 28 -2 31
-60 8 -31 -11 -67 -21 -80 -21 -13 0 -24 -5 -24 -11 0 -15 -279 -4 -329 13
-60 19 -141 58 -141 67 0 13 69 3 135 -18 96 -32 185 -44 272 -36 43 4 85 13
93 21 16 14 98 36 140 38 36 1 139 76 140 101 0 11 7 31 15 45 10 18 10 29 3
38 -8 9 -8 16 0 24 16 16 15 86 -3 187 -15 89 -27 113 -46 94 -7 -7 -7 -33 0
-84 13 -100 4 -210 -20 -227 -10 -7 -19 -27 -21 -45 -2 -24 -8 -33 -24 -35
-12 -2 -30 -12 -40 -23 -9 -10 -23 -19 -31 -19 -7 0 -21 -4 -31 -10 -49 -28
-149 -61 -185 -63 -23 0 -73 3 -112 7 -38 4 -85 10 -103 12 -107 12 -291 107
-284 147 2 9 -1 17 -6 17 -5 0 -23 13 -39 29 -23 22 -28 32 -19 41 8 8 3 18
-21 38 -20 17 -36 43 -43 71 -11 41 -24 166 -23 221 1 29 52 170 63 170 8 0 7
-31 -2 -45 -3 -6 -11 -38 -17 -71 -22 -119 25 -302 103 -407 45 -60 79 -97 88
-97 6 0 27 -13 47 -29 38 -30 41 -31 210 -55 77 -12 120 -13 171 -6 77 11 120
25 120 39 0 6 7 8 15 5 8 -3 29 6 46 20 17 14 41 29 55 32 22 6 44 51 44 92 0
7 7 27 16 43 12 23 16 69 18 187 3 153 -4 211 -31 243 -7 8 -13 29 -13 46 0
17 -6 44 -14 60 -8 15 -29 62 -47 103 -17 41 -46 100 -64 130 -18 30 -36 65
-40 78 -3 12 -24 43 -46 68 -21 25 -39 50 -39 55 0 12 -69 79 -81 79 -4 0 -31
22 -60 50 -50 48 -148 102 -218 120 -20 5 -54 14 -76 19 -46 12 -155 12 -236
0z m339 -564 c20 -14 44 -25 53 -25 9 0 23 -10 31 -22 13 -20 12 -25 -2 -39
-16 -15 -21 -12 -67 32 -45 43 -71 79 -57 79 3 0 22 -11 42 -25z m-784 -126
c-33 -48 -38 -55 -53 -89 -17 -36 -40 -64 -46 -58 -8 8 25 90 47 114 10 11 18
25 18 31 0 12 52 54 59 47 2 -2 -9 -22 -25 -45z m750 36 c3 -9 21 -25 41 -36
19 -12 32 -25 29 -31 -4 -5 -13 -3 -22 5 -10 8 -36 24 -60 36 -42 21 -48 41
-12 41 10 0 20 -7 24 -15z m104 -438 c45 -1 34 -21 -12 -23 -24 0 -45 6 -59
18 l-22 19 30 -6 c17 -4 45 -8 63 -8z m-1139 -279 c-2 -57 1 -110 6 -118 5 -8
28 -51 51 -94 30 -58 56 -91 95 -123 30 -24 77 -66 106 -93 28 -26 62 -51 75
-55 13 -4 46 -29 75 -56 28 -27 57 -49 63 -49 6 0 27 -16 47 -35 20 -19 45
-35 55 -35 25 0 69 -23 92 -49 61 -67 -161 45 -250 126 -14 13 -36 26 -49 29
-14 3 -25 12 -25 19 0 12 -46 51 -149 122 -76 54 -124 108 -173 195 -9 16 -24
35 -33 41 -13 11 -15 28 -11 122 5 104 12 155 23 155 3 0 3 -46 2 -102z m977
-428 c17 -11 39 -29 49 -40 l18 -20 -39 16 c-61 25 -164 85 -164 95 0 10 91
-24 136 -51z"/>
<path d="M1460 3081 c-41 -10 -84 -22 -95 -28 -11 -6 -63 -31 -116 -57 -95
-45 -120 -62 -245 -166 -60 -50 -93 -94 -81 -106 7 -8 97 54 104 72 2 7 24 24
47 38 23 13 61 45 84 70 23 25 51 46 62 46 10 0 22 5 25 10 3 6 14 10 24 10
10 0 34 11 53 23 19 13 45 27 59 30 13 3 42 11 64 17 22 7 54 13 70 13 65 3
231 -15 244 -26 12 -11 84 -34 120 -40 8 -1 16 4 18 10 6 17 -67 48 -170 72
-125 30 -182 32 -267 12z"/>
<path d="M983 2985 c-52 -28 -158 -96 -195 -125 -14 -11 -33 -17 -41 -14 -37
14 -131 -62 -234 -187 -33 -41 -99 -115 -147 -166 -47 -50 -86 -96 -86 -102 0
-6 -8 -19 -17 -29 -126 -131 -164 -174 -177 -201 -9 -17 -20 -31 -25 -31 -10
0 -31 -77 -23 -85 10 -10 22 -5 22 8 0 8 11 19 24 25 14 6 37 33 52 59 15 26
55 77 89 113 35 36 70 79 78 95 9 17 57 72 107 123 88 91 170 192 170 210 0
17 133 132 153 132 13 0 -82 -102 -109 -117 -13 -7 -26 -23 -30 -35 -9 -30
-142 -208 -159 -215 -8 -2 -42 -43 -76 -89 -33 -46 -65 -84 -70 -84 -5 0 -16
-15 -25 -32 -9 -18 -23 -37 -31 -41 -13 -8 -53 -64 -83 -116 -28 -48 -78 -116
-99 -133 -21 -17 -29 -48 -13 -48 29 0 193 194 306 361 14 20 36 46 50 57 14
11 26 23 26 27 0 8 32 49 103 131 27 31 62 77 78 103 25 38 158 190 209 237
39 37 135 107 178 131 57 31 72 43 72 54 0 15 -33 8 -77 -16z"/>
<path d="M1450 2996 c-25 -8 -56 -17 -70 -21 -52 -15 -137 -61 -186 -100 -27
-23 -77 -57 -110 -77 -77 -47 -213 -195 -279 -303 -11 -18 -49 -65 -83 -105
-35 -40 -72 -91 -82 -114 -9 -23 -24 -47 -33 -54 -9 -8 -26 -34 -37 -58 -12
-24 -25 -44 -30 -44 -4 0 -28 -37 -53 -82 -24 -46 -61 -101 -82 -123 -21 -22
-45 -52 -54 -67 -26 -41 -115 -131 -147 -148 -16 -9 -30 -26 -32 -38 -2 -14
-20 -33 -45 -49 -23 -14 -45 -31 -49 -37 -12 -19 4 -28 21 -12 10 9 29 16 43
16 39 0 58 10 58 31 0 10 5 19 11 19 11 0 123 115 186 190 16 19 42 58 58 85
15 28 68 109 117 181 48 71 88 136 88 142 0 16 70 112 81 112 5 0 15 12 22 28
6 15 19 33 28 39 16 12 49 60 104 149 20 33 71 88 140 154 20 19 59 44 86 55
27 12 56 31 65 43 8 12 21 22 28 22 7 0 24 13 39 28 23 24 88 59 172 93 66 26
271 33 315 9 10 -5 31 -10 47 -10 40 0 174 -66 180 -89 2 -10 14 -24 26 -31
48 -26 71 -70 92 -172 2 -10 11 -28 19 -40 9 -12 16 -34 16 -48 0 -14 7 -35
15 -48 58 -82 101 -454 61 -517 -22 -33 -197 -117 -248 -119 -23 -1 -49 -5
-56 -10 -8 -5 -18 -4 -25 3 -6 6 -20 11 -31 11 -39 0 -114 33 -126 56 -12 21
-58 49 -67 41 -10 -11 33 -77 58 -87 15 -7 36 -21 46 -32 31 -34 48 -39 93
-23 31 11 47 12 62 4 13 -7 24 -7 30 -1 5 5 27 8 47 5 40 -5 128 25 166 57 11
10 32 20 47 24 62 14 87 216 47 378 -10 42 -19 90 -19 107 0 16 -4 32 -9 35
-4 3 -11 20 -15 38 -3 18 -12 47 -20 63 -51 107 -67 147 -63 151 5 5 77 -118
77 -132 0 -4 6 -15 13 -23 13 -16 50 -128 62 -191 4 -19 12 -41 18 -49 19 -22
14 -290 -5 -326 -9 -17 -21 -42 -27 -57 -7 -20 -18 -28 -34 -28 -13 0 -36 -11
-52 -24 -24 -20 -45 -29 -93 -37 -4 0 -15 -5 -25 -11 -10 -5 -58 -9 -108 -10
-87 -1 -116 -11 -88 -29 8 -5 22 -7 31 -5 10 2 36 -3 59 -10 43 -15 115 -11
152 8 11 5 34 11 53 13 19 2 41 9 49 15 9 7 30 20 48 30 42 22 63 66 81 175
31 180 23 261 -46 461 -58 168 -136 284 -293 437 -50 48 -72 57 -139 57 -30 0
-67 7 -87 17 -45 23 -244 29 -309 9z"/>
<path d="M278 2852 c-26 -20 -66 -53 -90 -72 -24 -19 -52 -40 -63 -46 -11 -6
-21 -21 -23 -33 -2 -11 -10 -21 -18 -21 -20 0 -64 -49 -64 -71 0 -28 12 -23
60 26 24 25 49 45 55 45 5 0 54 41 108 90 53 50 102 90 107 90 6 0 10 7 10 15
0 25 -32 16 -82 -23z"/>
<path d="M2780 2857 c0 -22 77 -108 198 -219 40 -37 82 -50 82 -26 0 13 -257
268 -271 268 -5 0 -9 -11 -9 -23z"/>
<path d="M313 2794 c-9 -14 -34 -37 -55 -50 -21 -13 -38 -30 -38 -37 0 -6 -19
-25 -41 -42 -63 -46 -159 -151 -159 -173 0 -37 40 -18 116 55 6 7 14 16 16 21
1 4 22 23 46 42 23 18 42 39 42 45 0 7 29 39 65 73 36 33 65 67 65 76 0 25
-38 19 -57 -10z"/>
<path d="M858 2731 c-20 -14 -53 -47 -73 -73 -20 -27 -40 -48 -45 -48 -11 0
-90 -111 -90 -127 0 -23 17 -14 49 25 17 20 40 46 51 57 11 12 20 25 21 30 0
6 31 37 70 70 64 56 80 78 62 88 -5 2 -25 -8 -45 -22z"/>
<path d="M1046 2680 c-32 -33 -62 -60 -67 -60 -5 0 -48 -58 -95 -130 -47 -71
-90 -130 -94 -130 -12 0 -80 -98 -80 -115 0 -8 -11 -25 -25 -37 -14 -12 -25
-29 -25 -39 0 -9 -7 -22 -15 -29 -8 -7 -29 -38 -47 -69 -17 -31 -44 -71 -60
-89 -15 -18 -28 -37 -28 -42 0 -4 -11 -21 -23 -37 -13 -15 -27 -41 -31 -57
-14 -58 -245 -302 -304 -320 -12 -4 -22 -13 -22 -21 0 -9 -8 -11 -22 -8 l-23
6 21 -22 21 -22 38 25 c21 14 43 26 49 26 22 0 99 87 90 102 -4 7 2 5 13 -5
20 -18 21 -17 42 9 11 15 21 33 21 40 0 7 9 16 21 19 11 4 24 16 30 28 5 12
21 40 34 62 14 22 40 68 57 103 17 35 44 77 60 94 15 16 28 33 28 36 0 3 11
19 24 36 13 17 26 42 30 56 13 42 48 114 66 135 10 11 21 30 25 43 3 12 11 22
16 22 14 0 3 -31 -42 -122 -22 -43 -39 -83 -39 -90 0 -7 -9 -24 -20 -38 -11
-14 -20 -40 -20 -59 0 -18 -11 -59 -24 -90 -44 -106 -57 -165 -50 -234 5 -52
3 -70 -10 -88 -9 -13 -16 -42 -15 -64 0 -37 4 -43 49 -72 28 -18 56 -33 63
-33 7 0 24 -11 36 -24 13 -13 34 -27 47 -30 13 -4 28 -15 34 -26 6 -11 39 -34
73 -50 66 -32 120 -69 100 -70 -6 0 -15 5 -18 10 -3 6 -17 10 -29 10 -13 0
-29 7 -36 15 -7 8 -20 15 -29 15 -10 0 -30 14 -47 31 -16 16 -48 39 -71 49
-24 10 -57 29 -75 43 -58 42 -106 51 -185 36 -67 -13 -83 -22 -83 -47 0 -9 18
-13 68 -13 91 1 143 -8 167 -28 11 -9 38 -26 60 -37 22 -10 61 -31 88 -47 26
-15 54 -27 61 -27 8 0 19 -7 26 -15 7 -8 23 -15 36 -15 12 0 25 -4 28 -9 3 -5
21 -12 40 -15 19 -4 39 -13 46 -21 6 -8 33 -23 58 -35 26 -11 68 -32 95 -45
51 -27 101 -33 95 -13 -3 7 -49 39 -104 70 -54 31 -121 80 -149 107 -45 46
-118 101 -131 101 -3 0 -29 20 -57 44 -59 49 -88 66 -114 66 -18 0 -113 81
-113 96 0 5 4 15 9 22 5 9 15 2 34 -27 33 -50 73 -79 89 -63 12 12 10 17 -57
99 l-41 50 12 99 c15 121 50 240 92 315 18 31 32 65 32 77 0 11 16 51 35 89
19 37 35 76 35 87 0 23 105 219 127 237 9 8 24 27 33 42 10 15 49 61 88 101
39 41 68 77 65 80 -15 14 -33 3 -87 -54z"/>
<path d="M889 2688 c-9 -7 -63 -65 -121 -128 -57 -63 -141 -152 -185 -197 -45
-46 -83 -90 -87 -98 -3 -8 -9 -15 -14 -15 -4 0 -25 -24 -47 -52 -21 -29 -56
-76 -77 -104 -21 -28 -38 -56 -38 -62 0 -6 -11 -19 -25 -30 -14 -11 -25 -24
-25 -30 0 -5 -7 -15 -15 -22 -19 -16 -19 -40 -1 -40 16 0 31 17 112 130 30 41
63 84 74 95 11 12 20 26 20 32 0 7 8 18 18 25 9 7 32 32 51 56 18 24 36 41 39
38 3 -3 -1 -12 -8 -21 -7 -8 -9 -15 -5 -15 4 0 -11 -21 -34 -46 -22 -25 -50
-67 -62 -92 -35 -72 -211 -272 -239 -272 -10 0 -32 -17 -49 -37 -17 -21 -41
-48 -53 -60 -20 -21 -20 -53 1 -53 6 0 33 23 60 50 28 28 53 50 56 50 14 0 94
75 105 98 6 15 19 32 29 38 10 7 33 38 52 70 19 31 55 84 80 118 84 113 130
186 124 197 -7 10 36 67 104 140 77 81 151 174 151 188 0 7 7 23 16 36 18 28
16 31 -7 13z"/>
<path d="M2930 2516 c0 -16 11 -33 31 -48 17 -13 46 -38 65 -55 38 -36 54 -41
54 -17 0 18 -120 144 -138 144 -7 0 -12 -11 -12 -24z"/>
<path d="M2450 2475 c0 -13 16 -54 36 -90 20 -36 40 -84 45 -106 5 -23 25 -75
44 -117 32 -72 70 -240 68 -302 -1 -32 -21 -96 -44 -143 -10 -22 -19 -46 -19
-54 0 -17 -24 -43 -40 -43 -7 0 -24 -9 -38 -21 -106 -82 -294 -176 -333 -166
-11 3 -44 -1 -73 -8 -51 -13 -126 -9 -192 10 -23 7 -42 -11 -28 -25 20 -20
153 -32 222 -20 37 7 78 13 92 14 25 1 159 49 190 67 8 5 38 21 65 35 28 15
63 37 78 50 16 13 33 24 38 24 6 0 17 7 25 15 9 8 25 15 36 15 11 0 46 11 77
24 95 39 125 49 161 52 19 1 38 3 43 3 19 2 4 34 -24 49 -20 11 -40 38 -59 77
-16 33 -34 67 -39 75 -5 8 -17 34 -27 58 -20 48 -40 70 -54 56 -15 -15 23
-122 73 -206 l44 -75 -31 -13 c-17 -7 -34 -15 -38 -17 -3 -2 -2 11 4 30 12 41
4 87 -16 87 -17 0 -36 -51 -36 -95 0 -26 -7 -37 -40 -60 -50 -35 -63 -26 -21
15 17 17 32 39 33 48 1 9 2 24 3 32 1 8 8 34 15 58 10 33 11 50 1 80 -6 20
-16 69 -20 108 -5 39 -16 85 -25 102 -9 17 -16 39 -16 49 0 10 -6 27 -14 38
-7 11 -19 38 -26 60 -7 22 -16 44 -21 50 -5 5 -9 17 -9 26 0 9 -7 22 -15 29
-8 7 -15 20 -15 30 0 10 -7 23 -15 30 -8 7 -15 23 -15 36 0 23 -23 54 -41 54
-5 0 -9 -11 -9 -25z"/>
<path d="M2665 2310 c-5 -8 16 -65 36 -100 5 -8 18 -35 30 -60 11 -24 27 -51
35 -60 27 -29 64 -78 64 -85 0 -7 30 -44 85 -107 14 -16 28 -28 32 -28 5 -1
24 -14 43 -30 19 -17 42 -30 52 -30 10 0 21 -7 24 -15 9 -21 23 -19 21 4 0 11
-4 18 -8 15 -4 -2 -9 5 -12 16 -3 11 -17 24 -31 30 -14 5 -26 17 -26 25 0 16
-22 45 -34 45 -8 0 -59 51 -76 77 -8 12 -36 49 -62 82 -27 34 -48 65 -48 70 0
5 -7 14 -16 22 -9 7 -29 38 -44 70 -28 54 -53 78 -65 59z"/>
<path d="M3063 2054 c-4 -11 1 -23 16 -36 28 -22 42 -23 35 -3 -4 8 -10 15
-15 15 -5 0 -9 6 -9 14 0 22 -19 29 -27 10z"/>
<path d="M582 1926 c-17 -27 -39 -72 -48 -100 -9 -28 -36 -81 -60 -117 -24
-37 -44 -74 -44 -84 0 -9 -9 -19 -20 -22 -10 -3 -26 -16 -35 -29 -8 -13 -33
-33 -54 -43 -21 -11 -41 -27 -45 -36 -3 -9 -11 -15 -18 -14 -24 4 -103 -41
-121 -69 -5 -7 -12 -10 -17 -7 -4 3 -10 -2 -14 -10 -10 -27 28 -17 104 26 8 5
26 14 40 20 59 26 110 54 110 61 0 5 6 8 13 8 26 0 108 97 128 153 7 20 16 37
21 37 9 0 48 87 48 108 0 8 12 39 26 69 14 30 24 64 22 76 -3 19 -8 15 -36
-27z"/>
<path d="M3042 1711 c2 -7 7 -12 11 -12 12 1 9 15 -3 20 -7 2 -11 -2 -8 -8z"/>
<path d="M59 1664 c-12 -14 -11 -16 5 -13 11 2 21 10 24 17 5 17 -13 15 -29
-4z"/>
<path d="M510 1618 c-11 -24 -20 -53 -20 -65 0 -14 -8 -24 -22 -28 -13 -4 -34
-18 -48 -31 -28 -27 -117 -82 -167 -103 -32 -13 -46 -41 -20 -41 24 0 126 36
144 50 26 22 87 55 116 64 9 3 20 14 23 23 3 10 9 25 14 34 5 9 11 34 15 55 3
22 8 49 11 62 8 40 -26 25 -46 -20z"/>
<path d="M3015 1610 c3 -5 8 -10 11 -10 2 0 4 5 4 10 0 6 -5 10 -11 10 -5 0
-7 -4 -4 -10z"/>
<path d="M2820 1573 c-25 -7 -58 -21 -75 -30 -16 -9 -64 -34 -105 -55 -41 -22
-82 -45 -90 -52 -13 -11 -70 -39 -135 -66 -11 -5 -47 -16 -80 -25 -33 -9 -69
-21 -80 -25 -54 -21 -111 -29 -227 -30 -78 0 -129 3 -133 10 -9 15 -35 12 -35
-5 0 -8 9 -19 19 -25 25 -13 241 -12 301 1 25 5 68 14 95 19 111 20 230 65
303 114 28 19 68 40 89 46 21 7 52 22 68 34 37 27 130 64 170 68 19 2 31 9 33
21 3 14 -3 17 -35 16 -21 -1 -58 -8 -83 -16z"/>
<path d="M2930 1530 c-19 -10 -57 -24 -85 -30 -49 -12 -76 -24 -217 -95 -119
-60 -75 -77 51 -21 42 19 90 38 106 42 17 4 36 16 43 26 7 10 23 18 35 18 12
1 33 7 47 15 14 8 35 14 47 15 19 0 43 25 43 44 0 12 -36 5 -70 -14z"/>
<path d="M2956 1451 c-3 -4 -20 -11 -38 -15 -45 -8 -137 -45 -169 -67 -14 -10
-38 -21 -55 -25 -16 -4 -35 -11 -42 -17 -12 -10 -128 -36 -182 -41 -25 -2 -72
-15 -159 -42 -60 -19 -288 -47 -309 -39 -29 12 -132 17 -132 6 0 -5 8 -17 17
-26 14 -14 28 -16 79 -11 34 4 65 3 68 -2 6 -11 314 30 371 49 17 6 38 12 47
14 9 2 26 9 38 15 12 7 32 9 44 6 13 -3 31 1 42 9 10 8 27 15 37 15 9 0 34 9
54 20 21 11 46 20 56 20 10 0 45 14 79 31 34 17 84 38 111 46 51 15 77 33 77
52 0 13 -27 15 -34 2z"/>
<path d="M2920 1350 c-8 -5 -26 -10 -40 -10 -14 0 -35 -6 -46 -14 -11 -8 -40
-19 -64 -26 -25 -6 -55 -18 -67 -26 -21 -13 -38 -18 -143 -44 -25 -6 -74 -21
-110 -32 -36 -12 -87 -25 -115 -29 -27 -4 -84 -13 -125 -19 -41 -6 -134 -12
-207 -13 -139 0 -161 -8 -123 -42 15 -14 31 -15 97 -10 43 4 101 8 130 9 29 1
55 5 59 9 4 4 33 7 64 7 31 0 92 9 135 20 43 11 89 20 102 20 13 0 45 9 71 19
26 11 61 22 78 25 17 3 58 17 90 32 170 77 244 115 244 124 0 13 -11 13 -30 0z"/>
<path d="M140 1320 c0 -5 5 -10 11 -10 5 0 7 5 4 10 -3 6 -8 10 -11 10 -2 0
-4 -4 -4 -10z"/>
<path d="M292 1297 c-63 -9 -80 -22 -69 -51 5 -12 12 -12 41 -2 20 7 38 15 41
17 3 3 38 4 77 2 81 -3 98 -6 113 -15 6 -3 30 -9 55 -13 25 -4 56 -14 70 -23
26 -17 72 -36 128 -53 18 -6 56 -23 83 -40 27 -16 61 -32 76 -35 14 -4 45 -17
67 -30 23 -13 49 -24 58 -24 9 0 29 -6 45 -14 64 -31 265 -86 317 -86 40 0
184 -36 202 -50 7 -6 41 -10 76 -8 55 3 63 6 66 23 3 18 -2 20 -39 17 -45 -5
-156 15 -177 31 -7 5 -15 7 -19 4 -3 -3 -18 0 -34 8 -15 8 -42 15 -59 15 -17
0 -45 7 -62 16 -18 10 -56 16 -92 16 -38 0 -73 7 -96 18 -156 79 -220 110
-232 110 -7 0 -26 7 -43 17 -85 46 -226 116 -270 135 -57 23 -212 30 -323 15z"/>
<path d="M2870 1255 c-36 -13 -75 -24 -86 -24 -12 -1 -27 -8 -34 -16 -21 -25
13 -29 67 -7 26 11 66 27 88 35 21 8 41 20 43 26 5 14 -1 13 -78 -14z"/>
<path d="M183 1263 c-18 -6 -16 -23 1 -23 17 0 30 16 19 23 -5 2 -14 2 -20 0z"/>
<path d="M308 1221 c-39 -13 -48 -20 -42 -35 8 -20 44 -28 44 -10 0 8 3 14 8
14 20 0 157 -32 173 -40 10 -6 30 -10 45 -10 15 0 55 -15 88 -33 48 -26 68
-32 93 -27 21 5 33 3 37 -5 2 -7 17 -16 33 -19 15 -4 42 -18 58 -30 17 -13 48
-26 70 -30 21 -4 56 -16 77 -27 54 -27 279 -102 303 -101 11 1 38 -8 61 -20
29 -15 48 -19 70 -14 l29 8 -33 29 c-23 21 -43 29 -69 29 -41 0 -81 11 -164
46 -31 13 -64 24 -73 24 -9 0 -38 11 -64 24 -26 13 -72 31 -102 41 -30 10 -68
28 -83 41 -27 22 -84 44 -118 44 -9 0 -46 16 -83 35 -41 21 -82 35 -103 35
-20 0 -44 7 -54 16 -20 18 -158 29 -201 15z"/>
<path d="M150 1210 c0 -5 5 -10 10 -10 6 0 10 5 10 10 0 6 -4 10 -10 10 -5 0
-10 -4 -10 -10z"/>
<path d="M2928 1193 c7 -3 16 -2 19 1 4 3 -2 6 -13 5 -11 0 -14 -3 -6 -6z"/>
<path d="M190 1175 c7 -8 20 -15 30 -15 10 0 20 7 24 15 4 12 -3 15 -31 15
-30 0 -34 -2 -23 -15z"/>
<path d="M308 1129 c-10 -6 -10 -13 -2 -26 8 -14 30 -20 92 -25 44 -3 94 -14
111 -22 16 -9 36 -16 44 -16 8 0 28 -7 43 -15 16 -8 36 -15 45 -15 9 0 30 -7
45 -15 16 -8 36 -15 44 -15 8 0 35 -11 60 -24 25 -13 79 -31 120 -41 41 -10
82 -23 90 -30 16 -12 244 -85 270 -85 8 -1 26 -7 40 -15 18 -9 29 -10 38 -3
17 14 -3 38 -32 38 -12 0 -32 7 -45 16 -12 9 -56 25 -97 35 -41 10 -85 25 -97
34 -12 8 -31 15 -43 15 -12 0 -42 11 -65 25 -24 14 -50 25 -58 25 -8 0 -48 16
-90 36 -42 20 -94 39 -116 42 -22 2 -57 13 -77 23 -21 11 -48 19 -62 19 -14 0
-28 5 -31 10 -3 6 -16 10 -29 10 -12 0 -26 4 -32 9 -13 12 -149 20 -166 10z"/>
<path d="M270 1100 c0 -5 5 -10 11 -10 5 0 7 5 4 10 -3 6 -8 10 -11 10 -2 0
-4 -4 -4 -10z"/>
<path d="M2839 1100 c-8 -5 -39 -11 -69 -13 -56 -6 -165 -26 -279 -53 -35 -9
-85 -19 -110 -24 -25 -5 -64 -13 -86 -19 -22 -5 -137 -13 -255 -17 -118 -3
-217 -8 -220 -11 -3 -2 3 -10 12 -17 32 -24 486 -1 592 30 27 8 66 14 87 14
20 0 42 6 48 14 8 10 24 12 52 9 25 -4 54 0 77 10 50 21 75 30 87 31 28 4 95
28 100 35 7 13 -19 20 -36 11z"/>
<path d="M270 1030 c0 -5 5 -10 10 -10 6 0 10 5 10 10 0 6 -4 10 -10 10 -5 0
-10 -4 -10 -10z"/>
<path d="M310 1031 c0 -15 16 -21 55 -23 20 -1 38 -5 41 -10 3 -4 18 -8 33 -8
15 0 31 -4 37 -8 5 -5 29 -15 54 -22 80 -24 160 -50 227 -75 36 -14 71 -24 77
-23 6 1 25 -5 42 -14 17 -9 62 -24 100 -33 38 -9 79 -22 91 -30 12 -8 31 -15
43 -15 11 0 43 -9 72 -20 29 -11 71 -20 93 -20 22 0 62 -12 90 -25 36 -18 52
-21 62 -13 7 6 13 14 13 18 0 11 -108 48 -165 56 -27 3 -54 10 -60 14 -5 5
-37 16 -70 25 -33 10 -64 21 -70 25 -5 4 -17 8 -25 8 -8 0 -58 17 -110 37 -52
20 -115 42 -140 50 -25 7 -67 22 -95 33 -76 30 -155 55 -205 64 -82 14 -190
19 -190 9z"/>
<path d="M2820 1003 c-14 -2 -54 -10 -90 -18 -62 -14 -126 -25 -180 -31 -83
-10 -149 -24 -180 -37 -19 -9 -55 -22 -80 -29 -49 -14 -64 -44 -20 -41 43 3
84 15 101 30 17 14 170 36 194 27 15 -6 153 29 200 51 17 7 45 19 63 25 17 7
32 16 32 21 0 5 -3 8 -7 8 -5 -1 -19 -3 -33 -6z"/>
<path d="M1560 985 c0 -12 68 -34 111 -36 62 -3 131 10 126 24 -4 12 -237 24
-237 12z"/>
<path d="M297 964 c-8 -8 1 -24 14 -24 5 0 9 7 9 15 0 15 -12 20 -23 9z"/>
<path d="M362 958 c5 -13 104 -70 128 -73 8 -1 28 -7 45 -14 16 -7 67 -21 113
-32 45 -10 93 -26 106 -34 23 -15 96 -36 171 -50 40 -7 65 -21 65 -36 0 -9
-54 6 -195 51 -49 16 -130 37 -180 46 -49 9 -109 26 -132 37 -23 11 -46 18
-49 14 -9 -9 35 -57 53 -57 7 0 21 -4 31 -9 16 -9 84 -29 222 -67 65 -17 100
-38 87 -50 -4 -4 -17 -3 -30 3 -80 37 -113 43 -103 17 5 -13 3 -14 -6 -7 -12
9 -76 32 -153 53 -16 5 -52 12 -80 16 l-50 7 30 -25 c37 -30 62 -40 70 -27 4
5 12 4 19 -4 8 -7 40 -19 72 -26 33 -7 79 -20 104 -28 25 -9 65 -17 90 -18 25
-1 59 -9 77 -18 18 -10 40 -17 51 -17 22 0 60 -26 50 -35 -3 -4 -20 1 -37 9
-31 16 -45 9 -35 -17 6 -17 30 -31 54 -31 8 -1 17 -12 18 -26 2 -13 13 -30 23
-38 10 -7 19 -23 19 -36 0 -43 89 -98 127 -78 10 6 30 8 44 5 29 -5 48 12 31
29 -7 7 -20 7 -41 0 -39 -14 -66 -6 -79 24 -7 14 -17 21 -26 18 -8 -3 -17 0
-21 6 -11 18 -1 20 36 9 67 -21 226 -25 240 -6 4 5 16 3 28 -5 15 -9 26 -10
38 -2 40 25 25 34 -54 34 -74 0 -82 2 -113 30 -33 29 -33 30 -9 30 13 0 53
-10 88 -22 48 -17 65 -20 69 -10 5 17 79 15 135 -4 61 -20 53 -32 -18 -26 -32
3 -55 0 -55 -5 0 -16 38 -46 49 -39 5 4 12 2 15 -3 3 -5 -5 -12 -19 -15 -27
-7 -32 -25 -13 -44 12 -12 11 -13 -19 -12 -5 0 -8 13 -8 28 0 22 -4 27 -25 27
-21 0 -25 -4 -23 -26 1 -19 -5 -30 -23 -38 -29 -13 -30 -22 -4 -46 11 -10 20
-13 20 -7 0 19 17 14 23 -7 3 -12 17 -21 42 -25 20 -4 39 -6 40 -4 2 2 5 26 7
53 3 58 23 91 45 73 16 -13 29 -3 35 27 2 11 13 24 26 30 28 12 28 23 0 27
-31 4 -32 23 -2 37 18 8 24 15 17 22 -9 9 -31 11 -237 24 -49 4 -103 13 -120
21 -31 14 -31 14 19 8 28 -3 56 -5 63 -4 23 2 67 1 127 -4 33 -3 65 -5 70 -6
22 -1 75 13 75 20 0 26 -79 40 -175 32 -62 -6 -221 16 -265 37 -25 11 -63 25
-85 31 -22 5 -49 16 -60 24 -19 15 -19 15 8 16 15 0 45 -9 67 -20 22 -11 49
-20 60 -20 12 0 34 -7 50 -15 25 -13 79 -22 170 -28 49 -4 30 18 -32 36 -139
39 -205 60 -256 78 -30 10 -66 19 -82 19 -15 0 -33 7 -40 15 -7 8 -23 15 -37
15 -13 0 -49 11 -81 24 -31 13 -88 34 -127 46 -38 13 -86 29 -105 37 -19 7
-64 20 -100 27 -36 8 -78 19 -93 25 -37 14 -70 14 -65 -1z m556 -277 c20 -10
144 -47 185 -56 15 -3 27 -10 27 -15 0 -19 -67 -10 -115 15 -26 14 -69 30 -96
36 -27 6 -51 15 -55 20 -7 11 31 12 54 0z m287 -91 c3 -6 -5 -10 -19 -10 -14
0 -28 5 -31 10 -3 6 5 10 19 10 14 0 28 -4 31 -10z m-150 -30 c8 -13 -5 -13
-25 0 -13 8 -13 10 2 10 9 0 20 -4 23 -10z m99 -13 c17 -12 17 -14 3 -20 -21
-8 -79 12 -71 24 8 13 48 11 68 -4z m-84 -47 c11 -21 4 -25 -24 -14 -9 3 -16
12 -16 20 0 21 28 17 40 -6z m70 -20 c0 -5 -7 -10 -16 -10 -8 0 -12 5 -9 10 3
6 10 10 16 10 5 0 9 -4 9 -10z m312 -192 c-21 -21 -32 -3 -15 22 16 22 18 23
21 6 2 -10 -1 -23 -6 -28z"/>
<path d="M2135 915 c-33 -7 -69 -12 -80 -12 -60 2 -85 -4 -85 -18 0 -11 12
-15 46 -15 70 0 234 22 234 32 0 7 -46 30 -53 27 -1 0 -29 -6 -62 -14z"/>
<path d="M1780 890 c-26 -16 0 -25 87 -29 78 -3 85 -2 81 15 -3 16 -14 19 -78
21 -41 1 -82 -2 -90 -7z"/>
<path d="M346 874 c-9 -22 -8 -24 10 -24 8 0 22 -7 30 -15 9 -8 20 -15 25 -15
24 0 -3 40 -41 60 -13 7 -20 6 -24 -6z"/>
<path d="M2657 873 c-12 -6 -49 -15 -82 -18 -33 -4 -72 -16 -87 -26 -14 -11
-40 -19 -57 -19 -35 0 -38 -5 -16 -27 14 -14 24 -13 98 6 45 12 100 27 122 32
57 14 155 50 160 59 8 13 -114 6 -138 -7z"/>
<path d="M1450 866 c0 -20 27 -45 55 -52 53 -13 64 35 12 54 -44 16 -67 15
-67 -2z"/>
<path d="M2402 858 c-24 -12 -25 -34 -1 -31 46 7 83 20 87 31 5 15 -54 15 -86
0z"/>
<path d="M2136 853 c-4 -4 -40 -12 -79 -18 -56 -8 -73 -14 -75 -27 -4 -22 25
-24 54 -4 15 11 30 12 59 6 29 -7 41 -5 49 5 6 8 25 15 41 17 17 2 30 8 30 13
0 12 -68 19 -79 8z"/>
<path d="M1580 836 c0 -22 22 -34 70 -38 35 -2 45 0 48 14 2 12 -9 19 -48 27
-65 14 -70 14 -70 -3z"/>
<path d="M1837 823 c-74 -4 -78 -5 -75 -26 2 -14 9 -20 18 -18 8 3 26 4 40 3
61 -4 115 0 127 10 21 17 15 38 -9 36 -13 -1 -58 -4 -101 -5z"/>
<path d="M310 801 c0 -6 5 -13 10 -16 6 -3 10 1 10 9 0 9 -4 16 -10 16 -5 0
-10 -4 -10 -9z"/>
<path d="M1370 803 c1 -17 27 -39 60 -50 57 -20 136 -27 145 -13 10 17 -25 40
-60 39 -16 -1 -47 6 -67 15 -39 17 -78 21 -78 9z"/>
<path d="M2244 799 c-22 -4 -84 -14 -139 -23 -55 -9 -116 -21 -135 -27 -34 -9
-230 1 -322 17 -29 5 -38 3 -38 -7 0 -25 16 -39 41 -38 13 0 42 -4 64 -10 22
-6 68 -11 102 -11 49 0 64 4 73 18 9 16 11 16 20 0 8 -13 21 -15 72 -11 35 3
69 10 76 16 7 5 45 13 85 18 172 20 219 27 229 37 28 28 -30 37 -128 21z"/>
<path d="M2578 765 c-15 -8 -42 -15 -60 -14 -18 0 -53 -5 -78 -11 -25 -6 -62
-11 -84 -11 -21 1 -53 -3 -70 -8 -17 -6 -49 -12 -71 -14 -22 -1 -45 -6 -51
-10 -6 -3 -42 -9 -80 -12 -38 -2 -84 -9 -103 -15 -22 -6 -69 -6 -139 1 -125
13 -195 6 -190 -19 2 -12 15 -18 43 -20 57 -4 200 -1 254 5 25 3 66 5 90 4 24
-1 50 4 57 10 12 10 48 16 109 20 11 1 47 5 80 11 33 5 78 11 100 13 22 3 52
10 67 16 16 6 37 9 48 6 11 -3 23 -1 26 4 3 5 27 9 54 9 49 0 70 16 47 39 -14
14 -16 14 -49 -4z"/>
<path d="M316 723 c-11 -11 -6 -23 9 -23 8 0 15 4 15 9 0 13 -16 22 -24 14z"/>
<path d="M1455 700 c-18 -30 55 -58 103 -39 l27 11 -30 13 c-49 21 -92 27
-100 15z"/>
<path d="M2435 675 c-27 -7 -64 -14 -81 -14 -37 -1 -66 -27 -41 -37 9 -3 31
-1 49 4 18 6 59 13 90 17 34 4 67 14 80 25 l23 19 -35 -1 c-19 0 -57 -6 -85
-13z"/>
<path d="M465 660 c3 -5 10 -10 16 -10 5 0 9 5 9 10 0 6 -7 10 -16 10 -8 0
-12 -4 -9 -10z"/>
<path d="M2542 644 c-20 -16 -47 -23 -96 -27 -38 -3 -74 -11 -79 -16 -6 -6
-31 -11 -54 -11 -46 0 -103 -23 -103 -42 0 -7 12 -8 33 -4 17 4 73 13 122 22
50 8 98 19 107 25 10 5 26 9 37 9 20 0 113 38 121 50 3 4 12 10 20 13 8 3 -6
5 -32 4 -32 -1 -57 -8 -76 -23z"/>
<path d="M400 645 c7 -8 16 -15 21 -15 5 0 9 7 9 15 0 9 -9 15 -21 15 -18 0
-19 -2 -9 -15z"/>
<path d="M517 644 c-15 -16 -6 -24 15 -13 17 9 24 9 32 -2 19 -25 64 -42 96
-37 17 3 33 1 36 -4 3 -4 16 -8 28 -8 13 0 40 -7 59 -15 49 -20 67 -19 67 5 0
23 -43 44 -74 36 -10 -3 -33 2 -49 11 -17 8 -46 17 -66 19 -20 2 -59 6 -86 10
-28 3 -53 2 -58 -2z"/>
<path d="M2160 623 c-58 -7 -139 -18 -180 -24 -41 -5 -83 -10 -92 -10 -10 0
-18 -5 -18 -10 0 -6 4 -8 9 -5 5 3 14 -1 21 -9 8 -10 18 -12 29 -6 9 4 48 11
86 15 165 16 277 42 254 59 -2 2 -51 -3 -109 -10z"/>
<path d="M1635 590 c-3 -5 1 -10 9 -10 9 0 16 5 16 10 0 6 -4 10 -9 10 -6 0
-13 -4 -16 -10z"/>
<path d="M1691 572 c2 -15 0 -33 -5 -40 -5 -9 0 -22 14 -38 l23 -24 -23 -8
c-26 -10 -19 -17 28 -27 25 -5 33 -3 39 11 4 10 2 19 -4 21 -7 3 -9 18 -6 39
5 30 3 34 -16 34 -25 0 -27 12 -6 30 20 16 10 30 -21 30 -22 0 -25 -4 -23 -28z"/>
<path d="M1760 563 c0 -27 8 -28 55 -9 48 21 44 35 -10 33 -39 -2 -45 -5 -45
-24z"/>
<path d="M2545 560 c4 -6 11 -8 16 -5 14 9 11 15 -7 15 -8 0 -12 -5 -9 -10z"/>
<path d="M2070 549 c-96 -13 -141 -24 -140 -34 0 -5 22 -9 48 -8 26 1 65 2 88
2 25 0 50 8 64 19 30 24 13 30 -60 21z"/>
<path d="M2476 551 c-3 -4 -41 -11 -83 -15 -43 -4 -82 -7 -88 -8 -5 -1 -24 -7
-42 -15 -18 -7 -46 -13 -63 -13 -23 0 -30 -4 -30 -20 0 -23 37 -28 73 -8 12 6
49 13 82 14 53 3 190 35 202 48 3 3 2 9 -2 15 -8 13 -42 15 -49 2z"/>
<path d="M570 545 c0 -15 65 -34 116 -33 38 1 85 -7 131 -22 60 -20 74 -21 87
-11 25 21 19 27 -41 39 -88 18 -293 37 -293 27z"/>
<path d="M1780 517 c0 -13 52 -28 84 -25 19 2 32 9 34 19 2 14 -7 16 -58 15
-33 0 -60 -4 -60 -9z"/>
<path d="M2095 480 c-11 -5 -38 -9 -60 -9 -23 -1 -46 -6 -52 -12 -7 -7 -23 -7
-53 1 -49 13 -76 0 -50 -23 12 -11 37 -12 130 -3 120 11 140 17 140 42 0 15
-24 17 -55 4z"/>
<path d="M2429 464 c-7 -8 -19 -12 -27 -9 -18 7 -82 -13 -82 -26 0 -16 75 -9
115 11 22 11 47 20 57 20 10 0 18 4 18 8 0 15 -68 12 -81 -4z"/>
<path d="M1815 460 c-8 -12 20 -24 35 -15 6 3 8 11 5 16 -8 12 -32 12 -40 -1z"/>
<path d="M654 451 c-14 -15 3 -21 51 -20 30 1 55 5 55 10 0 7 -99 17 -106 10z"/>
<path d="M867 453 c-4 -3 -20 -6 -37 -5 -16 0 -32 -3 -35 -8 -10 -15 28 -28
94 -31 77 -5 91 11 31 35 -46 18 -45 18 -53 9z"/>
<path d="M2265 441 c-6 -11 33 -36 42 -27 7 7 -16 36 -28 36 -4 0 -10 -4 -14
-9z"/>
<path d="M2220 425 c-7 -8 -19 -14 -28 -13 -60 5 -112 -3 -112 -16 0 -24 14
-26 76 -15 83 14 94 18 94 34 0 21 -16 27 -30 10z"/>
<path d="M1680 410 c-7 -4 -10 -15 -7 -23 3 -8 1 -19 -5 -25 -23 -23 4 -33 80
-28 90 5 82 4 82 16 0 6 -20 10 -45 10 -48 0 -58 12 -25 30 11 6 20 14 20 19
0 10 -83 11 -100 1z"/>
<path d="M1832 408 c3 -7 15 -15 27 -16 16 -3 22 1 19 10 -3 7 -15 15 -27 16
-16 3 -22 -1 -19 -10z"/>
<path d="M535 390 c3 -5 10 -10 16 -10 5 0 9 5 9 10 0 6 -7 10 -16 10 -8 0
-12 -4 -9 -10z"/>
<path d="M1250 386 c0 -24 19 -29 52 -15 27 11 29 14 12 20 -32 13 -64 10 -64
-5z"/>
<path d="M1989 395 c-3 -2 -29 -8 -59 -12 -57 -9 -83 -33 -33 -32 87 2 207 49
126 49 -17 0 -32 -2 -34 -5z"/>
<path d="M2430 385 c0 -19 40 -20 66 0 18 13 16 14 -23 15 -32 0 -43 -4 -43
-15z"/>
<path d="M650 381 c0 -5 5 -13 10 -16 6 -3 10 -2 10 4 0 5 -4 13 -10 16 -5 3
-10 2 -10 -4z"/>
<path d="M726 373 c-21 -21 37 -45 89 -36 51 8 49 37 -2 31 -21 -3 -48 -2 -59
3 -12 4 -25 5 -28 2z"/>
<path d="M2330 365 c-10 -13 -9 -15 11 -15 34 0 69 11 69 21 0 15 -67 10 -80
-6z"/>
<path d="M906 361 c-8 -12 18 -21 60 -21 35 0 46 13 18 24 -24 9 -72 7 -78 -3z"/>
<path d="M1527 354 c-4 -4 -7 -11 -7 -16 0 -13 50 -6 53 7 2 12 -36 19 -46 9z"/>
<path d="M2243 352 c-13 -2 -23 -10 -23 -18 0 -19 39 -18 47 1 7 20 4 22 -24
17z"/>
<path d="M2137 343 c-4 -3 -48 -8 -99 -10 -91 -4 -128 -14 -128 -34 0 -7 13
-9 38 -5 20 4 57 9 82 11 98 8 164 21 168 33 4 13 -49 18 -61 5z"/>
<path d="M595 321 c-7 -12 12 -24 25 -16 11 7 4 25 -10 25 -5 0 -11 -4 -15 -9z"/>
<path d="M1210 323 c-44 -4 -70 -17 -70 -35 0 -5 30 -8 68 -6 61 3 67 5 70 26
2 14 -1 21 -10 20 -7 -1 -33 -3 -58 -5z"/>
<path d="M2435 320 c-3 -5 -2 -10 4 -10 5 0 13 5 16 10 3 6 2 10 -4 10 -5 0
-13 -4 -16 -10z"/>
<path d="M525 310 c3 -5 11 -10 16 -10 6 0 7 5 4 10 -3 6 -11 10 -16 10 -6 0
-7 -4 -4 -10z"/>
<path d="M1618 297 c-39 -15 -35 -25 8 -21 40 3 49 8 39 23 -7 13 -11 13 -47
-2z"/>
<path d="M1710 296 c0 -11 17 -14 83 -12 47 0 82 5 82 11 0 6 -36 11 -82 13
-67 2 -83 0 -83 -12z"/>
<path d="M2345 299 c-12 -19 2 -21 32 -5 l28 15 -27 1 c-15 0 -30 -5 -33 -11z"/>
<path d="M923 293 c-21 -8 -14 -26 7 -20 11 3 23 1 26 -4 8 -13 26 -11 22 3
-5 14 -39 27 -55 21z"/>
<path d="M1024 279 c-8 -14 14 -29 33 -22 7 3 13 11 13 19 0 17 -36 19 -46 3z"/>
<path d="M2183 275 c-8 -14 -13 -15 -30 -4 -18 11 -25 9 -49 -11 l-29 -23 60
7 c64 7 86 19 68 37 -8 8 -14 6 -20 -6z"/>
<path d="M2237 283 c-9 -2 -15 -9 -12 -14 12 -18 85 -7 85 12 0 9 -41 10 -73
2z"/>
<path d="M1277 244 c-26 -14 -45 -29 -42 -35 8 -12 135 -1 153 14 18 14 15 27
-9 27 -11 0 -28 4 -37 9 -12 6 -31 2 -65 -15z"/>
<path d="M2060 259 c0 -5 5 -7 10 -4 6 3 10 8 10 11 0 2 -4 4 -10 4 -5 0 -10
-5 -10 -11z"/>
<path d="M1932 253 c-20 -8 5 -33 33 -33 22 0 40 22 28 34 -7 7 -43 7 -61 -1z"/>
<path d="M2025 250 c3 -5 10 -10 16 -10 5 0 9 5 9 10 0 6 -7 10 -16 10 -8 0
-12 -4 -9 -10z"/>
<path d="M1168 244 c-13 -13 5 -34 29 -34 18 0 24 5 21 18 -3 17 -38 29 -50
16z"/>
<path d="M1830 244 c-67 -12 -72 -14 -60 -29 9 -10 33 -15 77 -15 61 0 64 1
61 23 -3 23 -26 29 -78 21z"/>
<path d="M1675 220 c-4 -7 -3 -16 3 -22 14 -14 65 -1 59 15 -5 16 -53 21 -62
7z"/>
<path d="M1000 200 c0 -15 50 -24 63 -11 6 6 7 14 3 18 -4 4 -10 2 -14 -4 -5
-8 -13 -9 -22 -3 -19 12 -30 12 -30 0z"/>
<path d="M841 184 c0 -11 3 -14 6 -6 3 7 2 16 -1 19 -3 4 -6 -2 -5 -13z"/>
<path d="M737 176 c-4 -9 5 -16 25 -20 39 -8 49 1 24 20 -25 18 -42 18 -49 0z"/>
<path d="M1085 180 c3 -5 8 -10 11 -10 2 0 4 5 4 10 0 6 -5 10 -11 10 -5 0 -7
-4 -4 -10z"/>
<path d="M1422 148 c-29 -29 -1 -39 30 -11 14 13 21 14 30 5 16 -16 25 -15 32
3 4 12 -3 15 -37 15 -24 0 -48 -5 -55 -12z"/>
<path d="M1345 130 c-9 -14 -6 -17 29 -26 24 -6 27 -4 24 12 -4 21 -42 31 -53
14z"/>
<path d="M960 111 c0 -6 5 -13 10 -16 6 -3 10 1 10 9 0 9 -4 16 -10 16 -5 0
-10 -4 -10 -9z"/>
<path d="M1275 110 c-3 -5 3 -10 14 -10 12 0 21 5 21 10 0 6 -6 10 -14 10 -8
0 -18 -4 -21 -10z"/>
<path d="M1560 100 c0 -5 7 -10 15 -10 8 0 15 5 15 10 0 6 -7 10 -15 10 -8 0
-15 -4 -15 -10z"/>
<path d="M1319 90 c-11 -7 -10 -10 4 -16 10 -4 23 -2 28 3 14 14 -13 24 -32
13z"/>
</g>
</svg>
