<svg width="447" height="703" viewBox="0 0 447 703" fill="none" xmlns="http://www.w3.org/2000/svg">
<path d="M223.467 17.6C222.4 19.2 221.733 20.9334 222.133 21.4667C223.067 23.0667 230 20.2667 232.8 17.2C235.067 14.8 234.933 14.6667 230.267 14.6667C226.933 14.6667 224.933 15.4667 223.467 17.6Z" fill="black"/>
<path d="M184.933 21.8666C184.533 22.9332 184.667 24.2666 185.333 24.6666C187.067 25.7332 188.533 22.6666 186.933 21.0666C186.133 20.2666 185.467 20.5332 184.933 21.8666Z" fill="black"/>
<path d="M207.333 23.2C197.2 27.2 187.333 32.1333 177.6 38.2666C165.467 46 132 69.8666 132.667 70.4C134.133 71.8666 142.267 68.4 152.267 62C158.4 58.1333 166.133 54 169.467 52.9333C174.133 51.3333 175.333 50.2666 175.333 47.8666C175.333 45.0666 176.267 44.5333 181.867 43.7333C185.333 43.2 191.333 41.3333 195.067 39.4666C205.067 34.6666 221.333 19.7333 216.4 20C215.733 20.1333 211.733 21.4666 207.333 23.2Z" fill="black"/>
<path d="M273.6 22.2667C273.867 23.8667 275.2 24.6667 277.333 24.6667C279.467 24.6667 280.8 23.8667 281.067 22.2667C281.467 20.5334 280.667 20.0001 277.333 20.0001C274 20.0001 273.2 20.5334 273.6 22.2667Z" fill="black"/>
<path d="M171.333 28.7999C168.8 31.3333 169.333 32.3999 172.533 31.1999C173.733 30.7999 174.667 29.5999 174.667 28.5333C174.667 26.1333 174 26.1333 171.333 28.7999Z" fill="black"/>
<path d="M223.333 32.0001C216.8 34.1334 208.8 36.5334 205.733 37.3334C202.267 38.1334 199.867 39.7334 199.333 41.3334C198 45.4668 191.467 50.1334 181.6 53.8668C174.667 56.5334 170.8 59.0668 166 64.1334C161.067 69.3334 155.867 72.6668 142.133 79.3334C124.4 88.0001 114.667 94.6668 114.667 98.1334C114.667 100.667 114.933 100.533 123.333 96.5334C127.333 94.6668 132.8 92.8001 135.6 92.4001C138.8 91.8668 142.667 89.8668 146.133 86.6668C149.2 83.8668 154.667 80.6668 158.8 79.3334C170.933 75.3334 175.467 72.4001 183.467 63.3334C191.6 54.1334 198 49.3334 202 49.3334C203.333 49.3334 207.067 46.9334 210.267 43.8668C217.2 37.4668 223.333 34.6668 230.4 34.6668C233.733 34.6668 236.4 33.7334 237.733 32.2668C242.667 26.8001 239.6 26.8001 223.333 32.0001Z" fill="black"/>
<path d="M250 37.4666C244.667 38.6666 240.8 41.9999 242.133 44.1333C242.533 44.7999 244.8 45.3333 247.333 45.3333C250.533 45.3333 252.533 44.3999 254.533 41.8666C257.333 38.2666 258.133 35.8666 256.4 36.1333C255.733 36.2666 252.933 36.7999 250 37.4666Z" fill="black"/>
<path d="M260 38.6666C260 40.7999 260.933 41.3333 264.667 41.3333C268.4 41.3333 269.333 40.7999 269.333 38.6666C269.333 36.5333 268.4 35.9999 264.667 35.9999C260.933 35.9999 260 36.5333 260 38.6666Z" fill="black"/>
<path d="M283.2 37.9999C283.6 39.1999 284 40.5333 284 40.7999C284 41.0666 284.933 41.3333 286.133 41.3333C289.067 41.3333 287.867 36.7999 284.8 36.2666C282.933 35.8666 282.533 36.2666 283.2 37.9999Z" fill="black"/>
<path d="M235.067 43.3333C234.667 44.5333 234.667 45.7333 235.067 46.1333C236.267 47.3333 238.667 45.3333 238.667 43.2C238.667 40.6667 236.133 40.8 235.067 43.3333Z" fill="black"/>
<path d="M219.467 48.8001C218.667 50.8001 221.733 54.5334 224.4 54.6667C225.867 54.6667 225.467 50.0001 223.733 48.2667C221.6 46.1334 220.4 46.2667 219.467 48.8001Z" fill="black"/>
<path d="M258.533 48C244.533 48.6667 244.4 48.6667 240.8 52.9334C238.133 56 236 57.3334 233.2 57.3334C231.067 57.3334 227.067 58.1334 224.4 59.2C221.6 60.2667 212.533 63.3334 204.133 66C194.933 68.8 185.2 73.0667 179.467 76.5334C174.267 79.7334 168.533 82.8 166.667 83.3334C164.8 83.8667 160.933 86.5334 158 89.2C155.067 92 150.133 94.9334 147.067 95.8667C143.867 96.6667 140.133 99.0667 138.133 101.333C135.733 104.267 133.6 105.333 130.667 105.333C127.6 105.333 126.267 106 125.733 107.867C125.333 109.2 122.267 112.133 118.933 114.4C115.467 116.667 110.933 120.267 108.667 122.667L104.667 126.8L110.667 125.867C120.533 124.4 124 121.867 124 116.4C124 113.733 124.267 113.6 127.333 114.933C131.6 116.8 136.8 114.533 149.333 105.333C154.133 101.867 160 98 162.4 96.8C165.2 95.3334 166.667 93.6 166.667 91.8667C166.667 89.4667 166.933 89.3334 168.667 90.6667C170.267 92 171.2 92 172.267 90.9334C173.2 90 174.933 89.3334 176.133 89.3334C177.333 89.3334 183.6 86 190.133 82C201.867 74.5334 219.2 68 226.8 68C229.067 68 232.8 66.5334 235.067 64.8C239.467 61.4667 249.467 57.7334 262.667 54.6667C270.133 52.8 274 50.5334 273.2 48.4C272.933 47.8667 266.267 47.6 258.533 48Z" fill="black"/>
<path d="M277.333 47.9999C277.333 48.6666 278.133 49.3333 279.2 49.3333C280.267 49.3333 281.6 48.6666 282 47.9999C282.4 47.1999 281.6 46.6666 280.133 46.6666C278.533 46.6666 277.333 47.1999 277.333 47.9999Z" fill="black"/>
<path d="M204.533 51.9999C201.867 53.0666 195.467 59.9999 196.4 60.7999C197.2 61.5999 213.467 56.2666 215.6 54.5332C217.333 52.9332 217.333 52.6666 215.067 51.8666C211.867 50.5332 208 50.5332 204.533 51.9999Z" fill="black"/>
<path d="M285.2 54.6667C274.533 56.5334 266 62.5334 266.933 67.4667C267.333 69.6001 267.867 69.4667 270.8 66.2667L274.133 62.5334L276.667 65.3334C279.867 68.8001 280.267 68.8001 290.4 63.7334L299.067 59.6001L308.933 62.0001L318.8 64.5334L322.267 60.9334L325.867 57.4667L321.867 55.8667C317.067 54.0001 293.333 53.0667 285.2 54.6667Z" fill="black"/>
<path d="M238.8 70.2667C225.467 74.1334 209.867 79.2 204.133 81.4667C191.867 86.4 177.333 95.3334 169.867 102.4C166.267 106 163.2 107.6 160.8 107.6C158.267 107.6 155.2 109.467 150.933 113.6C147.467 116.933 135.733 125.467 124.667 132.667C104.533 145.733 99.6 149.467 84 162.667C73.7333 171.333 73.3333 171.733 73.3333 175.733C73.3333 180.4 77.4667 178.933 80.6667 173.067C82.8 169.067 84.8 167.6 90.9333 165.333C95.0667 163.867 100.4 160.8 102.533 158.667C104.667 156.4 107.867 154.667 109.467 154.667C113.733 154.667 120.267 149.2 125.333 141.467C127.6 137.733 130.267 134.667 131.2 134.667C135.2 134.667 147.6 127.2 163.333 115.467C186.4 98 190.533 95.8667 215.067 87.8667C226.667 84.1334 238.267 79.6 240.8 77.8667C248.8 72.4 253.467 70.4 256.533 71.2C260.4 72.1334 264.4 69.2 263.733 65.8667C263.333 63.3334 262.267 63.4667 238.8 70.2667Z" fill="black"/>
<path d="M306.533 70.6666C302.4 71.3333 292 73.5999 283.2 75.8666C274.533 77.9999 264 80.1333 260 80.6666C252.133 81.7333 246.8 83.8666 244.133 87.1999C242.533 89.0666 242.933 89.3333 247.6 89.3333C250.533 89.3333 263.067 87.4666 275.467 85.0666C295.2 81.3333 300.8 80.7999 320.667 80.7999C340.667 80.7999 344.267 81.0666 351.067 83.5999C358.533 86.5333 358.667 86.5333 358.667 83.8666C358.667 82.3999 357.6 80.9333 356.4 80.3999C355.067 79.9999 349.867 77.5999 344.667 75.0666C337.067 71.4666 333.333 70.5333 324.667 69.9999C318.8 69.7333 310.667 69.9999 306.533 70.6666Z" fill="black"/>
<path d="M303.733 88C301.733 88.5333 296.8 90.9333 292.933 93.2C285.067 97.7333 281.067 98.1333 270.8 95.7333C264.4 94.2666 263.733 94.4 260.8 97.2C258.4 99.4666 256.4 100 252.533 99.7333C247.733 99.3333 247.333 99.6 246.933 103.2L246.4 107.067L254 106.133C258.267 105.733 275.2 102.533 291.867 99.3333C333.467 91.0666 335.733 90.8 340.8 95.0666C343.067 97.0666 347.333 98.9333 350.4 99.4666C356 100.4 362.667 99.3333 362.667 97.6C362.667 96 353.067 91.0666 345.467 88.8C337.6 86.5333 310.4 86 303.733 88Z" fill="black"/>
<path d="M224.267 92.6667C193.6 100.533 151.467 127.467 124.4 156.533C119.2 162 115.067 165.333 113.2 165.333C111.6 165.333 107.6 168.267 103.6 172.267C99.7333 176.133 93.7333 181.467 90 184C86.4 186.533 82.1333 190.8 80.6667 193.467C78.4 197.6 77.6 198.133 75.6 196.8C73.6 195.6 72.6667 196 70 198.933C66.5333 202.933 60.9333 216.667 61.6 219.6C61.8667 220.8 66.9333 216.8 74.6667 209.333C88.8 195.467 105.333 182 122.533 170C131.333 163.733 134.8 160.4 137.6 155.333C139.6 151.733 143.2 147.067 145.6 145.067C154.133 137.867 180.933 121.6 205.733 108.533C226.667 97.4667 240.133 89.3333 237.333 89.4667C236.933 89.4667 231.067 90.9333 224.267 92.6667Z" fill="black"/>
<path d="M305.333 104C305.333 106.267 311.733 112 316.4 114C323.467 116.933 334.133 117.867 338.533 116C342.133 114.533 342.933 114.8 347.067 117.867C354.4 123.467 383.867 133.867 386.133 131.6C387.733 130 383.733 125.333 380.667 125.333C378.133 125.333 377.2 124.4 376.267 120.933C375.2 116.8 374.667 116.533 356.933 111.067C346.933 108 335.067 104.8 330.4 104C319.333 102.267 305.333 102.267 305.333 104Z" fill="black"/>
<path d="M219.333 107.733C210.8 110.667 203.733 114.8 188.267 126C181.333 130.933 170.533 137.867 164.267 141.6C157.867 145.2 150.133 150.267 147.067 152.8C141.867 157.067 135.067 166.133 136.267 167.333C137.6 168.8 151.467 160.667 165.333 150.267C180.667 138.667 204.4 125.333 220.133 119.467C227.467 116.8 228.8 115.733 229.6 112.133C230.667 108.267 231.2 108 236.667 108C239.867 108 242.933 107.333 243.333 106.667C244.667 104.4 226.533 105.2 219.333 107.733Z" fill="black"/>
<path d="M280 111.2C278.133 112.4 273.2 113.333 268.667 113.333C259.333 113.333 257.733 114.133 256.133 119.467L255.067 123.467L275.2 122.933C294.667 122.4 305.333 121.067 305.333 118.8C305.333 118.267 303.6 116.133 301.333 114C296.533 109.467 285.467 108 280 111.2Z" fill="black"/>
<path d="M306.667 120.267C306.667 124.267 308.667 127.2 310.4 126.133C311.2 125.6 313.867 127.067 316.4 129.2C319.867 132.267 324.533 134.133 337.333 137.333C356.933 142.267 361.733 144.133 368.4 149.467C372.267 152.667 374.267 153.333 377.2 152.667C380.133 152 381.867 152.667 385.067 155.333C387.2 157.2 389.6 158.667 390.4 158.667C392.667 158.667 393.467 154.4 391.733 152.267C388.267 148.133 370.267 137.333 360.267 133.467C348.933 129.2 311.067 117.333 308.4 117.333C307.467 117.333 306.667 118.667 306.667 120.267Z" fill="black"/>
<path d="M241.333 121.333C215.067 126.8 187.333 141.333 158.267 165.2C147.067 174.4 144 176.133 144 173.333C144 171.467 138.267 171.6 136.267 173.6C135.333 174.533 134.667 176.533 134.667 178.133C134.667 181.733 132.533 183.467 131.467 180.667C130.4 177.733 126.133 178.267 123.2 181.467C121.867 183.067 113.733 189.867 105.333 196.667C89.3333 209.467 76.1333 222.8 72.6667 229.467C70.9333 232.667 70 233.2 67.3333 232.533C64.6667 231.867 63.6 232.533 61.3333 236.4C59.7333 238.933 57.7333 241.467 56.6667 241.867C55.6 242.267 54 245.067 53.2 248.133C51.8667 252.4 50.5333 254.133 47.0667 255.6C42 257.6 40 261.067 42.8 262.8C47.7333 265.867 57.2 257.2 60 247.2C61.7333 241.333 63.2 240.8 64.2667 245.733C64.5333 247.733 67.6 245.733 79.0667 236.4C87.0667 230 94.6667 224.133 96 223.467C97.3333 222.667 99.4667 220.267 100.8 218.133C107.6 206.4 118.4 197.867 143.333 184C152.933 178.667 166.933 169.6 174.667 163.867C192.933 150.4 202.667 144.533 210.667 142.533C215.067 141.467 217.6 139.867 218.8 137.6C221.067 133.467 227.467 130.267 231.467 131.2C233.333 131.733 236 131.2 237.733 130.133C239.333 129.067 242.933 127.733 245.6 127.333C250.933 126.267 253.867 123.867 253.067 120.933C252.8 119.333 250.933 119.333 241.333 121.333Z" fill="black"/>
<path d="M260.4 131.2C251.067 133.333 248 134.8 240.933 140.4C236.933 143.467 235.467 144 234.667 142.667C232.933 140 222.267 141.867 212.933 146.533C208.4 148.8 197.467 156.133 188.667 162.8C179.733 169.6 167.733 177.333 161.333 180.267C148.667 186.4 135.333 196.4 114.667 215.333C106.933 222.533 98.6667 229.867 96.2667 231.6C93.3333 234 91.4667 236.933 90.5333 240.933C88.8 247.6 87.2 249.2 86 245.333C84.8 241.467 82.6667 242 82.6667 246.267C82.6667 251.333 81.3333 256 79.8667 256C79.2 256 78.6667 254.533 78.6667 252.667C78.6667 250.8 78.1333 249.333 77.3333 249.333C76.6667 249.333 76 250.267 76 251.467C76 252.667 74.1333 254.267 72 255.067C68.1333 256.533 67.8667 256.933 68.6667 261.6C69.6 266.667 69.6 266.667 65.4667 265.867C62.1333 265.2 60.6667 265.733 57.3333 269.067C54.1333 272.267 53.3333 274.267 53.3333 278.667C53.3333 283.867 53.4667 284.133 56.9333 283.733C60.2667 283.333 60.6667 282.8 60.5333 278.267C60.4 273.2 62.1333 272 65.0667 274.933C66.4 276.267 69.8667 273.467 81.7333 260.933C90.5333 251.733 99.0667 244 102.533 242.267C106.8 240 108.933 238 110 234.667C111.2 231.067 116 226.933 136.133 212.267C149.6 202.4 169.067 187.6 179.333 179.333C200.4 162.533 206.8 158 217.333 152.667C223.6 149.467 225.067 149.2 228.667 150.533C233.2 152.133 239.733 150.8 266 142.667C274 140.267 281.467 138.667 284.667 138.933C289.333 139.333 290 138.933 290.4 136.4C290.8 134.133 290 132.933 287.6 132.133C281.467 129.733 268.8 129.333 260.4 131.2Z" fill="black"/>
<path d="M299.333 130.4C294.4 131.467 292 134.533 293.6 138C294.8 140.667 296.267 141.067 305.467 141.867C314 142.667 316.8 143.467 320 146.133C324.533 150 328.533 149.867 329.067 146C329.733 141.067 306.667 128.933 299.333 130.4Z" fill="black"/>
<path d="M338 144C337.067 145.6 338.267 148 340.133 148C341.733 148 341.733 144.4 340.133 143.333C339.467 142.933 338.533 143.2 338 144Z" fill="black"/>
<path d="M346.4 149.6C346 153.867 345.867 154 340.667 153.6C333.333 153.067 321.067 150.933 310.267 148.4C297.6 145.467 279.6 146.667 260.667 152C252.667 154.133 237.6 158.133 227.2 160.533C201.6 166.8 186.667 173.867 182.533 181.733C181.2 184.133 181.467 184.133 185.6 183.333C188 182.8 196.133 180.267 203.6 177.867C213.067 174.667 219.6 173.333 225.333 173.333C232.8 173.333 233.867 172.933 236.933 169.333C239.067 166.8 241.467 165.333 243.733 165.333C245.6 165.333 256.133 163.467 267.2 161.2C292.8 156 303.2 155.733 313.733 160.533C322.4 164.4 326.4 164.8 330 162.133C332.133 160.533 333.2 160.933 338.4 164.533C343.467 168.133 345.333 168.667 352.8 168.667C357.467 168.667 361.333 169.067 361.333 169.6C361.333 171.733 368 174.8 375.867 176.133C382.667 177.333 385.733 178.8 392.267 184.133C399.6 190 406.667 192.667 406.667 189.467C406.667 187.333 385.867 168.667 378.267 164.267C374.133 161.733 366.8 158.4 361.733 156.8C354.133 154.267 352.4 153.067 350.8 149.6C348.267 144.133 346.933 144.267 346.4 149.6Z" fill="black"/>
<path d="M279.333 170.533C272 173.867 270.933 174.133 268.4 172.4C265.733 170.533 264.8 170.667 259.2 173.867C255.467 176 250.933 177.333 247.733 177.333C242.133 177.333 222.4 183.733 221.467 185.733C220.133 188.933 212.4 196.4 207.867 198.8C204.933 200.267 196.267 203.467 188.4 206C171.2 211.6 160.667 218.4 143.467 234.667C132.8 244.8 94.6667 286.8 94.6667 288.533C94.6667 288.8 96.9334 288.533 99.6 287.733C107.6 285.6 115.2 279.2 130.267 262.267C139.467 252 148.533 243.333 156.533 237.467C171.6 226.267 210.8 202.667 214.267 202.667C215.6 202.667 220.667 200.533 225.6 198C230.4 195.333 239.067 192.133 244.667 190.667C250.267 189.2 258.4 185.867 262.8 183.2C270.533 178.4 270.8 178.267 281.333 179.067C287.333 179.467 292.8 180.4 293.733 181.067C294.667 181.867 300.133 182.4 306 182.533C314.267 182.533 320 183.6 332 187.333C340.4 189.867 350.133 192 353.467 192C357.333 192 360.267 192.8 361.333 194C363.6 196.8 374.133 202.667 376.8 202.667C378 202.667 382.533 205.067 386.933 208C391.333 210.933 396 213.333 397.2 213.333C398.4 213.333 400.533 215.067 401.733 217.2C404.267 221.6 408.8 223.733 411.067 221.467C413.467 219.067 410.133 214.267 399.867 205.2C394.533 200.533 387.2 193.6 383.6 190C380 186.267 377.333 184.4 377.867 185.6C378.267 186.933 379.067 189.067 379.6 190.267C380.4 192.533 380.267 192.533 377.733 190.267C376.267 189.067 374.4 188 373.6 188C372.8 188 370.4 186.533 368.267 184.667C366 182.667 361.2 180.8 357.067 180C353.2 179.2 344.267 176.933 337.333 174.8C315.733 168.133 308.667 166.667 297.867 166.667C289.067 166.667 286 167.333 279.333 170.533Z" fill="black"/>
<path d="M202.933 183.333C179.867 187.6 172.267 191.067 157.2 204C151.333 209.067 142.267 215.467 137.2 218.133C123.333 225.467 102.4 249.2 88.9333 272.933C84.6667 280.4 82.6667 282.667 80.6667 282.4C78.8 282.133 77.8667 282.933 77.6 284.933C76.8 290.133 81.3333 288.533 93.0667 279.6C97.0667 276.667 108.267 264.8 118 253.467C135.467 232.933 145.733 223.467 160 214.4C172.533 206.4 191.333 197.6 199.867 195.6C208.533 193.6 212.4 190.933 215.467 185.067C217.733 180.667 217.867 180.667 202.933 183.333Z" fill="black"/>
<path d="M105.733 188.667C105.333 189.867 105.333 191.067 105.733 191.467C106.933 192.667 109.333 190.667 109.333 188.533C109.333 186 106.8 186.133 105.733 188.667Z" fill="black"/>
<path d="M263.333 192.667C202.4 211.733 171.467 230.667 118.667 280.933C107.067 292 103.6 294.667 100.267 294.667C96.8 294.667 96 295.467 92.8 302.533C90.9333 306.8 89.3333 311.2 89.3333 312.133C89.3333 313.467 88.8 313.333 87.2 311.733C85.2 309.867 84.1333 310.4 73.6 317.867C66.2667 323.067 60.9333 328 58.8 331.6C56.9333 334.667 54.4 337.6 53.2 338C52.1333 338.4 49.8667 341.067 48.1333 344C46.5333 346.933 44.1333 350 42.9333 350.933C41.4667 352.133 40.5333 354.933 40.2667 358.933C40.1333 362.533 40.2667 365.333 40.6667 365.333C40.9333 365.333 45.6 361.867 50.8 357.6C57.0667 352.667 61.3333 348.133 62.8 344.667C64.1333 341.733 65.3333 340.133 65.3333 340.933C65.3333 341.867 65.7333 342.667 66.4 342.667C66.9333 342.667 74.8 335.333 84 326.267C93.2 317.333 111.2 300.667 124 289.467C136.8 278.133 154.267 262.533 162.667 254.8C173.2 244.933 180 239.867 184.133 238.267C187.6 236.933 197.467 231.6 206.133 226.4C235.867 208.667 249.333 204.267 278.667 203.067C302.133 202.133 322.267 205.467 349.867 214.8C373.333 222.667 377.067 224.533 378.533 228.4C379.333 230.4 380.8 231.333 383.733 231.467C386.4 231.6 390.533 233.867 395.6 237.867C402.933 243.6 408.267 245.467 409.867 242.933C411.067 241.067 397.467 224.267 390.8 219.467C382.133 213.067 375.733 210.533 367.867 210.4C361.6 210.267 361.333 210 361.333 206.533C361.333 202.933 361.067 202.8 357.067 203.6C354.667 204.133 351.2 204.533 349.333 204.667C346.4 204.667 346 204.133 346 199.6C346 196.933 345.6 194.667 345.067 194.667C344.4 194.667 344 195.467 344 196.533C344 200.4 341.067 200.133 328.933 195.067C317.467 190.267 315.733 190 302.667 189.867C294.533 189.867 287.467 189.2 285.733 188.267C282.267 186.267 285.333 185.733 263.333 192.667Z" fill="black"/>
<path d="M93.2 198.533C88.9333 202.933 87.7333 206.933 91.7333 203.867C96.5333 200.267 100 196.8 100 195.733C100 193.6 97.0667 194.8 93.2 198.533Z" fill="black"/>
<path d="M286 210.267C283.067 210.533 271.333 212 260.133 213.467C240.8 216 239.2 216.4 234.8 220.267C229.6 224.933 225.067 226.933 215.067 229.333C206 231.333 197.2 236.8 179.333 251.2C171.333 257.6 161.333 264.667 157.333 266.667C152.8 268.933 147.467 273.333 143.2 278.267C132.533 290.533 114.8 308 87.4667 333.333L62.4 356.667L63.2 364.267C64 372.667 62 376.133 60.5333 368.667C60.1333 366.133 59.3333 364 58.8 364C57.3333 364.133 54 367.333 49.6 372.933C47.0667 376.267 44 378.667 42.5333 378.667C40.2667 378.667 40 379.333 40.8 383.2C41.8667 389.2 40.2667 392 37.8667 388.667C36.1333 386.4 35.8667 386.533 34 391.067C31.6 396.8 31.3333 408.8 33.6 410.133C35.4667 411.333 41.4667 404.133 41.0667 401.333C40.8 400.267 39.3333 399.2 37.6 398.933C31.3333 398 35.4667 394.667 42.8 394.667C48.8 394.667 52.6667 389.867 53.8667 381.333C54.8 375.2 55.0667 374.533 56.1333 376.933C56.6667 378.667 58 380 59.0667 380C60 380 64.9333 374.8 70 368.267C75.0667 361.867 87.6 348.133 97.8667 337.733C111.6 323.467 116.133 318.133 115.6 316.267C115.067 314.133 116.133 313.333 120.533 312C124.933 310.8 129.333 306.933 142.667 293.2C151.867 283.733 160.4 276 161.6 276C164 276 172.133 268.667 177.2 262C179.067 259.467 180.4 258.533 180.8 259.6C182 262.267 183.6 261.733 190.933 255.867C199.867 248.933 209.733 243.867 230.667 236C239.867 232.533 251.067 227.867 255.333 225.867C263.067 222.133 263.867 222 284.667 222H306L326.667 229.733C339.733 234.667 350.8 237.867 356.667 238.667C369.067 240.133 369.467 240.267 376.533 249.333C382.533 256.933 388 260.267 400.267 263.333C404.8 264.533 407.067 266.667 411.067 272.933C414.667 278.533 417.333 280.267 417.333 276.933C417.333 272.933 406.667 257.6 398.533 250.133C387.067 239.467 374.267 233.2 352.4 227.2C351.467 226.933 350.667 225.333 350.667 223.467C350.667 221.6 350.133 219.733 349.333 219.333C348.667 218.933 348 219.467 348 220.533C348 224.133 345.6 224.133 339.733 220.267C326.533 211.467 308.667 208.133 286 210.267Z" fill="black"/>
<path d="M283.467 229.067C280.533 232.4 278.533 232.933 256.667 235.333C232.933 237.867 228 239.6 215.333 250C209.467 254.8 200.533 260.8 195.333 263.6C172.533 275.467 146.133 296.533 131.6 314.667C126.667 320.8 120.933 326.533 118.8 327.467C116.667 328.4 113.333 331.333 111.2 334C103.467 344 98.5333 349.067 95.6 349.867C93.4667 350.4 90.9333 354.133 86.2667 363.333C82.8 370.267 80 376.933 80 378C80 380.667 78.6667 380.533 76.4 377.6C74.6667 375.467 74.5333 375.467 72.5333 378C71.4667 379.467 68.8 383.467 66.6667 386.933C63.8667 391.333 61.8667 393.333 59.8667 393.333C57.2 393.333 57.0667 393.733 57.8667 399.867C58.4 403.867 58.1333 406.8 57.3333 407.333C56.6667 407.733 56 406.933 56 405.467C56 402.8 53.7333 400.4 52.5333 401.733C52.1333 402.133 52.2667 405.867 52.8 410.133L53.7333 417.733L61.0667 409.867C65.2 405.6 72.9333 397.333 78.2667 391.733C84 385.733 88 380.4 88 378.8C88 376.933 88.8 376 90.6667 376C92.5333 376 94.6667 373.867 97.3333 369.6C99.4667 366.133 103.467 360.933 106.267 358C109.067 355.067 113.733 348.933 116.667 344.4C120 339.333 123.6 335.467 126.267 334.133C129.067 332.8 130.933 330.8 131.467 328.4C131.867 326.4 132.267 324.267 132.4 323.733C133.067 321.2 172.933 288.133 186 279.333C209.2 263.867 246.533 246.267 268.667 240.667C282.933 237.067 302.133 238.533 320.667 244.667C331.067 248.133 354.667 260 377.333 273.333C398.267 285.6 414.4 294 415.467 293.067C415.733 292.8 414.4 290.267 412.533 287.467C410.4 284.4 403.467 278.8 394.133 272.667C385.867 267.2 377.467 260.667 375.467 258.133C373.067 254.933 370.133 252.933 366.533 252C363.6 251.2 352.667 246.933 342.4 242.533C319.067 232.8 305.333 228.4 294.4 227.2C286.933 226.533 285.733 226.667 283.467 229.067Z" fill="black"/>
<path d="M263.333 250.133C240.267 255.2 217.733 265.467 192.533 282.533C169.733 297.867 158.933 308 133.6 338C110.533 365.333 108.4 367.6 103.467 370C99.6 371.867 92.8 382.4 90.5333 390C89.3333 394.267 87.7333 396.667 85.7333 397.467C84.1333 398 81.2 401.067 79.3333 404.133C76.1333 409.067 76 409.733 77.8667 411.867C79.0667 413.2 80 414.933 80 415.733C80 418.267 83.3333 417.6 86.2667 414.267C87.7333 412.667 90.2667 408.933 91.7333 406C93.2 403.067 96.2667 399.333 98.5333 397.6C100.8 396 103.867 392.133 105.467 388.933C107.067 385.867 112.667 378.8 117.867 373.333C123.067 367.867 131.2 357.6 135.867 350.667C145.2 336.667 150 331.867 179.333 307.067C190.4 297.733 202 287.733 205.333 284.667C210.4 280.133 212.8 278.933 220.4 277.6C225.467 276.667 235.067 273.467 241.733 270.533C277.733 254.667 284.8 253.733 308 261.733C315.733 264.267 324.133 266.8 326.8 267.2C329.333 267.733 337.333 271.867 344.4 276.533C357.067 284.933 364.8 288.933 366 287.733C366.4 287.467 367.067 285.2 367.467 282.933C368.133 279.6 367.867 278.533 365.867 277.733C364.4 277.067 359.2 273.867 354 270.533C342.267 262.8 328.4 255.733 317.333 252C305.733 248 277.2 247.067 263.333 250.133Z" fill="black"/>
<path d="M263.067 265.2C260.667 266.8 258.667 268.533 258.667 269.2C258.667 270.667 266.267 271.733 276.933 271.867C284.533 271.867 291.2 274.667 293.2 278.533C294.267 280.533 296.667 281.067 304.667 281.6C313.333 282.133 316.533 283.2 327.067 288.4C342 295.867 354.8 306.8 381.2 334.533C391.733 345.733 400.533 354.533 400.933 354.133C401.867 353.2 395.067 340.4 387.333 328.667C377.733 313.867 370.4 306.133 362.533 302.267C358.933 300.4 354 296.533 351.867 293.867C342 281.467 332.667 277.067 296.667 267.867C274.933 262.4 268.533 261.867 263.067 265.2Z" fill="black"/>
<path d="M78.6667 272C77.6 274.133 77.6 274.667 79.2 274.667C81.3333 274.667 83.0667 271.067 81.3333 270C80.6667 269.6 79.4667 270.533 78.6667 272Z" fill="black"/>
<path d="M240 276.667C236.4 279.6 233.467 281.067 232 280.667C226.533 278.933 210.4 289.067 190.933 306.533C183.867 312.8 171.733 323.333 164.133 329.867C149.067 343.067 141.067 352 134.533 363.733C132.133 367.867 127.067 374.667 123.333 378.8C119.6 382.933 113.6 390.667 110 396.133C106.533 401.6 103.467 406.267 103.2 406.533C102.933 406.8 101.867 406.4 100.933 405.467C98.6667 403.733 96.8 406.133 92.2667 416.4C88.1333 425.733 84.1333 430.8 79.2 432.8C76.5333 434 74.6667 435.6 74.6667 437.067C74.6667 440.667 69.7333 447.867 66.1333 449.6C64.2667 450.4 62.6667 452.267 62.4 453.733C62.1333 455.2 60.2667 457.467 58 458.667C54.9333 460.4 53.8667 462 53.3333 466.133C52.8 470 52.4 470.8 51.6 468.933C50.1333 465.067 47.6 467.067 45.8667 473.467C45.0667 477.067 43.7333 479.2 42.6667 478.933C41.6 478.667 41.3333 479.333 42 480.933C42.5333 482.267 43.3333 484.4 43.6 485.6C44.8 489.6 48 488.267 50.2667 482.933C52.8 476.667 52.8 476.667 55.4667 478.8C57.8667 480.8 57.2 481.467 65.4667 469.6C67.7333 466.4 71.6 462.667 74 461.067C76.9333 459.467 80.1333 455.6 82.6667 450.8C84.9333 446.667 89.4667 440 92.6667 436C96 432 101.2 424.533 104.267 419.333C107.333 414.267 111.867 407.467 114.267 404.267C116.667 401.067 118.667 396.933 118.667 395.067C118.667 392.933 120.4 390.133 123.6 387.2C126.267 384.667 128.933 382.667 129.467 382.667C130 382.667 136 375.867 142.667 367.6C155.6 351.867 162.267 345.2 168.267 342C170.667 340.667 172.667 337.733 174.267 333.333C176.4 327.333 178.667 324.533 178.667 328C178.667 330.8 181.333 329.067 189.6 320.933C194.933 315.733 202.133 310.4 209.2 306.667C215.467 303.333 225.333 297.2 231.2 292.933L241.867 285.2L258.667 285.6C274.133 285.867 275.733 285.733 281.067 282.667C287.333 279.067 288.133 277.333 283.6 277.333C281.867 277.333 274.8 276.133 267.867 274.667C249.733 270.933 246.667 271.067 240 276.667Z" fill="black"/>
<path d="M46.2667 279.467C44.8 282.133 43.8667 289.2 44.8 292.533C46.1333 297.867 49.3333 294.4 49.3333 287.467C49.3333 282 47.6 277.467 46.2667 279.467Z" fill="black"/>
<path d="M69.4667 281.867C68.4 283.067 68 284.4 68.5333 284.933C69.7333 286.133 72.4 283.2 71.7333 281.333C71.4667 280.267 70.6667 280.4 69.4667 281.867Z" fill="black"/>
<path d="M367.333 288.267C366.667 292.4 367.467 293.6 380.267 306.933C394.267 321.467 398.8 324.133 403.867 321.333C407.733 319.333 407.467 318.4 402.133 315.467C399.6 314.133 393.467 308 388.667 301.867C380 290.933 372.667 284 369.6 284C368.8 284 367.733 286 367.333 288.267Z" fill="black"/>
<path d="M57.4667 290.4C55.6 293.867 56.5333 296 58.8 293.733C59.6 292.933 60 291.2 59.7333 289.867C59.3333 287.6 59.0667 287.6 57.4667 290.4Z" fill="black"/>
<path d="M287.333 288.8C285.867 289.067 277.2 289.867 268 290.533C247.6 292.267 242.133 293.867 235.6 300.4C231.867 304.133 230 305.2 228.8 304.133C227.6 303.067 224.933 304.8 218.667 310.667C214 314.933 209.733 318.267 209.067 317.867C208.533 317.467 205.333 318.4 202 319.867C194.267 323.333 160.8 356.933 144.267 377.733C137.867 385.867 128.267 397.733 123.067 404.133C117.733 410.667 113.333 416.267 113.333 416.667C113.333 417.067 111.2 421.867 108.667 427.467C106.133 432.933 104 438.4 104 439.467C104 440.933 103.2 441.2 101.333 440.667C99.4667 440.133 98.4 440.533 97.7333 442.267C97.3333 443.6 94.6667 447.733 91.8667 451.467C88.9333 455.2 86.2667 460 85.8667 462.267C85.3333 464.933 83.7333 466.933 80.6667 468.533C78.1333 469.867 71.3333 476.267 65.4667 482.667C59.6 489.067 52.6667 495.333 49.8667 496.667C45.0667 498.933 45.0667 499.067 45.8667 505.067C46.2667 508.4 47.0667 511.467 47.4667 511.867C49.4667 513.867 55.7333 507.867 59.4667 500.267C62.4 494.4 63.8667 492.4 64.4 493.867C64.9333 495.067 66.5333 496 68.1333 496C70.8 496 70.9333 495.467 70.1333 490.533C69.4667 486.667 69.7333 485.333 70.8 486.133C72.2667 487.067 85.3333 474.133 85.3333 471.733C85.3333 471.067 85.8667 470.8 86.5333 471.333C88.8 472.667 96.4 463.6 102.933 451.867C110.667 438.267 112.267 436.267 120.267 430.8C126.533 426.667 130 420.267 132.667 408.267C133.2 405.867 135.867 401.2 138.8 397.867C141.6 394.533 144 390.667 144 389.333C144 387.6 145.867 385.733 149.2 384C152.533 382.4 158.533 376.4 165.6 367.733C178.933 351.333 187.6 343.867 220 320.933C242.667 304.8 245.067 303.467 250 303.733C252.933 303.867 260.4 303.067 266.533 301.867C272.667 300.8 280 300.267 282.667 300.667C287.067 301.467 287.733 301.2 288.667 298.4C289.467 295.867 289.733 295.733 290.267 297.6C291.067 300.8 295.333 301.867 304.933 301.467C315.333 301.067 321.733 303.733 336.267 314.667C342.133 319.2 348.533 323.067 350.533 323.467C353.2 324 355.2 326.4 358.933 333.2C366.267 346.667 378.8 362.667 390.267 373.2C395.867 378.4 400.667 382.4 401.067 382.133C401.333 381.733 400.533 378.4 399.333 374.533C397.467 369.2 394.533 364.933 386.533 356.667C380.667 350.667 376 344.667 376 343.467C376 339.333 369.6 331.2 358.533 321.2C329.333 294.933 308.133 285.2 287.333 288.8Z" fill="black"/>
<path d="M391.333 292.133C394.4 301.867 402.267 310 407.6 308.933C410 308.533 410.667 308.933 410.667 310.933C410.667 314.267 413.067 318.667 414.933 318.667C416.933 318.667 415.2 311.2 411.867 305.733C410.267 303.333 405.733 298.933 401.467 296.133C390 288.4 390.267 288.533 391.333 292.133Z" fill="black"/>
<path d="M36 292.933C36.1333 294.8 40 299.2 40.8 298.4C42.1333 296.933 39.8667 292 37.8667 292C36.8 292 36 292.4 36 292.933Z" fill="black"/>
<path d="M68.2667 293.6C67.3333 294.533 66.6667 297.067 66.6667 299.467C66.6667 303.067 66.2667 303.6 64.1333 303.067C62.8 302.667 61.2 303.067 60.8 303.867C60.2667 304.667 58.6667 305.333 57.0667 305.333C54.8 305.333 54.5333 305.867 55.3333 308.267C55.8667 310 56.2667 312.667 56.2667 314.267C56.2667 316 56.6667 317.333 57.2 317.333C58.6667 317.333 63.3333 311.867 65.3333 308.133C66.5333 305.867 67.2 305.467 68 306.667C68.8 307.867 69.6 307.867 72 306.667C74.5333 305.333 74.8 304.4 74 300.933C73.4667 298.533 72.9333 295.6 72.9333 294.267C72.8 291.6 70.5333 291.333 68.2667 293.6Z" fill="black"/>
<path d="M77.7333 293.467C75.6 295.6 75.4667 300 77.3333 300C79.0667 300 80.4 296.8 79.7333 294C79.4667 292.267 79.0667 292.133 77.7333 293.467Z" fill="black"/>
<path d="M85.0667 298.933C80.8 303.733 80.4 305.333 83.3333 305.333C85.7333 305.333 89.7333 299.467 89.0667 296.8C88.8 295.2 87.7333 295.867 85.0667 298.933Z" fill="black"/>
<path d="M255.333 309.067C232.533 317.467 231.733 317.867 228.533 322.8C224.4 329.333 218.267 334.267 204.4 342C190.8 349.467 181.6 357.6 177.2 366C175.333 369.6 172.533 372.533 170.267 373.467C168.133 374.4 163.333 378.667 159.733 383.2C156 387.6 150.4 393.2 147.333 395.467C141.6 399.867 138.133 406 138.933 410C139.6 413.6 153.6 402.533 176 380.667C194.4 362.8 208 351.467 216.533 347.067C219.6 345.467 220.933 345.333 223.467 346.667C227.067 348.667 229.6 347.333 237.733 339.6C242.133 335.467 243.2 335.067 248.933 335.6C252.533 336 259.333 335.333 264.267 334.133C273.2 332 273.333 332 278.133 335.333C284 339.333 291.2 340.8 295.467 338.8C300 336.8 299.467 332.8 294.4 328.933C285.333 322.267 277.6 321.333 258.667 324.667C252.4 325.733 244 326.667 240 326.667C233.067 326.667 232.933 326.533 235.733 324.533C245.333 317.867 270.533 313.867 278.4 317.867C283.467 320.533 285.867 320.533 288.4 318.133C290.133 316.4 290.8 316.8 294.533 321.333C297.067 324.4 302.133 328.133 307.333 330.8C312.133 333.067 316 335.867 316 336.933C316 338.133 317.467 340.667 319.333 342.933C321.2 345.067 322.667 347.6 322.667 348.667C322.667 349.6 325.733 352.4 329.467 354.8C338.667 360.667 346.933 370.933 360 392.933C366.133 403.067 374.133 415.467 378 420.667C381.867 425.733 385.867 432.667 386.8 435.867C387.867 439.6 390.8 444 394.267 447.467C398.4 451.6 402.8 459.067 410 474.133C415.6 485.6 420.4 494.667 420.8 494.267C422 493.067 418.533 476.933 415.867 470.667C414.4 467.333 411.6 462.933 409.6 460.933C406.933 458.133 406.133 456.133 406.4 452.8C406.933 447.867 404.933 445.6 402.133 447.867C400.667 449.067 400.133 448.533 399.6 445.067C397.6 433.6 396.533 431.067 390.533 423.2C386.933 418.4 377.2 404.267 368.8 391.6C360.4 379.067 347.6 361.733 340.4 353.2C333.067 344.667 325.733 335.867 324.133 333.6C322 330.533 320.133 329.333 317.467 329.333C314.533 329.333 311.733 327.2 304.8 319.867C297.867 312.4 295.333 310.533 293.067 311.067C291.2 311.6 289.6 310.933 288 308.933C286 306.533 284 306 275.867 305.6C267.6 305.333 264.267 305.867 255.333 309.067Z" fill="black"/>
<path d="M302.8 308.133C299.067 309.6 299.2 309.867 309.2 316.533C313.067 319.2 317.867 321.333 319.867 321.333C322.533 321.333 324 322.533 326.4 326.667C328 329.6 332.8 334.4 337.067 337.467C341.2 340.4 346.133 344.667 348 346.667C350.8 349.867 351.733 350.133 353.6 348.8C358.667 345.067 350.8 332 343.467 332C341.733 332 339.2 330 336.933 326.667C327.867 313.867 311.067 304.8 302.8 308.133Z" fill="black"/>
<path d="M46 314.133C45.6 317.467 44.2667 322.667 43.2 325.6C42.1333 328.667 41.4667 331.333 41.7333 331.467C42 331.733 43.8667 331.2 45.8667 330.267C48.6667 329.067 49.2 328 48.6667 325.6C48.1333 323.733 48.9333 321.6 50.6667 319.733C52.4 317.733 52.9333 316.4 52 315.467C51.3333 314.8 50.6667 312.8 50.6667 311.067C50.6667 305.333 47.0667 307.733 46 314.133Z" fill="black"/>
<path d="M38.2667 318.4C34 323.067 31.7333 333.6 34.6667 335.333C36.1333 336.267 37.2 333.733 40.5333 322.933C42.5333 315.733 41.8667 314.267 38.2667 318.4Z" fill="black"/>
<path d="M397.333 327.867C397.333 332.133 424 359.333 425.067 356C425.333 355.333 423.333 350.533 420.667 345.333C414.667 334.133 407.067 326.667 401.333 326.667C399.067 326.667 397.333 327.2 397.333 327.867Z" fill="black"/>
<path d="M301.6 340.933C301.867 343.2 302.8 344.667 304 344.667C305.2 344.667 306.133 343.2 306.4 340.933C306.8 338 306.267 337.333 304 337.333C301.733 337.333 301.2 338 301.6 340.933Z" fill="black"/>
<path d="M250.667 341.867C248 342.933 242.667 345.333 238.667 347.333C234.667 349.333 227.867 351.867 223.467 352.933C213.333 355.2 210.8 357.067 189.333 377.867L171.333 395.333L170 404.933C169.2 410.267 169.067 414.667 169.6 414.667C170.133 414.667 173.333 411.2 176.933 407.067C190.533 390.933 199.2 382.933 204.667 381.467C208.4 380.533 210.8 378.8 212.533 375.867C215.6 370.8 222.133 366.667 227.333 366.667C230.4 366.667 232.8 365.2 236.533 361.467C254.533 343.067 284.533 346.933 322.933 372.533C333.067 379.2 334.4 380.8 338.4 388.8C340.8 393.6 349.067 408 356.667 420.8C374.4 450.4 374.8 451.067 374.533 456.933C374.4 459.733 375.867 466.133 377.733 471.333C382.667 484.933 388 503.467 389.467 512.4C390.933 521.6 392.667 525.333 395.6 525.333C399.467 525.333 396.667 511.067 389.2 491.733C383.333 476.667 382.133 472.267 381.6 462.667C381.067 451.467 380.933 451.067 367.867 425.333C348.667 387.067 338 371.467 322.933 359.733C315.733 354 314.933 353.6 312.933 355.6C310.933 357.6 310.4 357.2 305.067 352C299.6 346.533 298.933 346.133 291.333 346C286.4 345.733 281.067 344.667 277.333 342.933C270.4 339.6 258.133 339.2 250.667 341.867Z" fill="black"/>
<path d="M308 343.067C308 346 311.6 350.667 313.733 350.667C315.333 350.667 314.8 343.333 313.067 341.6C310.533 339.067 308 339.733 308 343.067Z" fill="black"/>
<path d="M355.6 348.933C353.067 351.333 354.8 358.4 358.8 362.133C361.067 364.267 364.4 368.533 366.267 371.6C368 374.8 371.333 378.8 373.467 380.533C375.6 382.4 377.333 384.8 377.333 386C377.333 391.067 382.533 398.267 388.933 401.6C394.533 404.667 395.733 406.133 397.867 412.267C402.267 424.667 407.867 434.667 411.333 436.267C416 438.4 416.667 436.933 414.267 430.4C410.4 420.4 400.667 405.067 383.733 382.533C374.8 370.533 365.867 357.733 364 354.267C360.933 348.533 357.867 346.533 355.6 348.933Z" fill="black"/>
<path d="M32.9333 356.933C32.4 357.333 32 359.067 32 360.8C32 363.067 32.5333 363.6 34.6667 363.067C36.4 362.667 37.3333 361.2 37.3333 359.2C37.3333 356.133 34.8 354.933 32.9333 356.933Z" fill="black"/>
<path d="M249.6 356.933C246.4 357.6 237.333 365.467 237.333 367.6C237.333 368.4 240.4 368.667 244.667 368.267C249.067 367.867 256.667 368.667 263.467 370C272.8 372 275.733 372.133 279.333 370.933C284.8 368.8 287.733 369.867 300.8 378.8C306.4 382.533 312.8 386.4 315.333 387.467C318.533 388.8 320.933 391.467 324.4 397.6C326.933 402.267 333.867 414.267 339.733 424.4C345.6 434.533 352.667 448.8 355.467 456.133C359.2 465.867 361.067 469.333 362.8 469.333C364.667 469.333 365.867 472.267 368.667 484.933C377.333 522.8 380.267 534.667 383.6 544.667C387.2 555.733 392.8 568 394.267 568C396 568 393.067 554.933 389.333 546.8C386.933 541.2 384.267 531.2 382 519.2C377.2 491.867 370.267 469.333 366.8 469.333C366.133 469.333 365.333 466.133 365.067 462.267C364.133 452.533 352.4 426.8 348.4 425.867C346.667 425.333 345.6 424.533 346 424C347.333 421.733 342.667 410.4 336.8 401.467C329.067 389.867 313.333 374.133 303.6 368.267C299.6 365.867 292.667 362.533 288.133 361.067C280.667 358.533 279.2 358.4 272.8 360C266 361.6 265.333 361.467 262 358.8C258.4 356.133 256 355.733 249.6 356.933Z" fill="black"/>
<path d="M402.667 358.4C402.667 362.133 406.533 366.667 409.867 366.667C412.533 366.667 413.067 367.467 413.733 372.267C414.267 376 415.733 379.067 418.533 381.867C423.333 386.667 423.733 385.333 420.667 374.8C417.333 363.867 402.667 350.4 402.667 358.4Z" fill="black"/>
<path d="M32.4 370.133C30.4 373.2 30 373.333 28.5333 371.467C27.2 369.467 26.9333 369.6 26.1333 372.533C25.3333 376 26.2667 380 28 380C30 380 36 371.867 36 369.2C36 365.733 35.2 366 32.4 370.133Z" fill="black"/>
<path d="M278.667 376.133C278.667 379.2 293.2 392.267 302 396.933C310.133 401.467 311.333 402.533 312.4 406.933C313.067 409.733 315.867 414.533 318.8 417.733C327.2 427.467 341.067 463.733 347.467 493.333C348.667 498.8 350 513.467 350.533 526C351.6 548.4 351.6 548.8 356.933 562C361.333 572.667 363.2 580.4 366.533 600.267C370.533 623.333 373.867 637.333 375.6 637.333C376.133 637.333 376 631.467 375.6 624.133C374.667 610.933 371.733 594.933 366.667 575.467C365.2 569.6 364 562.8 364 560.133C363.867 557.467 362.8 552.933 361.333 550C359.733 546.667 358.667 541.733 358.667 536.667C358.667 531.6 357.6 526.533 355.867 522.667C354 518.533 353.333 515.2 353.867 511.867C354.4 508.933 353.867 505.067 352.8 502.4C351.2 498.667 351.067 495.867 352.133 488.267C353.733 476.667 352.133 468.8 344.267 451.2C341.333 444.667 338.267 436.933 337.333 434C332.8 419.733 320 402 304.4 388.667C292.8 378.667 278.667 371.867 278.667 376.133Z" fill="black"/>
<path d="M220.667 380C204.667 386.4 183.467 407.467 171.067 429.067C167.6 435.333 161.867 443.467 158.533 447.2C155.2 450.933 148.933 458.533 144.533 464C140.267 469.467 134.4 476.267 131.6 479.067C126.933 483.6 126.667 484.4 127.467 489.067C128.533 495.2 129.067 496 131.467 496C132.8 496 133.333 494.133 133.333 488.267L133.467 480.667L135.6 484.667L137.733 488.533L139.867 485.333C141.067 483.467 146.533 476.4 152.133 469.333C157.733 462.4 163.867 453.867 165.867 450.533C167.867 447.067 170.533 444 172 443.6C173.333 443.2 176.533 440.133 178.933 436.533C181.333 433.067 185.333 427.6 187.733 424.4C190.267 420.933 192 417.067 192 414.667C192 411.067 192.267 410.8 195.867 411.467C201.333 412.667 204.267 410.533 210.533 400.8C216.4 391.733 220.133 389.333 223.333 392C224.933 393.333 225.467 393.2 226.133 391.2C228.267 384.533 229.733 381.333 230.667 381.333C232.933 381.333 233.2 388 231.2 392.667C230.133 395.333 229.467 397.867 229.733 398.133C230 398.4 232.133 397.867 234.4 397.067C238.8 395.333 239.867 392.4 237.2 389.733C236.267 388.8 236 387.2 236.533 386C237.2 384.267 238.4 383.867 241.867 384.533C245.333 385.2 246.533 384.933 247.2 383.2C248.667 379.467 245.867 378.133 236.267 377.733C229.733 377.467 225.467 378 220.667 380Z" fill="black"/>
<path d="M249.333 381.867C249.333 387.2 252.133 388.8 259.2 387.467C261.867 386.933 264.4 387.333 266 388.533C268.533 390.4 268.667 390.533 266.267 394.533C263.467 399.2 264.267 404.4 267.733 403.733C268.933 403.467 270.4 401.333 271.2 398.933C271.867 396.667 272.933 394.667 273.6 394.667C274.267 394.667 278.933 398.533 284 403.333C289.067 408.133 294.133 412 295.067 412C296.133 412 299.467 417.067 302.4 423.333C305.467 429.6 311.467 440.667 316 447.867C320.4 455.067 324 462.4 324 464.267C324 466.133 325.6 473.067 327.467 479.467C329.333 486 331.733 494.667 332.933 498.667C334.4 504.133 335.2 518 336 553.067C337.067 598.4 337.067 600.4 334.533 604.667C331.867 609.2 327.333 629.2 328.8 630.533C330.533 632.267 334.533 624.933 336.667 616C338 610.4 340 605.867 341.467 604.933C343.6 603.333 344 600.4 344.8 580.533C347.733 504 330 435.733 298.4 401.867C290.8 393.733 286.533 391.6 284.533 394.8C284.133 395.6 282 393.333 279.867 389.6C275.067 381.2 267.867 377.333 256.933 377.333H249.333V381.867Z" fill="black"/>
<path d="M402.933 384.267C400.667 386.533 400.933 387.467 404.533 391.067C406.4 392.933 409.6 397.867 411.733 402.133C413.867 406.533 416.933 411.2 418.533 412.533C421.333 415.067 421.333 415.067 421.333 411.2C421.333 406.8 418.667 401.6 412.4 393.333C410 390.133 408 386.533 408 385.067C408 382.4 405.333 381.867 402.933 384.267Z" fill="black"/>
<path d="M242.667 392.667C240.133 395.733 242.133 398.933 246.267 398.4C249.2 398.133 250.133 397.2 250.4 394.267C250.8 391.2 250.4 390.667 247.6 390.667C245.733 390.667 243.6 391.6 242.667 392.667Z" fill="black"/>
<path d="M254.933 395.333C252.667 400.267 252.933 401.333 256.533 401.333C260.8 401.333 262 399.2 259.867 395.2C257.733 391.2 256.8 391.2 254.933 395.333Z" fill="black"/>
<path d="M217.067 397.467C214.667 398.8 213.6 408 215.733 408C218.8 408 222.667 403.467 222.667 399.867C222.667 395.867 221.067 395.067 217.067 397.467Z" fill="black"/>
<path d="M22.6667 403.2C22.6667 405.733 22.1333 408.267 21.3333 408.667C19.7333 409.6 19.6 415.6 21.0667 416.533C22.6667 417.467 30.6667 412.4 30.6667 410.533C30.6667 409.6 30 406.667 29.0667 403.867C28 400.267 26.8 398.667 25.0667 398.667C23.2 398.667 22.6667 399.733 22.6667 403.2Z" fill="black"/>
<path d="M158.4 404C153.067 406.933 149.2 411.733 146.933 418.267C145.2 423.467 145.733 423.6 152 419.867C159.867 415.067 168 406.133 168 402C168 400.533 163.2 401.6 158.4 404Z" fill="black"/>
<path d="M234.667 402.267C227.2 402.667 225.733 403.2 224.667 405.733C223.867 407.467 221.867 408.8 219.733 409.067C217.867 409.333 215.333 410.933 214.133 412.667C212.8 414.667 211.2 415.6 209.467 415.067C207.6 414.533 205.6 416.267 201.2 422.267C198.133 426.533 190 435.333 183.2 441.733C169.467 454.667 160.667 466.8 158.267 475.733C157.2 479.733 155.733 482 153.733 482.8C152 483.467 150.667 484.8 150.667 486C150.667 487.067 149.467 488 148 488C146 488 145.067 489.2 144.4 492.133C143.867 494.933 142 497.2 138.533 499.467C132.933 502.933 128.933 509.333 129.6 513.733C130.267 518.667 133.867 516.933 137.333 510C139.333 506.267 141.467 503.467 142.4 503.6C143.333 503.867 144 502.533 144 500.667C144 497.733 144.4 497.333 147.2 498.133C150 498.8 150.533 498.4 150.933 495.2C151.2 492.4 152.267 491.2 155.333 490.4C157.733 489.733 161.2 486.8 164 483.333C166.533 480 170.667 476.4 172.933 475.2C176.8 473.467 177.333 472.533 177.333 468.133C177.333 463.867 178.133 462.533 182.8 458.667C185.867 456.267 190.933 450.133 194.267 445.2C198.533 438.533 201.733 435.2 205.733 433.2C208.8 431.6 216.933 426.533 223.867 421.867C230.667 417.2 237.333 413.333 238.667 413.333C240 413.333 245.333 414.267 250.533 415.467C260.533 417.733 265.2 417.333 268.533 413.867C271.733 410.8 271.2 409.6 266 407.067C262.267 405.333 260.4 405.067 257.467 406.133C254.267 407.467 253.467 407.2 250.933 404.4C249.467 402.8 247.067 401.467 245.733 401.6C244.4 401.733 239.467 402 234.667 402.267Z" fill="black"/>
<path d="M272 413.867C272 419.867 272.4 421.333 274.533 422C277.867 423.067 283.333 429.467 289.6 439.733C292.533 444.667 296.533 449.2 299.733 451.067C304.667 454.267 305.2 455.2 309.067 468.933C315.333 490.4 318.4 504.933 320.8 523.6C323.333 542.8 322.4 552.267 316.8 566C313.867 573.467 312.667 578.133 309.333 596C308.267 601.867 306.267 605.6 299.867 614C295.333 619.867 288.8 630.667 285.2 638C281.333 646.267 276.533 653.733 272.8 657.6C266.667 664 261.867 671.6 263.2 672.933C263.6 673.333 265.867 672.4 268.267 670.933C273.2 667.867 279.2 660.133 288.267 645.333C291.733 639.867 296 633.867 298 632C302.133 628.133 305.333 621.2 305.333 616.267C305.333 614.533 306.8 611.733 308.4 610.133C312.267 606.533 314.933 599.333 318.667 582.4C320.4 574.667 322.533 568.133 324.133 566.4L326.8 563.333L326.267 573.333C325.867 578.933 323.333 591.467 320.533 601.6C314.533 623.733 315.867 628 323.733 611.333C329.333 599.467 330 593.2 329.6 553.467C329.2 519.467 328.933 514.4 326.133 502.133C324.4 494.8 321.867 482.667 320.533 475.333C318.4 464.267 317.2 460.8 312.667 454C309.6 449.6 304.267 440.933 300.667 434.667C292 419.333 288.4 414.933 281.467 410.4C272.933 405.067 272 405.333 272 413.867Z" fill="black"/>
<path d="M45.6 408.933C44.6667 409.333 41.8667 413.733 39.3333 418.667C35.7333 425.867 34.2667 427.6 32.2667 427.067C30.6667 426.667 29.3333 427.6 28.2667 429.867C27.4667 431.733 27.2 433.333 27.8667 433.333C28.5333 433.333 29.4667 434.8 29.8667 436.667C30.9333 441.067 32.1333 440.8 34.9333 436C36.2667 433.733 39.2 430.933 41.4667 429.6C43.7333 428.4 47.0667 426.133 48.8 424.667C51.6 422.133 51.7333 421.6 50.2667 414.933C49.4667 411.2 48.5333 408 48.1333 408.133C47.6 408.133 46.5333 408.533 45.6 408.933Z" fill="black"/>
<path d="M70.8 414.933C70.1333 416.8 69.4667 417.2 68.8 416.267C67.2 413.467 64 416.267 55.8667 427.467C51.4667 433.6 46.6667 439.333 45.2 440C42.2667 441.6 42 444.4 44.1333 450.533C45.7333 454.933 48 455.867 50.5333 452.8C51.6 451.6 51.6 450 50.8 447.6C49.2 443.467 50.1333 442.267 53.4667 444.4C56.9333 446.533 59.6 444.667 64.8 436.8C70.1333 428.8 74.6667 424 76.9333 424C77.8667 424 78.6667 422.8 78.6667 421.2C78.6667 414.667 72.6667 409.867 70.8 414.933Z" fill="black"/>
<path d="M160.267 419.867C157.333 422.133 151.2 429.067 146.667 435.6C142 442 135.2 450.933 131.467 455.333C127.6 459.733 122.933 465.467 121.067 468C117.2 473.067 111.467 486.533 112.667 487.733C113.067 488.133 114.8 487.733 116.533 486.933C118.667 486 120.4 483.333 121.867 478.933C123.733 473.467 125.2 471.6 130.4 468.4C134.667 465.733 140.533 459.467 148.933 448.533C155.6 439.867 163.333 430.267 166 427.333C168.533 424.533 170.4 421.333 170 420.267C169.6 419.333 169.333 417.867 169.333 417.2C169.333 414.933 165.733 416 160.267 419.867Z" fill="black"/>
<path d="M194 420.8C192.8 422.667 192.133 424.533 192.533 424.933C193.6 426.133 198.667 421.333 198.667 419.067C198.667 416.267 196.533 417.067 194 420.8Z" fill="black"/>
<path d="M133.2 424.133C130.667 427.2 126.4 432.133 123.6 435.067C120.933 438 117.467 442.8 115.867 445.867C114.4 448.8 112 453.467 110.667 456C109.2 458.533 108 462 108 463.733C108 466.4 108.667 466.8 111.733 466.4C115.067 466 115.333 465.6 114.933 460.933C114.667 456.667 114.933 456 117.467 456C121.333 456 126.533 450 131.2 440.4C134.133 434.133 135.6 432.533 137.333 432.933C140.533 433.733 144.267 428 143.733 423.067C143.067 416.933 138.533 417.467 133.2 424.133Z" fill="black"/>
<path d="M237.333 425.333C233.067 426.8 228.533 429.467 226.4 431.867C223.6 435.067 221.6 436 218 436C211.6 436 203.867 443.2 198.533 454C195.2 460.933 194 462.133 191.6 461.733C189.067 461.2 187.733 462.8 183.067 470.933C180 476.4 176.267 481.867 174.933 483.067C172.8 484.933 172.533 486.667 173.067 491.733C174.133 502.4 175.067 502.533 181.333 493.467C184.4 488.8 190.667 480.933 195.067 475.733C199.6 470.533 207.067 461.733 211.733 456.133C217.067 449.6 221.333 445.733 223.733 445.067C225.733 444.667 228.667 443.733 230.267 443.333C232.667 442.533 233.2 442.933 233.6 446.133C233.867 448.133 234.8 450.133 235.867 450.4C237.2 450.8 237.467 450.267 236.933 448.133C235.2 441.467 242.133 429.333 247.733 429.333C249.333 429.333 249.6 431.467 249.2 441.6L248.667 454L253.067 453.867C256.533 453.6 257.333 454.133 257.333 456.4C257.333 457.867 259.2 462 261.6 465.6C264.4 470.133 265.867 474.4 266.4 479.067C266.667 482.933 268.133 489.467 269.733 493.733C272.267 500.933 272.267 502.4 270.8 512.4C267.333 536 259.867 559.067 250.267 576.267C245.333 585.067 243.2 587.467 238.267 590C236.8 590.667 231.867 596.667 227.467 603.333C221.867 611.6 217.733 616.133 214.4 618C210.133 620.267 209.333 621.333 209.333 625.2C209.333 629.2 209.067 629.6 206.133 628.8C203.2 628.133 202.933 628.4 202.267 635.6C201.467 643.467 202.133 646.8 203.6 641.6C204.133 639.2 205.333 638.667 209.2 638.667C215.067 638.533 219.733 634.8 228.667 622.667C232.267 617.867 238.8 610.133 243.333 605.333C253.733 594.4 256.533 589.333 266.667 564.667C273.2 548.667 274.933 542.933 275.333 536C275.6 531.2 276.667 524.933 277.733 522C282.667 508.267 281.467 479.2 275.467 465.867C271.867 458 264.533 449.333 258 445.333L253.6 442.667L256.133 437.333C257.6 434.4 258.933 432 259.2 432C259.733 432 276.267 460.4 279.733 467.333C285.333 478.533 287.2 488 287.067 504C286.933 527.333 281.333 548.8 269.2 574C260.933 591.2 253.467 602.4 242.533 614C236.267 620.667 233.467 624.667 232.8 628.133C232.133 632 231.067 633.2 227.333 634.667C224.8 635.733 222.667 637.067 222.667 637.867C222.667 638.667 220 642 216.8 645.333C211.067 651.067 210.133 653.2 210.533 659.6C210.8 664.533 214.4 663.2 215.467 657.867C216.133 654.4 217.2 652.8 219.867 651.867C231.2 647.733 243.6 636.4 252.133 622.133C254.933 617.6 257.6 614.667 259.067 614.667C263.467 614.667 282.267 572 288.667 547.333C293.733 527.467 295.067 514.8 294.267 492.8C293.467 470.667 290.533 453.067 286.533 444.933C283.067 438.4 274.4 428.933 268.267 425.067L263.6 422.133L261.6 425.067C259.2 428.667 258 428.667 254.667 425.333C251.333 422 246.8 422 237.333 425.333Z" fill="black"/>
<path d="M241.6 435.867C239.067 437.467 240.133 441.867 243.2 442.4C246.533 443.067 248.4 440.8 247.333 437.467C246.4 434.533 244.533 434 241.6 435.867Z" fill="black"/>
<path d="M17.7333 438.267C14 438.933 13.8667 442.267 17.3333 446.533C19.8667 449.467 20.1333 449.6 23.3333 447.467C26.5333 445.333 28.1333 438.667 25.4667 438.667C24.8 438.667 23.4667 438.4 22.4 438.133C21.4667 437.867 19.3333 438 17.7333 438.267Z" fill="black"/>
<path d="M416 445.2C416 448.933 416.933 451.6 419.333 454.267L422.533 458L422.667 452.933C422.667 447.6 419.467 440 417.333 440C416.533 440 416 442.4 416 445.2Z" fill="black"/>
<path d="M36.2667 449.6C32.8 453.067 35.2 464 39.4667 464C41.0667 464 41.3333 462.533 41.0667 456.4C40.6667 448.8 39.2 446.667 36.2667 449.6Z" fill="black"/>
<path d="M220.4 453.467C218.267 455.6 218.133 458.933 220.267 461.067C222.533 463.333 220.4 464.667 216.933 463.067C213.867 461.6 213.2 462.4 204.533 474.4C181.733 506.267 156 536 148.133 539.733C141.6 542.8 137.333 549.6 137.333 556.8C137.333 560 138 562.933 138.8 563.333C139.467 563.867 142.4 562.667 145.2 560.8C147.867 558.933 150.8 557.333 151.733 557.333C153.867 557.333 155.867 552.933 156.267 547.467C156.667 542 157.067 541.733 159.6 544.933C161.333 547.2 161.6 547.067 163.6 544C164.8 542.133 168.933 537.6 172.8 534C176.533 530.267 180.8 525.467 182.133 523.333C183.6 521.067 187.467 516.267 191.067 512.667C194.533 508.933 200.933 500.533 205.333 493.867C214.267 480.133 222.8 471.6 231.467 467.867L237.333 465.2L242.933 468.4C246.133 470.267 249.333 471.467 250.133 471.2C250.933 470.8 252.133 472.8 252.8 475.467C255.2 485.2 261.733 484.667 261.067 474.667C260.667 470.933 259.467 469.2 253.6 464.667C249.733 461.733 245.867 457.867 244.933 456C242.8 451.733 236.933 451.067 230.667 454.4C226.133 456.933 226 456.933 224 454.4C222.4 452.4 221.733 452.133 220.4 453.467Z" fill="black"/>
<path d="M293.333 457.467C293.333 460 294.933 468.267 296.933 476C300.4 489.067 300.533 491.733 300.4 515.067C300.267 533.867 300.533 540 301.733 539.6C302.667 539.333 304 536.8 304.8 533.867C307.067 525.733 310 527.067 309.467 536C308.933 548 305.467 560.933 297.6 580.667C293.2 592 290 602.133 289.6 606.4C289.067 612.267 288.4 613.733 285.733 615.067C282.133 616.667 278.933 621.6 274.667 632.4C272.267 638.667 271.2 639.867 269.2 639.333C267.467 638.8 266.667 639.2 266.667 640.533C266.667 641.6 263.067 645.6 258.8 649.333C250.267 656.8 248.267 661.067 250.667 667.333L252.133 671.067L254.267 667.867C255.6 666.133 261.2 658.933 266.8 652C276.667 639.867 284 627.333 284 622.4C284 620.933 284.667 620.4 285.867 620.8C288.267 621.733 290.8 616.933 294 606C295.467 600.667 297.733 596.4 300.933 593.067C304.933 589.067 305.867 586.933 306.4 581.067C306.8 576.933 308.4 571.6 310.533 568C313.467 562.933 314 560.133 314.4 548.933C314.8 541.733 314.267 532.4 313.467 528.267C312.667 524.133 311.333 513.6 310.667 504.933C308.4 481.067 302.133 460.267 295.467 454.8C293.6 453.2 293.333 453.6 293.333 457.467Z" fill="black"/>
<path d="M387.067 460.267C387.733 463.333 393.067 479.467 396.933 490.667C398.133 494 401.067 498.533 403.6 500.933C407.2 504.4 408 506.133 408 510.933C408 518.267 409.6 520.933 412 518C416.8 512.133 394.933 457.6 387.467 457.333C386.933 457.333 386.667 458.667 387.067 460.267Z" fill="black"/>
<path d="M26.6667 462.8C26.6667 466.267 26.2667 466.8 23.7333 466.4C21.3333 466.133 20.5333 466.8 20.2667 469.2C19.4667 474.133 22.1333 475.6 25.7333 472.267C27.4667 470.667 29.4667 469.333 30.4 469.333C33.0667 469.333 33.4667 466.8 31.3333 462.667C28.6667 457.467 26.6667 457.6 26.6667 462.8Z" fill="black"/>
<path d="M101.733 469.333C99.0667 474.267 95.2 478.4 87.0667 484.8C84.2667 487.2 79.8667 492.8 77.4667 497.333C72.2667 507.067 68.8 510.933 66.1333 509.867C65.0667 509.467 63.7333 510.133 63.0667 511.6C60.9333 515.733 61.8667 518 65.6 518.4C68.2667 518.667 70.9333 517.067 77.6 510.933C82.1333 506.667 87.3333 502.4 89.0667 501.467C92.1333 499.867 92.1333 498.933 89.7333 492.267C89.3333 491.333 90.2667 490.667 92.4 490.667C96.4 490.667 101.067 485.2 105.467 475.467C108 469.6 108 468.8 106.133 466.933C104.267 465.067 103.867 465.333 101.733 469.333Z" fill="black"/>
<path d="M12.5333 472.667C12.6667 477.067 14.6667 477.067 14.6667 472.667C14.6667 470.8 14.1333 469.333 13.4667 469.333C12.8 469.333 12.4 470.8 12.5333 472.667Z" fill="black"/>
<path d="M234.667 474.667C233.6 475.333 231.067 476 229.067 476C224.133 476 216.4 485.2 203.333 506.8C194.533 521.2 189.6 527.6 175.467 542.4C166 552.4 156.4 561.467 154.133 562.533C151.867 563.733 147.6 567.867 144.667 571.867C140.4 577.467 137.6 579.6 132.4 581.6C124.4 584.533 116 592.933 116 598C116 601.2 116.133 601.2 121.067 599.467C136 594.133 150.267 584.267 172.533 563.6L186.667 550.4L186.8 543.6C186.933 539.733 187.333 538.267 187.6 540.267C188.667 546.933 192.533 544.133 201.333 530.133C204.4 525.333 208 521.067 209.467 520.667C210.933 520.133 212 518.667 212 516.8C212 510.667 213.6 505.467 215.333 506.133C216.133 506.533 220 502.667 223.733 497.333C227.6 492.133 232.133 487.2 234 486.4C236.8 485.2 237.333 484 237.333 479.067C237.333 476 237.2 473.333 237.067 473.333C236.8 473.333 235.733 474 234.667 474.667Z" fill="black"/>
<path d="M239.467 478.933C239.067 479.867 238.533 483.333 238.267 486.4C237.733 490.533 236.667 492.933 234.4 494.4C228.8 498.4 225.6 502.8 219.2 515.067C215.6 522.267 210 530.4 206 534.8C202.133 538.8 197.467 545.2 195.467 548.933C193.6 552.667 190.4 556.933 188.4 558.4C186.267 559.867 178.133 567.733 170.133 575.733C161.467 584.533 154.267 590.667 152.133 591.067C150.267 591.467 142.533 595.467 135.067 600C124.533 606.4 120.133 608.267 115.333 608.667C111.333 608.933 108.133 610 106.667 611.467C103.6 614.667 101.6 624 104 624C107.733 624 133.333 615.467 142.267 611.2C151.467 606.8 158.667 600.4 158.667 596.533C158.667 595.467 159.333 594.667 160 594.667C160.8 594.667 161.333 595.867 161.333 597.333C161.333 598.8 162 600 162.667 600C163.467 600 164 599.467 164 598.8C164 598.133 168.133 594.267 173.333 590.133C178.8 585.733 182.933 581.2 183.467 579.2C184 577.2 185.067 576.133 186.133 576.533C187.2 576.933 190.267 574.4 193.6 570.533C196.8 566.933 202.667 560.4 206.8 556.267C214 548.8 216.267 544.933 227.6 520C232.267 509.867 240.8 497.733 242.267 499.067C242.533 499.333 241.2 504.4 239.333 510.133C235.6 521.6 229.467 534 229.333 530.267C229.333 527.067 226.667 527.333 226.667 530.667C226.667 532.133 227.2 533.333 227.867 533.333C228.4 533.333 226.8 538.4 224.267 544.533C220.4 553.6 218.667 556.133 214.933 558.133C212.533 559.467 206.267 565.733 201.2 572.133C190 586.267 179.333 596.267 166.667 604.667C153.467 613.467 132.133 623.733 122.4 626C112.8 628.133 109.2 631.333 108.933 637.467C108.667 641.067 109.333 642.133 112.133 643.067C116.667 644.8 122.667 641.867 132 633.2C140.933 624.933 144.667 623.2 156.667 622C168.8 620.8 173.867 617.867 188.667 602.667C195.333 596 203.2 588.933 206.4 587.067C209.467 585.2 213.067 581.867 214.267 579.467C218.8 570.533 224.533 563.6 228.667 561.867C232.667 560.267 233.733 558.533 238.4 546.4C244.667 530.533 248 515.6 248 504C248 496.8 247.733 496 245.2 496C242.933 496 242.533 495.333 242.933 491.067C243.467 484.4 245.733 484.133 249.867 490.267C253.2 495.067 253.333 496.133 253.333 514.133C253.333 531.067 253.067 533.2 250.667 535.333C247.867 537.867 244.533 546.8 243.2 555.733C242.533 559.6 241.733 561.2 240.667 560.8C239.733 560.533 236.267 563.6 232.8 567.733C219.6 584.267 212.4 592 206 596.8C202.4 599.6 197.067 604.4 194.133 607.6C187.467 615.067 177.2 622.533 171.467 624.133C168.133 625.067 166.533 626.533 165.467 629.6C161.333 641.467 151.733 647.867 136.533 648.933C126.933 649.733 126.667 649.867 126.667 653.2C126.667 657.467 128.933 660 132.667 660C138.133 660 157.2 649.333 169.6 639.333C179.333 631.467 182.933 629.333 186.267 629.333C189.467 629.333 192.133 628 195.867 624.667C198.667 622.133 202 620 203.2 620C204.4 620 205.333 619.2 205.333 618.133C205.333 614.8 210.8 609.333 217.467 606C221.067 604.133 224.8 601.333 225.733 599.6C226.8 598 229.6 593.333 232 589.067C234.4 584.933 237.867 580.933 239.6 580.133C241.6 579.2 242.667 577.6 242.667 575.2C242.667 573.067 244.667 569.467 247.867 565.867C257.867 554.533 264 531.867 264 506.8V493.867L257.733 487.733C254.133 484.267 249.067 480.533 246.4 479.333C240.4 476.933 240 476.933 239.467 478.933Z" fill="black"/>
<path d="M35.6 479.467C35.0667 480 34.6667 481.6 34.6667 482.933C34.6667 484.667 33.7333 485.333 31.3333 485.333C28.8 485.333 27.8667 486.267 27.2 488.933C26 494.933 25.4667 496 24.1333 496C23.4667 496 22.4 494.8 22 493.333C21.6 491.867 20.2667 490.667 19.2 490.667C16.9333 490.667 16.5333 502 18.6667 503.333C19.4667 503.733 20 502.933 20 501.467C20 499.2 20.5333 499.067 23.7333 500C30.2667 501.867 38.1333 496.933 41.0667 489.2C42.1333 486.4 41.8667 485.067 39.6 482.133C38 480.133 36.1333 478.933 35.6 479.467Z" fill="black"/>
<path d="M358.667 485.6C358.8 496.933 361.467 511.733 367.333 533.333C370.533 545.467 374.8 564.933 376.667 576.533C380.4 598.8 383.733 610.133 387.867 613.867C392.933 618.4 392.533 611.733 386.8 595.067C385.333 590.533 384 584.8 384 582.4C384 580 382.8 574.8 381.333 570.933C376.667 558.667 373.6 545.733 368 514.667C365.067 498.133 362.267 483.6 361.867 482.267C360.533 478 358.667 480 358.667 485.6Z" fill="black"/>
<path d="M103.467 491.467C102.133 493.333 100 499.067 98.6667 504.4C97.0667 511.067 96 513.333 95.3333 511.6C94 508.267 89.7333 508.8 88.8 512.267C88.4 514 85.3333 517.067 82 519.067C76 522.933 74 526.4 74.9333 532.133C75.2 534.533 76 535.2 78 534.933C83.0667 534.133 91.3333 527.333 94.2667 521.467C95.8667 518.267 98.4 514.267 99.8667 512.8C103.067 509.333 112 490.4 111.2 489.067C109.733 486.8 105.6 488.133 103.467 491.467Z" fill="black"/>
<path d="M165.333 493.333C164.4 495.067 159.067 501.333 153.333 507.467C147.6 513.6 142.267 520.533 141.333 523.2C140.4 526.267 138.933 528 137.067 528.267C132.8 528.933 128.4 535.467 130.133 538.4C132.267 541.6 136.4 541.2 138 537.6C138.667 536 140.4 534.667 141.733 534.667C143.2 534.667 145.067 532.667 146.533 529.333C147.867 526.4 149.333 524.4 149.867 524.933C150.933 526.133 166.267 511.2 168.8 506.4C171.067 502 171.067 497.6 168.8 493.467L167.067 490.267L165.333 493.333Z" fill="black"/>
<path d="M118.133 497.2C115.2 502.667 115.467 504 119.333 504C122.933 504 123.733 502.933 124.267 497.333C124.8 492.4 120.667 492.267 118.133 497.2Z" fill="black"/>
<path d="M38.9333 507.333C38 509.333 36.8 513.733 36.4 517.2C35.6 522.8 35.7333 523.2 37.7333 521.467C40.8 519.067 43.2 509.6 41.7333 506.267C40.6667 503.867 40.4 504 38.9333 507.333Z" fill="black"/>
<path d="M111.2 505.067C109.067 506.4 106.667 511.467 106.667 514.533C106.667 520.133 113.467 516.267 115.067 509.733C115.733 506.533 113.467 503.6 111.2 505.067Z" fill="black"/>
<path d="M121.333 515.333C119.6 520 119.6 528.933 121.467 530C123.733 531.467 124.533 529.733 125.067 521.467C125.733 512.933 123.6 509.467 121.333 515.333Z" fill="black"/>
<path d="M27.4667 517.867C26.5333 521.6 28.5333 528 30.6667 528C32.6667 528 31.8667 515.733 29.8667 515.067C28.9333 514.8 28 516 27.4667 517.867Z" fill="black"/>
<path d="M50.9333 520.667C46.5333 525.467 44.8 530.133 45.6 534C45.8667 535.867 47.3333 535.2 53.0667 530.533C58.9333 525.6 60 524 59.7333 520.667C59.2 515.067 55.8667 515.067 50.9333 520.667Z" fill="black"/>
<path d="M112.8 521.333C108.267 522.8 104.133 526.267 102.667 530.133C101.867 532 99.8667 533.333 96.8 533.867C90.6667 535.067 82 540.933 66.2667 554.8C54 565.467 53.6 566 57.0667 566.667C67.0667 568.8 80.4 562.4 92.9333 549.733C98.2667 544.4 103.333 540 104.4 540C105.333 540 108.133 538.533 110.667 536.667C113.2 534.8 115.867 533.333 116.533 533.333C117.333 533.333 118 530.4 118 526.667C118 522.933 117.733 520 117.333 520.133C116.933 520.133 114.933 520.8 112.8 521.333Z" fill="black"/>
<path d="M248 528.667C248 531.2 248.667 533.333 249.333 533.333C250.133 533.333 250.667 531.2 250.667 528.667C250.667 526.133 250.133 524 249.333 524C248.667 524 248 526.133 248 528.667Z" fill="black"/>
<path d="M398.667 528.667C397.333 530.267 397.6 532.933 400.667 543.6C402.533 550.8 405.333 558.8 406.8 561.333L409.467 566L408.933 557.067C408.4 550.267 407.333 546.533 404 540.667C400.533 534.533 400 532.933 401.467 531.2C402.533 529.867 402.667 528.8 401.733 527.867C400.8 526.933 399.867 527.2 398.667 528.667Z" fill="black"/>
<path d="M58.5333 537.733C47.3333 548.267 42.4 554.667 45.6 554.667C48.8 554.667 67.2 545.333 70.9333 541.733C73.7333 539.067 74.4 537.467 73.7333 534.8C72.9333 531.067 70.9333 528 69.4667 528C69.0667 528.133 64.1333 532.4 58.5333 537.733Z" fill="black"/>
<path d="M36 540C36 548 37.6 548.533 40 541.467C41.7333 536 41.0667 533.333 37.8667 533.333C36.5333 533.333 36 535.067 36 540Z" fill="black"/>
<path d="M123.6 542C120.933 544.4 118.933 545.067 116.667 544.533C114.267 544 113.333 544.4 112.667 546.533C112 548.667 110.667 549.333 107.6 549.333C102.4 549.333 99.4667 551.2 86.8 562.933C81.0667 568.267 75.2 572.533 73.0667 572.933C68.2667 573.867 67.3333 575.867 68.9333 582.133L70 586.933L76.6667 581.067C86.2667 572.533 116.667 550.667 119.067 550.667C119.333 550.667 119.2 552.8 118.933 555.333C118.133 561.867 120.267 561.2 124.533 553.333C126.533 549.733 129.067 546.133 130.267 545.6C131.867 544.667 132 543.867 130.8 541.467C128.8 538 128.267 538 123.6 542Z" fill="black"/>
<path d="M25.7333 543.333C25.3333 544.533 25.3333 545.733 25.7333 546.133C26.9333 547.333 29.3333 545.333 29.3333 543.2C29.3333 540.667 26.8 540.8 25.7333 543.333Z" fill="black"/>
<path d="M296 543.467C296 544.8 292.667 555.467 288.667 567.333C284.667 579.333 281.333 589.733 281.333 590.667C281.333 591.6 279.6 594.533 277.6 597.2C275.467 599.867 270.8 607.067 267.2 613.2C263.6 619.333 256.533 628.533 251.6 633.6C243.333 642 237.467 651.2 237.333 655.733C237.333 657.867 250.667 647.733 259.333 639.2C266.133 632.4 271.333 623.2 272.8 615.467C273.333 612.133 275.467 608.533 278.533 605.467C281.733 602.267 285.733 595.067 290.533 584.133C299.467 563.733 301.333 557.467 301.333 548.4C301.333 542.267 301.067 541.333 298.667 541.333C297.067 541.333 296 542.267 296 543.467Z" fill="black"/>
<path d="M16.2667 548.133C16.5333 550.667 17.3333 552.533 18 552.267C20 551.867 19.6 544.933 17.6 544.267C16.2667 543.867 15.8667 544.933 16.2667 548.133Z" fill="black"/>
<path d="M348.8 564.133C347.467 570.933 347.867 579.867 350 592.667C351.2 599.2 352.533 610.8 353.2 618.267C353.867 625.733 354.8 632.4 355.333 633.2C359.067 639.467 359.867 618.667 356.533 595.333C355.467 587.2 354.267 576.667 353.733 571.733C352.8 561.467 350.133 557.333 348.8 564.133Z" fill="black"/>
<path d="M38.8 566.667C36.9333 572.8 36.9333 573.333 38.6667 573.333C39.4667 573.333 40 572.4 40 571.2C40 569.467 40.9333 569.2 45.3333 570C50.1333 570.8 50.6667 570.667 50.6667 568.133C50.6667 566.533 49.8667 565.333 49.0667 565.333C48.1333 565.333 45.7333 564.533 43.8667 563.467C40.4 561.733 40.2667 561.733 38.8 566.667Z" fill="black"/>
<path d="M110.4 563.6C109.2 564.933 107.733 567.333 106.933 568.8C106.133 570.4 103.6 572 101.2 572.533C93.3333 574.133 85.3333 579.867 82.6667 585.733C81.3333 588.8 80.2667 591.467 80.5333 591.6C80.9333 592.133 104.933 579.333 107.6 577.067C110.8 574.4 117.333 563.733 116.533 562.533C115.333 560.667 112.533 561.2 110.4 563.6Z" fill="black"/>
<path d="M125.067 564.667C122.133 567.6 118.667 575.733 118.667 579.867C118.667 582 131.067 572.267 133.067 568.4C136.8 561.467 130.933 558.667 125.067 564.667Z" fill="black"/>
<path d="M27.3333 565.2C21.7333 566.4 21.0667 572.133 26 575.467C28 576.8 29.8667 577.2 30.5333 576.533C32 574.933 33.6 564 32.4 564.133C31.7333 564.267 29.6 564.667 27.3333 565.2Z" fill="black"/>
<path d="M394.267 574.133C393.2 575.2 394.533 581.467 396 583.067C397.333 584.533 399.2 576.533 398 574.667C397.067 573.2 395.467 572.933 394.267 574.133Z" fill="black"/>
<path d="M58.6667 577.333C57.6 578 55.6 578.267 54.4 577.867C52.5333 577.333 52 578 52 581.067C52 586.133 50.6667 587.2 48.4 584C46 580.533 45.4667 580.667 40.4 585.467C33.6 591.733 34.5333 593.333 44.5333 593.333C59.0667 593.333 66.5333 588.8 65.6 580.667C65.0667 575.867 62.8 574.667 58.6667 577.333Z" fill="black"/>
<path d="M112.267 580.267C110 582.533 110.267 586.667 112.667 586.667C114.933 586.667 117.867 581.867 116.667 580C115.6 578.267 114.267 578.267 112.267 580.267Z" fill="black"/>
<path d="M103.733 589.6C101.333 592 100 594.933 100 597.333C100 601.733 100.4 602 104 600C106.933 598.4 110.4 588.533 108.533 586.8C107.867 586.133 105.733 587.333 103.733 589.6Z" fill="black"/>
<path d="M88.6667 599.867C87.4667 602.267 87.2 604.133 88 604.667C89.4667 605.6 94.6667 603.067 94.6667 601.333C94.6667 600.8 95.0667 599.333 95.4667 598.133C97.0667 594 90.9333 595.733 88.6667 599.867Z" fill="black"/>
<path d="M109.867 599.333C109.467 601.2 109.333 603.067 109.733 603.467C111.067 604.8 113.333 602.533 113.333 600C113.333 596 110.8 595.6 109.867 599.333Z" fill="black"/>
<path d="M76.1333 598.533C73.0667 599.333 70.4 603.6 71.6 605.6C72.2667 606.933 77.4667 606.933 79.6 605.6C80.4 605.067 81.6 602.933 82 600.933C83.0667 597.067 82.2667 596.8 76.1333 598.533Z" fill="black"/>
<path d="M67.4667 600.667C66.9333 602.267 66.1333 602.533 64.1333 601.333C62.2667 600.4 61.2 600.4 60.6667 601.333C58.9333 604.133 61.2 606.667 65.3333 606.667C68.9333 606.667 69.3333 606.267 69.3333 602.667C69.3333 598.267 68.6667 597.6 67.4667 600.667Z" fill="black"/>
<path d="M49.3333 603.867C47.2 608 47.7333 612 50.4 612C53.8667 612 56 609.333 56 605.067C56 602.267 55.3333 601.333 53.3333 601.333C52 601.333 50.1333 602.533 49.3333 603.867Z" fill="black"/>
<path d="M40 606.667C40 608.4 40.6667 609.067 42 608.533C43.0667 608 44 606.933 44 605.867C44 604.8 43.0667 604 42 604C40.9333 604 40 605.2 40 606.667Z" fill="black"/>
<path d="M342.133 622.933C341.467 630.933 340 635.467 333.867 648.4C329.733 657.067 326.667 664.4 327.067 664.8C328.267 666 332.8 662.933 335.2 659.333C336.533 657.333 337.6 653.067 337.733 649.867C337.867 646.667 338.4 644 339.067 644C339.6 644 341.2 642 342.667 639.6C344.667 636.4 345.333 632.933 345.333 626C345.333 612.8 343.333 610.933 342.133 622.933Z" fill="black"/>
<path d="M74.9333 618.133C75.2 620.133 76.1333 622 77.0667 622.4C78.4 622.8 78.8 621.867 78.4 619.2C78.1333 617.2 77.2 615.333 76.2667 614.933C74.9333 614.533 74.5333 615.467 74.9333 618.133Z" fill="black"/>
<path d="M85.8667 616.533C84.8 619.467 85.7333 624.4 87.7333 625.067C88.8 625.333 89.3333 623.867 89.3333 620.133C89.3333 614.8 87.3333 612.8 85.8667 616.533Z" fill="black"/>
<path d="M95.4667 616.8C94.2667 620 94.5333 625.333 96 625.333C97.7333 625.333 100 620.8 100 617.467C100 614.133 96.6667 613.733 95.4667 616.8Z" fill="black"/>
<path d="M58.1333 619.467C56.8 623.067 57.2 625.333 59.3333 625.333C60.5333 625.333 61.3333 624.133 61.3333 622.133C61.3333 618.133 59.3333 616.533 58.1333 619.467Z" fill="black"/>
<path d="M47.4667 622.133C46.9333 623.333 46.9333 624.667 47.3333 625.067C48.1333 625.867 52 622.667 52 621.2C52 619.067 48.2667 619.867 47.4667 622.133Z" fill="black"/>
<path d="M310.667 627.733C310.667 628.667 307.467 632.933 303.467 637.2C297.067 644.133 293.067 652.267 295.067 654.267C296.4 655.467 302.8 650.267 306.533 644.8C311.067 638.133 313.867 629.333 312 627.467C311.067 626.533 310.667 626.667 310.667 627.733Z" fill="black"/>
<path d="M145.867 630.533C142.133 632.8 136 639.867 136 641.867C136 642.933 152.133 641.2 154.8 639.867C156 639.2 157.733 636.933 158.4 634.667C159.6 631.333 159.467 630.533 157.333 629.333C153.6 627.333 150.533 627.733 145.867 630.533Z" fill="black"/>
<path d="M100.267 634.133C96.8 636.533 96.4 642.4 99.4667 643.6C102.133 644.667 105.333 640.8 105.333 636.533C105.333 632.4 103.733 631.733 100.267 634.133Z" fill="black"/>
<path d="M192.4 635.2C188.267 637.2 187.867 646.667 191.867 646.667C195.2 646.667 198.667 641.733 198.667 637.067C198.667 633.067 197.333 632.667 192.4 635.2Z" fill="black"/>
<path d="M78.2667 637.867C76.9333 641.2 77.0667 646.667 78.5334 646.667C80.2667 646.667 81.3334 641.467 80.1334 638.267C79.2 635.867 79.0667 635.733 78.2667 637.867Z" fill="black"/>
<path d="M321.6 637.6C319.333 639.867 319.6 646.667 321.867 646.667C324 646.667 325.333 643.867 325.333 639.2C325.333 635.733 324 635.2 321.6 637.6Z" fill="black"/>
<path d="M86.6667 641.2C86.6667 642.667 87.3334 644.267 88 644.667C88.8 645.2 89.3334 644 89.3334 642.133C89.3334 640.267 88.8 638.667 88 638.667C87.3334 638.667 86.6667 639.867 86.6667 641.2Z" fill="black"/>
<path d="M178 644C175.867 645.467 172.4 648.8 170.267 651.6C166.8 656.267 166.667 656.8 168.8 658.267C171.867 660.533 171.867 660.533 178.933 657.333C184.267 655.067 185.067 654 185.867 649.733C186.267 646.933 186.667 643.867 186.667 642.933C186.667 640.533 182.533 640.933 178 644Z" fill="black"/>
<path d="M119.333 651.067C118 654.4 119.2 659.333 121.333 659.333C124.133 659.333 124.533 655.2 122.133 651.733C120.4 649.333 120 649.2 119.333 651.067Z" fill="black"/>
<path d="M49.0667 655.2C46.1333 661.733 53.6 665.2 65.6 662.933C70.1333 662 72.8 662.133 75.2 663.333C78.9333 665.333 80 664.8 80 660.667C80 654.8 76.5333 653.733 68 656.933C60.1333 659.733 60.1333 659.733 57.7333 657.067C53.2 652 50.8 651.6 49.0667 655.2Z" fill="black"/>
<path d="M106.933 654C101.333 656.4 102 659.2 108.267 659.733C112 660 113.6 659.467 115.2 657.067C116.4 655.467 117.333 653.6 117.333 653.067C117.333 651.333 111.733 651.867 106.933 654Z" fill="black"/>
<path d="M95.4667 656.667C95.0667 657.733 93.7333 658.667 92.5333 658.667C89.6 658.667 90.9333 661.867 94.2667 662.4C97.4667 662.933 100.533 659.467 99.4667 656.667C98.5333 654.133 96.5333 654.133 95.4667 656.667Z" fill="black"/>
<path d="M204 657.333C204 658.8 204.667 660 205.333 660C206.133 660 206.667 658.8 206.667 657.333C206.667 655.867 206.133 654.667 205.333 654.667C204.667 654.667 204 655.867 204 657.333Z" fill="black"/>
<path d="M228.933 658.4C226.533 660.933 225.333 663.467 225.6 665.467L226 668.4L229.733 665.2C232.667 662.8 233.467 660.933 233.067 658.133L232.667 654.4L228.933 658.4Z" fill="black"/>
<path d="M153.6 660C151.2 661.467 148.533 664.133 147.733 666C146.4 668.933 146.133 669.067 144.667 667.067C141.733 663.067 138.667 665.867 138.667 672.667C138.667 679.733 141.733 681.067 144.4 674.933C145.467 672.4 146.8 671.467 148.4 671.733C153.2 672.667 157.467 670.533 161.333 665.067C163.6 662.133 165.333 659.067 165.333 658.4C165.333 656.4 158 657.333 153.6 660Z" fill="black"/>
<path d="M84 660.933C84 662.533 84.6667 664.267 85.3333 664.667C87.0667 665.733 87.0667 662.667 85.3333 660C84.2667 658.4 84 658.533 84 660.933Z" fill="black"/>
<path d="M186 665.333C185.067 668.133 187.467 673.867 189.2 672.8C190.533 672 189.333 662.667 188 662.667C187.333 662.667 186.533 663.867 186 665.333Z" fill="black"/>
<path d="M346.667 665.6C346.667 666.533 347.333 668.267 348 669.333C349.067 670.933 349.333 670.8 349.333 668.4C349.333 666.8 348.8 665.067 348 664.667C347.333 664.267 346.667 664.667 346.667 665.6Z" fill="black"/>
<path d="M320.267 668.4C316.4 672.533 316.533 674.4 320.667 673.6C322.533 673.333 324 672.267 324 671.333C324 670.267 324.4 668.667 324.8 667.467C326 664.4 323.6 664.933 320.267 668.4Z" fill="black"/>
<path d="M177.867 668.667C177.333 670 175.2 670.667 171.2 670.667C163.467 670.667 155.2 674.133 152 678.667C146 687.067 149.733 688.667 162.667 683.467C166.933 681.733 172.4 679.867 174.533 679.333C177.6 678.667 178.667 677.733 178.667 675.6C178.667 674 179.867 671.867 181.333 670.933C182.933 670 183.733 668.667 183.333 668C182.133 666 178.667 666.4 177.867 668.667Z" fill="black"/>
<path d="M238.8 670.133C235.733 674.133 235.067 678.667 237.733 678.667C241.067 678.533 246.533 672.4 245.733 669.467C244.8 665.733 242.133 666 238.8 670.133Z" fill="black"/>
<path d="M126.4 669.467C122.933 671.467 123.467 673.733 128.133 676.4C133.2 679.2 134.667 678.4 134.667 672.533C134.667 668.667 134.267 668 131.733 668C130 668 127.6 668.667 126.4 669.467Z" fill="black"/>
<path d="M215.6 668.933C213.467 670.933 214.8 673.467 217.6 673.067C221.467 672.533 222.667 668 218.933 668C217.6 668 216 668.4 215.6 668.933Z" fill="black"/>
<path d="M206.667 678.267C206.667 681.6 208.667 683.333 210 681.2C210.533 680.4 210 678.8 208.8 677.6C206.8 675.6 206.667 675.6 206.667 678.267Z" fill="black"/>
<path d="M255.067 677.6C254.267 678.533 253.333 680.4 252.933 681.6C252.267 683.467 252.8 684 255.2 684C258.267 684 260 681.733 260 677.867C260 675.6 256.8 675.467 255.067 677.6Z" fill="black"/>
<path d="M90 680C89.6 680.667 89.8667 682.533 90.6667 684.133C92.1333 686.8 92.2667 686.8 94 684.4C95.0667 683.067 96 681.2 96 680.267C96 678.4 91.2 678.133 90 680Z" fill="black"/>
<path d="M224.667 681.333C223.333 682.8 221.467 684 220.4 684C218.4 684 218.133 687.733 219.867 690.533C220.8 692 222.133 691.6 226.533 688.133C232.267 683.6 233.867 678.667 229.6 678.667C228.133 678.667 226 679.867 224.667 681.333Z" fill="black"/>
<path d="M197.067 684.667C194 688.667 194 692.4 196.933 691.733C199.467 691.2 202.133 684.267 200.533 682.667C199.867 682 198.267 682.933 197.067 684.667Z" fill="black"/>
<path d="M176.933 688.933C175.333 690.4 175.867 692 178 692C179.067 692 180 691.067 180 690C180 687.867 178.4 687.333 176.933 688.933Z" fill="black"/>
</svg>
