<svg width="1366" height="619" viewBox="0 0 1366 619" fill="none" xmlns="http://www.w3.org/2000/svg">
<path d="M682.984 194.662C682.458 195.45 682.13 196.303 682.327 196.565C682.787 197.353 686.199 195.975 687.577 194.465C688.693 193.284 688.627 193.219 686.33 193.219C684.689 193.219 683.705 193.612 682.984 194.662Z" fill="black" fill-opacity="0.9"/>
<path d="M664.018 196.762C663.821 197.287 663.887 197.943 664.215 198.14C665.069 198.665 665.79 197.156 665.003 196.368C664.609 195.975 664.281 196.106 664.018 196.762Z" fill="black" fill-opacity="0.9"/>
<path d="M675.043 197.418C670.056 199.387 665.2 201.815 660.409 204.834C654.438 208.64 637.966 220.386 638.295 220.649C639.016 221.371 643.019 219.665 647.941 216.515C650.96 214.612 654.766 212.577 656.406 212.052C658.703 211.265 659.294 210.74 659.294 209.559C659.294 208.181 659.753 207.918 662.509 207.524C664.215 207.262 667.168 206.343 669.006 205.424C673.928 203.062 681.933 195.712 679.505 195.843C679.177 195.909 677.209 196.565 675.043 197.418Z" fill="black" fill-opacity="0.9"/>
<path d="M707.658 196.959C707.789 197.747 708.445 198.14 709.495 198.14C710.545 198.14 711.201 197.747 711.333 196.959C711.53 196.106 711.136 195.844 709.495 195.844C707.854 195.844 707.461 196.106 707.658 196.959Z" fill="black" fill-opacity="0.9"/>
<path d="M657.325 200.174C656.078 201.421 656.341 201.946 657.916 201.356C658.506 201.159 658.966 200.568 658.966 200.043C658.966 198.862 658.638 198.862 657.325 200.174Z" fill="black" fill-opacity="0.9"/>
<path d="M682.918 201.75C679.703 202.8 675.765 203.981 674.256 204.374C672.55 204.768 671.369 205.556 671.106 206.343C670.45 208.377 667.234 210.674 662.378 212.512C658.966 213.824 657.063 215.071 654.7 217.565C652.272 220.124 649.713 221.764 642.954 225.046C634.226 229.311 629.436 232.592 629.436 234.298C629.436 235.545 629.567 235.479 633.701 233.511C635.67 232.592 638.36 231.673 639.738 231.477C641.313 231.214 643.217 230.23 644.922 228.655C646.432 227.277 649.123 225.702 651.157 225.046C657.128 223.077 659.36 221.633 663.297 217.171C667.3 212.643 670.45 210.28 672.418 210.28C673.075 210.28 674.912 209.099 676.487 207.59C679.899 204.44 682.918 203.062 686.396 203.062C688.037 203.062 689.349 202.603 690.005 201.881C692.434 199.19 690.924 199.19 682.918 201.75Z" fill="black" fill-opacity="0.9"/>
<path d="M696.042 204.44C693.418 205.031 691.514 206.671 692.17 207.721C692.367 208.049 693.483 208.312 694.73 208.312C696.305 208.312 697.289 207.852 698.273 206.606C699.651 204.834 700.045 203.653 699.192 203.784C698.864 203.849 697.486 204.112 696.042 204.44Z" fill="black" fill-opacity="0.9"/>
<path d="M700.964 205.03C700.964 206.08 701.423 206.343 703.261 206.343C705.098 206.343 705.558 206.08 705.558 205.03C705.558 203.981 705.098 203.718 703.261 203.718C701.423 203.718 700.964 203.981 700.964 205.03Z" fill="black" fill-opacity="0.9"/>
<path d="M712.382 204.702C712.579 205.293 712.776 205.949 712.776 206.081C712.776 206.212 713.235 206.343 713.826 206.343C715.27 206.343 714.679 204.112 713.17 203.849C712.251 203.653 712.054 203.849 712.382 204.702Z" fill="black" fill-opacity="0.9"/>
<path d="M688.693 207.327C688.496 207.918 688.496 208.509 688.693 208.705C689.284 209.296 690.465 208.312 690.465 207.262C690.465 206.015 689.218 206.081 688.693 207.327Z" fill="black" fill-opacity="0.9"/>
<path d="M681.015 210.018C680.621 211.002 682.13 212.84 683.443 212.905C684.165 212.905 683.968 210.609 683.115 209.755C682.065 208.705 681.474 208.771 681.015 210.018Z" fill="black" fill-opacity="0.9"/>
<path d="M700.242 209.624C693.352 209.952 693.286 209.952 691.514 212.052C690.202 213.562 689.152 214.218 687.774 214.218C686.724 214.218 684.755 214.612 683.443 215.137C682.065 215.662 677.602 217.171 673.468 218.483C668.94 219.861 664.15 221.961 661.328 223.667C658.769 225.242 655.947 226.752 655.028 227.014C654.109 227.277 652.206 228.589 650.763 229.902C649.319 231.28 646.891 232.723 645.382 233.183C643.807 233.576 641.969 234.758 640.985 235.873C639.804 237.317 638.754 237.842 637.31 237.842C635.801 237.842 635.145 238.17 634.882 239.089C634.685 239.745 633.176 241.189 631.535 242.304C629.829 243.42 627.598 245.192 626.482 246.373L624.514 248.407L627.467 247.948C632.323 247.226 634.029 245.979 634.029 243.289C634.029 241.976 634.16 241.911 635.669 242.567C637.769 243.486 640.329 242.37 646.497 237.842C648.859 236.136 651.747 234.233 652.928 233.642C654.306 232.92 655.028 232.067 655.028 231.214C655.028 230.033 655.159 229.967 656.013 230.623C656.8 231.28 657.259 231.28 657.784 230.755C658.244 230.295 659.097 229.967 659.687 229.967C660.278 229.967 663.362 228.327 666.578 226.358C672.353 222.683 680.884 219.468 684.624 219.468C685.74 219.468 687.577 218.746 688.693 217.893C690.858 216.252 695.78 214.415 702.277 212.905C705.951 211.987 707.854 210.871 707.461 209.821C707.329 209.559 704.048 209.427 700.242 209.624Z" fill="black" fill-opacity="0.9"/>
<path d="M709.495 209.624C709.495 209.952 709.889 210.28 710.414 210.28C710.939 210.28 711.595 209.952 711.792 209.624C711.989 209.23 711.595 208.968 710.873 208.968C710.085 208.968 709.495 209.23 709.495 209.624Z" fill="black" fill-opacity="0.9"/>
<path d="M673.665 211.593C672.353 212.118 669.203 215.53 669.662 215.924C670.056 216.318 678.062 213.693 679.112 212.84C679.965 212.052 679.965 211.921 678.849 211.527C677.275 210.871 675.371 210.871 673.665 211.593Z" fill="black" fill-opacity="0.9"/>
<path d="M713.367 212.905C708.117 213.824 703.917 216.777 704.376 219.205C704.573 220.255 704.836 220.189 706.28 218.614L707.92 216.777L709.167 218.155C710.742 219.861 710.939 219.861 715.926 217.368L720.192 215.333L725.047 216.515L729.904 217.761L731.61 215.99L733.382 214.283L731.413 213.496C729.051 212.577 717.37 212.118 713.367 212.905Z" fill="black" fill-opacity="0.9"/>
<path d="M690.53 220.583C683.968 222.486 676.29 224.98 673.468 226.095C667.431 228.523 660.278 232.92 656.603 236.398C654.832 238.17 653.322 238.957 652.141 238.957C650.894 238.957 649.385 239.876 647.285 241.911C645.579 243.551 639.804 247.751 634.357 251.295C624.448 257.725 622.02 259.563 614.342 266.06C609.289 270.325 609.092 270.522 609.092 272.491C609.092 274.787 611.127 274.065 612.702 271.178C613.752 269.21 614.736 268.488 617.755 267.372C619.789 266.65 622.414 265.141 623.464 264.091C624.514 262.975 626.089 262.122 626.876 262.122C628.976 262.122 632.192 259.432 634.685 255.626C635.801 253.788 637.113 252.279 637.573 252.279C639.541 252.279 645.644 248.604 653.388 242.829C664.74 234.233 666.775 233.183 678.849 229.245C684.559 227.408 690.268 225.177 691.515 224.324C695.452 221.633 697.749 220.649 699.258 221.042C701.161 221.502 703.13 220.058 702.801 218.418C702.605 217.171 702.08 217.236 690.53 220.583Z" fill="black" fill-opacity="0.9"/>
<path d="M723.866 220.78C721.832 221.108 716.714 222.224 712.382 223.339C708.117 224.389 702.933 225.439 700.964 225.702C697.092 226.227 694.467 227.277 693.155 228.917C692.367 229.836 692.564 229.967 694.861 229.967C696.305 229.967 702.474 229.048 708.577 227.867C718.289 226.03 721.045 225.767 730.823 225.767C740.666 225.767 742.438 225.899 745.785 227.145C749.459 228.589 749.525 228.589 749.525 227.277C749.525 226.555 749 225.833 748.409 225.57C747.753 225.374 745.194 224.192 742.635 222.946C738.894 221.174 737.056 220.714 732.791 220.452C729.904 220.321 725.901 220.452 723.866 220.78Z" fill="black" fill-opacity="0.9"/>
<path d="M722.488 229.311C721.504 229.574 719.076 230.755 717.173 231.87C713.301 234.102 711.333 234.298 706.279 233.117C703.13 232.395 702.801 232.461 701.358 233.839C700.177 234.955 699.192 235.217 697.289 235.086C694.927 234.889 694.73 235.02 694.533 236.792L694.271 238.695L698.011 238.236C700.111 238.039 708.445 236.464 716.648 234.889C737.122 230.82 738.238 230.689 740.731 232.789C741.847 233.773 743.947 234.692 745.456 234.955C748.212 235.414 751.494 234.889 751.494 234.036C751.494 233.248 746.769 230.82 743.028 229.705C739.156 228.589 725.769 228.327 722.488 229.311Z" fill="black" fill-opacity="0.9"/>
<path d="M683.377 231.608C668.284 235.479 647.547 248.735 634.226 263.041C631.667 265.731 629.632 267.372 628.714 267.372C627.926 267.372 625.957 268.816 623.989 270.785C622.086 272.687 619.133 275.313 617.295 276.559C615.523 277.806 613.423 279.906 612.702 281.219C611.586 283.253 611.192 283.515 610.208 282.859C609.224 282.268 608.764 282.465 607.452 283.909C605.746 285.877 602.989 292.637 603.318 294.08C603.449 294.671 605.943 292.702 609.749 289.027C616.705 282.203 624.842 275.575 633.307 269.669C637.638 266.584 639.344 264.944 640.723 262.45C641.707 260.678 643.479 258.382 644.66 257.398C648.86 253.854 662.05 245.848 674.256 239.417C684.559 233.97 691.186 229.967 689.808 230.033C689.611 230.033 686.724 230.755 683.377 231.608Z" fill="black" fill-opacity="0.9"/>
<path d="M723.276 237.186C723.276 238.301 726.426 241.123 728.723 242.107C732.201 243.551 737.45 244.011 739.616 243.092C741.388 242.37 741.781 242.501 743.816 244.011C747.425 246.767 761.928 251.885 763.043 250.77C763.831 249.982 761.862 247.685 760.353 247.685C759.106 247.685 758.647 247.226 758.187 245.52C757.662 243.485 757.4 243.354 748.672 240.664C743.75 239.154 737.91 237.579 735.613 237.186C730.166 236.333 723.276 236.333 723.276 237.186Z" fill="black" fill-opacity="0.9"/>
<path d="M680.949 239.023C676.749 240.467 673.271 242.501 665.659 248.013C662.247 250.441 656.931 253.854 653.847 255.691C650.697 257.463 646.891 259.957 645.382 261.204C642.823 263.304 639.476 267.766 640.066 268.356C640.722 269.078 647.547 265.076 654.372 259.957C661.919 254.248 673.599 247.685 681.343 244.798C684.952 243.485 685.608 242.96 686.002 241.189C686.527 239.286 686.79 239.154 689.48 239.154C691.055 239.154 692.564 238.826 692.761 238.498C693.418 237.383 684.493 237.776 680.949 239.023Z" fill="black" fill-opacity="0.9"/>
<path d="M710.807 240.729C709.889 241.32 707.461 241.779 705.23 241.779C700.636 241.779 699.848 242.173 699.061 244.798L698.536 246.767L708.445 246.504C718.026 246.242 723.276 245.586 723.276 244.47C723.276 244.207 722.423 243.157 721.307 242.107C718.944 239.876 713.498 239.154 710.807 240.729Z" fill="black" fill-opacity="0.9"/>
<path d="M723.932 245.192C723.932 247.161 724.916 248.604 725.769 248.079C726.163 247.817 727.476 248.539 728.722 249.588C730.429 251.098 732.725 252.016 739.025 253.591C748.672 256.02 751.034 256.938 754.315 259.563C756.218 261.138 757.203 261.466 758.646 261.138C760.09 260.81 760.943 261.138 762.518 262.45C763.568 263.369 764.749 264.091 765.143 264.091C766.259 264.091 766.652 261.991 765.799 260.941C764.093 258.907 755.234 253.591 750.312 251.688C744.734 249.588 726.098 243.748 724.785 243.748C724.326 243.748 723.932 244.404 723.932 245.192Z" fill="black" fill-opacity="0.9"/>
<path d="M691.777 245.717C678.849 248.407 665.2 255.56 650.894 267.307C645.382 271.835 643.872 272.687 643.872 271.309C643.872 270.391 641.051 270.456 640.066 271.441C639.607 271.9 639.279 272.884 639.279 273.672C639.279 275.444 638.229 276.297 637.704 274.919C637.179 273.475 635.079 273.738 633.635 275.313C632.979 276.1 628.976 279.447 624.842 282.794C616.967 289.093 610.47 295.656 608.764 298.937C607.911 300.512 607.452 300.774 606.139 300.446C604.827 300.118 604.302 300.446 603.186 302.349C602.399 303.596 601.415 304.843 600.89 305.04C600.365 305.237 599.577 306.615 599.183 308.124C598.527 310.224 597.871 311.077 596.165 311.799C593.671 312.783 592.687 314.489 594.065 315.342C596.493 316.852 601.152 312.586 602.53 307.664C603.383 304.777 604.105 304.515 604.63 306.942C604.761 307.927 606.271 306.942 611.914 302.349C615.852 299.199 619.592 296.312 620.248 295.984C620.904 295.59 621.954 294.409 622.611 293.359C625.957 287.584 631.273 283.384 643.544 276.559C648.269 273.935 655.159 269.472 658.966 266.65C667.956 260.022 672.747 257.135 676.684 256.151C678.849 255.626 680.096 254.838 680.687 253.723C681.802 251.689 684.952 250.114 686.921 250.573C687.839 250.835 689.152 250.573 690.005 250.048C690.792 249.523 692.564 248.866 693.877 248.67C696.502 248.145 697.946 246.964 697.552 245.52C697.421 244.732 696.502 244.732 691.777 245.717Z" fill="black" fill-opacity="0.9"/>
<path d="M701.161 250.573C696.568 251.623 695.058 252.345 691.58 255.101C689.611 256.61 688.89 256.873 688.496 256.216C687.643 254.904 682.393 255.823 677.799 258.119C675.568 259.235 670.187 262.844 665.856 266.125C661.459 269.472 655.553 273.278 652.403 274.722C646.17 277.741 639.607 282.662 629.436 291.98C625.629 295.524 621.561 299.134 620.38 299.987C618.936 301.168 618.017 302.611 617.558 304.58C616.705 307.861 615.917 308.649 615.327 306.746C614.736 304.843 613.686 305.105 613.686 307.205C613.686 309.699 613.03 311.996 612.308 311.996C611.98 311.996 611.717 311.274 611.717 310.355C611.717 309.436 611.455 308.714 611.061 308.714C610.733 308.714 610.405 309.174 610.405 309.765C610.405 310.355 609.486 311.143 608.436 311.536C606.533 312.258 606.402 312.455 606.796 314.752C607.255 317.246 607.255 317.246 605.221 316.852C603.58 316.524 602.858 316.786 601.218 318.427C599.643 320.002 599.249 320.986 599.249 323.152C599.249 325.711 599.315 325.842 601.021 325.645C602.662 325.448 602.858 325.186 602.793 322.955C602.727 320.461 603.58 319.87 605.024 321.314C605.68 321.97 607.386 320.592 613.227 314.423C617.558 309.895 621.758 306.09 623.464 305.237C625.564 304.121 626.614 303.137 627.139 301.496C627.729 299.724 630.092 297.69 640.001 290.472C646.629 285.615 656.21 278.331 661.262 274.262C671.631 265.994 674.781 263.763 679.965 261.138C683.049 259.563 683.771 259.432 685.543 260.088C687.774 260.875 690.989 260.219 703.917 256.216C707.855 255.035 711.53 254.248 713.105 254.379C715.401 254.576 715.729 254.379 715.926 253.132C716.123 252.016 715.729 251.426 714.548 251.032C711.53 249.851 705.295 249.654 701.161 250.573Z" fill="black" fill-opacity="0.9"/>
<path d="M720.323 250.179C717.895 250.704 716.714 252.213 717.501 253.92C718.092 255.232 718.814 255.429 723.342 255.823C727.541 256.216 728.919 256.61 730.494 257.922C732.725 259.826 734.694 259.76 734.957 257.857C735.285 255.429 723.932 249.457 720.323 250.179Z" fill="black" fill-opacity="0.9"/>
<path d="M739.353 256.872C738.894 257.66 739.485 258.841 740.403 258.841C741.191 258.841 741.191 257.069 740.403 256.544C740.075 256.347 739.616 256.479 739.353 256.872Z" fill="black" fill-opacity="0.9"/>
<path d="M743.488 259.629C743.291 261.729 743.225 261.794 740.666 261.597C737.057 261.335 731.02 260.285 725.704 259.038C719.47 257.595 710.611 258.185 701.293 260.81C697.355 261.86 689.94 263.828 684.821 265.01C672.222 268.094 664.872 271.572 662.837 275.444C662.181 276.625 662.313 276.625 664.347 276.231C665.528 275.969 669.531 274.722 673.206 273.541C677.865 271.966 681.081 271.309 683.902 271.309C687.577 271.309 688.102 271.112 689.611 269.341C690.662 268.094 691.843 267.372 692.958 267.372C693.877 267.372 699.061 266.454 704.508 265.338C717.108 262.779 722.226 262.647 727.41 265.01C731.676 266.913 733.644 267.11 735.416 265.797C736.466 265.01 736.991 265.206 739.55 266.978C742.044 268.75 742.963 269.013 746.638 269.013C748.935 269.013 750.837 269.21 750.837 269.472C750.837 270.522 754.119 272.031 757.991 272.687C761.337 273.278 762.846 274 766.062 276.625C769.671 279.512 773.149 280.825 773.149 279.25C773.149 278.2 762.912 269.013 759.172 266.847C757.137 265.6 753.528 263.96 751.034 263.172C747.294 261.926 746.441 261.335 745.653 259.629C744.407 256.938 743.75 257.004 743.488 259.629Z" fill="black" fill-opacity="0.9"/>
<path d="M710.479 269.931C706.87 271.572 706.345 271.703 705.098 270.85C703.786 269.931 703.327 269.997 700.57 271.572C698.733 272.622 696.502 273.278 694.927 273.278C692.171 273.278 682.459 276.428 681.999 277.412C681.343 278.987 677.537 282.662 675.306 283.843C673.862 284.565 669.597 286.14 665.725 287.387C657.259 290.143 652.075 293.49 643.61 301.496C638.36 306.483 619.592 327.154 619.592 328.007C619.592 328.139 620.708 328.007 622.02 327.614C625.957 326.564 629.698 323.414 637.113 315.08C641.641 310.027 646.103 305.761 650.041 302.874C657.456 297.362 676.749 285.747 678.456 285.747C679.112 285.747 681.606 284.696 684.033 283.45C686.396 282.137 690.662 280.562 693.418 279.841C696.174 279.119 700.177 277.478 702.342 276.166C706.148 273.803 706.28 273.738 711.464 274.131C714.417 274.328 717.107 274.788 717.567 275.116C718.026 275.51 720.716 275.772 723.604 275.837C727.673 275.837 730.494 276.362 736.4 278.2C740.535 279.447 745.325 280.497 746.966 280.497C748.869 280.497 750.313 280.89 750.837 281.481C751.953 282.859 757.137 285.747 758.45 285.747C759.04 285.747 761.271 286.928 763.437 288.371C765.602 289.815 767.899 290.996 768.49 290.996C769.08 290.996 770.13 291.85 770.721 292.899C771.968 295.065 774.199 296.115 775.315 294.999C776.496 293.818 774.855 291.456 769.802 286.993C767.177 284.696 763.568 281.284 761.796 279.512C760.025 277.675 758.712 276.756 758.975 277.347C759.172 278.003 759.565 279.053 759.828 279.644C760.221 280.759 760.156 280.759 758.909 279.644C758.187 279.053 757.268 278.528 756.875 278.528C756.481 278.528 755.3 277.806 754.25 276.888C753.134 275.903 750.772 274.984 748.738 274.591C746.834 274.197 742.438 273.081 739.025 272.031C728.394 268.75 724.917 268.029 719.601 268.029C715.27 268.029 713.761 268.356 710.479 269.931Z" fill="black" fill-opacity="0.9"/>
<path d="M672.877 276.231C661.525 278.331 657.785 280.037 650.369 286.403C647.482 288.897 643.02 292.046 640.526 293.359C633.701 296.968 623.398 308.649 616.77 320.33C614.67 324.005 613.686 325.12 612.702 324.989C611.783 324.857 611.324 325.251 611.192 326.236C610.799 328.795 613.03 328.007 618.805 323.611C620.773 322.167 626.286 316.327 631.076 310.749C639.673 300.643 644.725 295.984 651.747 291.521C657.916 287.584 667.168 283.253 671.369 282.269C675.634 281.284 677.537 279.972 679.046 277.084C680.162 274.919 680.228 274.919 672.877 276.231Z" fill="black" fill-opacity="0.9"/>
<path d="M625.039 278.856C624.842 279.447 624.842 280.037 625.039 280.234C625.629 280.825 626.81 279.841 626.81 278.79C626.81 277.544 625.564 277.609 625.039 278.856Z" fill="black" fill-opacity="0.9"/>
<path d="M702.605 280.825C672.615 290.209 657.391 299.527 631.404 324.267C625.695 329.714 623.989 331.026 622.349 331.026C620.642 331.026 620.248 331.42 618.674 334.898C617.755 336.998 616.967 339.163 616.967 339.623C616.967 340.279 616.705 340.213 615.917 339.426C614.933 338.507 614.408 338.77 609.224 342.445C605.615 345.004 602.99 347.432 601.94 349.204C601.021 350.713 599.774 352.157 599.184 352.354C598.659 352.55 597.543 353.863 596.69 355.307C595.902 356.75 594.721 358.26 594.131 358.719C593.409 359.309 592.949 360.687 592.818 362.656C592.753 364.428 592.818 365.806 593.015 365.806C593.146 365.806 595.443 364.1 598.002 362C601.087 359.572 603.187 357.341 603.908 355.635C604.565 354.191 605.155 353.403 605.155 353.797C605.155 354.257 605.352 354.65 605.68 354.65C605.943 354.65 609.814 351.041 614.342 346.579C618.87 342.182 627.729 333.979 634.029 328.467C640.329 322.889 648.926 315.211 653.06 311.405C658.244 306.549 661.591 304.055 663.625 303.268C665.331 302.611 670.187 299.987 674.453 297.427C689.087 288.7 695.714 286.534 710.152 285.944C721.701 285.484 731.61 287.125 745.194 291.718C756.743 295.59 758.581 296.508 759.303 298.412C759.696 299.396 760.419 299.855 761.862 299.921C763.175 299.987 765.209 301.102 767.703 303.071C771.312 305.893 773.937 306.812 774.724 305.564C775.315 304.646 768.621 296.378 765.34 294.015C761.075 290.865 757.925 289.618 754.053 289.553C750.969 289.487 750.837 289.356 750.837 287.649C750.837 285.878 750.707 285.812 748.738 286.206C747.557 286.468 745.85 286.665 744.931 286.731C743.488 286.731 743.291 286.468 743.291 284.237C743.291 282.925 743.094 281.809 742.832 281.809C742.504 281.809 742.307 282.203 742.307 282.728C742.307 284.631 740.863 284.5 734.891 282.006C729.248 279.644 728.394 279.512 721.964 279.447C717.96 279.447 714.483 279.119 713.629 278.659C711.924 277.675 713.433 277.412 702.605 280.825Z" fill="black" fill-opacity="0.9"/>
<path d="M618.87 283.712C616.77 285.878 616.18 287.846 618.148 286.337C620.511 284.565 622.217 282.859 622.217 282.334C622.217 281.284 620.773 281.875 618.87 283.712Z" fill="black" fill-opacity="0.9"/>
<path d="M713.761 289.487C712.317 289.618 706.542 290.34 701.03 291.062C691.515 292.309 690.727 292.506 688.562 294.409C686.002 296.705 683.771 297.69 678.85 298.871C674.387 299.855 670.056 302.546 661.262 309.633C657.325 312.783 652.403 316.261 650.435 317.246C648.204 318.361 645.579 320.526 643.479 322.955C638.229 328.992 629.501 337.588 616.049 350.057L603.712 361.541L604.105 365.281C604.499 369.416 603.515 371.121 602.793 367.447C602.596 366.2 602.202 365.15 601.94 365.15C601.218 365.215 599.577 366.79 597.412 369.547C596.165 371.187 594.656 372.369 593.934 372.369C592.818 372.369 592.687 372.696 593.081 374.6C593.606 377.553 592.818 378.931 591.637 377.29C590.784 376.175 590.653 376.24 589.734 378.472C588.553 381.293 588.421 387.199 589.537 387.855C590.456 388.446 593.409 384.902 593.212 383.524C593.081 382.999 592.359 382.474 591.506 382.343C588.421 381.884 590.456 380.243 594.065 380.243C597.018 380.243 598.921 377.881 599.512 373.681C599.971 370.662 600.102 370.334 600.627 371.515C600.89 372.369 601.546 373.025 602.071 373.025C602.53 373.025 604.958 370.465 607.452 367.25C609.946 364.1 616.114 357.341 621.167 352.222C627.926 345.201 630.157 342.576 629.895 341.657C629.633 340.607 630.157 340.213 632.323 339.557C634.488 338.967 636.654 337.063 643.217 330.304C647.745 325.645 651.944 321.839 652.535 321.839C653.716 321.839 657.719 318.23 660.213 314.949C661.132 313.702 661.788 313.242 661.984 313.767C662.575 315.08 663.363 314.817 666.972 311.93C671.369 308.517 676.224 306.024 686.527 302.152C691.055 300.446 696.568 298.149 698.667 297.165C702.474 295.327 702.868 295.262 713.105 295.262H723.604L733.776 299.068C740.206 301.496 745.653 303.071 748.541 303.465C754.644 304.186 754.841 304.252 758.318 308.714C761.271 312.455 763.962 314.096 770 315.605C772.231 316.195 773.346 317.246 775.315 320.33C777.087 323.086 778.399 323.939 778.399 322.298C778.399 320.33 773.149 312.783 769.146 309.108C763.503 303.859 757.203 300.774 746.441 297.821C745.982 297.69 745.588 296.902 745.588 295.984C745.588 295.065 745.325 294.146 744.931 293.949C744.604 293.752 744.275 294.015 744.275 294.54C744.275 296.312 743.094 296.312 740.207 294.409C733.71 290.078 724.917 288.437 713.761 289.487Z" fill="black" fill-opacity="0.9"/>
<path d="M712.514 298.74C711.07 300.38 710.086 300.643 699.324 301.824C687.643 303.071 685.215 303.924 678.981 309.042C676.093 311.405 671.696 314.358 669.137 315.736C657.916 321.577 644.922 331.945 637.77 340.87C635.342 343.888 632.52 346.71 631.47 347.169C630.42 347.629 628.779 349.072 627.729 350.385C623.923 355.306 621.495 357.8 620.052 358.194C619.002 358.456 617.755 360.294 615.458 364.822C613.752 368.234 612.374 371.515 612.374 372.04C612.374 373.353 611.718 373.287 610.602 371.843C609.749 370.794 609.683 370.794 608.699 372.04C608.174 372.762 606.861 374.731 605.811 376.437C604.433 378.602 603.449 379.587 602.465 379.587C601.152 379.587 601.087 379.784 601.48 382.803C601.743 384.771 601.612 386.215 601.218 386.477C600.89 386.674 600.562 386.28 600.562 385.559C600.562 384.246 599.446 383.065 598.855 383.721C598.659 383.918 598.724 385.756 598.987 387.855L599.446 391.596L603.055 387.724C605.09 385.624 608.896 381.555 611.521 378.799C614.342 375.846 616.311 373.221 616.311 372.434C616.311 371.515 616.705 371.056 617.624 371.056C618.542 371.056 619.592 370.006 620.905 367.906C621.955 366.2 623.923 363.64 625.302 362.197C626.68 360.753 628.976 357.734 630.42 355.503C632.061 353.009 633.832 351.107 635.145 350.45C636.523 349.794 637.441 348.81 637.704 347.629C637.901 346.644 638.098 345.594 638.163 345.332C638.492 344.085 658.113 327.81 664.544 323.479C675.962 315.867 694.336 307.205 705.23 304.449C712.251 302.677 721.701 303.399 730.823 306.418C735.941 308.124 747.557 313.964 758.712 320.526C769.015 326.564 776.955 330.698 777.481 330.239C777.611 330.107 776.955 328.861 776.037 327.483C774.987 325.973 771.574 323.217 766.981 320.198C762.912 317.508 758.778 314.292 757.794 313.045C756.613 311.47 755.168 310.486 753.397 310.027C751.953 309.633 746.572 307.533 741.519 305.367C730.035 300.577 723.276 298.412 717.895 297.821C714.22 297.493 713.629 297.559 712.514 298.74Z" fill="black" fill-opacity="0.9"/>
<path d="M702.604 309.108C691.252 311.602 680.161 316.655 667.759 325.054C656.537 332.601 651.222 337.588 638.754 352.353C627.401 365.806 626.351 366.922 623.923 368.103C622.02 369.022 618.673 374.206 617.558 377.946C616.967 380.046 616.179 381.228 615.195 381.621C614.408 381.884 612.964 383.393 612.045 384.902C610.47 387.331 610.405 387.658 611.323 388.709C611.914 389.365 612.373 390.218 612.373 390.611C612.373 391.858 614.014 391.53 615.458 389.89C616.179 389.102 617.426 387.265 618.148 385.821C618.87 384.377 620.379 382.54 621.495 381.687C622.61 380.899 624.12 378.996 624.907 377.421C625.695 375.912 628.451 372.434 631.01 369.743C633.57 367.053 637.572 362 639.869 358.588C644.463 351.697 646.825 349.335 661.262 337.129C666.709 332.535 672.418 327.614 674.058 326.105C676.552 323.873 677.733 323.282 681.474 322.626C683.968 322.167 688.693 320.592 691.973 319.148C709.692 311.339 713.17 310.88 724.588 314.817C728.394 316.064 732.528 317.311 733.841 317.508C735.088 317.77 739.025 319.805 742.503 322.101C748.737 326.235 752.543 328.204 753.134 327.614C753.331 327.483 753.659 326.367 753.856 325.251C754.184 323.611 754.053 323.086 753.068 322.692C752.346 322.364 749.787 320.789 747.228 319.148C741.453 315.342 734.628 311.864 729.182 310.027C723.472 308.058 709.429 307.599 702.604 309.108Z" fill="black" fill-opacity="0.9"/>
<path d="M702.474 316.523C701.293 317.311 700.308 318.164 700.308 318.492C700.308 319.214 704.049 319.739 709.298 319.805C713.039 319.805 716.32 321.183 717.304 323.086C717.829 324.07 719.011 324.333 722.948 324.595C727.213 324.857 728.788 325.382 733.973 327.942C741.322 331.617 747.622 336.998 760.615 350.647C765.799 356.159 770.13 360.49 770.327 360.294C770.787 359.834 767.44 353.535 763.634 347.76C758.909 340.476 755.3 336.669 751.428 334.767C749.656 333.848 747.228 331.945 746.178 330.632C741.322 324.53 736.729 322.364 719.011 317.836C708.314 315.145 705.164 314.883 702.474 316.523Z" fill="black" fill-opacity="0.9"/>
<path d="M611.717 319.87C611.192 320.92 611.192 321.183 611.98 321.183C613.03 321.183 613.883 319.411 613.03 318.886C612.702 318.689 612.111 319.148 611.717 319.87Z" fill="black" fill-opacity="0.9"/>
<path d="M691.121 322.167C689.349 323.611 687.905 324.333 687.183 324.136C684.493 323.282 676.553 328.27 666.971 336.866C663.494 339.951 657.522 345.135 653.781 348.351C646.366 354.847 642.429 359.244 639.213 365.019C638.032 367.053 635.539 370.4 633.701 372.434C631.863 374.468 628.91 378.275 627.139 380.965C625.432 383.656 623.923 385.952 623.792 386.083C623.66 386.215 623.136 386.018 622.676 385.559C621.561 384.705 620.642 385.887 618.411 390.94C616.377 395.533 614.408 398.027 611.98 399.011C610.667 399.602 609.749 400.389 609.749 401.111C609.749 402.883 607.321 406.427 605.549 407.28C604.63 407.673 603.843 408.592 603.711 409.314C603.58 410.036 602.661 411.152 601.546 411.742C600.036 412.595 599.512 413.383 599.249 415.417C598.987 417.32 598.79 417.714 598.396 416.795C597.674 414.892 596.427 415.876 595.574 419.026C595.18 420.798 594.524 421.848 593.999 421.717C593.474 421.586 593.343 421.913 593.671 422.701C593.934 423.357 594.327 424.407 594.459 424.998C595.049 426.966 596.624 426.31 597.74 423.685C598.987 420.601 598.987 420.601 600.299 421.651C601.48 422.635 601.152 422.964 605.221 417.123C606.336 415.548 608.239 413.711 609.421 412.923C610.864 412.136 612.439 410.233 613.686 407.87C614.802 405.836 617.033 402.555 618.608 400.586C620.248 398.617 622.808 394.942 624.317 392.383C625.826 389.89 628.058 386.543 629.239 384.968C630.42 383.393 631.404 381.359 631.404 380.44C631.404 379.39 632.257 378.012 633.832 376.568C635.145 375.322 636.457 374.337 636.72 374.337C636.982 374.337 639.935 370.991 643.216 366.922C649.582 359.178 652.863 355.897 655.816 354.322C656.997 353.666 657.981 352.222 658.769 350.057C659.819 347.104 660.934 345.725 660.934 347.432C660.934 348.81 662.247 347.957 666.315 343.954C668.94 341.394 672.484 338.77 675.962 336.932C679.046 335.291 683.902 332.273 686.79 330.173L692.04 326.367L700.308 326.564C707.92 326.695 708.707 326.629 711.333 325.12C714.417 323.348 714.81 322.495 712.579 322.495C711.726 322.495 708.248 321.904 704.836 321.183C695.911 319.345 694.402 319.411 691.121 322.167Z" fill="black" fill-opacity="0.9"/>
<path d="M595.771 323.545C595.049 324.857 594.59 328.336 595.049 329.976C595.705 332.601 597.28 330.895 597.28 327.483C597.28 324.792 596.427 322.561 595.771 323.545Z" fill="black" fill-opacity="0.9"/>
<path d="M607.189 324.727C606.664 325.317 606.467 325.973 606.73 326.236C607.32 326.826 608.633 325.383 608.305 324.464C608.174 323.939 607.78 324.005 607.189 324.727Z" fill="black" fill-opacity="0.9"/>
<path d="M753.79 327.876C753.463 329.911 753.856 330.501 760.156 337.063C767.047 344.216 769.278 345.529 771.771 344.15C773.674 343.166 773.543 342.707 770.918 341.263C769.671 340.607 766.653 337.588 764.29 334.57C760.025 329.189 756.416 325.776 754.906 325.776C754.512 325.776 753.987 326.761 753.79 327.876Z" fill="black" fill-opacity="0.9"/>
<path d="M601.283 328.926C600.364 330.633 600.824 331.682 601.939 330.567C602.333 330.173 602.53 329.32 602.399 328.664C602.202 327.548 602.071 327.548 601.283 328.926Z" fill="black" fill-opacity="0.9"/>
<path d="M714.417 328.139C713.695 328.27 709.429 328.664 704.901 328.992C694.861 329.845 692.171 330.632 688.955 333.848C687.118 335.685 686.199 336.21 685.608 335.685C685.018 335.16 683.705 336.013 680.621 338.901C678.324 341.001 676.224 342.641 675.896 342.445C675.634 342.248 674.059 342.707 672.418 343.429C668.612 345.135 652.141 361.672 644.004 371.909C640.854 375.912 636.129 381.752 633.57 384.902C630.945 388.118 628.779 390.874 628.779 391.071C628.779 391.268 627.729 393.63 626.483 396.386C625.235 399.077 624.186 401.767 624.186 402.292C624.186 403.014 623.792 403.145 622.873 402.883C621.954 402.62 621.429 402.817 621.101 403.671C620.904 404.327 619.592 406.361 618.214 408.198C616.77 410.036 615.458 412.398 615.261 413.514C614.998 414.826 614.211 415.81 612.702 416.598C611.455 417.254 608.108 420.404 605.221 423.554C602.333 426.704 598.921 429.788 597.543 430.445C595.18 431.56 595.18 431.626 595.574 434.579C595.771 436.219 596.165 437.729 596.362 437.926C597.346 438.91 600.43 435.957 602.268 432.216C603.711 429.329 604.433 428.344 604.696 429.066C604.958 429.657 605.746 430.116 606.533 430.116C607.846 430.116 607.911 429.854 607.517 427.426C607.189 425.523 607.321 424.866 607.846 425.26C608.567 425.72 614.998 419.354 614.998 418.173C614.998 417.845 615.261 417.714 615.589 417.976C616.705 418.632 620.445 414.17 623.66 408.395C627.467 401.702 628.254 400.717 632.192 398.027C635.276 395.993 636.982 392.843 638.295 386.937C638.557 385.756 639.87 383.459 641.313 381.818C642.691 380.177 643.872 378.275 643.872 377.618C643.872 376.765 644.791 375.846 646.432 374.993C648.072 374.206 651.025 371.253 654.503 366.987C661.065 358.916 665.331 355.241 681.277 343.954C692.433 336.013 693.615 335.357 696.042 335.488C697.486 335.554 701.161 335.16 704.179 334.57C707.198 334.045 710.808 333.782 712.12 333.979C714.286 334.373 714.613 334.242 715.073 332.863C715.467 331.617 715.598 331.551 715.861 332.47C716.254 334.045 718.354 334.57 723.079 334.373C728.197 334.176 731.347 335.488 738.5 340.87C741.388 343.101 744.537 345.004 745.522 345.201C746.834 345.463 747.819 346.644 749.656 349.991C753.266 356.619 759.434 364.494 765.078 369.678C767.834 372.237 770.196 374.206 770.393 374.074C770.524 373.877 770.13 372.237 769.54 370.334C768.621 367.709 767.177 365.609 763.24 361.541C760.353 358.588 758.056 355.635 758.056 355.044C758.056 353.009 754.906 349.007 749.459 344.085C735.088 331.157 724.654 326.367 714.417 328.139Z" fill="black" fill-opacity="0.9"/>
<path d="M765.602 329.779C767.112 334.57 770.984 338.573 773.608 338.048C774.789 337.851 775.118 338.048 775.118 339.032C775.118 340.673 776.299 342.838 777.217 342.838C778.202 342.838 777.349 339.163 775.708 336.473C774.921 335.291 772.689 333.126 770.59 331.748C764.946 327.942 765.077 328.007 765.602 329.779Z" fill="black" fill-opacity="0.9"/>
<path d="M590.718 330.173C590.784 331.092 592.687 333.257 593.08 332.864C593.737 332.141 592.621 329.714 591.637 329.714C591.112 329.714 590.718 329.91 590.718 330.173Z" fill="black" fill-opacity="0.9"/>
<path d="M606.599 330.501C606.139 330.96 605.811 332.207 605.811 333.389C605.811 335.16 605.614 335.423 604.564 335.16C603.908 334.964 603.121 335.16 602.924 335.554C602.661 335.948 601.874 336.276 601.087 336.276C599.971 336.276 599.84 336.539 600.233 337.72C600.496 338.573 600.693 339.885 600.693 340.673C600.693 341.526 600.89 342.182 601.152 342.182C601.874 342.182 604.171 339.492 605.155 337.654C605.746 336.539 606.074 336.342 606.468 336.932C606.861 337.523 607.255 337.523 608.436 336.932C609.683 336.276 609.814 335.817 609.421 334.11C609.158 332.929 608.896 331.485 608.896 330.829C608.83 329.517 607.714 329.385 606.599 330.501Z" fill="black" fill-opacity="0.9"/>
<path d="M611.258 330.436C610.208 331.486 610.143 333.651 611.061 333.651C611.914 333.651 612.571 332.076 612.243 330.698C612.111 329.845 611.914 329.779 611.258 330.436Z" fill="black" fill-opacity="0.9"/>
<path d="M614.867 333.126C612.767 335.488 612.571 336.276 614.014 336.276C615.195 336.276 617.164 333.389 616.836 332.076C616.705 331.289 616.18 331.617 614.867 333.126Z" fill="black" fill-opacity="0.9"/>
<path d="M698.667 338.114C687.446 342.248 687.052 342.445 685.477 344.873C683.443 348.088 680.425 350.516 673.6 354.322C666.906 357.997 662.378 362 660.213 366.134C659.294 367.906 657.916 369.35 656.8 369.809C655.75 370.268 653.388 372.369 651.616 374.6C649.779 376.765 647.022 379.521 645.513 380.637C642.691 382.803 640.985 385.821 641.379 387.79C641.707 389.562 648.597 384.115 659.622 373.353C668.678 364.559 675.371 358.982 679.571 356.816C681.081 356.029 681.737 355.963 682.984 356.619C684.756 357.603 686.002 356.947 690.005 353.141C692.171 351.107 692.696 350.91 695.517 351.172C697.289 351.369 700.636 351.041 703.064 350.45C707.461 349.4 707.526 349.4 709.889 351.041C712.776 353.01 716.32 353.732 718.42 352.747C720.651 351.763 720.389 349.794 717.895 347.891C713.432 344.61 709.626 344.15 700.308 345.791C697.224 346.316 693.09 346.776 691.121 346.776C687.709 346.776 687.643 346.71 689.021 345.725C693.746 342.445 706.148 340.476 710.02 342.445C712.514 343.757 713.695 343.757 714.942 342.576C715.795 341.723 716.123 341.919 717.96 344.151C719.208 345.66 721.701 347.497 724.26 348.81C726.623 349.926 728.526 351.304 728.526 351.828C728.526 352.419 729.248 353.666 730.166 354.781C731.085 355.832 731.807 357.078 731.807 357.603C731.807 358.063 733.316 359.441 735.154 360.622C739.682 363.51 743.75 368.562 750.181 379.39C753.2 384.378 757.137 390.48 759.04 393.04C760.944 395.533 762.912 398.946 763.371 400.521C763.897 402.358 765.34 404.524 767.046 406.23C769.081 408.264 771.246 411.939 774.79 419.354C777.546 424.998 779.908 429.46 780.105 429.263C780.696 428.673 778.989 420.732 777.677 417.648C776.955 416.007 775.577 413.842 774.593 412.857C773.28 411.479 772.887 410.495 773.018 408.855C773.28 406.427 772.296 405.311 770.918 406.427C770.196 407.017 769.934 406.755 769.671 405.049C768.687 399.405 768.162 398.158 765.209 394.286C763.437 391.924 758.647 384.968 754.512 378.734C750.378 372.565 744.078 364.034 740.535 359.834C736.926 355.635 733.316 351.304 732.529 350.188C731.479 348.678 730.56 348.088 729.248 348.088C727.804 348.088 726.426 347.038 723.013 343.429C719.601 339.754 718.354 338.835 717.239 339.098C716.32 339.36 715.532 339.032 714.745 338.048C713.761 336.866 712.776 336.604 708.774 336.407C704.705 336.276 703.064 336.539 698.667 338.114Z" fill="black" fill-opacity="0.9"/>
<path d="M722.029 337.654C720.192 338.376 720.257 338.507 725.179 341.788C727.082 343.101 729.444 344.151 730.429 344.151C731.741 344.151 732.463 344.741 733.644 346.776C734.432 348.219 736.794 350.582 738.894 352.091C740.928 353.535 743.356 355.635 744.275 356.619C745.653 358.194 746.112 358.325 747.031 357.669C749.525 355.832 745.653 349.4 742.044 349.4C741.191 349.4 739.944 348.416 738.828 346.776C734.366 340.476 726.098 336.013 722.029 337.654Z" fill="black" fill-opacity="0.9"/>
<path d="M595.639 340.607C595.443 342.248 594.786 344.807 594.261 346.251C593.736 347.76 593.408 349.072 593.54 349.138C593.671 349.269 594.59 349.007 595.574 348.547C596.952 347.957 597.214 347.432 596.952 346.251C596.689 345.332 597.083 344.282 597.936 343.363C598.789 342.379 599.052 341.723 598.593 341.263C598.264 340.935 597.936 339.951 597.936 339.098C597.936 336.276 596.164 337.457 595.639 340.607Z" fill="black" fill-opacity="0.9"/>
<path d="M591.834 342.707C589.734 345.004 588.618 350.188 590.062 351.041C590.784 351.501 591.309 350.254 592.949 344.938C593.933 341.394 593.605 340.673 591.834 342.707Z" fill="black" fill-opacity="0.9"/>
<path d="M768.555 347.366C768.555 349.466 781.68 362.853 782.205 361.213C782.336 360.884 781.352 358.522 780.039 355.963C777.086 350.45 773.346 346.776 770.524 346.776C769.409 346.776 768.555 347.038 768.555 347.366Z" fill="black" fill-opacity="0.9"/>
<path d="M721.439 353.797C721.57 354.913 722.029 355.635 722.62 355.635C723.21 355.635 723.67 354.913 723.801 353.797C723.998 352.353 723.736 352.025 722.62 352.025C721.504 352.025 721.242 352.353 721.439 353.797Z" fill="black" fill-opacity="0.9"/>
<path d="M696.371 354.257C695.058 354.781 692.433 355.963 690.465 356.947C688.496 357.931 685.149 359.178 682.984 359.703C677.996 360.819 676.749 361.738 666.184 371.975L657.325 380.571L656.669 385.296C656.275 387.921 656.21 390.087 656.472 390.087C656.734 390.087 658.309 388.38 660.081 386.346C666.775 378.406 671.04 374.468 673.731 373.747C675.568 373.287 676.749 372.434 677.602 370.99C679.112 368.497 682.327 366.463 684.886 366.463C686.396 366.463 687.577 365.741 689.414 363.903C698.273 354.847 713.039 356.75 731.938 369.35C736.926 372.631 737.582 373.418 739.55 377.356C740.732 379.718 744.8 386.805 748.541 393.105C757.268 407.673 757.465 408.002 757.334 410.889C757.268 412.267 757.99 415.417 758.909 417.976C761.337 424.67 763.962 433.791 764.684 438.188C765.405 442.716 766.259 444.553 767.702 444.553C769.606 444.553 768.228 437.532 764.553 428.016C761.665 420.601 761.074 418.436 760.812 413.711C760.55 408.199 760.484 408.002 754.053 395.336C744.603 376.503 739.353 368.825 731.938 363.05C728.394 360.228 728.001 360.031 727.016 361.016C726.032 362 725.77 361.803 723.145 359.244C720.454 356.553 720.126 356.356 716.385 356.291C713.957 356.159 711.333 355.635 709.495 354.781C706.083 353.141 700.045 352.944 696.371 354.257Z" fill="black" fill-opacity="0.9"/>
<path d="M724.588 354.847C724.588 356.291 726.36 358.588 727.41 358.588C728.197 358.588 727.935 354.978 727.082 354.125C725.835 352.879 724.588 353.206 724.588 354.847Z" fill="black" fill-opacity="0.9"/>
<path d="M748.015 357.734C746.769 358.916 747.622 362.394 749.59 364.231C750.706 365.281 752.347 367.381 753.265 368.89C754.118 370.465 755.759 372.434 756.809 373.287C757.859 374.206 758.712 375.387 758.712 375.978C758.712 378.471 761.271 382.015 764.421 383.655C767.177 385.165 767.768 385.886 768.818 388.905C770.984 395.008 773.74 399.93 775.446 400.718C777.743 401.767 778.071 401.045 776.89 397.83C774.986 392.908 770.196 385.362 761.862 374.271C757.465 368.365 753.069 362.065 752.15 360.36C750.64 357.537 749.131 356.553 748.015 357.734Z" fill="black" fill-opacity="0.9"/>
<path d="M589.209 361.672C588.946 361.869 588.75 362.722 588.75 363.575C588.75 364.691 589.012 364.953 590.062 364.691C590.915 364.494 591.374 363.772 591.374 362.787C591.374 361.278 590.128 360.687 589.209 361.672Z" fill="black" fill-opacity="0.9"/>
<path d="M695.846 361.672C694.271 362 689.808 365.872 689.808 366.922C689.808 367.315 691.318 367.447 693.418 367.25C695.583 367.053 699.324 367.447 702.671 368.103C707.264 369.087 708.708 369.153 710.479 368.562C713.17 367.512 714.614 368.037 721.045 372.434C723.801 374.271 726.951 376.174 728.197 376.7C729.772 377.356 730.954 378.668 732.66 381.687C733.907 383.984 737.319 389.89 740.206 394.877C743.094 399.864 746.572 406.886 747.95 410.495C749.788 415.286 750.706 416.992 751.559 416.992C752.478 416.992 753.069 418.436 754.447 424.669C758.712 443.306 760.156 449.147 761.796 454.069C763.568 459.515 766.324 465.552 767.046 465.552C767.899 465.552 766.456 459.121 764.618 455.118C763.437 452.362 762.125 447.441 761.009 441.535C758.647 428.082 755.234 416.992 753.528 416.992C753.2 416.992 752.806 415.417 752.675 413.514C752.215 408.723 746.441 396.058 744.472 395.599C743.619 395.336 743.094 394.942 743.291 394.68C743.947 393.564 741.65 387.986 738.763 383.59C734.957 377.881 727.213 370.137 722.423 367.25C720.454 366.069 717.042 364.428 714.81 363.706C711.136 362.459 710.414 362.394 707.264 363.181C703.917 363.969 703.589 363.903 701.949 362.591C700.177 361.278 698.996 361.081 695.846 361.672Z" fill="black" fill-opacity="0.9"/>
<path d="M771.181 362.394C771.181 364.231 773.083 366.463 774.724 366.463C776.036 366.463 776.299 366.856 776.627 369.219C776.89 371.056 777.611 372.566 778.989 373.944C781.352 376.306 781.549 375.649 780.04 370.465C778.399 365.085 771.181 358.456 771.181 362.394Z" fill="black" fill-opacity="0.9"/>
<path d="M588.946 368.168C587.962 369.678 587.765 369.743 587.043 368.825C586.387 367.841 586.256 367.906 585.862 369.35C585.468 371.056 585.928 373.025 586.781 373.025C587.765 373.025 590.718 369.022 590.718 367.709C590.718 366.003 590.324 366.134 588.946 368.168Z" fill="black" fill-opacity="0.9"/>
<path d="M710.151 371.121C710.151 372.631 717.304 379.062 721.635 381.359C725.638 383.59 726.229 384.115 726.754 386.28C727.082 387.658 728.46 390.021 729.904 391.596C734.038 396.386 740.863 414.236 744.013 428.804C744.603 431.494 745.259 438.713 745.522 444.881C746.047 455.906 746.047 456.103 748.672 462.6C750.837 467.85 751.756 471.656 753.396 481.433C755.365 492.786 757.006 499.676 757.859 499.676C758.121 499.676 758.056 496.789 757.859 493.18C757.4 486.683 755.956 478.808 753.462 469.228C752.74 466.34 752.15 462.993 752.15 461.681C752.084 460.369 751.559 458.137 750.837 456.694C750.05 455.053 749.525 452.625 749.525 450.131C749.525 447.638 749 445.144 748.147 443.241C747.228 441.206 746.9 439.566 747.163 437.926C747.425 436.482 747.163 434.579 746.637 433.266C745.85 431.429 745.784 430.051 746.309 426.31C747.097 420.601 746.309 416.729 742.438 408.067C740.994 404.852 739.485 401.045 739.025 399.602C736.794 392.58 730.494 383.852 722.816 377.29C717.107 372.369 710.151 369.022 710.151 371.121Z" fill="black" fill-opacity="0.9"/>
<path d="M681.605 373.025C673.731 376.175 663.297 386.543 657.194 397.174C655.487 400.258 652.666 404.261 651.025 406.099C649.385 407.936 646.3 411.676 644.135 414.367C642.035 417.058 639.147 420.404 637.769 421.783C635.472 424.014 635.341 424.407 635.735 426.704C636.26 429.723 636.523 430.116 637.704 430.116C638.36 430.116 638.622 429.198 638.622 426.311L638.688 422.57L639.738 424.539L640.788 426.441L641.838 424.867C642.429 423.948 645.119 420.47 647.875 416.992C650.631 413.58 653.65 409.38 654.635 407.739C655.619 406.033 656.931 404.524 657.653 404.327C658.309 404.13 659.884 402.62 661.065 400.849C662.246 399.143 664.215 396.452 665.396 394.877C666.643 393.171 667.496 391.268 667.496 390.087C667.496 388.315 667.628 388.184 669.4 388.512C672.09 389.102 673.534 388.052 676.618 383.262C679.505 378.799 681.343 377.618 682.918 378.931C683.705 379.587 683.968 379.521 684.296 378.537C685.346 375.256 686.067 373.681 686.527 373.681C687.642 373.681 687.774 376.962 686.789 379.259C686.264 380.571 685.937 381.818 686.067 381.949C686.199 382.081 687.249 381.818 688.364 381.425C690.53 380.571 691.055 379.128 689.742 377.815C689.283 377.356 689.152 376.568 689.414 375.978C689.742 375.125 690.333 374.928 692.039 375.256C693.745 375.584 694.336 375.453 694.664 374.6C695.386 372.762 694.008 372.106 689.283 371.909C686.067 371.778 683.968 372.04 681.605 373.025Z" fill="black" fill-opacity="0.9"/>
<path d="M695.714 373.943C695.714 376.568 697.092 377.356 700.571 376.7C701.883 376.437 703.13 376.634 703.917 377.224C705.164 378.143 705.23 378.209 704.049 380.177C702.671 382.474 703.064 385.033 704.77 384.705C705.361 384.574 706.083 383.524 706.477 382.343C706.805 381.228 707.33 380.243 707.658 380.243C707.986 380.243 710.283 382.146 712.776 384.508C715.27 386.871 717.764 388.774 718.223 388.774C718.748 388.774 720.389 391.268 721.832 394.352C723.342 397.436 726.295 402.883 728.526 406.427C730.691 409.97 732.463 413.579 732.463 414.498C732.463 415.417 733.251 418.829 734.17 421.979C735.088 425.195 736.269 429.46 736.86 431.429C737.582 434.119 737.976 440.944 738.369 458.203C738.894 480.514 738.894 481.499 737.647 483.599C736.335 485.83 734.104 495.673 734.826 496.329C735.679 497.183 737.647 493.573 738.698 489.177C739.354 486.421 740.338 484.19 741.06 483.73C742.11 482.942 742.307 481.499 742.7 471.721C744.144 434.054 735.416 400.455 719.864 383.787C716.123 379.784 714.023 378.734 713.039 380.309C712.842 380.702 711.792 379.587 710.742 377.749C708.38 373.615 704.836 371.712 699.455 371.712H695.714V373.943Z" fill="black" fill-opacity="0.9"/>
<path d="M771.311 375.125C770.196 376.24 770.327 376.7 772.099 378.472C773.018 379.39 774.593 381.818 775.642 383.918C776.693 386.083 778.202 388.38 778.989 389.036C780.367 390.284 780.367 390.284 780.367 388.38C780.367 386.215 779.055 383.656 775.971 379.587C774.789 378.012 773.805 376.24 773.805 375.518C773.805 374.206 772.492 373.944 771.311 375.125Z" fill="black" fill-opacity="0.9"/>
<path d="M692.433 379.259C691.186 380.768 692.17 382.343 694.205 382.081C695.648 381.949 696.108 381.49 696.239 380.046C696.436 378.537 696.239 378.275 694.861 378.275C693.942 378.275 692.892 378.734 692.433 379.259Z" fill="black" fill-opacity="0.9"/>
<path d="M698.47 380.571C697.355 382.999 697.486 383.524 699.258 383.524C701.358 383.524 701.949 382.474 700.899 380.506C699.848 378.537 699.389 378.537 698.47 380.571Z" fill="black" fill-opacity="0.9"/>
<path d="M679.834 381.621C678.653 382.277 678.128 386.805 679.177 386.805C680.687 386.805 682.59 384.574 682.59 382.802C682.59 380.834 681.803 380.44 679.834 381.621Z" fill="black" fill-opacity="0.9"/>
<path d="M584.156 384.443C584.156 385.69 583.893 386.937 583.5 387.134C582.712 387.593 582.647 390.546 583.368 391.005C584.156 391.465 588.093 388.971 588.093 388.052C588.093 387.593 587.765 386.149 587.306 384.771C586.781 382.999 586.19 382.212 585.337 382.212C584.418 382.212 584.156 382.737 584.156 384.443Z" fill="black" fill-opacity="0.9"/>
<path d="M650.96 384.837C648.335 386.28 646.432 388.643 645.316 391.858C644.463 394.418 644.726 394.483 647.81 392.646C651.682 390.284 655.685 385.886 655.685 383.852C655.685 383.13 653.322 383.655 650.96 384.837Z" fill="black" fill-opacity="0.9"/>
<path d="M688.496 383.984C684.821 384.181 684.099 384.443 683.574 385.69C683.181 386.543 682.196 387.199 681.146 387.33C680.228 387.461 678.98 388.249 678.39 389.102C677.734 390.087 676.946 390.546 676.093 390.283C675.175 390.021 674.19 390.874 672.025 393.827C670.515 395.927 666.512 400.258 663.166 403.408C656.407 409.773 652.076 415.745 650.894 420.141C650.369 422.11 649.647 423.226 648.663 423.62C647.81 423.948 647.154 424.604 647.154 425.195C647.154 425.72 646.563 426.179 645.841 426.179C644.857 426.179 644.398 426.77 644.069 428.213C643.807 429.591 642.888 430.707 641.182 431.823C638.426 433.529 636.457 436.678 636.785 438.844C637.114 441.272 638.885 440.419 640.591 437.007C641.576 435.169 642.626 433.791 643.085 433.857C643.544 433.988 643.873 433.332 643.873 432.413C643.873 430.969 644.069 430.772 645.447 431.166C646.826 431.494 647.088 431.298 647.285 429.723C647.416 428.344 647.941 427.754 649.45 427.36C650.631 427.032 652.338 425.588 653.716 423.882C654.963 422.242 656.997 420.47 658.112 419.879C660.016 419.026 660.278 418.567 660.278 416.401C660.278 414.301 660.672 413.645 662.969 411.742C664.478 410.561 666.972 407.542 668.612 405.114C670.712 401.833 672.287 400.192 674.256 399.208C675.765 398.421 679.768 395.927 683.181 393.63C686.527 391.333 689.808 389.43 690.465 389.43C691.121 389.43 693.746 389.89 696.305 390.48C701.227 391.596 703.524 391.399 705.164 389.693C706.739 388.183 706.477 387.593 703.917 386.346C702.08 385.493 701.161 385.362 699.718 385.886C698.143 386.543 697.749 386.412 696.502 385.034C695.78 384.246 694.599 383.59 693.942 383.655C693.286 383.721 690.859 383.852 688.496 383.984Z" fill="black" fill-opacity="0.9"/>
<path d="M706.87 389.693C706.87 392.646 707.067 393.367 708.117 393.696C709.757 394.221 712.448 397.371 715.532 402.423C716.976 404.852 718.944 407.083 720.519 408.002C722.948 409.577 723.21 410.036 725.113 416.795C728.197 427.36 729.707 434.513 730.888 443.7C732.134 453.15 731.675 457.809 728.919 464.568C727.476 468.243 726.885 470.54 725.244 479.333C724.719 482.221 723.735 484.058 720.585 488.192C718.354 491.08 715.138 496.395 713.367 500.004C711.463 504.073 709.101 507.748 707.264 509.651C704.245 512.801 701.883 516.541 702.539 517.197C702.736 517.394 703.851 516.935 705.033 516.213C707.46 514.704 710.413 510.898 714.876 503.614C716.582 500.923 718.682 497.97 719.666 497.051C721.7 495.148 723.275 491.736 723.275 489.308C723.275 488.455 723.997 487.077 724.785 486.289C726.688 484.517 728 480.974 729.838 472.64C730.691 468.834 731.741 465.618 732.528 464.765L733.841 463.256L733.578 468.177C733.382 470.933 732.134 477.102 730.756 482.089C727.803 492.983 728.46 495.083 732.331 486.88C735.087 481.04 735.416 477.955 735.219 458.4C735.022 441.666 734.891 439.172 733.513 433.135C732.66 429.526 731.413 423.554 730.756 419.945C729.707 414.498 729.116 412.792 726.885 409.445C725.375 407.28 722.751 403.014 720.979 399.93C716.713 392.383 714.941 390.218 711.529 387.987C707.329 385.362 706.87 385.493 706.87 389.693Z" fill="black" fill-opacity="0.9"/>
<path d="M595.443 387.265C594.983 387.462 593.605 389.627 592.359 392.055C590.587 395.599 589.865 396.452 588.881 396.19C588.093 395.993 587.437 396.452 586.912 397.568C586.518 398.486 586.387 399.274 586.715 399.274C587.043 399.274 587.502 399.996 587.699 400.915C588.224 403.08 588.815 402.949 590.193 400.586C590.849 399.47 592.293 398.092 593.409 397.436C594.524 396.846 596.165 395.73 597.018 395.008C598.396 393.761 598.461 393.499 597.74 390.218C597.346 388.38 596.887 386.805 596.69 386.871C596.427 386.871 595.902 387.068 595.443 387.265Z" fill="black" fill-opacity="0.9"/>
<path d="M607.846 390.218C607.518 391.137 607.19 391.333 606.861 390.874C606.074 389.496 604.499 390.874 600.496 396.387C598.33 399.405 595.968 402.227 595.246 402.555C593.803 403.342 593.671 404.72 594.721 407.739C595.509 409.904 596.624 410.364 597.871 408.855C598.396 408.264 598.396 407.477 598.002 406.295C597.215 404.261 597.674 403.671 599.315 404.72C601.021 405.77 602.333 404.852 604.893 400.98C607.518 397.043 609.749 394.68 610.864 394.68C611.324 394.68 611.717 394.09 611.717 393.302C611.717 390.087 608.764 387.724 607.846 390.218Z" fill="black" fill-opacity="0.9"/>
<path d="M651.878 392.646C650.434 393.761 647.416 397.174 645.185 400.389C642.888 403.539 639.541 407.936 637.704 410.101C635.801 412.267 633.504 415.089 632.585 416.336C630.682 418.829 627.861 425.457 628.451 426.048C628.648 426.244 629.501 426.048 630.354 425.654C631.404 425.195 632.257 423.882 632.979 421.716C633.898 419.026 634.62 418.107 637.179 416.532C639.279 415.22 642.166 412.136 646.3 406.754C649.582 402.489 653.387 397.765 654.7 396.32C655.947 394.942 656.866 393.367 656.669 392.843C656.472 392.383 656.34 391.662 656.34 391.333C656.34 390.218 654.569 390.743 651.878 392.646Z" fill="black" fill-opacity="0.9"/>
<path d="M668.481 393.105C667.89 394.024 667.562 394.942 667.759 395.139C668.284 395.73 670.778 393.367 670.778 392.252C670.778 390.874 669.728 391.268 668.481 393.105Z" fill="black" fill-opacity="0.9"/>
<path d="M638.557 394.746C637.31 396.255 635.21 398.683 633.832 400.127C632.52 401.571 630.814 403.933 630.026 405.442C629.304 406.886 628.123 409.183 627.467 410.43C626.745 411.676 626.154 413.383 626.154 414.236C626.154 415.548 626.483 415.745 627.992 415.548C629.633 415.351 629.764 415.154 629.567 412.857C629.436 410.758 629.567 410.43 630.814 410.43C632.717 410.43 635.276 407.477 637.573 402.752C639.016 399.667 639.738 398.88 640.591 399.077C642.166 399.47 644.004 396.649 643.741 394.221C643.413 391.202 641.182 391.465 638.557 394.746Z" fill="black" fill-opacity="0.9"/>
<path d="M689.808 395.336C687.709 396.058 685.477 397.371 684.427 398.552C683.049 400.127 682.065 400.586 680.293 400.586C677.143 400.586 673.337 404.13 670.712 409.445C669.072 412.857 668.481 413.448 667.3 413.251C666.053 412.989 665.397 413.776 663.1 417.779C661.591 420.47 659.753 423.161 659.097 423.751C658.047 424.67 657.916 425.523 658.178 428.016C658.703 433.266 659.163 433.332 662.247 428.87C663.756 426.573 666.841 422.701 669.006 420.142C671.237 417.582 674.912 413.251 677.209 410.495C679.834 407.28 681.934 405.376 683.115 405.049C684.099 404.852 685.543 404.392 686.331 404.195C687.512 403.802 687.774 403.998 687.971 405.573C688.102 406.558 688.562 407.542 689.087 407.673C689.743 407.87 689.874 407.608 689.611 406.558C688.758 403.277 692.171 397.305 694.927 397.305C695.714 397.305 695.846 398.355 695.649 403.342L695.386 409.445L697.552 409.38C699.258 409.248 699.652 409.511 699.652 410.626C699.652 411.348 700.571 413.383 701.752 415.154C703.13 417.385 703.852 419.485 704.114 421.782C704.246 423.685 704.967 426.901 705.755 429.001C707.002 432.544 707.002 433.266 706.28 438.188C704.573 449.803 700.899 461.156 696.174 469.621C693.746 473.952 692.696 475.134 690.268 476.38C689.546 476.709 687.118 479.662 684.952 482.942C682.196 487.011 680.162 489.242 678.521 490.161C676.421 491.277 676.027 491.802 676.027 493.705C676.027 495.673 675.897 495.87 674.453 495.477C673.009 495.148 672.878 495.28 672.55 498.823C672.156 502.695 672.484 504.336 673.206 501.776C673.468 500.595 674.059 500.333 675.962 500.333C678.85 500.267 681.146 498.43 685.543 492.458C687.315 490.096 690.53 486.289 692.761 483.927C697.88 478.546 699.258 476.052 704.246 463.912C707.461 456.037 708.314 453.215 708.511 449.803C708.642 447.441 709.167 444.356 709.692 442.913C712.12 436.154 711.53 421.848 708.577 415.286C706.805 411.414 703.195 407.148 699.98 405.18L697.814 403.867L699.061 401.242C699.783 399.799 700.439 398.617 700.571 398.617C700.833 398.617 708.97 412.595 710.676 416.007C713.432 421.52 714.351 426.179 714.286 434.054C714.22 445.538 711.464 456.103 705.492 468.506C701.423 476.971 697.749 482.483 692.368 488.192C689.284 491.474 687.905 493.442 687.577 495.148C687.249 497.051 686.724 497.642 684.887 498.364C683.64 498.889 682.59 499.545 682.59 499.939C682.59 500.333 681.277 501.973 679.703 503.614C676.881 506.436 676.421 507.485 676.618 510.635C676.749 513.063 678.521 512.407 679.046 509.782C679.374 508.076 679.899 507.289 681.212 506.829C686.79 504.795 692.893 499.217 697.092 492.195C698.47 489.964 699.783 488.521 700.505 488.521C702.671 488.521 711.923 467.521 715.073 455.381C717.567 445.603 718.223 439.369 717.829 428.541C717.436 417.648 715.992 408.986 714.023 404.983C712.317 401.767 708.051 397.108 705.033 395.205L702.736 393.761L701.752 395.205C700.571 396.977 699.98 396.977 698.34 395.336C696.699 393.696 694.468 393.696 689.808 395.336Z" fill="black" fill-opacity="0.9"/>
<path d="M691.908 400.521C690.662 401.308 691.186 403.474 692.696 403.736C694.336 404.064 695.255 402.949 694.73 401.308C694.271 399.864 693.352 399.602 691.908 400.521Z" fill="black" fill-opacity="0.9"/>
<path d="M581.728 401.702C579.891 402.03 579.825 403.671 581.531 405.77C582.778 407.214 582.909 407.28 584.484 406.23C586.059 405.18 586.846 401.899 585.534 401.899C585.206 401.899 584.55 401.767 584.025 401.636C583.565 401.505 582.515 401.571 581.728 401.702Z" fill="black" fill-opacity="0.9"/>
<path d="M777.743 405.114C777.743 406.951 778.202 408.264 779.383 409.577L780.958 411.414L781.024 408.92C781.024 406.295 779.449 402.555 778.399 402.555C778.005 402.555 777.743 403.736 777.743 405.114Z" fill="black" fill-opacity="0.9"/>
<path d="M590.849 407.28C589.143 408.986 590.324 414.367 592.424 414.367C593.212 414.367 593.343 413.645 593.212 410.626C593.015 406.886 592.293 405.836 590.849 407.28Z" fill="black" fill-opacity="0.9"/>
<path d="M681.474 409.183C680.425 410.233 680.359 411.873 681.409 412.923C682.524 414.039 681.474 414.695 679.768 413.908C678.259 413.186 677.931 413.58 673.665 419.486C662.444 435.17 649.779 449.803 645.907 451.64C642.691 453.15 640.591 456.497 640.591 460.04C640.591 461.615 640.92 463.059 641.313 463.256C641.642 463.519 643.085 462.928 644.463 462.009C645.776 461.09 647.219 460.303 647.679 460.303C648.729 460.303 649.713 458.137 649.91 455.447C650.107 452.756 650.304 452.625 651.55 454.2C652.403 455.316 652.535 455.25 653.519 453.741C654.11 452.822 656.144 450.591 658.047 448.819C659.884 446.982 661.984 444.619 662.641 443.569C663.363 442.454 665.266 440.091 667.038 438.319C668.743 436.482 671.893 432.347 674.059 429.067C678.456 422.307 682.656 418.107 686.921 416.27L689.808 414.958L692.564 416.533C694.139 417.451 695.714 418.042 696.108 417.911C696.502 417.714 697.092 418.698 697.421 420.011C698.602 424.801 701.817 424.539 701.489 419.617C701.293 417.779 700.702 416.926 697.814 414.695C695.911 413.251 694.008 411.349 693.549 410.43C692.499 408.33 689.611 408.002 686.528 409.642C684.296 410.889 684.231 410.889 683.246 409.642C682.459 408.658 682.13 408.526 681.474 409.183Z" fill="black" fill-opacity="0.9"/>
<path d="M717.37 411.152C717.37 412.398 718.157 416.467 719.142 420.273C720.848 426.704 720.913 428.016 720.848 439.501C720.783 448.753 720.913 451.772 721.504 451.575C721.964 451.444 722.62 450.197 723.014 448.753C724.129 444.75 725.573 445.407 725.31 449.803C725.048 455.709 723.342 462.074 719.47 471.787C717.304 477.365 715.729 482.352 715.533 484.452C715.27 487.339 714.942 488.061 713.629 488.718C711.858 489.505 710.283 491.933 708.183 497.248C707.002 500.333 706.477 500.923 705.492 500.661C704.639 500.398 704.246 500.595 704.246 501.251C704.246 501.776 702.474 503.745 700.374 505.582C696.174 509.257 695.19 511.357 696.371 514.441L697.092 516.279L698.143 514.704C698.799 513.851 701.555 510.307 704.311 506.895C709.167 500.923 712.776 494.755 712.776 492.327C712.776 491.605 713.105 491.342 713.695 491.539C714.876 491.998 716.123 489.636 717.698 484.255C718.42 481.63 719.535 479.53 721.11 477.89C723.079 475.921 723.539 474.871 723.801 471.984C723.998 469.949 724.785 467.324 725.835 465.553C727.279 463.059 727.541 461.681 727.738 456.168C727.935 452.625 727.673 448.031 727.279 445.997C726.885 443.963 726.229 438.779 725.901 434.513C724.785 422.767 721.701 412.53 718.42 409.839C717.501 409.051 717.37 409.248 717.37 411.152Z" fill="black" fill-opacity="0.9"/>
<path d="M763.502 412.53C763.83 414.039 766.455 421.979 768.358 427.492C768.949 429.132 770.393 431.363 771.64 432.544C773.411 434.251 773.805 435.104 773.805 437.466C773.805 441.076 774.593 442.388 775.774 440.944C778.136 438.057 767.374 411.217 763.699 411.086C763.437 411.086 763.306 411.742 763.502 412.53Z" fill="black" fill-opacity="0.9"/>
<path d="M586.124 413.776C586.124 415.483 585.928 415.745 584.681 415.548C583.499 415.417 583.106 415.745 582.974 416.926C582.581 419.354 583.893 420.076 585.665 418.436C586.518 417.648 587.502 416.992 587.962 416.992C589.274 416.992 589.471 415.745 588.421 413.711C587.109 411.152 586.124 411.217 586.124 413.776Z" fill="black" fill-opacity="0.9"/>
<path d="M623.07 416.992C621.758 419.42 619.855 421.454 615.852 424.604C614.474 425.785 612.308 428.541 611.127 430.772C608.568 435.563 606.861 437.466 605.549 436.941C605.024 436.744 604.368 437.072 604.04 437.794C602.99 439.828 603.449 440.944 605.286 441.141C606.599 441.272 607.911 440.485 611.193 437.466C613.424 435.366 615.983 433.266 616.836 432.807C618.345 432.02 618.345 431.56 617.164 428.279C616.967 427.819 617.427 427.492 618.477 427.492C620.445 427.492 622.742 424.801 624.908 420.011C626.155 417.123 626.155 416.729 625.236 415.81C624.317 414.892 624.12 415.023 623.07 416.992Z" fill="black" fill-opacity="0.9"/>
<path d="M579.168 418.633C579.234 420.798 580.218 420.798 580.218 418.633C580.218 417.714 579.956 416.992 579.628 416.992C579.3 416.992 579.103 417.714 579.168 418.633Z" fill="black" fill-opacity="0.9"/>
<path d="M688.496 419.617C687.971 419.945 686.724 420.273 685.74 420.273C683.311 420.273 679.506 424.801 673.074 435.432C668.743 442.519 666.315 445.669 659.36 452.953C654.7 457.875 649.975 462.337 648.86 462.862C647.744 463.453 645.644 465.487 644.201 467.456C642.101 470.212 640.723 471.262 638.163 472.246C634.226 473.69 630.092 477.824 630.092 480.318C630.092 481.893 630.157 481.893 632.586 481.04C639.935 478.414 646.957 473.559 657.916 463.387L664.872 456.89L664.937 453.544C665.003 451.64 665.2 450.919 665.331 451.903C665.856 455.184 667.759 453.806 672.09 446.916C673.599 444.553 675.371 442.454 676.093 442.257C676.815 441.994 677.34 441.272 677.34 440.353C677.34 437.335 678.127 434.776 678.98 435.104C679.374 435.3 681.277 433.398 683.115 430.772C685.018 428.213 687.249 425.785 688.168 425.392C689.546 424.801 689.808 424.21 689.808 421.782C689.808 420.273 689.743 418.96 689.677 418.96C689.546 418.96 689.021 419.289 688.496 419.617Z" fill="black" fill-opacity="0.9"/>
<path d="M690.858 421.716C690.661 422.176 690.399 423.882 690.268 425.392C690.005 427.426 689.48 428.607 688.365 429.329C685.608 431.298 684.033 433.463 680.884 439.501C679.112 443.044 676.356 447.047 674.387 449.213C672.484 451.181 670.187 454.331 669.203 456.168C668.284 458.006 666.709 460.106 665.725 460.828C664.675 461.55 660.672 465.421 656.734 469.359C652.469 473.69 648.925 476.709 647.875 476.905C646.957 477.102 643.15 479.071 639.476 481.302C634.291 484.452 632.126 485.371 629.763 485.568C627.795 485.699 626.22 486.224 625.498 486.946C623.989 488.521 623.004 493.114 624.186 493.114C626.023 493.114 638.622 488.914 643.019 486.814C647.547 484.649 651.091 481.499 651.091 479.596C651.091 479.071 651.419 478.677 651.747 478.677C652.141 478.677 652.403 479.268 652.403 479.989C652.403 480.711 652.731 481.302 653.06 481.302C653.453 481.302 653.716 481.04 653.716 480.711C653.716 480.383 655.75 478.48 658.309 476.446C661 474.28 663.034 472.049 663.297 471.065C663.559 470.081 664.084 469.555 664.609 469.752C665.134 469.949 666.644 468.702 668.284 466.799C669.859 465.027 672.746 461.812 674.781 459.778C678.324 456.103 679.44 454.2 685.018 441.928C687.315 436.941 691.514 430.969 692.236 431.626C692.367 431.757 691.711 434.251 690.792 437.072C688.955 442.716 685.937 448.819 685.871 446.982C685.871 445.407 684.559 445.538 684.559 447.178C684.559 447.9 684.821 448.491 685.149 448.491C685.411 448.491 684.624 450.984 683.377 454.003C681.474 458.465 680.621 459.712 678.783 460.696C677.602 461.353 674.518 464.437 672.024 467.587C666.512 474.543 661.262 479.465 655.028 483.599C648.532 487.93 638.032 492.983 633.241 494.098C628.517 495.148 626.745 496.723 626.613 499.742C626.483 501.514 626.81 502.039 628.188 502.498C630.42 503.351 633.373 501.908 637.966 497.642C642.363 493.573 644.201 492.72 650.107 492.13C656.078 491.539 658.572 490.096 665.856 482.615C669.137 479.333 673.009 475.855 674.584 474.937C676.093 474.018 677.865 472.378 678.456 471.196C680.687 466.799 683.508 463.387 685.543 462.534C687.512 461.747 688.036 460.893 690.333 454.922C693.418 447.112 695.058 439.763 695.058 434.054C695.058 430.51 694.927 430.116 693.68 430.116C692.564 430.116 692.367 429.788 692.564 427.688C692.827 424.407 693.942 424.276 695.977 427.295C697.617 429.657 697.683 430.182 697.683 439.041C697.683 447.375 697.552 448.425 696.371 449.475C694.993 450.722 693.352 455.119 692.696 459.515C692.367 461.418 691.974 462.206 691.449 462.009C690.989 461.878 689.283 463.387 687.577 465.421C681.08 473.559 677.537 477.365 674.387 479.727C672.615 481.105 669.99 483.468 668.546 485.043C665.265 488.718 660.212 492.392 657.391 493.18C655.75 493.639 654.962 494.361 654.438 495.87C652.403 501.711 647.678 504.861 640.197 505.385C635.472 505.779 635.342 505.845 635.342 507.485C635.342 509.586 636.457 510.832 638.295 510.832C640.985 510.832 650.369 505.582 656.472 500.661C661.262 496.789 663.034 495.739 664.675 495.739C666.25 495.739 667.562 495.083 669.4 493.442C670.778 492.195 672.418 491.145 673.009 491.145C673.599 491.145 674.059 490.752 674.059 490.227C674.059 488.586 676.749 485.895 680.031 484.255C681.802 483.336 683.64 481.958 684.099 481.105C684.624 480.318 686.002 478.021 687.183 475.921C688.365 473.887 690.071 471.918 690.924 471.524C691.908 471.065 692.433 470.277 692.433 469.096C692.433 468.046 693.418 466.275 694.993 464.503C699.914 458.925 702.933 447.769 702.933 435.432V429.067L699.848 426.048C698.077 424.342 695.583 422.504 694.271 421.913C691.318 420.732 691.121 420.732 690.858 421.716Z" fill="black" fill-opacity="0.9"/>
<path d="M590.521 421.979C590.259 422.242 590.062 423.029 590.062 423.685C590.062 424.539 589.602 424.866 588.421 424.866C587.174 424.866 586.715 425.326 586.387 426.638C585.796 429.591 585.534 430.116 584.878 430.116C584.55 430.116 584.025 429.526 583.828 428.804C583.631 428.082 582.975 427.492 582.45 427.492C581.334 427.492 581.137 433.069 582.187 433.725C582.581 433.922 582.843 433.529 582.843 432.807C582.843 431.691 583.106 431.626 584.681 432.085C587.896 433.004 591.768 430.576 593.212 426.77C593.737 425.392 593.605 424.735 592.49 423.291C591.702 422.307 590.784 421.716 590.521 421.979Z" fill="black" fill-opacity="0.9"/>
<path d="M749.525 424.998C749.591 430.576 750.903 437.86 753.79 448.491C755.365 454.463 757.465 464.043 758.384 469.752C760.222 480.711 761.862 486.289 763.897 488.127C766.39 490.358 766.193 487.077 763.371 478.874C762.649 476.643 761.993 473.821 761.993 472.64C761.993 471.459 761.403 468.899 760.681 466.996C758.384 460.959 756.875 454.593 754.119 439.304C752.675 431.166 751.297 424.013 751.1 423.357C750.444 421.257 749.525 422.242 749.525 424.998Z" fill="black" fill-opacity="0.9"/>
<path d="M623.923 427.885C623.267 428.804 622.217 431.626 621.561 434.251C620.773 437.532 620.248 438.647 619.92 437.794C619.264 436.154 617.164 436.416 616.705 438.122C616.508 438.975 614.998 440.485 613.358 441.469C610.405 443.372 609.42 445.078 609.88 447.9C610.011 449.081 610.405 449.409 611.389 449.278C613.883 448.884 617.951 445.537 619.395 442.65C620.183 441.075 621.429 439.107 622.151 438.385C623.726 436.678 628.123 427.36 627.729 426.704C627.007 425.588 624.973 426.244 623.923 427.885Z" fill="black" fill-opacity="0.9"/>
<path d="M654.372 428.804C653.913 429.657 651.288 432.741 648.466 435.76C645.644 438.779 643.019 442.191 642.56 443.503C642.101 445.013 641.379 445.866 640.46 445.997C638.36 446.325 636.195 449.541 637.047 450.984C638.098 452.559 640.132 452.362 640.919 450.591C641.248 449.803 642.101 449.147 642.757 449.147C643.479 449.147 644.398 448.163 645.119 446.522C645.776 445.078 646.497 444.094 646.76 444.356C647.285 444.947 654.832 437.597 656.078 435.235C657.194 433.069 657.194 430.904 656.078 428.87L655.225 427.295L654.372 428.804Z" fill="black" fill-opacity="0.9"/>
<path d="M631.142 430.707C629.698 433.398 629.829 434.054 631.732 434.054C633.504 434.054 633.898 433.529 634.161 430.772C634.423 428.345 632.389 428.279 631.142 430.707Z" fill="black" fill-opacity="0.9"/>
<path d="M592.161 435.694C591.702 436.678 591.112 438.844 590.915 440.55C590.521 443.307 590.587 443.503 591.571 442.65C593.08 441.469 594.261 436.81 593.54 435.169C593.015 433.988 592.883 434.054 592.161 435.694Z" fill="black" fill-opacity="0.9"/>
<path d="M627.729 434.579C626.679 435.235 625.498 437.729 625.498 439.238C625.498 441.994 628.845 440.091 629.632 436.875C629.96 435.3 628.845 433.857 627.729 434.579Z" fill="black" fill-opacity="0.9"/>
<path d="M632.716 439.631C631.863 441.928 631.863 446.325 632.782 446.85C633.897 447.572 634.291 446.719 634.554 442.65C634.882 438.45 633.832 436.744 632.716 439.631Z" fill="black" fill-opacity="0.9"/>
<path d="M586.518 440.879C586.059 442.716 587.043 445.866 588.093 445.866C589.077 445.866 588.684 439.828 587.699 439.501C587.24 439.369 586.781 439.96 586.518 440.879Z" fill="black" fill-opacity="0.9"/>
<path d="M598.068 442.257C595.902 444.619 595.049 446.916 595.443 448.819C595.574 449.738 596.296 449.409 599.118 447.112C602.005 444.685 602.53 443.897 602.399 442.257C602.136 439.5 600.496 439.5 598.068 442.257Z" fill="black" fill-opacity="0.9"/>
<path d="M628.517 442.585C626.286 443.307 624.251 445.013 623.529 446.916C623.136 447.835 622.151 448.491 620.642 448.753C617.623 449.344 613.358 452.231 605.614 459.056C599.577 464.306 599.38 464.568 601.086 464.897C606.008 465.946 612.57 462.797 618.739 456.562C621.364 453.937 623.857 451.772 624.382 451.772C624.842 451.772 626.22 451.05 627.467 450.131C628.713 449.213 630.026 448.491 630.354 448.491C630.748 448.491 631.076 447.047 631.076 445.21C631.076 443.372 630.944 441.929 630.748 441.994C630.551 441.994 629.566 442.322 628.517 442.585Z" fill="black" fill-opacity="0.9"/>
<path d="M695.058 446.194C695.058 447.441 695.386 448.491 695.714 448.491C696.108 448.491 696.371 447.441 696.371 446.194C696.371 444.947 696.108 443.897 695.714 443.897C695.386 443.897 695.058 444.947 695.058 446.194Z" fill="black" fill-opacity="0.9"/>
<path d="M769.212 446.194C768.555 446.982 768.687 448.294 770.196 453.544C771.115 457.087 772.493 461.025 773.215 462.271L774.527 464.568L774.265 460.172C774.002 456.825 773.477 454.987 771.837 452.1C770.13 449.081 769.868 448.294 770.59 447.441C771.115 446.785 771.181 446.26 770.721 445.8C770.262 445.341 769.803 445.472 769.212 446.194Z" fill="black" fill-opacity="0.9"/>
<path d="M601.808 450.656C596.296 455.841 593.868 458.99 595.443 458.99C597.018 458.99 606.074 454.397 607.911 452.625C609.289 451.313 609.617 450.525 609.289 449.213C608.896 447.375 607.911 445.866 607.189 445.866C606.993 445.931 604.564 448.031 601.808 450.656Z" fill="black" fill-opacity="0.9"/>
<path d="M590.718 451.772C590.718 455.709 591.505 455.971 592.687 452.494C593.54 449.803 593.212 448.49 591.637 448.49C590.98 448.49 590.718 449.344 590.718 451.772Z" fill="black" fill-opacity="0.9"/>
<path d="M633.832 452.756C632.519 453.937 631.535 454.266 630.42 454.003C629.239 453.741 628.779 453.937 628.451 454.987C628.123 456.038 627.467 456.365 625.957 456.365C623.398 456.365 621.954 457.284 615.72 463.059C612.898 465.684 610.011 467.784 608.961 467.981C606.599 468.44 606.139 469.425 606.927 472.509L607.452 474.871L610.733 471.984C615.458 467.784 630.42 457.022 631.601 457.022C631.732 457.022 631.666 458.072 631.535 459.318C631.141 462.534 632.192 462.206 634.291 458.334C635.276 456.562 636.523 454.79 637.113 454.528C637.901 454.069 637.966 453.675 637.376 452.494C636.391 450.788 636.129 450.788 633.832 452.756Z" fill="black" fill-opacity="0.9"/>
<path d="M585.665 453.412C585.468 454.003 585.468 454.593 585.665 454.79C586.256 455.381 587.437 454.397 587.437 453.347C587.437 452.1 586.19 452.166 585.665 453.412Z" fill="black" fill-opacity="0.9"/>
<path d="M718.682 453.478C718.682 454.134 717.042 459.384 715.073 465.224C713.105 471.13 711.464 476.249 711.464 476.709C711.464 477.168 710.611 478.611 709.626 479.924C708.577 481.237 706.28 484.78 704.508 487.799C702.736 490.817 699.258 495.345 696.83 497.839C692.761 501.973 689.874 506.501 689.808 508.732C689.808 509.782 696.371 504.795 700.636 500.595C703.983 497.248 706.542 492.72 707.264 488.914C707.526 487.273 708.577 485.502 710.086 483.993C711.661 482.418 713.629 478.874 715.992 473.493C720.389 463.452 721.307 460.369 721.307 455.906C721.307 452.888 721.176 452.428 719.995 452.428C719.208 452.428 718.682 452.888 718.682 453.478Z" fill="black" fill-opacity="0.9"/>
<path d="M581.006 455.775C581.137 457.022 581.531 457.94 581.859 457.809C582.843 457.612 582.646 454.2 581.662 453.872C581.006 453.675 580.809 454.2 581.006 455.775Z" fill="black" fill-opacity="0.9"/>
<path d="M744.669 463.649C744.013 466.996 744.21 471.393 745.26 477.693C745.85 480.908 746.506 486.617 746.835 490.293C747.163 493.967 747.622 497.248 747.884 497.642C749.722 500.727 750.116 490.489 748.475 479.005C747.95 475.002 747.36 469.818 747.097 467.39C746.638 462.337 745.325 460.303 744.669 463.649Z" fill="black" fill-opacity="0.9"/>
<path d="M592.096 464.896C591.177 467.915 591.177 468.177 592.031 468.177C592.424 468.177 592.687 467.718 592.687 467.128C592.687 466.275 593.146 466.143 595.312 466.537C597.674 466.931 597.937 466.865 597.937 465.618C597.937 464.831 597.543 464.24 597.149 464.24C596.69 464.24 595.509 463.846 594.59 463.322C592.884 462.468 592.818 462.468 592.096 464.896Z" fill="black" fill-opacity="0.9"/>
<path d="M627.335 463.387C626.745 464.043 626.023 465.224 625.629 465.946C625.235 466.734 623.989 467.521 622.807 467.784C618.936 468.571 614.998 471.393 613.686 474.28C613.03 475.79 612.505 477.102 612.636 477.168C612.833 477.43 624.645 471.13 625.957 470.015C627.532 468.702 630.748 463.452 630.354 462.862C629.763 461.944 628.385 462.206 627.335 463.387Z" fill="black" fill-opacity="0.9"/>
<path d="M634.554 463.912C633.11 465.356 631.404 469.359 631.404 471.393C631.404 472.443 637.507 467.653 638.491 465.749C640.329 462.337 637.441 460.959 634.554 463.912Z" fill="black" fill-opacity="0.9"/>
<path d="M586.453 464.175C583.696 464.765 583.368 467.587 585.796 469.228C586.781 469.884 587.699 470.081 588.028 469.752C588.749 468.965 589.537 463.584 588.946 463.649C588.618 463.715 587.568 463.912 586.453 464.175Z" fill="black" fill-opacity="0.9"/>
<path d="M767.046 468.571C766.521 469.096 767.177 472.181 767.899 472.968C768.555 473.69 769.474 469.752 768.884 468.834C768.424 468.112 767.637 467.98 767.046 468.571Z" fill="black" fill-opacity="0.9"/>
<path d="M601.874 470.146C601.349 470.474 600.365 470.606 599.774 470.409C598.855 470.146 598.593 470.474 598.593 471.984C598.593 474.477 597.937 475.002 596.821 473.427C595.64 471.721 595.377 471.787 592.884 474.149C589.537 477.233 589.996 478.021 594.918 478.021C602.071 478.021 605.746 475.79 605.286 471.787C605.024 469.424 603.908 468.834 601.874 470.146Z" fill="black" fill-opacity="0.9"/>
<path d="M628.254 471.59C627.139 472.705 627.27 474.74 628.451 474.74C629.567 474.74 631.011 472.378 630.42 471.459C629.895 470.606 629.239 470.606 628.254 471.59Z" fill="black" fill-opacity="0.9"/>
<path d="M624.054 476.184C622.873 477.365 622.217 478.808 622.217 479.989C622.217 482.155 622.414 482.286 624.185 481.302C625.629 480.515 627.335 475.658 626.416 474.805C626.089 474.477 625.038 475.068 624.054 476.184Z" fill="black" fill-opacity="0.9"/>
<path d="M616.639 481.237C616.049 482.418 615.917 483.336 616.311 483.599C617.033 484.058 619.592 482.812 619.592 481.958C619.592 481.696 619.789 480.974 619.986 480.383C620.773 478.349 617.755 479.202 616.639 481.237Z" fill="black" fill-opacity="0.9"/>
<path d="M627.073 480.974C626.876 481.893 626.81 482.811 627.007 483.008C627.664 483.664 628.779 482.549 628.779 481.302C628.779 479.333 627.532 479.136 627.073 480.974Z" fill="black" fill-opacity="0.9"/>
<path d="M610.471 480.58C608.961 480.974 607.649 483.074 608.239 484.058C608.567 484.714 611.127 484.714 612.177 484.058C612.57 483.796 613.161 482.746 613.358 481.761C613.883 479.859 613.489 479.727 610.471 480.58Z" fill="black" fill-opacity="0.9"/>
<path d="M606.205 481.63C605.943 482.418 605.549 482.549 604.565 481.958C603.646 481.499 603.121 481.499 602.858 481.958C602.005 483.336 603.121 484.583 605.155 484.583C606.927 484.583 607.124 484.387 607.124 482.615C607.124 480.449 606.796 480.121 606.205 481.63Z" fill="black" fill-opacity="0.9"/>
<path d="M597.281 483.205C596.231 485.239 596.493 487.208 597.806 487.208C599.512 487.208 600.562 485.895 600.562 483.796C600.562 482.418 600.234 481.958 599.249 481.958C598.593 481.958 597.674 482.549 597.281 483.205Z" fill="black" fill-opacity="0.9"/>
<path d="M592.687 484.583C592.687 485.436 593.015 485.765 593.671 485.502C594.196 485.239 594.655 484.714 594.655 484.19C594.655 483.664 594.196 483.271 593.671 483.271C593.146 483.271 592.687 483.861 592.687 484.583Z" fill="black" fill-opacity="0.9"/>
<path d="M741.388 492.589C741.06 496.526 740.338 498.758 737.319 505.123C735.285 509.389 733.776 512.998 733.973 513.195C734.563 513.785 736.794 512.276 737.975 510.504C738.631 509.52 739.157 507.42 739.222 505.845C739.288 504.27 739.55 502.957 739.879 502.957C740.141 502.957 740.928 501.973 741.65 500.792C742.635 499.217 742.963 497.511 742.963 494.098C742.963 487.602 741.978 486.683 741.388 492.589Z" fill="black" fill-opacity="0.9"/>
<path d="M609.88 490.226C610.011 491.211 610.47 492.13 610.93 492.327C611.586 492.523 611.783 492.064 611.586 490.752C611.455 489.767 610.995 488.848 610.536 488.652C609.88 488.455 609.683 488.914 609.88 490.226Z" fill="black" fill-opacity="0.9"/>
<path d="M615.261 489.439C614.736 490.883 615.195 493.311 616.179 493.639C616.704 493.77 616.967 493.049 616.967 491.211C616.967 488.586 615.983 487.602 615.261 489.439Z" fill="black" fill-opacity="0.9"/>
<path d="M619.986 489.571C619.395 491.146 619.526 493.77 620.248 493.77C621.101 493.77 622.217 491.539 622.217 489.899C622.217 488.258 620.576 488.061 619.986 489.571Z" fill="black" fill-opacity="0.9"/>
<path d="M601.611 490.883C600.955 492.655 601.152 493.77 602.202 493.77C602.793 493.77 603.186 493.18 603.186 492.195C603.186 490.227 602.202 489.439 601.611 490.883Z" fill="black" fill-opacity="0.9"/>
<path d="M596.361 492.195C596.099 492.786 596.099 493.442 596.296 493.639C596.69 494.033 598.593 492.458 598.593 491.736C598.593 490.686 596.755 491.08 596.361 492.195Z" fill="black" fill-opacity="0.9"/>
<path d="M725.901 494.951C725.901 495.411 724.326 497.511 722.357 499.611C719.207 503.023 717.239 507.026 718.223 508.01C718.879 508.601 722.029 506.042 723.866 503.351C726.098 500.07 727.476 495.739 726.557 494.82C726.098 494.361 725.901 494.427 725.901 494.951Z" fill="black" fill-opacity="0.9"/>
<path d="M644.791 496.329C642.953 497.445 639.935 500.923 639.935 501.908C639.935 502.432 647.875 501.579 649.188 500.923C649.778 500.595 650.631 499.479 650.96 498.364C651.55 496.723 651.485 496.329 650.434 495.739C648.597 494.755 647.088 494.951 644.791 496.329Z" fill="black" fill-opacity="0.9"/>
<path d="M622.348 498.101C620.642 499.283 620.445 502.17 621.954 502.761C623.267 503.286 624.842 501.383 624.842 499.283C624.842 497.248 624.054 496.92 622.348 498.101Z" fill="black" fill-opacity="0.9"/>
<path d="M667.694 498.626C665.659 499.611 665.463 504.27 667.431 504.27C669.072 504.27 670.778 501.842 670.778 499.545C670.778 497.577 670.121 497.38 667.694 498.626Z" fill="black" fill-opacity="0.9"/>
<path d="M611.52 499.939C610.864 501.579 610.93 504.27 611.652 504.27C612.505 504.27 613.03 501.711 612.439 500.136C611.98 498.955 611.914 498.889 611.52 499.939Z" fill="black" fill-opacity="0.9"/>
<path d="M731.282 499.808C730.166 500.923 730.297 504.27 731.413 504.27C732.463 504.27 733.119 502.892 733.119 500.595C733.119 498.889 732.463 498.626 731.282 499.808Z" fill="black" fill-opacity="0.9"/>
<path d="M615.654 501.579C615.654 502.301 615.983 503.089 616.311 503.286C616.704 503.548 616.967 502.958 616.967 502.039C616.967 501.12 616.704 500.333 616.311 500.333C615.983 500.333 615.654 500.923 615.654 501.579Z" fill="black" fill-opacity="0.9"/>
<path d="M660.606 502.957C659.556 503.679 657.85 505.32 656.8 506.698C655.094 508.995 655.028 509.257 656.078 509.979C657.587 511.095 657.587 511.095 661.065 509.52C663.69 508.404 664.084 507.879 664.478 505.779C664.675 504.401 664.872 502.892 664.872 502.432C664.872 501.251 662.837 501.448 660.606 502.957Z" fill="black" fill-opacity="0.9"/>
<path d="M631.732 506.436C631.076 508.076 631.667 510.504 632.716 510.504C634.095 510.504 634.291 508.47 633.11 506.763C632.257 505.582 632.06 505.517 631.732 506.436Z" fill="black" fill-opacity="0.9"/>
<path d="M597.149 508.47C595.705 511.685 599.38 513.392 605.286 512.276C607.517 511.817 608.83 511.882 610.011 512.473C611.848 513.457 612.373 513.195 612.373 511.161C612.373 508.273 610.667 507.748 606.467 509.323C602.596 510.701 602.596 510.701 601.414 509.389C599.183 506.895 598.002 506.698 597.149 508.47Z" fill="black" fill-opacity="0.9"/>
<path d="M625.629 507.879C622.873 509.06 623.201 510.438 626.286 510.701C628.123 510.832 628.91 510.57 629.698 509.389C630.288 508.601 630.748 507.682 630.748 507.42C630.748 506.567 627.991 506.829 625.629 507.879Z" fill="black" fill-opacity="0.9"/>
<path d="M619.986 509.192C619.789 509.716 619.132 510.176 618.542 510.176C617.098 510.176 617.754 511.751 619.395 512.013C620.97 512.276 622.479 510.57 621.954 509.192C621.495 507.945 620.511 507.945 619.986 509.192Z" fill="black" fill-opacity="0.9"/>
<path d="M673.403 509.52C673.403 510.242 673.731 510.832 674.059 510.832C674.452 510.832 674.715 510.242 674.715 509.52C674.715 508.798 674.452 508.207 674.059 508.207C673.731 508.207 673.403 508.798 673.403 509.52Z" fill="black" fill-opacity="0.9"/>
<path d="M685.674 510.045C684.493 511.292 683.902 512.539 684.034 513.523L684.231 514.967L686.068 513.392C687.512 512.21 687.906 511.292 687.709 509.913L687.512 508.076L685.674 510.045Z" fill="black" fill-opacity="0.9"/>
<path d="M648.597 510.832C647.416 511.554 646.103 512.866 645.71 513.785C645.054 515.229 644.922 515.295 644.201 514.31C642.757 512.342 641.248 513.72 641.248 517.067C641.248 520.544 642.757 521.201 644.069 518.182C644.594 516.935 645.25 516.476 646.038 516.607C648.4 517.067 650.5 516.016 652.403 513.326C653.519 511.882 654.372 510.373 654.372 510.045C654.372 509.06 650.763 509.52 648.597 510.832Z" fill="black" fill-opacity="0.9"/>
<path d="M614.342 511.291C614.342 512.079 614.67 512.932 614.998 513.129C615.852 513.654 615.852 512.145 614.998 510.832C614.474 510.045 614.342 510.11 614.342 511.291Z" fill="black" fill-opacity="0.9"/>
<path d="M664.544 513.457C664.084 514.835 665.266 517.657 666.118 517.132C666.775 516.738 666.184 512.145 665.528 512.145C665.2 512.145 664.806 512.736 664.544 513.457Z" fill="black" fill-opacity="0.9"/>
<path d="M743.619 513.588C743.619 514.048 743.947 514.901 744.275 515.426C744.8 516.213 744.931 516.148 744.931 514.966C744.931 514.179 744.669 513.326 744.275 513.129C743.947 512.932 743.619 513.129 743.619 513.588Z" fill="black" fill-opacity="0.9"/>
<path d="M730.626 514.966C728.723 517.001 728.788 517.919 730.823 517.526C731.741 517.394 732.463 516.87 732.463 516.41C732.463 515.885 732.66 515.098 732.857 514.507C733.448 512.998 732.266 513.26 730.626 514.966Z" fill="black" fill-opacity="0.9"/>
<path d="M660.54 515.098C660.278 515.754 659.228 516.082 657.259 516.082C653.453 516.082 649.384 517.788 647.809 520.02C644.856 524.154 646.694 524.941 653.059 522.382C655.159 521.529 657.85 520.61 658.9 520.347C660.409 520.02 660.934 519.56 660.934 518.51C660.934 517.723 661.525 516.673 662.246 516.213C663.034 515.754 663.428 515.098 663.231 514.77C662.64 513.785 660.934 513.982 660.54 515.098Z" fill="black" fill-opacity="0.9"/>
<path d="M690.53 515.819C689.02 517.788 688.693 520.02 690.005 520.02C691.646 519.954 694.336 516.935 693.942 515.492C693.483 513.654 692.17 513.785 690.53 515.819Z" fill="black" fill-opacity="0.9"/>
<path d="M635.21 515.492C633.504 516.476 633.767 517.591 636.063 518.904C638.557 520.282 639.279 519.888 639.279 517.001C639.279 515.098 639.082 514.77 637.835 514.77C636.982 514.77 635.801 515.098 635.21 515.492Z" fill="black" fill-opacity="0.9"/>
<path d="M679.112 515.229C678.062 516.213 678.718 517.46 680.096 517.263C681.999 517.001 682.59 514.77 680.752 514.77C680.096 514.77 679.309 514.966 679.112 515.229Z" fill="black" fill-opacity="0.9"/>
<path d="M674.715 519.823C674.715 521.463 675.699 522.316 676.355 521.266C676.618 520.873 676.355 520.085 675.765 519.494C674.781 518.51 674.715 518.51 674.715 519.823Z" fill="black" fill-opacity="0.9"/>
<path d="M698.536 519.495C698.142 519.954 697.683 520.873 697.486 521.463C697.158 522.382 697.42 522.644 698.602 522.644C700.111 522.644 700.964 521.529 700.964 519.626C700.964 518.51 699.389 518.445 698.536 519.495Z" fill="black" fill-opacity="0.9"/>
<path d="M617.296 520.676C617.099 521.004 617.23 521.922 617.624 522.71C618.345 524.022 618.411 524.022 619.264 522.841C619.789 522.185 620.249 521.266 620.249 520.807C620.249 519.888 617.886 519.757 617.296 520.676Z" fill="black" fill-opacity="0.9"/>
<path d="M683.574 521.332C682.918 522.054 681.999 522.644 681.474 522.644C680.49 522.644 680.358 524.482 681.212 525.86C681.671 526.582 682.327 526.385 684.493 524.678C687.315 522.447 688.102 520.02 686.002 520.02C685.28 520.02 684.23 520.61 683.574 521.332Z" fill="black" fill-opacity="0.9"/>
<path d="M669.99 522.973C668.481 524.941 668.481 526.779 669.924 526.45C671.171 526.188 672.484 522.776 671.696 521.988C671.368 521.66 670.581 522.119 669.99 522.973Z" fill="black" fill-opacity="0.9"/>
<path d="M660.081 525.072C659.294 525.794 659.556 526.582 660.606 526.582C661.131 526.582 661.591 526.123 661.591 525.597C661.591 524.548 660.803 524.285 660.081 525.072Z" fill="black" fill-opacity="0.9"/>
</svg>
