<svg width="1920" height="931" viewBox="0 0 1920 931" fill="none" xmlns="http://www.w3.org/2000/svg">
<path d="M959.975 279.993C959.188 281.175 958.695 282.454 958.991 282.848C959.68 284.029 964.799 281.962 966.866 279.698C968.539 277.926 968.44 277.828 964.996 277.828C962.534 277.828 961.058 278.418 959.975 279.993Z" fill="black" fill-opacity="0.9"/>
<path d="M931.528 283.143C931.232 283.93 931.331 284.915 931.823 285.21C933.103 285.998 934.185 283.734 933.004 282.552C932.414 281.962 931.922 282.159 931.528 283.143Z" fill="black" fill-opacity="0.9"/>
<path d="M948.065 284.127C940.584 287.08 933.3 290.723 926.114 295.25C917.157 300.96 892.45 318.579 892.942 318.973C894.024 320.056 900.029 317.497 907.412 312.772C911.94 309.917 917.649 306.866 920.11 306.078C923.555 304.897 924.441 304.11 924.441 302.338C924.441 300.271 925.13 299.877 929.264 299.286C931.823 298.893 936.253 297.514 939.009 296.136C946.392 292.593 958.4 281.568 954.758 281.765C954.266 281.863 951.313 282.848 948.065 284.127Z" fill="black" fill-opacity="0.9"/>
<path d="M996.987 283.438C997.184 284.62 998.168 285.21 999.742 285.21C1001.32 285.21 1002.3 284.62 1002.5 283.438C1002.79 282.159 1002.2 281.765 999.742 281.765C997.282 281.765 996.691 282.159 996.987 283.438Z" fill="black" fill-opacity="0.9"/>
<path d="M921.487 288.262C919.617 290.132 920.011 290.919 922.373 290.033C923.259 289.738 923.949 288.852 923.949 288.065C923.949 286.293 923.456 286.293 921.487 288.262Z" fill="black" fill-opacity="0.9"/>
<path d="M959.877 290.624C955.054 292.199 949.148 293.971 946.884 294.562C944.325 295.152 942.553 296.333 942.159 297.515C941.175 300.566 936.352 304.011 929.067 306.768C923.949 308.736 921.094 310.606 917.551 314.347C913.909 318.186 910.07 320.647 899.931 325.568C886.839 331.967 879.654 336.888 879.654 339.448C879.654 341.318 879.85 341.219 886.051 338.266C889.004 336.888 893.04 335.51 895.108 335.215C897.47 334.821 900.325 333.345 902.884 330.982C905.148 328.915 909.184 326.553 912.235 325.568C921.192 322.615 924.54 320.45 930.446 313.756C936.45 306.964 941.175 303.421 944.128 303.421C945.112 303.421 947.868 301.649 950.231 299.385C955.349 294.66 959.877 292.593 965.094 292.593C967.555 292.593 969.524 291.904 970.508 290.821C974.15 286.785 971.886 286.785 959.877 290.624Z" fill="black" fill-opacity="0.9"/>
<path d="M979.564 294.66C975.627 295.546 972.772 298.007 973.756 299.582C974.051 300.074 975.725 300.467 977.595 300.467C979.957 300.467 981.434 299.778 982.91 297.908C984.977 295.25 985.568 293.479 984.289 293.676C983.796 293.774 981.729 294.168 979.564 294.66Z" fill="black" fill-opacity="0.9"/>
<path d="M986.946 295.546C986.946 297.121 987.635 297.515 990.392 297.515C993.148 297.515 993.836 297.121 993.836 295.546C993.836 293.971 993.148 293.577 990.392 293.577C987.635 293.577 986.946 293.971 986.946 295.546Z" fill="black" fill-opacity="0.9"/>
<path d="M1004.07 295.054C1004.37 295.939 1004.66 296.924 1004.66 297.121C1004.66 297.318 1005.35 297.514 1006.24 297.514C1008.41 297.514 1007.52 294.168 1005.25 293.774C1003.88 293.479 1003.58 293.774 1004.07 295.054Z" fill="black" fill-opacity="0.9"/>
<path d="M968.54 298.991C968.244 299.877 968.244 300.763 968.54 301.058C969.425 301.944 971.197 300.467 971.197 298.893C971.197 297.022 969.327 297.121 968.54 298.991Z" fill="black" fill-opacity="0.9"/>
<path d="M957.023 303.027C956.432 304.503 958.696 307.26 960.665 307.358C961.748 307.358 961.452 303.913 960.172 302.633C958.597 301.058 957.712 301.157 957.023 303.027Z" fill="black" fill-opacity="0.9"/>
<path d="M985.863 302.436C975.528 302.929 975.429 302.929 972.772 306.078C970.803 308.342 969.228 309.327 967.161 309.327C965.586 309.327 962.633 309.917 960.664 310.705C958.597 311.492 951.903 313.756 945.702 315.725C938.91 317.792 931.725 320.942 927.492 323.501C923.653 325.864 919.42 328.128 918.043 328.521C916.664 328.915 913.81 330.884 911.644 332.852C909.479 334.92 905.836 337.085 903.573 337.774C901.21 338.365 898.454 340.137 896.977 341.81C895.206 343.976 893.631 344.763 891.466 344.763C889.201 344.763 888.217 345.255 887.823 346.633C887.528 347.618 885.264 349.783 882.803 351.456C880.244 353.13 876.897 355.788 875.224 357.56L872.271 360.611L876.7 359.922C883.984 358.839 886.544 356.969 886.544 352.933C886.544 350.964 886.741 350.866 889.004 351.85C892.154 353.228 895.993 351.555 905.246 344.763C908.789 342.204 913.121 339.349 914.893 338.463C916.96 337.38 918.043 336.101 918.043 334.821C918.043 333.049 918.239 332.951 919.519 333.935C920.7 334.92 921.389 334.92 922.177 334.132C922.866 333.443 924.145 332.951 925.031 332.951C925.917 332.951 930.544 330.49 935.367 327.537C944.029 322.025 956.825 317.201 962.436 317.201C964.11 317.201 966.866 316.119 968.539 314.839C971.788 312.378 979.17 309.622 988.915 307.358C994.427 305.98 997.282 304.307 996.691 302.732C996.494 302.338 991.573 302.141 985.863 302.436Z" fill="black" fill-opacity="0.9"/>
<path d="M999.742 302.436C999.742 302.928 1000.33 303.421 1001.12 303.421C1001.91 303.421 1002.89 302.928 1003.19 302.436C1003.48 301.846 1002.89 301.452 1001.81 301.452C1000.63 301.452 999.742 301.846 999.742 302.436Z" fill="black" fill-opacity="0.9"/>
<path d="M945.997 305.389C944.029 306.177 939.304 311.295 939.993 311.886C940.584 312.476 952.593 308.539 954.168 307.259C955.447 306.078 955.447 305.881 953.774 305.291C951.412 304.306 948.557 304.306 945.997 305.389Z" fill="black" fill-opacity="0.9"/>
<path d="M1005.55 307.358C997.675 308.736 991.376 313.166 992.065 316.808C992.36 318.383 992.754 318.284 994.919 315.922L997.38 313.166L999.251 315.233C1001.61 317.792 1001.91 317.792 1009.39 314.051L1015.79 311L1023.07 312.772L1030.36 314.642L1032.92 311.984L1035.57 309.425L1032.62 308.244C1029.08 306.866 1011.55 306.177 1005.55 307.358Z" fill="black" fill-opacity="0.9"/>
<path d="M971.295 318.875C961.452 321.729 949.935 325.47 945.702 327.143C936.647 330.785 925.917 337.38 920.405 342.597C917.748 345.255 915.483 346.436 913.712 346.436C911.842 346.436 909.577 347.815 906.427 350.866C903.868 353.326 895.206 359.627 887.036 364.942C872.172 374.588 868.53 377.345 857.014 387.09C849.434 393.487 849.139 393.783 849.139 396.736C849.139 400.181 852.19 399.098 854.553 394.768C856.128 391.815 857.604 390.732 862.132 389.058C865.184 387.976 869.121 385.711 870.696 384.137C872.271 382.463 874.633 381.184 875.815 381.184C878.964 381.184 883.788 377.148 887.528 371.439C889.201 368.682 891.17 366.419 891.859 366.419C894.812 366.419 903.967 360.906 915.582 352.244C932.611 339.349 935.662 337.774 953.774 331.868C962.338 329.112 970.902 325.765 972.772 324.485C978.678 320.45 982.123 318.973 984.387 319.564C987.242 320.253 990.195 318.087 989.702 315.626C989.407 313.756 988.62 313.855 971.295 318.875Z" fill="black" fill-opacity="0.9"/>
<path d="M1021.3 319.17C1018.25 319.662 1010.57 321.335 1004.07 323.009C997.675 324.584 989.899 326.159 986.946 326.552C981.138 327.34 977.201 328.915 975.232 331.376C974.051 332.754 974.347 332.951 977.792 332.951C979.957 332.951 989.211 331.573 998.365 329.801C1012.93 327.045 1017.07 326.651 1031.73 326.651C1046.5 326.651 1049.16 326.848 1054.18 328.718C1059.69 330.884 1059.79 330.884 1059.79 328.915C1059.79 327.832 1059 326.749 1058.11 326.356C1057.13 326.06 1053.29 324.288 1049.45 322.418C1043.84 319.761 1041.08 319.071 1034.69 318.678C1030.36 318.481 1024.35 318.678 1021.3 319.17Z" fill="black" fill-opacity="0.9"/>
<path d="M1019.23 331.966C1017.76 332.36 1014.11 334.132 1011.26 335.805C1005.45 339.152 1002.5 339.447 994.919 337.676C990.194 336.593 989.702 336.691 987.537 338.758C985.765 340.432 984.288 340.826 981.434 340.629C977.89 340.333 977.595 340.53 977.299 343.188L976.906 346.043L982.517 345.353C985.667 345.058 998.168 342.696 1010.47 340.333C1041.18 334.23 1042.86 334.034 1046.6 337.183C1048.27 338.66 1051.42 340.038 1053.68 340.432C1057.82 341.121 1062.74 340.333 1062.74 339.054C1062.74 337.873 1055.65 334.23 1050.04 332.557C1044.23 330.884 1024.15 330.49 1019.23 331.966Z" fill="black" fill-opacity="0.9"/>
<path d="M960.566 335.412C937.926 341.219 906.821 361.103 886.839 382.561C883 386.597 879.949 389.058 878.571 389.058C877.389 389.058 874.436 391.224 871.483 394.177C868.629 397.031 864.199 400.969 861.443 402.839C858.785 404.709 855.635 407.859 854.553 409.828C852.879 412.879 852.289 413.273 850.812 412.289C849.336 411.403 848.647 411.698 846.678 413.863C844.119 416.816 839.984 426.956 840.477 429.121C840.674 430.007 844.414 427.054 850.123 421.541C860.557 411.305 872.763 401.362 885.461 392.503C891.957 387.877 894.517 385.416 896.584 381.675C898.061 379.018 900.718 375.573 902.49 374.096C908.79 368.781 928.575 356.772 946.884 347.125C962.338 338.955 972.28 332.951 970.212 333.049C969.917 333.049 965.587 334.132 960.566 335.412Z" fill="black" fill-opacity="0.9"/>
<path d="M1020.41 343.778C1020.41 345.452 1025.14 349.684 1028.58 351.161C1033.8 353.326 1041.68 354.016 1044.92 352.637C1047.58 351.554 1048.17 351.752 1051.22 354.016C1056.64 358.15 1078.39 365.828 1080.06 364.154C1081.25 362.973 1078.29 359.528 1076.03 359.528C1074.16 359.528 1073.47 358.839 1072.78 356.279C1071.99 353.228 1071.6 353.031 1058.51 348.996C1051.13 346.731 1042.37 344.369 1038.92 343.778C1030.75 342.499 1020.41 342.499 1020.41 343.778Z" fill="black" fill-opacity="0.9"/>
<path d="M956.924 346.534C950.624 348.7 945.407 351.752 933.989 360.02C928.87 363.662 920.897 368.781 916.271 371.537C911.546 374.195 905.836 377.935 903.573 379.805C899.734 382.955 894.714 389.648 895.6 390.534C896.584 391.617 906.821 385.613 917.058 377.935C928.378 369.372 945.899 359.528 957.514 355.197C962.929 353.228 963.913 352.44 964.503 349.783C965.291 346.929 965.684 346.731 969.721 346.731C972.083 346.731 974.346 346.239 974.642 345.747C975.627 344.074 962.239 344.664 956.924 346.534Z" fill="black" fill-opacity="0.9"/>
<path d="M1001.71 349.094C1000.33 349.98 996.691 350.669 993.344 350.669C986.454 350.669 985.272 351.259 984.091 355.197L983.304 358.15L998.167 357.756C1012.54 357.362 1020.41 356.378 1020.41 354.705C1020.41 354.311 1019.13 352.736 1017.46 351.161C1013.92 347.815 1005.75 346.732 1001.71 349.094Z" fill="black" fill-opacity="0.9"/>
<path d="M1021.4 355.788C1021.4 358.741 1022.87 360.906 1024.15 360.118C1024.74 359.725 1026.71 360.808 1028.58 362.382C1031.14 364.647 1034.59 366.024 1044.04 368.387C1058.51 372.029 1062.05 373.407 1066.97 377.345C1069.83 379.707 1071.3 380.199 1073.47 379.707C1075.63 379.215 1076.92 379.707 1079.28 381.675C1080.85 383.054 1082.62 384.137 1083.21 384.137C1084.89 384.137 1085.48 380.986 1084.2 379.412C1081.64 376.36 1068.35 368.387 1060.97 365.533C1052.6 362.382 1024.65 353.622 1022.68 353.622C1021.99 353.622 1021.4 354.606 1021.4 355.788Z" fill="black" fill-opacity="0.9"/>
<path d="M973.165 356.575C953.774 360.611 933.3 371.34 911.841 388.96C903.573 395.752 901.309 397.031 901.309 394.964C901.309 393.586 897.076 393.684 895.6 395.161C894.91 395.85 894.419 397.326 894.419 398.508C894.419 401.165 892.843 402.445 892.056 400.378C891.269 398.212 888.118 398.606 885.953 400.969C884.969 402.15 878.964 407.17 872.763 412.19C860.951 421.64 851.206 431.483 848.647 436.405C847.367 438.768 846.678 439.161 844.709 438.669C842.741 438.177 841.953 438.669 840.28 441.523C839.098 443.393 837.622 445.264 836.835 445.559C836.047 445.855 834.866 447.922 834.275 450.185C833.291 453.335 832.307 454.615 829.747 455.698C826.007 457.174 824.53 459.734 826.597 461.013C830.239 463.278 837.228 456.879 839.295 449.497C840.575 445.165 841.658 444.772 842.445 448.414C842.642 449.89 844.906 448.414 853.371 441.523C859.277 436.799 864.888 432.467 865.873 431.976C866.857 431.385 868.432 429.613 869.416 428.038C874.436 419.376 882.409 413.076 900.816 402.839C907.904 398.902 918.239 392.208 923.949 387.976C937.434 378.033 944.62 373.702 950.526 372.226C953.774 371.439 955.644 370.257 956.53 368.584C958.204 365.533 962.929 363.17 965.882 363.859C967.259 364.252 969.228 363.859 970.508 363.071C971.689 362.284 974.347 361.299 976.315 361.004C980.253 360.217 982.419 358.445 981.828 356.279C981.631 355.098 980.253 355.098 973.165 356.575Z" fill="black" fill-opacity="0.9"/>
<path d="M987.242 363.859C980.352 365.434 978.087 366.517 972.87 370.651C969.917 372.915 968.835 373.309 968.244 372.325C966.964 370.356 959.09 371.734 952.199 375.179C948.853 376.852 940.781 382.266 934.285 387.188C927.689 392.208 918.83 397.917 914.105 400.083C904.754 404.611 894.91 411.993 879.654 425.971C873.944 431.286 867.841 436.7 866.07 437.98C863.904 439.752 862.526 441.917 861.837 444.87C860.557 449.792 859.376 450.973 858.49 448.118C857.604 445.264 856.029 445.658 856.029 448.808C856.029 452.548 855.045 455.993 853.962 455.993C853.47 455.993 853.076 454.91 853.076 453.533C853.076 452.154 852.683 451.071 852.092 451.071C851.6 451.071 851.108 451.761 851.108 452.647C851.108 453.533 849.729 454.714 848.155 455.304C845.3 456.387 845.103 456.682 845.694 460.128C846.383 463.868 846.383 463.868 843.331 463.278C840.87 462.785 839.788 463.179 837.327 465.64C834.964 468.002 834.374 469.479 834.374 472.727C834.374 476.566 834.472 476.763 837.031 476.467C839.492 476.172 839.788 475.779 839.689 472.432C839.591 468.691 840.87 467.805 843.036 469.971C844.02 470.956 846.58 468.888 855.34 459.635C861.837 452.843 868.137 447.134 870.696 445.855C873.846 444.181 875.421 442.705 876.208 440.244C877.094 437.586 880.638 434.534 895.501 423.707C905.443 416.423 919.815 405.497 927.394 399.393C942.947 386.991 947.671 383.644 955.447 379.707C960.074 377.345 961.157 377.148 963.815 378.132C967.161 379.313 971.984 378.329 991.376 372.325C997.282 370.553 1002.79 369.372 1005.16 369.568C1008.6 369.863 1009.09 369.568 1009.39 367.698C1009.68 366.024 1009.09 365.138 1007.32 364.548C1002.79 362.776 993.443 362.481 987.242 363.859Z" fill="black" fill-opacity="0.9"/>
<path d="M1015.98 363.268C1012.34 364.056 1010.57 366.32 1011.75 368.879C1012.64 370.848 1013.72 371.143 1020.51 371.734C1026.81 372.325 1028.88 372.915 1031.24 374.883C1034.59 377.738 1037.54 377.64 1037.94 374.785C1038.43 371.143 1021.4 362.185 1015.98 363.268Z" fill="black" fill-opacity="0.9"/>
<path d="M1044.53 373.309C1043.84 374.49 1044.73 376.262 1046.1 376.262C1047.29 376.262 1047.29 373.604 1046.1 372.816C1045.61 372.521 1044.92 372.718 1044.53 373.309Z" fill="black" fill-opacity="0.9"/>
<path d="M1050.73 377.443C1050.44 380.593 1050.34 380.691 1046.5 380.396C1041.09 380.002 1032.03 378.427 1024.06 376.557C1014.71 374.392 1001.42 375.278 987.439 379.215C981.533 380.789 970.41 383.742 962.732 385.514C943.833 390.141 932.808 395.358 929.756 401.165C928.772 402.937 928.969 402.937 932.02 402.346C933.792 401.953 939.797 400.083 945.309 398.311C952.298 395.949 957.121 394.964 961.354 394.964C966.866 394.964 967.654 394.669 969.917 392.011C971.493 390.141 973.265 389.058 974.937 389.058C976.316 389.058 984.092 387.68 992.262 386.007C1011.16 382.168 1018.84 381.971 1026.62 385.514C1033.01 388.369 1035.97 388.664 1038.62 386.695C1040.2 385.514 1040.99 385.81 1044.83 388.467C1048.57 391.125 1049.94 391.519 1055.46 391.519C1058.9 391.519 1061.76 391.815 1061.76 392.208C1061.76 393.783 1066.68 396.047 1072.49 397.031C1077.51 397.917 1079.77 399 1084.59 402.937C1090.01 407.268 1095.22 409.237 1095.22 406.875C1095.22 405.299 1079.87 391.519 1074.26 388.271C1071.21 386.4 1065.79 383.94 1062.05 382.758C1056.44 380.888 1055.16 380.002 1053.98 377.443C1052.11 373.407 1051.13 373.506 1050.73 377.443Z" fill="black" fill-opacity="0.9"/>
<path d="M1001.22 392.897C995.805 395.358 995.018 395.555 993.148 394.275C991.179 392.897 990.49 392.996 986.356 395.358C983.6 396.933 980.253 397.917 977.89 397.917C973.756 397.917 959.188 402.642 958.499 404.118C957.514 406.481 951.805 411.993 948.459 413.765C946.293 414.848 939.895 417.211 934.087 419.081C921.389 423.215 913.613 428.235 900.915 440.244C893.04 447.725 864.888 478.731 864.888 480.011C864.888 480.208 866.562 480.011 868.53 479.42C874.436 477.846 880.047 473.121 891.17 460.62C897.962 453.04 904.655 446.642 910.561 442.311C921.685 434.043 950.624 416.62 953.184 416.62C954.168 416.62 957.909 415.044 961.55 413.174C965.094 411.206 971.492 408.843 975.627 407.761C979.761 406.678 985.765 404.217 989.013 402.248C994.722 398.705 994.919 398.606 1002.7 399.197C1007.13 399.492 1011.16 400.181 1011.85 400.674C1012.54 401.264 1016.57 401.658 1020.91 401.756C1027.01 401.756 1031.24 402.544 1040.1 405.299C1046.3 407.17 1053.49 408.745 1055.95 408.745C1058.8 408.745 1060.97 409.336 1061.76 410.221C1063.43 412.289 1071.21 416.62 1073.17 416.62C1074.06 416.62 1077.41 418.392 1080.66 420.557C1083.9 422.722 1087.35 424.494 1088.23 424.494C1089.12 424.494 1090.7 425.774 1091.58 427.349C1093.45 430.597 1096.8 432.172 1098.47 430.499C1100.24 428.727 1097.78 425.184 1090.2 418.49C1086.27 415.044 1080.85 409.926 1078.19 407.268C1075.54 404.513 1073.57 403.134 1073.96 404.02C1074.26 405.004 1074.85 406.58 1075.24 407.466C1075.83 409.138 1075.73 409.138 1073.86 407.466C1072.78 406.58 1071.4 405.792 1070.81 405.792C1070.22 405.792 1068.45 404.709 1066.87 403.331C1065.2 401.855 1061.66 400.476 1058.61 399.886C1055.75 399.295 1049.16 397.622 1044.04 396.047C1028.09 391.125 1022.87 390.043 1014.9 390.043C1008.41 390.043 1006.14 390.534 1001.22 392.897Z" fill="black" fill-opacity="0.9"/>
<path d="M944.816 402.347C927.788 405.497 922.177 408.056 911.054 417.604C906.723 421.345 900.03 426.07 896.289 428.038C886.051 433.452 870.597 450.973 860.656 468.494C857.506 474.007 856.029 475.68 854.553 475.483C853.175 475.286 852.486 475.877 852.289 477.353C851.698 481.192 855.045 480.011 863.707 473.416C866.66 471.251 874.929 462.49 882.114 454.123C895.009 438.964 902.588 431.976 913.121 425.282C922.374 419.376 936.253 412.879 942.553 411.403C948.951 409.926 951.806 407.957 954.07 403.627C955.743 400.378 955.842 400.378 944.816 402.347Z" fill="black" fill-opacity="0.9"/>
<path d="M873.058 406.285C872.763 407.17 872.763 408.056 873.058 408.352C873.944 409.238 875.716 407.761 875.716 406.186C875.716 404.316 873.846 404.414 873.058 406.285Z" fill="black" fill-opacity="0.9"/>
<path d="M989.407 409.237C944.423 423.313 921.587 437.291 882.607 474.4C874.043 482.571 871.483 484.539 869.023 484.539C866.463 484.539 865.873 485.13 863.51 490.347C862.132 493.497 860.951 496.745 860.951 497.434C860.951 498.419 860.557 498.32 859.376 497.139C857.9 495.761 857.112 496.154 849.336 501.667C843.922 505.506 839.985 509.148 838.41 511.805C837.032 514.07 835.161 516.235 834.275 516.53C833.488 516.826 831.815 518.794 830.535 520.96C829.354 523.125 827.582 525.389 826.696 526.078C825.613 526.964 824.924 529.031 824.727 531.984C824.629 534.642 824.727 536.709 825.023 536.709C825.219 536.709 828.665 534.15 832.504 531C837.13 527.358 840.28 524.011 841.363 521.452C842.347 519.286 843.233 518.105 843.233 518.696C843.233 519.385 843.528 519.976 844.02 519.976C844.414 519.976 850.222 514.561 857.014 507.868C863.806 501.273 877.094 488.969 886.544 480.701C895.994 472.333 908.889 460.816 915.09 455.107C922.866 447.823 927.886 444.083 930.937 442.902C933.497 441.917 940.781 437.98 947.179 434.141C969.13 421.05 979.072 417.801 1000.73 416.915C1018.05 416.226 1032.92 418.687 1053.29 425.577C1070.62 431.385 1073.37 432.763 1074.45 435.617C1075.04 437.094 1076.13 437.783 1078.29 437.882C1080.26 437.98 1083.31 439.654 1087.05 442.607C1092.47 446.839 1096.41 448.217 1097.59 446.347C1098.47 444.969 1088.43 432.566 1083.51 429.023C1077.11 424.298 1072.39 422.427 1066.58 422.329C1061.95 422.231 1061.76 422.034 1061.76 419.474C1061.76 416.816 1061.56 416.718 1058.61 417.309C1056.83 417.702 1054.28 417.998 1052.9 418.097C1050.73 418.097 1050.44 417.702 1050.44 414.356C1050.44 412.387 1050.14 410.714 1049.75 410.714C1049.26 410.714 1048.96 411.305 1048.96 412.092C1048.96 414.946 1046.79 414.749 1037.84 411.009C1029.37 407.466 1028.09 407.269 1018.45 407.17C1012.44 407.17 1007.22 406.678 1005.94 405.989C1003.39 404.513 1005.65 404.118 989.407 409.237Z" fill="black" fill-opacity="0.9"/>
<path d="M863.806 413.568C860.656 416.816 859.77 419.769 862.723 417.506C866.266 414.848 868.826 412.289 868.826 411.501C868.826 409.926 866.66 410.812 863.806 413.568Z" fill="black" fill-opacity="0.9"/>
<path d="M1006.14 422.231C1003.98 422.427 995.313 423.51 987.045 424.593C972.772 426.463 971.591 426.758 968.342 429.613C964.504 433.058 961.157 434.534 953.774 436.306C947.081 437.783 940.584 441.819 927.394 452.45C921.488 457.175 914.105 462.392 911.152 463.868C907.806 465.541 903.868 468.789 900.718 472.432C892.843 481.487 879.752 494.383 859.573 513.085L841.067 530.311L841.658 535.922C842.249 542.123 840.772 544.682 839.689 539.17C839.394 537.3 838.803 535.725 838.41 535.725C837.327 535.823 834.866 538.185 831.618 542.32C829.747 544.781 827.483 546.553 826.401 546.553C824.727 546.553 824.53 547.045 825.121 549.899C825.908 554.329 824.727 556.396 822.955 553.935C821.676 552.262 821.479 552.36 820.101 555.707C818.329 559.94 818.132 568.799 819.806 569.783C821.184 570.669 825.613 565.353 825.318 563.286C825.121 562.499 824.038 561.711 822.759 561.514C818.132 560.826 821.184 558.365 826.597 558.365C831.027 558.365 833.882 554.821 834.768 548.521C835.457 543.993 835.653 543.501 836.441 545.273C836.835 546.553 837.819 547.537 838.606 547.537C839.295 547.537 842.938 543.698 846.678 538.875C850.419 534.15 859.671 524.011 867.251 516.333C877.389 505.801 880.736 501.863 880.342 500.486C879.949 498.91 880.736 498.32 883.984 497.336C887.233 496.45 890.481 493.595 900.325 483.456C907.117 476.467 913.416 470.758 914.302 470.758C916.074 470.758 922.078 465.345 925.819 460.423C927.197 458.553 928.181 457.863 928.477 458.651C929.363 460.62 930.544 460.226 935.957 455.895C942.553 450.776 949.837 447.036 965.291 441.228C972.083 438.669 980.352 435.224 983.501 433.747C989.211 430.991 989.801 430.893 1005.16 430.893H1020.91L1036.16 436.602C1045.81 440.244 1053.98 442.607 1058.31 443.197C1067.47 444.279 1067.76 444.378 1072.98 451.071C1077.41 456.682 1081.44 459.143 1090.5 461.407C1093.85 462.293 1095.52 463.868 1098.47 468.494C1101.13 472.628 1103.1 473.909 1103.1 471.447C1103.1 468.494 1095.22 457.174 1089.22 451.662C1080.75 443.788 1071.3 439.161 1055.16 434.732C1054.47 434.534 1053.88 433.353 1053.88 431.976C1053.88 430.597 1053.49 429.219 1052.9 428.924C1052.41 428.628 1051.91 429.023 1051.91 429.81C1051.91 432.467 1050.14 432.467 1045.81 429.613C1036.06 423.117 1022.88 420.655 1006.14 422.231Z" fill="black" fill-opacity="0.9"/>
<path d="M1004.27 436.11C1002.11 438.57 1000.63 438.964 984.486 440.736C966.964 442.606 963.322 443.886 953.971 451.564C949.64 455.107 943.045 459.537 939.206 461.604C922.374 470.365 902.884 485.917 892.155 499.304C888.513 503.832 884.28 508.065 882.705 508.754C881.13 509.443 878.669 511.608 877.094 513.577C871.385 520.96 867.743 524.7 865.577 525.291C864.003 525.684 862.132 528.44 858.687 535.232C856.128 540.351 854.061 545.273 854.061 546.06C854.061 548.029 853.076 547.93 851.403 545.765C850.123 544.19 850.025 544.19 848.548 546.06C847.761 547.143 845.792 550.096 844.217 552.655C842.15 555.903 840.674 557.38 839.197 557.38C837.228 557.38 837.13 557.675 837.721 562.204C838.114 565.157 837.917 567.322 837.327 567.716C836.835 568.011 836.343 567.42 836.343 566.338C836.343 564.369 834.669 562.597 833.783 563.581C833.488 563.877 833.586 566.633 833.98 569.783L834.669 575.393L840.083 569.586C843.135 566.436 848.844 560.333 852.781 556.199C857.014 551.769 859.967 547.832 859.967 546.651C859.967 545.273 860.557 544.584 861.935 544.584C863.313 544.584 864.888 543.009 866.857 539.859C868.432 537.299 871.385 533.461 873.452 531.295C875.52 529.13 878.964 524.601 881.13 521.255C883.591 517.514 886.249 514.66 888.218 513.675C890.285 512.691 891.662 511.215 892.056 509.443C892.352 507.966 892.647 506.392 892.745 505.997C893.238 504.127 922.669 479.716 932.316 473.219C949.443 461.801 977.005 448.808 993.345 444.674C1003.88 442.016 1018.05 443.098 1031.73 447.627C1039.41 450.185 1056.83 458.946 1073.57 468.789C1089.02 477.846 1100.93 484.047 1101.72 483.358C1101.92 483.161 1100.93 481.291 1099.55 479.224C1097.98 476.96 1092.86 472.825 1085.97 468.298C1079.87 464.262 1073.67 459.439 1072.19 457.568C1070.42 455.205 1068.25 453.729 1065.6 453.04C1063.43 452.45 1055.36 449.299 1047.78 446.051C1030.55 438.866 1020.41 435.617 1012.34 434.731C1006.83 434.239 1005.94 434.338 1004.27 436.11Z" fill="black" fill-opacity="0.9"/>
<path d="M989.407 451.662C972.378 455.403 955.742 462.982 937.138 475.581C920.306 486.902 912.333 494.383 893.631 516.53C876.601 536.709 875.027 538.383 871.385 540.154C868.53 541.533 863.51 549.309 861.837 554.92C860.951 558.07 859.769 559.841 858.293 560.432C857.112 560.826 854.946 563.09 853.568 565.353C851.206 568.996 851.107 569.488 852.485 571.063C853.371 572.047 854.06 573.326 854.06 573.917C854.06 575.788 856.521 575.295 858.687 572.835C859.769 571.654 861.64 568.897 862.722 566.732C863.805 564.566 866.069 561.81 867.743 560.53C869.416 559.349 871.68 556.494 872.861 554.132C874.043 551.868 878.177 546.651 882.016 542.615C885.855 538.58 891.859 531 895.304 525.882C902.194 515.546 905.738 512.003 927.393 493.694C935.564 486.803 944.127 479.42 946.588 477.157C950.329 473.81 952.101 472.924 957.711 471.94C961.452 471.251 968.539 468.888 973.46 466.722C1000.04 455.009 1005.25 454.32 1022.38 460.226C1028.09 462.097 1034.29 463.967 1036.26 464.262C1038.13 464.655 1044.04 467.707 1049.25 471.152C1058.61 477.353 1064.32 480.306 1065.2 479.42C1065.5 479.224 1065.99 477.55 1066.28 475.877C1066.78 473.416 1066.58 472.628 1065.1 472.038C1064.02 471.546 1060.18 469.184 1056.34 466.722C1047.68 461.013 1037.44 455.796 1029.27 453.04C1020.71 450.087 999.644 449.399 989.407 451.662Z" fill="black" fill-opacity="0.9"/>
<path d="M989.211 462.785C987.439 463.966 985.962 465.246 985.962 465.738C985.962 466.821 991.573 467.608 999.447 467.707C1005.06 467.707 1009.98 469.774 1011.46 472.628C1012.24 474.105 1014.02 474.499 1019.92 474.892C1026.32 475.286 1028.68 476.074 1036.46 479.913C1047.48 485.425 1056.93 493.497 1076.42 513.971C1084.2 522.239 1090.7 528.736 1090.99 528.44C1091.68 527.752 1086.66 518.302 1080.95 509.64C1073.86 498.714 1068.45 493.004 1062.64 490.15C1059.98 488.772 1056.34 485.917 1054.77 483.949C1047.48 474.794 1040.59 471.546 1014.02 464.754C997.971 460.718 993.246 460.325 989.211 462.785Z" fill="black" fill-opacity="0.9"/>
<path d="M853.076 467.805C852.289 469.38 852.289 469.774 853.47 469.774C855.045 469.774 856.325 467.117 855.045 466.329C854.553 466.034 853.667 466.722 853.076 467.805Z" fill="black" fill-opacity="0.9"/>
<path d="M972.181 471.251C969.523 473.416 967.358 474.499 966.275 474.204C962.239 472.924 950.329 480.405 935.957 493.3C930.741 497.926 921.783 505.702 916.172 510.526C905.049 520.271 899.143 526.866 894.32 535.528C892.548 538.58 888.808 543.6 886.051 546.651C883.295 549.702 878.866 555.412 876.208 559.447C873.648 563.483 871.385 566.929 871.188 567.125C870.991 567.322 870.204 567.027 869.514 566.338C867.841 565.058 866.463 566.83 863.116 574.409C860.065 581.3 857.112 585.04 853.47 586.517C851.501 587.403 850.123 588.584 850.123 589.667C850.123 592.325 846.481 597.64 843.823 598.92C842.445 599.51 841.264 600.888 841.067 601.971C840.87 603.054 839.492 604.727 837.819 605.613C835.555 606.893 834.767 608.074 834.373 611.125C833.98 613.98 833.684 614.571 833.094 613.192C832.011 610.338 830.141 611.815 828.861 616.539C828.271 619.197 827.286 620.772 826.499 620.575C825.711 620.378 825.514 620.87 826.007 622.051C826.4 623.036 826.991 624.611 827.188 625.497C828.074 628.45 830.436 627.466 832.11 623.528C833.98 618.902 833.98 618.902 835.948 620.477C837.72 621.953 837.228 622.445 843.331 613.685C845.004 611.322 847.859 608.566 849.631 607.385C851.796 606.204 854.159 603.349 856.029 599.805C857.702 596.754 861.049 591.832 863.412 588.879C865.872 585.926 869.711 580.414 871.976 576.575C874.239 572.835 877.586 567.815 879.358 565.452C881.13 563.09 882.606 560.038 882.606 558.66C882.606 557.085 883.886 555.018 886.248 552.852C888.217 550.982 890.185 549.506 890.58 549.506C890.973 549.506 895.403 544.486 900.325 538.383C909.872 526.768 914.794 521.846 919.224 519.483C920.996 518.499 922.472 516.333 923.653 513.085C925.228 508.655 926.902 506.588 926.902 509.148C926.902 511.215 928.87 509.935 934.973 503.93C938.91 500.092 944.226 496.154 949.443 493.399C954.07 490.937 961.353 486.409 965.684 483.259L973.559 477.55L985.962 477.846C997.38 478.043 998.561 477.944 1002.5 475.68C1007.12 473.023 1007.72 471.743 1004.37 471.743C1003.09 471.743 997.872 470.857 992.754 469.774C979.367 467.018 977.103 467.117 972.181 471.251Z" fill="black" fill-opacity="0.9"/>
<path d="M829.156 473.318C828.074 475.286 827.385 480.503 828.074 482.964C829.058 486.902 831.42 484.342 831.42 479.224C831.42 475.188 830.141 471.841 829.156 473.318Z" fill="black" fill-opacity="0.9"/>
<path d="M846.284 475.09C845.497 475.976 845.201 476.96 845.595 477.353C846.481 478.239 848.45 476.074 847.957 474.696C847.761 473.909 847.17 474.007 846.284 475.09Z" fill="black" fill-opacity="0.9"/>
<path d="M1066.19 479.815C1065.69 482.866 1066.28 483.752 1075.73 493.595C1086.07 504.325 1089.42 506.293 1093.16 504.226C1096.01 502.749 1095.81 502.061 1091.88 499.895C1090.01 498.91 1085.48 494.383 1081.94 489.855C1075.54 481.783 1070.12 476.665 1067.86 476.665C1067.27 476.665 1066.48 478.141 1066.19 479.815Z" fill="black" fill-opacity="0.9"/>
<path d="M837.425 481.389C836.047 483.949 836.736 485.524 838.409 483.85C839 483.259 839.295 481.98 839.098 480.996C838.803 479.322 838.606 479.322 837.425 481.389Z" fill="black" fill-opacity="0.9"/>
<path d="M1007.13 480.208C1006.04 480.405 999.644 480.996 992.852 481.487C977.792 482.768 973.756 483.949 968.933 488.772C966.177 491.528 964.799 492.315 963.913 491.528C963.027 490.741 961.058 492.02 956.432 496.351C952.987 499.501 949.837 501.962 949.345 501.667C948.951 501.372 946.588 502.06 944.128 503.143C938.419 505.702 913.711 530.508 901.506 545.863C896.781 551.868 889.694 560.628 885.855 565.353C881.917 570.177 878.669 574.311 878.669 574.607C878.669 574.902 877.094 578.445 875.224 582.58C873.353 586.615 871.779 590.651 871.779 591.439C871.779 592.521 871.188 592.718 869.81 592.325C868.432 591.93 867.644 592.226 867.152 593.506C866.857 594.49 864.888 597.541 862.821 600.298C860.656 603.054 858.687 606.597 858.392 608.271C857.998 610.239 856.817 611.716 854.553 612.897C852.682 613.882 847.662 618.607 843.331 623.331C839 628.056 833.882 632.682 831.814 633.667C828.271 635.34 828.271 635.439 828.861 639.868C829.157 642.329 829.747 644.593 830.043 644.888C831.519 646.365 836.145 641.935 838.902 636.325C841.067 631.993 842.15 630.517 842.544 631.6C842.937 632.486 844.119 633.175 845.3 633.175C847.269 633.175 847.367 632.781 846.776 629.138C846.284 626.284 846.481 625.3 847.269 625.89C848.351 626.58 857.998 617.031 857.998 615.259C857.998 614.768 858.392 614.57 858.884 614.964C860.557 615.949 866.168 609.255 870.991 600.593C876.701 590.553 877.882 589.076 883.788 585.04C888.414 581.989 890.973 577.264 892.942 568.405C893.336 566.633 895.305 563.188 897.47 560.727C899.537 558.266 901.309 555.412 901.309 554.427C901.309 553.148 902.687 551.769 905.148 550.49C907.608 549.309 912.038 544.879 917.255 538.481C927.098 526.373 933.497 520.862 957.416 503.93C974.15 492.02 975.922 491.036 979.564 491.232C981.729 491.331 987.242 490.741 991.769 489.855C996.298 489.067 1001.71 488.674 1003.68 488.969C1006.93 489.56 1007.42 489.362 1008.11 487.295C1008.7 485.425 1008.9 485.326 1009.29 486.705C1009.88 489.067 1013.03 489.855 1020.12 489.56C1027.8 489.264 1032.52 491.232 1043.25 499.305C1047.58 502.651 1052.31 505.506 1053.78 505.801C1055.75 506.195 1057.23 507.966 1059.98 512.987C1065.4 522.929 1074.65 534.741 1083.12 542.517C1087.25 546.356 1090.79 549.309 1091.09 549.112C1091.29 548.816 1090.7 546.356 1089.81 543.501C1088.43 539.564 1086.27 536.414 1080.36 530.311C1076.03 525.882 1072.58 521.452 1072.58 520.566C1072.58 517.514 1067.86 511.51 1059.69 504.128C1038.13 484.736 1022.48 477.55 1007.13 480.208Z" fill="black" fill-opacity="0.9"/>
<path d="M1083.9 482.669C1086.17 489.855 1091.98 495.859 1095.91 495.071C1097.68 494.776 1098.18 495.071 1098.18 496.548C1098.18 499.009 1099.95 502.258 1101.33 502.258C1102.8 502.258 1101.52 496.745 1099.06 492.709C1097.88 490.937 1094.53 487.689 1091.38 485.622C1082.92 479.913 1083.12 480.011 1083.9 482.669Z" fill="black" fill-opacity="0.9"/>
<path d="M821.577 483.259C821.675 484.638 824.53 487.886 825.121 487.295C826.105 486.212 824.432 482.571 822.955 482.571C822.168 482.571 821.577 482.866 821.577 483.259Z" fill="black" fill-opacity="0.9"/>
<path d="M845.398 483.752C844.709 484.44 844.217 486.311 844.217 488.083C844.217 490.741 843.922 491.134 842.347 490.741C841.363 490.445 840.181 490.741 839.886 491.331C839.492 491.922 838.311 492.414 837.13 492.414C835.457 492.414 835.26 492.808 835.85 494.58C836.244 495.859 836.539 497.828 836.539 499.009C836.539 500.289 836.835 501.273 837.228 501.273C838.311 501.273 841.756 497.237 843.233 494.481C844.119 492.808 844.611 492.512 845.202 493.398C845.792 494.284 846.383 494.284 848.155 493.398C850.025 492.414 850.222 491.725 849.631 489.165C849.237 487.393 848.844 485.228 848.844 484.244C848.745 482.275 847.072 482.078 845.398 483.752Z" fill="black" fill-opacity="0.9"/>
<path d="M852.387 483.654C850.812 485.228 850.714 488.477 852.092 488.477C853.372 488.477 854.356 486.114 853.864 484.047C853.667 482.768 853.372 482.669 852.387 483.654Z" fill="black" fill-opacity="0.9"/>
<path d="M857.801 487.689C854.651 491.233 854.356 492.414 856.521 492.414C858.293 492.414 861.246 488.083 860.754 486.114C860.557 484.933 859.77 485.425 857.801 487.689Z" fill="black" fill-opacity="0.9"/>
<path d="M983.501 495.17C966.669 501.372 966.078 501.667 963.716 505.309C960.665 510.132 956.137 513.774 945.9 519.483C935.859 524.996 929.067 531 925.819 537.201C924.441 539.859 922.374 542.024 920.701 542.714C919.125 543.403 915.582 546.553 912.924 549.899C910.168 553.148 906.034 557.282 903.77 558.955C899.537 562.204 896.978 566.731 897.568 569.684C898.061 572.342 908.396 564.172 924.933 548.029C938.517 534.839 948.557 526.472 954.857 523.224C957.121 522.043 958.105 521.944 959.976 522.929C962.634 524.405 964.504 523.42 970.508 517.711C973.756 514.66 974.544 514.365 978.776 514.758C981.434 515.054 986.454 514.561 990.097 513.675C996.692 512.101 996.79 512.101 1000.33 514.561C1004.66 517.514 1009.98 518.597 1013.13 517.121C1016.48 515.644 1016.08 512.691 1012.34 509.836C1005.65 504.915 999.94 504.226 985.963 506.687C981.336 507.474 975.135 508.163 972.182 508.163C967.063 508.163 966.964 508.065 969.031 506.588C976.119 501.667 994.723 498.714 1000.53 501.667C1004.27 503.635 1006.04 503.635 1007.91 501.863C1009.19 500.584 1009.68 500.879 1012.44 504.226C1014.31 506.49 1018.05 509.246 1021.89 511.215C1025.43 512.888 1028.29 514.955 1028.29 515.742C1028.29 516.628 1029.37 518.499 1030.75 520.172C1032.13 521.747 1033.21 523.617 1033.21 524.405C1033.21 525.094 1035.47 527.161 1038.23 528.933C1045.02 533.264 1051.13 540.843 1060.77 557.085C1065.3 564.566 1071.21 573.721 1074.06 577.559C1076.92 581.299 1079.87 586.419 1080.56 588.781C1081.35 591.537 1083.51 594.785 1086.07 597.345C1089.12 600.396 1092.37 605.908 1097.68 617.031C1101.82 625.497 1105.36 632.19 1105.66 631.895C1106.54 631.009 1103.98 619.098 1102.02 614.472C1100.93 612.011 1098.87 608.763 1097.39 607.286C1095.42 605.219 1094.83 603.742 1095.03 601.282C1095.42 597.64 1093.94 595.966 1091.88 597.64C1090.79 598.526 1090.4 598.132 1090.01 595.573C1088.53 587.107 1087.74 585.237 1083.31 579.429C1080.66 575.886 1073.47 565.452 1067.27 556.101C1061.07 546.848 1051.62 534.051 1046.3 527.752C1040.89 521.452 1035.47 514.955 1034.29 513.282C1032.72 511.018 1031.34 510.132 1029.37 510.132C1027.21 510.132 1025.14 508.557 1020.02 503.143C1014.9 497.631 1013.03 496.252 1011.36 496.647C1009.98 497.04 1008.8 496.548 1007.62 495.071C1006.14 493.299 1004.66 492.906 998.661 492.611C992.557 492.414 990.097 492.808 983.501 495.17Z" fill="black" fill-opacity="0.9"/>
<path d="M1018.54 494.481C1015.79 495.564 1015.89 495.761 1023.27 500.682C1026.12 502.651 1029.67 504.226 1031.14 504.226C1033.11 504.226 1034.19 505.112 1035.97 508.164C1037.15 510.329 1040.69 513.873 1043.84 516.137C1046.89 518.302 1050.53 521.452 1051.91 522.929C1053.98 525.291 1054.67 525.488 1056.05 524.503C1059.79 521.748 1053.98 512.101 1048.57 512.101C1047.29 512.101 1045.42 510.624 1043.74 508.164C1037.05 498.714 1024.65 492.02 1018.54 494.481Z" fill="black" fill-opacity="0.9"/>
<path d="M828.959 498.91C828.664 501.372 827.68 505.21 826.892 507.376C826.105 509.64 825.613 511.608 825.81 511.707C826.006 511.904 827.385 511.51 828.861 510.821C830.928 509.935 831.322 509.148 830.928 507.376C830.534 505.997 831.125 504.423 832.405 503.044C833.684 501.568 834.078 500.584 833.389 499.895C832.897 499.403 832.405 497.926 832.405 496.647C832.405 492.414 829.747 494.185 828.959 498.91Z" fill="black" fill-opacity="0.9"/>
<path d="M823.251 502.06C820.101 505.506 818.427 513.282 820.593 514.561C821.676 515.251 822.463 513.38 824.924 505.407C826.4 500.092 825.908 499.009 823.251 502.06Z" fill="black" fill-opacity="0.9"/>
<path d="M1088.33 509.049C1088.33 512.199 1108.02 532.279 1108.81 529.819C1109 529.326 1107.53 525.783 1105.56 521.944C1101.13 513.675 1095.52 508.164 1091.29 508.164C1089.61 508.164 1088.33 508.557 1088.33 509.049Z" fill="black" fill-opacity="0.9"/>
<path d="M1017.66 518.696C1017.86 520.369 1018.54 521.452 1019.43 521.452C1020.32 521.452 1021 520.369 1021.2 518.696C1021.5 516.53 1021.1 516.038 1019.43 516.038C1017.76 516.038 1017.36 516.53 1017.66 518.696Z" fill="black" fill-opacity="0.9"/>
<path d="M980.056 519.385C978.087 520.172 974.15 521.944 971.197 523.42C968.244 524.897 963.224 526.768 959.976 527.555C952.494 529.228 950.624 530.607 934.776 545.962L921.487 558.857L920.503 565.944C919.913 569.882 919.815 573.13 920.208 573.13C920.602 573.13 922.964 570.571 925.622 567.519C935.662 555.608 942.06 549.702 946.096 548.62C948.852 547.93 950.624 546.651 951.904 544.486C954.168 540.745 958.991 537.694 962.83 537.694C965.094 537.694 966.866 536.611 969.622 533.855C982.91 520.271 1005.06 523.125 1033.41 542.024C1040.89 546.946 1041.87 548.128 1044.83 554.034C1046.6 557.577 1052.7 568.208 1058.31 577.658C1071.4 599.51 1071.7 600.003 1071.5 604.333C1071.4 606.4 1072.49 611.125 1073.86 614.964C1077.51 625.004 1081.44 638.687 1082.53 645.282C1083.61 652.074 1084.89 654.83 1087.05 654.83C1089.91 654.83 1087.84 644.298 1082.33 630.024C1078 618.902 1077.11 615.654 1076.72 608.566C1076.32 600.298 1076.23 600.003 1066.58 581.004C1052.41 552.754 1044.53 541.237 1033.41 532.575C1028.09 528.342 1027.5 528.047 1026.02 529.524C1024.55 531 1024.15 530.705 1020.22 526.866C1016.18 522.83 1015.69 522.535 1010.08 522.436C1006.44 522.239 1002.5 521.452 999.742 520.172C994.624 517.712 985.568 517.416 980.056 519.385Z" fill="black" fill-opacity="0.9"/>
<path d="M1022.38 520.271C1022.38 522.436 1025.04 525.882 1026.62 525.882C1027.8 525.882 1027.4 520.467 1026.12 519.188C1024.25 517.318 1022.38 517.81 1022.38 520.271Z" fill="black" fill-opacity="0.9"/>
<path d="M1057.52 524.602C1055.65 526.373 1056.93 531.591 1059.89 534.347C1061.56 535.922 1064.02 539.071 1065.4 541.336C1066.68 543.698 1069.14 546.651 1070.71 547.93C1072.29 549.309 1073.57 551.081 1073.57 551.966C1073.57 555.707 1077.41 561.023 1082.13 563.483C1086.27 565.747 1087.15 566.83 1088.73 571.358C1091.98 580.513 1096.11 587.895 1098.67 589.076C1102.11 590.651 1102.61 589.568 1100.83 584.745C1097.98 577.362 1090.79 566.043 1078.29 549.407C1071.7 540.548 1065.1 531.098 1063.72 528.539C1061.46 524.306 1059.2 522.83 1057.52 524.602Z" fill="black" fill-opacity="0.9"/>
<path d="M819.313 530.508C818.92 530.803 818.624 532.083 818.624 533.362C818.624 535.036 819.018 535.429 820.593 535.036C821.873 534.741 822.562 533.658 822.562 532.181C822.562 529.917 820.692 529.031 819.313 530.508Z" fill="black" fill-opacity="0.9"/>
<path d="M979.269 530.507C976.906 531 970.213 536.808 970.213 538.382C970.213 538.973 972.477 539.17 975.627 538.875C978.875 538.58 984.486 539.17 989.506 540.154C996.396 541.631 998.562 541.729 1001.22 540.843C1005.26 539.268 1007.42 540.056 1017.07 546.651C1021.2 549.407 1025.93 552.262 1027.8 553.049C1030.16 554.033 1031.93 556.002 1034.49 560.53C1036.36 563.976 1041.48 572.835 1045.81 580.315C1050.14 587.796 1055.36 598.329 1057.43 603.742C1060.18 610.929 1061.56 613.487 1062.84 613.487C1064.22 613.487 1065.1 615.653 1067.17 625.004C1073.57 652.96 1075.73 661.72 1078.19 669.103C1080.85 677.273 1084.99 686.329 1086.07 686.329C1087.35 686.329 1085.18 676.682 1082.43 670.678C1080.66 666.544 1078.69 659.161 1077.01 650.302C1073.47 630.123 1068.35 613.487 1065.79 613.487C1065.3 613.487 1064.71 611.125 1064.51 608.271C1063.82 601.085 1055.16 582.087 1052.21 581.398C1050.93 581.004 1050.14 580.414 1050.44 580.02C1051.42 578.346 1047.98 569.98 1043.64 563.385C1037.94 554.821 1026.32 543.205 1019.13 538.875C1016.18 537.103 1011.06 534.642 1007.72 533.559C1002.2 531.689 1001.12 531.59 996.396 532.772C991.376 533.953 990.884 533.855 988.423 531.886C985.765 529.917 983.994 529.622 979.269 530.507Z" fill="black" fill-opacity="0.9"/>
<path d="M1092.27 531.591C1092.27 534.347 1095.13 537.694 1097.59 537.694C1099.55 537.694 1099.95 538.285 1100.44 541.828C1100.83 544.584 1101.92 546.848 1103.98 548.915C1107.53 552.459 1107.82 551.474 1105.56 543.698C1103.1 535.627 1092.27 525.685 1092.27 531.591Z" fill="black" fill-opacity="0.9"/>
<path d="M818.919 540.253C817.443 542.517 817.148 542.615 816.065 541.237C815.081 539.761 814.884 539.859 814.293 542.024C813.702 544.584 814.392 547.537 815.671 547.537C817.148 547.537 821.577 541.533 821.577 539.564C821.577 537.004 820.987 537.201 818.919 540.253Z" fill="black" fill-opacity="0.9"/>
<path d="M1000.73 544.682C1000.73 546.946 1011.46 556.593 1017.95 560.038C1023.96 563.385 1024.84 564.172 1025.63 567.421C1026.12 569.488 1028.19 573.031 1030.36 575.394C1036.56 582.58 1046.79 609.353 1051.52 631.206C1052.41 635.242 1053.39 646.07 1053.78 655.322C1054.57 671.859 1054.57 672.155 1058.51 681.899C1061.76 689.774 1063.13 695.483 1065.59 710.15C1068.55 727.179 1071.01 737.514 1072.29 737.514C1072.68 737.514 1072.58 733.184 1072.29 727.769C1071.6 718.025 1069.43 706.212 1065.69 691.842C1064.61 687.51 1063.72 682.49 1063.72 680.521C1063.63 678.553 1062.84 675.206 1061.76 673.04C1060.57 670.58 1059.79 666.937 1059.79 663.197C1059.79 659.457 1059 655.716 1057.72 652.862C1056.34 649.81 1055.85 647.349 1056.24 644.889C1056.64 642.723 1056.24 639.868 1055.46 637.899C1054.28 635.144 1054.18 633.076 1054.96 627.466C1056.15 618.902 1054.96 613.094 1049.16 600.101C1046.99 595.278 1044.73 589.568 1044.04 587.403C1040.69 576.87 1031.24 563.779 1019.72 553.936C1011.16 546.553 1000.73 541.533 1000.73 544.682Z" fill="black" fill-opacity="0.9"/>
<path d="M957.908 547.537C946.096 552.262 930.445 567.815 921.291 583.761C918.731 588.387 914.499 594.392 912.038 597.148C909.577 599.904 904.95 605.514 901.702 609.55C898.553 613.586 894.221 618.607 892.154 620.674C888.709 624.02 888.512 624.611 889.103 628.056C889.89 632.584 890.284 633.175 892.056 633.175C893.04 633.175 893.434 631.796 893.434 627.466L893.533 621.855L895.107 624.808L896.682 627.662L898.257 625.3C899.143 623.922 903.179 618.705 907.313 613.488C911.447 608.369 915.975 602.07 917.452 599.608C918.929 597.05 920.897 594.785 921.98 594.49C922.964 594.195 925.326 591.93 927.098 589.273C928.87 586.714 931.823 582.678 933.595 580.316C935.465 577.756 936.745 574.902 936.745 573.13C936.745 570.472 936.942 570.275 939.6 570.768C943.635 571.654 945.801 570.078 950.427 562.893C954.758 556.199 957.514 554.427 959.877 556.396C961.058 557.38 961.452 557.282 961.944 555.805C963.519 550.884 964.601 548.521 965.291 548.521C966.964 548.521 967.161 553.443 965.684 556.888C964.897 558.857 964.405 560.727 964.601 560.924C964.799 561.121 966.373 560.727 968.047 560.137C971.295 558.857 972.083 556.691 970.114 554.722C969.425 554.034 969.228 552.852 969.622 551.967C970.114 550.687 971 550.392 973.559 550.883C976.118 551.376 977.004 551.179 977.496 549.899C978.58 547.144 976.512 546.159 969.425 545.863C964.601 545.667 961.452 546.06 957.908 547.537Z" fill="black" fill-opacity="0.9"/>
<path d="M979.072 548.915C979.072 552.852 981.139 554.033 986.356 553.049C988.325 552.655 990.195 552.95 991.376 553.836C993.246 555.215 993.345 555.313 991.573 558.266C989.506 561.711 990.097 565.55 992.655 565.058C993.541 564.861 994.624 563.286 995.215 561.514C995.707 559.841 996.494 558.365 996.987 558.365C997.479 558.365 1000.92 561.219 1004.66 564.763C1008.41 568.306 1012.15 571.161 1012.83 571.161C1013.62 571.161 1016.08 574.902 1018.25 579.528C1020.51 584.154 1024.94 592.325 1028.29 597.64C1031.54 602.955 1034.19 608.369 1034.19 609.747C1034.19 611.125 1035.38 616.244 1036.75 620.969C1038.13 625.792 1039.9 632.19 1040.79 635.143C1041.87 639.179 1042.46 649.416 1043.05 675.304C1043.84 708.772 1043.84 710.248 1041.97 713.398C1040 716.745 1036.66 731.51 1037.74 732.494C1039.02 733.774 1041.97 728.36 1043.55 721.765C1044.53 717.631 1046.01 714.284 1047.09 713.595C1048.66 712.413 1048.96 710.248 1049.55 695.581C1051.72 639.08 1038.62 588.682 1015.3 563.68C1009.68 557.675 1006.53 556.101 1005.06 558.463C1004.76 559.054 1003.19 557.38 1001.61 554.624C998.07 548.423 992.754 545.568 984.682 545.568H979.072V548.915Z" fill="black" fill-opacity="0.9"/>
<path d="M1092.47 550.687C1090.79 552.36 1090.99 553.049 1093.65 555.707C1095.03 557.085 1097.39 560.727 1098.96 563.877C1100.54 567.125 1102.8 570.57 1103.98 571.555C1106.05 573.425 1106.05 573.425 1106.05 570.57C1106.05 567.322 1104.08 563.483 1099.46 557.38C1097.68 555.018 1096.21 552.36 1096.21 551.278C1096.21 549.309 1094.24 548.915 1092.47 550.687Z" fill="black" fill-opacity="0.9"/>
<path d="M974.15 556.888C972.279 559.152 973.756 561.514 976.807 561.121C978.973 560.924 979.662 560.235 979.859 558.07C980.154 555.805 979.859 555.412 977.792 555.412C976.413 555.412 974.839 556.101 974.15 556.888Z" fill="black" fill-opacity="0.9"/>
<path d="M983.206 558.856C981.533 562.499 981.729 563.286 984.387 563.286C987.537 563.286 988.423 561.711 986.848 558.758C985.273 555.805 984.584 555.805 983.206 558.856Z" fill="black" fill-opacity="0.9"/>
<path d="M955.251 560.432C953.479 561.416 952.692 568.208 954.266 568.208C956.531 568.208 959.385 564.861 959.385 562.204C959.385 559.251 958.204 558.66 955.251 560.432Z" fill="black" fill-opacity="0.9"/>
<path d="M811.734 564.664C811.734 566.534 811.34 568.405 810.749 568.7C809.568 569.389 809.47 573.819 810.553 574.508C811.734 575.197 817.64 571.456 817.64 570.078C817.64 569.389 817.148 567.224 816.459 565.157C815.671 562.499 814.785 561.318 813.506 561.318C812.128 561.318 811.734 562.105 811.734 564.664Z" fill="black" fill-opacity="0.9"/>
<path d="M911.94 565.255C908.003 567.42 905.148 570.964 903.474 575.788C902.195 579.627 902.588 579.725 907.215 576.969C913.023 573.425 919.027 566.83 919.027 563.779C919.027 562.695 915.483 563.483 911.94 565.255Z" fill="black" fill-opacity="0.9"/>
<path d="M968.244 563.976C962.732 564.271 961.649 564.665 960.862 566.535C960.271 567.815 958.795 568.799 957.219 568.996C955.842 569.192 953.971 570.373 953.085 571.654C952.101 573.13 950.92 573.819 949.64 573.425C948.262 573.031 946.785 574.311 943.537 578.741C941.273 581.89 935.269 588.387 930.248 593.112C920.11 602.66 913.613 611.618 911.842 618.212C911.054 621.165 909.971 622.839 908.494 623.43C907.215 623.922 906.231 624.906 906.231 625.792C906.231 626.58 905.345 627.269 904.262 627.269C902.785 627.269 902.097 628.154 901.604 630.32C901.211 632.387 899.832 634.061 897.273 635.734C893.139 638.293 890.186 643.018 890.678 646.266C891.17 649.909 893.828 648.628 896.387 643.51C897.863 640.754 899.439 638.687 900.128 638.785C900.816 638.982 901.309 637.998 901.309 636.62C901.309 634.454 901.604 634.159 903.671 634.749C905.738 635.242 906.132 634.946 906.427 632.584C906.624 630.517 907.412 629.631 909.676 629.04C911.447 628.548 914.007 626.383 916.074 623.823C917.944 621.363 920.996 618.705 922.669 617.819C925.524 616.54 925.917 615.85 925.917 612.602C925.917 609.452 926.508 608.467 929.953 605.613C932.217 603.842 935.957 599.313 938.419 595.671C941.568 590.749 943.931 588.289 946.884 586.812C949.148 585.631 955.152 581.89 960.271 578.446C965.291 575 970.212 572.145 971.197 572.145C972.181 572.145 976.118 572.835 979.957 573.721C987.34 575.394 990.785 575.098 993.246 572.54C995.608 570.275 995.215 569.389 991.376 567.519C988.62 566.239 987.242 566.043 985.076 566.83C982.714 567.815 982.123 567.618 980.253 565.55C979.17 564.369 977.399 563.385 976.414 563.483C975.43 563.582 971.788 563.779 968.244 563.976Z" fill="black" fill-opacity="0.9"/>
<path d="M995.805 572.54C995.805 576.969 996.1 578.051 997.675 578.544C1000.14 579.331 1004.17 584.056 1008.8 591.635C1010.96 595.278 1013.92 598.624 1016.28 600.003C1019.92 602.365 1020.32 603.054 1023.17 613.192C1027.8 629.04 1030.06 639.769 1031.83 653.55C1033.7 667.725 1033.01 674.714 1028.88 684.852C1026.71 690.365 1025.83 693.81 1023.37 707C1022.58 711.331 1021.1 714.087 1016.38 720.289C1013.03 724.62 1008.21 732.593 1005.55 738.007C1002.7 744.11 999.152 749.622 996.396 752.477C991.868 757.201 988.324 762.812 989.308 763.796C989.604 764.092 991.277 763.403 993.049 762.32C996.691 760.056 1001.12 754.347 1007.81 743.42C1010.37 739.385 1013.52 734.956 1015 733.577C1018.05 730.722 1020.41 725.604 1020.41 721.962C1020.41 720.682 1021.5 718.615 1022.68 717.434C1025.53 714.776 1027.5 709.461 1030.26 696.96C1031.54 691.251 1033.11 686.427 1034.29 685.148L1036.26 682.884L1035.87 690.266C1035.57 694.4 1033.7 703.654 1031.63 711.134C1027.21 727.474 1028.19 730.624 1034 718.32C1038.13 709.56 1038.62 704.933 1038.33 675.6C1038.03 650.499 1037.84 646.759 1035.77 637.702C1034.49 632.289 1032.62 623.331 1031.63 617.917C1030.06 609.748 1029.17 607.188 1025.83 602.168C1023.56 598.92 1019.63 592.521 1016.97 587.895C1010.57 576.575 1007.91 573.327 1002.79 569.98C996.494 566.043 995.805 566.239 995.805 572.54Z" fill="black" fill-opacity="0.9"/>
<path d="M828.664 568.897C827.975 569.192 825.908 572.441 824.038 576.083C821.38 581.399 820.298 582.678 818.821 582.285C817.64 581.989 816.656 582.678 815.868 584.352C815.277 585.729 815.081 586.91 815.573 586.91C816.065 586.91 816.754 587.993 817.049 589.372C817.837 592.62 818.723 592.423 820.79 588.879C821.774 587.206 823.94 585.139 825.613 584.155C827.286 583.269 829.747 581.595 831.027 580.513C833.094 578.642 833.192 578.249 832.11 573.327C831.519 570.571 830.83 568.208 830.535 568.306C830.141 568.306 829.353 568.602 828.664 568.897Z" fill="black" fill-opacity="0.9"/>
<path d="M847.269 573.326C846.777 574.705 846.284 575 845.792 574.311C844.611 572.244 842.249 574.311 836.244 582.58C832.996 587.107 829.452 591.34 828.369 591.832C826.204 593.013 826.007 595.08 827.582 599.608C828.763 602.856 830.437 603.546 832.307 601.282C833.094 600.396 833.094 599.215 832.504 597.443C831.322 594.392 832.011 593.506 834.472 595.08C837.032 596.655 839 595.278 842.839 589.47C846.777 583.564 850.123 580.02 851.797 580.02C852.486 580.02 853.076 579.134 853.076 577.953C853.076 573.13 848.647 569.586 847.269 573.326Z" fill="black" fill-opacity="0.9"/>
<path d="M913.318 576.969C911.152 578.642 906.624 583.761 903.278 588.584C899.832 593.309 894.812 599.904 892.056 603.152C889.201 606.4 885.756 610.633 884.378 612.503C881.523 616.244 877.291 626.185 878.177 627.071C878.472 627.367 879.752 627.071 881.031 626.481C882.607 625.792 883.886 623.823 884.969 620.575C886.347 616.539 887.43 615.161 891.268 612.799C894.419 610.83 898.749 606.204 904.951 598.132C909.872 591.734 915.581 584.647 917.55 582.481C919.42 580.414 920.799 578.051 920.503 577.264C920.208 576.575 920.011 575.492 920.011 575C920.011 573.326 917.353 574.114 913.318 576.969Z" fill="black" fill-opacity="0.9"/>
<path d="M938.222 577.658C937.336 579.036 936.843 580.414 937.139 580.709C937.926 581.595 941.667 578.051 941.667 576.378C941.667 574.311 940.092 574.902 938.222 577.658Z" fill="black" fill-opacity="0.9"/>
<path d="M893.336 580.118C891.466 582.383 888.316 586.024 886.248 588.191C884.28 590.356 881.721 593.899 880.54 596.164C879.457 598.329 877.685 601.774 876.701 603.644C875.618 605.514 874.732 608.074 874.732 609.353C874.732 611.322 875.224 611.618 877.488 611.322C879.949 611.027 880.145 610.732 879.85 607.286C879.654 604.137 879.85 603.644 881.721 603.644C884.575 603.644 888.414 599.215 891.859 592.128C894.025 587.501 895.108 586.32 896.387 586.615C898.749 587.206 901.506 582.973 901.112 579.331C900.62 574.803 897.273 575.197 893.336 580.118Z" fill="black" fill-opacity="0.9"/>
<path d="M970.212 581.004C967.063 582.087 963.716 584.056 962.141 585.828C960.074 588.19 958.597 588.879 955.94 588.879C951.215 588.879 945.506 594.195 941.568 602.168C939.107 607.286 938.221 608.172 936.45 607.877C934.58 607.483 933.595 608.664 930.15 614.669C927.886 618.705 925.13 622.741 924.145 623.627C922.57 625.004 922.373 626.284 922.768 630.024C923.555 637.899 924.244 637.998 928.87 631.305C931.134 627.859 935.761 622.051 939.009 618.212C942.356 614.373 947.868 607.877 951.313 603.743C955.251 598.919 958.4 596.065 960.172 595.573C961.649 595.278 963.815 594.588 964.996 594.293C966.768 593.702 967.161 593.998 967.456 596.36C967.653 597.836 968.342 599.313 969.13 599.51C970.114 599.805 970.311 599.412 969.917 597.836C968.638 592.915 973.756 583.957 977.89 583.957C979.071 583.957 979.268 585.533 978.973 593.013L978.58 602.168L981.828 602.07C984.387 601.873 984.977 602.266 984.977 603.94C984.977 605.023 986.356 608.074 988.128 610.732C990.195 614.078 991.278 617.228 991.671 620.674C991.868 623.528 992.951 628.352 994.132 631.501C996.002 636.816 996.002 637.899 994.919 645.282C992.36 662.705 986.848 679.734 979.761 692.432C976.118 698.929 974.544 700.701 970.902 702.571C969.819 703.063 966.177 707.492 962.929 712.414C958.794 718.517 955.742 721.863 953.282 723.242C950.132 724.915 949.541 725.702 949.541 728.557C949.541 731.51 949.345 731.805 947.179 731.215C945.013 730.722 944.816 730.919 944.325 736.235C943.734 742.043 944.226 744.503 945.309 740.664C945.702 738.893 946.588 738.499 949.443 738.499C953.774 738.4 957.219 735.644 963.815 726.687C966.472 723.143 971.295 717.434 974.642 713.89C982.32 705.819 984.387 702.078 991.868 683.868C996.691 672.056 997.971 667.823 998.266 662.705C998.463 659.161 999.251 654.534 1000.04 652.369C1003.68 642.231 1002.79 620.772 998.365 610.929C995.707 605.121 990.293 598.722 985.47 595.769L982.221 593.801L984.091 589.863C985.174 587.698 986.159 585.926 986.356 585.926C986.749 585.926 998.956 606.893 1001.51 612.011C1005.65 620.279 1007.03 627.268 1006.93 639.081C1006.83 656.306 1002.7 672.154 993.738 690.758C987.635 703.456 982.123 711.725 974.051 720.289C969.425 725.211 967.358 728.164 966.866 730.722C966.373 733.577 965.586 734.463 962.83 735.546C960.96 736.333 959.385 737.318 959.385 737.909C959.385 738.499 957.416 740.96 955.054 743.42C950.821 747.654 950.132 749.228 950.427 753.953C950.624 757.595 953.282 756.611 954.07 752.674C954.561 750.114 955.349 748.933 957.318 748.244C965.685 745.192 974.839 736.826 981.138 726.293C983.206 722.946 985.174 720.781 986.258 720.781C989.506 720.781 1003.39 689.282 1008.11 671.071C1011.85 656.405 1012.83 647.054 1012.24 630.812C1011.65 614.472 1009.49 601.479 1006.53 595.474C1003.98 590.651 997.577 583.662 993.049 580.808L989.604 578.642L988.128 580.808C986.356 583.466 985.47 583.466 983.009 581.004C980.548 578.544 977.201 578.544 970.212 581.004Z" fill="black" fill-opacity="0.9"/>
<path d="M973.362 588.781C971.492 589.962 972.279 593.211 974.544 593.604C977.004 594.097 978.382 592.423 977.595 589.962C976.906 587.796 975.528 587.403 973.362 588.781Z" fill="black" fill-opacity="0.9"/>
<path d="M808.092 590.553C805.336 591.045 805.237 593.506 807.797 596.655C809.667 598.821 809.864 598.92 812.226 597.345C814.589 595.769 815.77 590.848 813.801 590.848C813.309 590.848 812.325 590.651 811.537 590.454C810.848 590.258 809.273 590.356 808.092 590.553Z" fill="black" fill-opacity="0.9"/>
<path d="M1102.11 595.671C1102.11 598.427 1102.8 600.396 1104.57 602.365L1106.94 605.121L1107.04 601.38C1107.04 597.443 1104.67 591.832 1103.1 591.832C1102.51 591.832 1102.11 593.604 1102.11 595.671Z" fill="black" fill-opacity="0.9"/>
<path d="M821.774 598.919C819.215 601.479 820.987 609.55 824.136 609.55C825.318 609.55 825.514 608.467 825.318 603.94C825.022 598.329 823.94 596.754 821.774 598.919Z" fill="black" fill-opacity="0.9"/>
<path d="M957.712 601.774C956.137 603.349 956.038 605.81 957.613 607.385C959.286 609.058 957.712 610.043 955.152 608.862C952.889 607.779 952.396 608.369 945.998 617.228C929.165 640.754 910.168 662.705 904.36 665.461C899.537 667.725 896.387 672.745 896.387 678.06C896.387 680.423 896.879 682.588 897.47 682.883C897.962 683.278 900.128 682.392 902.195 681.013C904.164 679.635 906.329 678.454 907.018 678.454C908.593 678.454 910.07 675.206 910.365 671.17C910.66 667.134 910.956 666.937 912.826 669.3C914.105 670.973 914.302 670.875 915.779 668.611C916.665 667.232 919.716 663.886 922.571 661.228C925.327 658.472 928.477 654.929 929.461 653.353C930.544 651.68 933.399 648.137 936.056 645.479C938.615 642.722 943.34 636.521 946.588 631.6C953.184 621.461 959.483 615.161 965.882 612.405L970.212 610.436L974.347 612.799C976.709 614.177 979.072 615.063 979.662 614.866C980.253 614.571 981.139 616.047 981.631 618.016C983.403 625.201 988.226 624.808 987.734 617.425C987.439 614.669 986.553 613.389 982.222 610.043C979.367 607.877 976.513 605.023 975.823 603.644C974.249 600.494 969.917 600.003 965.291 602.463C961.944 604.333 961.846 604.333 960.369 602.463C959.188 600.987 958.696 600.79 957.712 601.774Z" fill="black" fill-opacity="0.9"/>
<path d="M1011.55 604.727C1011.55 606.597 1012.74 612.701 1014.21 618.409C1016.77 628.056 1016.87 630.024 1016.77 647.251C1016.67 661.13 1016.87 665.658 1017.76 665.362C1018.45 665.165 1019.43 663.295 1020.02 661.13C1021.69 655.125 1023.86 656.11 1023.47 662.705C1023.07 671.564 1020.51 681.112 1014.7 695.68C1011.46 704.047 1009.09 711.528 1008.8 714.678C1008.41 719.009 1007.91 720.092 1005.94 721.076C1003.29 722.258 1000.92 725.899 997.775 733.873C996.003 738.499 995.215 739.385 993.738 738.991C992.459 738.597 991.868 738.893 991.868 739.877C991.868 740.665 989.211 743.618 986.061 746.373C979.761 751.886 978.285 755.036 980.056 759.662L981.139 762.419L982.714 760.056C983.698 758.776 987.832 753.461 991.967 748.342C999.251 739.385 1004.66 730.132 1004.66 726.49C1004.66 725.407 1005.16 725.014 1006.04 725.309C1007.81 725.998 1009.68 722.454 1012.05 714.383C1013.13 710.446 1014.8 707.295 1017.17 704.835C1020.12 701.882 1020.81 700.306 1021.2 695.976C1021.5 692.924 1022.68 688.987 1024.25 686.329C1026.42 682.588 1026.81 680.521 1027.11 672.253C1027.4 666.937 1027.01 660.047 1026.42 656.996C1025.83 653.944 1024.84 646.168 1024.35 639.769C1022.68 622.15 1018.05 606.795 1013.13 602.758C1011.75 601.577 1011.55 601.873 1011.55 604.727Z" fill="black" fill-opacity="0.9"/>
<path d="M1080.75 606.794C1081.25 609.058 1085.18 620.969 1088.04 629.237C1088.92 631.698 1091.09 635.045 1092.96 636.816C1095.62 639.376 1096.21 640.655 1096.21 644.199C1096.21 649.613 1097.39 651.581 1099.16 649.416C1102.7 645.085 1086.56 604.826 1081.05 604.628C1080.65 604.628 1080.46 605.613 1080.75 606.794Z" fill="black" fill-opacity="0.9"/>
<path d="M814.687 608.665C814.687 611.224 814.391 611.618 812.521 611.322C810.749 611.125 810.159 611.618 809.962 613.389C809.371 617.031 811.34 618.114 813.998 615.654C815.277 614.472 816.754 613.488 817.443 613.488C819.412 613.488 819.707 611.618 818.132 608.566C816.163 604.727 814.687 604.826 814.687 608.665Z" fill="black" fill-opacity="0.9"/>
<path d="M870.105 613.487C868.137 617.13 865.282 620.181 859.278 624.906C857.211 626.678 853.962 630.812 852.191 634.159C848.352 641.345 845.792 644.199 843.824 643.412C843.036 643.117 842.052 643.608 841.56 644.691C839.985 647.742 840.674 649.416 843.43 649.711C845.399 649.908 847.367 648.727 852.289 644.199C855.636 641.049 859.475 637.899 860.754 637.21C863.018 636.029 863.018 635.34 861.246 630.419C860.951 629.729 861.64 629.237 863.215 629.237C866.168 629.237 869.614 625.201 872.862 618.016C874.732 613.685 874.732 613.094 873.354 611.716C871.976 610.338 871.681 610.534 870.105 613.487Z" fill="black" fill-opacity="0.9"/>
<path d="M804.253 615.949C804.351 619.197 805.828 619.197 805.828 615.949C805.828 614.57 805.434 613.487 804.942 613.487C804.45 613.487 804.154 614.57 804.253 615.949Z" fill="black" fill-opacity="0.9"/>
<path d="M968.244 617.425C967.456 617.917 965.586 618.409 964.11 618.409C960.467 618.409 954.758 625.201 945.112 641.148C938.615 651.778 934.973 656.503 924.539 667.43C917.55 674.812 910.463 681.506 908.789 682.293C907.117 683.179 903.966 686.231 901.801 689.184C898.651 693.318 896.584 694.893 892.745 696.369C886.839 698.534 880.638 704.736 880.638 708.476C880.638 710.839 880.736 710.839 884.378 709.559C895.403 705.622 905.935 698.338 922.373 683.08L932.808 673.336L932.906 668.315C933.004 665.461 933.3 664.378 933.497 665.855C934.284 670.776 937.138 668.709 943.635 658.373C945.899 654.83 948.557 651.68 949.64 651.385C950.722 650.991 951.51 649.908 951.51 648.53C951.51 644.002 952.691 640.164 953.971 640.655C954.561 640.95 957.416 638.096 960.172 634.159C963.027 630.32 966.373 626.678 967.752 626.087C969.819 625.201 970.212 624.315 970.212 620.674C970.212 618.409 970.114 616.44 970.016 616.44C969.819 616.44 969.031 616.933 968.244 617.425Z" fill="black" fill-opacity="0.9"/>
<path d="M971.788 620.575C971.492 621.264 971.098 623.823 970.902 626.087C970.508 629.138 969.721 630.91 968.047 631.993C963.913 634.946 961.55 638.195 956.825 647.251C954.168 652.566 950.034 658.57 947.081 661.819C944.226 664.772 940.781 669.497 939.304 672.253C937.926 675.009 935.564 678.159 934.087 679.242C932.513 680.325 926.508 686.132 920.602 692.038C914.204 698.534 908.888 703.063 907.313 703.358C905.935 703.653 900.226 706.606 894.714 709.953C886.937 714.678 883.689 716.056 880.145 716.351C877.192 716.548 874.83 717.336 873.747 718.419C871.483 720.781 870.007 727.671 871.779 727.671C874.534 727.671 893.434 721.372 900.029 718.221C906.821 714.973 912.137 710.248 912.137 707.393C912.137 706.607 912.628 706.016 913.121 706.016C913.711 706.016 914.105 706.902 914.105 707.984C914.105 709.067 914.597 709.953 915.09 709.953C915.68 709.953 916.074 709.56 916.074 709.067C916.074 708.575 919.125 705.721 922.964 702.669C927 699.42 930.051 696.074 930.445 694.597C930.839 693.121 931.627 692.333 932.414 692.628C933.201 692.924 935.466 691.054 937.926 688.199C940.289 685.541 944.62 680.718 947.671 677.667C952.987 672.154 954.66 669.3 963.027 650.893C966.472 643.412 972.772 634.454 973.855 635.439C974.051 635.635 973.067 639.376 971.689 643.608C968.933 652.074 964.405 661.228 964.306 658.472C964.306 656.11 962.338 656.306 962.338 658.768C962.338 659.85 962.732 660.736 963.224 660.736C963.617 660.736 962.436 664.477 960.566 669.004C957.711 675.698 956.432 677.568 953.675 679.044C951.904 680.029 947.278 684.655 943.537 689.38C935.268 699.815 927.393 707.197 918.043 713.398C908.298 719.895 892.548 727.474 885.362 729.148C878.275 730.722 875.617 733.085 875.42 737.613C875.224 740.271 875.716 741.058 877.783 741.747C881.13 743.027 885.56 740.862 892.45 734.463C899.044 728.36 901.801 727.081 910.66 726.195C919.617 725.309 923.358 723.143 934.284 711.922C939.206 707 945.013 701.783 947.376 700.405C949.64 699.027 952.298 696.566 953.184 694.794C956.53 688.199 960.763 683.081 963.815 681.801C966.768 680.62 967.555 679.34 971 670.383C975.627 658.669 978.087 647.644 978.087 639.081C978.087 633.765 977.89 633.174 976.02 633.174C974.346 633.174 974.051 632.682 974.346 629.533C974.741 624.611 976.414 624.414 979.466 628.942C981.926 632.486 982.024 633.273 982.024 646.561C982.024 659.063 981.828 660.638 980.056 662.212C977.989 664.083 975.528 670.678 974.544 677.273C974.051 680.127 973.461 681.309 972.674 681.013C971.984 680.816 969.425 683.081 966.866 686.132C957.121 698.338 951.805 704.047 947.081 707.591C944.423 709.658 940.486 713.201 938.32 715.564C933.398 721.076 925.819 726.588 921.586 727.769C919.125 728.459 917.944 729.541 917.157 731.805C914.105 740.566 907.018 745.291 895.796 746.078C888.709 746.669 888.513 746.768 888.513 749.228C888.513 752.378 890.185 754.248 892.942 754.248C896.977 754.248 911.054 746.373 920.208 738.991C927.393 733.184 930.051 731.608 932.513 731.608C934.875 731.608 936.843 730.624 939.6 728.164C941.667 726.293 944.127 724.718 945.013 724.718C945.899 724.718 946.588 724.127 946.588 723.34C946.588 720.879 950.624 716.843 955.546 714.383C958.204 713.004 960.96 710.937 961.649 709.658C962.436 708.476 964.503 705.031 966.275 701.882C968.047 698.83 970.606 695.877 971.886 695.286C973.362 694.597 974.15 693.416 974.15 691.644C974.15 690.07 975.627 687.412 977.989 684.754C985.372 676.387 989.899 659.653 989.899 641.148V631.6L985.273 627.071C982.615 624.513 978.875 621.756 976.906 620.87C972.476 619.098 972.181 619.098 971.788 620.575Z" fill="black" fill-opacity="0.9"/>
<path d="M821.282 620.969C820.888 621.362 820.593 622.544 820.593 623.528C820.593 624.808 819.904 625.3 818.132 625.3C816.262 625.3 815.573 625.989 815.081 627.957C814.195 632.387 813.801 633.175 812.817 633.175C812.324 633.175 811.537 632.289 811.242 631.206C810.946 630.123 809.962 629.237 809.174 629.237C807.501 629.237 807.206 637.604 808.781 638.588C809.371 638.883 809.765 638.293 809.765 637.211C809.765 635.537 810.159 635.439 812.521 636.128C817.345 637.506 823.152 633.863 825.318 628.154C826.105 626.087 825.908 625.103 824.235 622.937C823.054 621.461 821.676 620.575 821.282 620.969Z" fill="black" fill-opacity="0.9"/>
<path d="M1059.79 625.497C1059.89 633.863 1061.85 644.789 1066.19 660.736C1068.55 669.694 1071.7 684.065 1073.08 692.628C1075.83 709.067 1078.29 717.434 1081.34 720.19C1085.08 723.537 1084.79 718.615 1080.56 706.311C1079.47 702.964 1078.49 698.732 1078.49 696.96C1078.49 695.188 1077.6 691.349 1076.52 688.494C1073.08 679.439 1070.81 669.89 1066.68 646.956C1064.51 634.749 1062.45 624.02 1062.15 623.036C1061.17 619.886 1059.79 621.362 1059.79 625.497Z" fill="black" fill-opacity="0.9"/>
<path d="M871.385 629.828C870.4 631.206 868.825 635.439 867.841 639.376C866.66 644.298 865.872 645.971 865.38 644.691C864.396 642.231 861.246 642.624 860.557 645.184C860.262 646.463 857.998 648.727 855.537 650.204C851.107 653.058 849.631 655.617 850.32 659.85C850.517 661.622 851.107 662.114 852.584 661.917C856.324 661.326 862.427 656.306 864.593 651.976C865.774 649.613 867.644 646.66 868.727 645.577C871.09 643.018 877.685 629.04 877.094 628.056C876.011 626.383 872.96 627.367 871.385 629.828Z" fill="black" fill-opacity="0.9"/>
<path d="M917.058 631.205C916.369 632.486 912.432 637.111 908.199 641.64C903.966 646.168 900.029 651.286 899.34 653.255C898.651 655.519 897.568 656.798 896.19 656.996C893.04 657.487 889.792 662.311 891.071 664.476C892.647 666.839 895.698 666.543 896.879 663.886C897.372 662.704 898.651 661.72 899.635 661.72C900.718 661.72 902.096 660.244 903.179 657.783C904.164 655.617 905.246 654.141 905.64 654.534C906.427 655.42 917.747 644.396 919.617 640.852C921.291 637.604 921.291 634.356 919.617 631.304L918.338 628.942L917.058 631.205Z" fill="black" fill-opacity="0.9"/>
<path d="M882.212 634.06C880.047 638.096 880.244 639.081 883.098 639.081C885.756 639.081 886.347 638.293 886.741 634.159C887.134 630.517 884.083 630.419 882.212 634.06Z" fill="black" fill-opacity="0.9"/>
<path d="M823.742 641.541C823.053 643.018 822.168 646.266 821.872 648.825C821.282 652.96 821.38 653.255 822.857 651.976C825.121 650.204 826.892 643.215 825.81 640.754C825.022 638.982 824.825 639.08 823.742 641.541Z" fill="black" fill-opacity="0.9"/>
<path d="M877.094 639.868C875.519 640.852 873.747 644.593 873.747 646.857C873.747 650.991 878.767 648.137 879.949 643.313C880.44 640.951 878.767 638.785 877.094 639.868Z" fill="black" fill-opacity="0.9"/>
<path d="M884.574 647.447C883.295 650.893 883.295 657.488 884.673 658.275C886.346 659.358 886.937 658.078 887.331 651.976C887.823 645.676 886.248 643.117 884.574 647.447Z" fill="black" fill-opacity="0.9"/>
<path d="M815.277 649.318C814.588 652.074 816.065 656.799 817.64 656.799C819.116 656.799 818.526 647.742 817.049 647.251C816.36 647.054 815.671 647.94 815.277 649.318Z" fill="black" fill-opacity="0.9"/>
<path d="M832.602 651.385C829.353 654.929 828.074 658.373 828.664 661.228C828.861 662.607 829.944 662.114 834.177 658.669C838.508 655.027 839.295 653.846 839.098 651.385C838.705 647.251 836.244 647.251 832.602 651.385Z" fill="black" fill-opacity="0.9"/>
<path d="M878.275 651.877C874.928 652.96 871.876 655.519 870.794 658.373C870.204 659.752 868.727 660.736 866.463 661.13C861.935 662.016 855.537 666.346 843.921 676.584C834.866 684.459 834.57 684.852 837.13 685.345C844.512 686.919 854.355 682.195 863.608 672.843C867.546 668.906 871.286 665.658 872.074 665.658C872.762 665.658 874.829 664.575 876.7 663.197C878.57 661.819 880.539 660.736 881.031 660.736C881.621 660.736 882.114 658.57 882.114 655.815C882.114 653.058 881.917 650.893 881.621 650.991C881.326 650.991 879.85 651.483 878.275 651.877Z" fill="black" fill-opacity="0.9"/>
<path d="M978.087 657.291C978.087 659.161 978.58 660.736 979.071 660.736C979.662 660.736 980.056 659.161 980.056 657.291C980.056 655.42 979.662 653.846 979.071 653.846C978.58 653.846 978.087 655.42 978.087 657.291Z" fill="black" fill-opacity="0.9"/>
<path d="M1089.32 657.291C1088.33 658.472 1088.53 660.441 1090.79 668.316C1092.17 673.631 1094.24 679.537 1095.32 681.407L1097.29 684.852L1096.9 678.258C1096.5 673.237 1095.72 670.481 1093.26 666.15C1090.7 661.622 1090.3 660.441 1091.39 659.161C1092.17 658.177 1092.27 657.389 1091.58 656.701C1090.89 656.011 1090.2 656.208 1089.32 657.291Z" fill="black" fill-opacity="0.9"/>
<path d="M838.213 663.984C829.944 671.761 826.302 676.486 828.665 676.486C831.027 676.486 844.611 669.595 847.367 666.937C849.434 664.969 849.926 663.788 849.434 661.819C848.843 659.063 847.367 656.799 846.284 656.799C845.989 656.897 842.347 660.047 838.213 663.984Z" fill="black" fill-opacity="0.9"/>
<path d="M821.577 665.658C821.577 671.564 822.758 671.957 824.53 666.741C825.81 662.705 825.318 660.736 822.955 660.736C821.971 660.736 821.577 662.016 821.577 665.658Z" fill="black" fill-opacity="0.9"/>
<path d="M886.248 667.134C884.279 668.906 882.803 669.399 881.13 669.004C879.358 668.611 878.669 668.906 878.177 670.481C877.684 672.056 876.7 672.548 874.436 672.548C870.597 672.548 868.432 673.926 859.08 682.588C854.848 686.526 850.517 689.675 848.942 689.971C845.398 690.66 844.709 692.137 845.89 696.763L846.678 700.306L851.599 695.976C858.687 689.675 881.13 673.533 882.902 673.533C883.098 673.533 883 675.107 882.803 676.977C882.212 681.801 883.788 681.309 886.937 675.501C888.414 672.843 890.284 670.185 891.17 669.792C892.351 669.103 892.45 668.513 891.564 666.741C890.087 664.181 889.694 664.181 886.248 667.134Z" fill="black" fill-opacity="0.9"/>
<path d="M813.998 668.118C813.702 669.004 813.702 669.89 813.998 670.185C814.884 671.071 816.655 669.595 816.655 668.02C816.655 666.15 814.785 666.248 813.998 668.118Z" fill="black" fill-opacity="0.9"/>
<path d="M1013.52 668.217C1013.52 669.201 1011.06 677.076 1008.11 685.836C1005.16 694.696 1002.7 702.373 1002.7 703.063C1002.7 703.752 1001.42 705.917 999.94 707.886C998.365 709.855 994.92 715.17 992.262 719.698C989.604 724.226 984.387 731.018 980.745 734.758C974.642 740.96 970.311 747.752 970.213 751.098C970.213 752.674 980.056 745.192 986.454 738.893C991.474 733.873 995.313 727.081 996.396 721.372C996.79 718.91 998.365 716.253 1000.63 713.989C1002.99 711.627 1005.94 706.311 1009.49 698.239C1016.08 683.179 1017.46 678.553 1017.46 671.859C1017.46 667.331 1017.26 666.642 1015.49 666.642C1014.31 666.642 1013.52 667.331 1013.52 668.217Z" fill="black" fill-opacity="0.9"/>
<path d="M807.009 671.662C807.206 673.533 807.797 674.91 808.289 674.714C809.765 674.419 809.47 669.299 807.993 668.808C807.009 668.512 806.714 669.299 807.009 671.662Z" fill="black" fill-opacity="0.9"/>
<path d="M1052.5 683.474C1051.52 688.494 1051.81 695.09 1053.39 704.539C1054.28 709.362 1055.26 717.926 1055.75 723.439C1056.24 728.951 1056.93 733.873 1057.33 734.463C1060.08 739.09 1060.67 723.734 1058.21 706.508C1057.43 700.503 1056.54 692.727 1056.15 689.085C1055.46 681.506 1053.49 678.454 1052.5 683.474Z" fill="black" fill-opacity="0.9"/>
<path d="M823.644 685.345C822.266 689.872 822.266 690.266 823.546 690.266C824.137 690.266 824.53 689.577 824.53 688.691C824.53 687.412 825.219 687.215 828.468 687.805C832.011 688.396 832.405 688.298 832.405 686.427C832.405 685.246 831.814 684.36 831.224 684.36C830.535 684.36 828.763 683.769 827.385 682.982C824.826 681.702 824.727 681.702 823.644 685.345Z" fill="black" fill-opacity="0.9"/>
<path d="M876.503 683.08C875.618 684.065 874.534 685.836 873.944 686.919C873.353 688.101 871.483 689.282 869.711 689.675C863.904 690.857 857.998 695.09 856.029 699.42C855.045 701.684 854.257 703.653 854.454 703.752C854.749 704.145 872.467 694.695 874.436 693.023C876.799 691.054 881.622 683.179 881.031 682.293C880.145 680.915 878.078 681.309 876.503 683.08Z" fill="black" fill-opacity="0.9"/>
<path d="M887.331 683.868C885.165 686.034 882.606 692.038 882.606 695.09C882.606 696.664 891.761 689.479 893.237 686.624C895.993 681.506 891.662 679.439 887.331 683.868Z" fill="black" fill-opacity="0.9"/>
<path d="M815.179 684.262C811.045 685.148 810.553 689.38 814.195 691.841C815.671 692.825 817.049 693.121 817.541 692.628C818.624 691.447 819.805 683.376 818.92 683.474C818.427 683.573 816.852 683.868 815.179 684.262Z" fill="black" fill-opacity="0.9"/>
<path d="M1086.07 690.857C1085.28 691.644 1086.27 696.271 1087.35 697.452C1088.33 698.534 1089.71 692.628 1088.83 691.251C1088.14 690.168 1086.96 689.971 1086.07 690.857Z" fill="black" fill-opacity="0.9"/>
<path d="M838.311 693.219C837.523 693.711 836.047 693.909 835.161 693.613C833.783 693.219 833.389 693.711 833.389 695.976C833.389 699.716 832.405 700.503 830.732 698.141C828.96 695.581 828.566 695.68 824.825 699.224C819.805 703.85 820.494 705.031 827.877 705.031C838.606 705.031 844.119 701.685 843.429 695.68C843.036 692.137 841.362 691.251 838.311 693.219Z" fill="black" fill-opacity="0.9"/>
<path d="M877.882 695.385C876.208 697.058 876.405 700.11 878.177 700.11C879.85 700.11 882.016 696.566 881.13 695.188C880.342 693.909 879.358 693.909 877.882 695.385Z" fill="black" fill-opacity="0.9"/>
<path d="M871.581 702.275C869.809 704.047 868.825 706.212 868.825 707.984C868.825 711.232 869.121 711.43 871.778 709.953C873.944 708.772 876.503 701.487 875.125 700.208C874.633 699.716 873.058 700.602 871.581 702.275Z" fill="black" fill-opacity="0.9"/>
<path d="M860.459 709.855C859.573 711.627 859.376 713.004 859.966 713.398C861.049 714.087 864.888 712.217 864.888 710.937C864.888 710.544 865.184 709.461 865.479 708.575C866.66 705.523 862.132 706.803 860.459 709.855Z" fill="black" fill-opacity="0.9"/>
<path d="M876.11 709.46C875.814 710.839 875.715 712.217 876.011 712.512C876.996 713.496 878.668 711.823 878.668 709.953C878.668 707 876.798 706.705 876.11 709.46Z" fill="black" fill-opacity="0.9"/>
<path d="M851.206 708.87C848.942 709.461 846.973 712.611 847.859 714.087C848.351 715.071 852.19 715.071 853.765 714.087C854.356 713.694 855.242 712.118 855.537 710.642C856.324 707.788 855.734 707.591 851.206 708.87Z" fill="black" fill-opacity="0.9"/>
<path d="M844.808 710.445C844.414 711.627 843.823 711.823 842.347 710.937C840.969 710.248 840.181 710.248 839.788 710.937C838.508 713.004 840.181 714.875 843.233 714.875C845.891 714.875 846.186 714.58 846.186 711.922C846.186 708.674 845.694 708.181 844.808 710.445Z" fill="black" fill-opacity="0.9"/>
<path d="M831.421 712.808C829.846 715.859 830.24 718.812 832.208 718.812C834.768 718.812 836.343 716.843 836.343 713.694C836.343 711.627 835.85 710.937 834.374 710.937C833.39 710.937 832.011 711.823 831.421 712.808Z" fill="black" fill-opacity="0.9"/>
<path d="M824.53 714.875C824.53 716.154 825.022 716.647 826.007 716.253C826.794 715.859 827.483 715.071 827.483 714.284C827.483 713.497 826.794 712.906 826.007 712.906C825.219 712.906 824.53 713.792 824.53 714.875Z" fill="black" fill-opacity="0.9"/>
<path d="M1047.58 726.883C1047.09 732.789 1046.01 736.137 1041.48 745.685C1038.43 752.083 1036.16 757.497 1036.46 757.792C1037.34 758.678 1040.69 756.414 1042.46 753.756C1043.45 752.279 1044.24 749.13 1044.33 746.768C1044.43 744.405 1044.83 742.436 1045.32 742.436C1045.71 742.436 1046.89 740.96 1047.98 739.188C1049.45 736.826 1049.94 734.266 1049.94 729.148C1049.94 719.403 1048.47 718.024 1047.58 726.883Z" fill="black" fill-opacity="0.9"/>
<path d="M850.32 723.34C850.517 724.816 851.206 726.195 851.895 726.49C852.879 726.785 853.174 726.096 852.879 724.127C852.682 722.651 851.993 721.273 851.304 720.977C850.32 720.682 850.024 721.372 850.32 723.34Z" fill="black" fill-opacity="0.9"/>
<path d="M858.391 722.159C857.604 724.325 858.293 727.967 859.769 728.459C860.557 728.655 860.951 727.573 860.951 724.816C860.951 720.879 859.474 719.403 858.391 722.159Z" fill="black" fill-opacity="0.9"/>
<path d="M865.479 722.356C864.593 724.718 864.79 728.655 865.873 728.655C867.152 728.655 868.826 725.309 868.826 722.848C868.826 720.387 866.365 720.092 865.479 722.356Z" fill="black" fill-opacity="0.9"/>
<path d="M837.917 724.325C836.933 726.982 837.228 728.655 838.803 728.655C839.689 728.655 840.28 727.769 840.28 726.293C840.28 723.34 838.803 722.159 837.917 724.325Z" fill="black" fill-opacity="0.9"/>
<path d="M830.042 726.293C829.649 727.179 829.649 728.164 829.944 728.459C830.534 729.049 833.389 726.687 833.389 725.604C833.389 724.029 830.633 724.62 830.042 726.293Z" fill="black" fill-opacity="0.9"/>
<path d="M1024.35 730.427C1024.35 731.116 1021.99 734.266 1019.04 737.416C1014.31 742.534 1011.36 748.539 1012.83 750.016C1013.82 750.902 1018.54 747.063 1021.3 743.027C1024.65 738.105 1026.71 731.608 1025.34 730.231C1024.65 729.541 1024.35 729.64 1024.35 730.427Z" fill="black" fill-opacity="0.9"/>
<path d="M902.687 732.494C899.93 734.168 895.403 739.385 895.403 740.862C895.403 741.649 907.313 740.369 909.282 739.385C910.168 738.893 911.447 737.219 911.939 735.546C912.825 733.085 912.727 732.494 911.152 731.608C908.396 730.132 906.132 730.427 902.687 732.494Z" fill="black" fill-opacity="0.9"/>
<path d="M869.023 735.152C866.463 736.924 866.168 741.255 868.432 742.141C870.4 742.929 872.763 740.074 872.763 736.924C872.763 733.873 871.581 733.38 869.023 735.152Z" fill="black" fill-opacity="0.9"/>
<path d="M937.04 735.94C933.989 737.416 933.694 744.405 936.647 744.405C939.108 744.405 941.667 740.763 941.667 737.318C941.667 734.365 940.682 734.07 937.04 735.94Z" fill="black" fill-opacity="0.9"/>
<path d="M852.781 737.909C851.796 740.369 851.895 744.405 852.977 744.405C854.257 744.405 855.045 740.566 854.159 738.204C853.47 736.432 853.371 736.333 852.781 737.909Z" fill="black" fill-opacity="0.9"/>
<path d="M1032.42 737.711C1030.75 739.385 1030.95 744.405 1032.62 744.405C1034.19 744.405 1035.18 742.338 1035.18 738.893C1035.18 736.333 1034.19 735.94 1032.42 737.711Z" fill="black" fill-opacity="0.9"/>
<path d="M858.982 740.369C858.982 741.452 859.474 742.633 859.966 742.929C860.557 743.322 860.951 742.436 860.951 741.058C860.951 739.68 860.557 738.499 859.966 738.499C859.474 738.499 858.982 739.385 858.982 740.369Z" fill="black" fill-opacity="0.9"/>
<path d="M926.409 742.436C924.834 743.519 922.275 745.98 920.7 748.047C918.141 751.492 918.042 751.886 919.617 752.969C921.881 754.642 921.881 754.642 927.098 752.279C931.036 750.607 931.626 749.819 932.217 746.669C932.512 744.602 932.808 742.338 932.808 741.649C932.808 739.877 929.756 740.172 926.409 742.436Z" fill="black" fill-opacity="0.9"/>
<path d="M883.098 747.654C882.114 750.114 883 753.756 884.575 753.756C886.642 753.756 886.937 750.705 885.165 748.145C883.886 746.373 883.591 746.275 883.098 747.654Z" fill="black" fill-opacity="0.9"/>
<path d="M831.224 750.705C829.058 755.528 834.57 758.087 843.429 756.414C846.776 755.725 848.745 755.823 850.517 756.709C853.273 758.186 854.06 757.792 854.06 754.741C854.06 750.409 851.501 749.622 845.201 751.984C839.394 754.051 839.394 754.051 837.622 752.083C834.275 748.342 832.503 748.047 831.224 750.705Z" fill="black" fill-opacity="0.9"/>
<path d="M873.944 749.819C869.809 751.591 870.302 753.658 874.928 754.051C877.684 754.248 878.865 753.855 880.047 752.083C880.933 750.902 881.621 749.523 881.621 749.13C881.621 747.85 877.487 748.244 873.944 749.819Z" fill="black" fill-opacity="0.9"/>
<path d="M865.479 751.788C865.183 752.575 864.199 753.264 863.313 753.264C861.147 753.264 862.132 755.627 864.593 756.02C866.955 756.414 869.219 753.855 868.432 751.788C867.743 749.917 866.266 749.917 865.479 751.788Z" fill="black" fill-opacity="0.9"/>
<path d="M945.604 752.279C945.604 753.362 946.096 754.248 946.588 754.248C947.179 754.248 947.573 753.362 947.573 752.279C947.573 751.197 947.179 750.311 946.588 750.311C946.096 750.311 945.604 751.197 945.604 752.279Z" fill="black" fill-opacity="0.9"/>
<path d="M964.011 753.067C962.239 754.937 961.353 756.808 961.55 758.284L961.846 760.45L964.602 758.087C966.768 756.316 967.358 754.937 967.063 752.87L966.768 750.114L964.011 753.067Z" fill="black" fill-opacity="0.9"/>
<path d="M908.396 754.248C906.624 755.331 904.655 757.3 904.064 758.678C903.08 760.843 902.883 760.942 901.801 759.466C899.635 756.513 897.371 758.58 897.371 763.6C897.371 768.816 899.635 769.801 901.604 765.273C902.391 763.403 903.376 762.714 904.557 762.91C908.1 763.6 911.251 762.024 914.105 757.989C915.778 755.823 917.058 753.56 917.058 753.067C917.058 751.591 911.644 752.279 908.396 754.248Z" fill="black" fill-opacity="0.9"/>
<path d="M857.013 754.937C857.013 756.118 857.506 757.398 857.998 757.694C859.277 758.481 859.277 756.217 857.998 754.248C857.21 753.067 857.013 753.165 857.013 754.937Z" fill="black" fill-opacity="0.9"/>
<path d="M932.316 758.185C931.627 760.253 933.399 764.486 934.678 763.698C935.662 763.107 934.776 756.217 933.792 756.217C933.3 756.217 932.709 757.103 932.316 758.185Z" fill="black" fill-opacity="0.9"/>
<path d="M1050.93 758.383C1050.93 759.071 1051.42 760.352 1051.91 761.139C1052.7 762.32 1052.9 762.222 1052.9 760.45C1052.9 759.269 1052.5 757.989 1051.91 757.694C1051.42 757.399 1050.93 757.694 1050.93 758.383Z" fill="black" fill-opacity="0.9"/>
<path d="M1031.44 760.45C1028.58 763.501 1028.68 764.879 1031.73 764.289C1033.11 764.091 1034.19 763.305 1034.19 762.615C1034.19 761.828 1034.49 760.647 1034.79 759.761C1035.67 757.497 1033.9 757.89 1031.44 760.45Z" fill="black" fill-opacity="0.9"/>
<path d="M926.311 760.647C925.917 761.631 924.342 762.123 921.389 762.123C915.68 762.123 909.577 764.682 907.214 768.029C902.785 774.231 905.541 775.412 915.089 771.573C918.239 770.293 922.275 768.915 923.85 768.521C926.114 768.029 926.901 767.34 926.901 765.765C926.901 764.584 927.787 763.009 928.87 762.32C930.051 761.631 930.641 760.647 930.346 760.154C929.46 758.678 926.901 758.973 926.311 760.647Z" fill="black" fill-opacity="0.9"/>
<path d="M971.295 761.729C969.031 764.682 968.539 768.029 970.507 768.029C972.969 767.93 977.004 763.403 976.414 761.237C975.725 758.481 973.756 758.678 971.295 761.729Z" fill="black" fill-opacity="0.9"/>
<path d="M888.315 761.237C885.756 762.714 886.15 764.387 889.595 766.356C893.335 768.423 894.418 767.832 894.418 763.501C894.418 760.647 894.123 760.154 892.252 760.154C890.973 760.154 889.201 760.647 888.315 761.237Z" fill="black" fill-opacity="0.9"/>
<path d="M954.168 760.843C952.593 762.32 953.577 764.19 955.644 763.895C958.499 763.501 959.385 760.154 956.628 760.154C955.644 760.154 954.463 760.45 954.168 760.843Z" fill="black" fill-opacity="0.9"/>
<path d="M947.573 767.734C947.573 770.195 949.049 771.474 950.033 769.899C950.427 769.309 950.033 768.128 949.147 767.242C947.671 765.765 947.573 765.765 947.573 767.734Z" fill="black" fill-opacity="0.9"/>
<path d="M983.305 767.242C982.714 767.93 982.024 769.309 981.729 770.195C981.237 771.573 981.631 771.967 983.403 771.967C985.667 771.967 986.946 770.293 986.946 767.439C986.946 765.765 984.584 765.667 983.305 767.242Z" fill="black" fill-opacity="0.9"/>
<path d="M861.443 769.013C861.148 769.506 861.345 770.883 861.935 772.065C863.018 774.034 863.117 774.034 864.396 772.262C865.184 771.278 865.873 769.899 865.873 769.211C865.873 767.832 862.329 767.635 861.443 769.013Z" fill="black" fill-opacity="0.9"/>
<path d="M960.862 769.997C959.877 771.081 958.499 771.966 957.711 771.966C956.235 771.966 956.038 774.722 957.318 776.789C958.007 777.872 958.991 777.577 962.239 775.018C966.472 771.671 967.654 768.029 964.503 768.029C963.42 768.029 961.846 768.915 960.862 769.997Z" fill="black" fill-opacity="0.9"/>
<path d="M940.485 772.459C938.221 775.412 938.221 778.168 940.386 777.675C942.257 777.282 944.225 772.163 943.044 770.982C942.553 770.49 941.371 771.179 940.485 772.459Z" fill="black" fill-opacity="0.9"/>
<path d="M925.622 775.608C924.441 776.691 924.835 777.873 926.409 777.873C927.197 777.873 927.886 777.184 927.886 776.396C927.886 774.821 926.705 774.427 925.622 775.608Z" fill="black" fill-opacity="0.9"/>
</svg>
