<svg width="1920" height="931" viewBox="0 0 1920 931" fill="none" xmlns="http://www.w3.org/2000/svg">
<path d="M924.667 381.417C913.912 385.484 903.157 392.533 898.547 398.679C896.378 401.571 893.034 404.463 890.142 406.09C885.623 408.711 877.67 416.213 877.67 417.93C877.67 418.382 882.279 423.172 887.882 428.595C900.987 441.338 903.428 445.676 906.049 461.222C906.41 463.481 906.049 464.566 904.603 465.921L902.705 467.729L905.958 476.134C907.675 480.744 909.845 487.16 910.658 490.324C912.827 498.91 918.431 511.201 925.48 522.86L931.716 533.344L933.434 547.082C934.428 554.855 934.789 560.91 934.337 560.91C933.886 560.91 928.734 557.928 922.95 554.222C917.075 550.516 910.116 546.811 907.404 545.907C904.693 545.094 901.71 543.648 900.716 542.834C899.722 541.93 897.463 541.027 895.745 540.665C889.328 539.49 883.273 535.513 869.174 523.493C852.363 509.032 851.369 508.219 848.387 508.671C846.85 508.852 844.32 507.496 839.801 504.061L833.384 499.271L836.185 496.108C837.631 494.391 838.806 492.583 838.626 492.041C838.445 491.499 836.818 490.595 835.01 489.962C829.859 488.245 821.905 480.021 819.736 474.236C818.742 471.525 816.483 467.639 814.675 465.741C811.512 462.216 811.512 462.035 812.054 456.16C812.416 452.907 812.868 448.568 813.139 446.58C813.5 443.778 813.229 442.332 811.512 439.892C810.337 438.175 808.529 436.458 807.354 436.096C804.733 435.102 802.112 437.723 797.232 446.128C791.628 455.98 789.821 461.764 789.278 472.338C788.917 480.744 788.555 482.099 786.386 485.172C784.398 487.883 783.765 490.053 783.223 495.475C782.862 499.271 782.952 502.706 783.404 503.158C783.946 503.7 809.252 507.586 812.777 507.586C813.048 507.586 814.494 508.58 815.94 509.755C817.386 511.021 819.646 512.286 820.911 512.557C822.177 512.919 825.701 515.72 828.865 518.884C834.287 524.397 834.559 524.849 833.564 527.018C832.932 528.373 832.751 529.91 833.112 530.543C833.564 531.266 836.908 534.158 840.614 537.14C844.32 540.123 850.827 545.455 855.075 549.07C859.323 552.595 866.643 557.837 871.343 560.639C894.028 573.925 895.113 574.738 906.952 586.487C913.279 592.814 920.6 599.592 923.221 601.49C930.541 607.004 931.084 607.998 935.512 623.091C937.681 630.683 941.387 635.383 948.888 640.173C952.052 642.252 954.221 644.421 955.034 646.409C956.48 649.934 956.751 657.616 955.396 657.616C951.419 657.616 938.495 648.307 923.13 634.208C911.11 623.272 907.314 618.572 905.687 612.426C904.422 607.546 900.084 598.869 898.999 598.869C898.547 598.869 898.547 601.039 898.818 603.569L899.451 608.359L895.565 604.744C888.334 597.966 886.888 596.881 885.804 597.514C885.171 597.875 885.984 599.592 888.244 602.304L891.678 606.552L886.436 602.213C883.454 599.864 880.742 597.966 880.381 597.966C877.85 597.966 879.025 600.496 883.273 604.473C887.702 608.721 887.159 608.721 880.742 604.654C879.206 603.569 878.212 603.388 877.579 604.021C876.946 604.654 877.941 606.1 880.742 608.45C885.352 612.246 885.533 613.33 881.285 611.071C876.223 608.45 876.314 610.167 881.465 614.053C884.267 616.132 887.34 618.934 888.334 620.289C889.328 621.735 892.853 624.266 896.107 625.893C901.439 628.514 903.157 630.141 911.833 640.715C928.192 660.779 930.993 664.575 930.993 666.564C930.993 667.739 932.078 669.094 933.976 670.179C938.133 672.619 945.454 678.584 945.454 679.488C945.454 681.024 941.297 680.03 933.162 676.505C924.396 672.619 910.839 662.587 902.162 653.639L898.095 649.572L898.005 641.619C897.824 633.123 895.926 626.887 893.576 626.887C892.492 626.887 892.401 627.881 892.763 631.858C893.486 638.907 891.678 638.456 885.261 629.779C879.929 622.73 877.941 620.56 876.585 620.56C875.229 620.56 875.862 623.001 878.212 627.249C879.567 629.598 880.381 631.677 880.2 631.858C880.019 632.129 877.67 630.05 874.958 627.249C869.083 621.193 866.914 619.837 865.83 621.555C865.288 622.458 867.005 624.808 871.614 629.508L878.121 636.196L871.885 631.948C868.541 629.689 865.107 627.791 864.474 627.791C861.853 627.791 863.39 630.321 869.174 635.383C872.428 638.275 874.868 640.805 874.687 641.077C874.416 641.257 872.608 640.625 870.53 639.631C866.191 637.371 865.92 637.371 865.92 638.998C865.92 639.721 867.276 641.257 868.903 642.432C874.054 646.047 903.157 671.354 912.375 680.211C917.256 684.911 922.678 690.605 924.305 692.864C925.932 695.123 929.457 698.377 932.168 700.094C939.76 704.975 970.037 725.129 972.116 726.666C973.833 727.931 973.833 728.022 971.031 728.654C969.405 728.925 967.597 729.829 967.055 730.462C966.512 731.185 965.247 731.727 964.343 731.727C963.168 731.727 962.626 732.36 962.626 733.625C962.626 734.619 961.451 736.517 960.005 737.873C958.559 739.229 957.113 741.759 956.751 743.476C956.39 745.194 955.486 747.092 954.763 747.634C953.679 748.357 953.498 749.713 953.95 753.509C954.221 756.22 954.582 759.654 954.763 761.1C955.034 765.168 965.428 777.911 967.687 777.188C968.32 777.007 969.947 777.911 971.483 779.176C972.929 780.442 974.737 781.436 975.37 781.436C976.002 781.436 977.268 782.159 978.262 783.063C979.889 784.509 980.069 784.509 982.6 781.436C984.046 779.719 985.763 778.273 986.396 778.273C987.752 778.273 994.892 772.488 999.862 767.427C1010.35 756.581 1011.25 755.407 1013.6 748.267C1014.87 744.38 1015.95 740.946 1015.95 740.584C1015.95 740.223 1013.87 738.867 1011.43 737.602C1006.1 734.89 1005.47 733.625 1004.65 723.955L1004.02 716.815L1007.82 710.94C1017.58 695.485 1019.2 689.43 1017.31 675.692C1016.58 670.45 1015.59 662.858 1015.14 658.791C1013.51 645.505 1011.25 640.354 990.101 600.677C987.842 596.429 984.679 591.549 983.052 589.831C981.244 587.934 979.798 585.313 979.437 583.234C978.533 578.353 973.472 563.079 968.772 550.968C966.512 545.274 963.982 538.134 963.078 535.152C962.265 532.169 960.638 528.102 959.553 526.114C958.469 524.126 956.751 520.51 955.848 518.07C954.854 515.268 952.594 512.015 949.883 509.303C947.442 507.044 945.454 504.513 945.454 503.79C945.454 502.977 944.189 500.898 942.743 499C941.206 497.102 939.308 493.306 938.585 490.505C935.874 481.376 927.469 461.493 924.757 458.058C922.769 455.528 918.34 445.044 918.34 442.875C918.34 442.784 919.786 441.88 921.504 440.796C924.486 439.079 924.667 438.717 924.667 434.108C924.667 430.854 924.215 428.775 923.311 428.052C920.78 425.974 920.238 421.364 921.594 412.507C923.492 399.854 923.673 399.312 927.92 394.522C932.349 389.551 933.434 386.478 932.259 382.953C931.265 380.242 929.095 379.79 924.667 381.417Z" fill="black" fill-opacity="0.9"/>
</svg>
