<svg width="1920" height="931" viewBox="0 0 1920 931" fill="none" xmlns="http://www.w3.org/2000/svg">
<path d="M931.997 365.993C920.686 370.271 909.374 377.685 904.526 384.149C902.245 387.191 898.728 390.232 895.686 391.943C890.933 394.7 882.568 402.59 882.568 404.396C882.568 404.871 887.416 409.909 893.31 415.612C907.093 429.015 909.659 433.578 912.416 449.928C912.796 452.304 912.416 453.445 910.895 454.871L908.899 456.772L912.321 465.612C914.127 470.46 916.408 477.209 917.264 480.536C919.545 489.566 925.439 502.494 932.853 514.756L939.412 525.782L941.218 540.231C942.263 548.406 942.644 554.775 942.168 554.775C941.693 554.775 936.275 551.638 930.191 547.74C924.013 543.843 916.693 539.946 913.842 538.995C910.99 538.14 907.853 536.619 906.808 535.763C905.762 534.813 903.386 533.862 901.579 533.482C894.83 532.246 888.462 528.064 873.633 515.421C855.953 500.212 854.907 499.357 851.77 499.832C850.154 500.022 847.493 498.596 842.74 494.984L835.991 489.946L838.937 486.619C840.458 484.813 841.694 482.912 841.504 482.342C841.314 481.771 839.603 480.821 837.702 480.156C832.284 478.349 823.919 469.699 821.637 463.616C820.592 460.764 818.215 456.677 816.314 454.68C812.987 450.973 812.987 450.783 813.558 444.605C813.938 441.183 814.413 436.62 814.698 434.529C815.078 431.582 814.793 430.061 812.987 427.494C811.751 425.688 809.85 423.882 808.615 423.502C805.858 422.456 803.101 425.213 797.968 434.053C792.075 444.414 790.174 450.498 789.603 461.62C789.223 470.46 788.843 471.886 786.562 475.118C784.47 477.969 783.805 480.251 783.235 485.954C782.854 489.946 782.949 493.558 783.425 494.034C783.995 494.604 810.611 498.691 814.318 498.691C814.603 498.691 816.124 499.737 817.645 500.973C819.166 502.304 821.542 503.634 822.873 503.92C824.204 504.3 827.911 507.247 831.238 510.573C836.941 516.372 837.226 516.847 836.181 519.129C835.515 520.554 835.325 522.17 835.706 522.836C836.181 523.596 839.698 526.638 843.595 529.775C847.493 532.912 854.337 538.52 858.804 542.322C863.272 546.029 870.971 551.543 875.914 554.489C899.773 568.463 900.914 569.318 913.366 581.675C920.02 588.329 927.72 595.459 930.476 597.455C938.176 603.253 938.746 604.299 943.404 620.173C945.685 628.158 949.583 633.101 957.472 638.139C960.799 640.325 963.081 642.606 963.936 644.698C965.457 648.405 965.742 656.485 964.316 656.485C960.134 656.485 946.541 646.694 930.381 631.865C917.739 620.363 913.747 615.42 912.036 608.957C910.705 603.824 906.142 594.698 905.001 594.698C904.526 594.698 904.526 596.979 904.811 599.641L905.477 604.679L901.389 600.877C893.785 593.748 892.264 592.607 891.123 593.272C890.458 593.653 891.313 595.459 893.69 598.31L897.302 602.778L891.789 598.215C888.652 595.744 885.8 593.748 885.42 593.748C882.758 593.748 883.994 596.409 888.462 600.592C893.119 605.059 892.549 605.059 885.8 600.782C884.184 599.641 883.139 599.451 882.473 600.116C881.808 600.782 882.853 602.303 885.8 604.774C890.648 608.766 890.838 609.907 886.37 607.531C881.047 604.774 881.142 606.58 886.561 610.668C889.507 612.854 892.739 615.801 893.785 617.226C894.83 618.747 898.538 621.409 901.96 623.12C907.568 625.877 909.374 627.588 918.499 638.709C935.705 659.812 938.651 663.804 938.651 665.895C938.651 667.131 939.792 668.557 941.788 669.697C946.161 672.264 953.86 678.538 953.86 679.488C953.86 681.104 949.488 680.059 940.933 676.351C931.712 672.264 917.454 661.713 908.328 652.302L904.051 648.025L903.956 639.66C903.766 630.724 901.77 624.166 899.298 624.166C898.157 624.166 898.062 625.211 898.443 629.394C899.203 636.808 897.302 636.333 890.553 627.207C884.945 619.793 882.853 617.512 881.428 617.512C880.002 617.512 880.667 620.078 883.139 624.546C884.564 627.017 885.42 629.203 885.23 629.394C885.04 629.679 882.568 627.492 879.717 624.546C873.538 618.177 871.257 616.751 870.116 618.557C869.546 619.508 871.352 621.979 876.199 626.922L883.044 633.956L876.485 629.489C872.968 627.112 869.355 625.116 868.69 625.116C865.933 625.116 867.549 627.778 873.633 633.101C877.055 636.143 879.621 638.804 879.431 639.089C879.146 639.279 877.245 638.614 875.059 637.568C870.496 635.192 870.211 635.192 870.211 636.903C870.211 637.663 871.637 639.279 873.348 640.515C878.766 644.317 909.374 670.933 919.07 680.249C924.203 685.192 929.906 691.18 931.617 693.556C933.328 695.933 937.035 699.355 939.887 701.161C947.872 706.294 979.716 727.492 981.902 729.107C983.708 730.438 983.708 730.533 980.761 731.199C979.05 731.484 977.149 732.434 976.579 733.1C976.008 733.86 974.678 734.431 973.727 734.431C972.491 734.431 971.921 735.096 971.921 736.427C971.921 737.472 970.685 739.469 969.164 740.894C967.643 742.32 966.123 744.982 965.742 746.788C965.362 748.594 964.412 750.59 963.651 751.16C962.51 751.921 962.32 753.347 962.796 757.339C963.081 760.191 963.461 763.803 963.651 765.324C963.936 769.601 974.868 783.004 977.244 782.244C977.909 782.054 979.621 783.004 981.236 784.335C982.757 785.666 984.658 786.711 985.324 786.711C985.989 786.711 987.32 787.472 988.366 788.422C990.077 789.943 990.267 789.943 992.928 786.711C994.449 784.905 996.255 783.384 996.921 783.384C998.347 783.384 1005.86 777.301 1011.08 771.978C1022.11 760.571 1023.06 759.335 1025.53 751.826C1026.86 747.738 1028 744.126 1028 743.746C1028 743.366 1025.82 741.94 1023.25 740.609C1017.64 737.758 1016.98 736.427 1016.12 726.256L1015.46 718.746L1019.45 712.568C1029.72 696.313 1031.43 689.944 1029.43 675.496C1028.67 669.983 1027.62 661.998 1027.15 657.72C1025.44 643.747 1023.06 638.329 1000.82 596.599C998.442 592.132 995.115 586.999 993.404 585.193C991.503 583.196 989.982 580.44 989.601 578.253C988.651 573.12 983.328 557.056 978.385 544.318C976.008 538.33 973.347 530.82 972.396 527.684C971.541 524.547 969.83 520.269 968.689 518.178C967.548 516.087 965.742 512.284 964.792 509.718C963.746 506.771 961.37 503.349 958.518 500.498C955.952 498.121 953.86 495.46 953.86 494.699C953.86 493.844 952.53 491.657 951.009 489.661C949.393 487.665 947.396 483.673 946.636 480.726C943.784 471.125 934.944 450.213 932.092 446.601C930.001 443.939 925.343 432.913 925.343 430.631C925.343 430.536 926.864 429.586 928.67 428.445C931.807 426.639 931.997 426.259 931.997 421.411C931.997 417.989 931.522 415.803 930.572 415.042C927.91 412.856 927.34 408.008 928.765 398.692C930.762 385.385 930.952 384.814 935.419 379.776C940.077 374.548 941.218 371.316 939.982 367.609C938.936 364.757 936.655 364.282 931.997 365.993Z" fill="black" fill-opacity="0.9"/>
<path d="M1660.46 243.285C1659.48 243.665 1659.59 245.294 1660.84 249.691C1661.44 251.754 1661.93 253.655 1661.93 253.872C1661.93 254.578 1659.54 254.36 1654.76 253.22C1646.24 251.266 1642.33 251.157 1641.62 252.949C1641.41 253.546 1642.27 254.252 1644.72 255.446C1649.44 257.835 1651.18 259.572 1650.8 261.472C1650.42 263.047 1651.18 263.59 1651.99 262.341C1652.26 261.852 1652.48 262.178 1652.75 263.264C1652.97 264.187 1653.3 265.272 1653.46 265.761C1654.44 268.041 1635.92 283.514 1626.15 288.725C1618.82 292.634 1617.95 293.449 1617.63 297.249C1617.41 299.583 1617.84 301.918 1619.8 309.138C1622.24 317.879 1622.24 318.042 1621.26 319.182C1620.67 319.779 1620.12 320.756 1620.02 321.353C1619.85 322.005 1619.47 322.33 1618.98 322.222C1618.55 322.059 1616.54 321.896 1614.53 321.842C1612.52 321.788 1610.79 321.679 1610.73 321.57C1610.62 321.462 1608.94 319.616 1606.99 317.553L1603.35 313.753L1604.98 307.781C1607.37 299.258 1607.37 294.317 1605.03 284.437C1604.06 280.256 1602.92 275.805 1602.43 274.556C1601.67 272.547 1601.4 272.276 1599.6 272.113C1597.92 271.95 1597.59 271.733 1597.21 270.267C1596.94 269.29 1595.75 267.715 1594.17 266.413C1592.76 265.218 1591.13 263.318 1590.54 262.232C1589.34 260.061 1588.37 259.626 1588.8 261.472C1589.13 262.667 1589.13 262.667 1588.37 261.689C1587.93 261.092 1587.55 260.278 1587.55 259.898C1587.55 259.518 1587.23 259.192 1586.79 259.192C1586.14 259.192 1586.09 259.572 1586.52 260.929C1587.12 263.155 1586.74 263.535 1586.03 261.418C1585.43 259.681 1585 259.464 1583.59 260.061C1582.83 260.332 1582.83 260.604 1583.53 262.558C1584.51 265.327 1586.47 267.661 1589.99 270.159L1592.82 272.167L1594.34 280.202C1595.21 284.599 1595.91 289.214 1595.97 290.408C1596.07 291.603 1596.29 293.557 1596.51 294.752C1596.83 296.543 1596.56 297.683 1594.93 301.483C1592.71 306.804 1591.95 307.727 1588.47 309.518C1584.89 311.31 1584.19 311.038 1583.53 307.781L1582.94 305.066L1580.22 304.904C1578.7 304.795 1577.29 304.524 1577.02 304.198C1576.69 303.926 1575.34 303.709 1573.92 303.709C1572.35 303.709 1571.16 303.384 1570.72 302.895C1569.04 300.886 1565.78 302.243 1561.44 306.749C1557.26 311.201 1556.93 311.853 1557.37 316.141C1557.69 318.965 1558.07 320.05 1559.21 321.299C1560.9 323.09 1565.56 325.316 1568.82 325.914C1570.29 326.185 1570.94 326.565 1570.83 327.108C1570.72 327.542 1571.21 328.899 1571.86 330.148L1573.11 332.483L1570.23 335.414L1567.3 338.346L1567.68 341.115L1568.06 343.829L1565.4 345.186C1563.94 345.946 1561.28 347.412 1559.54 348.444C1557.8 349.529 1555.79 350.398 1555.14 350.398C1553.89 350.398 1550.36 346.978 1548.03 343.503C1547.27 342.363 1546.13 340.843 1545.42 340.083C1544.72 339.323 1543.52 337.477 1542.82 336.011L1541.51 333.297L1543.09 331.505C1544.88 329.497 1544.99 328.411 1543.9 325.696C1542.87 323.253 1542.06 323.308 1541.84 325.805C1541.73 327.434 1541.41 327.922 1540.54 328.031C1539.61 328.139 1539.34 327.705 1538.64 324.828C1537.61 320.267 1536.52 319.942 1536.47 324.176C1536.41 327.868 1535.54 326.674 1535.49 322.819C1535.43 321.353 1535.16 320.539 1534.73 320.539C1533.97 320.539 1532.28 323.09 1531.63 325.316C1531.2 326.782 1531.2 326.782 1531.14 324.991C1531.09 322.982 1530.33 322.71 1529.41 324.393C1528.43 326.294 1529.19 328.899 1531.9 332.591C1533.42 334.708 1534.29 336.391 1534.13 336.989C1534.02 337.531 1534.35 339.106 1534.95 340.463C1536.19 343.449 1536.25 344.318 1535.11 345.566C1534.24 346.489 1534.46 346.869 1537.88 351.049C1539.89 353.547 1542.27 356.858 1543.14 358.433C1544.83 361.364 1548.73 365.056 1550.2 365.056C1551.72 365.056 1565.51 360.116 1568.01 358.704C1569.36 357.89 1572.24 356.098 1574.47 354.633C1578.49 351.972 1578.54 351.972 1582.34 352.19C1591.19 352.678 1606.77 354.795 1608.94 355.773C1610.19 356.315 1612.8 357.944 1614.75 359.356C1616.65 360.767 1619.26 362.396 1620.5 362.939C1622.57 363.916 1623 363.916 1626.21 363.156C1628.05 362.722 1630.98 362.342 1632.67 362.342H1635.71L1637.01 359.519C1638.09 357.238 1638.8 356.478 1641.03 355.338C1642.55 354.524 1645.26 352.841 1647.16 351.538C1649.93 349.584 1650.85 348.498 1652.26 345.621C1653.84 342.417 1654 341.657 1653.95 337.423C1653.95 334.871 1653.51 330.04 1653.02 326.728C1652.54 323.471 1651.88 317.607 1651.61 313.698C1651.34 309.844 1650.96 305.935 1650.8 305.066C1650.53 303.764 1650.74 303.112 1651.83 301.918C1653.62 299.963 1654.44 298.389 1655.96 293.666C1660.08 281.179 1663.12 277.433 1669.96 276.347C1672.68 275.913 1675.55 274.556 1678.11 272.384C1679.79 270.919 1679.84 270.756 1679.25 268.964C1678.87 267.933 1677.62 265.707 1676.48 264.024C1675.34 262.341 1674.25 260.006 1674.03 258.866C1673.55 255.392 1670.61 250.452 1666.76 246.543C1663.39 243.177 1662.2 242.525 1660.46 243.285Z" fill="black" fill-opacity="0.9"/>
<path d="M199.729 243.651C199.783 244.031 200.109 245.769 200.489 247.452C201.412 251.252 200.652 251.632 199.186 248.157C198.209 245.877 197.395 245.172 196.798 246.149C196.689 246.366 197.286 248.212 198.209 250.275C199.078 252.283 199.946 254.835 200.109 255.921C200.435 257.658 200.326 257.821 199.403 257.387C197.503 256.627 195.929 256.464 195.929 257.007C195.929 257.821 199.675 260.644 201.955 261.621C203.041 262.056 204.072 262.707 204.289 262.978C205.158 264.39 206.244 273.185 206.244 279.048C206.244 285.4 206.19 285.563 204.398 288.82C202.444 292.295 201.141 293.706 196.743 296.963L194.029 299.026L193.703 296.366C193.486 294.955 193.594 292.892 193.866 291.806C194.735 288.82 193.432 286.866 189.197 284.803C184.691 282.577 180.185 282.088 177.471 283.608C172.313 286.431 171.336 295.118 175.408 302.175C176.711 304.401 176.819 308.093 175.625 309.939C175.136 310.644 173.833 311.622 172.747 312.11C171.336 312.762 169.979 314.119 168.459 316.453C164.115 322.914 163.41 325.411 164.387 330.297C164.713 331.98 165.201 337.572 165.418 342.729C165.961 353.099 166.341 354.293 169.653 355.704C172.096 356.736 184.528 356.844 186.103 355.867C187.46 354.999 189.957 355.976 191.477 358.093C192.129 358.907 193.377 359.776 194.246 359.993C195.169 360.156 196.852 360.808 197.992 361.35C206.081 365.259 218.296 363.196 225.245 356.682C229.643 352.61 231 349.135 232.574 338.278C233.986 328.288 235.397 320.634 235.831 320.199C235.994 320.036 239.577 320.254 243.812 320.634C254.724 321.611 278.72 320.688 279.751 319.276C280.403 318.408 280.674 318.462 283.715 320.145C286.538 321.665 287.135 321.828 287.895 321.231C288.981 320.362 292.021 310.97 292.021 308.527C292.021 307.55 292.292 306.464 292.564 306.193C293.595 305.161 295.93 291.806 295.658 288.494C295.332 284.64 295.061 284.26 292.889 284.26C290.446 284.26 289.578 285.128 288.492 288.603C286.755 294.14 281.543 297.941 271.282 301.307C266.885 302.772 265.093 303.098 263.085 302.881C261.673 302.718 260.425 302.392 260.316 302.23C260.153 302.012 262.976 300.818 266.559 299.461C270.142 298.158 273.291 296.801 273.617 296.421C273.943 296.041 274.105 294.683 273.997 293.38L273.834 291.046L277.091 289.852C278.883 289.146 281.217 288.169 282.249 287.626C284.095 286.703 284.149 286.594 284.095 283.717C284.04 280.84 282.792 277.365 281.489 276.551C281.163 276.334 280.892 274.813 280.837 273.185C280.674 267.702 276.657 261.838 271.119 258.961L268.079 257.387L266.722 258.961C265.636 260.155 265.419 260.861 265.691 261.947C265.908 262.707 266.179 265.801 266.342 268.842C266.613 274.705 265.745 278.288 264.116 278.288C263.628 278.288 262.922 278.994 262.487 279.862C261.619 281.545 258.633 284.26 257.71 284.26C257.384 284.26 254.507 285.508 251.358 287.029C244.301 290.449 242.509 291.1 236.592 292.403C233.986 292.946 230.348 294.195 228.502 295.118C225.299 296.746 225.082 296.963 223.236 300.981C222.151 303.261 220.25 306.356 219.002 307.876C217.753 309.341 214.713 313.467 212.27 316.942C209.827 320.471 207.601 323.457 207.33 323.619C206.841 323.945 205.701 322.208 202.769 316.67C200.381 312.11 200.489 311.676 206.135 305.704C210.424 301.144 214.876 293.923 216.83 288.277C217.807 285.508 217.807 285.4 216.559 280.677C215.799 277.691 215.202 273.511 215.039 269.71L214.767 263.576L212.813 262.653C210.913 261.784 210.858 261.567 210.478 258.201C210.316 256.247 209.773 253.478 209.284 252.012C208.795 250.546 208.415 248.646 208.415 247.777C208.415 245.443 207.112 246.149 206.895 248.592C206.624 251.578 205.81 251.035 205.43 247.615C204.941 243.977 203.909 243.869 203.529 247.397C203.204 250.166 202.878 249.84 201.846 245.823C201.466 244.249 200.869 243 200.435 243C200.055 243 199.729 243.326 199.729 243.651Z" fill="black" fill-opacity="0.9"/>
<path d="M342.708 582.372C348.283 585.16 353.07 588.842 354.279 591.156C354.753 592.103 355.857 593.997 356.751 595.364C358.224 597.573 358.645 597.889 360.223 597.889C361.748 597.889 362.485 598.362 364.536 600.572C365.904 602.044 367.376 603.99 367.902 604.885L368.797 606.568L365.272 610.25C363.326 612.301 360.749 614.405 359.592 614.984C358.382 615.562 356.541 617.193 355.437 618.665C354.385 620.086 353.07 621.401 352.491 621.611C351.965 621.821 350.44 623.61 349.072 625.661C347.705 627.712 345.338 630.658 343.812 632.183C339.815 636.338 335.397 641.546 335.923 641.546C336.133 641.546 337.132 641.072 338.079 640.494C339.026 639.915 340.183 639.442 340.656 639.442C341.13 639.442 342.971 638.495 344.706 637.39C348.336 635.024 352.859 633.13 354.753 633.13C356.541 633.13 362.59 627.555 365.588 623.136C368.008 619.612 368.06 619.454 368.428 614.142C368.797 609.303 368.954 608.619 370.164 607.515C370.9 606.883 371.9 606.305 372.373 606.305C374.425 606.305 379.579 621.874 379.053 626.45C378.895 627.66 378.527 629.606 378.264 630.763C377.738 632.604 377.843 633.13 378.843 634.708C379.737 636.233 379.947 637.39 380 641.178C380 644.702 379.842 645.911 379.211 646.28C378.106 646.963 370.9 646.911 367.587 646.227C365.115 645.701 364.536 645.754 361.117 647.069C359.066 647.858 357.014 648.699 356.594 648.962C355.857 649.435 352.175 651.224 346.863 653.696C341.919 656.01 331.241 659.903 327.665 660.692C325.561 661.165 323.351 661.901 322.72 662.322C322.142 662.743 321.248 663.111 320.722 663.111C319.196 663.111 319.564 665.005 322.457 671.527C325.876 679.311 328.138 685.202 330.452 692.04C331.452 695.091 332.872 698.983 333.608 700.719C334.345 702.455 335.186 705.4 335.502 707.241C336.028 710.502 335.975 710.713 334.345 713.816C333.345 715.71 331.241 718.287 329.243 720.18C327.349 721.969 324.456 724.704 322.72 726.334L319.617 729.227L323.351 731.91C327.77 735.118 328.611 736.275 329.558 740.326C329.979 742.167 330.663 743.639 331.346 744.113C337.237 748.373 339.71 751.108 339.078 752.739C338.552 754.001 330.189 759.366 328.664 759.366C327.875 759.366 325.771 758.682 323.93 757.788L320.564 756.263L314.883 756.999C307.835 757.946 303.995 758.945 298.42 761.26C296 762.259 293.633 763.048 293.107 763.048C292.581 763.048 290.846 762.207 289.268 761.155L286.375 759.314L277.17 759.682C266.808 760.05 262.39 759.577 257.34 757.525C255.5 756.789 253.606 756.21 253.027 756.21C251.923 756.21 247.294 753.528 244.191 751.056C242.981 750.109 241.771 749.373 241.456 749.373C240.719 749.373 239.141 746.9 239.457 746.322C240.351 744.902 235.46 743.061 230.726 743.061C229.253 743.061 227.359 742.64 226.15 742.009C224.992 741.43 223.73 740.957 223.309 740.957C222.257 740.957 213.736 734.435 213.316 733.277C213.158 732.857 213 731.226 213 729.701C213 727.386 213.263 726.545 214.578 724.914C216.051 723.073 218.26 718.024 218.26 716.551C218.26 716.13 219.101 715.078 220.206 714.132C221.837 712.659 222.415 712.501 224.203 712.711C225.571 712.922 226.833 713.553 227.938 714.605C229.726 716.341 230.778 716.498 235.354 715.92L237.826 715.552L237.458 713.658C237.248 712.606 237.143 710.187 237.143 708.241C237.195 705.611 237.037 704.559 236.406 704.033C233.566 701.718 233.408 701.403 233.671 699.299C234.039 696.511 233.04 693.408 230.726 689.989C228.622 686.991 228.359 685.36 229.358 681.994C229.831 680.469 229.831 678.68 229.358 674.63C228.832 669.738 228.885 669.002 229.831 665.531C231.515 659.797 231.935 658.903 233.671 658.062C235.46 657.115 237.511 657.378 241.193 658.956C243.98 660.218 243.717 660.849 240.404 661.112C238.352 661.27 237.984 661.481 237.563 662.743C236.932 664.794 237.826 665.741 239.194 664.531C240.299 663.532 241.403 663.374 241.403 664.163C241.403 664.479 240.456 666.057 239.247 667.635C237.669 669.791 237.248 670.738 237.669 671.159C237.984 671.474 238.247 672.211 238.247 672.737C238.247 673.894 244.717 687.412 246.347 689.621C246.926 690.462 248.031 692.251 248.767 693.618C251.87 699.351 253.396 701.929 256.446 706.452C263.652 717.287 265.178 719.391 265.651 719.076C265.914 718.918 266.124 718.024 266.124 717.13C266.124 716.183 266.65 714.395 267.229 713.08C268.071 711.291 268.334 709.45 268.439 705.453C268.544 701.981 268.965 698.668 269.754 695.722C270.437 693.25 271.016 690.304 271.121 689.147C271.226 687.99 271.542 686.097 271.91 684.939C272.226 683.782 272.857 680.679 273.225 678.102C274.014 672.684 274.856 669.107 275.645 667.477C276.118 666.635 276.065 665.268 275.645 662.164C275.119 658.482 275.119 657.693 275.96 655.432C277.012 652.591 278.695 651.382 280.536 652.065C281.168 652.276 282.588 652.749 283.745 653.117C285.323 653.591 286.112 654.222 286.743 655.537C288.005 657.956 287.953 658.377 286.375 658.377C284.797 658.377 284.218 659.429 283.85 663.111C283.692 664.689 283.061 667.056 282.483 668.371C281.115 671.369 281.115 672.842 282.43 674.525C283.271 675.577 283.482 676.681 283.482 679.627C283.482 683.309 285.27 697.984 285.849 698.878C286.007 699.141 286.375 701.613 286.638 704.401C286.901 707.241 287.216 709.661 287.427 709.818C287.585 709.976 288.689 709.187 289.951 708.03C293.37 704.822 293.949 704.453 296.579 704.138C298.735 703.927 298.998 703.717 299.156 702.402C299.261 701.613 299.787 700.719 300.366 700.456C302.207 699.457 303.048 696.932 302.628 693.934C302.417 692.461 302.312 690.304 302.365 689.147C302.417 687.99 302.102 684.098 301.628 680.469C300.366 670.422 299.524 659.745 299.577 654.012L299.63 648.857L303.259 645.175C305.258 643.124 308.045 640.599 309.518 639.547C318.723 632.814 331.452 621.769 332.609 619.507C333.819 617.087 336.08 614.721 339.867 611.722L342.918 609.408V603.044C342.918 595.364 342.287 593.734 337.606 588.684C334.397 585.265 333.766 583.424 335.028 581.005C335.87 579.48 337.606 579.795 342.708 582.372Z" fill="black" fill-opacity="0.9"/>
<path d="M1670.54 577.383C1666.9 577.958 1666.26 578.277 1663.19 581.279C1660.96 583.45 1658.91 584.727 1656.49 585.557C1654.57 586.196 1651.83 587.345 1650.42 588.111C1648.63 589.133 1647.48 589.389 1646.59 589.069C1645.89 588.75 1644.55 588.495 1643.59 588.495C1641.99 588.431 1641.55 589.005 1638.61 594.944C1636.56 599.159 1634.71 604.204 1633.5 609.057C1632.41 613.208 1630.88 617.933 1630.05 619.594C1629.22 621.254 1627.75 625.149 1626.79 628.342C1625.84 631.471 1624.24 636.261 1623.28 638.879C1622.26 641.561 1621.24 645.52 1620.98 647.819C1620.66 650.693 1620.03 652.608 1618.88 654.205C1614.85 659.697 1612.55 662.123 1609.87 663.656C1603.1 667.551 1597.99 672.277 1596.14 676.491C1595.18 678.599 1593.91 680.387 1593.08 680.706C1592.31 681.089 1591.61 682.047 1591.48 682.941C1591.35 683.835 1590.97 684.793 1590.65 685.112C1590.33 685.495 1590.08 686.262 1590.08 686.836C1590.08 688.305 1588.16 688.752 1578.71 689.646C1576.79 689.838 1575.01 690.157 1574.62 690.348C1573.54 690.987 1562.62 689.135 1562.62 688.305C1562.62 686.964 1560 684.218 1556.36 681.728C1554.25 680.323 1552.02 678.088 1551.12 676.555C1550.23 675.086 1546.78 669.658 1543.4 664.55C1535.99 653.311 1535.48 651.587 1538.29 647.372C1541.35 642.774 1540.65 641.178 1536.95 644.307C1533.75 646.989 1533.24 646.542 1533.24 641.178C1533.24 638.559 1532.99 636.261 1532.73 636.069C1531.58 635.367 1530.82 636.835 1530.37 640.603C1530.11 642.838 1529.73 644.626 1529.41 644.626C1529.15 644.626 1528.26 642.838 1527.49 640.603C1525.71 635.877 1525 634.728 1524.11 635.622C1523.73 636.005 1523.92 637.857 1524.62 640.794C1525.26 643.285 1525.58 645.456 1525.45 645.648C1525.26 645.775 1524.05 644.371 1522.71 642.391C1520.21 638.815 1519.58 638.368 1518.87 639.581C1518.17 640.667 1519.07 642.966 1521.43 646.414C1522.64 648.266 1523.66 650.437 1523.66 651.331C1523.66 653.119 1522.07 654.141 1520.92 652.991C1520.53 652.608 1519.26 652.289 1518.11 652.289C1516.32 652.289 1516 652.481 1516 653.885C1516 655.035 1516.45 655.546 1517.72 655.865C1518.68 656.12 1521.3 657.142 1523.47 658.164C1525.64 659.122 1528.01 659.952 1528.64 659.952C1530.3 659.952 1533.11 664.103 1534.52 668.828C1536.18 674.128 1538.48 678.407 1540.84 680.706C1541.93 681.728 1543.14 683.643 1543.46 684.921C1543.84 686.198 1545.25 688.688 1546.65 690.476C1548.38 692.647 1549.21 694.308 1549.21 695.649C1549.21 697.628 1547.87 698.395 1546.97 696.99C1546.78 696.607 1545.95 696.351 1545.12 696.351C1544.35 696.351 1543.4 696.032 1542.95 695.585C1542.57 695.202 1540.52 694.627 1538.54 694.372C1536.5 694.052 1533.94 693.669 1532.86 693.478C1531.33 693.158 1530.37 693.541 1528.01 695.393C1524.88 697.692 1523.98 699.608 1523.41 704.653C1523.22 706.249 1522.9 708.74 1522.64 710.208C1522 714.487 1524.94 717.808 1527.37 715.381C1527.88 714.87 1528.71 715.253 1530.69 716.977C1532.09 718.318 1533.88 719.34 1534.65 719.34C1535.35 719.34 1536.88 720.043 1537.97 720.809C1539.76 722.214 1540.27 722.278 1543.78 721.767C1545.89 721.447 1548.31 721.192 1549.08 721.192C1550.1 721.128 1551.25 720.234 1552.59 718.318C1553.68 716.786 1554.89 715.509 1555.27 715.509C1555.66 715.509 1557.83 716.53 1560.13 717.744C1566.26 721 1572.45 723.172 1575.58 723.172C1578.64 723.172 1589.56 719.915 1593.91 717.744C1596.84 716.275 1600.36 713.657 1604.64 709.889C1605.91 708.74 1608.72 706.952 1610.89 705.93C1616.7 703.12 1621.75 698.075 1628.45 688.433C1636.95 676.172 1637.97 674.128 1638.67 668.381C1639.95 657.845 1643.01 651.65 1646.91 651.65C1648.44 651.65 1649.08 651.076 1651.06 647.819C1653.55 643.732 1656.17 641.369 1659.36 640.347C1660.51 639.964 1661.34 639.262 1661.47 638.432C1661.79 636.133 1659.94 635.367 1653.68 635.303C1645.44 635.239 1645.31 635.111 1647.36 630.705C1652.47 619.402 1653.3 618.189 1660.64 610.462C1664.66 606.247 1667.98 602.352 1667.98 601.777C1667.98 601.202 1667.54 600.372 1667.02 599.925C1665.17 598.393 1665.94 595.774 1669.58 591.177C1674.3 585.366 1675.01 584.599 1677.75 582.492C1680.5 580.448 1680.56 579.938 1678.84 578.213C1677.56 576.936 1674.88 576.681 1670.54 577.383Z" fill="black" fill-opacity="0.9"/>
</svg>
