<svg width="1920" height="931" viewBox="0 0 1920 931" fill="none" xmlns="http://www.w3.org/2000/svg">
<path d="M954.976 279.6C954.212 280.745 953.735 281.986 954.021 282.368C954.69 283.513 959.653 281.509 961.658 279.313C963.28 277.595 963.185 277.5 959.844 277.5C957.457 277.5 956.026 278.072 954.976 279.6Z" fill="black" fill-opacity="0.9"/>
<path d="M927.39 282.654C927.104 283.417 927.2 284.372 927.677 284.658C928.918 285.422 929.968 283.227 928.822 282.081C928.25 281.508 927.773 281.699 927.39 282.654Z" fill="black" fill-opacity="0.9"/>
<path d="M943.426 283.609C936.172 286.472 929.109 290.004 922.141 294.394C913.455 299.931 889.497 317.016 889.974 317.398C891.024 318.448 896.847 315.966 904.006 311.385C908.396 308.617 913.932 305.658 916.319 304.894C919.659 303.749 920.518 302.985 920.518 301.267C920.518 299.262 921.187 298.881 925.196 298.308C927.677 297.926 931.972 296.59 934.645 295.254C941.804 291.817 953.449 281.127 949.917 281.318C949.44 281.413 946.576 282.368 943.426 283.609Z" fill="black" fill-opacity="0.9"/>
<path d="M990.866 282.94C991.057 284.086 992.011 284.659 993.538 284.659C995.066 284.659 996.02 284.086 996.211 282.94C996.498 281.7 995.925 281.318 993.538 281.318C991.152 281.318 990.579 281.7 990.866 282.94Z" fill="black" fill-opacity="0.9"/>
<path d="M917.655 287.617C915.841 289.431 916.223 290.194 918.514 289.335C919.373 289.049 920.041 288.19 920.041 287.426C920.041 285.708 919.564 285.708 917.655 287.617Z" fill="black" fill-opacity="0.9"/>
<path d="M954.881 289.908C950.204 291.436 944.477 293.154 942.281 293.726C939.8 294.299 938.082 295.445 937.699 296.59C936.745 299.549 932.068 302.89 925.005 305.562C920.041 307.471 917.273 309.285 913.837 312.912C910.305 316.635 906.583 319.021 896.751 323.794C884.056 329.998 877.088 334.77 877.088 337.252C877.088 339.066 877.279 338.97 883.292 336.107C886.156 334.77 890.07 333.434 892.074 333.148C894.365 332.766 897.133 331.334 899.614 329.043C901.81 327.039 905.724 324.748 908.682 323.794C917.368 320.93 920.614 318.83 926.341 312.339C932.163 305.753 936.745 302.317 939.609 302.317C940.563 302.317 943.236 300.599 945.527 298.404C950.49 293.822 954.881 291.817 959.94 291.817C962.326 291.817 964.235 291.149 965.189 290.099C968.721 286.186 966.526 286.186 954.881 289.908Z" fill="black" fill-opacity="0.9"/>
<path d="M973.971 293.822C970.153 294.681 967.385 297.067 968.339 298.594C968.625 299.072 970.248 299.453 972.062 299.453C974.352 299.453 975.784 298.785 977.216 296.972C979.22 294.394 979.793 292.676 978.553 292.867C978.075 292.963 976.071 293.344 973.971 293.822Z" fill="black" fill-opacity="0.9"/>
<path d="M981.13 294.681C981.13 296.208 981.798 296.59 984.471 296.59C987.143 296.59 987.811 296.208 987.811 294.681C987.811 293.154 987.143 292.772 984.471 292.772C981.798 292.772 981.13 293.154 981.13 294.681Z" fill="black" fill-opacity="0.9"/>
<path d="M997.738 294.203C998.025 295.063 998.311 296.017 998.311 296.208C998.311 296.399 998.979 296.59 999.838 296.59C1001.94 296.59 1001.08 293.344 998.884 292.963C997.547 292.676 997.261 292.963 997.738 294.203Z" fill="black" fill-opacity="0.9"/>
<path d="M963.281 298.022C962.994 298.881 962.994 299.74 963.281 300.026C964.14 300.885 965.858 299.453 965.858 297.926C965.858 296.113 964.044 296.208 963.281 298.022Z" fill="black" fill-opacity="0.9"/>
<path d="M952.113 301.935C951.54 303.367 953.735 306.04 955.644 306.135C956.695 306.135 956.408 302.794 955.167 301.553C953.64 300.026 952.781 300.122 952.113 301.935Z" fill="black" fill-opacity="0.9"/>
<path d="M980.079 301.362C970.057 301.84 969.962 301.84 967.385 304.894C965.475 307.09 963.948 308.044 961.944 308.044C960.417 308.044 957.553 308.617 955.644 309.38C953.64 310.144 947.149 312.339 941.135 314.248C934.549 316.253 927.582 319.307 923.477 321.789C919.755 324.08 915.65 326.275 914.314 326.657C912.978 327.039 910.209 328.948 908.11 330.857C906.01 332.861 902.478 334.961 900.283 335.629C897.992 336.202 895.319 337.92 893.887 339.543C892.169 341.643 890.642 342.406 888.542 342.406C886.347 342.406 885.392 342.884 885.01 344.22C884.724 345.175 882.529 347.274 880.142 348.897C877.661 350.52 874.415 353.097 872.793 354.815L869.929 357.774L874.225 357.106C881.288 356.056 883.77 354.243 883.77 350.329C883.77 348.42 883.961 348.324 886.156 349.279C889.21 350.615 892.933 348.992 901.905 342.406C905.341 339.925 909.541 337.157 911.259 336.298C913.264 335.248 914.314 334.007 914.314 332.766C914.314 331.048 914.505 330.952 915.746 331.907C916.891 332.861 917.559 332.861 918.323 332.098C918.991 331.43 920.232 330.952 921.091 330.952C921.95 330.952 926.436 328.566 931.113 325.703C939.513 320.357 951.922 315.68 957.362 315.68C958.985 315.68 961.658 314.63 963.281 313.389C966.43 311.003 973.589 308.33 983.039 306.135C988.384 304.799 991.152 303.176 990.579 301.649C990.388 301.267 985.616 301.076 980.079 301.362Z" fill="black" fill-opacity="0.9"/>
<path d="M993.538 301.362C993.538 301.84 994.111 302.317 994.875 302.317C995.639 302.317 996.593 301.84 996.879 301.362C997.166 300.79 996.593 300.408 995.543 300.408C994.397 300.408 993.538 300.79 993.538 301.362Z" fill="black" fill-opacity="0.9"/>
<path d="M941.422 304.226C939.513 304.99 934.932 309.953 935.6 310.526C936.172 311.098 947.818 307.28 949.344 306.039C950.585 304.894 950.585 304.703 948.963 304.13C946.672 303.176 943.904 303.176 941.422 304.226Z" fill="black" fill-opacity="0.9"/>
<path d="M999.17 306.135C991.534 307.471 985.425 311.767 986.093 315.298C986.379 316.826 986.762 316.73 988.861 314.439L991.247 311.767L993.061 313.771C995.352 316.253 995.639 316.253 1002.89 312.626L1009.1 309.667L1016.16 311.385L1023.22 313.198L1025.71 310.621L1028.28 308.139L1025.42 306.994C1021.98 305.658 1004.99 304.99 999.17 306.135Z" fill="black" fill-opacity="0.9"/>
<path d="M965.953 317.303C956.408 320.071 945.24 323.698 941.136 325.321C932.355 328.852 921.95 335.248 916.605 340.306C914.028 342.884 911.832 344.029 910.114 344.029C908.301 344.029 906.105 345.366 903.051 348.324C900.569 350.71 892.169 356.82 884.247 361.974C869.834 371.328 866.302 374.001 855.134 383.451C847.785 389.654 847.498 389.941 847.498 392.804C847.498 396.145 850.457 395.095 852.748 390.896C854.275 388.032 855.707 386.982 860.098 385.359C863.057 384.31 866.875 382.114 868.402 380.587C869.929 378.964 872.22 377.724 873.366 377.724C876.42 377.724 881.097 373.81 884.724 368.274C886.347 365.601 888.256 363.406 888.924 363.406C891.788 363.406 900.664 358.06 911.927 349.661C928.441 337.157 931.4 335.629 948.963 329.902C957.267 327.23 965.572 323.984 967.385 322.743C973.112 318.83 976.453 317.398 978.648 317.971C981.416 318.639 984.28 316.539 983.802 314.153C983.516 312.339 982.753 312.435 965.953 317.303Z" fill="black" fill-opacity="0.9"/>
<path d="M1014.44 317.589C1011.48 318.066 1004.04 319.689 997.738 321.312C991.534 322.839 983.993 324.366 981.13 324.748C975.498 325.511 971.68 327.039 969.771 329.425C968.625 330.761 968.912 330.952 972.253 330.952C974.352 330.952 983.325 329.616 992.202 327.898C1006.33 325.225 1010.34 324.843 1024.56 324.843C1038.88 324.843 1041.46 325.034 1046.32 326.848C1051.67 328.948 1051.76 328.948 1051.76 327.039C1051.76 325.989 1051 324.939 1050.14 324.557C1049.19 324.271 1045.46 322.552 1041.74 320.739C1036.3 318.162 1033.63 317.494 1027.42 317.112C1023.22 316.921 1017.4 317.112 1014.44 317.589Z" fill="black" fill-opacity="0.9"/>
<path d="M1012.44 329.998C1011.01 330.38 1007.47 332.098 1004.71 333.72C999.075 336.966 996.211 337.252 988.861 335.534C984.279 334.484 983.802 334.58 981.702 336.584C979.984 338.207 978.552 338.588 975.784 338.398C972.348 338.111 972.061 338.302 971.775 340.879L971.394 343.648L976.834 342.979C979.889 342.693 992.011 340.402 1003.94 338.111C1033.72 332.193 1035.35 332.002 1038.97 335.057C1040.6 336.488 1043.65 337.825 1045.85 338.207C1049.85 338.875 1054.63 338.111 1054.63 336.87C1054.63 335.725 1047.75 332.193 1042.31 330.571C1036.68 328.948 1017.21 328.566 1012.44 329.998Z" fill="black" fill-opacity="0.9"/>
<path d="M955.549 333.339C933.595 338.97 903.433 358.252 884.056 379.059C880.334 382.973 877.375 385.359 876.038 385.359C874.893 385.359 872.029 387.46 869.166 390.323C866.398 393.091 862.102 396.909 859.43 398.723C856.853 400.536 853.798 403.591 852.748 405.5C851.125 408.459 850.553 408.84 849.121 407.886C847.689 407.027 847.021 407.313 845.112 409.413C842.63 412.276 838.621 422.108 839.099 424.208C839.29 425.067 842.917 422.204 848.453 416.858C858.571 406.932 870.406 397.291 882.72 388.7C889.019 384.214 891.501 381.828 893.506 378.2C894.938 375.623 897.515 372.283 899.233 370.851C905.341 365.697 924.527 354.051 942.281 344.697C957.267 336.775 966.907 330.952 964.903 331.048C964.617 331.048 960.417 332.098 955.549 333.339Z" fill="black" fill-opacity="0.9"/>
<path d="M1013.58 341.452C1013.58 343.075 1018.16 347.179 1021.51 348.611C1026.56 350.71 1034.2 351.379 1037.35 350.043C1039.93 348.992 1040.5 349.183 1043.46 351.379C1048.71 355.388 1069.8 362.833 1071.43 361.21C1072.57 360.065 1069.71 356.724 1067.51 356.724C1065.7 356.724 1065.03 356.056 1064.36 353.574C1063.6 350.615 1063.22 350.424 1050.52 346.511C1043.36 344.315 1034.87 342.025 1031.53 341.452C1023.61 340.211 1013.58 340.211 1013.58 341.452Z" fill="black" fill-opacity="0.9"/>
<path d="M952.017 344.124C945.908 346.225 940.849 349.183 929.777 357.201C924.813 360.733 917.082 365.697 912.596 368.369C908.014 370.946 902.478 374.574 900.283 376.387C896.56 379.442 891.692 385.932 892.551 386.791C893.505 387.841 903.433 382.019 913.359 374.574C924.336 366.269 941.326 356.724 952.589 352.524C957.84 350.615 958.794 349.851 959.367 347.274C960.131 344.507 960.512 344.315 964.426 344.315C966.717 344.315 968.912 343.838 969.198 343.361C970.153 341.738 957.171 342.311 952.017 344.124Z" fill="black" fill-opacity="0.9"/>
<path d="M995.447 346.606C994.111 347.465 990.579 348.133 987.334 348.133C980.652 348.133 979.507 348.706 978.361 352.525L977.598 355.388L992.011 355.006C1005.95 354.624 1013.58 353.67 1013.58 352.047C1013.58 351.665 1012.34 350.138 1010.72 348.611C1007.28 345.366 999.361 344.315 995.447 346.606Z" fill="black" fill-opacity="0.9"/>
<path d="M1014.54 353.097C1014.54 355.961 1015.97 358.06 1017.21 357.297C1017.78 356.915 1019.69 357.965 1021.51 359.492C1023.99 361.688 1027.33 363.024 1036.49 365.314C1050.52 368.847 1053.96 370.183 1058.73 374.001C1061.5 376.292 1062.93 376.769 1065.03 376.292C1067.13 375.814 1068.37 376.292 1070.66 378.2C1072.19 379.537 1073.91 380.587 1074.48 380.587C1076.1 380.587 1076.68 377.532 1075.44 376.006C1072.95 373.046 1060.07 365.314 1052.91 362.547C1044.8 359.492 1017.69 350.997 1015.78 350.997C1015.11 350.997 1014.54 351.952 1014.54 353.097Z" fill="black" fill-opacity="0.9"/>
<path d="M967.767 353.86C948.963 357.774 929.109 368.178 908.301 385.264C900.283 391.85 898.087 393.091 898.087 391.086C898.087 389.751 893.983 389.846 892.551 391.278C891.883 391.945 891.406 393.377 891.406 394.523C891.406 397.1 889.878 398.341 889.115 396.337C888.351 394.236 885.297 394.619 883.197 396.909C882.243 398.055 876.42 402.923 870.406 407.791C858.952 416.954 849.503 426.499 847.021 431.272C845.78 433.563 845.112 433.944 843.203 433.467C841.294 432.99 840.53 433.467 838.908 436.235C837.762 438.048 836.33 439.862 835.567 440.149C834.803 440.435 833.658 442.44 833.085 444.634C832.131 447.689 831.176 448.93 828.694 449.98C825.067 451.412 823.635 453.894 825.64 455.134C829.172 457.33 835.949 451.125 837.953 443.967C839.194 439.766 840.244 439.385 841.008 442.916C841.198 444.348 843.394 442.916 851.603 436.235C857.33 431.653 862.77 427.453 863.725 426.976C864.679 426.404 866.207 424.686 867.161 423.158C872.029 414.758 879.761 408.65 897.61 398.723C904.482 394.905 914.505 388.414 920.041 384.31C933.118 374.669 940.086 370.469 945.813 369.037C948.963 368.274 950.776 367.129 951.636 365.506C953.258 362.547 957.84 360.256 960.704 360.924C962.039 361.306 963.949 360.924 965.189 360.16C966.335 359.397 968.912 358.442 970.821 358.156C974.639 357.393 976.739 355.674 976.167 353.574C975.976 352.429 974.639 352.429 967.767 353.86Z" fill="black" fill-opacity="0.9"/>
<path d="M981.416 360.924C974.735 362.451 972.539 363.501 967.48 367.51C964.617 369.706 963.567 370.087 962.995 369.133C961.753 367.224 954.118 368.56 947.435 371.901C944.19 373.523 936.364 378.773 930.064 383.546C923.668 388.414 915.078 393.95 910.496 396.05C901.428 400.441 891.883 407.599 877.088 421.153C871.552 426.308 865.634 431.558 863.916 432.799C861.816 434.517 860.48 436.616 859.812 439.48C858.571 444.253 857.425 445.398 856.566 442.63C855.707 439.862 854.18 440.244 854.18 443.298C854.18 446.925 853.225 450.266 852.175 450.266C851.698 450.266 851.316 449.216 851.316 447.88C851.316 446.544 850.935 445.493 850.362 445.493C849.885 445.493 849.407 446.162 849.407 447.021C849.407 447.88 848.071 449.026 846.544 449.598C843.776 450.648 843.585 450.934 844.158 454.275C844.826 457.902 844.826 457.902 841.867 457.33C839.48 456.852 838.431 457.234 836.044 459.621C833.753 461.911 833.181 463.343 833.181 466.493C833.181 470.216 833.276 470.406 835.758 470.12C838.144 469.833 838.431 469.452 838.335 466.207C838.24 462.579 839.48 461.72 841.58 463.82C842.535 464.775 845.017 462.771 853.512 453.798C859.812 447.211 865.92 441.676 868.402 440.435C871.457 438.812 872.984 437.38 873.747 434.994C874.606 432.417 878.043 429.458 892.456 418.958C902.096 411.895 916.033 401.3 923.382 395.381C938.463 383.355 943.045 380.11 950.585 376.292C955.072 374.001 956.122 373.81 958.699 374.764C961.944 375.909 966.621 374.955 985.425 369.133C991.152 367.415 996.498 366.269 998.789 366.46C1002.13 366.746 1002.61 366.46 1002.89 364.646C1003.18 363.024 1002.61 362.164 1000.89 361.592C996.498 359.874 987.43 359.587 981.416 360.924Z" fill="black" fill-opacity="0.9"/>
<path d="M1009.29 360.351C1005.76 361.115 1004.04 363.31 1005.18 365.792C1006.04 367.701 1007.09 367.988 1013.68 368.56C1019.79 369.133 1021.79 369.706 1024.08 371.614C1027.33 374.383 1030.19 374.287 1030.57 371.519C1031.05 367.988 1014.54 359.301 1009.29 360.351Z" fill="black" fill-opacity="0.9"/>
<path d="M1036.97 370.087C1036.3 371.233 1037.16 372.951 1038.5 372.951C1039.64 372.951 1039.64 370.374 1038.5 369.61C1038.02 369.323 1037.35 369.515 1036.97 370.087Z" fill="black" fill-opacity="0.9"/>
<path d="M1042.98 374.096C1042.7 377.151 1042.6 377.246 1038.88 376.96C1033.63 376.578 1024.85 375.05 1017.12 373.237C1008.05 371.137 995.161 371.997 981.608 375.814C975.88 377.341 965.094 380.205 957.649 381.923C939.322 386.409 928.632 391.469 925.673 397.1C924.718 398.818 924.91 398.818 927.868 398.245C929.586 397.864 935.409 396.05 940.754 394.332C947.532 392.041 952.208 391.086 956.313 391.086C961.658 391.086 962.422 390.8 964.617 388.223C966.144 386.409 967.863 385.359 969.485 385.359C970.821 385.359 978.362 384.023 986.284 382.4C1004.61 378.678 1012.06 378.487 1019.6 381.923C1025.8 384.691 1028.66 384.978 1031.24 383.068C1032.77 381.923 1033.53 382.209 1037.26 384.787C1040.88 387.364 1042.22 387.746 1047.56 387.746C1050.91 387.746 1053.67 388.032 1053.67 388.414C1053.67 389.941 1058.45 392.136 1064.08 393.091C1068.95 393.95 1071.14 395 1075.82 398.818C1081.07 403.018 1086.13 404.927 1086.13 402.636C1086.13 401.109 1071.24 387.746 1065.8 384.596C1062.84 382.782 1057.59 380.396 1053.96 379.251C1048.52 377.437 1047.28 376.578 1046.13 374.096C1044.32 370.182 1043.36 370.278 1042.98 374.096Z" fill="black" fill-opacity="0.9"/>
<path d="M994.97 389.082C989.72 391.469 988.957 391.659 987.143 390.418C985.234 389.082 984.566 389.178 980.557 391.469C977.885 392.996 974.639 393.95 972.348 393.95C968.339 393.95 954.213 398.531 953.545 399.963C952.59 402.254 947.054 407.6 943.809 409.318C941.708 410.368 935.504 412.659 929.873 414.472C917.559 418.481 910.019 423.349 897.706 434.994C890.069 442.248 862.77 472.315 862.77 473.556C862.77 473.747 864.393 473.556 866.302 472.983C872.029 471.456 877.47 466.875 888.256 454.753C894.842 447.403 901.332 441.198 907.059 436.999C917.846 428.981 945.908 412.086 948.39 412.086C949.345 412.086 952.972 410.558 956.503 408.745C959.94 406.836 966.144 404.545 970.153 403.495C974.162 402.445 979.984 400.059 983.134 398.15C988.67 394.714 988.861 394.618 996.402 395.191C1000.7 395.478 1004.61 396.145 1005.28 396.623C1005.95 397.196 1009.86 397.577 1014.06 397.672C1019.98 397.672 1024.08 398.436 1032.67 401.109C1038.69 402.923 1045.65 404.45 1048.04 404.45C1050.81 404.45 1052.91 405.022 1053.67 405.881C1055.3 407.886 1062.84 412.086 1064.74 412.086C1065.6 412.086 1068.85 413.804 1072 415.904C1075.15 418.004 1078.49 419.722 1079.35 419.722C1080.21 419.722 1081.74 420.963 1082.59 422.49C1084.41 425.64 1087.65 427.167 1089.28 425.545C1090.99 423.826 1088.61 420.39 1081.26 413.899C1077.44 410.558 1072.19 405.595 1069.61 403.018C1067.04 400.346 1065.13 399.009 1065.51 399.868C1065.8 400.822 1066.37 402.35 1066.75 403.209C1067.32 404.831 1067.23 404.831 1065.41 403.209C1064.36 402.35 1063.03 401.586 1062.45 401.586C1061.88 401.586 1060.16 400.536 1058.64 399.2C1057.01 397.768 1053.58 396.432 1050.62 395.859C1047.85 395.286 1041.46 393.663 1036.49 392.136C1021.03 387.364 1015.97 386.314 1008.24 386.314C1001.94 386.314 999.743 386.791 994.97 389.082Z" fill="black" fill-opacity="0.9"/>
<path d="M940.277 398.245C923.764 401.3 918.323 403.782 907.537 413.04C903.337 416.668 896.847 421.249 893.219 423.158C883.292 428.408 868.307 445.398 858.666 462.388C855.612 467.734 854.18 469.357 852.748 469.166C851.412 468.975 850.744 469.547 850.553 470.979C849.98 474.702 853.225 473.556 861.625 467.161C864.489 465.062 872.507 456.566 879.474 448.453C891.979 433.753 899.328 426.977 909.542 420.486C918.514 414.759 931.972 408.459 938.082 407.027C944.286 405.595 947.054 403.686 949.249 399.487C950.872 396.337 950.968 396.337 940.277 398.245Z" fill="black" fill-opacity="0.9"/>
<path d="M870.693 402.064C870.406 402.923 870.406 403.782 870.693 404.068C871.552 404.927 873.27 403.495 873.27 401.968C873.27 400.154 871.457 400.25 870.693 402.064Z" fill="black" fill-opacity="0.9"/>
<path d="M983.516 404.927C939.895 418.576 917.751 432.131 879.952 468.115C871.648 476.038 869.166 477.947 866.78 477.947C864.298 477.947 863.725 478.52 861.434 483.578C860.098 486.633 858.953 489.783 858.953 490.451C858.953 491.406 858.571 491.31 857.425 490.165C855.994 488.829 855.23 489.21 847.689 494.556C842.44 498.278 838.621 501.81 837.094 504.387C835.758 506.583 833.944 508.682 833.085 508.969C832.322 509.255 830.699 511.164 829.458 513.264C828.313 515.364 826.595 517.559 825.736 518.227C824.686 519.086 824.017 521.091 823.827 523.954C823.731 526.531 823.827 528.536 824.113 528.536C824.304 528.536 827.645 526.055 831.367 523C835.853 519.469 838.908 516.223 839.958 513.742C840.912 511.641 841.771 510.496 841.771 511.068C841.771 511.737 842.058 512.31 842.535 512.31C842.917 512.31 848.548 507.059 855.135 500.569C861.721 494.174 874.607 482.243 883.77 474.225C892.933 466.111 905.438 454.943 911.451 449.407C918.991 442.344 923.859 438.717 926.818 437.571C929.3 436.616 936.364 432.799 942.568 429.076C963.854 416.381 973.494 413.231 994.493 412.372C1011.29 411.704 1025.71 414.091 1045.46 420.772C1062.26 426.404 1064.94 427.74 1065.99 430.508C1066.56 431.94 1067.61 432.608 1069.71 432.703C1071.62 432.799 1074.58 434.422 1078.2 437.285C1083.45 441.389 1087.27 442.726 1088.42 440.912C1089.28 439.576 1079.54 427.549 1074.77 424.113C1068.56 419.531 1063.98 417.717 1058.35 417.622C1053.86 417.527 1053.67 417.336 1053.67 414.854C1053.67 412.276 1053.48 412.181 1050.62 412.754C1048.9 413.136 1046.42 413.422 1045.08 413.518C1042.98 413.518 1042.7 413.136 1042.7 409.89C1042.7 407.981 1042.41 406.359 1042.03 406.359C1041.55 406.359 1041.26 406.932 1041.26 407.695C1041.26 410.463 1039.16 410.272 1030.48 406.645C1022.27 403.209 1021.03 403.018 1011.67 402.923C1005.85 402.923 1000.79 402.445 999.552 401.777C997.071 400.346 999.266 399.963 983.516 404.927Z" fill="black" fill-opacity="0.9"/>
<path d="M861.721 409.127C858.666 412.277 857.807 415.14 860.671 412.945C864.107 410.368 866.589 407.886 866.589 407.122C866.589 405.595 864.489 406.454 861.721 409.127Z" fill="black" fill-opacity="0.9"/>
<path d="M999.743 417.527C997.643 417.717 989.243 418.767 981.225 419.818C967.385 421.631 966.24 421.917 963.09 424.686C959.367 428.026 956.122 429.458 948.963 431.176C942.472 432.608 936.172 436.521 923.382 446.83C917.655 451.412 910.496 456.471 907.632 457.903C904.387 459.525 900.569 462.675 897.515 466.207C889.878 474.988 877.184 487.492 857.616 505.628L839.671 522.332L840.244 527.773C840.817 533.786 839.385 536.268 838.335 530.923C838.049 529.109 837.476 527.582 837.094 527.582C836.044 527.677 833.658 529.968 830.508 533.977C828.694 536.363 826.499 538.082 825.449 538.082C823.826 538.082 823.636 538.558 824.208 541.327C824.972 545.622 823.826 547.626 822.108 545.24C820.867 543.618 820.677 543.713 819.34 546.959C817.622 551.063 817.431 559.653 819.054 560.608C820.39 561.467 824.686 556.312 824.399 554.308C824.208 553.545 823.158 552.781 821.917 552.59C817.431 551.922 820.39 549.536 825.64 549.536C829.935 549.536 832.703 546.099 833.562 539.99C834.231 535.6 834.422 535.122 835.185 536.84C835.567 538.082 836.521 539.036 837.285 539.036C837.953 539.036 841.485 535.313 845.112 530.636C848.739 526.055 857.712 516.223 865.061 508.778C874.893 498.565 878.138 494.746 877.756 493.41C877.375 491.883 878.138 491.31 881.288 490.356C884.438 489.497 887.588 486.728 897.133 476.897C903.719 470.12 909.828 464.584 910.687 464.584C912.405 464.584 918.227 459.334 921.855 454.562C923.191 452.748 924.146 452.08 924.432 452.843C925.291 454.753 926.436 454.37 931.686 450.171C938.082 445.207 945.145 441.58 960.131 435.949C966.717 433.467 974.735 430.126 977.789 428.695C983.326 426.021 983.898 425.926 998.789 425.926H1014.06L1028.86 431.462C1038.21 434.994 1046.13 437.285 1050.33 437.858C1059.21 438.907 1059.5 439.003 1064.55 445.493C1068.85 450.934 1072.76 453.321 1081.54 455.516C1084.79 456.375 1086.41 457.903 1089.28 462.388C1091.85 466.397 1093.76 467.639 1093.76 465.252C1093.76 462.388 1086.13 451.412 1080.3 446.066C1072.1 438.431 1062.93 433.944 1047.28 429.649C1046.61 429.458 1046.04 428.312 1046.04 426.976C1046.04 425.64 1045.65 424.303 1045.08 424.017C1044.61 423.731 1044.13 424.113 1044.13 424.876C1044.13 427.453 1042.41 427.453 1038.21 424.686C1028.76 418.386 1015.97 415.999 999.743 417.527Z" fill="black" fill-opacity="0.9"/>
<path d="M997.93 430.985C995.829 433.371 994.398 433.753 978.744 435.471C961.753 437.285 958.222 438.526 949.154 445.971C944.954 449.407 938.559 453.702 934.836 455.707C918.514 464.202 899.615 479.283 889.211 492.265C885.679 496.655 881.574 500.76 880.047 501.428C878.52 502.096 876.134 504.196 874.607 506.105C869.071 513.264 865.539 516.891 863.439 517.464C861.912 517.846 860.098 520.518 856.757 527.104C854.275 532.068 852.271 536.84 852.271 537.604C852.271 539.513 851.316 539.417 849.694 537.318C848.453 535.791 848.357 535.791 846.926 537.604C846.162 538.654 844.253 541.518 842.726 543.999C840.721 547.149 839.29 548.581 837.858 548.581C835.949 548.581 835.853 548.867 836.426 553.258C836.808 556.122 836.617 558.221 836.044 558.603C835.567 558.889 835.09 558.317 835.09 557.267C835.09 555.358 833.467 553.64 832.608 554.594C832.322 554.88 832.417 557.554 832.799 560.608L833.467 566.048L838.717 560.417C841.676 557.362 847.212 551.444 851.03 547.435C855.135 543.14 857.998 539.322 857.998 538.177C857.998 536.84 858.571 536.172 859.907 536.172C861.243 536.172 862.771 534.645 864.68 531.591C866.207 529.109 869.071 525.386 871.075 523.286C873.08 521.187 876.42 516.795 878.52 513.55C880.906 509.923 883.484 507.155 885.393 506.2C887.397 505.246 888.733 503.814 889.115 502.096C889.402 500.664 889.688 499.137 889.783 498.755C890.261 496.942 918.8 473.27 928.155 466.97C944.763 455.898 971.489 443.299 987.335 439.29C997.547 436.712 1011.29 437.762 1024.56 442.153C1032.01 444.634 1048.9 453.13 1065.13 462.675C1080.11 471.456 1091.66 477.47 1092.43 476.802C1092.62 476.611 1091.66 474.797 1090.33 472.793C1088.8 470.597 1083.84 466.588 1077.15 462.198C1071.24 458.284 1065.22 453.607 1063.79 451.793C1062.07 449.502 1059.97 448.071 1057.4 447.403C1055.3 446.83 1047.47 443.775 1040.12 440.625C1023.42 433.658 1013.58 430.508 1005.76 429.649C1000.41 429.171 999.552 429.267 997.93 430.985Z" fill="black" fill-opacity="0.9"/>
<path d="M983.516 446.066C967.003 449.694 950.871 457.043 932.831 469.261C916.509 480.238 908.777 487.492 890.642 508.969C874.129 528.536 872.602 530.159 869.07 531.877C866.302 533.214 861.434 540.754 859.811 546.195C858.952 549.249 857.807 550.967 856.375 551.54C855.229 551.922 853.13 554.117 851.793 556.312C849.502 559.844 849.407 560.321 850.743 561.849C851.602 562.803 852.27 564.044 852.27 564.616C852.27 566.431 854.657 565.953 856.757 563.567C857.807 562.422 859.62 559.748 860.67 557.649C861.72 555.549 863.916 552.876 865.538 551.635C867.161 550.49 869.356 547.722 870.502 545.431C871.647 543.236 875.656 538.177 879.379 534.263C883.101 530.35 888.924 523 892.265 518.037C898.946 508.014 902.382 504.578 923.381 486.824C931.304 480.142 939.608 472.983 941.994 470.788C945.622 467.543 947.34 466.684 952.781 465.729C956.408 465.061 963.28 462.771 968.053 460.67C993.824 449.312 998.883 448.643 1015.49 454.37C1021.03 456.184 1027.04 457.998 1028.95 458.284C1030.76 458.666 1036.49 461.625 1041.55 464.965C1050.62 470.979 1056.15 473.842 1057.01 472.983C1057.3 472.793 1057.78 471.17 1058.06 469.547C1058.54 467.161 1058.35 466.397 1056.92 465.825C1055.87 465.348 1052.15 463.057 1048.42 460.67C1040.02 455.134 1030.1 450.075 1022.17 447.403C1013.87 444.539 993.443 443.871 983.516 446.066Z" fill="black" fill-opacity="0.9"/>
<path d="M983.326 456.852C981.607 457.998 980.176 459.238 980.176 459.716C980.176 460.766 985.616 461.529 993.252 461.625C998.693 461.625 1003.47 463.629 1004.9 466.397C1005.66 467.829 1007.38 468.211 1013.11 468.593C1019.31 468.974 1021.6 469.738 1029.14 473.461C1039.83 478.806 1049 486.633 1067.9 506.487C1075.44 514.504 1081.74 520.804 1082.02 520.518C1082.69 519.85 1077.82 510.687 1072.29 502.287C1065.41 491.692 1060.16 486.155 1054.53 483.388C1051.95 482.051 1048.42 479.283 1046.9 477.374C1039.83 468.497 1033.15 465.348 1007.38 458.761C991.82 454.848 987.239 454.466 983.326 456.852Z" fill="black" fill-opacity="0.9"/>
<path d="M851.316 461.72C850.553 463.247 850.553 463.63 851.698 463.63C853.225 463.63 854.466 461.053 853.225 460.289C852.748 460.002 851.889 460.67 851.316 461.72Z" fill="black" fill-opacity="0.9"/>
<path d="M966.812 465.062C964.235 467.161 962.135 468.211 961.085 467.925C957.171 466.684 945.622 473.938 931.686 486.442C926.627 490.929 917.941 498.469 912.5 503.147C901.715 512.596 895.988 518.991 891.31 527.391C889.592 530.35 885.965 535.218 883.292 538.177C880.62 541.136 876.324 546.672 873.747 550.585C871.265 554.499 869.07 557.84 868.879 558.03C868.688 558.222 867.925 557.935 867.256 557.267C865.634 556.026 864.298 557.744 861.052 565.094C858.093 571.775 855.23 575.403 851.698 576.835C849.789 577.694 848.453 578.839 848.453 579.889C848.453 582.466 844.921 587.621 842.344 588.861C841.007 589.434 839.862 590.771 839.671 591.82C839.48 592.87 838.144 594.493 836.521 595.352C834.326 596.593 833.562 597.738 833.18 600.697C832.799 603.465 832.512 604.038 831.94 602.702C830.89 599.934 829.076 601.366 827.835 605.947C827.262 608.525 826.308 610.052 825.544 609.86C824.781 609.67 824.59 610.147 825.067 611.292C825.449 612.247 826.022 613.774 826.213 614.633C827.072 617.497 829.362 616.542 830.985 612.724C832.799 608.238 832.799 608.238 834.708 609.765C836.426 611.197 835.949 611.674 841.867 603.179C843.489 600.888 846.257 598.216 847.975 597.07C850.075 595.925 852.366 593.157 854.18 589.72C855.802 586.762 859.048 581.989 861.339 579.125C863.725 576.262 867.447 570.916 869.643 567.194C871.838 563.567 875.084 558.699 876.802 556.408C878.52 554.117 879.952 551.158 879.952 549.822C879.952 548.294 881.192 546.29 883.483 544.19C885.392 542.377 887.301 540.945 887.683 540.945C888.065 540.945 892.36 536.077 897.133 530.159C906.391 518.896 911.164 514.123 915.46 511.832C917.178 510.878 918.609 508.778 919.755 505.628C921.282 501.332 922.905 499.328 922.905 501.81C922.905 503.814 924.813 502.574 930.732 496.751C934.549 493.028 939.704 489.21 944.763 486.538C949.249 484.151 956.312 479.761 960.512 476.706L968.149 471.17L980.175 471.456C991.247 471.648 992.393 471.552 996.211 469.357C1000.7 466.78 1001.27 465.538 998.025 465.538C996.784 465.538 991.725 464.679 986.762 463.63C973.78 460.957 971.585 461.053 966.812 465.062Z" fill="black" fill-opacity="0.9"/>
<path d="M828.121 467.066C827.072 468.974 826.403 474.034 827.072 476.42C828.026 480.238 830.317 477.756 830.317 472.793C830.317 468.879 829.076 465.634 828.121 467.066Z" fill="black" fill-opacity="0.9"/>
<path d="M844.73 468.784C843.966 469.643 843.68 470.597 844.062 470.979C844.921 471.838 846.83 469.738 846.353 468.402C846.162 467.638 845.589 467.734 844.73 468.784Z" fill="black" fill-opacity="0.9"/>
<path d="M1057.97 473.366C1057.49 476.324 1058.06 477.184 1067.23 486.728C1077.25 497.133 1080.49 499.042 1084.12 497.037C1086.89 495.605 1086.7 494.937 1082.88 492.838C1081.07 491.883 1076.68 487.492 1073.24 483.102C1067.04 475.274 1061.79 470.311 1059.59 470.311C1059.02 470.311 1058.25 471.743 1057.97 473.366Z" fill="black" fill-opacity="0.9"/>
<path d="M836.139 474.893C834.803 477.375 835.471 478.902 837.094 477.279C837.666 476.706 837.953 475.465 837.762 474.511C837.475 472.888 837.285 472.888 836.139 474.893Z" fill="black" fill-opacity="0.9"/>
<path d="M1000.7 473.747C999.647 473.938 993.443 474.511 986.857 474.988C972.253 476.229 968.339 477.374 963.662 482.051C960.99 484.724 959.653 485.488 958.794 484.724C957.935 483.961 956.026 485.201 951.54 489.401C948.199 492.455 945.144 494.842 944.668 494.556C944.285 494.269 941.995 494.937 939.608 495.987C934.073 498.469 910.114 522.522 898.278 537.413C893.697 543.236 886.824 551.73 883.102 556.312C879.283 560.99 876.133 564.999 876.133 565.285C876.133 565.571 874.606 569.008 872.793 573.017C870.979 576.93 869.452 580.843 869.452 581.607C869.452 582.657 868.879 582.848 867.543 582.466C866.207 582.084 865.443 582.37 864.966 583.612C864.679 584.566 862.77 587.525 860.766 590.198C858.666 592.87 856.757 596.306 856.471 597.929C856.089 599.838 854.943 601.27 852.748 602.415C850.934 603.37 846.066 607.952 841.867 612.533C837.667 617.115 832.703 621.601 830.699 622.556C827.262 624.178 827.262 624.274 827.835 628.569C828.122 630.955 828.694 633.151 828.981 633.437C830.412 634.869 834.899 630.574 837.571 625.133C839.671 620.933 840.721 619.501 841.103 620.551C841.485 621.41 842.63 622.078 843.775 622.078C845.685 622.078 845.78 621.697 845.207 618.164C844.73 615.397 844.921 614.442 845.685 615.015C846.735 615.683 856.089 606.424 856.089 604.706C856.089 604.229 856.471 604.038 856.948 604.419C858.57 605.374 864.011 598.884 868.688 590.484C874.225 580.748 875.37 579.316 881.097 575.403C885.583 572.444 888.065 567.862 889.974 559.272C890.356 557.553 892.265 554.212 894.365 551.826C896.369 549.44 898.087 546.672 898.087 545.717C898.087 544.476 899.424 543.14 901.81 541.899C904.196 540.754 908.491 536.459 913.55 530.254C923.095 518.513 929.3 513.169 952.494 496.751C968.721 485.201 970.439 484.247 973.971 484.437C976.071 484.533 981.416 483.961 985.807 483.102C990.198 482.338 995.447 481.956 997.357 482.242C1000.51 482.815 1000.98 482.624 1001.65 480.62C1002.22 478.806 1002.42 478.71 1002.8 480.047C1003.37 482.338 1006.42 483.102 1013.3 482.815C1020.74 482.529 1025.32 484.437 1035.73 492.265C1039.93 495.51 1044.51 498.278 1045.94 498.565C1047.85 498.946 1049.28 500.664 1051.95 505.532C1057.2 515.173 1066.18 526.627 1074.39 534.168C1078.39 537.89 1081.83 540.754 1082.12 540.563C1082.31 540.276 1081.74 537.89 1080.88 535.122C1079.54 531.304 1077.44 528.249 1071.71 522.332C1067.51 518.037 1064.17 513.741 1064.17 512.882C1064.17 509.923 1059.59 504.101 1051.67 496.942C1030.76 478.138 1015.59 471.17 1000.7 473.747Z" fill="black" fill-opacity="0.9"/>
<path d="M1075.15 476.133C1077.34 483.102 1082.98 488.924 1086.79 488.16C1088.51 487.874 1088.99 488.16 1088.99 489.592C1088.99 491.979 1090.71 495.128 1092.04 495.128C1093.48 495.128 1092.23 489.783 1089.85 485.869C1088.7 484.151 1085.46 481.001 1082.4 478.997C1074.19 473.461 1074.39 473.556 1075.15 476.133Z" fill="black" fill-opacity="0.9"/>
<path d="M820.772 476.706C820.867 478.043 823.635 481.192 824.208 480.62C825.162 479.57 823.54 476.038 822.108 476.038C821.344 476.038 820.772 476.324 820.772 476.706Z" fill="black" fill-opacity="0.9"/>
<path d="M843.871 477.183C843.203 477.851 842.726 479.665 842.726 481.383C842.726 483.961 842.439 484.342 840.912 483.961C839.958 483.674 838.812 483.961 838.526 484.533C838.144 485.106 836.999 485.583 835.853 485.583C834.231 485.583 834.04 485.965 834.612 487.683C834.994 488.924 835.281 490.833 835.281 491.979C835.281 493.219 835.567 494.173 835.949 494.173C836.999 494.173 840.339 490.26 841.771 487.587C842.63 485.965 843.108 485.679 843.68 486.538C844.253 487.397 844.826 487.397 846.544 486.538C848.357 485.583 848.548 484.915 847.976 482.433C847.594 480.715 847.212 478.615 847.212 477.661C847.116 475.752 845.494 475.56 843.871 477.183Z" fill="black" fill-opacity="0.9"/>
<path d="M850.648 477.088C849.121 478.615 849.026 481.765 850.362 481.765C851.603 481.765 852.557 479.474 852.08 477.47C851.889 476.229 851.603 476.133 850.648 477.088Z" fill="black" fill-opacity="0.9"/>
<path d="M855.898 481.001C852.844 484.438 852.557 485.583 854.657 485.583C856.375 485.583 859.239 481.384 858.762 479.474C858.571 478.329 857.807 478.806 855.898 481.001Z" fill="black" fill-opacity="0.9"/>
<path d="M977.789 488.256C961.467 494.269 960.894 494.556 958.603 498.087C955.645 502.764 951.254 506.296 941.327 511.832C931.591 517.178 925.005 523 921.855 529.013C920.518 531.591 918.514 533.69 916.892 534.359C915.364 535.027 911.928 538.082 909.351 541.327C906.678 544.477 902.669 548.486 900.474 550.108C896.369 553.258 893.887 557.649 894.46 560.512C894.938 563.09 904.96 555.167 920.996 539.513C934.168 526.723 943.904 518.61 950.013 515.46C952.208 514.314 953.163 514.218 954.977 515.173C957.554 516.605 959.367 515.65 965.189 510.114C968.339 507.155 969.103 506.869 973.207 507.251C975.785 507.537 980.653 507.059 984.185 506.2C990.58 504.673 990.675 504.673 994.111 507.059C998.311 509.923 1003.47 510.973 1006.52 509.541C1009.77 508.11 1009.38 505.246 1005.76 502.478C999.266 497.706 993.73 497.037 980.176 499.424C975.689 500.187 969.676 500.856 966.812 500.856C961.849 500.856 961.753 500.76 963.758 499.328C970.63 494.556 988.67 491.692 994.302 494.556C997.93 496.464 999.648 496.464 1001.46 494.746C1002.7 493.506 1003.18 493.792 1005.85 497.037C1007.67 499.233 1011.29 501.905 1015.01 503.814C1018.45 505.437 1021.22 507.442 1021.22 508.205C1021.22 509.064 1022.27 510.878 1023.61 512.5C1024.94 514.028 1025.99 515.841 1025.99 516.605C1025.99 517.273 1028.19 519.277 1030.86 520.996C1037.45 525.196 1043.36 532.545 1052.72 548.294C1057.11 555.549 1062.84 564.426 1065.6 568.149C1068.37 571.775 1071.24 576.739 1071.9 579.03C1072.67 581.703 1074.77 584.852 1077.25 587.334C1080.21 590.293 1083.36 595.639 1088.51 606.424C1092.52 614.633 1095.96 621.124 1096.24 620.838C1097.1 619.979 1094.62 608.429 1092.71 603.943C1091.66 601.556 1089.66 598.406 1088.23 596.974C1086.32 594.97 1085.74 593.538 1085.94 591.152C1086.32 587.621 1084.89 585.998 1082.88 587.621C1081.83 588.48 1081.45 588.098 1081.07 585.616C1079.64 577.407 1078.87 575.594 1074.58 569.962C1072 566.526 1065.03 556.408 1059.02 547.34C1053 538.368 1043.84 525.959 1038.69 519.85C1033.44 513.742 1028.19 507.442 1027.04 505.819C1025.51 503.623 1024.18 502.764 1022.27 502.764C1020.17 502.764 1018.16 501.237 1013.2 495.988C1008.24 490.642 1006.42 489.306 1004.8 489.688C1003.47 490.069 1002.32 489.592 1001.17 488.16C999.743 486.442 998.311 486.06 992.489 485.774C986.571 485.583 984.185 485.965 977.789 488.256Z" fill="black" fill-opacity="0.9"/>
<path d="M1011.77 487.588C1009.1 488.638 1009.19 488.829 1016.35 493.601C1019.12 495.51 1022.56 497.037 1023.99 497.037C1025.9 497.037 1026.95 497.896 1028.66 500.856C1029.81 502.955 1033.25 506.392 1036.3 508.587C1039.26 510.687 1042.79 513.742 1044.13 515.173C1046.13 517.464 1046.8 517.655 1048.14 516.7C1051.76 514.028 1046.13 504.674 1040.88 504.674C1039.64 504.674 1037.83 503.242 1036.2 500.856C1029.71 491.692 1017.69 485.202 1011.77 487.588Z" fill="black" fill-opacity="0.9"/>
<path d="M827.93 491.883C827.644 494.269 826.69 497.992 825.926 500.092C825.162 502.287 824.685 504.196 824.876 504.292C825.067 504.482 826.403 504.101 827.835 503.433C829.839 502.574 830.221 501.81 829.839 500.092C829.458 498.755 830.03 497.228 831.271 495.892C832.512 494.46 832.894 493.506 832.226 492.838C831.748 492.36 831.271 490.928 831.271 489.688C831.271 485.583 828.694 487.301 827.93 491.883Z" fill="black" fill-opacity="0.9"/>
<path d="M822.394 494.937C819.34 498.278 817.717 505.819 819.817 507.059C820.867 507.728 821.631 505.914 824.017 498.183C825.449 493.028 824.972 491.979 822.394 494.937Z" fill="black" fill-opacity="0.9"/>
<path d="M1079.44 501.715C1079.44 504.768 1098.53 524.241 1099.3 521.854C1099.49 521.377 1098.06 517.941 1096.15 514.218C1091.85 506.2 1086.41 500.855 1082.31 500.855C1080.69 500.855 1079.44 501.237 1079.44 501.715Z" fill="black" fill-opacity="0.9"/>
<path d="M1010.91 511.068C1011.1 512.691 1011.77 513.741 1012.63 513.741C1013.49 513.741 1014.16 512.691 1014.35 511.068C1014.63 508.969 1014.25 508.491 1012.63 508.491C1011.01 508.491 1010.62 508.969 1010.91 511.068Z" fill="black" fill-opacity="0.9"/>
<path d="M974.448 511.737C972.539 512.5 968.721 514.218 965.858 515.65C962.994 517.082 958.126 518.896 954.976 519.659C947.722 521.282 945.908 522.619 930.54 537.509L917.655 550.013L916.7 556.885C916.128 560.704 916.032 563.853 916.414 563.853C916.795 563.853 919.086 561.371 921.663 558.413C931.4 546.863 937.604 541.136 941.518 540.086C944.19 539.417 945.908 538.177 947.149 536.077C949.345 532.45 954.021 529.491 957.744 529.491C959.94 529.491 961.658 528.441 964.33 525.768C977.216 512.596 998.693 515.364 1026.18 533.69C1033.44 538.463 1034.39 539.609 1037.26 545.336C1038.97 548.772 1044.89 559.081 1050.33 568.244C1063.03 589.434 1063.31 589.912 1063.12 594.111C1063.03 596.115 1064.08 600.697 1065.41 604.42C1068.95 614.156 1072.76 627.424 1073.81 633.819C1074.86 640.405 1076.1 643.077 1078.2 643.077C1080.97 643.077 1078.97 632.865 1073.62 619.024C1069.42 608.238 1068.56 605.088 1068.18 598.216C1067.8 590.198 1067.7 589.912 1058.35 571.489C1044.61 544.095 1036.97 532.927 1026.18 524.527C1021.03 520.423 1020.46 520.137 1019.02 521.568C1017.59 523 1017.21 522.714 1013.39 518.991C1009.48 515.077 1009 514.791 1003.56 514.696C1000.03 514.505 996.211 513.742 993.538 512.5C988.575 510.114 979.793 509.828 974.448 511.737Z" fill="black" fill-opacity="0.9"/>
<path d="M1015.49 512.596C1015.49 514.696 1018.07 518.037 1019.6 518.037C1020.74 518.037 1020.36 512.786 1019.12 511.546C1017.31 509.732 1015.49 510.209 1015.49 512.596Z" fill="black" fill-opacity="0.9"/>
<path d="M1049.57 516.795C1047.75 518.513 1049 523.573 1051.86 526.245C1053.48 527.773 1055.87 530.827 1057.2 533.022C1058.44 535.313 1060.83 538.177 1062.36 539.417C1063.89 540.754 1065.13 542.472 1065.13 543.331C1065.13 546.958 1068.85 552.113 1073.43 554.499C1077.44 556.694 1078.3 557.744 1079.83 562.135C1082.98 571.012 1086.99 578.171 1089.47 579.316C1092.81 580.843 1093.28 579.793 1091.57 575.116C1088.8 567.957 1081.83 556.981 1069.71 540.849C1063.31 532.258 1056.92 523.095 1055.58 520.614C1053.39 516.509 1051.19 515.077 1049.57 516.795Z" fill="black" fill-opacity="0.9"/>
<path d="M818.577 522.522C818.195 522.809 817.908 524.05 817.908 525.291C817.908 526.914 818.29 527.295 819.817 526.914C821.058 526.627 821.726 525.577 821.726 524.145C821.726 521.95 819.913 521.091 818.577 522.522Z" fill="black" fill-opacity="0.9"/>
<path d="M973.685 522.522C971.394 523 964.903 528.632 964.903 530.159C964.903 530.731 967.099 530.923 970.153 530.636C973.303 530.35 978.744 530.923 983.612 531.877C990.293 533.309 992.393 533.404 994.97 532.545C998.884 531.018 1000.98 531.782 1010.34 538.177C1014.35 540.849 1018.93 543.617 1020.74 544.381C1023.03 545.335 1024.75 547.245 1027.23 551.635C1029.05 554.976 1034.01 563.567 1038.21 570.821C1042.41 578.075 1047.47 588.288 1049.47 593.538C1052.15 600.506 1053.48 602.988 1054.72 602.988C1056.06 602.988 1056.92 605.088 1058.92 614.155C1065.13 641.264 1067.23 649.759 1069.61 656.918C1072.19 664.84 1076.2 673.622 1077.25 673.622C1078.49 673.622 1076.39 664.267 1073.72 658.445C1072 654.436 1070.09 647.277 1068.47 638.687C1065.03 619.119 1060.07 602.988 1057.59 602.988C1057.11 602.988 1056.54 600.697 1056.35 597.929C1055.68 590.961 1047.28 572.539 1044.41 571.871C1043.17 571.489 1042.41 570.916 1042.7 570.535C1043.65 568.912 1040.31 560.799 1036.11 554.404C1030.57 546.099 1019.31 534.836 1012.34 530.636C1009.48 528.918 1004.52 526.531 1001.27 525.482C995.925 523.668 994.875 523.573 990.293 524.718C985.425 525.863 984.948 525.768 982.562 523.859C979.985 521.95 978.266 521.663 973.685 522.522Z" fill="black" fill-opacity="0.9"/>
<path d="M1083.26 523.573C1083.26 526.245 1086.03 529.491 1088.42 529.491C1090.33 529.491 1090.71 530.064 1091.18 533.5C1091.57 536.172 1092.62 538.368 1094.62 540.372C1098.06 543.809 1098.34 542.854 1096.15 535.313C1093.76 527.486 1083.26 517.846 1083.26 523.573Z" fill="black" fill-opacity="0.9"/>
<path d="M818.195 531.972C816.763 534.168 816.477 534.263 815.427 532.927C814.472 531.495 814.281 531.591 813.708 533.69C813.136 536.172 813.804 539.036 815.045 539.036C816.477 539.036 820.772 533.214 820.772 531.304C820.772 528.822 820.199 529.013 818.195 531.972Z" fill="black" fill-opacity="0.9"/>
<path d="M994.493 536.267C994.493 538.463 1004.9 547.818 1011.2 551.158C1017.02 554.404 1017.88 555.167 1018.64 558.317C1019.12 560.321 1021.12 563.757 1023.22 566.048C1029.24 573.017 1039.16 598.979 1043.75 620.169C1044.61 624.083 1045.56 634.583 1045.94 643.555C1046.7 659.591 1046.7 659.877 1050.52 669.327C1053.67 676.963 1055.01 682.499 1057.4 696.721C1060.26 713.234 1062.65 723.256 1063.89 723.256C1064.27 723.256 1064.17 719.057 1063.89 713.807C1063.22 704.357 1061.12 692.903 1057.49 678.967C1056.44 674.767 1055.58 669.899 1055.58 667.99C1055.49 666.082 1054.72 662.836 1053.67 660.736C1052.53 658.35 1051.76 654.818 1051.76 651.191C1051.76 647.564 1051 643.936 1049.76 641.169C1048.42 638.209 1047.95 635.823 1048.33 633.437C1048.71 631.337 1048.33 628.569 1047.56 626.66C1046.42 623.988 1046.32 621.983 1047.09 616.542C1048.23 608.238 1047.09 602.606 1041.46 590.007C1039.35 585.33 1037.16 579.793 1036.49 577.694C1033.25 567.48 1024.08 554.785 1012.92 545.24C1004.61 538.082 994.493 533.214 994.493 536.267Z" fill="black" fill-opacity="0.9"/>
<path d="M952.972 539.036C941.518 543.618 926.341 558.699 917.464 574.162C914.982 578.648 910.878 584.471 908.491 587.143C906.105 589.816 901.618 595.256 898.469 599.17C895.415 603.084 891.215 607.952 889.21 609.956C885.869 613.201 885.679 613.774 886.251 617.115C887.014 621.506 887.397 622.078 889.115 622.078C890.069 622.078 890.451 620.742 890.451 616.542L890.547 611.102L892.074 613.965L893.601 616.733L895.128 614.442C895.987 613.106 899.9 608.047 903.909 602.988C907.918 598.025 912.309 591.916 913.741 589.529C915.173 587.048 917.082 584.852 918.132 584.566C919.086 584.28 921.377 582.084 923.095 579.507C924.813 577.026 927.677 573.112 929.395 570.821C931.209 568.339 932.449 565.572 932.449 563.853C932.449 561.276 932.641 561.085 935.218 561.563C939.131 562.422 941.231 560.894 945.717 553.926C949.917 547.435 952.589 545.717 954.88 547.626C956.026 548.581 956.408 548.486 956.885 547.054C958.412 542.281 959.462 539.99 960.131 539.99C961.753 539.99 961.944 544.763 960.512 548.104C959.748 550.013 959.271 551.827 959.462 552.017C959.653 552.208 961.18 551.827 962.803 551.254C965.953 550.013 966.717 547.913 964.807 546.004C964.139 545.336 963.948 544.19 964.33 543.331C964.807 542.091 965.666 541.804 968.148 542.281C970.63 542.758 971.489 542.567 971.966 541.327C973.016 538.654 971.012 537.699 964.139 537.413C959.462 537.223 956.408 537.604 952.972 539.036Z" fill="black" fill-opacity="0.9"/>
<path d="M973.494 540.372C973.494 544.19 975.498 545.336 980.557 544.381C982.467 543.999 984.28 544.285 985.425 545.144C987.239 546.481 987.335 546.576 985.616 549.44C983.612 552.781 984.185 556.503 986.666 556.026C987.525 555.835 988.575 554.308 989.148 552.59C989.625 550.967 990.389 549.536 990.866 549.536C991.344 549.536 994.684 552.303 998.311 555.739C1001.94 559.176 1005.57 561.944 1006.23 561.944C1007 561.944 1009.38 565.571 1011.48 570.057C1013.68 574.544 1017.97 582.466 1021.22 587.621C1024.37 592.775 1026.95 598.025 1026.95 599.361C1026.95 600.697 1028.09 605.661 1029.43 610.243C1030.76 614.919 1032.48 621.124 1033.34 623.987C1034.39 627.9 1034.96 637.828 1035.54 662.932C1036.3 695.385 1036.3 696.816 1034.49 699.871C1032.58 703.116 1029.33 717.434 1030.38 718.388C1031.62 719.63 1034.49 714.379 1036.01 707.984C1036.97 703.975 1038.4 700.73 1039.45 700.062C1040.98 698.916 1041.26 696.816 1041.84 682.594C1043.94 627.805 1031.24 578.934 1008.62 554.69C1003.18 548.867 1000.12 547.34 998.693 549.631C998.406 550.203 996.879 548.581 995.352 545.908C991.916 539.895 986.762 537.126 978.934 537.126H973.494V540.372Z" fill="black" fill-opacity="0.9"/>
<path d="M1083.45 542.09C1081.83 543.713 1082.02 544.381 1084.6 546.958C1085.93 548.294 1088.23 551.826 1089.75 554.88C1091.28 558.03 1093.48 561.371 1094.62 562.326C1096.63 564.14 1096.63 564.14 1096.63 561.371C1096.63 558.221 1094.72 554.499 1090.23 548.581C1088.51 546.29 1087.08 543.713 1087.08 542.663C1087.08 540.754 1085.17 540.372 1083.45 542.09Z" fill="black" fill-opacity="0.9"/>
<path d="M968.721 548.104C966.907 550.299 968.339 552.59 971.298 552.208C973.398 552.017 974.066 551.349 974.257 549.249C974.543 547.054 974.257 546.672 972.252 546.672C970.916 546.672 969.389 547.34 968.721 548.104Z" fill="black" fill-opacity="0.9"/>
<path d="M977.502 550.012C975.88 553.545 976.071 554.308 978.648 554.308C981.702 554.308 982.562 552.781 981.035 549.917C979.507 547.054 978.839 547.054 977.502 550.012Z" fill="black" fill-opacity="0.9"/>
<path d="M950.395 551.54C948.677 552.494 947.913 559.081 949.44 559.081C951.636 559.081 954.404 555.835 954.404 553.258C954.404 550.395 953.259 549.822 950.395 551.54Z" fill="black" fill-opacity="0.9"/>
<path d="M811.227 555.644C811.227 557.458 810.845 559.272 810.272 559.558C809.127 560.226 809.031 564.521 810.081 565.189C811.227 565.858 816.954 562.23 816.954 560.894C816.954 560.226 816.477 558.126 815.809 556.122C815.045 553.545 814.186 552.399 812.945 552.399C811.609 552.399 811.227 553.162 811.227 555.644Z" fill="black" fill-opacity="0.9"/>
<path d="M908.396 556.217C904.578 558.317 901.81 561.753 900.187 566.431C898.946 570.153 899.328 570.248 903.814 567.576C909.446 564.14 915.269 557.744 915.269 554.785C915.269 553.735 911.832 554.499 908.396 556.217Z" fill="black" fill-opacity="0.9"/>
<path d="M962.994 554.976C957.649 555.263 956.599 555.644 955.836 557.458C955.263 558.699 953.831 559.653 952.303 559.844C950.968 560.035 949.154 561.18 948.294 562.422C947.34 563.853 946.195 564.521 944.954 564.14C943.618 563.758 942.186 564.999 939.036 569.294C936.84 572.348 931.018 578.648 926.15 583.23C916.319 592.489 910.019 601.175 908.301 607.57C907.537 610.433 906.487 612.056 905.055 612.629C903.814 613.106 902.86 614.061 902.86 614.92C902.86 615.683 902.001 616.351 900.951 616.351C899.519 616.351 898.851 617.21 898.374 619.31C897.992 621.315 896.656 622.937 894.174 624.56C890.165 627.042 887.301 631.623 887.779 634.773C888.256 638.305 890.833 637.064 893.315 632.101C894.746 629.428 896.274 627.424 896.942 627.519C897.61 627.71 898.087 626.755 898.087 625.419C898.087 623.319 898.374 623.033 900.378 623.605C902.383 624.083 902.764 623.797 903.051 621.506C903.242 619.501 904.006 618.642 906.201 618.069C907.919 617.592 910.401 615.492 912.405 613.01C914.218 610.624 917.178 608.047 918.8 607.188C921.568 605.947 921.95 605.279 921.95 602.129C921.95 599.075 922.523 598.12 925.864 595.352C928.059 593.634 931.686 589.243 934.073 585.712C937.127 580.939 939.418 578.553 942.281 577.121C944.477 575.976 950.299 572.348 955.263 569.008C960.131 565.667 964.903 562.898 965.858 562.898C966.812 562.898 970.63 563.567 974.353 564.426C981.511 566.048 984.853 565.762 987.239 563.281C989.529 561.085 989.148 560.226 985.425 558.413C982.753 557.171 981.416 556.981 979.317 557.744C977.026 558.699 976.453 558.508 974.639 556.503C973.59 555.358 971.871 554.404 970.916 554.499C969.962 554.594 966.431 554.785 962.994 554.976Z" fill="black" fill-opacity="0.9"/>
<path d="M989.72 563.281C989.72 567.576 990.006 568.626 991.533 569.103C993.92 569.867 997.833 574.449 1002.32 581.798C1004.42 585.33 1007.28 588.575 1009.57 589.912C1013.11 592.202 1013.49 592.87 1016.26 602.702C1020.74 618.069 1022.94 628.473 1024.66 641.837C1026.47 655.582 1025.8 662.359 1021.79 672.19C1019.69 677.536 1018.83 680.876 1016.45 693.667C1015.68 697.867 1014.25 700.539 1009.67 706.553C1006.42 710.753 1001.75 718.484 999.17 723.734C996.401 729.652 992.965 734.997 990.293 737.765C985.902 742.347 982.466 747.788 983.42 748.742C983.707 749.028 985.33 748.36 987.048 747.31C990.579 745.115 994.874 739.579 1001.37 728.983C1003.85 725.07 1006.9 720.775 1008.33 719.439C1011.29 716.67 1013.58 711.707 1013.58 708.176C1013.58 706.934 1014.63 704.93 1015.78 703.784C1018.55 701.207 1020.46 696.053 1023.13 683.931C1024.37 678.395 1025.9 673.717 1027.04 672.477L1028.95 670.281L1028.57 677.44C1028.28 681.449 1026.47 690.422 1024.46 697.676C1020.17 713.52 1021.12 716.575 1026.75 704.643C1030.76 696.149 1031.24 691.662 1030.95 663.218C1030.67 638.878 1030.48 635.251 1028.47 626.469C1027.23 621.219 1025.42 612.534 1024.46 607.283C1022.94 599.361 1022.08 596.879 1018.83 592.011C1016.64 588.861 1012.82 582.657 1010.24 578.171C1004.04 567.194 1001.46 564.044 996.497 560.799C990.388 556.981 989.72 557.171 989.72 563.281Z" fill="black" fill-opacity="0.9"/>
<path d="M827.644 559.748C826.976 560.035 824.972 563.185 823.158 566.717C820.581 571.871 819.531 573.112 818.099 572.73C816.954 572.444 815.999 573.112 815.236 574.735C814.663 576.071 814.472 577.216 814.949 577.216C815.427 577.216 816.095 578.266 816.381 579.603C817.145 582.753 818.004 582.561 820.008 579.125C820.963 577.502 823.063 575.498 824.685 574.544C826.308 573.685 828.694 572.062 829.935 571.012C831.94 569.198 832.035 568.817 830.985 564.044C830.412 561.371 829.744 559.081 829.458 559.176C829.076 559.176 828.312 559.462 827.644 559.748Z" fill="black" fill-opacity="0.9"/>
<path d="M845.685 564.044C845.208 565.38 844.73 565.667 844.253 564.999C843.108 562.994 840.817 564.999 834.994 573.017C831.844 577.407 828.408 581.511 827.358 581.989C825.258 583.134 825.067 585.139 826.595 589.529C827.74 592.679 829.363 593.348 831.176 591.152C831.94 590.293 831.94 589.148 831.367 587.43C830.222 584.471 830.89 583.612 833.276 585.139C835.758 586.666 837.667 585.33 841.39 579.698C845.208 573.971 848.453 570.535 850.076 570.535C850.744 570.535 851.316 569.676 851.316 568.53C851.316 563.853 847.021 560.417 845.685 564.044Z" fill="black" fill-opacity="0.9"/>
<path d="M909.732 567.576C907.632 569.198 903.242 574.162 899.996 578.839C896.655 583.42 891.787 589.815 889.115 592.965C886.347 596.115 883.006 600.22 881.67 602.033C878.901 605.661 874.797 615.301 875.656 616.16C875.943 616.446 877.183 616.16 878.424 615.587C879.952 614.919 881.192 613.01 882.243 609.86C883.578 605.947 884.629 604.611 888.351 602.32C891.406 600.411 895.605 595.925 901.619 588.097C906.391 581.893 911.927 575.021 913.837 572.921C915.65 570.916 916.986 568.625 916.7 567.862C916.414 567.194 916.223 566.144 916.223 565.667C916.223 564.044 913.645 564.807 909.732 567.576Z" fill="black" fill-opacity="0.9"/>
<path d="M933.882 568.244C933.023 569.58 932.545 570.916 932.832 571.203C933.595 572.062 937.223 568.625 937.223 567.003C937.223 564.999 935.695 565.571 933.882 568.244Z" fill="black" fill-opacity="0.9"/>
<path d="M890.356 570.63C888.542 572.826 885.488 576.357 883.483 578.458C881.574 580.557 879.093 583.993 877.947 586.189C876.897 588.289 875.179 591.63 874.225 593.443C873.175 595.256 872.316 597.738 872.316 598.979C872.316 600.888 872.793 601.175 874.988 600.888C877.375 600.602 877.565 600.316 877.279 596.975C877.088 593.921 877.279 593.443 879.093 593.443C881.86 593.443 885.583 589.148 888.924 582.275C891.024 577.789 892.074 576.643 893.315 576.93C895.605 577.503 898.279 573.398 897.896 569.867C897.419 565.476 894.174 565.858 890.356 570.63Z" fill="black" fill-opacity="0.9"/>
<path d="M964.903 571.489C961.849 572.539 958.603 574.448 957.076 576.166C955.072 578.457 953.64 579.125 951.063 579.125C946.481 579.125 940.945 584.28 937.127 592.011C934.741 596.974 933.882 597.833 932.163 597.547C930.35 597.165 929.395 598.311 926.055 604.133C923.859 608.047 921.187 611.961 920.232 612.82C918.705 614.155 918.514 615.397 918.896 619.024C919.659 626.66 920.328 626.755 924.813 620.265C927.009 616.924 931.496 611.292 934.645 607.569C937.89 603.847 943.236 597.547 946.576 593.538C950.395 588.861 953.449 586.093 955.167 585.616C956.599 585.33 958.699 584.661 959.844 584.375C961.563 583.802 961.944 584.088 962.231 586.379C962.422 587.811 963.09 589.243 963.853 589.434C964.808 589.72 964.999 589.339 964.617 587.811C963.376 583.039 968.339 574.352 972.348 574.352C973.494 574.352 973.685 575.88 973.398 583.134L973.017 592.011L976.167 591.916C978.648 591.725 979.221 592.106 979.221 593.729C979.221 594.779 980.557 597.738 982.275 600.315C984.28 603.56 985.33 606.615 985.712 609.956C985.903 612.724 986.952 617.401 988.098 620.455C989.912 625.61 989.912 626.66 988.861 633.819C986.379 650.714 981.035 667.227 974.162 679.54C970.63 685.84 969.103 687.558 965.572 689.371C964.521 689.849 960.99 694.144 957.84 698.916C953.831 704.834 950.872 708.079 948.486 709.416C945.431 711.039 944.858 711.802 944.858 714.57C944.858 717.434 944.668 717.72 942.567 717.148C940.468 716.67 940.277 716.861 939.8 722.016C939.227 727.647 939.704 730.033 940.754 726.311C941.136 724.593 941.995 724.211 944.763 724.211C948.963 724.115 952.303 721.443 958.699 712.757C961.276 709.321 965.953 703.784 969.198 700.348C976.643 692.521 978.648 688.894 985.903 671.236C990.58 659.782 991.82 655.677 992.107 650.714C992.298 647.277 993.062 642.791 993.825 640.691C997.357 630.86 996.498 610.051 992.202 600.506C989.625 594.875 984.375 588.67 979.698 585.807L976.548 583.898L978.362 580.079C979.412 577.98 980.366 576.262 980.557 576.262C980.939 576.262 992.775 596.593 995.256 601.556C999.265 609.574 1000.6 616.351 1000.51 627.805C1000.41 644.509 996.402 659.877 987.716 677.917C981.798 690.23 976.453 698.248 968.626 706.552C964.14 711.325 962.135 714.189 961.658 716.67C961.18 719.438 960.417 720.297 957.744 721.348C955.931 722.111 954.404 723.066 954.404 723.638C954.404 724.211 952.495 726.597 950.204 728.983C946.1 733.088 945.431 734.615 945.717 739.197C945.908 742.728 948.486 741.774 949.249 737.956C949.726 735.474 950.49 734.329 952.399 733.661C960.512 730.701 969.389 722.588 975.498 712.375C977.502 709.13 979.412 707.03 980.462 707.03C983.612 707.03 997.07 676.485 1001.65 658.827C1005.28 644.605 1006.23 635.537 1005.66 619.787C1005.09 603.943 1002.99 591.343 1000.12 585.52C997.643 580.843 991.439 574.066 987.048 571.298L983.707 569.198L982.275 571.298C980.557 573.876 979.698 573.876 977.312 571.489C974.925 569.103 971.68 569.103 964.903 571.489Z" fill="black" fill-opacity="0.9"/>
<path d="M967.957 579.03C966.144 580.176 966.907 583.326 969.103 583.707C971.489 584.185 972.825 582.562 972.062 580.176C971.394 578.075 970.057 577.694 967.957 579.03Z" fill="black" fill-opacity="0.9"/>
<path d="M807.695 580.748C805.023 581.225 804.927 583.612 807.409 586.666C809.222 588.766 809.413 588.861 811.704 587.334C813.995 585.806 815.14 581.034 813.231 581.034C812.754 581.034 811.8 580.843 811.036 580.652C810.368 580.462 808.841 580.557 807.695 580.748Z" fill="black" fill-opacity="0.9"/>
<path d="M1092.81 585.711C1092.81 588.384 1093.48 590.293 1095.19 592.202L1097.48 594.875L1097.58 591.247C1097.58 587.429 1095.29 581.989 1093.76 581.989C1093.19 581.989 1092.81 583.707 1092.81 585.711Z" fill="black" fill-opacity="0.9"/>
<path d="M820.963 588.861C818.481 591.343 820.199 599.17 823.253 599.17C824.399 599.17 824.59 598.12 824.399 593.729C824.113 588.288 823.063 586.761 820.963 588.861Z" fill="black" fill-opacity="0.9"/>
<path d="M952.781 591.63C951.254 593.157 951.158 595.543 952.686 597.07C954.308 598.693 952.781 599.648 950.299 598.502C948.104 597.452 947.627 598.025 941.422 606.615C925.1 629.428 906.678 650.714 901.046 653.386C896.369 655.582 893.315 660.45 893.315 665.604C893.315 667.895 893.792 669.995 894.365 670.281C894.842 670.663 896.942 669.804 898.947 668.468C900.856 667.131 902.956 665.986 903.623 665.986C905.151 665.986 906.583 662.836 906.869 658.923C907.156 655.009 907.442 654.818 909.255 657.109C910.496 658.732 910.687 658.637 912.119 656.441C912.978 655.104 915.937 651.859 918.705 649.282C921.377 646.61 924.432 643.173 925.386 641.646C926.436 640.024 929.205 636.587 931.782 634.01C934.263 631.337 938.845 625.324 941.995 620.551C948.39 610.72 954.499 604.611 960.704 601.939L964.903 600.029L968.912 602.32C971.203 603.657 973.494 604.516 974.066 604.325C974.639 604.038 975.498 605.47 975.976 607.379C977.694 614.347 982.371 613.965 981.894 606.807C981.607 604.133 980.748 602.893 976.548 599.648C973.78 597.547 971.012 594.78 970.344 593.443C968.817 590.388 964.617 589.912 960.131 592.298C956.885 594.111 956.79 594.111 955.358 592.298C954.213 590.866 953.735 590.675 952.781 591.63Z" fill="black" fill-opacity="0.9"/>
<path d="M1004.99 594.493C1004.99 596.307 1006.14 602.225 1007.57 607.761C1010.05 617.115 1010.15 619.024 1010.05 635.728C1009.96 649.187 1010.15 653.577 1011.01 653.291C1011.67 653.1 1012.63 651.286 1013.2 649.187C1014.82 643.364 1016.92 644.319 1016.54 650.714C1016.16 659.304 1013.68 668.563 1008.05 682.69C1004.9 690.803 1002.61 698.057 1002.32 701.112C1001.94 705.312 1001.46 706.362 999.552 707.317C996.975 708.462 994.684 711.993 991.63 719.725C989.912 724.211 989.148 725.07 987.716 724.688C986.476 724.307 985.903 724.593 985.903 725.547C985.903 726.311 983.326 729.175 980.271 731.847C974.162 737.192 972.731 740.247 974.449 744.733L975.498 747.406L977.026 745.115C977.98 743.874 981.989 738.719 985.998 733.756C993.062 725.07 998.311 716.098 998.311 712.566C998.311 711.516 998.789 711.134 999.648 711.421C1001.37 712.089 1003.18 708.652 1005.47 700.826C1006.52 697.008 1008.14 693.953 1010.43 691.567C1013.3 688.704 1013.97 687.176 1014.35 682.976C1014.63 680.017 1015.78 676.199 1017.31 673.622C1019.41 669.995 1019.79 667.99 1020.07 659.972C1020.36 654.818 1019.98 648.137 1019.41 645.178C1018.83 642.218 1017.88 634.678 1017.4 628.473C1015.78 611.388 1011.29 596.498 1006.52 592.584C1005.18 591.439 1004.99 591.725 1004.99 594.493Z" fill="black" fill-opacity="0.9"/>
<path d="M1072.09 596.498C1072.57 598.693 1076.39 610.243 1079.16 618.26C1080.02 620.647 1082.12 623.892 1083.93 625.61C1086.51 628.092 1087.08 629.332 1087.08 632.769C1087.08 638.019 1088.23 639.927 1089.94 637.828C1093.38 633.628 1077.73 594.588 1072.38 594.397C1072 594.397 1071.81 595.352 1072.09 596.498Z" fill="black" fill-opacity="0.9"/>
<path d="M814.09 598.311C814.09 600.793 813.804 601.174 811.99 600.888C810.272 600.697 809.699 601.175 809.508 602.893C808.936 606.424 810.845 607.474 813.422 605.088C814.663 603.943 816.095 602.988 816.763 602.988C818.672 602.988 818.958 601.174 817.431 598.216C815.522 594.493 814.09 594.588 814.09 598.311Z" fill="black" fill-opacity="0.9"/>
<path d="M867.829 602.988C865.921 606.52 863.153 609.479 857.33 614.06C855.326 615.779 852.176 619.787 850.458 623.033C846.735 630.001 844.253 632.769 842.344 632.005C841.581 631.719 840.626 632.196 840.149 633.246C838.622 636.205 839.29 637.828 841.962 638.114C843.871 638.305 845.78 637.16 850.553 632.769C853.798 629.715 857.521 626.66 858.762 625.992C860.957 624.847 860.957 624.178 859.239 619.406C858.953 618.737 859.621 618.261 861.148 618.261C864.012 618.261 867.353 614.347 870.502 607.379C872.316 603.179 872.316 602.606 870.979 601.27C869.643 599.934 869.357 600.124 867.829 602.988Z" fill="black" fill-opacity="0.9"/>
<path d="M803.972 605.375C804.068 608.524 805.5 608.524 805.5 605.375C805.5 604.038 805.118 602.988 804.64 602.988C804.163 602.988 803.877 604.038 803.972 605.375Z" fill="black" fill-opacity="0.9"/>
<path d="M962.994 606.806C962.23 607.283 960.417 607.761 958.985 607.761C955.453 607.761 949.917 614.347 940.563 629.81C934.263 640.119 930.732 644.7 920.614 655.295C913.837 662.454 906.964 668.945 905.341 669.708C903.719 670.567 900.664 673.527 898.565 676.39C895.51 680.399 893.506 681.926 889.783 683.358C884.056 685.458 878.042 691.471 878.042 695.098C878.042 697.389 878.138 697.389 881.67 696.149C892.36 692.33 902.574 685.267 918.514 670.472L928.632 661.022L928.727 656.154C928.822 653.386 929.109 652.337 929.3 653.768C930.064 658.54 932.831 656.536 939.131 646.514C941.327 643.077 943.904 640.023 944.954 639.737C946.003 639.355 946.767 638.305 946.767 636.969C946.767 632.578 947.913 628.856 949.153 629.332C949.726 629.619 952.494 626.851 955.167 623.033C957.935 619.31 961.18 615.778 962.517 615.206C964.521 614.347 964.903 613.488 964.903 609.956C964.903 607.761 964.808 605.851 964.712 605.851C964.521 605.851 963.757 606.329 962.994 606.806Z" fill="black" fill-opacity="0.9"/>
<path d="M966.43 609.86C966.144 610.529 965.762 613.01 965.571 615.206C965.189 618.165 964.426 619.883 962.803 620.933C958.794 623.796 956.503 626.946 951.922 635.728C949.344 640.882 945.336 646.705 942.472 649.855C939.704 652.718 936.363 657.3 934.932 659.972C933.595 662.645 931.304 665.699 929.872 666.749C928.345 667.8 922.522 673.431 916.795 679.158C910.592 685.458 905.437 689.849 903.909 690.135C902.574 690.422 897.037 693.285 891.692 696.53C884.151 701.112 881.001 702.448 877.565 702.735C874.701 702.925 872.411 703.689 871.361 704.739C869.166 707.03 867.734 713.711 869.452 713.711C872.124 713.711 890.451 707.603 896.847 704.548C903.433 701.398 908.587 696.817 908.587 694.048C908.587 693.285 909.064 692.712 909.541 692.712C910.114 692.712 910.496 693.571 910.496 694.621C910.496 695.671 910.973 696.53 911.451 696.53C912.023 696.53 912.405 696.149 912.405 695.671C912.405 695.194 915.364 692.426 919.086 689.467C923 686.317 925.959 683.072 926.341 681.64C926.723 680.208 927.486 679.444 928.25 679.731C929.013 680.017 931.209 678.204 933.595 675.435C935.886 672.858 940.086 668.181 943.045 665.222C948.199 659.877 949.822 657.109 957.935 639.259C961.276 632.005 967.385 623.319 968.435 624.274C968.625 624.464 967.671 628.092 966.335 632.196C963.662 640.405 959.272 649.282 959.176 646.609C959.176 644.319 957.267 644.509 957.267 646.896C957.267 647.945 957.649 648.804 958.126 648.804C958.508 648.804 957.362 652.432 955.549 656.822C952.781 663.313 951.54 665.127 948.867 666.558C947.149 667.513 942.663 671.999 939.036 676.581C931.018 686.699 923.382 693.858 914.314 699.871C904.864 706.171 889.592 713.52 882.624 715.143C875.752 716.67 873.174 718.961 872.983 723.352C872.793 725.929 873.27 726.693 875.274 727.361C878.52 728.602 882.815 726.502 889.497 720.298C895.892 714.379 898.565 713.139 907.155 712.28C915.841 711.421 919.469 709.321 930.064 698.439C934.836 693.667 940.468 688.607 942.758 687.272C944.954 685.935 947.531 683.549 948.39 681.831C951.635 675.435 955.739 670.472 958.699 669.231C961.562 668.086 962.326 666.845 965.667 658.159C970.153 646.8 972.539 636.11 972.539 627.805C972.539 622.651 972.348 622.078 970.535 622.078C968.912 622.078 968.625 621.601 968.912 618.547C969.294 613.774 970.916 613.583 973.876 617.974C976.262 621.41 976.357 622.173 976.357 635.059C976.357 647.182 976.167 648.709 974.448 650.236C972.444 652.05 970.057 658.445 969.103 664.84C968.625 667.608 968.053 668.754 967.29 668.468C966.621 668.276 964.14 670.472 961.658 673.431C952.208 685.267 947.054 690.803 942.472 694.239C939.895 696.244 936.077 699.68 933.977 701.971C929.205 707.316 921.855 712.661 917.75 713.807C915.364 714.475 914.218 715.525 913.455 717.72C910.496 726.216 903.623 730.797 892.742 731.56C885.869 732.133 885.679 732.229 885.679 734.615C885.679 737.67 887.301 739.483 889.974 739.483C893.887 739.483 907.537 731.847 916.414 724.688C923.382 719.057 925.959 717.529 928.345 717.529C930.636 717.529 932.545 716.575 935.218 714.189C937.222 712.375 939.608 710.848 940.468 710.848C941.327 710.848 941.995 710.275 941.995 709.511C941.995 707.125 945.908 703.212 950.681 700.825C953.258 699.489 955.931 697.484 956.599 696.244C957.362 695.098 959.367 691.757 961.085 688.703C962.803 685.744 965.285 682.88 966.526 682.308C967.957 681.64 968.721 680.494 968.721 678.776C968.721 677.249 970.153 674.672 972.444 672.095C979.603 663.981 983.993 647.755 983.993 629.81V620.551L979.507 616.16C976.93 613.679 973.303 611.006 971.394 610.147C967.098 608.429 966.812 608.429 966.43 609.86Z" fill="black" fill-opacity="0.9"/>
<path d="M820.485 610.243C820.104 610.624 819.817 611.77 819.817 612.724C819.817 613.965 819.149 614.442 817.431 614.442C815.617 614.442 814.949 615.111 814.472 617.019C813.613 621.315 813.231 622.078 812.277 622.078C811.799 622.078 811.036 621.219 810.749 620.169C810.463 619.12 809.509 618.261 808.745 618.261C807.122 618.261 806.836 626.374 808.363 627.328C808.936 627.614 809.318 627.042 809.318 625.992C809.318 624.369 809.699 624.274 811.99 624.942C816.667 626.279 822.299 622.746 824.399 617.21C825.163 615.206 824.972 614.252 823.349 612.151C822.204 610.72 820.867 609.86 820.485 610.243Z" fill="black" fill-opacity="0.9"/>
<path d="M1051.76 614.633C1051.86 622.746 1053.77 633.341 1057.97 648.804C1060.26 657.491 1063.31 671.426 1064.65 679.731C1067.32 695.671 1069.71 703.784 1072.67 706.457C1076.29 709.703 1076.01 704.93 1071.9 692.999C1070.85 689.753 1069.9 685.649 1069.9 683.931C1069.9 682.213 1069.04 678.49 1067.99 675.722C1064.65 666.941 1062.45 657.681 1058.45 635.442C1056.35 623.605 1054.34 613.201 1054.05 612.247C1053.1 609.192 1051.76 610.624 1051.76 614.633Z" fill="black" fill-opacity="0.9"/>
<path d="M869.07 618.833C868.115 620.169 866.588 624.274 865.634 628.092C864.488 632.865 863.725 634.487 863.247 633.246C862.293 630.86 859.239 631.242 858.57 633.724C858.284 634.964 856.089 637.16 853.702 638.592C849.407 641.359 847.975 643.841 848.643 647.945C848.834 649.664 849.407 650.141 850.839 649.95C854.466 649.377 860.384 644.509 862.484 640.31C863.629 638.019 865.443 635.155 866.493 634.105C868.784 631.623 875.179 618.069 874.606 617.115C873.556 615.492 870.597 616.447 869.07 618.833Z" fill="black" fill-opacity="0.9"/>
<path d="M913.359 620.169C912.691 621.41 908.873 625.896 904.769 630.287C900.664 634.678 896.847 639.641 896.178 641.55C895.51 643.746 894.46 644.987 893.124 645.178C890.069 645.654 886.919 650.332 888.16 652.432C889.688 654.723 892.647 654.436 893.792 651.859C894.269 650.714 895.51 649.759 896.464 649.759C897.515 649.759 898.851 648.328 899.901 645.941C900.856 643.841 901.905 642.409 902.287 642.791C903.051 643.65 914.028 632.96 915.841 629.523C917.464 626.374 917.464 623.224 915.841 620.265L914.601 617.974L913.359 620.169Z" fill="black" fill-opacity="0.9"/>
<path d="M879.57 622.937C877.47 626.851 877.661 627.805 880.429 627.805C883.006 627.805 883.579 627.042 883.961 623.033C884.342 619.501 881.384 619.406 879.57 622.937Z" fill="black" fill-opacity="0.9"/>
<path d="M822.871 630.191C822.203 631.623 821.344 634.773 821.058 637.255C820.485 641.264 820.581 641.55 822.012 640.31C824.208 638.592 825.926 631.814 824.876 629.428C824.112 627.71 823.921 627.805 822.871 630.191Z" fill="black" fill-opacity="0.9"/>
<path d="M874.606 628.569C873.079 629.524 871.361 633.151 871.361 635.346C871.361 639.355 876.229 636.587 877.374 631.91C877.851 629.619 876.229 627.519 874.606 628.569Z" fill="black" fill-opacity="0.9"/>
<path d="M881.86 635.919C880.619 639.26 880.619 645.655 881.956 646.418C883.578 647.469 884.151 646.227 884.533 640.31C885.01 634.2 883.483 631.719 881.86 635.919Z" fill="black" fill-opacity="0.9"/>
<path d="M814.663 637.732C813.995 640.405 815.426 644.986 816.954 644.986C818.385 644.986 817.813 636.205 816.381 635.728C815.713 635.537 815.045 636.396 814.663 637.732Z" fill="black" fill-opacity="0.9"/>
<path d="M831.462 639.737C828.312 643.173 827.072 646.513 827.644 649.282C827.835 650.618 828.885 650.141 832.99 646.8C837.189 643.268 837.953 642.123 837.762 639.737C837.38 635.728 834.994 635.728 831.462 639.737Z" fill="black" fill-opacity="0.9"/>
<path d="M875.751 640.214C872.506 641.264 869.547 643.746 868.497 646.514C867.925 647.85 866.493 648.804 864.297 649.187C859.907 650.046 853.702 654.245 842.439 664.172C833.658 671.809 833.371 672.19 835.853 672.668C843.012 674.195 852.557 669.613 861.529 660.545C865.347 656.727 868.974 653.577 869.738 653.577C870.406 653.577 872.41 652.527 874.224 651.191C876.038 649.855 877.947 648.804 878.424 648.804C878.997 648.804 879.474 646.705 879.474 644.032C879.474 641.359 879.283 639.259 878.997 639.355C878.71 639.355 877.278 639.832 875.751 640.214Z" fill="black" fill-opacity="0.9"/>
<path d="M972.539 645.464C972.539 647.277 973.017 648.804 973.493 648.804C974.066 648.804 974.448 647.277 974.448 645.464C974.448 643.65 974.066 642.123 973.493 642.123C973.017 642.123 972.539 643.65 972.539 645.464Z" fill="black" fill-opacity="0.9"/>
<path d="M1080.4 645.464C1079.44 646.61 1079.64 648.518 1081.83 656.154C1083.17 661.309 1085.17 667.036 1086.22 668.849L1088.13 672.19L1087.75 665.795C1087.37 660.927 1086.6 658.254 1084.22 654.055C1081.74 649.664 1081.35 648.518 1082.4 647.278C1083.17 646.323 1083.26 645.559 1082.59 644.892C1081.93 644.223 1081.26 644.414 1080.4 645.464Z" fill="black" fill-opacity="0.9"/>
<path d="M836.903 651.954C828.885 659.495 825.354 664.077 827.644 664.077C829.935 664.077 843.107 657.395 845.78 654.818C847.785 652.909 848.262 651.764 847.785 649.855C847.212 647.182 845.78 644.987 844.73 644.987C844.444 645.082 840.912 648.136 836.903 651.954Z" fill="black" fill-opacity="0.9"/>
<path d="M820.772 653.577C820.772 659.304 821.917 659.686 823.635 654.627C824.876 650.714 824.399 648.804 822.108 648.804C821.154 648.804 820.772 650.046 820.772 653.577Z" fill="black" fill-opacity="0.9"/>
<path d="M883.483 655.009C881.574 656.727 880.142 657.205 878.52 656.822C876.802 656.441 876.133 656.727 875.656 658.254C875.179 659.782 874.225 660.259 872.029 660.259C868.306 660.259 866.206 661.595 857.139 669.995C853.034 673.813 848.834 676.867 847.307 677.153C843.871 677.822 843.203 679.254 844.348 683.739L845.112 687.176L849.884 682.976C856.757 676.867 878.52 661.214 880.238 661.214C880.428 661.214 880.333 662.74 880.142 664.554C879.569 669.231 881.097 668.754 884.151 663.122C885.583 660.545 887.397 657.968 888.256 657.586C889.401 656.918 889.497 656.345 888.637 654.627C887.206 652.145 886.824 652.145 883.483 655.009Z" fill="black" fill-opacity="0.9"/>
<path d="M813.422 655.963C813.136 656.822 813.136 657.681 813.422 657.968C814.281 658.827 815.999 657.395 815.999 655.868C815.999 654.055 814.186 654.15 813.422 655.963Z" fill="black" fill-opacity="0.9"/>
<path d="M1006.9 656.059C1006.9 657.013 1004.52 664.65 1001.65 673.144C998.789 681.735 996.402 689.18 996.402 689.849C996.402 690.517 995.161 692.617 993.73 694.526C992.203 696.435 988.862 701.589 986.284 705.98C983.707 710.37 978.648 716.957 975.117 720.584C969.198 726.597 964.999 733.183 964.903 736.429C964.903 737.956 974.449 730.702 980.653 724.593C985.521 719.725 989.243 713.139 990.293 707.603C990.675 705.216 992.203 702.639 994.397 700.444C996.688 698.153 999.552 692.999 1002.99 685.171C1009.38 670.567 1010.72 666.082 1010.72 659.591C1010.72 655.2 1010.53 654.531 1008.81 654.531C1007.67 654.531 1006.9 655.2 1006.9 656.059Z" fill="black" fill-opacity="0.9"/>
<path d="M806.645 659.399C806.836 661.214 807.409 662.549 807.886 662.359C809.318 662.073 809.031 657.109 807.6 656.632C806.645 656.346 806.359 657.109 806.645 659.399Z" fill="black" fill-opacity="0.9"/>
<path d="M1044.7 670.854C1043.75 675.722 1044.03 682.117 1045.56 691.281C1046.42 695.957 1047.37 704.262 1047.85 709.607C1048.33 714.952 1049 719.725 1049.38 720.298C1052.05 724.784 1052.62 709.894 1050.24 693.189C1049.47 687.367 1048.61 679.826 1048.23 676.294C1047.56 668.945 1045.65 665.986 1044.7 670.854Z" fill="black" fill-opacity="0.9"/>
<path d="M822.776 672.668C821.44 677.058 821.44 677.44 822.681 677.44C823.254 677.44 823.635 676.772 823.635 675.913C823.635 674.672 824.304 674.481 827.453 675.054C830.89 675.626 831.272 675.531 831.272 673.717C831.272 672.572 830.699 671.713 830.126 671.713C829.458 671.713 827.74 671.14 826.404 670.377C823.922 669.135 823.826 669.135 822.776 672.668Z" fill="black" fill-opacity="0.9"/>
<path d="M874.034 670.472C873.175 671.426 872.124 673.144 871.552 674.194C870.979 675.34 869.166 676.485 867.447 676.867C861.816 678.012 856.089 682.117 854.18 686.317C853.225 688.512 852.462 690.421 852.652 690.517C852.939 690.898 870.12 681.735 872.029 680.113C874.32 678.203 878.997 670.567 878.424 669.708C877.565 668.372 875.561 668.754 874.034 670.472Z" fill="black" fill-opacity="0.9"/>
<path d="M884.533 671.236C882.433 673.336 879.952 679.158 879.952 682.117C879.952 683.644 888.829 676.677 890.26 673.908C892.933 668.945 888.733 666.941 884.533 671.236Z" fill="black" fill-opacity="0.9"/>
<path d="M814.567 671.618C810.559 672.477 810.081 676.581 813.613 678.967C815.045 679.922 816.381 680.208 816.858 679.731C817.908 678.585 819.054 670.758 818.195 670.854C817.717 670.95 816.19 671.236 814.567 671.618Z" fill="black" fill-opacity="0.9"/>
<path d="M1077.25 678.012C1076.49 678.776 1077.44 683.263 1078.49 684.408C1079.44 685.458 1080.78 679.73 1079.92 678.395C1079.25 677.344 1078.11 677.153 1077.25 678.012Z" fill="black" fill-opacity="0.9"/>
<path d="M836.998 680.303C836.235 680.781 834.803 680.972 833.944 680.686C832.608 680.303 832.226 680.781 832.226 682.977C832.226 686.603 831.271 687.367 829.649 685.076C827.931 682.594 827.549 682.69 823.922 686.126C819.054 690.612 819.722 691.758 826.881 691.758C837.285 691.758 842.63 688.512 841.962 682.69C841.58 679.254 839.957 678.395 836.998 680.303Z" fill="black" fill-opacity="0.9"/>
<path d="M875.37 682.404C873.747 684.026 873.938 686.985 875.656 686.985C877.279 686.985 879.379 683.549 878.52 682.213C877.756 680.972 876.802 680.972 875.37 682.404Z" fill="black" fill-opacity="0.9"/>
<path d="M869.261 689.085C867.542 690.803 866.588 692.903 866.588 694.621C866.588 697.771 866.874 697.962 869.452 696.53C871.551 695.385 874.033 688.321 872.697 687.081C872.22 686.603 870.692 687.462 869.261 689.085Z" fill="black" fill-opacity="0.9"/>
<path d="M858.475 696.435C857.616 698.153 857.425 699.489 857.998 699.871C859.048 700.539 862.77 698.726 862.77 697.484C862.77 697.103 863.057 696.053 863.343 695.194C864.489 692.235 860.098 693.475 858.475 696.435Z" fill="black" fill-opacity="0.9"/>
<path d="M873.652 696.053C873.365 697.389 873.27 698.726 873.556 699.012C874.511 699.966 876.133 698.343 876.133 696.53C876.133 693.667 874.32 693.38 873.652 696.053Z" fill="black" fill-opacity="0.9"/>
<path d="M849.503 695.48C847.307 696.053 845.398 699.107 846.257 700.539C846.735 701.494 850.457 701.494 851.984 700.539C852.557 700.158 853.416 698.63 853.702 697.198C854.466 694.431 853.893 694.239 849.503 695.48Z" fill="black" fill-opacity="0.9"/>
<path d="M843.299 697.008C842.917 698.153 842.344 698.343 840.912 697.484C839.576 696.817 838.812 696.817 838.431 697.484C837.19 699.489 838.812 701.303 841.771 701.303C844.349 701.303 844.635 701.017 844.635 698.439C844.635 695.29 844.158 694.812 843.299 697.008Z" fill="black" fill-opacity="0.9"/>
<path d="M830.317 699.299C828.79 702.257 829.172 705.121 831.081 705.121C833.563 705.121 835.09 703.212 835.09 700.158C835.09 698.153 834.613 697.485 833.181 697.485C832.226 697.485 830.89 698.344 830.317 699.299Z" fill="black" fill-opacity="0.9"/>
<path d="M823.635 701.303C823.635 702.544 824.113 703.021 825.067 702.639C825.831 702.257 826.499 701.493 826.499 700.73C826.499 699.967 825.831 699.394 825.067 699.394C824.304 699.394 823.635 700.253 823.635 701.303Z" fill="black" fill-opacity="0.9"/>
<path d="M1039.93 712.947C1039.45 718.675 1038.4 721.92 1034.01 731.179C1031.05 737.383 1028.86 742.633 1029.14 742.919C1030 743.778 1033.25 741.583 1034.96 739.006C1035.92 737.574 1036.68 734.52 1036.78 732.229C1036.87 729.938 1037.26 728.029 1037.73 728.029C1038.11 728.029 1039.26 726.597 1040.31 724.879C1041.74 722.588 1042.22 720.106 1042.22 715.143C1042.22 705.693 1040.79 704.357 1039.93 712.947Z" fill="black" fill-opacity="0.9"/>
<path d="M848.643 709.511C848.834 710.943 849.502 712.28 850.171 712.566C851.125 712.852 851.411 712.184 851.125 710.275C850.934 708.843 850.266 707.507 849.598 707.22C848.643 706.934 848.357 707.603 848.643 709.511Z" fill="black" fill-opacity="0.9"/>
<path d="M856.47 708.366C855.707 710.466 856.375 713.998 857.807 714.475C858.57 714.666 858.952 713.616 858.952 710.943C858.952 707.125 857.52 705.693 856.47 708.366Z" fill="black" fill-opacity="0.9"/>
<path d="M863.343 708.557C862.484 710.848 862.675 714.666 863.725 714.666C864.966 714.666 866.588 711.421 866.588 709.034C866.588 706.648 864.202 706.361 863.343 708.557Z" fill="black" fill-opacity="0.9"/>
<path d="M836.617 710.466C835.662 713.044 835.948 714.666 837.476 714.666C838.335 714.666 838.907 713.807 838.907 712.375C838.907 709.511 837.476 708.366 836.617 710.466Z" fill="black" fill-opacity="0.9"/>
<path d="M828.981 712.375C828.599 713.234 828.599 714.189 828.885 714.475C829.458 715.048 832.226 712.757 832.226 711.707C832.226 710.18 829.553 710.753 828.981 712.375Z" fill="black" fill-opacity="0.9"/>
<path d="M1017.4 716.384C1017.4 717.052 1015.11 720.106 1012.25 723.161C1007.67 728.124 1004.8 733.947 1006.23 735.379C1007.19 736.238 1011.77 732.515 1014.44 728.602C1017.69 723.829 1019.69 717.529 1018.36 716.193C1017.69 715.525 1017.4 715.62 1017.4 716.384Z" fill="black" fill-opacity="0.9"/>
<path d="M899.424 718.388C896.751 720.011 892.36 725.07 892.36 726.502C892.36 727.265 903.909 726.025 905.819 725.07C906.678 724.593 907.918 722.97 908.396 721.348C909.255 718.961 909.16 718.388 907.632 717.529C904.96 716.097 902.764 716.384 899.424 718.388Z" fill="black" fill-opacity="0.9"/>
<path d="M866.779 720.965C864.298 722.684 864.011 726.884 866.207 727.743C868.115 728.507 870.406 725.738 870.406 722.684C870.406 719.725 869.261 719.247 866.779 720.965Z" fill="black" fill-opacity="0.9"/>
<path d="M932.736 721.729C929.777 723.161 929.491 729.938 932.355 729.938C934.741 729.938 937.223 726.406 937.223 723.066C937.223 720.202 936.268 719.916 932.736 721.729Z" fill="black" fill-opacity="0.9"/>
<path d="M851.03 723.639C850.075 726.025 850.171 729.938 851.221 729.938C852.461 729.938 853.225 726.216 852.366 723.925C851.698 722.207 851.602 722.111 851.03 723.639Z" fill="black" fill-opacity="0.9"/>
<path d="M1025.23 723.447C1023.61 725.07 1023.8 729.938 1025.42 729.938C1026.95 729.938 1027.9 727.934 1027.9 724.593C1027.9 722.111 1026.95 721.729 1025.23 723.447Z" fill="black" fill-opacity="0.9"/>
<path d="M857.043 726.025C857.043 727.075 857.52 728.22 857.997 728.506C858.57 728.888 858.952 728.029 858.952 726.692C858.952 725.357 858.57 724.211 857.997 724.211C857.52 724.211 857.043 725.07 857.043 726.025Z" fill="black" fill-opacity="0.9"/>
<path d="M922.427 728.029C920.9 729.079 918.418 731.465 916.891 733.47C914.409 736.811 914.314 737.192 915.841 738.243C918.037 739.865 918.036 739.865 923.095 737.574C926.913 735.952 927.486 735.188 928.059 732.133C928.345 730.129 928.632 727.934 928.632 727.265C928.632 725.547 925.672 725.833 922.427 728.029Z" fill="black" fill-opacity="0.9"/>
<path d="M880.429 733.088C879.474 735.474 880.334 739.006 881.86 739.006C883.865 739.006 884.151 736.047 882.433 733.565C881.193 731.847 880.906 731.752 880.429 733.088Z" fill="black" fill-opacity="0.9"/>
<path d="M830.126 736.047C828.026 740.724 833.371 743.206 841.962 741.583C845.207 740.915 847.116 741.01 848.834 741.869C851.507 743.301 852.271 742.919 852.271 739.961C852.271 735.761 849.789 734.997 843.68 737.288C838.048 739.292 838.048 739.292 836.33 737.384C833.085 733.756 831.367 733.47 830.126 736.047Z" fill="black" fill-opacity="0.9"/>
<path d="M871.551 735.188C867.542 736.906 868.02 738.91 872.506 739.292C875.179 739.483 876.324 739.102 877.47 737.383C878.329 736.238 878.997 734.901 878.997 734.52C878.997 733.279 874.988 733.661 871.551 735.188Z" fill="black" fill-opacity="0.9"/>
<path d="M863.343 737.097C863.057 737.86 862.102 738.529 861.243 738.529C859.143 738.529 860.098 740.82 862.484 741.201C864.775 741.583 866.97 739.102 866.206 737.097C865.538 735.283 864.106 735.283 863.343 737.097Z" fill="black" fill-opacity="0.9"/>
<path d="M941.04 737.574C941.04 738.624 941.518 739.483 941.995 739.483C942.567 739.483 942.95 738.624 942.95 737.574C942.95 736.524 942.567 735.665 941.995 735.665C941.518 735.665 941.04 736.524 941.04 737.574Z" fill="black" fill-opacity="0.9"/>
<path d="M958.89 738.338C957.171 740.151 956.312 741.965 956.504 743.397L956.79 745.497L959.462 743.206C961.563 741.488 962.135 740.151 961.849 738.147L961.563 735.474L958.89 738.338Z" fill="black" fill-opacity="0.9"/>
<path d="M904.959 739.483C903.241 740.533 901.332 742.442 900.759 743.778C899.805 745.878 899.614 745.974 898.564 744.542C896.464 741.679 894.269 743.683 894.269 748.551C894.269 753.61 896.464 754.565 898.373 750.173C899.137 748.36 900.091 747.692 901.237 747.883C904.673 748.551 907.728 747.024 910.495 743.111C912.118 741.01 913.359 738.815 913.359 738.338C913.359 736.906 908.109 737.574 904.959 739.483Z" fill="black" fill-opacity="0.9"/>
<path d="M855.134 740.151C855.134 741.296 855.612 742.538 856.089 742.824C857.33 743.587 857.33 741.392 856.089 739.483C855.325 738.338 855.134 738.433 855.134 740.151Z" fill="black" fill-opacity="0.9"/>
<path d="M928.154 743.301C927.486 745.306 929.205 749.41 930.445 748.647C931.4 748.074 930.54 741.393 929.586 741.393C929.109 741.393 928.536 742.252 928.154 743.301Z" fill="black" fill-opacity="0.9"/>
<path d="M1043.17 743.492C1043.17 744.16 1043.65 745.401 1044.13 746.165C1044.89 747.31 1045.08 747.215 1045.08 745.497C1045.08 744.351 1044.7 743.111 1044.13 742.824C1043.65 742.538 1043.17 742.824 1043.17 743.492Z" fill="black" fill-opacity="0.9"/>
<path d="M1024.27 745.497C1021.51 748.455 1021.6 749.792 1024.56 749.219C1025.9 749.028 1026.95 748.265 1026.95 747.596C1026.95 746.833 1027.23 745.688 1027.52 744.829C1028.38 742.633 1026.66 743.015 1024.27 745.497Z" fill="black" fill-opacity="0.9"/>
<path d="M922.332 745.688C921.949 746.642 920.422 747.119 917.559 747.119C912.023 747.119 906.105 749.601 903.814 752.847C899.519 758.86 902.191 760.005 911.45 756.283C914.504 755.041 918.418 753.706 919.945 753.323C922.141 752.847 922.904 752.178 922.904 750.651C922.904 749.506 923.764 747.979 924.813 747.31C925.958 746.642 926.531 745.688 926.245 745.21C925.386 743.778 922.904 744.065 922.332 745.688Z" fill="black" fill-opacity="0.9"/>
<path d="M965.953 746.737C963.757 749.601 963.281 752.847 965.189 752.847C967.576 752.751 971.489 748.36 970.916 746.26C970.248 743.587 968.339 743.778 965.953 746.737Z" fill="black" fill-opacity="0.9"/>
<path d="M885.487 746.26C883.005 747.692 883.388 749.314 886.728 751.224C890.355 753.228 891.406 752.655 891.406 748.455C891.406 745.688 891.119 745.21 889.305 745.21C888.065 745.21 886.347 745.688 885.487 746.26Z" fill="black" fill-opacity="0.9"/>
<path d="M949.344 745.878C947.817 747.31 948.772 749.124 950.776 748.838C953.545 748.455 954.404 745.21 951.73 745.21C950.776 745.21 949.631 745.497 949.344 745.878Z" fill="black" fill-opacity="0.9"/>
<path d="M942.949 752.56C942.949 754.946 944.381 756.187 945.335 754.66C945.717 754.087 945.335 752.942 944.476 752.083C943.045 750.651 942.949 750.651 942.949 752.56Z" fill="black" fill-opacity="0.9"/>
<path d="M977.598 752.083C977.026 752.751 976.357 754.087 976.071 754.946C975.594 756.283 975.975 756.664 977.694 756.664C979.889 756.664 981.13 755.041 981.13 752.274C981.13 750.651 978.839 750.556 977.598 752.083Z" fill="black" fill-opacity="0.9"/>
<path d="M859.43 753.801C859.144 754.278 859.334 755.614 859.907 756.76C860.957 758.669 861.053 758.669 862.293 756.951C863.057 755.996 863.725 754.66 863.725 753.992C863.725 752.655 860.289 752.464 859.43 753.801Z" fill="black" fill-opacity="0.9"/>
<path d="M955.835 754.755C954.88 755.805 953.545 756.664 952.781 756.664C951.349 756.664 951.158 759.337 952.399 761.341C953.067 762.392 954.021 762.105 957.171 759.623C961.276 756.378 962.422 752.847 959.367 752.847C958.317 752.847 956.79 753.706 955.835 754.755Z" fill="black" fill-opacity="0.9"/>
<path d="M936.077 757.142C933.881 760.005 933.881 762.678 935.981 762.2C937.795 761.819 939.703 756.856 938.558 755.71C938.081 755.233 936.936 755.901 936.077 757.142Z" fill="black" fill-opacity="0.9"/>
<path d="M921.664 760.196C920.518 761.246 920.9 762.391 922.427 762.391C923.191 762.391 923.859 761.724 923.859 760.96C923.859 759.433 922.714 759.05 921.664 760.196Z" fill="black" fill-opacity="0.9"/>
</svg>
