<svg width="1366" height="619" viewBox="0 0 1366 619" fill="none" xmlns="http://www.w3.org/2000/svg">
<path d="M1277.46 39.2853C1276.48 39.6653 1276.59 41.294 1277.84 45.6914C1278.44 47.7544 1278.93 49.6546 1278.93 49.8717C1278.93 50.5775 1276.54 50.3603 1271.76 49.2202C1263.24 47.2658 1259.33 47.1573 1258.62 48.9488C1258.41 49.546 1259.27 50.2517 1261.72 51.4461C1266.44 53.8348 1268.18 55.5721 1267.8 57.4722C1267.42 59.0466 1268.18 59.5895 1268.99 58.3408C1269.26 57.8522 1269.48 58.178 1269.75 59.2637C1269.97 60.1867 1270.3 61.2724 1270.46 61.7611C1271.44 64.0412 1252.92 79.5136 1243.15 84.7254C1235.82 88.6342 1234.95 89.4486 1234.63 93.2488C1234.41 95.5832 1234.84 97.9177 1236.8 105.138C1239.24 113.879 1239.24 114.042 1238.26 115.182C1237.67 115.779 1237.12 116.756 1237.02 117.353C1236.85 118.005 1236.47 118.33 1235.98 118.222C1235.55 118.059 1233.54 117.896 1231.53 117.842C1229.52 117.788 1227.79 117.679 1227.73 117.57C1227.62 117.462 1225.94 115.616 1223.99 113.553L1220.35 109.753L1221.98 103.781C1224.37 95.2575 1224.37 90.3172 1222.03 80.4365C1221.06 76.2563 1219.92 71.8046 1219.43 70.5559C1218.67 68.5472 1218.4 68.2758 1216.6 68.1129C1214.92 67.95 1214.59 67.7329 1214.21 66.2671C1213.94 65.2898 1212.75 63.7155 1211.17 62.4125C1209.76 61.2182 1208.13 59.318 1207.54 58.2323C1206.34 56.0607 1205.37 55.6264 1205.8 57.4722C1206.13 58.6666 1206.13 58.6666 1205.37 57.6894C1204.93 57.0922 1204.55 56.2778 1204.55 55.8978C1204.55 55.5178 1204.23 55.1921 1203.79 55.1921C1203.14 55.1921 1203.09 55.5721 1203.52 56.9293C1204.12 59.1552 1203.74 59.5352 1203.03 57.4179C1202.43 55.6807 1202 55.4635 1200.59 56.0607C1199.83 56.3321 1199.83 56.6036 1200.53 58.558C1201.51 61.3267 1203.47 63.6612 1206.99 66.1585L1209.82 68.1672L1211.34 76.202C1212.21 80.5994 1212.91 85.214 1212.97 86.4084C1213.07 87.6027 1213.29 89.5571 1213.51 90.7515C1213.83 92.543 1213.56 93.6831 1211.93 97.4834C1209.71 102.804 1208.95 103.727 1205.47 105.518C1201.89 107.31 1201.19 107.038 1200.53 103.781L1199.94 101.066L1197.22 100.904C1195.7 100.795 1194.29 100.524 1194.02 100.198C1193.69 99.9264 1192.34 99.7092 1190.92 99.7092C1189.35 99.7092 1188.16 99.3835 1187.72 98.8949C1186.04 96.8862 1182.78 98.2434 1178.44 102.749C1174.26 107.201 1173.93 107.853 1174.37 112.141C1174.69 114.964 1175.07 116.05 1176.21 117.299C1177.9 119.09 1182.56 121.316 1185.82 121.914C1187.29 122.185 1187.94 122.565 1187.83 123.108C1187.72 123.542 1188.21 124.899 1188.86 126.148L1190.11 128.482L1187.23 131.414L1184.3 134.346L1184.68 137.114L1185.06 139.829L1182.4 141.186C1180.94 141.946 1178.28 143.412 1176.54 144.444C1174.8 145.529 1172.79 146.398 1172.14 146.398C1170.89 146.398 1167.36 142.978 1165.03 139.503C1164.27 138.363 1163.13 136.843 1162.42 136.083C1161.72 135.323 1160.52 133.477 1159.82 132.011L1158.51 129.297L1160.09 127.505C1161.88 125.497 1161.99 124.411 1160.9 121.696C1159.87 119.253 1159.06 119.308 1158.84 121.805C1158.73 123.434 1158.41 123.922 1157.54 124.031C1156.61 124.139 1156.34 123.705 1155.64 120.828C1154.61 116.267 1153.52 115.942 1153.47 120.176C1153.41 123.868 1152.54 122.674 1152.49 118.819C1152.43 117.353 1152.16 116.539 1151.73 116.539C1150.97 116.539 1149.28 119.09 1148.63 121.316C1148.2 122.782 1148.2 122.782 1148.14 120.991C1148.09 118.982 1147.33 118.71 1146.41 120.393C1145.43 122.294 1146.19 124.899 1148.9 128.591C1150.42 130.708 1151.29 132.391 1151.13 132.989C1151.02 133.531 1151.35 135.106 1151.95 136.463C1153.19 139.449 1153.25 140.318 1152.11 141.566C1151.24 142.489 1151.46 142.869 1154.88 147.049C1156.89 149.547 1159.27 152.858 1160.14 154.433C1161.83 157.364 1165.73 161.056 1167.2 161.056C1168.72 161.056 1182.51 156.116 1185.01 154.704C1186.36 153.89 1189.24 152.098 1191.47 150.633C1195.49 147.972 1195.54 147.972 1199.34 148.189C1208.19 148.678 1223.77 150.795 1225.94 151.773C1227.19 152.315 1229.8 153.944 1231.75 155.356C1233.65 156.767 1236.26 158.396 1237.5 158.939C1239.57 159.916 1240 159.916 1243.21 159.156C1245.05 158.722 1247.98 158.342 1249.67 158.342H1252.71L1254.01 155.519C1255.09 153.238 1255.8 152.478 1258.03 151.338C1259.55 150.524 1262.26 148.841 1264.16 147.538C1266.93 145.584 1267.85 144.498 1269.26 141.62C1270.84 138.417 1271 137.657 1270.95 133.423C1270.95 130.871 1270.51 126.039 1270.02 122.728C1269.54 119.47 1268.88 113.607 1268.61 109.698C1268.34 105.844 1267.96 101.935 1267.8 101.066C1267.53 99.7635 1267.74 99.112 1268.83 97.9177C1270.62 95.9633 1271.44 94.3889 1272.96 89.6657C1277.08 77.1792 1280.12 73.4332 1286.96 72.3474C1289.68 71.9131 1292.55 70.5559 1295.11 68.3843C1296.79 66.9185 1296.84 66.7557 1296.25 64.9641C1295.87 63.9326 1294.62 61.7068 1293.48 60.0238C1292.34 58.3408 1291.25 56.0064 1291.03 54.8663C1290.55 51.3918 1287.61 46.4515 1283.76 42.5427C1280.39 39.1767 1279.2 38.5253 1277.46 39.2853Z" fill="black" fill-opacity="0.9"/>
<path d="M105.729 39.6515C105.783 40.0315 106.109 41.7687 106.489 43.4517C107.412 47.252 106.652 47.632 105.186 44.1575C104.209 41.8773 103.395 41.1716 102.798 42.1488C102.689 42.3659 103.286 44.2118 104.209 46.2747C105.078 48.2835 105.946 50.8351 106.109 51.9208C106.435 53.6581 106.326 53.821 105.403 53.3866C103.503 52.6266 101.929 52.4637 101.929 53.0066C101.929 53.821 105.675 56.644 107.955 57.6212C109.041 58.0555 110.072 58.707 110.289 58.9784C111.158 60.39 112.244 69.1848 112.244 75.048C112.244 81.3999 112.19 81.5627 110.398 84.8201C108.444 88.2946 107.141 89.7061 102.743 92.9635L100.029 95.0265L99.7031 92.3663C99.4859 90.9548 99.5945 88.8918 99.8659 87.806C100.735 84.8201 99.4316 82.8657 95.197 80.8027C90.691 78.5768 86.185 78.0882 83.4706 79.6083C78.3131 82.4314 77.3359 91.1177 81.4076 98.1752C82.7105 100.401 82.8191 104.093 81.6247 105.939C81.1361 106.644 79.8332 107.622 78.7474 108.11C77.3359 108.762 75.9787 110.119 74.4586 112.453C70.1154 118.914 69.4097 121.411 70.3869 126.297C70.7126 127.98 71.2012 133.572 71.4184 138.729C71.9613 149.099 72.3413 150.293 75.6529 151.704C78.0959 152.736 90.5282 152.844 92.1026 151.867C93.4598 150.999 95.9571 151.976 97.4772 154.093C98.1287 154.907 99.3773 155.776 100.246 155.993C101.169 156.156 102.852 156.808 103.992 157.35C112.081 161.259 124.296 159.196 131.245 152.682C135.643 148.61 137 145.135 138.574 134.278C139.986 124.288 141.397 116.634 141.831 116.199C141.994 116.036 145.577 116.254 149.812 116.634C160.724 117.611 184.72 116.688 185.751 115.276C186.403 114.408 186.674 114.462 189.715 116.145C192.538 117.665 193.135 117.828 193.895 117.231C194.981 116.362 198.021 106.97 198.021 104.527C198.021 103.55 198.292 102.464 198.564 102.193C199.595 101.161 201.93 87.806 201.658 84.4944C201.332 80.6398 201.061 80.2598 198.889 80.2598C196.446 80.2598 195.578 81.1284 194.492 84.6029C192.755 90.1404 187.543 93.9407 177.282 97.3066C172.885 98.7724 171.093 99.0982 169.085 98.881C167.673 98.7181 166.425 98.3924 166.316 98.2295C166.153 98.0124 168.976 96.818 172.559 95.4608C176.142 94.1578 179.291 92.8006 179.617 92.4206C179.943 92.0406 180.105 90.6833 179.997 89.3804L179.834 87.046L183.091 85.8516C184.883 85.1458 187.217 84.1686 188.249 83.6257C190.095 82.7028 190.149 82.5942 190.095 79.7169C190.04 76.8396 188.792 73.3651 187.489 72.5507C187.163 72.3336 186.892 70.8135 186.837 69.1848C186.674 63.7016 182.657 57.8384 177.119 54.961L174.079 53.3866L172.722 54.961C171.636 56.1554 171.419 56.8612 171.691 57.9469C171.908 58.707 172.179 61.8015 172.342 64.8417C172.613 70.7049 171.745 74.288 170.116 74.288C169.628 74.288 168.922 74.9938 168.487 75.8624C167.619 77.5453 164.633 80.2598 163.71 80.2598C163.384 80.2598 160.507 81.5085 157.358 83.0286C150.301 86.4488 148.509 87.1002 142.592 88.4032C139.986 88.9461 136.348 90.1947 134.502 91.1177C131.299 92.7463 131.082 92.9635 129.236 96.9809C128.151 99.261 126.25 102.356 125.002 103.876C123.753 105.341 120.713 109.467 118.27 112.942C115.827 116.471 113.601 119.457 113.33 119.619C112.841 119.945 111.701 118.208 108.769 112.67C106.381 108.11 106.489 107.676 112.135 101.704C116.424 97.1438 120.876 89.9233 122.83 84.2772C123.807 81.5085 123.807 81.3999 122.559 76.6767C121.799 73.6908 121.202 69.5105 121.039 65.7103L120.767 59.5756L118.813 58.6527C116.913 57.7841 116.858 57.5669 116.478 54.201C116.316 52.2466 115.773 49.4778 115.284 48.012C114.795 46.5462 114.415 44.6461 114.415 43.7774C114.415 41.443 113.112 42.1488 112.895 44.5918C112.624 47.5777 111.81 47.0348 111.43 43.6146C110.941 39.9772 109.909 39.8686 109.529 43.3974C109.204 46.1662 108.878 45.8404 107.846 41.823C107.466 40.2486 106.869 39 106.435 39C106.055 39 105.729 39.3257 105.729 39.6515Z" fill="black" fill-opacity="0.9"/>
<path d="M248.708 378.373C254.283 381.16 259.07 384.842 260.279 387.157C260.753 388.103 261.857 389.997 262.751 391.364C264.224 393.574 264.645 393.889 266.223 393.889C267.748 393.889 268.485 394.363 270.536 396.572C271.904 398.044 273.376 399.991 273.902 400.885L274.797 402.568L271.272 406.25C269.326 408.301 266.749 410.405 265.592 410.984C264.382 411.562 262.541 413.193 261.437 414.666C260.385 416.086 259.07 417.401 258.491 417.611C257.965 417.821 256.44 419.61 255.072 421.661C253.705 423.712 251.338 426.658 249.812 428.183C245.815 432.339 241.397 437.546 241.923 437.546C242.133 437.546 243.132 437.072 244.079 436.494C245.026 435.915 246.183 435.442 246.656 435.442C247.13 435.442 248.971 434.495 250.706 433.391C254.336 431.024 258.859 429.13 260.753 429.13C262.541 429.13 268.59 423.555 271.588 419.136C274.008 415.612 274.06 415.455 274.428 410.142C274.797 405.303 274.954 404.619 276.164 403.515C276.9 402.883 277.9 402.305 278.373 402.305C280.425 402.305 285.579 417.874 285.053 422.45C284.895 423.66 284.527 425.606 284.264 426.763C283.738 428.604 283.843 429.13 284.843 430.708C285.737 432.233 285.947 433.391 286 437.178C286 440.702 285.842 441.912 285.211 442.28C284.106 442.963 276.9 442.911 273.587 442.227C271.115 441.701 270.536 441.754 267.117 443.069C265.066 443.858 263.014 444.699 262.594 444.962C261.857 445.436 258.175 447.224 252.863 449.696C247.919 452.01 237.241 455.903 233.665 456.692C231.561 457.165 229.351 457.901 228.72 458.322C228.142 458.743 227.248 459.111 226.722 459.111C225.196 459.111 225.564 461.005 228.457 467.527C231.876 475.312 234.138 481.203 236.452 488.04C237.452 491.091 238.872 494.983 239.608 496.719C240.345 498.455 241.186 501.4 241.502 503.241C242.028 506.502 241.975 506.713 240.345 509.816C239.345 511.71 237.241 514.287 235.243 516.18C233.349 517.969 230.456 520.704 228.72 522.335L225.617 525.227L229.351 527.91C233.77 531.118 234.611 532.276 235.558 536.326C235.979 538.167 236.663 539.639 237.346 540.113C243.237 544.373 245.71 547.108 245.078 548.739C244.552 550.001 236.189 555.366 234.664 555.366C233.875 555.366 231.771 554.683 229.93 553.788L226.564 552.263L220.883 552.999C213.835 553.946 209.995 554.946 204.42 557.26C202 558.259 199.633 559.048 199.107 559.048C198.581 559.048 196.846 558.207 195.268 557.155L192.375 555.314L183.17 555.682C172.808 556.05 168.39 555.577 163.34 553.525C161.5 552.789 159.606 552.21 159.027 552.21C157.923 552.21 153.294 549.528 150.191 547.056C148.981 546.109 147.771 545.373 147.456 545.373C146.719 545.373 145.141 542.901 145.457 542.322C146.351 540.902 141.46 539.061 136.726 539.061C135.253 539.061 133.359 538.64 132.15 538.009C130.992 537.43 129.73 536.957 129.309 536.957C128.257 536.957 119.736 530.435 119.316 529.278C119.158 528.857 119 527.226 119 525.701C119 523.386 119.263 522.545 120.578 520.914C122.051 519.073 124.26 514.024 124.26 512.551C124.26 512.13 125.101 511.078 126.206 510.132C127.837 508.659 128.415 508.501 130.203 508.712C131.571 508.922 132.833 509.553 133.938 510.605C135.726 512.341 136.778 512.499 141.354 511.92L143.826 511.552L143.458 509.658C143.248 508.606 143.143 506.187 143.143 504.241C143.195 501.611 143.037 500.559 142.406 500.033C139.566 497.718 139.408 497.403 139.671 495.299C140.039 492.511 139.04 489.408 136.726 485.989C134.622 482.991 134.359 481.36 135.358 477.994C135.831 476.469 135.831 474.68 135.358 470.63C134.832 465.739 134.885 465.002 135.831 461.531C137.515 455.798 137.935 454.903 139.671 454.062C141.46 453.115 143.511 453.378 147.193 454.956C149.98 456.218 149.717 456.849 146.404 457.112C144.352 457.27 143.984 457.481 143.563 458.743C142.932 460.794 143.826 461.741 145.194 460.531C146.299 459.532 147.403 459.374 147.403 460.163C147.403 460.479 146.456 462.057 145.247 463.635C143.669 465.791 143.248 466.738 143.669 467.159C143.984 467.474 144.247 468.211 144.247 468.737C144.247 469.894 150.717 483.412 152.347 485.621C152.926 486.462 154.031 488.251 154.767 489.618C157.87 495.352 159.396 497.929 162.446 502.452C169.652 513.288 171.178 515.392 171.651 515.076C171.914 514.918 172.124 514.024 172.124 513.13C172.124 512.183 172.65 510.395 173.229 509.08C174.071 507.291 174.334 505.45 174.439 501.453C174.544 497.981 174.965 494.668 175.754 491.722C176.437 489.25 177.016 486.305 177.121 485.147C177.226 483.99 177.542 482.097 177.91 480.94C178.226 479.782 178.857 476.679 179.225 474.102C180.014 468.684 180.856 465.107 181.645 463.477C182.118 462.635 182.065 461.268 181.645 458.164C181.119 454.483 181.119 453.694 181.96 451.432C183.012 448.592 184.695 447.382 186.536 448.066C187.168 448.276 188.588 448.749 189.745 449.118C191.323 449.591 192.112 450.222 192.743 451.537C194.005 453.957 193.953 454.377 192.375 454.377C190.797 454.377 190.218 455.429 189.85 459.111C189.692 460.689 189.061 463.056 188.483 464.371C187.115 467.369 187.115 468.842 188.43 470.525C189.271 471.577 189.482 472.682 189.482 475.627C189.482 479.309 191.27 493.984 191.849 494.878C192.007 495.141 192.375 497.613 192.638 500.401C192.901 503.241 193.216 505.661 193.427 505.819C193.585 505.976 194.689 505.187 195.951 504.03C199.37 500.822 199.949 500.454 202.579 500.138C204.735 499.928 204.998 499.717 205.156 498.402C205.261 497.613 205.787 496.719 206.366 496.456C208.207 495.457 209.048 492.932 208.628 489.934C208.417 488.461 208.312 486.305 208.365 485.147C208.417 483.99 208.102 480.098 207.628 476.469C206.366 466.422 205.524 455.745 205.577 450.012L205.63 444.857L209.259 441.175C211.258 439.124 214.045 436.599 215.518 435.547C224.723 428.815 237.452 417.769 238.609 415.507C239.819 413.088 242.08 410.721 245.867 407.723L248.918 405.408V399.044C248.918 391.364 248.287 389.734 243.606 384.684C240.397 381.266 239.766 379.425 241.028 377.005C241.87 375.48 243.606 375.795 248.708 378.373Z" fill="black" fill-opacity="0.9"/>
<path d="M1287.54 373.383C1283.9 373.958 1283.26 374.277 1280.19 377.278C1277.96 379.45 1275.91 380.727 1273.49 381.557C1271.57 382.196 1268.83 383.345 1267.42 384.111C1265.63 385.133 1264.48 385.388 1263.59 385.069C1262.89 384.75 1261.55 384.494 1260.59 384.494C1258.99 384.431 1258.55 385.005 1255.61 390.944C1253.56 395.159 1251.71 400.204 1250.5 405.057C1249.41 409.208 1247.88 413.933 1247.05 415.593C1246.22 417.254 1244.75 421.149 1243.79 424.342C1242.84 427.471 1241.24 432.26 1240.28 434.879C1239.26 437.561 1238.24 441.52 1237.98 443.819C1237.66 446.692 1237.03 448.608 1235.88 450.205C1231.85 455.696 1229.55 458.123 1226.87 459.656C1220.1 463.551 1214.99 468.276 1213.14 472.491C1212.18 474.598 1210.91 476.386 1210.08 476.706C1209.31 477.089 1208.61 478.047 1208.48 478.941C1208.35 479.835 1207.97 480.793 1207.65 481.112C1207.33 481.495 1207.08 482.261 1207.08 482.836C1207.08 484.305 1205.16 484.752 1195.71 485.646C1193.79 485.837 1192.01 486.157 1191.62 486.348C1190.54 486.987 1179.62 485.135 1179.62 484.305C1179.62 482.964 1177 480.218 1173.36 477.728C1171.25 476.323 1169.02 474.088 1168.12 472.555C1167.23 471.086 1163.78 465.658 1160.4 460.55C1152.99 449.311 1152.48 447.586 1155.29 443.372C1158.35 438.774 1157.65 437.178 1153.95 440.307C1150.75 442.989 1150.24 442.542 1150.24 437.178C1150.24 434.559 1149.99 432.26 1149.73 432.069C1148.58 431.366 1147.82 432.835 1147.37 436.603C1147.11 438.838 1146.73 440.626 1146.41 440.626C1146.15 440.626 1145.26 438.838 1144.49 436.603C1142.71 431.877 1142 430.728 1141.11 431.622C1140.73 432.005 1140.92 433.857 1141.62 436.794C1142.26 439.285 1142.58 441.456 1142.45 441.648C1142.26 441.775 1141.05 440.37 1139.71 438.391C1137.21 434.815 1136.58 434.368 1135.87 435.581C1135.17 436.667 1136.07 438.966 1138.43 442.414C1139.64 444.266 1140.66 446.437 1140.66 447.331C1140.66 449.119 1139.07 450.141 1137.92 448.991C1137.53 448.608 1136.26 448.289 1135.11 448.289C1133.32 448.289 1133 448.48 1133 449.885C1133 451.035 1133.45 451.546 1134.72 451.865C1135.68 452.12 1138.3 453.142 1140.47 454.164C1142.64 455.122 1145.01 455.952 1145.64 455.952C1147.3 455.952 1150.11 460.103 1151.52 464.828C1153.18 470.128 1155.48 474.407 1157.84 476.706C1158.93 477.728 1160.14 479.643 1160.46 480.92C1160.84 482.198 1162.25 484.688 1163.65 486.476C1165.38 488.647 1166.21 490.308 1166.21 491.649C1166.21 493.628 1164.87 494.395 1163.97 492.99C1163.78 492.606 1162.95 492.351 1162.12 492.351C1161.35 492.351 1160.4 492.032 1159.95 491.585C1159.57 491.202 1157.52 490.627 1155.54 490.371C1153.5 490.052 1150.94 489.669 1149.86 489.477C1148.33 489.158 1147.37 489.541 1145.01 491.393C1141.88 493.692 1140.98 495.608 1140.41 500.653C1140.22 502.249 1139.9 504.74 1139.64 506.208C1139 510.487 1141.94 513.807 1144.37 511.381C1144.88 510.87 1145.71 511.253 1147.69 512.977C1149.09 514.318 1150.88 515.34 1151.65 515.34C1152.35 515.34 1153.88 516.042 1154.97 516.809C1156.76 518.214 1157.27 518.277 1160.78 517.767C1162.89 517.447 1165.31 517.192 1166.08 517.192C1167.1 517.128 1168.25 516.234 1169.59 514.318C1170.68 512.786 1171.89 511.509 1172.27 511.509C1172.66 511.509 1174.83 512.53 1177.13 513.744C1183.26 517 1189.45 519.172 1192.58 519.172C1195.64 519.172 1206.56 515.915 1210.91 513.744C1213.84 512.275 1217.36 509.657 1221.64 505.889C1222.91 504.74 1225.72 502.952 1227.89 501.93C1233.7 499.12 1238.75 494.075 1245.45 484.433C1253.95 472.172 1254.97 470.128 1255.67 464.381C1256.95 453.845 1260.01 447.65 1263.91 447.65C1265.44 447.65 1266.08 447.076 1268.06 443.819C1270.55 439.732 1273.17 437.369 1276.36 436.347C1277.51 435.964 1278.34 435.262 1278.47 434.432C1278.79 432.133 1276.94 431.366 1270.68 431.303C1262.44 431.239 1262.31 431.111 1264.36 426.705C1269.47 415.402 1270.3 414.189 1277.64 406.462C1281.66 402.247 1284.98 398.352 1284.98 397.777C1284.98 397.202 1284.54 396.372 1284.02 395.925C1282.17 394.392 1282.94 391.774 1286.58 387.176C1291.3 381.365 1292.01 380.599 1294.75 378.492C1297.5 376.448 1297.56 375.937 1295.84 374.213C1294.56 372.936 1291.88 372.681 1287.54 373.383Z" fill="black" fill-opacity="0.9"/>
<path d="M672.44 256.316C665.346 258.999 658.252 263.649 655.212 267.702C653.781 269.61 651.576 271.517 649.668 272.59C646.687 274.319 641.442 279.267 641.442 280.399C641.442 280.698 644.482 283.857 648.178 287.434C656.821 295.839 658.431 298.7 660.16 308.954C660.398 310.444 660.16 311.159 659.206 312.053L657.954 313.246L660.1 318.79C661.233 321.83 662.663 326.062 663.2 328.149C664.631 333.812 668.327 341.919 672.976 349.609L677.09 356.524L678.222 365.585C678.878 370.712 679.116 374.706 678.818 374.706C678.52 374.706 675.122 372.738 671.307 370.294C667.432 367.85 662.842 365.406 661.054 364.81C659.266 364.273 657.298 363.32 656.643 362.783C655.987 362.187 654.497 361.591 653.364 361.352C649.132 360.578 645.138 357.955 635.838 350.026C624.75 340.488 624.095 339.952 622.127 340.25C621.114 340.369 619.445 339.475 616.464 337.21L612.232 334.05L614.08 331.964C615.034 330.831 615.808 329.639 615.689 329.281C615.57 328.924 614.497 328.327 613.305 327.91C609.907 326.778 604.661 321.353 603.23 317.538C602.575 315.749 601.084 313.186 599.892 311.934C597.806 309.609 597.806 309.49 598.163 305.615C598.402 303.469 598.7 300.608 598.879 299.296C599.117 297.448 598.938 296.495 597.806 294.885C597.031 293.753 595.838 292.62 595.064 292.381C593.335 291.726 591.606 293.454 588.387 298.998C584.691 305.496 583.499 309.311 583.141 316.286C582.903 321.83 582.664 322.724 581.234 324.751C579.922 326.539 579.505 327.97 579.147 331.547C578.909 334.05 578.968 336.315 579.266 336.614C579.624 336.971 596.315 339.535 598.64 339.535C598.819 339.535 599.773 340.19 600.727 340.965C601.68 341.8 603.171 342.634 604.005 342.813C604.84 343.052 607.165 344.9 609.251 346.986C612.828 350.622 613.007 350.92 612.351 352.351C611.934 353.245 611.814 354.259 612.053 354.676C612.351 355.153 614.557 357.06 617.001 359.028C619.445 360.995 623.737 364.512 626.539 366.896C629.34 369.221 634.169 372.679 637.269 374.527C652.231 383.29 652.947 383.826 660.756 391.576C664.929 395.749 669.757 400.219 671.486 401.471C676.315 405.108 676.672 405.763 679.593 415.719C681.024 420.726 683.468 423.826 688.416 426.985C690.502 428.356 691.933 429.787 692.469 431.098C693.423 433.423 693.602 438.49 692.708 438.49C690.085 438.49 681.56 432.35 671.426 423.051C663.498 415.838 660.994 412.738 659.921 408.684C659.087 405.465 656.225 399.743 655.51 399.743C655.212 399.743 655.212 401.173 655.391 402.842L655.808 406.002L653.245 403.617C648.476 399.146 647.522 398.431 646.807 398.848C646.389 399.087 646.926 400.219 648.416 402.008L650.681 404.81L647.224 401.948C645.257 400.398 643.468 399.146 643.23 399.146C641.561 399.146 642.336 400.816 645.138 403.439C648.059 406.24 647.701 406.24 643.468 403.558C642.455 402.842 641.799 402.723 641.382 403.14C640.965 403.558 641.62 404.512 643.468 406.061C646.509 408.565 646.628 409.28 643.826 407.79C640.488 406.061 640.547 407.194 643.945 409.757C645.793 411.128 647.82 412.976 648.476 413.871C649.132 414.824 651.456 416.494 653.602 417.567C657.12 419.295 658.252 420.368 663.975 427.343C674.765 440.577 676.613 443.08 676.613 444.392C676.613 445.167 677.328 446.061 678.58 446.776C681.322 448.386 686.151 452.32 686.151 452.916C686.151 453.93 683.408 453.274 678.043 450.949C672.261 448.386 663.319 441.769 657.596 435.867L654.914 433.185L654.854 427.939C654.735 422.335 653.483 418.222 651.933 418.222C651.218 418.222 651.158 418.878 651.397 421.501C651.874 426.151 650.681 425.853 646.449 420.13C642.932 415.48 641.62 414.049 640.726 414.049C639.832 414.049 640.249 415.659 641.799 418.461C642.693 420.011 643.23 421.382 643.111 421.501C642.992 421.68 641.442 420.309 639.653 418.461C635.778 414.467 634.348 413.573 633.632 414.705C633.275 415.301 634.407 416.851 637.448 419.951L641.74 424.362L637.626 421.561C635.421 420.07 633.156 418.818 632.738 418.818C631.01 418.818 632.023 420.488 635.838 423.826C637.984 425.733 639.594 427.403 639.474 427.581C639.296 427.701 638.103 427.283 636.732 426.628C633.871 425.137 633.692 425.137 633.692 426.21C633.692 426.687 634.586 427.701 635.659 428.476C639.057 430.86 658.252 447.551 664.333 453.393C667.552 456.493 671.128 460.249 672.201 461.739C673.274 463.229 675.599 465.375 677.388 466.508C682.395 469.727 702.365 483.02 703.736 484.034C704.869 484.868 704.869 484.928 703.021 485.345C701.948 485.524 700.755 486.12 700.398 486.538C700.04 487.014 699.206 487.372 698.609 487.372C697.834 487.372 697.477 487.789 697.477 488.624C697.477 489.28 696.702 490.532 695.748 491.426C694.794 492.32 693.84 493.989 693.602 495.122C693.364 496.254 692.767 497.506 692.291 497.864C691.575 498.341 691.456 499.235 691.754 501.739C691.933 503.527 692.171 505.792 692.291 506.746C692.469 509.429 699.325 517.834 700.815 517.357C701.232 517.238 702.305 517.834 703.319 518.668C704.273 519.503 705.465 520.159 705.882 520.159C706.299 520.159 707.134 520.636 707.79 521.232C708.863 522.186 708.982 522.186 710.651 520.159C711.605 519.026 712.737 518.072 713.155 518.072C714.049 518.072 718.758 514.257 722.037 510.919C728.952 503.765 729.548 502.99 731.098 498.281C731.933 495.718 732.648 493.453 732.648 493.214C732.648 492.976 731.277 492.081 729.667 491.247C726.15 489.459 725.733 488.624 725.196 482.246L724.779 477.536L727.283 473.661C733.721 463.468 734.794 459.474 733.542 450.413C733.065 446.955 732.409 441.948 732.111 439.265C731.038 430.502 729.548 427.104 715.599 400.935C714.109 398.133 712.022 394.914 710.949 393.781C709.757 392.53 708.803 390.801 708.565 389.43C707.969 386.211 704.63 376.136 701.53 368.148C700.04 364.393 698.371 359.683 697.775 357.716C697.238 355.749 696.165 353.066 695.45 351.755C694.735 350.443 693.602 348.059 693.006 346.449C692.35 344.602 690.86 342.455 689.072 340.667C687.462 339.177 686.151 337.508 686.151 337.031C686.151 336.494 685.316 335.123 684.362 333.871C683.349 332.62 682.097 330.116 681.62 328.268C679.832 322.247 674.288 309.132 672.499 306.867C671.188 305.198 668.267 298.283 668.267 296.852C668.267 296.793 669.221 296.197 670.353 295.481C672.321 294.349 672.44 294.11 672.44 291.07C672.44 288.924 672.142 287.553 671.546 287.076C669.876 285.705 669.519 282.665 670.413 276.823C671.665 268.477 671.784 268.119 674.586 264.96C677.507 261.681 678.222 259.655 677.447 257.33C676.791 255.541 675.361 255.243 672.44 256.316Z" fill="black" fill-opacity="0.9"/>
</svg>
