<svg width="1920" height="931" viewBox="0 0 1920 931" fill="none" xmlns="http://www.w3.org/2000/svg">
<path d="M927.667 386.417C916.912 390.484 906.157 397.533 901.547 403.679C899.378 406.571 896.034 409.463 893.142 411.09C888.623 413.711 880.67 421.213 880.67 422.93C880.67 423.382 885.279 428.172 890.882 433.595C903.987 446.338 906.428 450.676 909.049 466.222C909.41 468.481 909.049 469.566 907.603 470.921L905.705 472.729L908.958 481.134C910.675 485.744 912.845 492.16 913.658 495.324C915.827 503.91 921.431 516.201 928.48 527.86L934.716 538.344L936.434 552.082C937.428 559.855 937.789 565.91 937.337 565.91C936.886 565.91 931.734 562.928 925.95 559.222C920.075 555.516 913.116 551.811 910.404 550.907C907.693 550.094 904.71 548.648 903.716 547.834C902.722 546.93 900.463 546.027 898.745 545.665C892.328 544.49 886.273 540.513 872.174 528.493C855.363 514.032 854.369 513.219 851.387 513.671C849.85 513.852 847.32 512.496 842.801 509.061L836.384 504.271L839.185 501.108C840.631 499.391 841.806 497.583 841.626 497.041C841.445 496.499 839.818 495.595 838.01 494.962C832.859 493.245 824.905 485.021 822.736 479.236C821.742 476.525 819.483 472.639 817.675 470.741C814.512 467.216 814.512 467.035 815.054 461.16C815.416 457.907 815.868 453.568 816.139 451.58C816.5 448.778 816.229 447.332 814.512 444.892C813.337 443.175 811.529 441.458 810.354 441.096C807.733 440.102 805.112 442.723 800.232 451.128C794.628 460.98 792.821 466.764 792.278 477.338C791.917 485.744 791.555 487.099 789.386 490.172C787.398 492.883 786.765 495.053 786.223 500.475C785.862 504.271 785.952 507.706 786.404 508.158C786.946 508.7 812.252 512.586 815.777 512.586C816.048 512.586 817.494 513.58 818.94 514.755C820.386 516.021 822.646 517.286 823.911 517.557C825.177 517.919 828.701 520.72 831.865 523.884C837.287 529.397 837.559 529.849 836.564 532.018C835.932 533.373 835.751 534.91 836.112 535.543C836.564 536.266 839.908 539.158 843.614 542.14C847.32 545.123 853.827 550.455 858.075 554.07C862.323 557.595 869.643 562.837 874.343 565.639C897.028 578.925 898.113 579.738 909.952 591.487C916.279 597.814 923.6 604.592 926.221 606.49C933.541 612.004 934.084 612.998 938.512 628.091C940.681 635.683 944.387 640.383 951.888 645.173C955.052 647.252 957.221 649.421 958.034 651.409C959.48 654.934 959.751 662.616 958.396 662.616C954.419 662.616 941.495 653.307 926.13 639.208C914.11 628.272 910.314 623.572 908.687 617.426C907.422 612.546 903.084 603.869 901.999 603.869C901.547 603.869 901.547 606.039 901.818 608.569L902.451 613.359L898.565 609.744C891.334 602.966 889.888 601.881 888.804 602.514C888.171 602.875 888.984 604.592 891.244 607.304L894.678 611.552L889.436 607.213C886.454 604.864 883.742 602.966 883.381 602.966C880.85 602.966 882.025 605.496 886.273 609.473C890.702 613.721 890.159 613.721 883.742 609.654C882.206 608.569 881.212 608.388 880.579 609.021C879.946 609.654 880.941 611.1 883.742 613.45C888.352 617.246 888.533 618.33 884.285 616.071C879.223 613.45 879.314 615.167 884.465 619.053C887.267 621.132 890.34 623.934 891.334 625.289C892.328 626.735 895.853 629.266 899.107 630.893C904.439 633.514 906.157 635.141 914.833 645.715C931.192 665.779 933.993 669.575 933.993 671.564C933.993 672.739 935.078 674.094 936.976 675.179C941.133 677.619 948.454 683.584 948.454 684.488C948.454 686.024 944.297 685.03 936.162 681.505C927.396 677.619 913.839 667.587 905.162 658.639L901.095 654.572L901.005 646.619C900.824 638.123 898.926 631.887 896.576 631.887C895.492 631.887 895.401 632.881 895.763 636.858C896.486 643.907 894.678 643.456 888.261 634.779C882.929 627.73 880.941 625.56 879.585 625.56C878.229 625.56 878.862 628.001 881.212 632.249C882.567 634.598 883.381 636.677 883.2 636.858C883.019 637.129 880.67 635.05 877.958 632.249C872.083 626.193 869.914 624.837 868.83 626.555C868.288 627.458 870.005 629.808 874.614 634.508L881.121 641.196L874.885 636.948C871.541 634.689 868.107 632.791 867.474 632.791C864.853 632.791 866.39 635.321 872.174 640.383C875.428 643.275 877.868 645.805 877.687 646.077C877.416 646.257 875.608 645.625 873.53 644.631C869.191 642.371 868.92 642.371 868.92 643.998C868.92 644.721 870.276 646.257 871.903 647.432C877.054 651.047 906.157 676.354 915.375 685.211C920.256 689.911 925.678 695.605 927.305 697.864C928.932 700.123 932.457 703.377 935.168 705.094C942.76 709.975 973.037 730.129 975.116 731.666C976.833 732.931 976.833 733.022 974.031 733.654C972.405 733.925 970.597 734.829 970.055 735.462C969.512 736.185 968.247 736.727 967.343 736.727C966.168 736.727 965.626 737.36 965.626 738.625C965.626 739.619 964.451 741.517 963.005 742.873C961.559 744.229 960.113 746.759 959.751 748.476C959.39 750.194 958.486 752.092 957.763 752.634C956.679 753.357 956.498 754.713 956.95 758.509C957.221 761.22 957.582 764.654 957.763 766.1C958.034 770.168 968.428 782.911 970.687 782.188C971.32 782.007 972.947 782.911 974.483 784.176C975.929 785.442 977.737 786.436 978.37 786.436C979.002 786.436 980.268 787.159 981.262 788.063C982.889 789.509 983.069 789.509 985.6 786.436C987.046 784.719 988.763 783.273 989.396 783.273C990.752 783.273 997.892 777.488 1002.86 772.427C1013.35 761.581 1014.25 760.407 1016.6 753.267C1017.87 749.38 1018.95 745.946 1018.95 745.584C1018.95 745.223 1016.87 743.867 1014.43 742.602C1009.1 739.89 1008.47 738.625 1007.65 728.955L1007.02 721.815L1010.82 715.94C1020.58 700.485 1022.2 694.43 1020.31 680.692C1019.58 675.45 1018.59 667.858 1018.14 663.791C1016.51 650.505 1014.25 645.354 993.101 605.677C990.842 601.429 987.679 596.549 986.052 594.831C984.244 592.934 982.798 590.313 982.437 588.234C981.533 583.353 976.472 568.079 971.772 555.968C969.512 550.274 966.982 543.134 966.078 540.152C965.265 537.169 963.638 533.102 962.553 531.114C961.469 529.126 959.751 525.51 958.848 523.07C957.854 520.268 955.594 517.015 952.883 514.303C950.442 512.044 948.454 509.513 948.454 508.79C948.454 507.977 947.189 505.898 945.743 504C944.206 502.102 942.308 498.306 941.585 495.505C938.874 486.376 930.469 466.493 927.757 463.058C925.769 460.528 921.34 450.044 921.34 447.875C921.34 447.784 922.786 446.88 924.504 445.796C927.486 444.079 927.667 443.717 927.667 439.108C927.667 435.854 927.215 433.775 926.311 433.052C923.78 430.974 923.238 426.364 924.594 417.507C926.492 404.854 926.673 404.312 930.92 399.522C935.349 394.551 936.434 391.478 935.259 387.953C934.265 385.242 932.095 384.79 927.667 386.417Z" fill="black" fill-opacity="0.9"/>
</svg>
