<svg width="1920" height="931" viewBox="0 0 1920 931" fill="none" xmlns="http://www.w3.org/2000/svg">
<path d="M948.975 265.993C948.188 267.175 947.695 268.454 947.991 268.848C948.68 270.029 953.799 267.962 955.866 265.698C957.539 263.926 957.44 263.828 953.996 263.828C951.534 263.828 950.058 264.418 948.975 265.993Z" fill="black" fill-opacity="0.9"/>
<path d="M920.528 269.143C920.232 269.93 920.331 270.915 920.823 271.21C922.103 271.998 923.185 269.734 922.004 268.552C921.414 267.962 920.922 268.159 920.528 269.143Z" fill="black" fill-opacity="0.9"/>
<path d="M937.065 270.127C929.584 273.08 922.3 276.723 915.114 281.25C906.157 286.96 881.45 304.579 881.942 304.973C883.024 306.056 889.029 303.497 896.412 298.772C900.94 295.917 906.649 292.866 909.11 292.078C912.555 290.897 913.441 290.11 913.441 288.338C913.441 286.271 914.13 285.877 918.264 285.286C920.823 284.893 925.253 283.514 928.009 282.136C935.392 278.593 947.4 267.568 943.758 267.765C943.266 267.863 940.313 268.848 937.065 270.127Z" fill="black" fill-opacity="0.9"/>
<path d="M985.987 269.438C986.184 270.62 987.168 271.21 988.742 271.21C990.318 271.21 991.302 270.62 991.499 269.438C991.794 268.159 991.204 267.765 988.742 267.765C986.282 267.765 985.691 268.159 985.987 269.438Z" fill="black" fill-opacity="0.9"/>
<path d="M910.487 274.262C908.617 276.132 909.011 276.919 911.373 276.033C912.259 275.738 912.949 274.852 912.949 274.065C912.949 272.293 912.456 272.293 910.487 274.262Z" fill="black" fill-opacity="0.9"/>
<path d="M948.877 276.624C944.054 278.199 938.148 279.971 935.884 280.562C933.325 281.152 931.553 282.333 931.159 283.515C930.175 286.566 925.352 290.011 918.067 292.768C912.949 294.736 910.094 296.606 906.551 300.347C902.909 304.186 899.07 306.647 888.931 311.568C875.839 317.967 868.654 322.888 868.654 325.448C868.654 327.318 868.85 327.219 875.051 324.266C878.004 322.888 882.04 321.51 884.108 321.215C886.47 320.821 889.325 319.345 891.884 316.982C894.148 314.915 898.184 312.553 901.235 311.568C910.192 308.615 913.54 306.45 919.446 299.756C925.45 292.964 930.175 289.421 933.128 289.421C934.112 289.421 936.868 287.649 939.231 285.385C944.349 280.66 948.877 278.593 954.094 278.593C956.555 278.593 958.524 277.904 959.508 276.821C963.15 272.785 960.886 272.785 948.877 276.624Z" fill="black" fill-opacity="0.9"/>
<path d="M968.564 280.66C964.627 281.546 961.772 284.007 962.756 285.582C963.051 286.074 964.725 286.467 966.595 286.467C968.957 286.467 970.434 285.778 971.91 283.908C973.977 281.25 974.568 279.479 973.289 279.676C972.796 279.774 970.729 280.168 968.564 280.66Z" fill="black" fill-opacity="0.9"/>
<path d="M975.946 281.546C975.946 283.121 976.635 283.515 979.392 283.515C982.148 283.515 982.836 283.121 982.836 281.546C982.836 279.971 982.148 279.577 979.392 279.577C976.635 279.577 975.946 279.971 975.946 281.546Z" fill="black" fill-opacity="0.9"/>
<path d="M993.074 281.054C993.369 281.939 993.664 282.924 993.664 283.121C993.664 283.318 994.353 283.514 995.239 283.514C997.405 283.514 996.519 280.168 994.255 279.774C992.877 279.479 992.581 279.774 993.074 281.054Z" fill="black" fill-opacity="0.9"/>
<path d="M957.54 284.991C957.244 285.877 957.244 286.763 957.54 287.058C958.425 287.944 960.197 286.467 960.197 284.893C960.197 283.022 958.327 283.121 957.54 284.991Z" fill="black" fill-opacity="0.9"/>
<path d="M946.023 289.027C945.432 290.503 947.696 293.26 949.665 293.358C950.748 293.358 950.452 289.913 949.172 288.633C947.597 287.058 946.712 287.157 946.023 289.027Z" fill="black" fill-opacity="0.9"/>
<path d="M974.863 288.436C964.528 288.929 964.429 288.929 961.772 292.078C959.803 294.342 958.228 295.327 956.161 295.327C954.586 295.327 951.633 295.917 949.664 296.705C947.597 297.492 940.903 299.756 934.702 301.725C927.91 303.792 920.725 306.942 916.492 309.501C912.653 311.864 908.42 314.128 907.043 314.521C905.664 314.915 902.81 316.884 900.644 318.852C898.479 320.92 894.836 323.085 892.573 323.774C890.21 324.365 887.454 326.137 885.977 327.81C884.206 329.976 882.631 330.763 880.466 330.763C878.201 330.763 877.217 331.255 876.823 332.633C876.528 333.618 874.264 335.783 871.803 337.456C869.244 339.13 865.897 341.788 864.224 343.56L861.271 346.611L865.7 345.922C872.984 344.839 875.544 342.969 875.544 338.933C875.544 336.964 875.741 336.866 878.004 337.85C881.154 339.228 884.993 337.555 894.246 330.763C897.789 328.204 902.121 325.349 903.893 324.463C905.96 323.38 907.043 322.101 907.043 320.821C907.043 319.049 907.239 318.951 908.519 319.935C909.7 320.92 910.389 320.92 911.177 320.132C911.866 319.443 913.145 318.951 914.031 318.951C914.917 318.951 919.544 316.49 924.367 313.537C933.029 308.025 945.825 303.201 951.436 303.201C953.11 303.201 955.866 302.119 957.539 300.839C960.788 298.378 968.17 295.622 977.915 293.358C983.427 291.98 986.282 290.307 985.691 288.732C985.494 288.338 980.573 288.141 974.863 288.436Z" fill="black" fill-opacity="0.9"/>
<path d="M988.742 288.436C988.742 288.928 989.333 289.421 990.121 289.421C990.908 289.421 991.893 288.928 992.188 288.436C992.483 287.846 991.893 287.452 990.81 287.452C989.628 287.452 988.742 287.846 988.742 288.436Z" fill="black" fill-opacity="0.9"/>
<path d="M934.997 291.389C933.029 292.177 928.304 297.295 928.993 297.886C929.584 298.476 941.593 294.539 943.168 293.259C944.447 292.078 944.447 291.881 942.774 291.291C940.412 290.306 937.557 290.306 934.997 291.389Z" fill="black" fill-opacity="0.9"/>
<path d="M994.55 293.358C986.675 294.736 980.376 299.166 981.065 302.808C981.36 304.383 981.754 304.284 983.919 301.922L986.38 299.166L988.251 301.233C990.613 303.792 990.909 303.792 998.389 300.051L1004.79 297L1012.07 298.772L1019.36 300.642L1021.92 297.984L1024.57 295.425L1021.62 294.244C1018.08 292.866 1000.55 292.177 994.55 293.358Z" fill="black" fill-opacity="0.9"/>
<path d="M960.295 304.875C950.452 307.729 938.935 311.47 934.702 313.143C925.647 316.785 914.917 323.38 909.405 328.597C906.748 331.255 904.483 332.436 902.712 332.436C900.842 332.436 898.577 333.815 895.427 336.866C892.868 339.326 884.206 345.627 876.036 350.942C861.172 360.588 857.53 363.345 846.014 373.09C838.434 379.487 838.139 379.783 838.139 382.736C838.139 386.181 841.19 385.098 843.553 380.768C845.128 377.815 846.604 376.732 851.132 375.058C854.184 373.976 858.121 371.711 859.696 370.137C861.271 368.463 863.633 367.184 864.815 367.184C867.964 367.184 872.788 363.148 876.528 357.439C878.201 354.682 880.17 352.419 880.859 352.419C883.812 352.419 892.967 346.906 904.582 338.244C921.611 325.349 924.662 323.774 942.774 317.868C951.338 315.112 959.902 311.765 961.772 310.485C967.678 306.45 971.123 304.973 973.387 305.564C976.242 306.253 979.195 304.087 978.702 301.626C978.407 299.756 977.62 299.855 960.295 304.875Z" fill="black" fill-opacity="0.9"/>
<path d="M1010.3 305.17C1007.25 305.662 999.571 307.335 993.074 309.009C986.675 310.584 978.899 312.159 975.946 312.552C970.138 313.34 966.201 314.915 964.232 317.376C963.051 318.754 963.347 318.951 966.792 318.951C968.957 318.951 978.211 317.573 987.365 315.801C1001.93 313.045 1006.07 312.651 1020.73 312.651C1035.5 312.651 1038.16 312.848 1043.18 314.718C1048.69 316.884 1048.79 316.884 1048.79 314.915C1048.79 313.832 1048 312.749 1047.11 312.356C1046.13 312.06 1042.29 310.288 1038.45 308.418C1032.84 305.761 1030.08 305.071 1023.69 304.678C1019.36 304.481 1013.35 304.678 1010.3 305.17Z" fill="black" fill-opacity="0.9"/>
<path d="M1008.23 317.966C1006.76 318.36 1003.11 320.132 1000.26 321.805C994.452 325.152 991.499 325.447 983.919 323.676C979.194 322.593 978.702 322.691 976.537 324.758C974.765 326.432 973.288 326.826 970.434 326.629C966.89 326.333 966.595 326.53 966.299 329.188L965.906 332.043L971.517 331.353C974.667 331.058 987.168 328.696 999.472 326.333C1030.18 320.23 1031.86 320.034 1035.6 323.183C1037.27 324.66 1040.42 326.038 1042.68 326.432C1046.82 327.121 1051.74 326.333 1051.74 325.054C1051.74 323.873 1044.65 320.23 1039.04 318.557C1033.23 316.884 1013.15 316.49 1008.23 317.966Z" fill="black" fill-opacity="0.9"/>
<path d="M949.566 321.412C926.926 327.219 895.821 347.103 875.839 368.561C872 372.597 868.949 375.058 867.571 375.058C866.389 375.058 863.436 377.224 860.483 380.177C857.629 383.031 853.199 386.969 850.443 388.839C847.785 390.709 844.635 393.859 843.553 395.828C841.879 398.879 841.289 399.273 839.812 398.289C838.336 397.403 837.647 397.698 835.678 399.863C833.119 402.816 828.984 412.956 829.477 415.121C829.674 416.007 833.414 413.054 839.123 407.541C849.557 397.305 861.763 387.362 874.461 378.503C880.957 373.877 883.517 371.416 885.584 367.675C887.061 365.018 889.718 361.573 891.49 360.096C897.79 354.781 917.575 342.772 935.884 333.125C951.338 324.955 961.28 318.951 959.212 319.049C958.917 319.049 954.587 320.132 949.566 321.412Z" fill="black" fill-opacity="0.9"/>
<path d="M1009.41 329.778C1009.41 331.452 1014.14 335.684 1017.58 337.161C1022.8 339.326 1030.68 340.016 1033.92 338.637C1036.58 337.554 1037.17 337.752 1040.22 340.016C1045.64 344.15 1067.39 351.828 1069.06 350.154C1070.25 348.973 1067.29 345.528 1065.03 345.528C1063.16 345.528 1062.47 344.839 1061.78 342.279C1060.99 339.228 1060.6 339.031 1047.51 334.996C1040.13 332.731 1031.37 330.369 1027.92 329.778C1019.75 328.499 1009.41 328.499 1009.41 329.778Z" fill="black" fill-opacity="0.9"/>
<path d="M945.924 332.534C939.624 334.7 934.407 337.752 922.989 346.02C917.87 349.662 909.897 354.781 905.271 357.537C900.546 360.195 894.836 363.935 892.573 365.805C888.734 368.955 883.714 375.648 884.6 376.534C885.584 377.617 895.821 371.613 906.058 363.935C917.378 355.372 934.899 345.528 946.514 341.197C951.929 339.228 952.913 338.44 953.503 335.783C954.291 332.929 954.684 332.731 958.721 332.731C961.083 332.731 963.346 332.239 963.642 331.747C964.627 330.074 951.239 330.664 945.924 332.534Z" fill="black" fill-opacity="0.9"/>
<path d="M990.711 335.094C989.333 335.98 985.691 336.669 982.344 336.669C975.454 336.669 974.272 337.259 973.091 341.197L972.304 344.15L987.167 343.756C1001.54 343.362 1009.41 342.378 1009.41 340.705C1009.41 340.311 1008.13 338.736 1006.46 337.161C1002.92 333.815 994.747 332.732 990.711 335.094Z" fill="black" fill-opacity="0.9"/>
<path d="M1010.4 341.788C1010.4 344.741 1011.87 346.906 1013.15 346.118C1013.74 345.725 1015.71 346.808 1017.58 348.382C1020.14 350.647 1023.59 352.024 1033.04 354.387C1047.51 358.029 1051.05 359.407 1055.97 363.345C1058.83 365.707 1060.3 366.199 1062.47 365.707C1064.63 365.215 1065.92 365.707 1068.28 367.675C1069.85 369.054 1071.62 370.137 1072.21 370.137C1073.89 370.137 1074.48 366.986 1073.2 365.412C1070.64 362.36 1057.35 354.387 1049.97 351.533C1041.6 348.382 1013.65 339.622 1011.68 339.622C1010.99 339.622 1010.4 340.606 1010.4 341.788Z" fill="black" fill-opacity="0.9"/>
<path d="M962.165 342.575C942.774 346.611 922.3 357.34 900.841 374.96C892.573 381.752 890.309 383.031 890.309 380.964C890.309 379.586 886.076 379.684 884.6 381.161C883.91 381.85 883.419 383.326 883.419 384.508C883.419 387.165 881.843 388.445 881.056 386.378C880.269 384.212 877.118 384.606 874.953 386.969C873.969 388.15 867.964 393.17 861.763 398.19C849.951 407.64 840.206 417.483 837.647 422.405C836.367 424.768 835.678 425.161 833.709 424.669C831.741 424.177 830.953 424.669 829.28 427.523C828.098 429.393 826.622 431.264 825.835 431.559C825.047 431.855 823.866 433.922 823.275 436.185C822.291 439.335 821.307 440.615 818.747 441.698C815.007 443.174 813.53 445.734 815.597 447.013C819.239 449.278 826.228 442.879 828.295 435.497C829.575 431.165 830.658 430.772 831.445 434.414C831.642 435.89 833.906 434.414 842.371 427.523C848.277 422.799 853.888 418.467 854.873 417.976C855.857 417.385 857.432 415.613 858.416 414.038C863.436 405.376 871.409 399.076 889.816 388.839C896.904 384.902 907.239 378.208 912.949 373.976C926.434 364.033 933.62 359.702 939.526 358.226C942.774 357.439 944.644 356.257 945.53 354.584C947.204 351.533 951.929 349.17 954.882 349.859C956.259 350.252 958.228 349.859 959.508 349.071C960.689 348.284 963.347 347.299 965.315 347.004C969.253 346.217 971.419 344.445 970.828 342.279C970.631 341.098 969.253 341.098 962.165 342.575Z" fill="black" fill-opacity="0.9"/>
<path d="M976.242 349.859C969.352 351.434 967.087 352.517 961.87 356.651C958.917 358.915 957.835 359.309 957.244 358.325C955.964 356.356 948.09 357.734 941.199 361.179C937.853 362.852 929.781 368.266 923.285 373.188C916.689 378.208 907.83 383.917 903.105 386.083C893.754 390.611 883.91 397.993 868.654 411.971C862.944 417.286 856.841 422.7 855.07 423.98C852.904 425.752 851.526 427.917 850.837 430.87C849.557 435.792 848.376 436.973 847.49 434.118C846.604 431.264 845.029 431.658 845.029 434.808C845.029 438.548 844.045 441.993 842.962 441.993C842.47 441.993 842.076 440.91 842.076 439.533C842.076 438.154 841.683 437.071 841.092 437.071C840.6 437.071 840.108 437.761 840.108 438.647C840.108 439.533 838.729 440.714 837.155 441.304C834.3 442.387 834.103 442.682 834.694 446.128C835.383 449.868 835.383 449.868 832.331 449.278C829.87 448.785 828.788 449.179 826.327 451.64C823.964 454.002 823.374 455.479 823.374 458.727C823.374 462.566 823.472 462.763 826.031 462.467C828.492 462.172 828.788 461.779 828.689 458.432C828.591 454.691 829.87 453.805 832.036 455.971C833.02 456.956 835.58 454.888 844.34 445.635C850.837 438.843 857.137 433.134 859.696 431.855C862.846 430.181 864.421 428.705 865.208 426.244C866.094 423.586 869.638 420.534 884.501 409.707C894.443 402.423 908.815 391.497 916.394 385.393C931.947 372.991 936.671 369.644 944.447 365.707C949.074 363.345 950.157 363.148 952.815 364.132C956.161 365.313 960.984 364.329 980.376 358.325C986.282 356.553 991.795 355.372 994.157 355.568C997.602 355.863 998.094 355.568 998.389 353.698C998.685 352.024 998.094 351.138 996.322 350.548C991.795 348.776 982.443 348.481 976.242 349.859Z" fill="black" fill-opacity="0.9"/>
<path d="M1004.98 349.268C1001.34 350.056 999.571 352.32 1000.75 354.879C1001.64 356.848 1002.72 357.143 1009.51 357.734C1015.81 358.325 1017.88 358.915 1020.24 360.883C1023.59 363.738 1026.54 363.64 1026.94 360.785C1027.43 357.143 1010.4 348.185 1004.98 349.268Z" fill="black" fill-opacity="0.9"/>
<path d="M1033.53 359.309C1032.84 360.49 1033.73 362.262 1035.1 362.262C1036.29 362.262 1036.29 359.604 1035.1 358.816C1034.61 358.521 1033.92 358.718 1033.53 359.309Z" fill="black" fill-opacity="0.9"/>
<path d="M1039.73 363.443C1039.44 366.593 1039.34 366.691 1035.5 366.396C1030.09 366.002 1021.03 364.427 1013.06 362.557C1003.71 360.392 990.416 361.278 976.439 365.215C970.533 366.789 959.41 369.742 951.732 371.514C932.833 376.141 921.808 381.358 918.756 387.165C917.772 388.937 917.969 388.937 921.02 388.346C922.792 387.953 928.797 386.083 934.309 384.311C941.298 381.949 946.121 380.964 950.354 380.964C955.866 380.964 956.654 380.669 958.917 378.011C960.493 376.141 962.265 375.058 963.937 375.058C965.316 375.058 973.092 373.68 981.262 372.007C1000.16 368.168 1007.84 367.971 1015.62 371.514C1022.01 374.369 1024.97 374.664 1027.62 372.695C1029.2 371.514 1029.99 371.81 1033.83 374.467C1037.57 377.125 1038.94 377.519 1044.46 377.519C1047.9 377.519 1050.76 377.815 1050.76 378.208C1050.76 379.783 1055.68 382.047 1061.49 383.031C1066.51 383.917 1068.77 385 1073.59 388.937C1079.01 393.268 1084.22 395.237 1084.22 392.875C1084.22 391.299 1068.87 377.519 1063.26 374.271C1060.21 372.4 1054.79 369.94 1051.05 368.758C1045.44 366.888 1044.16 366.002 1042.98 363.443C1041.11 359.407 1040.13 359.506 1039.73 363.443Z" fill="black" fill-opacity="0.9"/>
<path d="M990.219 378.897C984.805 381.358 984.018 381.555 982.148 380.275C980.179 378.897 979.49 378.996 975.356 381.358C972.6 382.933 969.253 383.917 966.89 383.917C962.756 383.917 948.188 388.642 947.499 390.118C946.514 392.481 940.805 397.993 937.459 399.765C935.293 400.848 928.895 403.211 923.087 405.081C910.389 409.215 902.613 414.235 889.915 426.244C882.04 433.725 853.888 464.731 853.888 466.011C853.888 466.208 855.562 466.011 857.53 465.42C863.436 463.846 869.047 459.121 880.17 446.62C886.962 439.04 893.655 432.642 899.561 428.311C910.685 420.043 939.624 402.62 942.184 402.62C943.168 402.62 946.909 401.044 950.55 399.174C954.094 397.206 960.492 394.843 964.627 393.761C968.761 392.678 974.765 390.217 978.013 388.248C983.722 384.705 983.919 384.606 991.696 385.197C996.125 385.492 1000.16 386.181 1000.85 386.674C1001.54 387.264 1005.57 387.658 1009.91 387.756C1016.01 387.756 1020.24 388.544 1029.1 391.299C1035.3 393.17 1042.49 394.745 1044.95 394.745C1047.8 394.745 1049.97 395.336 1050.76 396.221C1052.43 398.289 1060.21 402.62 1062.17 402.62C1063.06 402.62 1066.41 404.392 1069.66 406.557C1072.9 408.722 1076.35 410.494 1077.23 410.494C1078.12 410.494 1079.7 411.774 1080.58 413.349C1082.45 416.597 1085.8 418.172 1087.47 416.499C1089.24 414.727 1086.78 411.184 1079.2 404.49C1075.27 401.044 1069.85 395.926 1067.19 393.268C1064.54 390.513 1062.57 389.134 1062.96 390.02C1063.26 391.004 1063.85 392.58 1064.24 393.466C1064.83 395.138 1064.73 395.138 1062.86 393.466C1061.78 392.58 1060.4 391.792 1059.81 391.792C1059.22 391.792 1057.45 390.709 1055.87 389.331C1054.2 387.855 1050.66 386.476 1047.61 385.886C1044.75 385.295 1038.16 383.622 1033.04 382.047C1017.09 377.125 1011.87 376.043 1003.9 376.043C997.405 376.043 995.141 376.534 990.219 378.897Z" fill="black" fill-opacity="0.9"/>
<path d="M933.816 388.347C916.788 391.497 911.177 394.056 900.054 403.604C895.723 407.345 889.03 412.07 885.289 414.038C875.051 419.452 859.597 436.973 849.656 454.494C846.506 460.007 845.029 461.68 843.553 461.483C842.175 461.286 841.486 461.877 841.289 463.353C840.698 467.192 844.045 466.011 852.707 459.416C855.66 457.251 863.929 448.49 871.114 440.123C884.009 424.964 891.588 417.976 902.121 411.282C911.374 405.376 925.253 398.879 931.553 397.403C937.951 395.926 940.806 393.957 943.07 389.627C944.743 386.378 944.842 386.378 933.816 388.347Z" fill="black" fill-opacity="0.9"/>
<path d="M862.058 392.285C861.763 393.17 861.763 394.056 862.058 394.352C862.944 395.238 864.716 393.761 864.716 392.186C864.716 390.316 862.846 390.414 862.058 392.285Z" fill="black" fill-opacity="0.9"/>
<path d="M978.407 395.237C933.423 409.313 910.587 423.291 871.607 460.4C863.043 468.571 860.483 470.539 858.023 470.539C855.463 470.539 854.873 471.13 852.51 476.347C851.132 479.497 849.951 482.745 849.951 483.434C849.951 484.419 849.557 484.32 848.376 483.139C846.9 481.761 846.112 482.154 838.336 487.667C832.922 491.506 828.985 495.148 827.41 497.805C826.032 500.07 824.161 502.235 823.275 502.53C822.488 502.826 820.815 504.794 819.535 506.96C818.354 509.125 816.582 511.389 815.696 512.078C814.613 512.964 813.924 515.031 813.727 517.984C813.629 520.642 813.727 522.709 814.023 522.709C814.219 522.709 817.665 520.15 821.504 517C826.13 513.358 829.28 510.011 830.363 507.452C831.347 505.286 832.233 504.105 832.233 504.696C832.233 505.385 832.528 505.976 833.02 505.976C833.414 505.976 839.222 500.561 846.014 493.868C852.806 487.273 866.094 474.969 875.544 466.701C884.994 458.333 897.889 446.816 904.09 441.107C911.866 433.823 916.886 430.083 919.937 428.902C922.497 427.917 929.781 423.98 936.179 420.141C958.13 407.05 968.072 403.801 989.728 402.915C1007.05 402.226 1021.92 404.687 1042.29 411.577C1059.62 417.385 1062.37 418.763 1063.45 421.617C1064.04 423.094 1065.13 423.783 1067.29 423.882C1069.26 423.98 1072.31 425.654 1076.05 428.607C1081.47 432.839 1085.41 434.217 1086.59 432.347C1087.47 430.969 1077.43 418.566 1072.51 415.023C1066.11 410.298 1061.39 408.427 1055.58 408.329C1050.95 408.231 1050.76 408.034 1050.76 405.474C1050.76 402.816 1050.56 402.718 1047.61 403.309C1045.83 403.702 1043.28 403.998 1041.9 404.097C1039.73 404.097 1039.44 403.702 1039.44 400.356C1039.44 398.387 1039.14 396.714 1038.75 396.714C1038.26 396.714 1037.96 397.305 1037.96 398.092C1037.96 400.946 1035.79 400.749 1026.84 397.009C1018.37 393.466 1017.09 393.269 1007.45 393.17C1001.44 393.17 996.224 392.678 994.944 391.989C992.385 390.513 994.649 390.118 978.407 395.237Z" fill="black" fill-opacity="0.9"/>
<path d="M852.806 399.568C849.656 402.816 848.77 405.769 851.723 403.506C855.266 400.848 857.826 398.289 857.826 397.501C857.826 395.926 855.66 396.812 852.806 399.568Z" fill="black" fill-opacity="0.9"/>
<path d="M995.141 408.231C992.976 408.427 984.313 409.51 976.045 410.593C961.772 412.463 960.591 412.758 957.342 415.613C953.504 419.058 950.157 420.534 942.774 422.306C936.081 423.783 929.584 427.819 916.394 438.45C910.488 443.175 903.105 448.392 900.152 449.868C896.806 451.541 892.868 454.789 889.718 458.432C881.843 467.487 868.752 480.383 848.573 499.085L830.067 516.311L830.658 521.922C831.249 528.123 829.772 530.682 828.689 525.17C828.394 523.3 827.803 521.725 827.41 521.725C826.327 521.823 823.866 524.185 820.618 528.32C818.747 530.781 816.483 532.553 815.401 532.553C813.727 532.553 813.53 533.045 814.121 535.899C814.908 540.329 813.727 542.396 811.955 539.935C810.676 538.262 810.479 538.36 809.101 541.707C807.329 545.94 807.132 554.799 808.806 555.783C810.184 556.669 814.613 551.353 814.318 549.286C814.121 548.499 813.038 547.711 811.759 547.514C807.132 546.826 810.184 544.365 815.597 544.365C820.027 544.365 822.882 540.821 823.768 534.521C824.457 529.993 824.653 529.501 825.441 531.273C825.835 532.553 826.819 533.537 827.606 533.537C828.295 533.537 831.938 529.698 835.678 524.875C839.419 520.15 848.671 510.011 856.251 502.333C866.389 491.801 869.736 487.863 869.342 486.486C868.949 484.91 869.736 484.32 872.984 483.336C876.233 482.45 879.481 479.595 889.325 469.456C896.117 462.467 902.416 456.758 903.302 456.758C905.074 456.758 911.078 451.345 914.819 446.423C916.197 444.553 917.181 443.863 917.477 444.651C918.363 446.62 919.544 446.226 924.957 441.895C931.553 436.776 938.837 433.036 954.291 427.228C961.083 424.669 969.352 421.224 972.501 419.747C978.211 416.991 978.801 416.893 994.157 416.893H1009.91L1025.16 422.602C1034.81 426.244 1042.98 428.607 1047.31 429.197C1056.47 430.279 1056.76 430.378 1061.98 437.071C1066.41 442.682 1070.44 445.143 1079.5 447.407C1082.85 448.293 1084.52 449.868 1087.47 454.494C1090.13 458.628 1092.1 459.909 1092.1 457.447C1092.1 454.494 1084.22 443.174 1078.22 437.662C1069.75 429.788 1060.3 425.161 1044.16 420.732C1043.47 420.534 1042.88 419.353 1042.88 417.976C1042.88 416.597 1042.49 415.219 1041.9 414.924C1041.41 414.628 1040.91 415.023 1040.91 415.81C1040.91 418.467 1039.14 418.467 1034.81 415.613C1025.06 409.117 1011.88 406.655 995.141 408.231Z" fill="black" fill-opacity="0.9"/>
<path d="M993.271 422.11C991.105 424.57 989.629 424.964 973.486 426.736C955.964 428.606 952.322 429.886 942.971 437.564C938.64 441.107 932.045 445.537 928.206 447.604C911.374 456.365 891.884 471.917 881.155 485.304C877.513 489.832 873.28 494.065 871.705 494.754C870.13 495.443 867.669 497.608 866.094 499.577C860.385 506.96 856.743 510.7 854.577 511.291C853.003 511.684 851.132 514.44 847.687 521.232C845.128 526.351 843.061 531.273 843.061 532.06C843.061 534.029 842.076 533.93 840.403 531.765C839.123 530.19 839.025 530.19 837.548 532.06C836.761 533.143 834.792 536.096 833.217 538.655C831.15 541.903 829.674 543.38 828.197 543.38C826.228 543.38 826.13 543.675 826.721 548.204C827.114 551.157 826.917 553.322 826.327 553.716C825.835 554.011 825.343 553.42 825.343 552.338C825.343 550.369 823.669 548.597 822.783 549.581C822.488 549.877 822.586 552.633 822.98 555.783L823.669 561.393L829.083 555.586C832.135 552.436 837.844 546.333 841.781 542.199C846.014 537.769 848.967 533.832 848.967 532.651C848.967 531.273 849.557 530.584 850.935 530.584C852.313 530.584 853.888 529.009 855.857 525.859C857.432 523.299 860.385 519.461 862.452 517.295C864.52 515.13 867.964 510.601 870.13 507.255C872.591 503.514 875.249 500.66 877.218 499.675C879.285 498.691 880.662 497.215 881.056 495.443C881.352 493.966 881.647 492.392 881.745 491.997C882.238 490.127 911.669 465.716 921.316 459.219C938.443 447.801 966.005 434.808 982.345 430.674C992.877 428.016 1007.05 429.098 1020.73 433.627C1028.41 436.185 1045.83 444.946 1062.57 454.789C1078.02 463.846 1089.93 470.047 1090.72 469.358C1090.92 469.161 1089.93 467.291 1088.55 465.224C1086.98 462.96 1081.86 458.825 1074.97 454.298C1068.87 450.262 1062.67 445.439 1061.19 443.568C1059.42 441.205 1057.25 439.729 1054.6 439.04C1052.43 438.45 1044.36 435.299 1036.78 432.051C1019.55 424.866 1009.41 421.617 1001.34 420.731C995.83 420.239 994.944 420.338 993.271 422.11Z" fill="black" fill-opacity="0.9"/>
<path d="M978.407 437.662C961.378 441.403 944.742 448.982 926.138 461.581C909.306 472.902 901.333 480.383 882.631 502.53C865.601 522.709 864.027 524.383 860.385 526.154C857.53 527.533 852.51 535.309 850.837 540.92C849.951 544.07 848.769 545.841 847.293 546.432C846.112 546.826 843.946 549.09 842.568 551.353C840.206 554.996 840.107 555.488 841.485 557.063C842.371 558.047 843.06 559.326 843.06 559.917C843.06 561.788 845.521 561.295 847.687 558.835C848.769 557.654 850.64 554.897 851.722 552.732C852.805 550.566 855.069 547.81 856.743 546.53C858.416 545.349 860.68 542.494 861.861 540.132C863.043 537.868 867.177 532.651 871.016 528.615C874.855 524.58 880.859 517 884.304 511.882C891.194 501.546 894.738 498.003 916.393 479.694C924.564 472.803 933.127 465.42 935.588 463.157C939.329 459.81 941.101 458.924 946.711 457.94C950.452 457.251 957.539 454.888 962.46 452.722C989.038 441.009 994.255 440.32 1011.38 446.226C1017.09 448.097 1023.29 449.967 1025.26 450.262C1027.13 450.655 1033.04 453.707 1038.25 457.152C1047.61 463.353 1053.32 466.306 1054.2 465.42C1054.5 465.224 1054.99 463.55 1055.28 461.877C1055.78 459.416 1055.58 458.628 1054.1 458.038C1053.02 457.546 1049.18 455.184 1045.34 452.722C1036.68 447.013 1026.44 441.796 1018.27 439.04C1009.71 436.087 988.644 435.399 978.407 437.662Z" fill="black" fill-opacity="0.9"/>
<path d="M978.211 448.785C976.439 449.966 974.962 451.246 974.962 451.738C974.962 452.821 980.573 453.608 988.447 453.707C994.058 453.707 998.98 455.774 1000.46 458.628C1001.24 460.105 1003.02 460.499 1008.92 460.892C1015.32 461.286 1017.68 462.074 1025.46 465.913C1036.48 471.425 1045.93 479.497 1065.42 499.971C1073.2 508.239 1079.7 514.736 1079.99 514.44C1080.68 513.752 1075.66 504.302 1069.95 495.64C1062.86 484.714 1057.45 479.004 1051.64 476.15C1048.98 474.772 1045.34 471.917 1043.77 469.949C1036.48 460.794 1029.59 457.546 1003.02 450.754C986.971 446.718 982.246 446.325 978.211 448.785Z" fill="black" fill-opacity="0.9"/>
<path d="M842.076 453.805C841.289 455.38 841.289 455.774 842.47 455.774C844.045 455.774 845.325 453.117 844.045 452.329C843.553 452.034 842.667 452.722 842.076 453.805Z" fill="black" fill-opacity="0.9"/>
<path d="M961.181 457.251C958.523 459.416 956.358 460.499 955.275 460.204C951.239 458.924 939.329 466.405 924.957 479.3C919.741 483.926 910.783 491.702 905.172 496.526C894.049 506.271 888.143 512.866 883.32 521.528C881.548 524.58 877.808 529.6 875.051 532.651C872.295 535.702 867.866 541.412 865.208 545.447C862.648 549.483 860.385 552.929 860.188 553.125C859.991 553.322 859.204 553.027 858.514 552.338C856.841 551.058 855.463 552.83 852.116 560.409C849.065 567.3 846.112 571.04 842.47 572.517C840.501 573.403 839.123 574.584 839.123 575.667C839.123 578.325 835.481 583.64 832.823 584.92C831.445 585.51 830.264 586.888 830.067 587.971C829.87 589.054 828.492 590.727 826.819 591.613C824.555 592.893 823.767 594.074 823.373 597.125C822.98 599.98 822.684 600.571 822.094 599.192C821.011 596.338 819.141 597.815 817.861 602.539C817.271 605.197 816.286 606.772 815.499 606.575C814.711 606.378 814.514 606.87 815.007 608.051C815.4 609.036 815.991 610.611 816.188 611.497C817.074 614.45 819.436 613.466 821.11 609.528C822.98 604.902 822.98 604.902 824.948 606.477C826.72 607.953 826.228 608.445 832.331 599.685C834.004 597.322 836.859 594.566 838.631 593.385C840.796 592.204 843.159 589.349 845.029 585.805C846.702 582.754 850.049 577.832 852.412 574.879C854.872 571.926 858.711 566.414 860.976 562.575C863.239 558.835 866.586 553.815 868.358 551.452C870.13 549.09 871.606 546.038 871.606 544.66C871.606 543.085 872.886 541.018 875.248 538.852C877.217 536.982 879.185 535.506 879.58 535.506C879.973 535.506 884.403 530.486 889.325 524.383C898.872 512.768 903.794 507.846 908.224 505.483C909.996 504.499 911.472 502.333 912.653 499.085C914.228 494.655 915.902 492.588 915.902 495.148C915.902 497.215 917.87 495.935 923.973 489.93C927.91 486.092 933.226 482.154 938.443 479.399C943.07 476.937 950.353 472.409 954.684 469.259L962.559 463.55L974.962 463.846C986.38 464.043 987.561 463.944 991.499 461.68C996.125 459.023 996.716 457.743 993.369 457.743C992.09 457.743 986.872 456.857 981.754 455.774C968.367 453.018 966.103 453.117 961.181 457.251Z" fill="black" fill-opacity="0.9"/>
<path d="M818.156 459.318C817.074 461.286 816.385 466.503 817.074 468.964C818.058 472.902 820.42 470.342 820.42 465.224C820.42 461.188 819.141 457.841 818.156 459.318Z" fill="black" fill-opacity="0.9"/>
<path d="M835.284 461.09C834.497 461.976 834.201 462.96 834.595 463.353C835.481 464.239 837.45 462.074 836.957 460.696C836.761 459.909 836.17 460.007 835.284 461.09Z" fill="black" fill-opacity="0.9"/>
<path d="M1055.19 465.815C1054.69 468.866 1055.28 469.752 1064.73 479.595C1075.07 490.325 1078.42 492.293 1082.16 490.226C1085.01 488.749 1084.81 488.061 1080.88 485.895C1079.01 484.91 1074.48 480.383 1070.94 475.855C1064.54 467.783 1059.12 462.665 1056.86 462.665C1056.27 462.665 1055.48 464.141 1055.19 465.815Z" fill="black" fill-opacity="0.9"/>
<path d="M826.425 467.389C825.047 469.949 825.736 471.524 827.409 469.85C828 469.259 828.295 467.98 828.098 466.996C827.803 465.322 827.606 465.322 826.425 467.389Z" fill="black" fill-opacity="0.9"/>
<path d="M996.125 466.208C995.043 466.405 988.644 466.996 981.852 467.487C966.792 468.768 962.756 469.949 957.933 474.772C955.177 477.528 953.799 478.315 952.913 477.528C952.027 476.741 950.058 478.02 945.432 482.351C941.987 485.501 938.837 487.962 938.345 487.667C937.951 487.372 935.588 488.06 933.128 489.143C927.419 491.702 902.711 516.508 890.506 531.863C885.781 537.868 878.694 546.628 874.855 551.353C870.917 556.177 867.669 560.311 867.669 560.607C867.669 560.902 866.094 564.445 864.224 568.58C862.353 572.615 860.779 576.651 860.779 577.439C860.779 578.521 860.188 578.718 858.81 578.325C857.432 577.93 856.644 578.226 856.152 579.506C855.857 580.49 853.888 583.541 851.821 586.298C849.656 589.054 847.687 592.597 847.392 594.271C846.998 596.239 845.817 597.716 843.553 598.897C841.682 599.882 836.662 604.607 832.331 609.331C828 614.056 822.882 618.682 820.814 619.667C817.271 621.34 817.271 621.439 817.861 625.868C818.157 628.329 818.747 630.593 819.043 630.888C820.519 632.365 825.145 627.935 827.902 622.325C830.067 617.993 831.15 616.517 831.544 617.6C831.937 618.486 833.119 619.175 834.3 619.175C836.269 619.175 836.367 618.781 835.776 615.138C835.284 612.284 835.481 611.3 836.269 611.89C837.351 612.58 846.998 603.031 846.998 601.259C846.998 600.768 847.392 600.57 847.884 600.964C849.557 601.949 855.168 595.255 859.991 586.593C865.701 576.553 866.882 575.076 872.788 571.04C877.414 567.989 879.973 563.264 881.942 554.405C882.336 552.633 884.305 549.188 886.47 546.727C888.537 544.266 890.309 541.412 890.309 540.427C890.309 539.148 891.687 537.769 894.148 536.49C896.608 535.309 901.038 530.879 906.255 524.481C916.098 512.373 922.497 506.862 946.416 489.93C963.15 478.02 964.922 477.036 968.564 477.232C970.729 477.331 976.242 476.741 980.769 475.855C985.298 475.067 990.711 474.674 992.68 474.969C995.929 475.56 996.42 475.362 997.11 473.295C997.701 471.425 997.897 471.326 998.291 472.705C998.882 475.067 1002.03 475.855 1009.12 475.56C1016.8 475.264 1021.52 477.232 1032.25 485.305C1036.58 488.651 1041.31 491.506 1042.78 491.801C1044.75 492.195 1046.23 493.966 1048.98 498.987C1054.4 508.929 1063.65 520.741 1072.12 528.517C1076.25 532.356 1079.79 535.309 1080.09 535.112C1080.29 534.816 1079.7 532.356 1078.81 529.501C1077.43 525.564 1075.27 522.414 1069.36 516.311C1065.03 511.882 1061.58 507.452 1061.58 506.566C1061.58 503.514 1056.86 497.51 1048.69 490.128C1027.13 470.736 1011.48 463.55 996.125 466.208Z" fill="black" fill-opacity="0.9"/>
<path d="M1072.9 468.669C1075.17 475.855 1080.98 481.859 1084.91 481.071C1086.68 480.776 1087.18 481.071 1087.18 482.548C1087.18 485.009 1088.95 488.258 1090.33 488.258C1091.8 488.258 1090.52 482.745 1088.06 478.709C1086.88 476.937 1083.53 473.689 1080.38 471.622C1071.92 465.913 1072.12 466.011 1072.9 468.669Z" fill="black" fill-opacity="0.9"/>
<path d="M810.577 469.259C810.675 470.638 813.53 473.886 814.121 473.295C815.105 472.212 813.432 468.571 811.955 468.571C811.168 468.571 810.577 468.866 810.577 469.259Z" fill="black" fill-opacity="0.9"/>
<path d="M834.398 469.752C833.709 470.44 833.217 472.311 833.217 474.083C833.217 476.741 832.922 477.134 831.347 476.741C830.363 476.445 829.181 476.741 828.886 477.331C828.492 477.922 827.311 478.414 826.13 478.414C824.457 478.414 824.26 478.808 824.85 480.58C825.244 481.859 825.539 483.828 825.539 485.009C825.539 486.289 825.835 487.273 826.228 487.273C827.311 487.273 830.756 483.237 832.233 480.481C833.119 478.808 833.611 478.512 834.202 479.398C834.792 480.284 835.383 480.284 837.155 479.398C839.025 478.414 839.222 477.725 838.631 475.165C838.237 473.393 837.844 471.228 837.844 470.244C837.745 468.275 836.072 468.078 834.398 469.752Z" fill="black" fill-opacity="0.9"/>
<path d="M841.387 469.654C839.812 471.228 839.714 474.477 841.092 474.477C842.372 474.477 843.356 472.114 842.864 470.047C842.667 468.768 842.372 468.669 841.387 469.654Z" fill="black" fill-opacity="0.9"/>
<path d="M846.801 473.689C843.651 477.233 843.356 478.414 845.521 478.414C847.293 478.414 850.246 474.083 849.754 472.114C849.557 470.933 848.77 471.425 846.801 473.689Z" fill="black" fill-opacity="0.9"/>
<path d="M972.501 481.17C955.669 487.372 955.078 487.667 952.716 491.309C949.665 496.132 945.137 499.774 934.9 505.483C924.859 510.996 918.067 517 914.819 523.201C913.441 525.859 911.374 528.024 909.701 528.714C908.125 529.403 904.582 532.553 901.924 535.899C899.168 539.148 895.034 543.282 892.77 544.955C888.537 548.204 885.978 552.731 886.568 555.684C887.061 558.342 897.396 550.172 913.933 534.029C927.517 520.839 937.557 512.472 943.857 509.224C946.121 508.043 947.105 507.944 948.976 508.929C951.634 510.405 953.504 509.42 959.508 503.711C962.756 500.66 963.544 500.365 967.776 500.758C970.434 501.054 975.454 500.561 979.097 499.675C985.692 498.101 985.79 498.101 989.333 500.561C993.665 503.514 998.98 504.597 1002.13 503.121C1005.48 501.644 1005.08 498.691 1001.34 495.836C994.649 490.915 988.94 490.226 974.963 492.687C970.336 493.474 964.135 494.163 961.182 494.163C956.063 494.163 955.964 494.065 958.031 492.588C965.119 487.667 983.723 484.714 989.531 487.667C993.271 489.635 995.043 489.635 996.913 487.863C998.192 486.584 998.685 486.879 1001.44 490.226C1003.31 492.49 1007.05 495.246 1010.89 497.215C1014.43 498.888 1017.29 500.955 1017.29 501.742C1017.29 502.628 1018.37 504.499 1019.75 506.172C1021.13 507.747 1022.21 509.617 1022.21 510.405C1022.21 511.094 1024.47 513.161 1027.23 514.933C1034.02 519.264 1040.13 526.843 1049.77 543.085C1054.3 550.566 1060.21 559.721 1063.06 563.559C1065.92 567.299 1068.87 572.419 1069.56 574.781C1070.35 577.537 1072.51 580.785 1075.07 583.345C1078.12 586.396 1081.37 591.908 1086.68 603.031C1090.82 611.497 1094.36 618.19 1094.66 617.895C1095.54 617.009 1092.98 605.098 1091.02 600.472C1089.93 598.011 1087.87 594.763 1086.39 593.286C1084.42 591.219 1083.83 589.742 1084.03 587.282C1084.42 583.64 1082.94 581.966 1080.88 583.64C1079.79 584.526 1079.4 584.132 1079.01 581.573C1077.53 573.107 1076.74 571.237 1072.31 565.429C1069.66 561.886 1062.47 551.452 1056.27 542.101C1050.07 532.848 1040.62 520.051 1035.3 513.752C1029.89 507.452 1024.47 500.955 1023.29 499.282C1021.72 497.018 1020.34 496.132 1018.37 496.132C1016.21 496.132 1014.14 494.557 1009.02 489.143C1003.9 483.631 1002.03 482.252 1000.36 482.647C998.98 483.04 997.799 482.548 996.618 481.071C995.141 479.299 993.665 478.906 987.661 478.611C981.557 478.414 979.097 478.808 972.501 481.17Z" fill="black" fill-opacity="0.9"/>
<path d="M1007.54 480.481C1004.79 481.564 1004.89 481.761 1012.27 486.682C1015.12 488.651 1018.67 490.226 1020.14 490.226C1022.11 490.226 1023.19 491.112 1024.97 494.164C1026.15 496.329 1029.69 499.873 1032.84 502.137C1035.89 504.302 1039.53 507.452 1040.91 508.929C1042.98 511.291 1043.67 511.488 1045.05 510.503C1048.79 507.748 1042.98 498.101 1037.57 498.101C1036.29 498.101 1034.42 496.624 1032.74 494.164C1026.05 484.714 1013.65 478.02 1007.54 480.481Z" fill="black" fill-opacity="0.9"/>
<path d="M817.959 484.91C817.664 487.372 816.68 491.21 815.892 493.376C815.105 495.64 814.613 497.608 814.81 497.707C815.006 497.904 816.385 497.51 817.861 496.821C819.928 495.935 820.322 495.148 819.928 493.376C819.534 491.997 820.125 490.423 821.405 489.044C822.684 487.568 823.078 486.584 822.389 485.895C821.897 485.403 821.405 483.926 821.405 482.647C821.405 478.414 818.747 480.185 817.959 484.91Z" fill="black" fill-opacity="0.9"/>
<path d="M812.251 488.06C809.101 491.506 807.427 499.282 809.593 500.561C810.676 501.251 811.463 499.38 813.924 491.407C815.4 486.092 814.908 485.009 812.251 488.06Z" fill="black" fill-opacity="0.9"/>
<path d="M1077.33 495.049C1077.33 498.199 1097.02 518.279 1097.81 515.819C1098 515.326 1096.53 511.783 1094.56 507.944C1090.13 499.675 1084.52 494.164 1080.29 494.164C1078.61 494.164 1077.33 494.557 1077.33 495.049Z" fill="black" fill-opacity="0.9"/>
<path d="M1006.66 504.696C1006.86 506.369 1007.54 507.452 1008.43 507.452C1009.32 507.452 1010 506.369 1010.2 504.696C1010.5 502.53 1010.1 502.038 1008.43 502.038C1006.76 502.038 1006.36 502.53 1006.66 504.696Z" fill="black" fill-opacity="0.9"/>
<path d="M969.056 505.385C967.087 506.172 963.15 507.944 960.197 509.42C957.244 510.897 952.224 512.768 948.976 513.555C941.494 515.228 939.624 516.607 923.776 531.962L910.487 544.857L909.503 551.944C908.913 555.882 908.815 559.13 909.208 559.13C909.602 559.13 911.964 556.571 914.622 553.519C924.662 541.608 931.06 535.702 935.096 534.62C937.852 533.93 939.624 532.651 940.904 530.486C943.168 526.745 947.991 523.694 951.83 523.694C954.094 523.694 955.866 522.611 958.622 519.855C971.91 506.271 994.058 509.125 1022.41 528.024C1029.89 532.946 1030.87 534.128 1033.83 540.034C1035.6 543.577 1041.7 554.208 1047.31 563.658C1060.4 585.51 1060.7 586.003 1060.5 590.333C1060.4 592.4 1061.49 597.125 1062.86 600.964C1066.51 611.004 1070.44 624.687 1071.53 631.282C1072.61 638.074 1073.89 640.83 1076.05 640.83C1078.91 640.83 1076.84 630.298 1071.33 616.024C1067 604.902 1066.11 601.654 1065.72 594.566C1065.32 586.298 1065.23 586.003 1055.58 567.004C1041.41 538.754 1033.53 527.237 1022.41 518.575C1017.09 514.342 1016.5 514.047 1015.02 515.524C1013.55 517 1013.15 516.705 1009.22 512.866C1005.18 508.83 1004.69 508.535 999.078 508.436C995.436 508.239 991.499 507.452 988.742 506.172C983.624 503.712 974.568 503.416 969.056 505.385Z" fill="black" fill-opacity="0.9"/>
<path d="M1011.38 506.271C1011.38 508.436 1014.04 511.882 1015.62 511.882C1016.8 511.882 1016.4 506.467 1015.12 505.188C1013.25 503.318 1011.38 503.81 1011.38 506.271Z" fill="black" fill-opacity="0.9"/>
<path d="M1046.52 510.602C1044.65 512.373 1045.93 517.591 1048.89 520.347C1050.56 521.922 1053.02 525.071 1054.4 527.336C1055.68 529.698 1058.14 532.651 1059.71 533.93C1061.29 535.309 1062.57 537.081 1062.57 537.966C1062.57 541.707 1066.41 547.023 1071.13 549.483C1075.27 551.747 1076.15 552.83 1077.73 557.358C1080.98 566.513 1085.11 573.895 1087.67 575.076C1091.11 576.651 1091.61 575.568 1089.83 570.745C1086.98 563.362 1079.79 552.043 1067.29 535.407C1060.7 526.548 1054.1 517.098 1052.72 514.539C1050.46 510.306 1048.2 508.83 1046.52 510.602Z" fill="black" fill-opacity="0.9"/>
<path d="M808.313 516.508C807.92 516.803 807.624 518.083 807.624 519.362C807.624 521.036 808.018 521.429 809.593 521.036C810.873 520.741 811.562 519.658 811.562 518.181C811.562 515.917 809.692 515.031 808.313 516.508Z" fill="black" fill-opacity="0.9"/>
<path d="M968.269 516.507C965.906 517 959.213 522.808 959.213 524.382C959.213 524.973 961.477 525.17 964.627 524.875C967.875 524.58 973.486 525.17 978.506 526.154C985.396 527.631 987.562 527.729 990.219 526.843C994.255 525.268 996.421 526.056 1006.07 532.651C1010.2 535.407 1014.93 538.262 1016.8 539.049C1019.16 540.033 1020.93 542.002 1023.49 546.53C1025.36 549.976 1030.48 558.835 1034.81 566.315C1039.14 573.796 1044.36 584.329 1046.43 589.742C1049.18 596.929 1050.56 599.487 1051.84 599.487C1053.22 599.487 1054.1 601.653 1056.17 611.004C1062.57 638.96 1064.73 647.72 1067.19 655.103C1069.85 663.273 1073.99 672.329 1075.07 672.329C1076.35 672.329 1074.18 662.682 1071.43 656.678C1069.66 652.544 1067.69 645.161 1066.01 636.302C1062.47 616.123 1057.35 599.487 1054.79 599.487C1054.3 599.487 1053.71 597.125 1053.51 594.271C1052.82 587.085 1044.16 568.087 1041.21 567.398C1039.93 567.004 1039.14 566.414 1039.44 566.02C1040.42 564.346 1036.98 555.98 1032.64 549.385C1026.94 540.821 1015.32 529.205 1008.13 524.875C1005.18 523.103 1000.06 520.642 996.716 519.559C991.204 517.689 990.121 517.59 985.396 518.772C980.376 519.953 979.884 519.855 977.423 517.886C974.765 515.917 972.994 515.622 968.269 516.507Z" fill="black" fill-opacity="0.9"/>
<path d="M1081.27 517.591C1081.27 520.347 1084.13 523.694 1086.59 523.694C1088.55 523.694 1088.95 524.285 1089.44 527.828C1089.83 530.584 1090.92 532.848 1092.98 534.915C1096.53 538.459 1096.82 537.474 1094.56 529.698C1092.1 521.627 1081.27 511.685 1081.27 517.591Z" fill="black" fill-opacity="0.9"/>
<path d="M807.919 526.253C806.443 528.517 806.148 528.615 805.065 527.237C804.081 525.761 803.884 525.859 803.293 528.024C802.702 530.584 803.392 533.537 804.671 533.537C806.148 533.537 810.577 527.533 810.577 525.564C810.577 523.004 809.987 523.201 807.919 526.253Z" fill="black" fill-opacity="0.9"/>
<path d="M989.727 530.682C989.727 532.946 1000.46 542.593 1006.95 546.038C1012.96 549.385 1013.84 550.172 1014.63 553.421C1015.12 555.488 1017.19 559.031 1019.36 561.394C1025.56 568.58 1035.79 595.353 1040.52 617.206C1041.41 621.242 1042.39 632.07 1042.78 641.322C1043.57 657.859 1043.57 658.155 1047.51 667.899C1050.76 675.774 1052.13 681.483 1054.59 696.15C1057.55 713.179 1060.01 723.514 1061.29 723.514C1061.68 723.514 1061.58 719.184 1061.29 713.769C1060.6 704.025 1058.43 692.212 1054.69 677.842C1053.61 673.51 1052.72 668.49 1052.72 666.521C1052.63 664.553 1051.84 661.206 1050.76 659.04C1049.57 656.58 1048.79 652.937 1048.79 649.197C1048.79 645.457 1048 641.716 1046.72 638.862C1045.34 635.81 1044.85 633.349 1045.24 630.889C1045.64 628.723 1045.24 625.868 1044.46 623.899C1043.28 621.144 1043.18 619.076 1043.96 613.466C1045.15 604.902 1043.96 599.094 1038.16 586.101C1035.99 581.278 1033.73 575.568 1033.04 573.403C1029.69 562.87 1020.24 549.779 1008.72 539.936C1000.16 532.553 989.727 527.533 989.727 530.682Z" fill="black" fill-opacity="0.9"/>
<path d="M946.908 533.537C935.096 538.262 919.445 553.815 910.291 569.761C907.731 574.387 903.499 580.392 901.038 583.148C898.577 585.904 893.95 591.514 890.702 595.55C887.553 599.586 883.221 604.607 881.154 606.674C877.709 610.02 877.512 610.611 878.103 614.056C878.89 618.584 879.284 619.175 881.056 619.175C882.04 619.175 882.434 617.796 882.434 613.466L882.533 607.855L884.107 610.808L885.682 613.662L887.257 611.3C888.143 609.922 892.179 604.705 896.313 599.488C900.447 594.369 904.975 588.07 906.452 585.608C907.929 583.05 909.897 580.785 910.98 580.49C911.964 580.195 914.326 577.93 916.098 575.273C917.87 572.714 920.823 568.678 922.595 566.316C924.465 563.756 925.745 560.902 925.745 559.13C925.745 556.472 925.942 556.275 928.6 556.768C932.635 557.654 934.801 556.078 939.427 548.893C943.758 542.199 946.514 540.427 948.877 542.396C950.058 543.38 950.452 543.282 950.944 541.805C952.519 536.884 953.601 534.521 954.291 534.521C955.964 534.521 956.161 539.443 954.684 542.888C953.897 544.857 953.405 546.727 953.601 546.924C953.799 547.121 955.373 546.727 957.047 546.137C960.295 544.857 961.083 542.691 959.114 540.722C958.425 540.034 958.228 538.852 958.622 537.967C959.114 536.687 960 536.392 962.559 536.883C965.118 537.376 966.004 537.179 966.496 535.899C967.58 533.144 965.512 532.159 958.425 531.863C953.601 531.667 950.452 532.06 946.908 533.537Z" fill="black" fill-opacity="0.9"/>
<path d="M968.072 534.915C968.072 538.852 970.139 540.033 975.356 539.049C977.325 538.655 979.195 538.95 980.376 539.836C982.246 541.215 982.345 541.313 980.573 544.266C978.506 547.711 979.097 551.55 981.655 551.058C982.541 550.861 983.624 549.286 984.215 547.514C984.707 545.841 985.494 544.365 985.987 544.365C986.479 544.365 989.924 547.219 993.665 550.763C997.405 554.306 1001.15 557.161 1001.83 557.161C1002.62 557.161 1005.08 560.902 1007.25 565.528C1009.51 570.154 1013.94 578.325 1017.29 583.64C1020.54 588.955 1023.19 594.369 1023.19 595.747C1023.19 597.125 1024.38 602.244 1025.75 606.969C1027.13 611.792 1028.9 618.19 1029.79 621.143C1030.87 625.179 1031.46 635.416 1032.05 661.304C1032.84 694.772 1032.84 696.248 1030.97 699.398C1029 702.745 1025.66 717.51 1026.74 718.494C1028.02 719.774 1030.97 714.36 1032.55 707.765C1033.53 703.631 1035.01 700.284 1036.09 699.595C1037.66 698.413 1037.96 696.248 1038.55 681.581C1040.72 625.08 1027.62 574.682 1004.3 549.68C998.685 543.675 995.535 542.101 994.058 544.463C993.763 545.054 992.188 543.38 990.613 540.624C987.07 534.423 981.754 531.568 973.682 531.568H968.072V534.915Z" fill="black" fill-opacity="0.9"/>
<path d="M1081.47 536.687C1079.79 538.36 1079.99 539.049 1082.65 541.707C1084.03 543.085 1086.39 546.727 1087.96 549.877C1089.54 553.125 1091.8 556.57 1092.98 557.555C1095.05 559.425 1095.05 559.425 1095.05 556.57C1095.05 553.322 1093.08 549.483 1088.46 543.38C1086.68 541.018 1085.21 538.36 1085.21 537.278C1085.21 535.309 1083.24 534.915 1081.47 536.687Z" fill="black" fill-opacity="0.9"/>
<path d="M963.15 542.888C961.279 545.152 962.756 547.514 965.807 547.121C967.973 546.924 968.662 546.235 968.859 544.07C969.154 541.805 968.859 541.412 966.792 541.412C965.413 541.412 963.839 542.101 963.15 542.888Z" fill="black" fill-opacity="0.9"/>
<path d="M972.206 544.856C970.533 548.499 970.729 549.286 973.387 549.286C976.537 549.286 977.423 547.711 975.848 544.758C974.273 541.805 973.584 541.805 972.206 544.856Z" fill="black" fill-opacity="0.9"/>
<path d="M944.251 546.432C942.479 547.416 941.692 554.208 943.266 554.208C945.531 554.208 948.385 550.861 948.385 548.204C948.385 545.251 947.204 544.66 944.251 546.432Z" fill="black" fill-opacity="0.9"/>
<path d="M800.734 550.664C800.734 552.534 800.34 554.405 799.749 554.7C798.568 555.389 798.47 559.819 799.553 560.508C800.734 561.197 806.64 557.456 806.64 556.078C806.64 555.389 806.148 553.224 805.459 551.157C804.671 548.499 803.785 547.318 802.506 547.318C801.128 547.318 800.734 548.105 800.734 550.664Z" fill="black" fill-opacity="0.9"/>
<path d="M900.94 551.255C897.003 553.42 894.148 556.964 892.474 561.788C891.195 565.627 891.588 565.725 896.215 562.969C902.023 559.425 908.027 552.83 908.027 549.779C908.027 548.695 904.483 549.483 900.94 551.255Z" fill="black" fill-opacity="0.9"/>
<path d="M957.244 549.976C951.732 550.271 950.649 550.665 949.862 552.535C949.271 553.815 947.795 554.799 946.219 554.996C944.842 555.192 942.971 556.373 942.085 557.654C941.101 559.13 939.92 559.819 938.64 559.425C937.262 559.031 935.785 560.311 932.537 564.741C930.273 567.89 924.269 574.387 919.248 579.112C909.11 588.66 902.613 597.618 900.842 604.212C900.054 607.165 898.971 608.839 897.494 609.43C896.215 609.922 895.231 610.906 895.231 611.792C895.231 612.58 894.345 613.269 893.262 613.269C891.785 613.269 891.097 614.154 890.604 616.32C890.211 618.387 888.832 620.061 886.273 621.734C882.139 624.293 879.186 629.018 879.678 632.266C880.17 635.909 882.828 634.628 885.387 629.51C886.863 626.754 888.439 624.687 889.128 624.785C889.816 624.982 890.309 623.998 890.309 622.62C890.309 620.454 890.604 620.159 892.671 620.749C894.738 621.242 895.132 620.946 895.427 618.584C895.624 616.517 896.412 615.631 898.676 615.04C900.447 614.548 903.007 612.383 905.074 609.823C906.944 607.363 909.996 604.705 911.669 603.819C914.524 602.54 914.917 601.85 914.917 598.602C914.917 595.452 915.508 594.467 918.953 591.613C921.217 589.842 924.957 585.313 927.419 581.671C930.568 576.749 932.931 574.289 935.884 572.812C938.148 571.631 944.152 567.89 949.271 564.446C954.291 561 959.212 558.145 960.197 558.145C961.181 558.145 965.118 558.835 968.957 559.721C976.34 561.394 979.785 561.098 982.246 558.54C984.608 556.275 984.215 555.389 980.376 553.519C977.62 552.239 976.242 552.043 974.076 552.83C971.714 553.815 971.123 553.618 969.253 551.55C968.17 550.369 966.399 549.385 965.414 549.483C964.43 549.582 960.788 549.779 957.244 549.976Z" fill="black" fill-opacity="0.9"/>
<path d="M984.805 558.54C984.805 562.969 985.1 564.051 986.675 564.544C989.136 565.331 993.172 570.056 997.798 577.635C999.964 581.278 1002.92 584.624 1005.28 586.003C1008.92 588.365 1009.32 589.054 1012.17 599.192C1016.8 615.04 1019.06 625.769 1020.83 639.55C1022.7 653.725 1022.01 660.714 1017.88 670.852C1015.71 676.365 1014.83 679.81 1012.37 693C1011.58 697.331 1010.1 700.087 1005.38 706.289C1002.03 710.62 997.208 718.593 994.55 724.007C991.695 730.11 988.152 735.622 985.396 738.477C980.868 743.201 977.324 748.812 978.308 749.796C978.604 750.092 980.277 749.403 982.049 748.32C985.691 746.056 990.121 740.347 996.814 729.42C999.373 725.385 1002.52 720.956 1004 719.577C1007.05 716.722 1009.41 711.604 1009.41 707.962C1009.41 706.682 1010.5 704.615 1011.68 703.434C1014.53 700.776 1016.5 695.461 1019.26 682.96C1020.54 677.251 1022.11 672.427 1023.29 671.148L1025.26 668.884L1024.87 676.266C1024.57 680.4 1022.7 689.654 1020.63 697.134C1016.21 713.474 1017.19 716.624 1023 704.32C1027.13 695.56 1027.62 690.933 1027.33 661.6C1027.03 636.499 1026.84 632.759 1024.77 623.702C1023.49 618.289 1021.62 609.331 1020.63 603.917C1019.06 595.748 1018.17 593.188 1014.83 588.168C1012.56 584.92 1008.63 578.521 1005.97 573.895C999.57 562.575 996.912 559.327 991.794 555.98C985.494 552.043 984.805 552.239 984.805 558.54Z" fill="black" fill-opacity="0.9"/>
<path d="M817.664 554.897C816.975 555.192 814.908 558.441 813.038 562.083C810.38 567.399 809.298 568.678 807.821 568.285C806.64 567.989 805.656 568.678 804.868 570.352C804.277 571.729 804.081 572.91 804.573 572.91C805.065 572.91 805.754 573.993 806.049 575.372C806.837 578.62 807.723 578.423 809.79 574.879C810.774 573.206 812.94 571.139 814.613 570.155C816.286 569.269 818.747 567.595 820.027 566.513C822.094 564.642 822.192 564.249 821.11 559.327C820.519 556.571 819.83 554.208 819.535 554.306C819.141 554.306 818.353 554.602 817.664 554.897Z" fill="black" fill-opacity="0.9"/>
<path d="M836.269 559.326C835.777 560.705 835.284 561 834.792 560.311C833.611 558.244 831.249 560.311 825.244 568.58C821.996 573.107 818.452 577.34 817.369 577.832C815.204 579.013 815.007 581.08 816.582 585.608C817.763 588.856 819.437 589.546 821.307 587.282C822.094 586.396 822.094 585.215 821.504 583.443C820.322 580.392 821.011 579.506 823.472 581.08C826.032 582.655 828 581.278 831.839 575.47C835.777 569.564 839.123 566.02 840.797 566.02C841.486 566.02 842.076 565.134 842.076 563.953C842.076 559.13 837.647 555.586 836.269 559.326Z" fill="black" fill-opacity="0.9"/>
<path d="M902.318 562.969C900.152 564.642 895.624 569.761 892.278 574.584C888.832 579.309 883.812 585.904 881.056 589.152C878.201 592.4 874.756 596.633 873.378 598.503C870.523 602.244 866.291 612.185 867.177 613.071C867.472 613.367 868.752 613.071 870.031 612.481C871.607 611.792 872.886 609.823 873.969 606.575C875.347 602.539 876.43 601.161 880.268 598.799C883.419 596.83 887.749 592.204 893.951 584.132C898.872 577.734 904.581 570.647 906.55 568.481C908.42 566.414 909.799 564.051 909.503 563.264C909.208 562.575 909.011 561.492 909.011 561C909.011 559.326 906.353 560.114 902.318 562.969Z" fill="black" fill-opacity="0.9"/>
<path d="M927.222 563.658C926.336 565.036 925.843 566.414 926.139 566.709C926.926 567.595 930.667 564.051 930.667 562.378C930.667 560.311 929.092 560.902 927.222 563.658Z" fill="black" fill-opacity="0.9"/>
<path d="M882.336 566.118C880.466 568.383 877.316 572.024 875.248 574.191C873.28 576.356 870.721 579.899 869.54 582.164C868.457 584.329 866.685 587.774 865.701 589.644C864.618 591.514 863.732 594.074 863.732 595.353C863.732 597.322 864.224 597.618 866.488 597.322C868.949 597.027 869.145 596.732 868.85 593.286C868.654 590.137 868.85 589.644 870.721 589.644C873.575 589.644 877.414 585.215 880.859 578.128C883.025 573.501 884.108 572.32 885.387 572.615C887.749 573.206 890.506 568.973 890.112 565.331C889.62 560.803 886.273 561.197 882.336 566.118Z" fill="black" fill-opacity="0.9"/>
<path d="M959.212 567.004C956.063 568.087 952.716 570.056 951.141 571.828C949.074 574.19 947.597 574.879 944.94 574.879C940.215 574.879 934.506 580.195 930.568 588.168C928.107 593.286 927.221 594.172 925.45 593.877C923.58 593.483 922.595 594.664 919.15 600.669C916.886 604.705 914.13 608.741 913.145 609.627C911.57 611.004 911.373 612.284 911.768 616.024C912.555 623.899 913.244 623.998 917.87 617.305C920.134 613.859 924.761 608.051 928.009 604.212C931.356 600.373 936.868 593.877 940.313 589.743C944.251 584.919 947.4 582.065 949.172 581.573C950.649 581.278 952.815 580.588 953.996 580.293C955.768 579.702 956.161 579.998 956.456 582.36C956.653 583.836 957.342 585.313 958.13 585.51C959.114 585.805 959.311 585.412 958.917 583.836C957.638 578.915 962.756 569.957 966.89 569.957C968.071 569.957 968.268 571.533 967.973 579.013L967.58 588.168L970.828 588.07C973.387 587.873 973.977 588.266 973.977 589.94C973.977 591.023 975.356 594.074 977.128 596.732C979.195 600.078 980.278 603.228 980.671 606.674C980.868 609.528 981.951 614.352 983.132 617.501C985.002 622.816 985.002 623.899 983.919 631.282C981.36 648.705 975.848 665.734 968.761 678.432C965.118 684.929 963.544 686.701 959.902 688.571C958.819 689.063 955.177 693.492 951.929 698.414C947.794 704.517 944.742 707.863 942.282 709.242C939.132 710.915 938.541 711.702 938.541 714.557C938.541 717.51 938.345 717.805 936.179 717.215C934.013 716.722 933.816 716.919 933.325 722.235C932.734 728.043 933.226 730.503 934.309 726.664C934.702 724.893 935.588 724.499 938.443 724.499C942.774 724.4 946.219 721.644 952.815 712.687C955.472 709.143 960.295 703.434 963.642 699.89C971.32 691.819 973.387 688.078 980.868 669.868C985.691 658.056 986.971 653.823 987.266 648.705C987.463 645.161 988.251 640.534 989.038 638.369C992.68 628.231 991.794 606.772 987.365 596.929C984.707 591.121 979.293 584.722 974.47 581.769L971.221 579.801L973.091 575.863C974.174 573.698 975.159 571.926 975.356 571.926C975.749 571.926 987.956 592.893 990.514 598.011C994.649 606.279 996.027 613.268 995.929 625.081C995.83 642.306 991.696 658.154 982.738 676.758C976.635 689.456 971.123 697.725 963.051 706.289C958.425 711.211 956.358 714.164 955.866 716.722C955.373 719.577 954.586 720.463 951.83 721.546C949.96 722.333 948.385 723.318 948.385 723.909C948.385 724.499 946.416 726.96 944.054 729.42C939.821 733.654 939.132 735.228 939.427 739.953C939.624 743.595 942.282 742.611 943.07 738.674C943.561 736.114 944.349 734.933 946.318 734.244C954.685 731.192 963.839 722.826 970.138 712.293C972.206 708.946 974.174 706.781 975.258 706.781C978.506 706.781 992.385 675.282 997.11 657.071C1000.85 642.405 1001.83 633.054 1001.24 616.812C1000.65 600.472 998.487 587.479 995.534 581.474C992.976 576.651 986.577 569.662 982.049 566.808L978.604 564.642L977.128 566.808C975.356 569.466 974.47 569.466 972.009 567.004C969.548 564.544 966.201 564.544 959.212 567.004Z" fill="black" fill-opacity="0.9"/>
<path d="M962.362 574.781C960.492 575.962 961.279 579.211 963.544 579.604C966.004 580.097 967.382 578.423 966.595 575.962C965.906 573.796 964.528 573.403 962.362 574.781Z" fill="black" fill-opacity="0.9"/>
<path d="M797.092 576.553C794.336 577.045 794.237 579.506 796.797 582.655C798.667 584.821 798.864 584.92 801.226 583.345C803.589 581.769 804.77 576.848 802.801 576.848C802.309 576.848 801.325 576.651 800.537 576.454C799.848 576.258 798.273 576.356 797.092 576.553Z" fill="black" fill-opacity="0.9"/>
<path d="M1091.11 581.671C1091.11 584.427 1091.8 586.396 1093.57 588.365L1095.94 591.121L1096.04 587.38C1096.04 583.443 1093.67 577.832 1092.1 577.832C1091.51 577.832 1091.11 579.604 1091.11 581.671Z" fill="black" fill-opacity="0.9"/>
<path d="M810.774 584.919C808.215 587.479 809.987 595.55 813.136 595.55C814.318 595.55 814.514 594.467 814.318 589.94C814.022 584.329 812.94 582.754 810.774 584.919Z" fill="black" fill-opacity="0.9"/>
<path d="M946.712 587.774C945.137 589.349 945.038 591.81 946.613 593.385C948.286 595.058 946.712 596.043 944.152 594.862C941.889 593.779 941.396 594.369 934.998 603.228C918.165 626.754 899.168 648.705 893.36 651.461C888.537 653.725 885.387 658.745 885.387 664.06C885.387 666.423 885.879 668.588 886.47 668.883C886.962 669.278 889.128 668.392 891.195 667.013C893.164 665.635 895.329 664.454 896.018 664.454C897.593 664.454 899.07 661.206 899.365 657.17C899.66 653.134 899.956 652.937 901.826 655.3C903.105 656.973 903.302 656.875 904.779 654.611C905.665 653.232 908.716 649.886 911.571 647.228C914.327 644.472 917.477 640.929 918.461 639.353C919.544 637.68 922.399 634.137 925.056 631.479C927.615 628.722 932.34 622.521 935.588 617.6C942.184 607.461 948.483 601.161 954.882 598.405L959.212 596.436L963.347 598.799C965.709 600.177 968.072 601.063 968.662 600.866C969.253 600.571 970.139 602.047 970.631 604.016C972.403 611.201 977.226 610.808 976.734 603.425C976.439 600.669 975.553 599.389 971.222 596.043C968.367 593.877 965.513 591.023 964.823 589.644C963.249 586.494 958.917 586.003 954.291 588.463C950.944 590.333 950.846 590.333 949.369 588.463C948.188 586.987 947.696 586.79 946.712 587.774Z" fill="black" fill-opacity="0.9"/>
<path d="M1000.55 590.727C1000.55 592.597 1001.74 598.701 1003.21 604.409C1005.77 614.056 1005.87 616.024 1005.77 633.251C1005.67 647.13 1005.87 651.658 1006.76 651.362C1007.45 651.165 1008.43 649.295 1009.02 647.13C1010.69 641.125 1012.86 642.11 1012.47 648.705C1012.07 657.564 1009.51 667.112 1003.7 681.68C1000.46 690.047 998.094 697.528 997.799 700.678C997.405 705.009 996.913 706.092 994.944 707.076C992.286 708.258 989.924 711.899 986.775 719.873C985.003 724.499 984.215 725.385 982.738 724.991C981.459 724.597 980.868 724.893 980.868 725.877C980.868 726.665 978.211 729.618 975.061 732.373C968.761 737.886 967.285 741.036 969.056 745.662L970.139 748.419L971.714 746.056C972.698 744.776 976.832 739.461 980.967 734.342C988.251 725.385 993.665 716.132 993.665 712.49C993.665 711.407 994.157 711.014 995.043 711.309C996.815 711.998 998.685 708.454 1001.05 700.383C1002.13 696.446 1003.8 693.295 1006.17 690.835C1009.12 687.882 1009.81 686.306 1010.2 681.976C1010.5 678.924 1011.68 674.987 1013.25 672.329C1015.42 668.588 1015.81 666.521 1016.11 658.253C1016.4 652.937 1016.01 646.047 1015.42 642.996C1014.83 639.944 1013.84 632.168 1013.35 625.769C1011.68 608.15 1007.05 592.795 1002.13 588.758C1000.75 587.577 1000.55 587.873 1000.55 590.727Z" fill="black" fill-opacity="0.9"/>
<path d="M1069.75 592.794C1070.25 595.058 1074.18 606.969 1077.04 615.237C1077.92 617.698 1080.09 621.045 1081.96 622.816C1084.62 625.376 1085.21 626.655 1085.21 630.199C1085.21 635.613 1086.39 637.581 1088.16 635.416C1091.7 631.085 1075.56 590.826 1070.05 590.628C1069.65 590.628 1069.46 591.613 1069.75 592.794Z" fill="black" fill-opacity="0.9"/>
<path d="M803.687 594.665C803.687 597.224 803.391 597.618 801.521 597.322C799.749 597.125 799.159 597.618 798.962 599.389C798.371 603.031 800.34 604.114 802.998 601.654C804.277 600.472 805.754 599.488 806.443 599.488C808.412 599.488 808.707 597.618 807.132 594.566C805.163 590.727 803.687 590.826 803.687 594.665Z" fill="black" fill-opacity="0.9"/>
<path d="M859.105 599.487C857.137 603.13 854.282 606.181 848.278 610.906C846.211 612.678 842.962 616.812 841.191 620.159C837.352 627.345 834.792 630.199 832.824 629.412C832.036 629.117 831.052 629.608 830.56 630.691C828.985 633.742 829.674 635.416 832.43 635.711C834.399 635.908 836.367 634.727 841.289 630.199C844.636 627.049 848.475 623.899 849.754 623.21C852.018 622.029 852.018 621.34 850.246 616.419C849.951 615.729 850.64 615.237 852.215 615.237C855.168 615.237 858.614 611.201 861.862 604.016C863.732 599.685 863.732 599.094 862.354 597.716C860.976 596.338 860.681 596.534 859.105 599.487Z" fill="black" fill-opacity="0.9"/>
<path d="M793.253 601.949C793.351 605.197 794.828 605.197 794.828 601.949C794.828 600.57 794.434 599.487 793.942 599.487C793.45 599.487 793.154 600.57 793.253 601.949Z" fill="black" fill-opacity="0.9"/>
<path d="M957.244 603.425C956.456 603.917 954.586 604.409 953.11 604.409C949.467 604.409 943.758 611.201 934.112 627.148C927.615 637.778 923.973 642.503 913.539 653.43C906.55 660.812 899.463 667.506 897.789 668.293C896.117 669.179 892.966 672.231 890.801 675.184C887.651 679.318 885.584 680.893 881.745 682.369C875.839 684.534 869.638 690.736 869.638 694.476C869.638 696.839 869.736 696.839 873.378 695.559C884.403 691.622 894.935 684.338 911.373 669.08L921.808 659.336L921.906 654.315C922.004 651.461 922.3 650.378 922.497 651.855C923.284 656.776 926.138 654.709 932.635 644.373C934.899 640.83 937.557 637.68 938.64 637.385C939.722 636.991 940.51 635.908 940.51 634.53C940.51 630.002 941.691 626.164 942.971 626.655C943.561 626.95 946.416 624.096 949.172 620.159C952.027 616.32 955.373 612.678 956.752 612.087C958.819 611.201 959.212 610.315 959.212 606.674C959.212 604.409 959.114 602.44 959.016 602.44C958.819 602.44 958.031 602.933 957.244 603.425Z" fill="black" fill-opacity="0.9"/>
<path d="M960.788 606.575C960.492 607.264 960.098 609.823 959.902 612.087C959.508 615.138 958.721 616.91 957.047 617.993C952.913 620.946 950.55 624.195 945.825 633.251C943.168 638.566 939.034 644.57 936.081 647.819C933.226 650.772 929.781 655.497 928.304 658.253C926.926 661.009 924.564 664.159 923.087 665.242C921.513 666.325 915.508 672.132 909.602 678.038C903.204 684.534 897.888 689.063 896.313 689.358C894.935 689.653 889.226 692.606 883.714 695.953C875.937 700.678 872.689 702.056 869.145 702.351C866.192 702.548 863.83 703.336 862.747 704.419C860.483 706.781 859.007 713.671 860.779 713.671C863.534 713.671 882.434 707.372 889.029 704.221C895.821 700.973 901.137 696.248 901.137 693.393C901.137 692.607 901.628 692.016 902.121 692.016C902.711 692.016 903.105 692.902 903.105 693.984C903.105 695.067 903.597 695.953 904.09 695.953C904.68 695.953 905.074 695.56 905.074 695.067C905.074 694.575 908.125 691.721 911.964 688.669C916 685.42 919.051 682.074 919.445 680.597C919.839 679.121 920.627 678.333 921.414 678.628C922.201 678.924 924.466 677.054 926.926 674.199C929.289 671.541 933.62 666.718 936.671 663.667C941.987 658.154 943.66 655.3 952.027 636.893C955.472 629.412 961.772 620.454 962.855 621.439C963.051 621.635 962.067 625.376 960.689 629.608C957.933 638.074 953.405 647.228 953.306 644.472C953.306 642.11 951.338 642.306 951.338 644.768C951.338 645.85 951.732 646.736 952.224 646.736C952.617 646.736 951.436 650.477 949.566 655.004C946.711 661.698 945.432 663.568 942.675 665.044C940.904 666.029 936.278 670.655 932.537 675.38C924.268 685.815 916.393 693.197 907.043 699.398C897.298 705.895 881.548 713.474 874.362 715.148C867.275 716.722 864.617 719.085 864.42 723.613C864.224 726.271 864.716 727.058 866.783 727.747C870.13 729.027 874.56 726.862 881.45 720.463C888.044 714.36 890.801 713.081 899.66 712.195C908.617 711.309 912.358 709.143 923.284 697.922C928.206 693 934.013 687.783 936.376 686.405C938.64 685.027 941.298 682.566 942.184 680.794C945.53 674.199 949.763 669.081 952.815 667.801C955.768 666.62 956.555 665.34 960 656.383C964.627 644.669 967.087 633.644 967.087 625.081C967.087 619.765 966.89 619.174 965.02 619.174C963.346 619.174 963.051 618.682 963.346 615.533C963.741 610.611 965.414 610.414 968.466 614.942C970.926 618.486 971.024 619.273 971.024 632.561C971.024 645.063 970.828 646.638 969.056 648.212C966.989 650.083 964.528 656.678 963.544 663.273C963.051 666.127 962.461 667.309 961.674 667.013C960.984 666.816 958.425 669.081 955.866 672.132C946.121 684.338 940.805 690.047 936.081 693.591C933.423 695.658 929.486 699.201 927.32 701.564C922.398 707.076 914.819 712.588 910.586 713.769C908.125 714.459 906.944 715.541 906.157 717.805C903.105 726.566 896.018 731.291 884.796 732.078C877.709 732.669 877.513 732.768 877.513 735.228C877.513 738.378 879.185 740.248 881.942 740.248C885.977 740.248 900.054 732.373 909.208 724.991C916.393 719.184 919.051 717.608 921.513 717.608C923.875 717.608 925.843 716.624 928.6 714.164C930.667 712.293 933.127 710.718 934.013 710.718C934.899 710.718 935.588 710.127 935.588 709.34C935.588 706.879 939.624 702.843 944.546 700.383C947.204 699.004 949.96 696.937 950.649 695.658C951.436 694.476 953.503 691.031 955.275 687.882C957.047 684.83 959.606 681.877 960.886 681.286C962.362 680.597 963.15 679.416 963.15 677.644C963.15 676.07 964.627 673.412 966.989 670.754C974.372 662.387 978.899 645.653 978.899 627.148V617.6L974.273 613.071C971.615 610.513 967.875 607.756 965.906 606.87C961.476 605.098 961.181 605.098 960.788 606.575Z" fill="black" fill-opacity="0.9"/>
<path d="M810.282 606.969C809.888 607.362 809.593 608.544 809.593 609.528C809.593 610.808 808.904 611.3 807.132 611.3C805.262 611.3 804.573 611.989 804.081 613.957C803.195 618.387 802.801 619.175 801.817 619.175C801.324 619.175 800.537 618.289 800.242 617.206C799.946 616.123 798.962 615.237 798.174 615.237C796.501 615.237 796.206 623.604 797.781 624.588C798.371 624.883 798.765 624.293 798.765 623.211C798.765 621.537 799.159 621.439 801.521 622.128C806.345 623.506 812.152 619.863 814.318 614.154C815.105 612.087 814.908 611.103 813.235 608.937C812.054 607.461 810.676 606.575 810.282 606.969Z" fill="black" fill-opacity="0.9"/>
<path d="M1048.79 611.497C1048.89 619.863 1050.85 630.789 1055.19 646.736C1057.55 655.694 1060.7 670.065 1062.08 678.628C1064.83 695.067 1067.29 703.434 1070.34 706.19C1074.08 709.537 1073.79 704.615 1069.56 692.311C1068.47 688.964 1067.49 684.732 1067.49 682.96C1067.49 681.188 1066.6 677.349 1065.52 674.494C1062.08 665.439 1059.81 655.89 1055.68 632.956C1053.51 620.749 1051.45 610.02 1051.15 609.036C1050.17 605.886 1048.79 607.362 1048.79 611.497Z" fill="black" fill-opacity="0.9"/>
<path d="M860.385 615.828C859.4 617.206 857.825 621.439 856.841 625.376C855.66 630.298 854.872 631.971 854.38 630.691C853.396 628.231 850.246 628.624 849.557 631.184C849.262 632.463 846.998 634.727 844.537 636.204C840.107 639.058 838.631 641.617 839.32 645.85C839.517 647.622 840.107 648.114 841.584 647.917C845.324 647.326 851.427 642.306 853.593 637.976C854.774 635.613 856.644 632.66 857.727 631.577C860.09 629.018 866.685 615.04 866.094 614.056C865.011 612.383 861.96 613.367 860.385 615.828Z" fill="black" fill-opacity="0.9"/>
<path d="M906.058 617.205C905.369 618.486 901.432 623.111 897.199 627.64C892.966 632.168 889.029 637.286 888.34 639.255C887.651 641.519 886.568 642.798 885.19 642.996C882.04 643.487 878.792 648.311 880.071 650.476C881.647 652.839 884.698 652.543 885.879 649.886C886.372 648.704 887.651 647.72 888.635 647.72C889.718 647.72 891.096 646.244 892.179 643.783C893.164 641.617 894.246 640.141 894.64 640.534C895.427 641.42 906.747 630.396 908.617 626.852C910.291 623.604 910.291 620.356 908.617 617.304L907.338 614.942L906.058 617.205Z" fill="black" fill-opacity="0.9"/>
<path d="M871.212 620.06C869.047 624.096 869.244 625.081 872.098 625.081C874.756 625.081 875.347 624.293 875.741 620.159C876.134 616.517 873.083 616.419 871.212 620.06Z" fill="black" fill-opacity="0.9"/>
<path d="M812.742 627.541C812.053 629.018 811.168 632.266 810.872 634.825C810.282 638.96 810.38 639.255 811.857 637.976C814.121 636.204 815.892 629.215 814.81 626.754C814.022 624.982 813.825 625.08 812.742 627.541Z" fill="black" fill-opacity="0.9"/>
<path d="M866.094 625.868C864.519 626.852 862.747 630.593 862.747 632.857C862.747 636.991 867.767 634.137 868.949 629.313C869.44 626.951 867.767 624.785 866.094 625.868Z" fill="black" fill-opacity="0.9"/>
<path d="M873.574 633.447C872.295 636.893 872.295 643.488 873.673 644.275C875.346 645.358 875.937 644.078 876.331 637.976C876.823 631.676 875.248 629.117 873.574 633.447Z" fill="black" fill-opacity="0.9"/>
<path d="M804.277 635.318C803.588 638.074 805.065 642.799 806.64 642.799C808.116 642.799 807.526 633.742 806.049 633.251C805.36 633.054 804.671 633.94 804.277 635.318Z" fill="black" fill-opacity="0.9"/>
<path d="M821.602 637.385C818.353 640.929 817.074 644.373 817.664 647.228C817.861 648.607 818.944 648.114 823.177 644.669C827.508 641.027 828.295 639.846 828.098 637.385C827.705 633.251 825.244 633.251 821.602 637.385Z" fill="black" fill-opacity="0.9"/>
<path d="M867.275 637.877C863.928 638.96 860.876 641.519 859.794 644.373C859.204 645.752 857.727 646.736 855.463 647.13C850.935 648.016 844.537 652.346 832.921 662.584C823.866 670.459 823.57 670.852 826.13 671.345C833.512 672.919 843.355 668.195 852.608 658.843C856.546 654.906 860.286 651.658 861.074 651.658C861.762 651.658 863.829 650.575 865.7 649.197C867.57 647.819 869.539 646.736 870.031 646.736C870.621 646.736 871.114 644.57 871.114 641.815C871.114 639.058 870.917 636.893 870.621 636.991C870.326 636.991 868.85 637.483 867.275 637.877Z" fill="black" fill-opacity="0.9"/>
<path d="M967.087 643.291C967.087 645.161 967.58 646.736 968.071 646.736C968.662 646.736 969.056 645.161 969.056 643.291C969.056 641.42 968.662 639.846 968.071 639.846C967.58 639.846 967.087 641.42 967.087 643.291Z" fill="black" fill-opacity="0.9"/>
<path d="M1078.32 643.291C1077.33 644.472 1077.53 646.441 1079.79 654.316C1081.17 659.631 1083.24 665.537 1084.32 667.407L1086.29 670.852L1085.9 664.258C1085.5 659.237 1084.72 656.481 1082.26 652.15C1079.7 647.622 1079.3 646.441 1080.39 645.161C1081.17 644.177 1081.27 643.389 1080.58 642.701C1079.89 642.011 1079.2 642.208 1078.32 643.291Z" fill="black" fill-opacity="0.9"/>
<path d="M827.213 649.984C818.944 657.761 815.302 662.486 817.665 662.486C820.027 662.486 833.611 655.595 836.367 652.937C838.434 650.969 838.926 649.788 838.434 647.819C837.843 645.063 836.367 642.799 835.284 642.799C834.989 642.897 831.347 646.047 827.213 649.984Z" fill="black" fill-opacity="0.9"/>
<path d="M810.577 651.658C810.577 657.564 811.758 657.957 813.53 652.741C814.81 648.705 814.318 646.736 811.955 646.736C810.971 646.736 810.577 648.016 810.577 651.658Z" fill="black" fill-opacity="0.9"/>
<path d="M875.248 653.134C873.279 654.906 871.803 655.399 870.13 655.004C868.358 654.611 867.669 654.906 867.177 656.481C866.684 658.056 865.7 658.548 863.436 658.548C859.597 658.548 857.432 659.926 848.08 668.588C843.848 672.526 839.517 675.675 837.942 675.971C834.398 676.66 833.709 678.137 834.89 682.763L835.678 686.306L840.599 681.976C847.687 675.675 870.13 659.533 871.902 659.533C872.098 659.533 872 661.107 871.803 662.977C871.212 667.801 872.788 667.309 875.937 661.501C877.414 658.843 879.284 656.185 880.17 655.792C881.351 655.103 881.45 654.513 880.564 652.741C879.087 650.181 878.694 650.181 875.248 653.134Z" fill="black" fill-opacity="0.9"/>
<path d="M802.998 654.118C802.702 655.004 802.702 655.89 802.998 656.185C803.884 657.071 805.655 655.595 805.655 654.02C805.655 652.15 803.785 652.248 802.998 654.118Z" fill="black" fill-opacity="0.9"/>
<path d="M1002.52 654.217C1002.52 655.201 1000.06 663.076 997.11 671.836C994.157 680.696 991.696 688.373 991.696 689.063C991.696 689.752 990.416 691.917 988.94 693.886C987.365 695.855 983.92 701.17 981.262 705.698C978.604 710.226 973.387 717.018 969.745 720.758C963.642 726.96 959.311 733.752 959.213 737.098C959.213 738.674 969.056 731.192 975.454 724.893C980.474 719.873 984.313 713.081 985.396 707.372C985.79 704.91 987.365 702.253 989.629 699.989C991.991 697.627 994.944 692.311 998.488 684.239C1005.08 669.179 1006.46 664.553 1006.46 657.859C1006.46 653.331 1006.26 652.642 1004.49 652.642C1003.31 652.642 1002.52 653.331 1002.52 654.217Z" fill="black" fill-opacity="0.9"/>
<path d="M796.009 657.662C796.206 659.533 796.797 660.91 797.289 660.714C798.765 660.419 798.47 655.299 796.993 654.808C796.009 654.512 795.714 655.299 796.009 657.662Z" fill="black" fill-opacity="0.9"/>
<path d="M1041.5 669.474C1040.52 674.494 1040.81 681.09 1042.39 690.539C1043.28 695.362 1044.26 703.926 1044.75 709.439C1045.24 714.951 1045.93 719.873 1046.33 720.463C1049.08 725.09 1049.67 709.734 1047.21 692.508C1046.43 686.503 1045.54 678.727 1045.15 675.085C1044.46 667.506 1042.49 664.454 1041.5 669.474Z" fill="black" fill-opacity="0.9"/>
<path d="M812.644 671.345C811.266 675.872 811.266 676.266 812.546 676.266C813.137 676.266 813.53 675.577 813.53 674.691C813.53 673.412 814.219 673.215 817.468 673.805C821.011 674.396 821.405 674.298 821.405 672.427C821.405 671.246 820.814 670.36 820.224 670.36C819.535 670.36 817.763 669.769 816.385 668.982C813.826 667.702 813.727 667.702 812.644 671.345Z" fill="black" fill-opacity="0.9"/>
<path d="M865.503 669.08C864.618 670.065 863.534 671.836 862.944 672.919C862.353 674.101 860.483 675.282 858.711 675.675C852.904 676.857 846.998 681.09 845.029 685.42C844.045 687.684 843.257 689.653 843.454 689.752C843.749 690.145 861.467 680.695 863.436 679.023C865.799 677.054 870.622 669.179 870.031 668.293C869.145 666.915 867.078 667.309 865.503 669.08Z" fill="black" fill-opacity="0.9"/>
<path d="M876.331 669.868C874.165 672.034 871.606 678.038 871.606 681.09C871.606 682.664 880.761 675.479 882.237 672.624C884.993 667.506 880.662 665.439 876.331 669.868Z" fill="black" fill-opacity="0.9"/>
<path d="M804.179 670.262C800.045 671.148 799.553 675.38 803.195 677.841C804.671 678.825 806.049 679.121 806.541 678.628C807.624 677.447 808.805 669.376 807.92 669.474C807.427 669.573 805.852 669.868 804.179 670.262Z" fill="black" fill-opacity="0.9"/>
<path d="M1075.07 676.857C1074.28 677.644 1075.27 682.271 1076.35 683.452C1077.33 684.534 1078.71 678.628 1077.83 677.251C1077.14 676.168 1075.96 675.971 1075.07 676.857Z" fill="black" fill-opacity="0.9"/>
<path d="M827.311 679.219C826.523 679.711 825.047 679.909 824.161 679.613C822.783 679.219 822.389 679.711 822.389 681.976C822.389 685.716 821.405 686.503 819.732 684.141C817.96 681.581 817.566 681.68 813.825 685.224C808.805 689.85 809.494 691.031 816.877 691.031C827.606 691.031 833.119 687.685 832.429 681.68C832.036 678.137 830.362 677.251 827.311 679.219Z" fill="black" fill-opacity="0.9"/>
<path d="M866.882 681.385C865.208 683.058 865.405 686.11 867.177 686.11C868.85 686.11 871.016 682.566 870.13 681.188C869.342 679.909 868.358 679.909 866.882 681.385Z" fill="black" fill-opacity="0.9"/>
<path d="M860.581 688.275C858.809 690.047 857.825 692.212 857.825 693.984C857.825 697.232 858.121 697.43 860.778 695.953C862.944 694.772 865.503 687.487 864.125 686.208C863.633 685.716 862.058 686.602 860.581 688.275Z" fill="black" fill-opacity="0.9"/>
<path d="M849.459 695.855C848.573 697.627 848.376 699.004 848.966 699.398C850.049 700.087 853.888 698.217 853.888 696.937C853.888 696.544 854.184 695.461 854.479 694.575C855.66 691.523 851.132 692.803 849.459 695.855Z" fill="black" fill-opacity="0.9"/>
<path d="M865.11 695.46C864.814 696.839 864.715 698.217 865.011 698.512C865.996 699.496 867.668 697.823 867.668 695.953C867.668 693 865.798 692.705 865.11 695.46Z" fill="black" fill-opacity="0.9"/>
<path d="M840.206 694.87C837.942 695.461 835.973 698.611 836.859 700.087C837.351 701.071 841.19 701.071 842.765 700.087C843.356 699.694 844.242 698.118 844.537 696.642C845.324 693.788 844.734 693.591 840.206 694.87Z" fill="black" fill-opacity="0.9"/>
<path d="M833.808 696.445C833.414 697.627 832.823 697.823 831.347 696.937C829.969 696.248 829.181 696.248 828.788 696.937C827.508 699.004 829.181 700.875 832.233 700.875C834.891 700.875 835.186 700.58 835.186 697.922C835.186 694.674 834.694 694.181 833.808 696.445Z" fill="black" fill-opacity="0.9"/>
<path d="M820.421 698.808C818.846 701.859 819.24 704.812 821.208 704.812C823.768 704.812 825.343 702.843 825.343 699.694C825.343 697.627 824.85 696.937 823.374 696.937C822.39 696.937 821.011 697.823 820.421 698.808Z" fill="black" fill-opacity="0.9"/>
<path d="M813.53 700.875C813.53 702.154 814.022 702.647 815.007 702.253C815.794 701.859 816.483 701.071 816.483 700.284C816.483 699.497 815.794 698.906 815.007 698.906C814.219 698.906 813.53 699.792 813.53 700.875Z" fill="black" fill-opacity="0.9"/>
<path d="M1036.58 712.883C1036.09 718.789 1035.01 722.137 1030.48 731.685C1027.43 738.083 1025.16 743.497 1025.46 743.792C1026.34 744.678 1029.69 742.414 1031.46 739.756C1032.45 738.279 1033.24 735.13 1033.33 732.768C1033.43 730.405 1033.83 728.436 1034.32 728.436C1034.71 728.436 1035.89 726.96 1036.98 725.188C1038.45 722.826 1038.94 720.266 1038.94 715.148C1038.94 705.403 1037.47 704.024 1036.58 712.883Z" fill="black" fill-opacity="0.9"/>
<path d="M839.32 709.34C839.517 710.816 840.206 712.195 840.895 712.49C841.879 712.785 842.174 712.096 841.879 710.127C841.682 708.651 840.993 707.273 840.304 706.977C839.32 706.682 839.024 707.372 839.32 709.34Z" fill="black" fill-opacity="0.9"/>
<path d="M847.391 708.159C846.604 710.325 847.293 713.967 848.769 714.459C849.557 714.655 849.951 713.573 849.951 710.816C849.951 706.879 848.474 705.403 847.391 708.159Z" fill="black" fill-opacity="0.9"/>
<path d="M854.479 708.356C853.593 710.718 853.79 714.655 854.873 714.655C856.152 714.655 857.826 711.309 857.826 708.848C857.826 706.387 855.365 706.092 854.479 708.356Z" fill="black" fill-opacity="0.9"/>
<path d="M826.917 710.325C825.933 712.982 826.228 714.655 827.803 714.655C828.689 714.655 829.28 713.769 829.28 712.293C829.28 709.34 827.803 708.159 826.917 710.325Z" fill="black" fill-opacity="0.9"/>
<path d="M819.042 712.293C818.649 713.179 818.649 714.164 818.944 714.459C819.534 715.049 822.389 712.687 822.389 711.604C822.389 710.029 819.633 710.62 819.042 712.293Z" fill="black" fill-opacity="0.9"/>
<path d="M1013.35 716.427C1013.35 717.116 1010.99 720.266 1008.04 723.416C1003.31 728.534 1000.36 734.539 1001.83 736.016C1002.82 736.902 1007.54 733.063 1010.3 729.027C1013.65 724.105 1015.71 717.608 1014.34 716.231C1013.65 715.541 1013.35 715.64 1013.35 716.427Z" fill="black" fill-opacity="0.9"/>
<path d="M891.687 718.494C888.93 720.168 884.403 725.385 884.403 726.862C884.403 727.649 896.313 726.369 898.282 725.385C899.168 724.893 900.447 723.219 900.939 721.546C901.825 719.085 901.727 718.494 900.152 717.608C897.396 716.132 895.132 716.427 891.687 718.494Z" fill="black" fill-opacity="0.9"/>
<path d="M858.023 721.152C855.463 722.924 855.168 727.255 857.432 728.141C859.4 728.929 861.763 726.074 861.763 722.924C861.763 719.873 860.581 719.38 858.023 721.152Z" fill="black" fill-opacity="0.9"/>
<path d="M926.04 721.94C922.989 723.416 922.694 730.405 925.647 730.405C928.108 730.405 930.667 726.763 930.667 723.318C930.667 720.365 929.682 720.07 926.04 721.94Z" fill="black" fill-opacity="0.9"/>
<path d="M841.781 723.909C840.796 726.369 840.895 730.405 841.977 730.405C843.257 730.405 844.045 726.566 843.159 724.204C842.47 722.432 842.371 722.333 841.781 723.909Z" fill="black" fill-opacity="0.9"/>
<path d="M1021.42 723.711C1019.75 725.385 1019.95 730.405 1021.62 730.405C1023.19 730.405 1024.18 728.338 1024.18 724.893C1024.18 722.333 1023.19 721.94 1021.42 723.711Z" fill="black" fill-opacity="0.9"/>
<path d="M847.982 726.369C847.982 727.452 848.474 728.633 848.966 728.929C849.557 729.322 849.951 728.436 849.951 727.058C849.951 725.68 849.557 724.499 848.966 724.499C848.474 724.499 847.982 725.385 847.982 726.369Z" fill="black" fill-opacity="0.9"/>
<path d="M915.409 728.436C913.834 729.519 911.275 731.98 909.7 734.047C907.141 737.492 907.042 737.886 908.617 738.969C910.881 740.642 910.881 740.642 916.098 738.279C920.036 736.607 920.626 735.819 921.217 732.669C921.512 730.602 921.808 728.338 921.808 727.649C921.808 725.877 918.756 726.172 915.409 728.436Z" fill="black" fill-opacity="0.9"/>
<path d="M872.098 733.654C871.114 736.114 872 739.756 873.575 739.756C875.642 739.756 875.937 736.705 874.165 734.145C872.886 732.373 872.591 732.275 872.098 733.654Z" fill="black" fill-opacity="0.9"/>
<path d="M820.224 736.705C818.058 741.528 823.57 744.087 832.429 742.414C835.776 741.725 837.745 741.823 839.517 742.709C842.273 744.186 843.06 743.792 843.06 740.741C843.06 736.409 840.501 735.622 834.201 737.984C828.394 740.051 828.394 740.051 826.622 738.083C823.275 734.342 821.503 734.047 820.224 736.705Z" fill="black" fill-opacity="0.9"/>
<path d="M862.944 735.819C858.809 737.591 859.302 739.658 863.928 740.051C866.684 740.248 867.865 739.855 869.047 738.083C869.933 736.902 870.621 735.523 870.621 735.13C870.621 733.85 866.487 734.244 862.944 735.819Z" fill="black" fill-opacity="0.9"/>
<path d="M854.479 737.788C854.183 738.575 853.199 739.264 852.313 739.264C850.147 739.264 851.132 741.627 853.593 742.02C855.955 742.414 858.219 739.855 857.432 737.788C856.743 735.917 855.266 735.917 854.479 737.788Z" fill="black" fill-opacity="0.9"/>
<path d="M934.604 738.279C934.604 739.362 935.096 740.248 935.588 740.248C936.179 740.248 936.573 739.362 936.573 738.279C936.573 737.197 936.179 736.311 935.588 736.311C935.096 736.311 934.604 737.197 934.604 738.279Z" fill="black" fill-opacity="0.9"/>
<path d="M953.011 739.067C951.239 740.937 950.353 742.808 950.55 744.284L950.846 746.45L953.602 744.087C955.768 742.316 956.358 740.937 956.063 738.87L955.768 736.114L953.011 739.067Z" fill="black" fill-opacity="0.9"/>
<path d="M897.396 740.248C895.624 741.331 893.655 743.3 893.064 744.678C892.08 746.843 891.883 746.942 890.801 745.466C888.635 742.513 886.371 744.58 886.371 749.6C886.371 754.816 888.635 755.801 890.604 751.273C891.391 749.403 892.376 748.714 893.557 748.91C897.1 749.6 900.251 748.024 903.105 743.989C904.778 741.823 906.058 739.56 906.058 739.067C906.058 737.591 900.644 738.279 897.396 740.248Z" fill="black" fill-opacity="0.9"/>
<path d="M846.013 740.937C846.013 742.118 846.506 743.398 846.998 743.694C848.277 744.481 848.277 742.217 846.998 740.248C846.21 739.067 846.013 739.165 846.013 740.937Z" fill="black" fill-opacity="0.9"/>
<path d="M921.316 744.185C920.627 746.253 922.399 750.486 923.678 749.698C924.662 749.107 923.776 742.217 922.792 742.217C922.3 742.217 921.709 743.103 921.316 744.185Z" fill="black" fill-opacity="0.9"/>
<path d="M1039.93 744.383C1039.93 745.071 1040.42 746.352 1040.91 747.139C1041.7 748.32 1041.9 748.222 1041.9 746.45C1041.9 745.269 1041.5 743.989 1040.91 743.694C1040.42 743.399 1039.93 743.694 1039.93 744.383Z" fill="black" fill-opacity="0.9"/>
<path d="M1020.44 746.45C1017.58 749.501 1017.68 750.879 1020.73 750.289C1022.11 750.091 1023.19 749.305 1023.19 748.615C1023.19 747.828 1023.49 746.647 1023.79 745.761C1024.67 743.497 1022.9 743.89 1020.44 746.45Z" fill="black" fill-opacity="0.9"/>
<path d="M915.311 746.647C914.917 747.631 913.342 748.123 910.389 748.123C904.68 748.123 898.577 750.682 896.214 754.029C891.785 760.231 894.541 761.412 904.089 757.573C907.239 756.293 911.275 754.915 912.85 754.521C915.114 754.029 915.901 753.34 915.901 751.765C915.901 750.584 916.787 749.009 917.87 748.32C919.051 747.631 919.641 746.647 919.346 746.154C918.46 744.678 915.901 744.973 915.311 746.647Z" fill="black" fill-opacity="0.9"/>
<path d="M960.295 747.729C958.031 750.682 957.539 754.029 959.507 754.029C961.969 753.93 966.004 749.403 965.414 747.237C964.725 744.481 962.756 744.678 960.295 747.729Z" fill="black" fill-opacity="0.9"/>
<path d="M877.315 747.237C874.756 748.714 875.15 750.387 878.595 752.356C882.335 754.423 883.418 753.832 883.418 749.501C883.418 746.647 883.123 746.154 881.252 746.154C879.973 746.154 878.201 746.647 877.315 747.237Z" fill="black" fill-opacity="0.9"/>
<path d="M943.168 746.843C941.593 748.32 942.577 750.19 944.644 749.895C947.499 749.501 948.385 746.154 945.628 746.154C944.644 746.154 943.463 746.45 943.168 746.843Z" fill="black" fill-opacity="0.9"/>
<path d="M936.573 753.734C936.573 756.195 938.049 757.474 939.033 755.899C939.427 755.309 939.033 754.128 938.147 753.242C936.671 751.765 936.573 751.765 936.573 753.734Z" fill="black" fill-opacity="0.9"/>
<path d="M972.305 753.242C971.714 753.93 971.024 755.309 970.729 756.195C970.237 757.573 970.631 757.967 972.403 757.967C974.667 757.967 975.946 756.293 975.946 753.439C975.946 751.765 973.584 751.667 972.305 753.242Z" fill="black" fill-opacity="0.9"/>
<path d="M850.443 755.013C850.148 755.506 850.345 756.883 850.935 758.065C852.018 760.034 852.117 760.034 853.396 758.262C854.184 757.278 854.873 755.899 854.873 755.211C854.873 753.832 851.329 753.635 850.443 755.013Z" fill="black" fill-opacity="0.9"/>
<path d="M949.862 755.997C948.877 757.081 947.499 757.966 946.711 757.966C945.235 757.966 945.038 760.722 946.318 762.789C947.007 763.872 947.991 763.577 951.239 761.018C955.472 757.671 956.654 754.029 953.503 754.029C952.42 754.029 950.846 754.915 949.862 755.997Z" fill="black" fill-opacity="0.9"/>
<path d="M929.485 758.459C927.221 761.412 927.221 764.168 929.386 763.675C931.257 763.282 933.225 758.163 932.044 756.982C931.553 756.49 930.371 757.179 929.485 758.459Z" fill="black" fill-opacity="0.9"/>
<path d="M914.622 761.608C913.441 762.691 913.835 763.873 915.409 763.873C916.197 763.873 916.886 763.184 916.886 762.396C916.886 760.821 915.705 760.427 914.622 761.608Z" fill="black" fill-opacity="0.9"/>
</svg>
