<svg width="1920" height="931" viewBox="0 0 1920 931" fill="none" xmlns="http://www.w3.org/2000/svg">
<g clip-path="url(#clip0_9_2)">
<g clip-path="url(#clip1_9_2)">
<path d="M1933.68 521.671C1930.86 521.15 1926.85 521.285 1924.65 521.781C1922.45 522.277 1917.29 522.477 1913.38 522.204C1904.04 521.806 1902.68 517.49 1907.7 503.84C1916.04 480.193 1918.68 460.335 1914.46 451.85C1910.93 444.748 1907.4 447.857 1901.76 462.997C1898.89 470.771 1891.99 485.426 1886.37 495.552L1876.46 513.966L1858.07 516.959C1844.67 519.019 1837.23 519.348 1831.48 517.757C1827.17 516.609 1821.3 516.199 1818.55 516.819C1811.04 518.514 1713.55 508.145 1675.09 501.603C1656.44 498.3 1635.13 495.208 1628.08 494.681C1620.8 494.011 1608.22 492.033 1600.1 490.204L1585.09 486.849L1617.45 480.897C1674.4 470.363 1706.09 462.253 1727.68 452.952C1760.43 438.44 1780.23 435.707 1810.37 441.236L1827.03 444.22L1831.28 435.749C1833.71 431.156 1835.31 427.136 1835.04 426.811C1834.78 426.485 1829.08 424.302 1822.43 422.143C1812.03 418.711 1807.89 418.297 1793.67 420.156C1772.69 422.77 1769.07 421.273 1771.96 410.992C1773 407.097 1777.43 396.852 1781.6 388.014C1786 379.318 1790.22 368.157 1791.21 363.12C1796.27 339.443 1795.56 340.566 1813.55 325.53C1822.98 317.817 1835.4 308.851 1841.04 305.654C1853.26 299.236 1866.57 287.374 1865.83 284.075C1865.04 280.592 1860.45 278.161 1856.6 279.029C1854.77 279.443 1846.9 284.685 1839.05 290.885C1830.98 296.943 1821.1 304.372 1816.79 307.463L1808.78 312.93L1807.33 306.515C1805.18 296.984 1807.42 288.968 1817.2 270.004C1826.31 252.346 1827.53 243.212 1820.56 244.783C1816.17 245.776 1795.43 267.403 1789.69 276.98C1784.66 285.433 1782.11 297.18 1783.68 304.145C1786.04 314.592 1779.46 327.248 1770.84 329.191C1765.71 330.349 1764.21 332.229 1759.05 344.371C1755.95 352.003 1752.75 358.311 1751.84 358.517C1749.27 359.096 1747.22 373.042 1748.15 385.736C1749.76 410.798 1743.3 418.033 1707.44 431.516C1688.95 438.382 1673.13 442.528 1629.29 452.226C1565.05 466.329 1537.84 470.348 1515.95 468.93C1507.16 468.408 1491.63 467.866 1481.6 467.816L1463.24 467.528L1440.51 478.626C1406.08 495.06 1376.26 507.178 1355.94 512.725C1345.94 515.365 1333.91 519.235 1329.03 521.492C1324.28 523.525 1298 530.803 1271.04 537.654C1218.13 550.743 1191.14 554.905 1172.73 552.701C1156.32 550.817 1137.94 551.304 1101.45 554.334C1082.72 555.861 1063.83 556.654 1059.47 556.097C1055.15 555.724 1044.59 555.024 1036.07 554.827C1027.55 554.63 1014.04 553.633 1006.31 552.679C998.399 551.767 990.979 551.322 989.879 551.57C988.779 551.818 977.11 547.901 963.868 542.991C943.892 535.555 939.707 533.224 938.839 529.375C937.929 525.343 936.889 525 931.94 526.116C924.975 527.687 905.638 522.226 901.772 517.897C899.952 515.804 899.391 512.463 899.682 507.775C900.387 498.948 898.732 497.588 893.919 502.719C890.223 506.827 877.782 510.596 875.329 508.26C874.532 507.284 875.117 505.611 876.743 504.281C881.581 500.108 928.386 478.765 936.451 476.946C947.265 474.507 957.179 477.471 962.214 484.425L966.269 490.444L968.074 481.37C969.199 476.108 969.099 470.545 967.888 467.736C966.204 463.686 967.843 459.849 980.695 438.267C988.804 424.689 998.564 404.767 1002.5 394.055C1006.44 383.343 1011.32 371.65 1013.18 367.955C1015 364.077 1016.28 360.324 1016.07 359.407C1015.9 358.674 1017.19 354.146 1018.89 349.718C1021.22 343.8 1021.41 341.252 1019.61 340.117C1018.27 339.265 1016.69 336.539 1016.19 334.34C1015.37 330.674 1017.52 328.262 1028.8 319.361C1042.73 308.516 1052.31 298.071 1049.62 296.368C1048.72 295.8 1045.75 298.01 1043.03 301.321C1036.94 308.473 1026.71 316.943 1020.3 320.122C1015.79 322.296 1015.75 322.113 1016.3 316.018C1017.39 302.095 1017.42 279.167 1016.24 277.317C1014.47 274.632 1013.46 281.218 1011.13 311.021C1009.65 329.265 1008.07 338.482 1005.34 342.567C1001.4 349.04 987.572 357.745 957.174 373.269C932.777 385.513 927.787 386.446 907.64 382.516C880.232 377.141 878.866 377.064 868.655 383.027C855.167 390.692 840.634 396.281 817.746 402.407C806.323 405.561 795.775 408.325 794.676 408.573C790.868 409.625 793.539 416.342 798.292 417.774C805.859 419.726 847.661 407.794 866.665 398.114L882.718 389.87L896.487 393.699C906.359 396.48 910.462 398.444 911.531 401.477C913.215 405.527 913.623 405.628 926.022 401.676C933.229 399.472 950.956 391.814 965.708 384.634C980.278 377.496 992.712 371.994 993.386 372.42C995.816 373.798 984.315 403.936 974.935 421.268C969.747 430.721 952.499 441.352 944.364 440.298C942.183 440.02 932.748 434.058 923.657 427.056C914.382 420.095 905.622 414.559 904.339 414.849C899.757 415.882 902.67 421.966 912.056 431.984C923.405 443.87 925.668 450.486 920.097 454.824C917.821 456.686 900.301 465.261 881.049 473.841C832.268 495.822 809.683 500.724 802.986 490.678C800.079 486.326 797.265 485.805 795.951 489.375C794.537 493.354 788.3 493.027 782.844 488.48C777.879 484.399 776.655 484.097 772.628 486.739C769.802 488.725 766.319 489.51 762.772 489.155C751.09 487.745 711.218 491.153 682.211 495.769C632.388 503.733 596.589 506.414 595.638 502.199C595.514 501.649 596.809 498.853 598.471 495.974C602.789 488.644 598.787 486.272 590.55 491.597C585.323 494.895 584.04 495.184 580.263 492.954C575.853 490.482 575.669 490.523 574.728 495.744C574.024 498.599 572.504 501.253 571.038 501.584C567.555 502.369 557.683 499.588 554.189 496.909C552.351 495.59 548.396 495.134 544.913 495.92C541.614 496.664 538.333 496.634 537.617 496.024C536.861 495.232 531.357 494.74 525.202 494.78C512.485 494.759 451.059 488.005 438.455 485.069C429.522 483.039 424.575 478.184 422.591 469.387C420.689 460.955 422.671 456.078 428.902 454.673C434.584 453.391 438.659 446.694 437.337 440.828C436.427 436.796 436.61 436.755 429.331 442.056C421.502 447.482 414.212 449.319 413.385 445.653C412.558 441.987 417.354 437.631 434.478 426.449C452.803 414.612 455.216 410.793 449.873 403.33C445.062 396.518 431.112 386.76 417.846 380.892C411.438 378.1 402.205 371.323 393.599 363.055C380.394 350.625 375.228 347.36 373.199 350.322C370.26 355.222 400.919 383.554 411.176 385.478C414.582 386.059 422.154 389.744 427.894 393.842C445.787 406.563 441.842 415.543 414.36 425.209C390.869 433.782 392.105 431.577 395.256 454.943C397.097 469.936 395.015 475.221 385.472 479.878C381.646 481.704 346.845 490.516 307.988 499.281C238.156 515.032 237.281 515.422 222.877 523.294C214.841 527.803 193.413 537.837 174.953 545.66C142.959 559.233 138.643 560.591 75.0895 576.852C3.87906 595.033 -13.4684 600.102 -14.3973 602.815C-14.983 604.488 -22.2242 699.607 -19.4998 704C-17.9632 706.543 25.4112 694.765 29.7398 690.899C31.5493 689.528 39.3424 685.651 47.2596 682.325C81.0451 668.155 111.219 652.489 127.953 640.433C171.527 609.032 217.82 580.292 232.661 575.211C244.835 571.116 336.082 553.81 366.578 549.82C392.001 546.397 421.532 546.67 440.822 550.216C448.265 551.619 462.431 552.084 473.434 551.335C492.199 549.992 519.661 553.043 532.495 557.853C536.922 559.551 537.271 560.242 535.178 562.063C532.617 564.374 532.758 570.121 535.453 571.824C536.311 572.208 538.629 570.53 540.781 568.118C542.709 565.565 545.636 563.171 547.103 562.84C549.669 562.261 549.981 564.502 548.767 573.636C548.027 578.04 552.787 575.233 556.028 569.109L559.128 563.21L572.111 563.556C597.793 564.697 616.485 572.422 635.004 589.625C642.854 597.1 645.467 598.437 649.866 597.445C656.097 596.039 659.425 597.985 670.792 609.097C675.29 613.668 680.988 617.583 683.17 617.861C688.266 618.253 696.296 612.011 696.12 607.814C696.032 605.715 685.859 598.186 667.888 586.831C652.389 577.037 639.296 567.663 638.924 566.013C638.303 563.264 640.645 562.543 663.762 558.292C697.227 552.092 701.365 552.507 714.34 563.063C727.847 574.27 743.149 592.583 744.802 599.915C745.505 603.031 745.06 610.45 743.693 616.345C740.177 632.354 742.706 639.295 748.502 629.128C751.501 623.636 754.215 624.565 755.786 631.53C756.447 634.462 757.718 636.68 758.634 636.473C765.416 634.943 753.993 586.863 744.92 579.086C735.131 570.701 716.814 552.682 716.524 551.399C715.697 547.733 748.824 544.306 770.208 546.031C775.712 546.523 785.597 546.798 792.384 547C806.101 547.181 841.034 554.325 848.098 558.318C850.528 559.696 854.648 560.885 857.338 560.856C864.675 560.935 883.119 567.561 912.08 580.675C926.652 587.211 944.712 594.694 952.22 597.238C959.728 599.782 969.665 603.705 974.4 605.911C979.177 608.301 987.051 610.762 991.863 611.603C996.859 612.402 1003.16 613.87 1006.14 615.124C1014.4 618.46 1028.04 620.006 1034.83 618.477C1049.31 615.211 1087.47 632.412 1105.56 650.289C1110.24 654.819 1118.29 665.717 1123.51 674.362C1132.81 689.984 1133.16 690.676 1148.24 748.14C1171.49 836.698 1179.7 873.946 1181.78 900.25C1182.82 912.536 1184.04 924.78 1184.58 927.163C1185.57 931.562 1186.39 931.763 1208.24 934.73C1213.61 935.447 1225.36 939.73 1234.46 944.225C1255.28 954.553 1258.14 955.257 1268.03 953.025C1272.43 952.033 1280.6 951.538 1286.47 951.947C1297.81 952.665 1307.32 949.558 1309.99 944.332C1312.62 938.923 1307.5 937.574 1279.66 937.112C1266.09 936.707 1251.76 935.509 1247.78 934.095C1236.19 930.545 1202.67 913.451 1202.09 910.885C1201.8 909.602 1200.93 902.288 1200.37 894.709C1199.63 887.171 1197.94 871.952 1196.55 860.707C1195.03 849.686 1194.32 838.867 1194.97 836.603C1195.72 833.931 1195.18 831.548 1193.58 829.597C1189.45 824.943 1179.57 793.08 1164.9 737.449C1157.31 708.921 1148.34 676.851 1144.95 666.06C1141.73 655.228 1139.09 645.23 1139.31 643.64C1140.13 637.87 1150.16 639.652 1171.81 649.406C1184.71 655.357 1190.3 656.216 1202.97 654.321C1207.82 653.612 1208.39 652.714 1207.99 648.374C1207.69 645.359 1206.64 643.284 1205.55 643.532C1204.45 643.78 1200.87 642.466 1197.55 640.52C1181.07 631.524 1156.83 623.123 1134.1 618.814C1113.4 615.007 1101.73 611.091 1101.03 607.975C1100.32 604.859 1104.95 604.009 1131.19 602.519C1166.79 600.653 1207.35 601.136 1212.53 603.626C1215.14 604.963 1221.01 611.344 1225.37 617.872C1230.8 625.701 1235.3 630.272 1239.05 631.544C1241.99 632.615 1248.26 635.631 1252.71 638.287C1259.14 642.037 1261.77 642.599 1265.23 640.856C1269.05 639.03 1270.5 639.474 1276.21 645.121C1283.69 652.679 1283.8 655.735 1276.29 659.162C1269.43 662.058 1259.23 677.456 1260.47 682.955C1261.59 687.904 1264.34 687.284 1275.19 679.057C1280.11 675.25 1289.17 670.127 1295.37 667.763L1306.69 663.284L1321.98 672.162C1330.44 677.19 1337.87 681.099 1338.78 680.893C1340.62 680.479 1341.6 675.442 1340.61 671.043C1340.24 669.394 1335.86 665.372 1330.78 662.474C1325.84 659.351 1318.81 653.81 1315.29 650.173C1306.93 641.274 1281.02 626.316 1266.39 622.103C1250.5 617.405 1240.43 611.2 1239.07 605.152C1235.6 589.756 1256.26 589.14 1283.6 603.584C1299.09 611.646 1315.86 615.954 1318.68 612.236C1321.96 608.027 1319.14 605.774 1301.49 598.391C1292.51 594.446 1283.23 589.992 1280.94 588.389C1276.81 585.467 1276.81 585.467 1281.7 583.21C1284.32 582.04 1296.86 577.863 1309.44 573.87L1332.23 566.42L1344.62 572.678C1351.56 576.12 1361.45 579.859 1366.98 581.309C1384.15 585.717 1393.67 580.103 1378.53 574.465C1371.8 571.939 1369.84 570.07 1368.85 565.672L1367.65 560.356L1383.11 558.025C1396 556.272 1400.14 554.954 1408.41 549.813C1413.97 546.249 1420.19 543.111 1422.21 542.656C1428.44 541.251 1440.26 542.436 1443.86 544.707C1448.53 547.505 1460.34 549.464 1466.02 548.183C1473.17 546.57 1470.55 541.769 1459.03 535.121L1448.68 529.366L1453.38 525.418C1460.35 519.608 1475.12 513.386 1489.42 510.161C1507.02 506.192 1526.02 508.455 1592.15 522.43C1610.57 526.366 1626.64 529.29 1627.92 529.001C1633.97 527.636 1661 537.333 1661.87 541.182C1662.86 545.581 1670.64 548.45 1683.74 549.346C1691.39 549.933 1701.3 551.165 1705.78 552.272C1715.17 554.586 1752.82 572.094 1771.18 582.593C1777.97 586.26 1786.32 589.963 1789.91 590.502C1799.9 592.101 1816.75 604.479 1818.28 611.26C1819.44 616.392 1818.97 616.883 1813.11 618.206C1806.88 619.612 1806.74 619.836 1808.35 626.984C1809.3 631.2 1809.3 637.171 1808.45 640.251C1807.18 645.737 1807.66 646.979 1816.56 659.994C1821.76 667.681 1831.1 681.754 1837.31 691.333C1843.29 700.771 1849.22 708.292 1850.14 708.086C1852.89 707.465 1849.32 700.181 1837.48 681.856C1831.62 672.969 1824.88 661.007 1822.19 655.065C1817.68 645.297 1817.57 643.972 1819.76 640.012C1821.28 637.357 1825.59 634.266 1830.56 632.376C1835.02 630.792 1843.44 627.158 1849.02 624.552C1860.49 619.074 1868.2 619.07 1869.36 624.202C1870.86 630.026 1881.11 642.16 1882.53 639.914C1884.38 636.994 1876.32 622.631 1869.45 616.091C1862.09 609.083 1861.98 604.294 1868.74 595.836C1877.28 585.048 1876.01 582.831 1863.26 586.091C1849.97 589.476 1844.81 587.943 1837.32 578.653C1832.22 572.291 1830.47 571.338 1825.17 571.763C1821.65 572.365 1817.36 572.175 1815.47 571.447C1812.39 570.601 1812.53 570.376 1815.79 569.449C1817.99 568.953 1819.94 567.357 1820.16 565.767C1820.81 560.996 1888.61 546.474 1908.16 546.88C1916.31 547.16 1925.81 546.559 1929.47 545.733C1935.34 544.41 1936.09 543.47 1937.83 534.986C1940.16 523.097 1939.85 522.589 1933.68 521.671ZM1800.69 565.727C1794.52 564.809 1772.18 557.135 1764.79 553.409L1757.17 549.541L1763.1 549.359C1766.53 549.164 1773.6 550.65 1779.25 552.65C1784.68 554.507 1790.76 555.833 1792.59 555.42C1794.42 555.006 1796.1 555.592 1796.3 556.508C1796.55 557.608 1799.12 558.762 1801.9 559.099C1806.08 559.697 1806.83 560.49 1805.5 563.103C1804.69 564.634 1802.47 565.904 1800.69 565.727ZM1357.97 568.702C1357.06 568.909 1355.97 568.382 1355.73 567.282C1355.52 566.366 1356.23 565.243 1357.15 565.036C1358.25 564.788 1359.19 565.539 1359.39 566.456C1359.64 567.555 1359.07 568.454 1357.97 568.702Z" fill="black"/>
<path d="M605.931 466.083C605.251 466.696 604.181 467.195 603.052 466.923C602.237 466.726 575.293 460.173 574.474 459.952C572.129 459.328 570.944 458.118 570.485 456.766C569.785 454.711 559.818 434.225 539.806 421.359C537.665 419.987 543.534 412.252 549.833 415.863C554.149 418.337 564.97 428.707 567.368 428.053C569.219 427.547 573.749 420.882 575.816 405.906L579.965 375.797C580.2 374.466 580.942 373.277 582.034 372.482C583.127 371.686 584.486 371.345 585.825 371.53C587.164 371.715 588.379 372.412 589.215 373.474C590.051 374.536 590.443 375.881 590.309 377.226L586.692 403.502C586.336 406.064 586.915 407.445 588.287 407.655C589.508 407.848 590.099 407.299 590.653 404.926L596.768 373.69C596.899 373.017 597.161 372.377 597.54 371.805C597.918 371.234 598.406 370.743 598.974 370.36C599.542 369.977 600.181 369.71 600.852 369.574C601.524 369.438 602.216 369.436 602.889 369.568C603.562 369.697 604.204 369.959 604.776 370.337C605.348 370.716 605.84 371.203 606.224 371.772C606.607 372.341 606.874 372.98 607.01 373.653C607.146 374.325 607.147 375.018 607.015 375.691L601.203 405.394C600.695 408.008 600.828 409.606 602.381 409.793C603.313 409.906 603.92 408.727 604.295 407.611L611.974 380.482C612.146 379.805 612.451 379.169 612.873 378.612C613.294 378.055 613.823 377.589 614.428 377.24C615.032 376.891 615.701 376.667 616.394 376.58C617.087 376.494 617.79 376.548 618.462 376.738C619.134 376.928 619.761 377.251 620.306 377.688C620.851 378.125 621.303 378.666 621.635 379.28C621.967 379.895 622.173 380.569 622.24 381.264C622.307 381.959 622.234 382.661 622.025 383.327L614.953 408.332C613.908 412.003 613.977 413.582 615.43 413.994C616.909 414.421 617.46 413.319 617.786 412.336L624.766 391.394C625.21 390.261 626.073 389.342 627.175 388.826C628.277 388.31 629.535 388.236 630.69 388.621C631.844 389.006 632.807 389.819 633.38 390.893C633.952 391.967 634.091 393.219 633.767 394.392L626.165 417.185L626.166 417.192L626.164 417.196L621.603 430.863C620.815 433.483 620.183 436.014 619.758 438.606C617.28 453.836 608.173 464.032 605.931 466.083Z" fill="#ABCC63"/>
<g clip-path="url(#clip2_9_2)">
<path d="M427.211 582.747C427.743 582.002 428.681 581.285 429.842 581.308C430.68 581.325 458.404 581.931 459.25 581.972C461.675 582.077 463.093 583.003 463.831 584.225C464.957 586.082 479.095 603.945 501.405 612.208C503.792 613.087 499.722 621.904 492.795 619.732C488.048 618.243 475.251 610.442 473.049 611.597C471.35 612.489 468.359 619.972 469.56 635.042L471.982 665.339C472.039 666.69 471.57 668.009 470.674 669.021C469.777 670.033 468.524 670.659 467.176 670.766C465.829 670.873 464.492 670.454 463.447 669.597C462.402 668.739 461.73 667.51 461.573 666.168L459.456 639.728C459.253 637.149 458.39 635.925 457.004 636.015C455.771 636.089 455.311 636.752 455.281 639.19L456.025 671.01C456.042 671.695 455.923 672.376 455.676 673.016C455.43 673.655 455.059 674.24 454.586 674.736C454.114 675.232 453.548 675.63 452.921 675.907C452.294 676.184 451.619 676.335 450.934 676.351C450.248 676.369 449.565 676.252 448.925 676.005C448.285 675.759 447.699 675.389 447.203 674.915C446.706 674.442 446.308 673.876 446.03 673.248C445.753 672.62 445.603 671.944 445.587 671.258L444.877 641C444.811 638.338 444.337 636.806 442.781 636.958C441.846 637.047 441.507 638.329 441.381 639.5L439.714 667.646C439.692 668.344 439.53 669.03 439.239 669.665C438.947 670.299 438.531 670.869 438.015 671.339C437.499 671.81 436.895 672.173 436.236 672.406C435.578 672.639 434.88 672.738 434.183 672.697C433.486 672.655 432.804 672.475 432.178 672.166C431.552 671.856 430.994 671.425 430.537 670.896C430.081 670.368 429.735 669.753 429.52 669.089C429.305 668.424 429.226 667.724 429.286 667.028L430.817 641.088C431.048 637.277 430.641 635.75 429.134 635.66C427.598 635.562 427.297 636.756 427.189 637.786L424.875 659.739C424.685 660.941 424.04 662.024 423.075 662.765C422.109 663.506 420.896 663.848 419.686 663.721C418.476 663.593 417.361 663.006 416.57 662.081C415.78 661.155 415.376 659.961 415.44 658.746L417.964 634.852L417.961 634.846L417.962 634.841L419.478 620.513C419.684 617.785 419.757 615.177 419.615 612.555C418.761 597.148 425.462 585.232 427.211 582.747Z" fill="#ABCC63"/>
</g>
<path d="M468.935 289.086C469.218 288.215 469.895 287.248 471.009 286.92C471.814 286.683 498.428 278.897 499.247 278.679C501.59 278.048 503.222 278.504 504.294 279.446C505.928 280.876 524.797 293.641 548.561 294.787C551.101 294.905 549.882 304.538 542.622 304.558C537.647 304.571 523.092 300.995 521.342 302.76C519.991 304.124 519.397 312.16 525.09 326.165L536.54 354.319C537.002 355.59 536.953 356.99 536.404 358.225C535.855 359.46 534.848 360.435 533.596 360.944C532.344 361.453 530.943 361.456 529.688 360.954C528.433 360.452 527.421 359.483 526.866 358.25L516.87 333.682C515.898 331.285 514.706 330.378 513.412 330.881C512.259 331.325 512.021 332.095 512.727 334.428L523.038 364.541C523.261 365.189 523.353 365.875 523.311 366.559C523.269 367.243 523.092 367.912 522.791 368.527C522.489 369.143 522.07 369.693 521.556 370.146C521.042 370.6 520.444 370.947 519.796 371.17C519.147 371.394 518.461 371.488 517.776 371.446C517.091 371.404 516.422 371.228 515.805 370.926C515.189 370.625 514.638 370.205 514.184 369.69C513.731 369.176 513.383 368.577 513.162 367.927L503.355 339.294C502.488 336.776 501.575 335.458 500.136 336.072C499.272 336.439 499.336 337.764 499.569 338.919L506.472 366.255C506.662 366.927 506.715 367.631 506.628 368.323C506.541 369.016 506.316 369.685 505.967 370.289C505.617 370.894 505.15 371.422 504.593 371.843C504.036 372.264 503.4 372.569 502.723 372.74C502.046 372.911 501.341 372.944 500.651 372.838C499.961 372.732 499.299 372.489 498.704 372.123C498.109 371.757 497.594 371.275 497.189 370.707C496.784 370.138 496.496 369.494 496.344 368.812L489.976 343.619C489.047 339.917 488.198 338.584 486.734 338.953C485.24 339.322 485.313 340.552 485.521 341.566L489.939 363.195C490.12 364.398 489.833 365.625 489.136 366.623C488.439 367.62 487.386 368.313 486.193 368.556C485.001 368.8 483.761 368.577 482.728 367.933C481.696 367.289 480.95 366.273 480.644 365.095L475.841 341.552L475.836 341.547L475.836 341.542L472.958 327.425C472.331 324.762 471.614 322.254 470.687 319.796C465.224 305.366 468.018 291.983 468.935 289.086Z" fill="#ABCC63"/>
<g clip-path="url(#clip3_9_2)">
<path d="M544.861 766.188C544.329 766.933 543.392 767.651 542.231 767.628C541.392 767.612 513.669 767.02 512.822 766.98C510.397 766.876 508.979 765.95 508.24 764.729C507.113 762.873 492.965 745.017 470.651 736.766C468.265 735.888 472.329 727.069 479.258 729.238C484.005 730.723 496.807 738.518 499.007 737.362C500.707 736.469 503.694 728.984 502.484 713.915L500.047 683.619C499.989 682.269 500.458 680.949 501.353 679.936C502.249 678.924 503.502 678.298 504.85 678.19C506.197 678.082 507.534 678.5 508.579 679.357C509.625 680.214 510.297 681.443 510.456 682.785L512.587 709.224C512.791 711.802 513.655 713.026 515.04 712.936C516.274 712.861 516.733 712.198 516.762 709.76L516.001 677.94C515.984 677.255 516.102 676.574 516.348 675.934C516.595 675.295 516.965 674.71 517.438 674.214C517.91 673.717 518.476 673.319 519.103 673.042C519.729 672.764 520.404 672.613 521.089 672.596C521.775 672.578 522.458 672.695 523.098 672.941C523.739 673.187 524.324 673.557 524.821 674.03C525.318 674.503 525.717 675.07 525.994 675.697C526.272 676.324 526.423 677 526.438 677.686L527.164 707.944C527.232 710.606 527.706 712.138 529.263 711.985C530.197 711.895 530.536 710.613 530.661 709.442L532.313 681.296C532.335 680.598 532.496 679.911 532.788 679.277C533.08 678.642 533.495 678.072 534.011 677.601C534.526 677.13 535.131 676.767 535.789 676.534C536.447 676.3 537.145 676.201 537.842 676.242C538.539 676.283 539.221 676.463 539.848 676.772C540.474 677.081 541.032 677.512 541.488 678.041C541.945 678.569 542.291 679.183 542.507 679.848C542.722 680.512 542.802 681.213 542.741 681.908L541.224 707.849C540.996 711.66 541.403 713.186 542.911 713.276C544.446 713.374 544.747 712.179 544.854 711.149L547.157 689.195C547.346 687.993 547.99 686.909 548.955 686.168C549.92 685.426 551.133 685.084 552.344 685.21C553.554 685.337 554.669 685.924 555.46 686.849C556.251 687.774 556.656 688.968 556.592 690.183L554.081 714.078L554.084 714.085L554.082 714.09L552.574 728.418C552.37 731.147 552.298 733.754 552.441 736.377C553.304 751.783 546.608 763.702 544.861 766.188Z" fill="#ABCC63"/>
</g>
<g clip-path="url(#clip4_9_2)">
<path d="M604.003 584.857C604.811 584.425 605.969 584.199 606.999 584.736C607.743 585.123 632.315 597.976 633.055 598.388C635.181 599.558 636.04 601.018 636.159 602.441C636.344 604.604 641.081 626.888 657.402 644.197C659.15 646.044 651.589 652.137 646.347 647.115C642.754 643.674 634.751 631.002 632.266 631.059C630.347 631.104 624.345 636.481 618.73 650.517L607.448 678.74C606.899 679.975 605.893 680.949 604.641 681.458C603.388 681.967 601.987 681.971 600.732 681.469C599.477 680.967 598.466 679.998 597.91 678.765C597.355 677.533 597.298 676.133 597.753 674.86L607.595 650.23C608.558 647.829 608.329 646.349 607.047 645.814C605.909 645.333 605.203 645.723 604.093 647.894L590.632 676.736C590.343 677.357 589.934 677.915 589.429 678.379C588.924 678.842 588.333 679.201 587.689 679.436C587.045 679.67 586.361 679.776 585.676 679.746C584.992 679.716 584.32 679.551 583.699 679.261C583.076 678.973 582.517 678.565 582.052 678.06C581.588 677.555 581.228 676.963 580.993 676.318C580.758 675.674 580.653 674.989 580.683 674.304C580.713 673.618 580.879 672.946 581.169 672.324L593.968 644.897C595.09 642.482 595.346 640.899 593.884 640.344C593.007 640.009 592.134 641.007 591.501 642.001L577.511 666.48C577.181 667.095 576.732 667.639 576.188 668.077C575.645 668.516 575.02 668.842 574.348 669.035C573.677 669.228 572.974 669.284 572.281 669.201C571.588 669.117 570.918 668.896 570.312 668.549C569.706 668.203 569.175 667.738 568.751 667.183C568.328 666.628 568.019 665.994 567.845 665.318C567.671 664.641 567.634 663.937 567.736 663.246C567.839 662.556 568.079 661.892 568.442 661.296L581.331 638.733C583.229 635.421 583.543 633.872 582.232 633.122C580.9 632.352 580.1 633.288 579.546 634.163L567.725 652.807C567.021 653.799 565.963 654.484 564.769 654.719C563.575 654.954 562.336 654.722 561.308 654.07C560.28 653.419 559.541 652.397 559.245 651.217C558.948 650.037 559.115 648.788 559.712 647.727L572.583 627.438L572.583 627.431L572.586 627.428L580.306 615.263C581.702 612.909 582.925 610.606 583.963 608.193C590.037 594.009 601.333 586.307 604.003 584.857Z" fill="#ABCC63"/>
</g>
<g clip-path="url(#clip5_9_2)">
<path d="M1074.92 670.267C1075.84 670.222 1076.98 670.511 1077.69 671.436C1078.19 672.103 1094.93 694.212 1095.42 694.901C1096.85 696.867 1097 698.553 1096.5 699.891C1095.75 701.926 1090.52 724.1 1097.9 746.719C1098.69 749.136 1089.25 751.42 1086.65 744.641C1084.87 739.996 1083.04 725.121 1080.77 724.112C1079.02 723.334 1071.29 725.635 1060.23 735.934L1037.98 756.644C1036.96 757.527 1035.63 757.979 1034.28 757.905C1032.93 757.831 1031.66 757.237 1030.74 756.247C1029.82 755.257 1029.32 753.949 1029.34 752.598C1029.37 751.246 1029.91 749.956 1030.87 748.999L1050.28 730.923C1052.17 729.163 1052.6 727.726 1051.67 726.696C1050.84 725.775 1050.04 725.826 1048.11 727.316L1023.63 747.657C1023.1 748.095 1022.49 748.426 1021.84 748.629C1021.18 748.833 1020.5 748.905 1019.81 748.843C1019.13 748.78 1018.47 748.583 1017.86 748.264C1017.25 747.945 1016.72 747.51 1016.28 746.982C1015.84 746.456 1015.51 745.848 1015.3 745.193C1015.1 744.538 1015.02 743.849 1015.09 743.166C1015.15 742.483 1015.35 741.819 1015.67 741.212C1015.99 740.605 1016.42 740.067 1016.95 739.629L1040.23 720.285C1042.27 718.58 1043.18 717.258 1042.1 716.132C1041.45 715.455 1040.23 715.985 1039.23 716.613L1016.14 732.782C1015.58 733.199 1014.94 733.498 1014.26 733.663C1013.58 733.828 1012.87 733.856 1012.19 733.744C1011.5 733.632 1010.84 733.383 1010.25 733.012C1009.65 732.641 1009.14 732.155 1008.74 731.583C1008.34 731.011 1008.06 730.364 1007.91 729.681C1007.77 728.998 1007.76 728.293 1007.89 727.607C1008.02 726.921 1008.29 726.269 1008.68 725.688C1009.06 725.107 1009.56 724.609 1010.15 724.225L1031.43 709.318C1034.56 707.133 1035.5 705.866 1034.64 704.629C1033.76 703.363 1032.64 703.869 1031.77 704.424L1013.12 716.241C1012.06 716.838 1010.81 717.006 1009.63 716.709C1008.45 716.412 1007.43 715.673 1006.78 714.646C1006.13 713.618 1005.89 712.379 1006.13 711.185C1006.36 709.991 1007.05 708.933 1008.04 708.228L1028.34 695.371L1028.34 695.364L1028.35 695.363L1040.52 687.655C1042.78 686.122 1044.87 684.56 1046.84 682.821C1058.39 672.585 1071.89 670.439 1074.92 670.267Z" fill="#ABCC63"/>
</g>
<g clip-path="url(#clip6_9_2)">
<path d="M930.698 627.541C931.376 626.926 932.444 626.423 933.574 626.692C934.39 626.886 961.354 633.358 962.173 633.576C964.52 634.193 965.709 635.399 966.172 636.75C966.878 638.803 976.908 659.258 996.958 672.063C999.104 673.429 993.258 681.182 986.949 677.59C982.625 675.129 971.773 664.792 969.377 665.454C967.526 665.965 963.017 672.644 960.996 687.626L956.939 717.748C956.708 719.08 955.97 720.27 954.879 721.069C953.789 721.868 952.431 722.213 951.092 722.033C949.752 721.852 948.535 721.159 947.695 720.099C946.856 719.04 946.46 717.696 946.59 716.35L950.127 690.063C950.476 687.5 949.892 686.121 948.519 685.915C947.298 685.726 946.708 686.276 946.161 688.652L940.142 719.906C940.013 720.579 939.753 721.22 939.376 721.793C938.999 722.365 938.514 722.858 937.946 723.242C937.379 723.627 936.741 723.896 936.07 724.034C935.399 724.172 934.707 724.176 934.034 724.047C933.36 723.919 932.718 723.659 932.144 723.283C931.571 722.906 931.077 722.42 930.692 721.852C930.307 721.285 930.038 720.646 929.9 719.974C929.762 719.302 929.759 718.61 929.889 717.936L935.611 688.215C936.11 685.6 935.972 684.002 934.419 683.82C933.487 683.71 932.883 684.891 932.512 686.008L924.915 713.16C924.746 713.838 924.442 714.474 924.023 715.033C923.603 715.591 923.076 716.059 922.472 716.41C921.868 716.761 921.2 716.987 920.507 717.075C919.815 717.163 919.111 717.112 918.439 716.924C917.766 716.736 917.138 716.414 916.592 715.979C916.046 715.544 915.592 715.004 915.258 714.391C914.924 713.778 914.716 713.104 914.647 712.409C914.578 711.714 914.649 711.013 914.856 710.345L921.852 685.32C922.885 681.645 922.811 680.066 921.357 679.659C919.878 679.237 919.33 680.34 919.006 681.324L912.09 702.287C911.649 703.422 910.79 704.344 909.689 704.863C908.589 705.382 907.331 705.459 906.175 705.078C905.019 704.697 904.054 703.887 903.478 702.815C902.902 701.742 902.76 700.49 903.08 699.316L910.613 676.5L910.611 676.494L910.614 676.489L915.133 662.809C915.913 660.186 916.537 657.653 916.955 655.06C919.386 639.823 928.462 629.599 930.698 627.541Z" fill="#ABCC63"/>
</g>
<g clip-path="url(#clip7_9_2)">
<path d="M838.001 575.747C838.809 575.316 839.967 575.089 840.997 575.626C841.741 576.013 866.313 588.866 867.054 589.278C869.179 590.448 870.038 591.908 870.157 593.331C870.342 595.495 875.079 617.778 891.4 635.087C893.148 636.934 885.588 643.028 880.345 638.006C876.752 634.564 868.749 621.892 866.264 621.949C864.345 621.994 858.343 627.371 852.728 641.408L841.446 669.63C840.897 670.865 839.891 671.84 838.639 672.348C837.386 672.857 835.985 672.861 834.73 672.359C833.475 671.857 832.464 670.888 831.908 669.655C831.353 668.423 831.296 667.023 831.751 665.75L841.593 641.12C842.556 638.72 842.327 637.239 841.046 636.704C839.907 636.223 839.201 636.613 838.091 638.784L824.63 667.626C824.341 668.247 823.932 668.805 823.427 669.269C822.922 669.732 822.331 670.091 821.687 670.326C821.043 670.56 820.359 670.666 819.674 670.636C818.99 670.606 818.318 670.441 817.697 670.151C817.074 669.863 816.515 669.455 816.05 668.95C815.586 668.445 815.226 667.853 814.991 667.208C814.756 666.564 814.651 665.879 814.681 665.194C814.711 664.508 814.877 663.836 815.167 663.215L827.966 635.787C829.088 633.372 829.344 631.79 827.882 631.234C827.005 630.899 826.132 631.898 825.499 632.891L811.509 657.37C811.179 657.985 810.73 658.529 810.186 658.968C809.643 659.406 809.018 659.732 808.346 659.925C807.675 660.118 806.972 660.174 806.279 660.091C805.586 660.008 804.916 659.786 804.31 659.44C803.704 659.093 803.173 658.629 802.749 658.073C802.326 657.518 802.018 656.884 801.843 656.208C801.669 655.532 801.632 654.827 801.734 654.137C801.837 653.446 802.077 652.783 802.44 652.186L815.329 629.623C817.227 626.311 817.541 624.762 816.23 624.012C814.898 623.242 814.098 624.179 813.544 625.053L801.723 643.697C801.019 644.689 799.961 645.374 798.767 645.609C797.573 645.844 796.334 645.612 795.306 644.96C794.278 644.309 793.54 643.288 793.243 642.107C792.946 640.927 793.113 639.678 793.71 638.618L806.581 618.328L806.581 618.321L806.584 618.318L814.304 606.153C815.7 603.799 816.923 601.496 817.961 599.083C824.035 584.899 835.331 577.197 838.001 575.747Z" fill="#ABCC63"/>
</g>
<g clip-path="url(#clip8_9_2)">
<path d="M732.599 656.952C733.407 656.52 734.565 656.294 735.595 656.83C736.339 657.218 760.91 670.071 761.651 670.483C763.777 671.653 764.636 673.113 764.755 674.536C764.939 676.699 769.677 698.983 785.998 716.292C787.746 718.139 780.185 724.232 774.942 719.21C771.35 715.769 763.347 703.097 760.862 703.154C758.942 703.199 752.94 708.576 747.326 722.612L736.044 750.835C735.495 752.07 734.489 753.044 733.236 753.553C731.984 754.062 730.583 754.066 729.328 753.564C728.073 753.062 727.062 752.093 726.506 750.86C725.95 749.628 725.894 748.228 726.349 746.955L736.191 722.325C737.154 719.924 736.924 718.444 735.643 717.909C734.505 717.428 733.799 717.818 732.689 719.989L719.228 748.831C718.939 749.452 718.53 750.01 718.025 750.474C717.52 750.937 716.928 751.296 716.285 751.531C715.641 751.765 714.957 751.87 714.272 751.841C713.587 751.811 712.915 751.646 712.294 751.356C711.672 751.068 711.112 750.66 710.648 750.155C710.184 749.65 709.824 749.058 709.589 748.413C709.354 747.769 709.248 747.084 709.279 746.399C709.309 745.713 709.474 745.041 709.765 744.419L722.564 716.992C723.686 714.577 723.942 712.994 722.48 712.439C721.603 712.104 720.73 713.102 720.097 714.096L706.107 738.575C705.777 739.19 705.327 739.734 704.784 740.172C704.241 740.611 703.615 740.937 702.944 741.13C702.273 741.323 701.57 741.379 700.877 741.296C700.183 741.212 699.514 740.991 698.908 740.644C698.301 740.298 697.771 739.833 697.347 739.278C696.923 738.723 696.615 738.089 696.441 737.413C696.266 736.736 696.229 736.032 696.332 735.341C696.434 734.651 696.674 733.987 697.037 733.391L709.927 710.828C711.825 707.516 712.138 705.967 710.828 705.217C709.496 704.447 708.695 705.383 708.141 706.258L696.321 724.901C695.617 725.894 694.558 726.579 693.364 726.814C692.17 727.049 690.932 726.817 689.904 726.165C688.876 725.514 688.137 724.492 687.84 723.312C687.543 722.132 687.711 720.883 688.308 719.822L701.179 699.533L701.178 699.526L701.182 699.523L708.902 687.358C710.297 685.004 711.521 682.701 712.558 680.288C718.633 666.103 729.928 658.402 732.599 656.952Z" fill="#ABCC63"/>
</g>
<g clip-path="url(#clip9_9_2)">
<path d="M1244.86 711.16C1245.67 710.729 1246.83 710.503 1247.86 711.039C1248.6 711.426 1273.17 724.279 1273.91 724.691C1276.04 725.862 1276.9 727.322 1277.02 728.744C1277.2 730.908 1281.94 753.191 1298.26 770.501C1300.01 772.348 1292.45 778.441 1287.21 773.419C1283.61 769.978 1275.61 757.306 1273.12 757.363C1271.21 757.408 1265.2 762.785 1259.59 776.821L1248.31 805.043C1247.76 806.279 1246.75 807.253 1245.5 807.762C1244.25 808.271 1242.85 808.275 1241.59 807.773C1240.34 807.27 1239.32 806.301 1238.77 805.069C1238.21 803.837 1238.16 802.437 1238.61 801.164L1248.45 776.534C1249.42 774.133 1249.19 772.653 1247.91 772.118C1246.77 771.637 1246.06 772.027 1244.95 774.197L1231.49 803.039C1231.2 803.661 1230.79 804.219 1230.29 804.682C1229.78 805.146 1229.19 805.505 1228.55 805.739C1227.9 805.974 1227.22 806.079 1226.53 806.049C1225.85 806.019 1225.18 805.855 1224.56 805.565C1223.93 805.277 1223.38 804.868 1222.91 804.363C1222.45 803.858 1222.09 803.266 1221.85 802.622C1221.62 801.977 1221.51 801.293 1221.54 800.607C1221.57 799.922 1221.74 799.249 1222.03 798.628L1234.83 771.201C1235.95 768.786 1236.2 767.203 1234.74 766.648C1233.87 766.313 1232.99 767.311 1232.36 768.304L1218.37 792.783C1218.04 793.399 1217.59 793.942 1217.05 794.381C1216.5 794.82 1215.88 795.146 1215.21 795.338C1214.54 795.531 1213.83 795.588 1213.14 795.505C1212.45 795.421 1211.78 795.2 1211.17 794.853C1210.56 794.507 1210.03 794.042 1209.61 793.487C1209.19 792.932 1208.88 792.298 1208.7 791.621C1208.53 790.945 1208.49 790.241 1208.59 789.55C1208.7 788.859 1208.94 788.196 1209.3 787.6L1222.19 765.036C1224.09 761.724 1224.4 760.176 1223.09 759.426C1221.76 758.655 1220.96 759.592 1220.4 760.467L1208.58 779.11C1207.88 780.103 1206.82 780.787 1205.63 781.022C1204.43 781.258 1203.19 781.025 1202.17 780.374C1201.14 779.722 1200.4 778.701 1200.1 777.521C1199.81 776.341 1199.97 775.092 1200.57 774.031L1213.44 753.742L1213.44 753.735L1213.44 753.731L1221.16 741.566C1222.56 739.213 1223.78 736.909 1224.82 734.496C1230.9 720.312 1242.19 712.611 1244.86 711.16Z" fill="#ABCC63"/>
</g>
<g clip-path="url(#clip10_9_2)">
<path d="M1332.94 705.083C1333.21 704.208 1333.88 703.232 1334.99 702.889C1335.79 702.641 1362.29 694.495 1363.11 694.266C1365.45 693.603 1367.08 694.037 1368.17 694.964C1369.82 696.373 1388.86 708.88 1412.64 709.704C1415.18 709.788 1414.09 719.437 1406.83 719.555C1401.86 719.636 1387.26 716.257 1385.53 718.045C1384.2 719.427 1383.71 727.471 1389.6 741.398L1401.43 769.394C1401.9 770.658 1401.87 772.059 1401.34 773.301C1400.81 774.544 1399.82 775.532 1398.57 776.058C1397.33 776.583 1395.93 776.606 1394.66 776.121C1393.4 775.636 1392.38 774.681 1391.81 773.456L1381.48 749.025C1380.47 746.641 1379.27 745.751 1377.98 746.272C1376.84 746.73 1376.61 747.504 1377.35 749.828L1388.06 779.798C1388.3 780.443 1388.4 781.127 1388.36 781.811C1388.33 782.496 1388.16 783.167 1387.87 783.787C1387.58 784.407 1387.17 784.962 1386.66 785.423C1386.15 785.883 1385.56 786.239 1384.91 786.47C1384.27 786.703 1383.58 786.806 1382.9 786.773C1382.21 786.741 1381.54 786.573 1380.92 786.281C1380.3 785.988 1379.74 785.575 1379.28 785.067C1378.82 784.558 1378.46 783.964 1378.23 783.318L1368.04 754.819C1367.14 752.314 1366.21 751.009 1364.78 751.642C1363.92 752.021 1364 753.345 1364.25 754.496L1371.52 781.736C1371.72 782.406 1371.78 783.108 1371.71 783.802C1371.63 784.496 1371.41 785.168 1371.07 785.777C1370.73 786.386 1370.27 786.921 1369.72 787.349C1369.17 787.778 1368.54 788.091 1367.86 788.271C1367.19 788.451 1366.48 788.494 1365.79 788.398C1365.1 788.301 1364.43 788.067 1363.83 787.709C1363.24 787.351 1362.71 786.876 1362.3 786.313C1361.89 785.75 1361.59 785.11 1361.43 784.431L1354.72 759.326C1353.74 755.637 1352.88 754.316 1351.42 754.704C1349.93 755.094 1350.02 756.322 1350.24 757.334L1354.95 778.9C1355.15 780.101 1354.88 781.332 1354.19 782.339C1353.51 783.346 1352.47 784.052 1351.28 784.312C1350.09 784.572 1348.84 784.365 1347.8 783.735C1346.76 783.105 1346 782.1 1345.68 780.926L1340.56 757.451L1340.55 757.446L1340.55 757.441L1337.49 743.364C1336.82 740.709 1336.07 738.211 1335.11 735.767C1329.45 721.412 1332.07 707.992 1332.94 705.083Z" fill="#ABCC63"/>
</g>
<path d="M1425.24 591.608C1425.44 590.715 1426.03 589.691 1427.11 589.264C1427.89 588.956 1453.7 578.805 1454.49 578.515C1456.77 577.676 1458.43 577.983 1459.59 578.824C1461.34 580.102 1481.29 591.116 1505.06 590.119C1507.6 590.008 1507.25 599.712 1500.02 600.385C1495.07 600.846 1480.25 598.595 1478.66 600.51C1477.44 601.99 1477.57 610.047 1484.5 623.482L1498.44 650.492C1499.02 651.716 1499.09 653.114 1498.66 654.394C1498.22 655.674 1497.31 656.735 1496.11 657.354C1494.9 657.974 1493.51 658.104 1492.21 657.716C1490.92 657.329 1489.83 656.455 1489.16 655.278L1476.99 631.709C1475.81 629.409 1474.54 628.613 1473.3 629.231C1472.19 629.776 1472.02 630.565 1472.94 632.825L1485.91 661.887C1486.19 662.512 1486.35 663.187 1486.37 663.872C1486.39 664.557 1486.27 665.239 1486.03 665.879C1485.78 666.52 1485.41 667.105 1484.94 667.603C1484.47 668.101 1483.91 668.501 1483.28 668.781C1482.66 669.062 1481.98 669.218 1481.3 669.238C1480.61 669.258 1479.93 669.142 1479.29 668.898C1478.64 668.653 1478.06 668.284 1477.56 667.813C1477.06 667.341 1476.66 666.775 1476.38 666.149L1464.04 638.514C1462.95 636.084 1461.92 634.854 1460.54 635.595C1459.72 636.039 1459.9 637.353 1460.23 638.481L1469.57 665.086C1469.82 665.738 1469.94 666.433 1469.91 667.131C1469.89 667.829 1469.72 668.515 1469.43 669.149C1469.14 669.782 1468.72 670.351 1468.2 670.82C1467.68 671.289 1467.08 671.65 1466.42 671.881C1465.76 672.113 1465.06 672.209 1464.37 672.166C1463.67 672.123 1462.99 671.94 1462.36 671.629C1461.74 671.318 1461.18 670.884 1460.73 670.355C1460.27 669.825 1459.93 669.209 1459.71 668.544L1451.1 644.026C1449.84 640.423 1448.88 639.172 1447.45 639.671C1446 640.173 1446.18 641.391 1446.48 642.383L1452.83 663.525C1453.12 664.708 1452.94 665.956 1452.34 667.012C1451.73 668.068 1450.75 668.852 1449.58 669.202C1448.42 669.552 1447.16 669.442 1446.07 668.893C1444.99 668.345 1444.15 667.4 1443.74 666.254L1436.84 643.24L1436.83 643.235L1436.83 643.23L1432.7 629.429C1431.83 626.833 1430.89 624.4 1429.75 622.036C1423.01 608.156 1424.59 594.576 1425.24 591.608Z" fill="#ABCC63"/>
<g clip-path="url(#clip11_9_2)">
<path d="M1594.63 555.848C1595.32 555.241 1596.39 554.752 1597.52 555.035C1598.33 555.239 1625.21 562.044 1626.03 562.273C1628.37 562.919 1629.54 564.139 1629.99 565.496C1630.67 567.558 1640.44 588.135 1660.34 601.187C1662.46 602.579 1656.52 610.259 1650.26 606.59C1645.97 604.076 1635.24 593.605 1632.84 594.237C1630.98 594.725 1626.39 601.348 1624.18 616.303L1619.75 646.373C1619.51 647.702 1618.75 648.883 1617.65 649.668C1616.55 650.454 1615.19 650.782 1613.85 650.585C1612.52 650.387 1611.31 649.679 1610.48 648.609C1609.66 647.54 1609.28 646.191 1609.42 644.847L1613.28 618.606C1613.67 616.048 1613.1 614.661 1611.73 614.438C1610.51 614.234 1609.91 614.777 1609.34 617.145L1602.93 648.323C1602.79 648.994 1602.53 649.632 1602.14 650.2C1601.76 650.768 1601.27 651.254 1600.69 651.632C1600.12 652.009 1599.48 652.27 1598.81 652.4C1598.14 652.53 1597.44 652.525 1596.77 652.388C1596.1 652.251 1595.46 651.984 1594.89 651.6C1594.32 651.217 1593.84 650.725 1593.46 650.152C1593.08 649.58 1592.82 648.938 1592.69 648.264C1592.56 647.591 1592.56 646.898 1592.7 646.226L1598.79 616.578C1599.32 613.969 1599.21 612.37 1597.66 612.169C1596.72 612.047 1596.11 613.22 1595.72 614.333L1587.79 641.389C1587.61 642.065 1587.3 642.697 1586.87 643.25C1586.45 643.803 1585.91 644.265 1585.31 644.608C1584.7 644.951 1584.03 645.169 1583.33 645.249C1582.64 645.329 1581.94 645.269 1581.27 645.072C1580.6 644.876 1579.97 644.547 1579.43 644.105C1578.89 643.663 1578.44 643.118 1578.12 642.5C1577.79 641.883 1577.59 641.206 1577.53 640.511C1577.47 639.815 1577.55 639.114 1577.77 638.45L1585.07 613.513C1586.15 609.851 1586.09 608.272 1584.65 607.846C1583.17 607.406 1582.61 608.502 1582.27 609.482L1575.1 630.358C1574.64 631.487 1573.77 632.398 1572.67 632.904C1571.56 633.409 1570.3 633.471 1569.15 633.075C1568 632.68 1567.04 631.858 1566.48 630.779C1565.92 629.7 1565.79 628.446 1566.13 627.276L1573.94 604.555L1573.94 604.548L1573.94 604.544L1578.63 590.92C1579.44 588.307 1580.1 585.783 1580.55 583.195C1583.17 567.989 1592.37 557.878 1594.63 555.848Z" fill="#ABCC63"/>
</g>
<g clip-path="url(#clip12_9_2)">
<path d="M1756.04 631.784C1756.94 631.614 1758.12 631.744 1758.94 632.564C1759.53 633.156 1779.14 652.769 1779.72 653.383C1781.4 655.136 1781.78 656.786 1781.47 658.179C1781 660.299 1778.85 682.979 1789.25 704.377C1790.37 706.663 1781.33 710.216 1777.83 703.856C1775.43 699.498 1771.58 685.013 1769.2 684.324C1767.35 683.793 1760.02 687.129 1750.46 698.844L1731.26 722.401C1730.36 723.416 1729.11 724.045 1727.76 724.156C1726.42 724.267 1725.08 723.852 1724.03 722.997C1722.98 722.143 1722.31 720.915 1722.15 719.573C1721.98 718.231 1722.35 716.879 1723.16 715.8L1739.92 695.24C1741.56 693.237 1741.78 691.756 1740.72 690.863C1739.78 690.063 1738.99 690.224 1737.28 691.963L1715.81 715.46C1715.35 715.967 1714.79 716.377 1714.17 716.668C1713.55 716.959 1712.88 717.125 1712.19 717.156C1711.51 717.188 1710.82 717.084 1710.18 716.85C1709.53 716.617 1708.94 716.259 1708.44 715.797C1707.93 715.336 1707.52 714.779 1707.23 714.158C1706.93 713.537 1706.77 712.865 1706.73 712.179C1706.7 711.494 1706.81 710.809 1707.04 710.164C1707.28 709.519 1707.63 708.927 1708.1 708.421L1728.51 686.076C1730.31 684.107 1731.02 682.673 1729.79 681.706C1729.06 681.124 1727.93 681.816 1727.02 682.574L1706.35 701.75C1705.86 702.239 1705.26 702.623 1704.61 702.879C1703.96 703.135 1703.27 703.259 1702.57 703.242C1701.87 703.226 1701.19 703.069 1700.55 702.782C1699.91 702.496 1699.34 702.084 1698.87 701.572C1698.39 701.06 1698.02 700.458 1697.79 699.802C1697.55 699.145 1697.44 698.448 1697.48 697.75C1697.51 697.053 1697.69 696.37 1697.99 695.741C1698.3 695.113 1698.73 694.552 1699.25 694.091L1718.3 676.415C1721.1 673.822 1721.86 672.438 1720.83 671.331C1719.79 670.197 1718.75 670.851 1717.96 671.52L1701.11 685.776C1700.14 686.512 1698.92 686.849 1697.71 686.716C1696.5 686.584 1695.39 685.992 1694.6 685.063C1693.82 684.134 1693.42 682.938 1693.49 681.723C1693.56 680.508 1694.09 679.366 1694.98 678.533L1713.33 663.021L1713.33 663.014L1713.33 663.012L1724.34 653.712C1726.37 651.884 1728.23 650.051 1729.94 648.059C1739.98 636.341 1753.06 632.37 1756.04 631.784Z" fill="#ABCC63"/>
</g>
<g clip-path="url(#clip13_9_2)">
<path d="M1075.79 538.523C1075.02 539.016 1073.88 539.333 1072.81 538.88C1072.04 538.552 1046.53 527.675 1045.76 527.323C1043.55 526.323 1042.58 524.936 1042.35 523.527C1041.99 521.384 1035.52 499.544 1017.88 483.574C1015.99 481.87 1023.05 475.2 1028.67 479.794C1032.53 482.941 1041.5 494.943 1043.97 494.691C1045.88 494.495 1051.44 488.661 1055.94 474.226L1064.96 445.203C1065.41 443.928 1066.34 442.878 1067.54 442.272C1068.75 441.666 1070.15 441.552 1071.44 441.953C1072.73 442.355 1073.81 443.241 1074.47 444.426C1075.12 445.611 1075.28 447.002 1074.93 448.306L1067.06 473.636C1066.29 476.105 1066.63 477.562 1067.95 477.994C1069.13 478.384 1069.8 477.94 1070.73 475.689L1081.88 445.876C1082.12 445.234 1082.48 444.645 1082.95 444.143C1083.42 443.642 1083.98 443.237 1084.6 442.952C1085.23 442.668 1085.9 442.509 1086.58 442.485C1087.27 442.461 1087.95 442.572 1088.59 442.812C1089.24 443.05 1089.83 443.413 1090.33 443.88C1090.83 444.347 1091.24 444.909 1091.52 445.533C1091.81 446.157 1091.97 446.831 1091.99 447.516C1092.01 448.202 1091.9 448.886 1091.66 449.528L1081.06 477.879C1080.14 480.374 1080 481.972 1081.51 482.411C1082.41 482.675 1083.2 481.611 1083.75 480.571L1095.77 455.066C1096.05 454.427 1096.45 453.85 1096.96 453.369C1097.47 452.889 1098.07 452.515 1098.72 452.27C1099.37 452.025 1100.07 451.913 1100.77 451.942C1101.47 451.97 1102.15 452.138 1102.78 452.436C1103.41 452.733 1103.98 453.155 1104.45 453.675C1104.91 454.195 1105.27 454.803 1105.5 455.463C1105.72 456.124 1105.82 456.823 1105.77 457.519C1105.72 458.216 1105.53 458.896 1105.22 459.519L1094.15 483.028C1092.52 486.479 1092.33 488.048 1093.69 488.692C1095.08 489.355 1095.8 488.358 1096.29 487.443L1106.6 467.926C1107.23 466.881 1108.23 466.115 1109.4 465.787C1110.57 465.458 1111.82 465.592 1112.9 466.161C1113.98 466.729 1114.79 467.689 1115.18 468.842C1115.57 469.995 1115.5 471.254 1114.99 472.358L1103.76 493.598L1103.76 493.605L1103.76 493.609L1097.02 506.344C1095.81 508.8 1094.77 511.193 1093.93 513.68C1088.99 528.299 1078.34 536.866 1075.79 538.523Z" fill="#ABCC63"/>
</g>
<g clip-path="url(#clip14_9_2)">
<path d="M1556.79 779.027C1556.63 779.928 1556.1 780.979 1555.04 781.458C1554.27 781.803 1528.99 793.182 1528.2 793.51C1525.97 794.458 1524.29 794.231 1523.1 793.446C1521.28 792.254 1500.84 782.21 1477.14 784.349C1474.61 784.581 1474.49 774.872 1481.68 773.853C1486.6 773.154 1501.51 774.691 1503 772.702C1504.15 771.165 1503.63 763.124 1496.07 750.036L1480.85 723.728C1480.21 722.533 1480.07 721.14 1480.44 719.841C1480.82 718.541 1481.68 717.438 1482.85 716.761C1484.02 716.085 1485.41 715.888 1486.72 716.213C1488.03 716.537 1489.17 717.358 1489.89 718.502L1503.17 741.459C1504.46 743.699 1505.77 744.433 1506.98 743.757C1508.06 743.159 1508.19 742.363 1507.17 740.149L1492.81 711.744C1492.5 711.133 1492.32 710.466 1492.26 709.783C1492.21 709.1 1492.29 708.413 1492.51 707.762C1492.72 707.11 1493.06 706.508 1493.51 705.988C1493.95 705.468 1494.5 705.041 1495.11 704.732C1495.72 704.42 1496.39 704.233 1497.07 704.18C1497.76 704.127 1498.44 704.209 1499.1 704.423C1499.75 704.636 1500.35 704.977 1500.87 705.424C1501.39 705.871 1501.82 706.417 1502.13 707.029L1515.79 734.039C1516.99 736.414 1518.08 737.593 1519.42 736.787C1520.22 736.304 1519.98 735 1519.59 733.889L1508.98 707.764C1508.7 707.124 1508.55 706.435 1508.54 705.737C1508.54 705.039 1508.67 704.346 1508.93 703.699C1509.19 703.052 1509.58 702.464 1510.08 701.971C1510.57 701.477 1511.16 701.087 1511.8 700.825C1512.45 700.562 1513.14 700.432 1513.84 700.442C1514.54 700.452 1515.23 700.601 1515.87 700.882C1516.51 701.163 1517.09 701.569 1517.57 702.076C1518.05 702.584 1518.42 703.182 1518.66 703.836L1528.44 727.912C1529.87 731.451 1530.9 732.654 1532.29 732.087C1533.72 731.516 1533.48 730.308 1533.14 729.331L1525.78 708.518C1525.44 707.351 1525.55 706.096 1526.1 705.012C1526.66 703.928 1527.61 703.097 1528.75 702.692C1529.9 702.286 1531.16 702.336 1532.27 702.832C1533.38 703.328 1534.26 704.231 1534.73 705.356L1542.73 728.012L1542.73 728.016L1542.73 728.021L1547.53 741.607C1548.52 744.159 1549.57 746.544 1550.83 748.851C1558.23 762.391 1557.3 776.031 1556.79 779.027Z" fill="#ABCC63"/>
</g>
<g clip-path="url(#clip15_9_2)">
<path d="M766.732 451.753C766.71 452.668 766.338 453.789 765.364 454.422C764.662 454.879 741.391 469.96 740.668 470.403C738.604 471.679 736.91 471.709 735.613 471.113C733.638 470.211 711.904 463.383 688.807 469.089C686.339 469.703 684.749 460.124 691.7 458.026C696.463 456.589 711.432 455.848 712.604 453.656C713.508 451.963 711.775 444.093 702.311 432.304L683.279 408.607C682.473 407.522 682.119 406.166 682.292 404.826C682.464 403.485 683.149 402.263 684.203 401.417C685.258 400.571 686.599 400.166 687.945 400.288C689.291 400.41 690.538 401.049 691.423 402.071L708.035 422.748C709.652 424.767 711.054 425.295 712.149 424.442C713.128 423.687 713.135 422.88 711.791 420.847L693.29 394.948C692.891 394.39 692.606 393.76 692.45 393.092C692.295 392.425 692.273 391.733 692.385 391.057C692.498 390.381 692.742 389.734 693.105 389.152C693.467 388.571 693.941 388.066 694.498 387.668C695.055 387.268 695.686 386.981 696.354 386.825C697.022 386.669 697.715 386.646 698.391 386.758C699.068 386.871 699.716 387.115 700.298 387.479C700.88 387.842 701.385 388.316 701.783 388.875L719.377 413.502C720.929 415.666 722.181 416.667 723.384 415.667C724.106 415.068 723.666 413.817 723.112 412.777L708.671 388.562C708.297 387.972 708.045 387.314 707.93 386.625C707.814 385.936 707.838 385.231 708 384.552C708.162 383.873 708.458 383.233 708.872 382.67C709.285 382.107 709.807 381.633 710.407 381.275C711.007 380.917 711.672 380.684 712.364 380.588C713.055 380.491 713.759 380.535 714.434 380.716C715.108 380.896 715.74 381.21 716.291 381.639C716.842 382.068 717.302 382.602 717.643 383.212L730.957 405.527C732.908 408.808 734.103 409.842 735.4 409.07C736.726 408.288 736.303 407.131 735.814 406.218L725.388 386.761C724.87 385.659 724.794 384.401 725.176 383.246C725.558 382.091 726.369 381.126 727.442 380.551C728.515 379.976 729.767 379.835 730.941 380.156C732.115 380.478 733.12 381.238 733.75 382.279L745.093 403.46L745.099 403.464L745.1 403.468L751.9 416.171C753.263 418.543 754.668 420.741 756.26 422.83C765.626 435.092 766.781 448.714 766.732 451.753Z" fill="#ABCC63"/>
</g>
<g clip-path="url(#clip16_9_2)">
<path d="M1253.4 521.965C1252.94 522.756 1252.07 523.557 1250.92 523.641C1250.08 523.703 1222.42 525.666 1221.57 525.704C1219.15 525.824 1217.65 525.033 1216.8 523.884C1215.51 522.14 1199.78 505.663 1176.8 499.501C1174.34 498.847 1177.58 489.692 1184.68 491.213C1189.54 492.255 1203 498.837 1205.09 497.484C1206.7 496.438 1208.98 488.71 1206.39 473.817L1201.18 443.874C1200.99 442.535 1201.34 441.177 1202.14 440.086C1202.94 438.996 1204.13 438.257 1205.46 438.025C1206.79 437.794 1208.16 438.087 1209.28 438.844C1210.4 439.601 1211.18 440.763 1211.46 442.085L1216.02 468.215C1216.46 470.764 1217.43 471.903 1218.8 471.685C1220.03 471.497 1220.42 470.794 1220.23 468.364L1216.54 436.75C1216.46 436.069 1216.51 435.38 1216.7 434.72C1216.89 434.061 1217.2 433.445 1217.63 432.907C1218.05 432.369 1218.58 431.92 1219.18 431.586C1219.77 431.252 1220.43 431.039 1221.11 430.96C1221.79 430.878 1222.49 430.932 1223.15 431.118C1223.81 431.304 1224.42 431.619 1224.96 432.044C1225.5 432.469 1225.95 432.997 1226.28 433.596C1226.62 434.195 1226.83 434.854 1226.91 435.536L1230.42 465.598C1230.73 468.242 1231.34 469.724 1232.88 469.429C1233.8 469.253 1234.02 467.945 1234.04 466.768L1233.09 438.589C1233.05 437.892 1233.15 437.193 1233.38 436.535C1233.61 435.876 1233.97 435.27 1234.44 434.754C1234.91 434.237 1235.48 433.82 1236.11 433.527C1236.75 433.234 1237.43 433.071 1238.13 433.047C1238.83 433.024 1239.52 433.141 1240.18 433.391C1240.83 433.641 1241.42 434.019 1241.93 434.503C1242.43 434.987 1242.83 435.566 1243.11 436.208C1243.38 436.85 1243.53 437.54 1243.53 438.239L1244.41 464.209C1244.53 468.024 1245.08 469.507 1246.59 469.457C1248.13 469.413 1248.32 468.196 1248.33 467.16L1248.6 445.087C1248.68 443.873 1249.22 442.735 1250.11 441.908C1251 441.08 1252.18 440.628 1253.4 440.642C1254.61 440.657 1255.78 441.138 1256.65 441.987C1257.52 442.835 1258.04 443.986 1258.09 445.202L1257.78 469.228L1257.79 469.234L1257.79 469.239L1257.6 483.645C1257.65 486.381 1257.82 488.984 1258.21 491.582C1260.48 506.843 1254.91 519.328 1253.4 521.965Z" fill="#ABCC63"/>
</g>
<g clip-path="url(#clip17_9_2)">
<path d="M1409.72 465.429C1409.64 466.341 1409.21 467.437 1408.2 468.011C1407.47 468.425 1383.33 482.082 1382.58 482.48C1380.45 483.63 1378.75 483.559 1377.5 482.886C1375.58 481.866 1354.29 473.746 1330.9 478.055C1328.4 478.52 1327.38 468.862 1334.45 467.186C1339.29 466.038 1354.27 466.197 1355.58 464.079C1356.58 462.443 1355.32 454.483 1346.58 442.147L1329.01 417.35C1328.27 416.219 1328 414.844 1328.25 413.517C1328.5 412.189 1329.26 411.01 1330.36 410.229C1331.47 409.448 1332.83 409.124 1334.17 409.327C1335.5 409.529 1336.71 410.242 1337.53 411.315L1352.87 432.952C1354.36 435.065 1355.73 435.675 1356.88 434.89C1357.9 434.195 1357.95 433.391 1356.73 431.28L1339.82 404.317C1339.46 403.736 1339.21 403.09 1339.1 402.414C1338.98 401.739 1339 401.047 1339.15 400.379C1339.3 399.711 1339.59 399.079 1339.98 398.521C1340.38 397.962 1340.88 397.487 1341.46 397.123C1342.05 396.756 1342.69 396.508 1343.37 396.393C1344.04 396.277 1344.74 396.296 1345.41 396.449C1346.07 396.601 1346.71 396.884 1347.27 397.282C1347.82 397.679 1348.3 398.183 1348.66 398.765L1364.75 424.404C1366.17 426.657 1367.36 427.732 1368.62 426.806C1369.37 426.251 1369.01 424.975 1368.52 423.905L1355.56 398.866C1355.22 398.255 1355.01 397.582 1354.93 396.888C1354.86 396.193 1354.93 395.491 1355.13 394.823C1355.33 394.155 1355.67 393.534 1356.11 392.997C1356.56 392.46 1357.11 392.018 1357.73 391.697C1358.35 391.376 1359.03 391.182 1359.72 391.128C1360.42 391.073 1361.12 391.159 1361.78 391.38C1362.44 391.6 1363.06 391.952 1363.58 392.413C1364.1 392.874 1364.53 393.435 1364.84 394.064L1376.79 417.138C1378.54 420.531 1379.67 421.635 1381.01 420.941C1382.38 420.241 1382.03 419.06 1381.59 418.12L1372.35 398.072C1371.9 396.941 1371.9 395.681 1372.35 394.551C1372.8 393.42 1373.67 392.506 1374.78 391.997C1375.88 391.487 1377.14 391.421 1378.29 391.813C1379.45 392.204 1380.4 393.023 1380.97 394.1L1391.02 415.924L1391.03 415.928L1391.03 415.933L1397.05 429.02C1398.27 431.47 1399.54 433.748 1401 435.93C1409.62 448.732 1409.95 462.399 1409.72 465.429Z" fill="#ABCC63"/>
</g>
<g clip-path="url(#clip18_9_2)">
<path d="M1529.4 450.86C1528.71 451.465 1527.64 451.953 1526.51 451.668C1525.7 451.462 1498.83 444.615 1498.01 444.385C1495.67 443.735 1494.5 442.513 1494.06 441.156C1493.38 439.093 1483.64 418.5 1463.77 405.416C1461.64 404.021 1467.6 396.35 1473.85 400.029C1478.14 402.551 1488.85 413.038 1491.25 412.41C1493.11 411.924 1497.71 405.309 1499.94 390.357L1504.42 360.295C1504.67 358.967 1505.43 357.786 1506.53 357.003C1507.63 356.219 1508.99 355.893 1510.33 356.092C1511.67 356.292 1512.87 357.002 1513.7 358.073C1514.52 359.144 1514.9 360.493 1514.75 361.837L1510.85 388.072C1510.46 390.63 1511.03 392.017 1512.4 392.243C1513.61 392.449 1514.21 391.906 1514.79 389.539L1521.25 358.371C1521.39 357.7 1521.65 357.063 1522.04 356.496C1522.42 355.928 1522.92 355.443 1523.49 355.066C1524.06 354.69 1524.7 354.43 1525.38 354.301C1526.05 354.172 1526.74 354.178 1527.41 354.317C1528.08 354.454 1528.72 354.722 1529.29 355.107C1529.86 355.491 1530.35 355.984 1530.72 356.557C1531.1 357.13 1531.36 357.772 1531.49 358.446C1531.62 359.12 1531.61 359.813 1531.47 360.484L1525.34 390.122C1524.8 392.731 1524.92 394.33 1526.47 394.534C1527.4 394.657 1528.02 393.485 1528.4 392.372L1536.38 365.329C1536.56 364.654 1536.87 364.022 1537.3 363.47C1537.72 362.917 1538.26 362.457 1538.87 362.114C1539.48 361.772 1540.15 361.555 1540.84 361.476C1541.53 361.398 1542.24 361.459 1542.91 361.657C1543.58 361.854 1544.2 362.184 1544.74 362.627C1545.28 363.069 1545.73 363.615 1546.05 364.233C1546.38 364.851 1546.58 365.528 1546.63 366.224C1546.69 366.92 1546.61 367.62 1546.4 368.284L1539.05 393.21C1537.97 396.87 1538.02 398.449 1539.47 398.877C1540.94 399.32 1541.5 398.224 1541.84 397.245L1549.05 376.38C1549.51 375.252 1550.38 374.342 1551.49 373.839C1552.59 373.335 1553.85 373.275 1555 373.672C1556.15 374.07 1557.11 374.893 1557.67 375.973C1558.23 377.053 1558.35 378.307 1558.02 379.477L1550.17 402.185L1550.17 402.192L1550.17 402.196L1545.46 415.813C1544.64 418.424 1543.98 420.948 1543.53 423.535C1540.88 438.737 1531.67 448.833 1529.4 450.86Z" fill="#ABCC63"/>
</g>
<g clip-path="url(#clip19_9_2)">
<path d="M1668.87 414.283C1668.41 415.074 1667.54 415.875 1666.39 415.959C1665.55 416.02 1637.89 417.983 1637.04 418.021C1634.62 418.141 1633.12 417.35 1632.27 416.202C1630.98 414.457 1615.25 397.98 1592.27 391.819C1589.81 391.164 1593.05 382.009 1600.14 383.53C1605.01 384.572 1618.47 391.155 1620.56 389.802C1622.17 388.756 1624.45 381.028 1621.86 366.134L1616.64 336.191C1616.46 334.852 1616.81 333.494 1617.61 332.404C1618.4 331.313 1619.59 330.574 1620.93 330.343C1622.26 330.111 1623.63 330.405 1624.75 331.162C1625.87 331.919 1626.65 333.08 1626.93 334.402L1631.49 360.532C1631.93 363.081 1632.9 364.22 1634.27 364.002C1635.49 363.814 1635.89 363.112 1635.7 360.682L1632.01 329.067C1631.93 328.387 1631.98 327.697 1632.17 327.038C1632.36 326.378 1632.67 325.762 1633.1 325.224C1633.52 324.686 1634.05 324.238 1634.65 323.904C1635.24 323.57 1635.9 323.357 1636.58 323.277C1637.26 323.196 1637.95 323.25 1638.61 323.436C1639.27 323.622 1639.89 323.936 1640.43 324.361C1640.97 324.787 1641.42 325.314 1641.75 325.913C1642.09 326.512 1642.3 327.172 1642.38 327.853L1645.89 357.916C1646.2 360.56 1646.81 362.041 1648.35 361.746C1649.27 361.571 1649.49 360.263 1649.51 359.085L1648.56 330.906C1648.52 330.209 1648.61 329.511 1648.85 328.852C1649.08 328.193 1649.44 327.588 1649.91 327.071C1650.38 326.555 1650.95 326.137 1651.58 325.844C1652.22 325.551 1652.9 325.388 1653.6 325.365C1654.3 325.341 1654.99 325.458 1655.65 325.708C1656.3 325.958 1656.89 326.336 1657.4 326.82C1657.9 327.304 1658.3 327.884 1658.58 328.526C1658.85 329.167 1659 329.858 1659 330.556L1659.88 356.526C1660 360.342 1660.55 361.824 1662.06 361.774C1663.6 361.731 1663.78 360.513 1663.8 359.478L1664.07 337.405C1664.15 336.19 1664.69 335.052 1665.58 334.225C1666.47 333.398 1667.65 332.945 1668.87 332.96C1670.08 332.975 1671.25 333.456 1672.12 334.304C1672.99 335.153 1673.51 336.304 1673.55 337.52L1673.25 361.545L1673.26 361.551L1673.26 361.556L1673.07 375.963C1673.12 378.698 1673.29 381.301 1673.67 383.899C1675.95 399.161 1670.38 411.646 1668.87 414.283Z" fill="#ABCC63"/>
</g>
</g>
</g>
<defs>
<clipPath id="clip0_9_2">
<rect width="1920" height="931" fill="white"/>
</clipPath>
<clipPath id="clip1_9_2">
<rect width="1691.02" height="1954.07" fill="white" transform="translate(1727.18 -416) rotate(77.2892)"/>
</clipPath>
<clipPath id="clip2_9_2">
<rect width="100" height="100" fill="white" transform="translate(486.825 692.168) rotate(-162.592)"/>
</clipPath>
<clipPath id="clip3_9_2">
<rect width="100" height="100" fill="white" transform="translate(485.189 656.798) rotate(17.3781)"/>
</clipPath>
<clipPath id="clip4_9_2">
<rect width="100" height="100" fill="white" transform="translate(608.836 709.37) rotate(-136.232)"/>
</clipPath>
<clipPath id="clip5_9_2">
<rect width="100" height="100" fill="white" transform="translate(1026.17 784.938) rotate(-110.975)"/>
</clipPath>
<clipPath id="clip6_9_2">
<rect width="100" height="100" fill="white" transform="translate(965.756 747.115) rotate(-150.351)"/>
</clipPath>
<clipPath id="clip7_9_2">
<rect width="100" height="100" fill="white" transform="translate(842.834 700.26) rotate(-136.232)"/>
</clipPath>
<clipPath id="clip8_9_2">
<rect width="100" height="100" fill="white" transform="translate(737.432 781.465) rotate(-136.232)"/>
</clipPath>
<clipPath id="clip9_9_2">
<rect width="100" height="100" fill="white" transform="translate(1249.69 835.674) rotate(-136.232)"/>
</clipPath>
<clipPath id="clip10_9_2">
<rect width="100" height="100" fill="white" transform="translate(1423.96 790.191) rotate(179.07)"/>
</clipPath>
<clipPath id="clip11_9_2">
<rect width="100" height="100" fill="white" transform="translate(1628.21 675.846) rotate(-149.641)"/>
</clipPath>
<clipPath id="clip12_9_2">
<rect width="100" height="100" fill="white" transform="translate(1723.42 752.045) rotate(-118.833)"/>
</clipPath>
<clipPath id="clip13_9_2">
<rect width="100" height="100" fill="white" transform="translate(1061.16 414.777) rotate(39.2487)"/>
</clipPath>
<clipPath id="clip14_9_2">
<rect width="100" height="100" fill="white" transform="translate(1455.91 705.893) rotate(-8.07145)"/>
</clipPath>
<clipPath id="clip15_9_2">
<rect width="100" height="100" fill="white" transform="translate(655.922 394.76) rotate(-16.7914)"/>
</clipPath>
<clipPath id="clip16_9_2">
<rect width="100" height="100" fill="white" transform="translate(1183.91 418.534) rotate(12.0944)"/>
</clipPath>
<clipPath id="clip17_9_2">
<rect width="100" height="100" fill="white" transform="translate(1302.53 401.885) rotate(-13.3494)"/>
</clipPath>
<clipPath id="clip18_9_2">
<rect width="100" height="100" fill="white" transform="translate(1484.98 334.68) rotate(20.9556)"/>
</clipPath>
<clipPath id="clip19_9_2">
<rect width="100" height="100" fill="white" transform="translate(1599.38 310.852) rotate(12.0944)"/>
</clipPath>
</defs>
</svg>
