<svg width="1366" height="619" viewBox="0 0 1366 619" fill="none" xmlns="http://www.w3.org/2000/svg">
<path d="M682.987 256.851C682.572 257.474 682.312 258.149 682.468 258.356C682.831 258.979 685.53 257.889 686.62 256.695C687.502 255.761 687.45 255.709 685.634 255.709C684.336 255.709 683.558 256.021 682.987 256.851Z" fill="black" fill-opacity="0.9"/>
<path d="M667.987 258.512C667.831 258.927 667.884 259.446 668.143 259.602C668.818 260.017 669.389 258.823 668.766 258.2C668.454 257.889 668.195 257.993 667.987 258.512Z" fill="black" fill-opacity="0.9"/>
<path d="M676.707 259.031C672.762 260.588 668.922 262.508 665.133 264.896C660.41 267.906 647.382 277.196 647.642 277.404C648.213 277.975 651.379 276.626 655.272 274.134C657.659 272.629 660.669 271.02 661.967 270.605C663.783 269.982 664.25 269.567 664.25 268.633C664.25 267.543 664.614 267.335 666.794 267.024C668.143 266.816 670.479 266.09 671.932 265.363C675.825 263.494 682.156 257.681 680.236 257.785C679.977 257.837 678.419 258.356 676.707 259.031Z" fill="black" fill-opacity="0.9"/>
<path d="M702.502 258.668C702.606 259.29 703.125 259.602 703.955 259.602C704.786 259.602 705.305 259.29 705.409 258.668C705.564 257.993 705.253 257.785 703.955 257.785C702.658 257.785 702.346 257.993 702.502 258.668Z" fill="black" fill-opacity="0.9"/>
<path d="M662.693 261.211C661.707 262.197 661.915 262.612 663.161 262.145C663.628 261.989 663.991 261.522 663.991 261.107C663.991 260.173 663.732 260.173 662.693 261.211Z" fill="black" fill-opacity="0.9"/>
<path d="M682.935 262.456C680.392 263.287 677.278 264.221 676.084 264.532C674.735 264.844 673.801 265.467 673.593 266.09C673.074 267.699 670.531 269.515 666.69 270.968C663.991 272.006 662.486 272.992 660.617 274.965C658.697 276.989 656.673 278.286 651.327 280.881C644.424 284.255 640.635 286.85 640.635 288.2C640.635 289.186 640.739 289.134 644.009 287.577C645.566 286.85 647.694 286.124 648.784 285.968C650.03 285.76 651.535 284.982 652.884 283.736C654.078 282.646 656.206 281.401 657.815 280.881C662.538 279.324 664.303 278.183 667.417 274.653C670.583 271.072 673.074 269.204 674.631 269.204C675.15 269.204 676.603 268.269 677.849 267.076C680.548 264.584 682.935 263.494 685.686 263.494C686.983 263.494 688.021 263.131 688.54 262.56C690.461 260.432 689.267 260.432 682.935 262.456Z" fill="black" fill-opacity="0.9"/>
<path d="M693.315 264.584C691.239 265.051 689.734 266.349 690.253 267.179C690.409 267.439 691.291 267.647 692.277 267.647C693.523 267.647 694.301 267.283 695.08 266.297C696.17 264.896 696.481 263.962 695.807 264.065C695.547 264.117 694.457 264.325 693.315 264.584Z" fill="black" fill-opacity="0.9"/>
<path d="M697.208 265.051C697.208 265.882 697.571 266.089 699.025 266.089C700.478 266.089 700.841 265.882 700.841 265.051C700.841 264.221 700.478 264.013 699.025 264.013C697.571 264.013 697.208 264.221 697.208 265.051Z" fill="black" fill-opacity="0.9"/>
<path d="M706.239 264.792C706.395 265.259 706.55 265.778 706.55 265.882C706.55 265.986 706.913 266.09 707.381 266.09C708.523 266.09 708.055 264.325 706.862 264.117C706.135 263.962 705.979 264.117 706.239 264.792Z" fill="black" fill-opacity="0.9"/>
<path d="M687.503 266.868C687.347 267.335 687.347 267.802 687.503 267.958C687.97 268.425 688.904 267.646 688.904 266.816C688.904 265.83 687.918 265.882 687.503 266.868Z" fill="black" fill-opacity="0.9"/>
<path d="M681.43 268.996C681.119 269.774 682.312 271.228 683.35 271.28C683.921 271.28 683.766 269.463 683.091 268.788C682.26 267.958 681.793 268.01 681.43 268.996Z" fill="black" fill-opacity="0.9"/>
<path d="M696.637 268.685C691.187 268.944 691.135 268.944 689.734 270.605C688.696 271.799 687.866 272.318 686.776 272.318C685.945 272.318 684.388 272.629 683.35 273.044C682.26 273.46 678.731 274.653 675.461 275.691C671.88 276.781 668.091 278.442 665.859 279.792C663.835 281.037 661.603 282.231 660.877 282.439C660.15 282.646 658.645 283.684 657.503 284.722C656.361 285.812 654.441 286.954 653.247 287.317C652.002 287.629 650.548 288.563 649.77 289.445C648.835 290.587 648.005 291.002 646.863 291.002C645.67 291.002 645.151 291.262 644.943 291.989C644.787 292.507 643.594 293.649 642.296 294.532C640.947 295.414 639.182 296.815 638.3 297.75L636.743 299.358L639.078 298.995C642.919 298.424 644.268 297.438 644.268 295.31C644.268 294.272 644.372 294.22 645.566 294.739C647.227 295.466 649.251 294.583 654.129 291.002C655.998 289.653 658.282 288.148 659.216 287.681C660.306 287.11 660.877 286.435 660.877 285.76C660.877 284.826 660.98 284.774 661.655 285.293C662.278 285.812 662.641 285.812 663.057 285.397C663.42 285.034 664.095 284.774 664.562 284.774C665.029 284.774 667.468 283.477 670.011 281.919C674.579 279.013 681.326 276.47 684.284 276.47C685.167 276.47 686.62 275.899 687.502 275.224C689.215 273.927 693.108 272.473 698.246 271.28C701.152 270.553 702.658 269.671 702.346 268.84C702.242 268.633 699.647 268.529 696.637 268.685Z" fill="black" fill-opacity="0.9"/>
<path d="M703.955 268.685C703.955 268.944 704.266 269.204 704.682 269.204C705.097 269.204 705.616 268.944 705.772 268.685C705.927 268.373 705.616 268.166 705.045 268.166C704.422 268.166 703.955 268.373 703.955 268.685Z" fill="black" fill-opacity="0.9"/>
<path d="M675.617 270.241C674.579 270.657 672.088 273.356 672.451 273.667C672.762 273.978 679.095 271.902 679.925 271.228C680.599 270.605 680.599 270.501 679.717 270.19C678.472 269.671 676.966 269.671 675.617 270.241Z" fill="black" fill-opacity="0.9"/>
<path d="M707.017 271.28C702.865 272.006 699.544 274.342 699.907 276.262C700.062 277.093 700.27 277.041 701.412 275.795L702.709 274.342L703.696 275.432C704.941 276.781 705.097 276.781 709.042 274.809L712.415 273.2L716.256 274.134L720.097 275.12L721.446 273.719L722.847 272.37L721.29 271.747C719.422 271.02 710.183 270.657 707.017 271.28Z" fill="black" fill-opacity="0.9"/>
<path d="M688.956 277.352C683.766 278.857 677.693 280.829 675.461 281.712C670.687 283.632 665.029 287.11 662.123 289.86C660.721 291.262 659.528 291.885 658.593 291.885C657.607 291.885 656.413 292.611 654.752 294.22C653.403 295.518 648.836 298.839 644.528 301.642C636.691 306.728 634.771 308.182 628.698 313.32C624.702 316.693 624.546 316.849 624.546 318.406C624.546 320.223 626.155 319.652 627.401 317.368C628.231 315.811 629.009 315.24 631.397 314.358C633.006 313.787 635.082 312.593 635.912 311.763C636.743 310.881 637.989 310.206 638.611 310.206C640.272 310.206 642.815 308.078 644.787 305.068C645.67 303.614 646.708 302.421 647.071 302.421C648.628 302.421 653.455 299.514 659.579 294.947C668.558 288.148 670.167 287.317 679.717 284.203C684.233 282.75 688.748 280.985 689.734 280.31C692.848 278.183 694.665 277.404 695.859 277.715C697.364 278.079 698.921 276.937 698.661 275.639C698.506 274.653 698.091 274.705 688.956 277.352Z" fill="black" fill-opacity="0.9"/>
<path d="M715.322 277.508C713.713 277.767 709.664 278.65 706.239 279.532C702.865 280.362 698.765 281.193 697.208 281.4C694.146 281.816 692.07 282.646 691.032 283.944C690.409 284.67 690.564 284.774 692.381 284.774C693.523 284.774 698.402 284.047 703.229 283.113C710.91 281.66 713.09 281.452 720.823 281.452C728.609 281.452 730.01 281.556 732.657 282.542C735.563 283.684 735.615 283.684 735.615 282.646C735.615 282.075 735.2 281.504 734.733 281.297C734.214 281.141 732.19 280.207 730.166 279.221C727.207 277.819 725.754 277.456 722.38 277.248C720.097 277.144 716.931 277.248 715.322 277.508Z" fill="black" fill-opacity="0.9"/>
<path d="M714.231 284.255C713.453 284.463 711.533 285.397 710.027 286.279C706.966 288.044 705.408 288.2 701.412 287.265C698.921 286.694 698.661 286.746 697.519 287.836C696.585 288.719 695.807 288.926 694.301 288.822C692.433 288.667 692.277 288.771 692.121 290.172L691.914 291.677L694.872 291.314C696.533 291.158 703.125 289.912 709.613 288.667C725.806 285.449 726.688 285.345 728.66 287.006C729.543 287.784 731.203 288.511 732.397 288.719C734.577 289.082 737.172 288.667 737.172 287.992C737.172 287.369 733.435 285.449 730.477 284.567C727.415 283.684 716.827 283.477 714.231 284.255Z" fill="black" fill-opacity="0.9"/>
<path d="M683.299 286.072C671.361 289.134 654.96 299.618 644.424 310.932C642.4 313.06 640.791 314.358 640.064 314.358C639.442 314.358 637.885 315.5 636.327 317.057C634.822 318.562 632.487 320.638 631.034 321.624C629.632 322.61 627.971 324.271 627.4 325.309C626.518 326.918 626.207 327.126 625.428 326.607C624.65 326.14 624.286 326.295 623.248 327.437C621.899 328.994 619.719 334.34 619.979 335.482C620.082 335.949 622.055 334.392 625.065 331.485C630.566 326.088 637.002 320.846 643.697 316.174C647.123 313.735 648.472 312.438 649.562 310.465C650.341 309.064 651.742 307.248 652.676 306.469C655.998 303.666 666.43 297.334 676.084 292.248C684.233 287.94 689.475 284.774 688.385 284.826C688.229 284.826 685.946 285.397 683.299 286.072Z" fill="black" fill-opacity="0.9"/>
<path d="M714.854 290.483C714.854 291.366 717.346 293.597 719.162 294.376C721.913 295.518 726.065 295.881 727.778 295.154C729.179 294.583 729.491 294.687 731.1 295.881C733.954 298.061 745.425 302.109 746.307 301.227C746.93 300.604 745.373 298.787 744.179 298.787C743.193 298.787 742.83 298.424 742.466 297.075C742.051 295.466 741.844 295.362 734.94 293.234C731.048 292.04 726.429 290.795 724.612 290.483C720.304 289.809 714.854 289.809 714.854 290.483Z" fill="black" fill-opacity="0.9"/>
<path d="M681.378 291.936C678.056 293.078 675.305 294.687 669.285 299.047C666.586 300.967 662.382 303.666 659.943 305.119C657.451 306.521 654.441 308.493 653.247 309.479C651.223 311.14 648.576 314.669 649.043 315.136C649.562 315.707 654.96 312.542 660.358 308.493C666.327 303.978 675.565 298.787 681.689 296.504C684.544 295.466 685.063 295.05 685.374 293.649C685.79 292.144 685.997 292.04 688.125 292.04C689.371 292.04 690.564 291.781 690.72 291.521C691.239 290.639 684.18 290.95 681.378 291.936Z" fill="black" fill-opacity="0.9"/>
<path d="M704.993 293.286C704.266 293.753 702.346 294.116 700.582 294.116C696.948 294.116 696.325 294.428 695.703 296.504L695.288 298.061L703.125 297.853C710.702 297.646 714.854 297.127 714.854 296.244C714.854 296.037 714.18 295.206 713.297 294.376C711.429 292.611 707.121 292.04 704.993 293.286Z" fill="black" fill-opacity="0.9"/>
<path d="M715.374 296.815C715.374 298.372 716.152 299.514 716.827 299.099C717.138 298.891 718.176 299.462 719.162 300.293C720.512 301.487 722.328 302.213 727.311 303.459C734.94 305.379 736.809 306.105 739.404 308.182C740.909 309.427 741.688 309.687 742.829 309.427C743.971 309.168 744.646 309.427 745.892 310.465C746.722 311.192 747.656 311.763 747.968 311.763C748.85 311.763 749.161 310.102 748.486 309.272C747.137 307.663 740.131 303.459 736.238 301.954C731.826 300.293 717.086 295.673 716.048 295.673C715.685 295.673 715.374 296.193 715.374 296.815Z" fill="black" fill-opacity="0.9"/>
<path d="M689.942 297.23C679.717 299.358 668.922 305.016 657.607 314.306C653.248 317.887 652.054 318.562 652.054 317.472C652.054 316.746 649.822 316.797 649.043 317.576C648.68 317.939 648.421 318.718 648.421 319.34C648.421 320.742 647.59 321.417 647.175 320.327C646.76 319.185 645.099 319.393 643.957 320.638C643.438 321.261 640.272 323.908 637.002 326.555C630.774 331.538 625.636 336.728 624.286 339.323C623.612 340.568 623.248 340.776 622.21 340.516C621.172 340.257 620.757 340.516 619.875 342.022C619.252 343.008 618.473 343.994 618.058 344.15C617.643 344.305 617.02 345.395 616.709 346.589C616.19 348.25 615.671 348.924 614.321 349.495C612.349 350.274 611.57 351.623 612.66 352.298C614.581 353.492 618.266 350.118 619.356 346.226C620.03 343.942 620.601 343.734 621.017 345.655C621.12 346.433 622.314 345.655 626.778 342.022C629.892 339.53 632.85 337.246 633.369 336.987C633.888 336.676 634.719 335.742 635.238 334.911C637.885 330.344 642.089 327.022 651.794 321.624C655.531 319.548 660.981 316.019 663.991 313.787C671.101 308.545 674.89 306.261 678.005 305.483C679.717 305.068 680.703 304.445 681.17 303.562C682.053 301.954 684.544 300.708 686.101 301.071C686.828 301.279 687.866 301.071 688.54 300.656C689.163 300.241 690.564 299.722 691.603 299.566C693.679 299.151 694.821 298.217 694.509 297.075C694.405 296.452 693.679 296.452 689.942 297.23Z" fill="black" fill-opacity="0.9"/>
<path d="M697.364 301.071C693.731 301.901 692.537 302.473 689.786 304.652C688.229 305.846 687.658 306.054 687.347 305.535C686.672 304.497 682.52 305.223 678.887 307.04C677.122 307.922 672.866 310.777 669.441 313.372C665.963 316.019 661.292 319.029 658.801 320.171C653.87 322.558 648.68 326.451 640.635 333.821C637.625 336.624 634.407 339.478 633.473 340.153C632.331 341.087 631.604 342.229 631.241 343.786C630.566 346.381 629.944 347.004 629.477 345.499C629.009 343.994 628.179 344.201 628.179 345.862C628.179 347.834 627.66 349.651 627.089 349.651C626.83 349.651 626.622 349.08 626.622 348.354C626.622 347.627 626.414 347.056 626.103 347.056C625.843 347.056 625.584 347.419 625.584 347.887C625.584 348.354 624.857 348.976 624.027 349.288C622.522 349.859 622.418 350.014 622.729 351.831C623.093 353.803 623.093 353.803 621.484 353.492C620.186 353.232 619.615 353.44 618.318 354.738C617.072 355.983 616.761 356.762 616.761 358.474C616.761 360.499 616.813 360.602 618.162 360.446C619.46 360.291 619.615 360.083 619.563 358.319C619.511 356.346 620.186 355.879 621.328 357.021C621.847 357.54 623.196 356.45 627.816 351.571C631.241 347.99 634.563 344.98 635.912 344.305C637.573 343.423 638.403 342.644 638.819 341.347C639.286 339.946 641.154 338.336 648.991 332.627C654.234 328.787 661.811 323.026 665.807 319.808C674.008 313.268 676.499 311.503 680.599 309.427C683.039 308.182 683.61 308.078 685.011 308.597C686.776 309.22 689.319 308.701 699.544 305.535C702.658 304.601 705.564 303.978 706.81 304.081C708.626 304.237 708.886 304.081 709.042 303.095C709.197 302.213 708.886 301.746 707.952 301.434C705.564 300.5 700.634 300.344 697.364 301.071Z" fill="black" fill-opacity="0.9"/>
<path d="M712.519 300.76C710.599 301.175 709.664 302.369 710.287 303.718C710.754 304.756 711.325 304.912 714.907 305.223C718.228 305.535 719.318 305.846 720.564 306.884C722.328 308.389 723.885 308.338 724.093 306.832C724.352 304.912 715.374 300.189 712.519 300.76Z" fill="black" fill-opacity="0.9"/>
<path d="M727.57 306.054C727.207 306.676 727.674 307.611 728.401 307.611C729.023 307.611 729.023 306.209 728.401 305.794C728.141 305.638 727.778 305.742 727.57 306.054Z" fill="black" fill-opacity="0.9"/>
<path d="M730.84 308.234C730.685 309.895 730.633 309.946 728.609 309.791C725.754 309.583 720.979 308.752 716.775 307.766C711.844 306.625 704.838 307.092 697.468 309.168C694.354 309.998 688.489 311.555 684.44 312.489C674.475 314.929 668.662 317.68 667.053 320.742C666.534 321.676 666.638 321.676 668.247 321.365C669.181 321.157 672.347 320.171 675.254 319.237C678.939 317.991 681.482 317.472 683.714 317.472C686.62 317.472 687.036 317.316 688.229 315.915C689.06 314.929 689.994 314.358 690.876 314.358C691.603 314.358 695.703 313.631 700.011 312.749C709.976 310.725 714.024 310.621 718.124 312.489C721.498 313.995 723.055 314.15 724.456 313.112C725.287 312.489 725.702 312.645 727.726 314.046C729.699 315.448 730.425 315.656 733.332 315.656C735.148 315.656 736.653 315.811 736.653 316.019C736.653 316.849 739.248 318.043 742.311 318.562C744.958 319.029 746.151 319.6 748.695 321.676C751.549 323.96 754.3 324.998 754.3 323.752C754.3 322.922 746.203 315.656 743.245 313.943C741.636 312.956 738.781 311.659 736.809 311.036C733.85 310.05 733.176 309.583 732.553 308.234C731.567 306.105 731.048 306.158 730.84 308.234Z" fill="black" fill-opacity="0.9"/>
<path d="M704.734 316.382C701.879 317.68 701.464 317.783 700.478 317.109C699.44 316.382 699.076 316.434 696.897 317.68C695.443 318.51 693.679 319.029 692.433 319.029C690.253 319.029 682.572 321.52 682.209 322.299C681.689 323.544 678.679 326.451 676.915 327.385C675.773 327.956 672.399 329.202 669.337 330.188C662.642 332.368 658.541 335.015 651.846 341.347C647.694 345.291 632.85 361.64 632.85 362.315C632.85 362.419 633.732 362.315 634.77 362.003C637.885 361.173 640.843 358.682 646.708 352.091C650.289 348.094 653.818 344.72 656.932 342.437C662.797 338.077 678.056 328.891 679.406 328.891C679.925 328.891 681.897 328.06 683.817 327.074C685.686 326.036 689.06 324.79 691.239 324.219C693.419 323.648 696.585 322.351 698.298 321.313C701.308 319.444 701.412 319.393 705.512 319.704C707.848 319.86 709.976 320.223 710.339 320.483C710.703 320.794 712.83 321.001 715.114 321.053C718.332 321.053 720.564 321.468 725.235 322.922C728.505 323.908 732.293 324.738 733.591 324.738C735.096 324.738 736.238 325.05 736.653 325.517C737.536 326.607 741.636 328.891 742.674 328.891C743.141 328.891 744.905 329.825 746.618 330.966C748.331 332.108 750.148 333.042 750.615 333.042C751.082 333.042 751.912 333.717 752.379 334.548C753.366 336.26 755.13 337.091 756.013 336.209C756.947 335.274 755.649 333.406 751.653 329.877C749.577 328.06 746.722 325.361 745.321 323.96C743.919 322.507 742.881 321.78 743.089 322.247C743.245 322.766 743.556 323.597 743.764 324.064C744.075 324.946 744.023 324.946 743.037 324.064C742.466 323.597 741.74 323.181 741.428 323.181C741.117 323.181 740.183 322.61 739.352 321.884C738.47 321.105 736.601 320.379 734.992 320.067C733.487 319.756 730.01 318.873 727.311 318.043C718.903 315.448 716.152 314.877 711.948 314.877C708.523 314.877 707.329 315.136 704.734 316.382Z" fill="black" fill-opacity="0.9"/>
<path d="M674.994 321.365C666.015 323.026 663.057 324.375 657.192 329.409C654.908 331.382 651.379 333.873 649.407 334.911C644.009 337.766 635.86 347.004 630.618 356.242C628.958 359.149 628.179 360.031 627.4 359.928C626.674 359.824 626.311 360.135 626.207 360.914C625.895 362.938 627.66 362.315 632.227 358.838C633.784 357.696 638.144 353.077 641.933 348.665C648.732 340.672 652.728 336.987 658.282 333.458C663.161 330.344 670.479 326.918 673.801 326.14C677.174 325.361 678.679 324.323 679.873 322.04C680.755 320.327 680.807 320.327 674.994 321.365Z" fill="black" fill-opacity="0.9"/>
<path d="M637.158 323.441C637.002 323.908 637.002 324.375 637.158 324.531C637.625 324.998 638.559 324.219 638.559 323.389C638.559 322.403 637.573 322.454 637.158 323.441Z" fill="black" fill-opacity="0.9"/>
<path d="M698.506 324.998C674.787 332.42 662.746 339.79 642.193 359.357C637.677 363.664 636.328 364.703 635.03 364.703C633.681 364.703 633.369 365.014 632.124 367.765C631.397 369.426 630.774 371.138 630.774 371.501C630.774 372.021 630.567 371.969 629.944 371.346C629.165 370.619 628.75 370.827 624.65 373.734C621.795 375.758 619.719 377.678 618.889 379.079C618.162 380.273 617.176 381.415 616.709 381.571C616.294 381.726 615.411 382.764 614.737 383.906C614.114 385.048 613.18 386.242 612.712 386.605C612.141 387.072 611.778 388.162 611.674 389.719C611.622 391.12 611.674 392.21 611.83 392.21C611.934 392.21 613.75 390.861 615.775 389.2C618.214 387.28 619.875 385.515 620.446 384.166C620.965 383.024 621.432 382.401 621.432 382.712C621.432 383.076 621.588 383.387 621.847 383.387C622.055 383.387 625.117 380.532 628.698 377.003C632.279 373.526 639.286 367.038 644.269 362.678C649.251 358.267 656.05 352.194 659.32 349.184C663.42 345.343 666.067 343.371 667.676 342.748C669.026 342.229 672.866 340.153 676.24 338.129C687.814 331.226 693.056 329.513 704.475 329.046C713.609 328.683 721.446 329.981 732.19 333.613C741.324 336.676 742.778 337.402 743.349 338.907C743.66 339.686 744.231 340.049 745.373 340.101C746.411 340.153 748.02 341.036 749.992 342.593C752.847 344.824 754.923 345.551 755.546 344.565C756.013 343.838 750.719 337.299 748.124 335.43C744.75 332.939 742.259 331.953 739.197 331.901C736.757 331.849 736.653 331.745 736.653 330.395C736.653 328.994 736.55 328.942 734.993 329.254C734.058 329.461 732.709 329.617 731.982 329.669C730.84 329.669 730.685 329.461 730.685 327.697C730.685 326.659 730.529 325.776 730.321 325.776C730.062 325.776 729.906 326.088 729.906 326.503C729.906 328.008 728.764 327.904 724.041 325.932C719.578 324.064 718.903 323.96 713.817 323.908C710.651 323.908 707.9 323.648 707.225 323.285C705.876 322.507 707.069 322.299 698.506 324.998Z" fill="black" fill-opacity="0.9"/>
<path d="M632.279 327.281C630.618 328.994 630.151 330.551 631.708 329.358C633.577 327.956 634.926 326.607 634.926 326.191C634.926 325.361 633.784 325.828 632.279 327.281Z" fill="black" fill-opacity="0.9"/>
<path d="M707.329 331.849C706.187 331.952 701.62 332.524 697.26 333.095C689.734 334.081 689.111 334.236 687.399 335.742C685.375 337.558 683.61 338.336 679.717 339.271C676.188 340.049 672.762 342.177 665.808 347.783C662.693 350.274 658.801 353.025 657.244 353.803C655.479 354.685 653.403 356.398 651.742 358.319C647.59 363.093 640.687 369.893 630.047 379.754L620.29 388.837L620.601 391.795C620.913 395.065 620.134 396.414 619.563 393.508C619.408 392.522 619.096 391.691 618.889 391.691C618.318 391.743 617.02 392.989 615.307 395.169C614.321 396.466 613.128 397.401 612.557 397.401C611.674 397.401 611.571 397.66 611.882 399.165C612.297 401.501 611.674 402.591 610.74 401.293C610.065 400.411 609.962 400.463 609.235 402.227C608.301 404.459 608.197 409.13 609.079 409.649C609.806 410.116 612.141 407.314 611.986 406.224C611.882 405.809 611.311 405.393 610.636 405.289C608.197 404.926 609.806 403.629 612.66 403.629C614.996 403.629 616.501 401.76 616.968 398.438C617.332 396.051 617.435 395.791 617.851 396.726C618.058 397.401 618.577 397.919 618.992 397.919C619.356 397.919 621.276 395.895 623.248 393.352C625.221 390.861 630.099 385.515 634.096 381.467C639.442 375.913 641.206 373.837 640.999 373.111C640.791 372.28 641.206 371.969 642.919 371.45C644.632 370.983 646.344 369.477 651.535 364.132C655.116 360.446 658.438 357.436 658.905 357.436C659.839 357.436 663.005 354.582 664.977 351.987C665.704 351.001 666.223 350.637 666.379 351.052C666.846 352.091 667.468 351.883 670.323 349.599C673.801 346.9 677.641 344.928 685.79 341.866C689.371 340.516 693.731 338.7 695.391 337.921C698.402 336.468 698.713 336.416 706.81 336.416H715.114L723.159 339.426C728.245 341.347 732.553 342.593 734.837 342.904C739.664 343.475 739.819 343.527 742.57 347.056C744.905 350.014 747.034 351.312 751.809 352.505C753.573 352.973 754.456 353.803 756.013 356.242C757.414 358.422 758.452 359.097 758.452 357.799C758.452 356.242 754.3 350.274 751.134 347.367C746.67 343.215 741.688 340.776 733.176 338.44C732.813 338.336 732.501 337.714 732.501 336.987C732.501 336.26 732.293 335.534 731.982 335.378C731.723 335.222 731.463 335.43 731.463 335.845C731.463 337.246 730.529 337.246 728.245 335.742C723.107 332.316 716.152 331.018 707.329 331.849Z" fill="black" fill-opacity="0.9"/>
<path d="M706.343 339.167C705.201 340.464 704.422 340.672 695.911 341.606C686.672 342.593 684.752 343.267 679.821 347.315C677.538 349.184 674.06 351.519 672.036 352.609C663.161 357.229 652.884 365.429 647.227 372.488C645.307 374.875 643.075 377.107 642.244 377.47C641.414 377.834 640.116 378.975 639.286 380.013C636.276 383.906 634.355 385.878 633.214 386.19C632.383 386.397 631.397 387.85 629.58 391.432C628.231 394.131 627.141 396.726 627.141 397.141C627.141 398.179 626.622 398.127 625.74 396.985C625.065 396.155 625.013 396.155 624.235 397.141C623.819 397.712 622.781 399.269 621.951 400.618C620.861 402.331 620.082 403.109 619.304 403.109C618.266 403.109 618.214 403.265 618.525 405.653C618.733 407.21 618.629 408.352 618.318 408.559C618.058 408.715 617.799 408.403 617.799 407.833C617.799 406.795 616.916 405.86 616.449 406.379C616.294 406.535 616.346 407.988 616.553 409.649L616.916 412.607L619.771 409.546C621.38 407.885 624.39 404.667 626.466 402.487C628.698 400.151 630.255 398.075 630.255 397.452C630.255 396.726 630.567 396.362 631.293 396.362C632.02 396.362 632.85 395.532 633.888 393.871C634.719 392.522 636.276 390.497 637.366 389.356C638.456 388.214 640.272 385.826 641.414 384.062C642.711 382.089 644.113 380.584 645.151 380.065C646.241 379.546 646.967 378.768 647.175 377.834C647.331 377.055 647.487 376.225 647.538 376.017C647.798 375.031 663.316 362.159 668.403 358.734C677.434 352.713 691.966 345.862 700.582 343.682C706.135 342.281 713.609 342.852 720.823 345.24C724.872 346.589 734.058 351.208 742.881 356.398C751.03 361.173 757.31 364.443 757.725 364.08C757.829 363.976 757.31 362.99 756.583 361.9C755.753 360.706 753.054 358.526 749.421 356.139C746.203 354.011 742.934 351.468 742.155 350.481C741.221 349.236 740.079 348.457 738.677 348.094C737.536 347.783 733.28 346.122 729.283 344.409C720.201 340.62 714.855 338.907 710.599 338.44C707.692 338.181 707.225 338.233 706.343 339.167Z" fill="black" fill-opacity="0.9"/>
<path d="M698.505 347.367C689.527 349.34 680.755 353.336 670.946 359.979C662.07 365.948 657.866 369.893 648.005 381.57C639.026 392.21 638.196 393.093 636.276 394.027C634.77 394.754 632.123 398.854 631.241 401.812C630.774 403.473 630.151 404.407 629.372 404.719C628.75 404.926 627.608 406.12 626.881 407.314C625.636 409.234 625.584 409.493 626.31 410.324C626.777 410.843 627.141 411.518 627.141 411.829C627.141 412.815 628.438 412.556 629.58 411.258C630.151 410.635 631.137 409.182 631.708 408.04C632.279 406.899 633.473 405.445 634.355 404.77C635.237 404.148 636.431 402.642 637.054 401.397C637.677 400.203 639.857 397.452 641.881 395.324C643.905 393.197 647.071 389.2 648.888 386.501C652.521 381.052 654.389 379.183 665.807 369.529C670.115 365.896 674.631 362.003 675.928 360.81C677.9 359.045 678.835 358.578 681.793 358.059C683.765 357.696 687.502 356.45 690.097 355.308C704.111 349.132 706.862 348.769 715.892 351.883C718.903 352.869 722.172 353.855 723.211 354.011C724.197 354.218 727.311 355.827 730.062 357.644C734.992 360.914 738.002 362.471 738.47 362.003C738.625 361.9 738.885 361.017 739.041 360.135C739.3 358.838 739.196 358.422 738.418 358.111C737.847 357.852 735.823 356.606 733.798 355.308C729.231 352.298 723.833 349.547 719.525 348.094C715.01 346.537 703.903 346.174 698.505 347.367Z" fill="black" fill-opacity="0.9"/>
<path d="M698.402 353.232C697.468 353.855 696.689 354.53 696.689 354.789C696.689 355.36 699.648 355.775 703.799 355.827C706.758 355.827 709.353 356.917 710.132 358.422C710.547 359.201 711.481 359.409 714.595 359.616C717.969 359.824 719.214 360.239 723.315 362.263C729.128 365.17 734.11 369.425 744.387 380.221C748.487 384.581 751.912 388.006 752.068 387.85C752.432 387.487 749.785 382.505 746.774 377.937C743.037 372.176 740.183 369.166 737.12 367.661C735.719 366.934 733.799 365.429 732.968 364.391C729.128 359.564 725.495 357.852 711.481 354.27C703.021 352.142 700.53 351.935 698.402 353.232Z" fill="black" fill-opacity="0.9"/>
<path d="M626.622 355.879C626.207 356.71 626.207 356.917 626.83 356.917C627.66 356.917 628.335 355.516 627.66 355.101C627.4 354.945 626.933 355.308 626.622 355.879Z" fill="black" fill-opacity="0.9"/>
<path d="M689.423 357.696C688.021 358.838 686.88 359.409 686.309 359.253C684.181 358.578 677.901 362.523 670.323 369.322C667.572 371.761 662.849 375.861 659.891 378.405C654.026 383.543 650.912 387.02 648.368 391.587C647.434 393.197 645.462 395.844 644.009 397.452C642.556 399.061 640.22 402.072 638.819 404.199C637.469 406.328 636.276 408.144 636.172 408.248C636.068 408.352 635.653 408.196 635.289 407.833C634.407 407.158 633.68 408.092 631.916 412.089C630.307 415.722 628.75 417.694 626.829 418.473C625.791 418.94 625.065 419.562 625.065 420.133C625.065 421.535 623.144 424.338 621.743 425.012C621.016 425.324 620.394 426.05 620.29 426.621C620.186 427.192 619.459 428.074 618.577 428.542C617.383 429.216 616.968 429.839 616.761 431.448C616.553 432.953 616.397 433.264 616.086 432.538C615.515 431.033 614.529 431.811 613.854 434.303C613.543 435.704 613.024 436.534 612.608 436.43C612.193 436.327 612.089 436.586 612.349 437.209C612.556 437.728 612.868 438.558 612.972 439.026C613.439 440.583 614.684 440.064 615.567 437.987C616.553 435.548 616.553 435.548 617.591 436.379C618.525 437.157 618.266 437.417 621.484 432.797C622.366 431.552 623.871 430.099 624.805 429.476C625.947 428.853 627.193 427.348 628.179 425.479C629.061 423.87 630.826 421.275 632.071 419.718C633.369 418.161 635.393 415.254 636.587 413.23C637.781 411.258 639.545 408.611 640.48 407.366C641.414 406.12 642.192 404.511 642.192 403.784C642.192 402.954 642.867 401.864 644.113 400.722C645.151 399.736 646.189 398.958 646.396 398.958C646.604 398.958 648.939 396.311 651.535 393.093C656.569 386.968 659.164 384.373 661.5 383.128C662.434 382.609 663.213 381.467 663.835 379.754C664.666 377.418 665.548 376.328 665.548 377.678C665.548 378.768 666.586 378.093 669.804 374.927C671.88 372.903 674.683 370.827 677.433 369.374C679.873 368.076 683.713 365.689 685.997 364.028L690.149 361.017L696.689 361.173C702.709 361.277 703.332 361.225 705.409 360.031C707.848 358.63 708.159 357.955 706.395 357.955C705.72 357.955 702.969 357.488 700.27 356.917C693.211 355.464 692.018 355.516 689.423 357.696Z" fill="black" fill-opacity="0.9"/>
<path d="M614.01 358.786C613.439 359.824 613.075 362.575 613.439 363.872C613.958 365.948 615.203 364.599 615.203 361.9C615.203 359.772 614.529 358.007 614.01 358.786Z" fill="black" fill-opacity="0.9"/>
<path d="M623.041 359.72C622.625 360.187 622.47 360.706 622.677 360.914C623.144 361.381 624.183 360.239 623.923 359.512C623.819 359.097 623.508 359.149 623.041 359.72Z" fill="black" fill-opacity="0.9"/>
<path d="M738.989 362.211C738.73 363.82 739.041 364.287 744.023 369.477C749.473 375.135 751.238 376.173 753.21 375.083C754.715 374.304 754.611 373.941 752.535 372.799C751.549 372.28 749.162 369.893 747.293 367.505C743.92 363.249 741.065 360.55 739.871 360.55C739.56 360.55 739.144 361.329 738.989 362.211Z" fill="black" fill-opacity="0.9"/>
<path d="M618.369 363.042C617.643 364.391 618.006 365.221 618.888 364.339C619.2 364.028 619.355 363.353 619.252 362.834C619.096 361.952 618.992 361.952 618.369 363.042Z" fill="black" fill-opacity="0.9"/>
<path d="M707.848 362.419C707.277 362.523 703.903 362.834 700.322 363.093C692.381 363.768 690.253 364.391 687.71 366.934C686.257 368.387 685.53 368.803 685.063 368.387C684.596 367.972 683.558 368.647 681.119 370.931C679.302 372.591 677.641 373.889 677.382 373.733C677.174 373.578 675.928 373.941 674.631 374.512C671.621 375.861 658.593 388.94 652.157 397.037C649.666 400.203 645.929 404.822 643.905 407.313C641.829 409.857 640.116 412.037 640.116 412.192C640.116 412.348 639.286 414.217 638.3 416.396C637.313 418.524 636.483 420.652 636.483 421.068C636.483 421.638 636.172 421.742 635.445 421.535C634.718 421.327 634.303 421.483 634.044 422.158C633.888 422.676 632.85 424.285 631.76 425.739C630.618 427.192 629.58 429.06 629.424 429.943C629.217 430.981 628.594 431.759 627.4 432.382C626.414 432.901 623.767 435.392 621.483 437.884C619.2 440.375 616.501 442.814 615.411 443.333C613.543 444.215 613.543 444.268 613.854 446.603C614.01 447.901 614.321 449.094 614.477 449.25C615.255 450.029 617.695 447.693 619.148 444.735C620.29 442.451 620.861 441.672 621.068 442.243C621.276 442.711 621.899 443.074 622.522 443.074C623.56 443.074 623.611 442.866 623.3 440.946C623.041 439.441 623.144 438.921 623.56 439.233C624.13 439.596 629.217 434.562 629.217 433.628C629.217 433.368 629.424 433.264 629.684 433.472C630.566 433.991 633.525 430.462 636.068 425.894C639.078 420.601 639.701 419.822 642.815 417.694C645.254 416.085 646.604 413.594 647.642 408.923C647.849 407.988 648.888 406.172 650.029 404.874C651.119 403.577 652.054 402.072 652.054 401.552C652.054 400.878 652.78 400.151 654.078 399.476C655.375 398.854 657.711 396.518 660.462 393.144C665.652 386.76 669.025 383.854 681.637 374.927C690.461 368.647 691.395 368.128 693.315 368.232C694.457 368.284 697.364 367.972 699.751 367.505C702.139 367.09 704.993 366.882 706.031 367.038C707.744 367.35 708.003 367.246 708.367 366.156C708.678 365.17 708.782 365.117 708.99 365.844C709.301 367.09 710.962 367.505 714.699 367.35C718.747 367.194 721.238 368.232 726.896 372.488C729.179 374.252 731.67 375.758 732.449 375.913C733.487 376.121 734.266 377.055 735.719 379.702C738.574 384.944 743.452 391.172 747.916 395.272C750.096 397.297 751.964 398.854 752.12 398.75C752.223 398.594 751.912 397.297 751.445 395.791C750.719 393.715 749.576 392.054 746.462 388.837C744.179 386.501 742.362 384.166 742.362 383.699C742.362 382.089 739.871 378.923 735.563 375.031C724.197 364.806 715.944 361.017 707.848 362.419Z" fill="black" fill-opacity="0.9"/>
<path d="M748.331 363.716C749.525 367.505 752.587 370.671 754.663 370.256C755.597 370.1 755.857 370.256 755.857 371.034C755.857 372.332 756.791 374.045 757.517 374.045C758.296 374.045 757.621 371.138 756.324 369.01C755.701 368.076 753.936 366.363 752.276 365.273C747.812 362.263 747.916 362.315 748.331 363.716Z" fill="black" fill-opacity="0.9"/>
<path d="M610.013 364.028C610.065 364.754 611.57 366.467 611.882 366.156C612.401 365.585 611.518 363.664 610.74 363.664C610.325 363.664 610.013 363.82 610.013 364.028Z" fill="black" fill-opacity="0.9"/>
<path d="M622.574 364.287C622.21 364.65 621.951 365.637 621.951 366.571C621.951 367.972 621.795 368.18 620.965 367.972C620.446 367.817 619.823 367.972 619.667 368.284C619.459 368.595 618.837 368.854 618.214 368.854C617.332 368.854 617.228 369.062 617.539 369.997C617.747 370.671 617.902 371.709 617.902 372.332C617.902 373.007 618.058 373.526 618.266 373.526C618.837 373.526 620.653 371.398 621.432 369.944C621.899 369.062 622.158 368.907 622.47 369.374C622.781 369.841 623.093 369.841 624.027 369.374C625.013 368.854 625.117 368.491 624.805 367.142C624.598 366.207 624.39 365.066 624.39 364.547C624.338 363.509 623.456 363.405 622.574 364.287Z" fill="black" fill-opacity="0.9"/>
<path d="M626.259 364.235C625.428 365.066 625.377 366.779 626.103 366.779C626.778 366.779 627.297 365.533 627.037 364.443C626.934 363.768 626.778 363.716 626.259 364.235Z" fill="black" fill-opacity="0.9"/>
<path d="M629.113 366.363C627.452 368.232 627.297 368.854 628.438 368.854C629.373 368.854 630.93 366.571 630.67 365.533C630.566 364.91 630.151 365.17 629.113 366.363Z" fill="black" fill-opacity="0.9"/>
<path d="M695.391 370.308C686.516 373.578 686.205 373.733 684.959 375.654C683.35 378.197 680.963 380.117 675.565 383.128C670.271 386.034 666.69 389.2 664.977 392.47C664.25 393.871 663.161 395.013 662.278 395.376C661.448 395.74 659.579 397.401 658.178 399.165C656.725 400.878 654.545 403.058 653.351 403.94C651.119 405.653 649.77 408.04 650.081 409.597C650.341 410.999 655.791 406.691 664.51 398.179C671.672 391.224 676.966 386.813 680.288 385.1C681.482 384.477 682.001 384.425 682.987 384.944C684.389 385.723 685.375 385.203 688.54 382.193C690.253 380.584 690.668 380.429 692.9 380.636C694.301 380.792 696.948 380.532 698.869 380.065C702.346 379.235 702.398 379.235 704.267 380.532C706.55 382.089 709.353 382.66 711.014 381.882C712.779 381.103 712.571 379.546 710.599 378.041C707.069 375.446 704.059 375.083 696.689 376.38C694.25 376.795 690.98 377.159 689.423 377.159C686.724 377.159 686.672 377.107 687.762 376.328C691.499 373.733 701.308 372.176 704.37 373.733C706.343 374.771 707.277 374.771 708.263 373.837C708.938 373.162 709.197 373.318 710.65 375.083C711.637 376.277 713.609 377.73 715.633 378.768C717.501 379.65 719.007 380.74 719.007 381.155C719.007 381.622 719.578 382.609 720.304 383.491C721.031 384.321 721.602 385.307 721.602 385.723C721.602 386.086 722.795 387.176 724.249 388.11C727.83 390.394 731.048 394.39 736.134 402.954C738.522 406.899 741.636 411.725 743.141 413.75C744.646 415.722 746.203 418.421 746.566 419.666C746.982 421.119 748.123 422.832 749.473 424.182C751.082 425.791 752.795 428.697 755.597 434.562C757.777 439.026 759.646 442.555 759.801 442.399C760.268 441.932 758.919 435.652 757.881 433.213C757.31 431.915 756.22 430.202 755.442 429.424C754.403 428.334 754.092 427.555 754.196 426.258C754.403 424.337 753.625 423.455 752.535 424.337C751.964 424.805 751.756 424.597 751.549 423.248C750.77 418.784 750.355 417.798 748.02 414.736C746.618 412.867 742.83 407.366 739.56 402.435C736.29 397.556 731.307 390.809 728.505 387.487C725.65 384.166 722.795 380.74 722.173 379.858C721.342 378.664 720.616 378.197 719.578 378.197C718.436 378.197 717.346 377.366 714.647 374.512C711.948 371.605 710.962 370.879 710.08 371.086C709.353 371.294 708.73 371.034 708.107 370.256C707.329 369.322 706.55 369.114 703.384 368.958C700.166 368.854 698.869 369.062 695.391 370.308Z" fill="black" fill-opacity="0.9"/>
<path d="M713.868 369.944C712.415 370.515 712.467 370.619 716.36 373.214C717.865 374.252 719.733 375.083 720.512 375.083C721.55 375.083 722.121 375.55 723.055 377.159C723.678 378.301 725.546 380.169 727.207 381.363C728.816 382.505 730.736 384.166 731.463 384.944C732.553 386.19 732.916 386.293 733.643 385.775C735.615 384.321 732.553 379.235 729.699 379.235C729.024 379.235 728.038 378.456 727.155 377.159C723.626 372.176 717.086 368.647 713.868 369.944Z" fill="black" fill-opacity="0.9"/>
<path d="M613.906 372.28C613.75 373.578 613.231 375.602 612.816 376.744C612.401 377.937 612.141 378.975 612.245 379.027C612.349 379.131 613.075 378.923 613.854 378.56C614.944 378.093 615.151 377.678 614.944 376.744C614.736 376.017 615.048 375.187 615.722 374.46C616.397 373.681 616.605 373.162 616.241 372.799C615.982 372.54 615.722 371.761 615.722 371.086C615.722 368.854 614.321 369.789 613.906 372.28Z" fill="black" fill-opacity="0.9"/>
<path d="M610.896 373.941C609.235 375.758 608.353 379.858 609.494 380.532C610.065 380.896 610.48 379.91 611.778 375.706C612.557 372.903 612.297 372.332 610.896 373.941Z" fill="black" fill-opacity="0.9"/>
<path d="M750.666 377.626C750.666 379.287 761.047 389.875 761.462 388.577C761.566 388.318 760.787 386.449 759.749 384.425C757.414 380.065 754.455 377.159 752.223 377.159C751.341 377.159 750.666 377.366 750.666 377.626Z" fill="black" fill-opacity="0.9"/>
<path d="M713.401 382.712C713.505 383.595 713.869 384.166 714.336 384.166C714.803 384.166 715.166 383.595 715.27 382.712C715.426 381.57 715.218 381.311 714.336 381.311C713.453 381.311 713.246 381.57 713.401 382.712Z" fill="black" fill-opacity="0.9"/>
<path d="M693.575 383.076C692.537 383.491 690.461 384.425 688.904 385.203C687.347 385.982 684.7 386.968 682.987 387.383C679.042 388.266 678.056 388.992 669.7 397.089L662.693 403.888L662.174 407.625C661.863 409.701 661.811 411.414 662.019 411.414C662.226 411.414 663.472 410.064 664.873 408.456C670.167 402.175 673.541 399.061 675.669 398.49C677.122 398.127 678.056 397.452 678.731 396.311C679.925 394.338 682.468 392.729 684.492 392.729C685.686 392.729 686.62 392.158 688.073 390.705C695.08 383.543 706.758 385.048 721.705 395.013C725.65 397.608 726.169 398.231 727.726 401.345C728.66 403.213 731.878 408.819 734.837 413.801C741.74 425.323 741.895 425.583 741.791 427.866C741.74 428.956 742.311 431.448 743.037 433.472C744.958 438.766 747.034 445.98 747.605 449.458C748.175 453.039 748.85 454.492 749.992 454.492C751.497 454.492 750.407 448.939 747.501 441.413C745.217 435.548 744.75 433.835 744.542 430.099C744.335 425.739 744.283 425.583 739.197 415.566C731.723 400.67 727.57 394.598 721.705 390.03C718.903 387.799 718.591 387.643 717.813 388.421C717.034 389.2 716.827 389.044 714.751 387.02C712.623 384.892 712.363 384.736 709.405 384.685C707.485 384.581 705.409 384.166 703.955 383.491C701.256 382.193 696.481 382.038 693.575 383.076Z" fill="black" fill-opacity="0.9"/>
<path d="M715.893 383.543C715.893 384.685 717.294 386.501 718.124 386.501C718.747 386.501 718.54 383.646 717.865 382.972C716.879 381.986 715.893 382.245 715.893 383.543Z" fill="black" fill-opacity="0.9"/>
<path d="M734.421 385.826C733.435 386.761 734.11 389.511 735.667 390.965C736.549 391.795 737.847 393.456 738.574 394.65C739.248 395.895 740.546 397.452 741.376 398.127C742.207 398.854 742.881 399.788 742.881 400.255C742.881 402.227 744.905 405.03 747.397 406.328C749.576 407.521 750.044 408.092 750.874 410.48C752.587 415.307 754.767 419.199 756.116 419.822C757.933 420.652 758.192 420.081 757.258 417.538C755.753 413.646 751.964 407.677 745.372 398.905C741.895 394.234 738.418 389.252 737.691 387.903C736.497 385.671 735.304 384.892 734.421 385.826Z" fill="black" fill-opacity="0.9"/>
<path d="M608.82 388.94C608.612 389.096 608.456 389.771 608.456 390.446C608.456 391.328 608.664 391.536 609.494 391.328C610.169 391.172 610.532 390.601 610.532 389.823C610.532 388.629 609.546 388.162 608.82 388.94Z" fill="black" fill-opacity="0.9"/>
<path d="M693.16 388.94C691.914 389.2 688.385 392.262 688.385 393.093C688.385 393.404 689.579 393.508 691.24 393.352C692.952 393.197 695.911 393.508 698.558 394.027C702.191 394.805 703.332 394.857 704.734 394.39C706.862 393.56 708.004 393.975 713.09 397.452C715.27 398.905 717.761 400.411 718.747 400.826C719.993 401.345 720.927 402.383 722.277 404.77C723.263 406.587 725.962 411.258 728.245 415.203C730.529 419.147 733.28 424.701 734.37 427.555C735.823 431.344 736.55 432.693 737.224 432.693C737.951 432.693 738.418 433.835 739.508 438.766C742.881 453.506 744.024 458.125 745.321 462.018C746.722 466.326 748.902 471.101 749.473 471.101C750.148 471.101 749.006 466.014 747.553 462.848C746.618 460.668 745.581 456.776 744.698 452.105C742.83 441.465 740.131 432.693 738.781 432.693C738.522 432.693 738.21 431.448 738.107 429.943C737.743 426.154 733.176 416.137 731.619 415.774C730.944 415.566 730.529 415.254 730.685 415.047C731.204 414.164 729.387 409.753 727.103 406.276C724.093 401.76 717.969 395.636 714.18 393.352C712.623 392.418 709.924 391.12 708.159 390.55C705.253 389.563 704.682 389.511 702.191 390.134C699.544 390.757 699.284 390.705 697.987 389.667C696.585 388.629 695.651 388.473 693.16 388.94Z" fill="black" fill-opacity="0.9"/>
<path d="M752.743 389.511C752.743 390.965 754.248 392.729 755.545 392.729C756.583 392.729 756.791 393.041 757.05 394.909C757.258 396.362 757.829 397.556 758.919 398.646C760.787 400.515 760.943 399.995 759.75 395.895C758.452 391.64 752.743 386.397 752.743 389.511Z" fill="black" fill-opacity="0.9"/>
<path d="M608.612 394.079C607.834 395.272 607.678 395.324 607.107 394.598C606.588 393.819 606.484 393.871 606.173 395.013C605.861 396.362 606.225 397.919 606.899 397.919C607.678 397.919 610.013 394.754 610.013 393.715C610.013 392.366 609.702 392.47 608.612 394.079Z" fill="black" fill-opacity="0.9"/>
<path d="M704.474 396.414C704.474 397.608 710.132 402.695 713.557 404.511C716.723 406.276 717.19 406.691 717.605 408.403C717.865 409.493 718.955 411.362 720.097 412.608C723.366 416.397 728.764 430.514 731.256 442.036C731.723 444.164 732.242 449.873 732.449 454.752C732.864 463.471 732.864 463.627 734.94 468.765C736.653 472.917 737.38 475.928 738.677 483.661C740.234 492.64 741.532 498.089 742.207 498.089C742.414 498.089 742.362 495.806 742.207 492.951C741.843 487.813 740.701 481.585 738.729 474.007C738.158 471.724 737.691 469.077 737.691 468.038C737.639 467.001 737.224 465.236 736.653 464.094C736.03 462.797 735.615 460.876 735.615 458.904C735.615 456.932 735.2 454.959 734.525 453.454C733.799 451.845 733.539 450.548 733.747 449.25C733.954 448.108 733.747 446.603 733.332 445.565C732.709 444.112 732.657 443.022 733.072 440.064C733.695 435.548 733.072 432.486 730.01 425.635C728.868 423.092 727.674 420.081 727.311 418.94C725.546 413.386 720.564 406.483 714.491 401.293C709.976 397.401 704.474 394.754 704.474 396.414Z" fill="black" fill-opacity="0.9"/>
<path d="M681.897 397.92C675.669 400.411 667.416 408.611 662.59 417.019C661.24 419.459 659.008 422.625 657.711 424.078C656.413 425.531 653.974 428.489 652.261 430.618C650.6 432.746 648.317 435.393 647.227 436.483C645.41 438.247 645.306 438.558 645.618 440.375C646.033 442.762 646.241 443.074 647.175 443.074C647.694 443.074 647.901 442.347 647.901 440.064L647.953 437.105L648.784 438.662L649.614 440.167L650.445 438.922C650.912 438.195 653.039 435.444 655.219 432.693C657.399 429.995 659.787 426.673 660.565 425.375C661.344 424.026 662.382 422.832 662.953 422.677C663.472 422.521 664.717 421.327 665.652 419.926C666.586 418.576 668.143 416.448 669.077 415.203C670.063 413.853 670.738 412.348 670.738 411.414C670.738 410.013 670.842 409.909 672.243 410.168C674.371 410.636 675.513 409.805 677.952 406.016C680.236 402.487 681.689 401.553 682.935 402.591C683.558 403.11 683.765 403.058 684.025 402.279C684.855 399.684 685.426 398.438 685.79 398.438C686.672 398.438 686.776 401.034 685.997 402.85C685.582 403.888 685.322 404.874 685.426 404.978C685.53 405.082 686.36 404.874 687.243 404.563C688.955 403.888 689.371 402.746 688.333 401.708C687.969 401.345 687.866 400.722 688.073 400.255C688.333 399.581 688.8 399.425 690.149 399.684C691.499 399.944 691.966 399.84 692.225 399.165C692.796 397.712 691.706 397.193 687.969 397.037C685.426 396.934 683.765 397.141 681.897 397.92Z" fill="black" fill-opacity="0.9"/>
<path d="M693.056 398.646C693.056 400.722 694.146 401.345 696.897 400.826C697.935 400.618 698.921 400.774 699.544 401.241C700.53 401.968 700.582 402.019 699.648 403.577C698.558 405.393 698.869 407.417 700.218 407.158C700.685 407.054 701.256 406.224 701.568 405.289C701.828 404.407 702.242 403.629 702.502 403.629C702.762 403.629 704.578 405.134 706.55 407.002C708.523 408.87 710.495 410.376 710.858 410.376C711.273 410.376 712.571 412.348 713.713 414.787C714.907 417.227 717.242 421.535 719.007 424.337C720.72 427.14 722.121 429.995 722.121 430.721C722.121 431.448 722.744 434.147 723.47 436.638C724.197 439.181 725.131 442.555 725.598 444.112C726.169 446.24 726.481 451.638 726.792 465.288C727.207 482.934 727.207 483.713 726.221 485.374C725.183 487.138 723.418 494.923 723.989 495.442C724.664 496.117 726.221 493.262 727.052 489.785C727.571 487.605 728.349 485.841 728.92 485.477C729.75 484.854 729.906 483.713 730.218 475.979C731.359 446.188 724.456 419.614 712.156 406.431C709.197 403.265 707.536 402.435 706.758 403.68C706.602 403.992 705.772 403.109 704.942 401.656C703.073 398.387 700.27 396.881 696.014 396.881H693.056V398.646Z" fill="black" fill-opacity="0.9"/>
<path d="M752.846 399.58C751.964 400.463 752.068 400.826 753.469 402.227C754.196 402.954 755.441 404.874 756.272 406.535C757.102 408.248 758.296 410.064 758.919 410.583C760.009 411.57 760.009 411.57 760.009 410.064C760.009 408.352 758.971 406.328 756.531 403.11C755.597 401.864 754.819 400.463 754.819 399.892C754.819 398.854 753.78 398.646 752.846 399.58Z" fill="black" fill-opacity="0.9"/>
<path d="M690.461 402.85C689.474 404.044 690.253 405.289 691.862 405.082C693.004 404.978 693.367 404.615 693.471 403.473C693.627 402.279 693.471 402.072 692.381 402.072C691.654 402.072 690.824 402.435 690.461 402.85Z" fill="black" fill-opacity="0.9"/>
<path d="M695.236 403.888C694.354 405.809 694.457 406.224 695.858 406.224C697.519 406.224 697.987 405.393 697.156 403.836C696.326 402.279 695.962 402.279 695.236 403.888Z" fill="black" fill-opacity="0.9"/>
<path d="M680.496 404.719C679.562 405.238 679.146 408.819 679.977 408.819C681.171 408.819 682.676 407.054 682.676 405.653C682.676 404.096 682.053 403.784 680.496 404.719Z" fill="black" fill-opacity="0.9"/>
<path d="M604.823 406.95C604.823 407.936 604.616 408.923 604.304 409.078C603.681 409.442 603.629 411.777 604.2 412.14C604.823 412.504 607.937 410.532 607.937 409.805C607.937 409.442 607.678 408.3 607.314 407.21C606.899 405.809 606.432 405.186 605.757 405.186C605.031 405.186 604.823 405.601 604.823 406.95Z" fill="black" fill-opacity="0.9"/>
<path d="M657.659 407.262C655.583 408.403 654.078 410.272 653.195 412.815C652.521 414.839 652.728 414.891 655.168 413.438C658.23 411.57 661.396 408.092 661.396 406.483C661.396 405.912 659.528 406.327 657.659 407.262Z" fill="black" fill-opacity="0.9"/>
<path d="M687.347 406.587C684.44 406.743 683.869 406.95 683.454 407.936C683.143 408.611 682.364 409.13 681.534 409.234C680.807 409.338 679.821 409.96 679.354 410.635C678.835 411.414 678.212 411.777 677.537 411.57C676.811 411.362 676.032 412.037 674.319 414.372C673.126 416.033 669.96 419.458 667.313 421.95C661.967 426.984 658.542 431.707 657.607 435.185C657.192 436.742 656.621 437.624 655.842 437.936C655.168 438.195 654.649 438.714 654.649 439.181C654.649 439.597 654.182 439.96 653.611 439.96C652.832 439.96 652.469 440.427 652.209 441.569C652.002 442.658 651.275 443.541 649.926 444.423C647.746 445.773 646.189 448.264 646.448 449.977C646.708 451.897 648.109 451.222 649.458 448.523C650.237 447.07 651.068 445.98 651.431 446.032C651.794 446.136 652.054 445.617 652.054 444.89C652.054 443.748 652.209 443.593 653.299 443.904C654.389 444.164 654.597 444.008 654.752 442.762C654.856 441.672 655.272 441.205 656.465 440.894C657.399 440.634 658.749 439.493 659.839 438.143C660.825 436.846 662.434 435.444 663.316 434.977C664.821 434.303 665.029 433.939 665.029 432.226C665.029 430.566 665.34 430.046 667.157 428.541C668.351 427.607 670.323 425.22 671.621 423.299C673.281 420.704 674.527 419.407 676.084 418.628C677.278 418.005 680.444 416.033 683.143 414.217C685.79 412.4 688.385 410.895 688.904 410.895C689.423 410.895 691.499 411.258 693.523 411.725C697.416 412.607 699.232 412.452 700.53 411.103C701.775 409.909 701.568 409.442 699.544 408.456C698.091 407.781 697.364 407.677 696.222 408.092C694.976 408.611 694.665 408.507 693.679 407.417C693.108 406.795 692.174 406.276 691.654 406.327C691.136 406.379 689.215 406.483 687.347 406.587Z" fill="black" fill-opacity="0.9"/>
<path d="M701.879 411.103C701.879 413.438 702.035 414.009 702.865 414.268C704.163 414.684 706.29 417.175 708.73 421.171C709.872 423.092 711.429 424.856 712.674 425.583C714.595 426.829 714.802 427.192 716.308 432.538C718.747 440.894 719.941 446.551 720.875 453.817C721.861 461.291 721.498 464.976 719.318 470.322C718.176 473.229 717.709 475.045 716.411 482C715.996 484.284 715.218 485.737 712.726 489.007C710.962 491.29 708.418 495.495 707.017 498.349C705.512 501.567 703.643 504.473 702.19 505.978C699.803 508.47 697.934 511.428 698.453 511.947C698.609 512.103 699.492 511.74 700.426 511.169C702.346 509.975 704.682 506.964 708.211 501.203C709.56 499.076 711.221 496.74 712 496.013C713.608 494.508 714.854 491.809 714.854 489.889C714.854 489.214 715.425 488.124 716.048 487.501C717.553 486.1 718.591 483.297 720.045 476.706C720.719 473.696 721.549 471.152 722.172 470.478L723.21 469.284L723.003 473.177C722.847 475.356 721.861 480.235 720.771 484.18C718.435 492.795 718.955 494.456 722.017 487.969C724.196 483.35 724.456 480.91 724.3 465.443C724.145 452.209 724.041 450.236 722.951 445.461C722.276 442.607 721.29 437.884 720.771 435.029C719.941 430.721 719.473 429.372 717.709 426.725C716.515 425.012 714.439 421.638 713.038 419.199C709.664 413.23 708.263 411.518 705.564 409.753C702.242 407.677 701.879 407.781 701.879 411.103Z" fill="black" fill-opacity="0.9"/>
<path d="M613.75 409.182C613.387 409.338 612.297 411.051 611.311 412.971C609.91 415.774 609.339 416.448 608.56 416.241C607.937 416.085 607.418 416.448 607.003 417.331C606.692 418.057 606.588 418.68 606.847 418.68C607.107 418.68 607.47 419.251 607.626 419.978C608.041 421.691 608.508 421.587 609.598 419.718C610.117 418.836 611.259 417.746 612.141 417.227C613.024 416.76 614.321 415.877 614.996 415.307C616.086 414.32 616.138 414.113 615.567 411.518C615.255 410.065 614.892 408.819 614.736 408.871C614.529 408.871 614.114 409.026 613.75 409.182Z" fill="black" fill-opacity="0.9"/>
<path d="M623.56 411.518C623.3 412.244 623.041 412.4 622.781 412.037C622.158 410.947 620.913 412.037 617.747 416.397C616.034 418.784 614.166 421.016 613.595 421.275C612.453 421.898 612.349 422.988 613.179 425.375C613.802 427.088 614.685 427.452 615.671 426.258C616.086 425.791 616.086 425.168 615.775 424.234C615.152 422.625 615.515 422.158 616.813 422.988C618.162 423.818 619.2 423.092 621.224 420.03C623.3 416.915 625.065 415.047 625.947 415.047C626.311 415.047 626.622 414.58 626.622 413.957C626.622 411.414 624.286 409.546 623.56 411.518Z" fill="black" fill-opacity="0.9"/>
<path d="M658.386 413.438C657.244 414.32 654.856 417.019 653.092 419.562C651.275 422.054 648.628 425.531 647.175 427.244C645.67 428.956 643.853 431.189 643.127 432.175C641.621 434.147 639.39 439.389 639.857 439.856C640.013 440.012 640.687 439.856 641.362 439.544C642.192 439.181 642.867 438.143 643.438 436.43C644.164 434.303 644.736 433.576 646.76 432.33C648.421 431.292 650.704 428.853 653.974 424.597C656.569 421.223 659.579 417.487 660.617 416.344C661.603 415.254 662.33 414.009 662.174 413.594C662.019 413.23 661.915 412.66 661.915 412.4C661.915 411.518 660.513 411.933 658.386 413.438Z" fill="black" fill-opacity="0.9"/>
<path d="M671.517 413.801C671.05 414.528 670.79 415.254 670.946 415.41C671.361 415.877 673.333 414.009 673.333 413.127C673.333 412.037 672.503 412.348 671.517 413.801Z" fill="black" fill-opacity="0.9"/>
<path d="M647.85 415.099C646.864 416.293 645.203 418.213 644.113 419.355C643.075 420.497 641.725 422.365 641.103 423.559C640.532 424.701 639.597 426.517 639.078 427.503C638.507 428.489 638.04 429.839 638.04 430.514C638.04 431.552 638.3 431.707 639.493 431.552C640.791 431.396 640.895 431.24 640.739 429.424C640.635 427.763 640.739 427.503 641.725 427.503C643.23 427.503 645.254 425.168 647.071 421.431C648.213 418.991 648.784 418.369 649.458 418.524C650.704 418.836 652.158 416.604 651.95 414.684C651.691 412.296 649.926 412.504 647.85 415.099Z" fill="black" fill-opacity="0.9"/>
<path d="M688.385 415.566C686.724 416.137 684.959 417.175 684.129 418.109C683.039 419.355 682.26 419.718 680.859 419.718C678.368 419.718 675.358 422.521 673.281 426.725C671.984 429.424 671.517 429.891 670.583 429.735C669.597 429.528 669.077 430.15 667.261 433.316C666.067 435.444 664.614 437.572 664.095 438.04C663.264 438.766 663.161 439.441 663.368 441.413C663.783 445.565 664.147 445.617 666.586 442.088C667.78 440.271 670.219 437.209 671.932 435.185C673.697 433.161 676.603 429.735 678.42 427.555C680.496 425.012 682.157 423.507 683.091 423.248C683.869 423.092 685.011 422.728 685.634 422.573C686.568 422.261 686.776 422.417 686.932 423.663C687.036 424.441 687.399 425.22 687.814 425.324C688.333 425.479 688.437 425.272 688.229 424.441C687.554 421.846 690.253 417.123 692.433 417.123C693.056 417.123 693.16 417.954 693.004 421.898L692.797 426.725L694.509 426.673C695.859 426.569 696.17 426.777 696.17 427.659C696.17 428.23 696.897 429.839 697.831 431.24C698.921 433.005 699.492 434.666 699.699 436.482C699.803 437.987 700.374 440.531 700.997 442.191C701.983 444.994 701.983 445.565 701.412 449.458C700.063 458.644 697.156 467.623 693.419 474.319C691.499 477.744 690.669 478.678 688.748 479.664C688.177 479.924 686.257 482.26 684.544 484.854C682.364 488.073 680.755 489.837 679.458 490.564C677.797 491.446 677.485 491.861 677.485 493.366C677.485 494.924 677.382 495.079 676.24 494.768C675.098 494.508 674.994 494.612 674.735 497.415C674.423 500.477 674.683 501.775 675.254 499.75C675.461 498.816 675.928 498.609 677.434 498.609C679.717 498.556 681.534 497.103 685.011 492.38C686.413 490.512 688.956 487.501 690.72 485.633C694.769 481.377 695.859 479.405 699.803 469.803C702.346 463.575 703.021 461.343 703.177 458.644C703.281 456.776 703.696 454.336 704.111 453.195C706.032 447.849 705.564 436.534 703.229 431.344C701.827 428.282 698.973 424.908 696.43 423.351L694.717 422.313L695.703 420.237C696.274 419.095 696.793 418.161 696.897 418.161C697.104 418.161 703.54 429.216 704.889 431.915C707.069 436.275 707.796 439.96 707.744 446.188C707.692 455.271 705.512 463.627 700.789 473.436C697.571 480.132 694.665 484.491 690.409 489.007C687.97 491.602 686.88 493.159 686.62 494.508C686.361 496.013 685.946 496.481 684.492 497.052C683.506 497.467 682.676 497.986 682.676 498.297C682.676 498.609 681.638 499.906 680.392 501.203C678.16 503.436 677.797 504.266 677.952 506.757C678.056 508.677 679.458 508.158 679.873 506.082C680.132 504.733 680.548 504.11 681.586 503.747C685.997 502.138 690.824 497.726 694.146 492.173C695.236 490.408 696.274 489.266 696.845 489.266C698.558 489.266 705.876 472.658 708.367 463.056C710.339 455.323 710.858 450.392 710.547 441.828C710.236 433.213 709.093 426.362 707.536 423.195C706.187 420.652 702.813 416.967 700.426 415.462L698.609 414.32L697.831 415.462C696.897 416.864 696.43 416.864 695.132 415.566C693.834 414.268 692.07 414.268 688.385 415.566Z" fill="black" fill-opacity="0.9"/>
<path d="M690.046 419.666C689.06 420.289 689.474 422.002 690.668 422.209C691.966 422.469 692.692 421.587 692.277 420.289C691.914 419.147 691.187 418.94 690.046 419.666Z" fill="black" fill-opacity="0.9"/>
<path d="M602.903 420.601C601.45 420.86 601.398 422.158 602.747 423.818C603.733 424.96 603.837 425.012 605.083 424.182C606.328 423.351 606.951 420.756 605.913 420.756C605.654 420.756 605.135 420.652 604.72 420.548C604.356 420.445 603.526 420.497 602.903 420.601Z" fill="black" fill-opacity="0.9"/>
<path d="M757.933 423.299C757.933 424.752 758.296 425.791 759.23 426.829L760.476 428.282L760.528 426.31C760.528 424.234 759.282 421.275 758.452 421.275C758.14 421.275 757.933 422.209 757.933 423.299Z" fill="black" fill-opacity="0.9"/>
<path d="M610.117 425.012C608.768 426.362 609.702 430.617 611.363 430.617C611.986 430.617 612.089 430.046 611.986 427.659C611.83 424.701 611.259 423.87 610.117 425.012Z" fill="black" fill-opacity="0.9"/>
<path d="M681.793 426.517C680.963 427.348 680.911 428.645 681.742 429.476C682.624 430.358 681.793 430.877 680.444 430.254C679.25 429.683 678.991 429.995 675.617 434.666C666.742 447.07 656.725 458.644 653.663 460.097C651.119 461.291 649.458 463.938 649.458 466.741C649.458 467.987 649.718 469.128 650.03 469.284C650.289 469.492 651.431 469.025 652.521 468.298C653.559 467.571 654.701 466.948 655.064 466.948C655.895 466.948 656.673 465.236 656.829 463.108C656.984 460.98 657.14 460.876 658.126 462.122C658.801 463.004 658.905 462.952 659.683 461.758C660.15 461.032 661.759 459.267 663.264 457.866C664.718 456.413 666.379 454.544 666.897 453.714C667.468 452.831 668.974 450.963 670.375 449.562C671.724 448.108 674.216 444.838 675.928 442.244C679.406 436.897 682.728 433.576 686.101 432.123L688.385 431.085L690.565 432.33C691.81 433.057 693.056 433.524 693.367 433.42C693.679 433.264 694.146 434.043 694.405 435.081C695.34 438.87 697.883 438.662 697.623 434.77C697.468 433.316 697.001 432.642 694.717 430.877C693.212 429.735 691.707 428.23 691.343 427.503C690.513 425.842 688.229 425.583 685.79 426.881C684.025 427.867 683.973 427.867 683.195 426.881C682.572 426.102 682.312 425.998 681.793 426.517Z" fill="black" fill-opacity="0.9"/>
<path d="M710.183 428.074C710.183 429.06 710.806 432.278 711.585 435.289C712.934 440.375 712.986 441.413 712.934 450.496C712.883 457.814 712.986 460.201 713.453 460.046C713.817 459.942 714.336 458.956 714.647 457.814C715.53 454.648 716.671 455.167 716.464 458.644C716.256 463.315 714.907 468.35 711.844 476.031C710.132 480.443 708.886 484.387 708.73 486.048C708.523 488.332 708.263 488.903 707.225 489.422C705.824 490.045 704.578 491.965 702.917 496.169C701.983 498.609 701.568 499.076 700.789 498.868C700.115 498.66 699.803 498.816 699.803 499.335C699.803 499.75 698.402 501.307 696.741 502.76C693.419 505.667 692.641 507.328 693.575 509.767L694.146 511.221L694.977 509.975C695.495 509.3 697.675 506.497 699.855 503.799C703.696 499.076 706.55 494.197 706.55 492.277C706.55 491.705 706.81 491.498 707.277 491.654C708.211 492.017 709.197 490.148 710.443 485.893C711.014 483.817 711.896 482.156 713.142 480.858C714.699 479.301 715.062 478.471 715.27 476.187C715.426 474.578 716.048 472.502 716.879 471.101C718.021 469.128 718.228 468.038 718.384 463.679C718.54 460.876 718.332 457.243 718.021 455.634C717.709 454.025 717.19 449.925 716.931 446.551C716.048 437.261 713.609 429.164 711.014 427.036C710.287 426.413 710.183 426.569 710.183 428.074Z" fill="black" fill-opacity="0.9"/>
<path d="M746.67 429.164C746.929 430.358 749.006 436.638 750.511 440.998C750.978 442.295 752.12 444.06 753.106 444.994C754.507 446.344 754.819 447.018 754.819 448.887C754.819 451.741 755.441 452.779 756.376 451.638C758.244 449.354 749.732 428.126 746.826 428.022C746.618 428.022 746.514 428.541 746.67 429.164Z" fill="black" fill-opacity="0.9"/>
<path d="M606.38 430.15C606.38 431.5 606.225 431.707 605.238 431.552C604.304 431.448 603.993 431.707 603.889 432.642C603.578 434.562 604.616 435.133 606.017 433.836C606.692 433.213 607.47 432.693 607.834 432.693C608.872 432.693 609.027 431.707 608.197 430.099C607.159 428.074 606.38 428.126 606.38 430.15Z" fill="black" fill-opacity="0.9"/>
<path d="M635.601 432.693C634.563 434.614 633.058 436.223 629.892 438.714C628.802 439.648 627.089 441.828 626.155 443.593C624.131 447.382 622.781 448.887 621.743 448.472C621.328 448.316 620.809 448.575 620.55 449.146C619.719 450.755 620.082 451.638 621.536 451.793C622.574 451.897 623.612 451.274 626.207 448.887C627.971 447.226 629.996 445.565 630.67 445.202C631.864 444.579 631.864 444.216 630.93 441.621C630.774 441.257 631.137 440.998 631.968 440.998C633.525 440.998 635.342 438.87 637.054 435.081C638.04 432.797 638.04 432.486 637.314 431.759C636.587 431.033 636.432 431.136 635.601 432.693Z" fill="black" fill-opacity="0.9"/>
<path d="M600.879 433.991C600.931 435.704 601.709 435.704 601.709 433.991C601.709 433.264 601.501 432.693 601.242 432.693C600.982 432.693 600.827 433.264 600.879 433.991Z" fill="black" fill-opacity="0.9"/>
<path d="M687.347 434.77C686.931 435.029 685.945 435.289 685.167 435.289C683.246 435.289 680.236 438.87 675.15 447.278C671.724 452.883 669.804 455.375 664.303 461.136C660.617 465.028 656.88 468.558 655.998 468.973C655.116 469.44 653.455 471.049 652.313 472.606C650.652 474.786 649.562 475.616 647.538 476.395C644.424 477.536 641.154 480.806 641.154 482.779C641.154 484.024 641.206 484.024 643.127 483.35C648.94 481.273 654.493 477.433 663.16 469.388L668.662 464.25L668.714 461.603C668.766 460.097 668.922 459.527 669.025 460.305C669.441 462.9 670.946 461.81 674.371 456.36C675.565 454.492 676.966 452.831 677.537 452.676C678.108 452.468 678.523 451.897 678.523 451.17C678.523 448.783 679.146 446.759 679.821 447.018C680.132 447.174 681.638 445.669 683.091 443.593C684.596 441.569 686.36 439.648 687.087 439.337C688.177 438.87 688.385 438.403 688.385 436.482C688.385 435.289 688.333 434.25 688.281 434.25C688.177 434.25 687.762 434.51 687.347 434.77Z" fill="black" fill-opacity="0.9"/>
<path d="M689.215 436.43C689.06 436.794 688.852 438.143 688.748 439.337C688.54 440.946 688.125 441.88 687.243 442.451C685.063 444.008 683.817 445.721 681.326 450.496C679.925 453.299 677.745 456.464 676.188 458.177C674.683 459.734 672.866 462.225 672.088 463.679C671.361 465.132 670.115 466.793 669.337 467.364C668.507 467.935 665.34 470.997 662.226 474.111C658.853 477.536 656.05 479.924 655.219 480.08C654.493 480.235 651.483 481.792 648.576 483.557C644.476 486.048 642.763 486.775 640.895 486.931C639.338 487.034 638.092 487.45 637.521 488.021C636.327 489.266 635.549 492.899 636.483 492.899C637.936 492.899 647.901 489.578 651.379 487.917C654.96 486.204 657.763 483.713 657.763 482.207C657.763 481.792 658.022 481.481 658.282 481.481C658.593 481.481 658.801 481.948 658.801 482.519C658.801 483.09 659.06 483.557 659.32 483.557C659.631 483.557 659.839 483.35 659.839 483.09C659.839 482.83 661.448 481.325 663.472 479.716C665.6 478.003 667.209 476.239 667.417 475.46C667.624 474.682 668.039 474.266 668.454 474.422C668.87 474.578 670.064 473.592 671.361 472.087C672.607 470.685 674.89 468.142 676.499 466.533C679.302 463.627 680.184 462.122 684.596 452.416C686.413 448.472 689.734 443.748 690.305 444.268C690.409 444.371 689.89 446.344 689.163 448.575C687.71 453.039 685.323 457.866 685.27 456.413C685.27 455.167 684.233 455.271 684.233 456.568C684.233 457.139 684.44 457.606 684.7 457.606C684.907 457.606 684.284 459.578 683.298 461.966C681.793 465.495 681.119 466.481 679.665 467.26C678.731 467.779 676.292 470.218 674.319 472.709C669.96 478.211 665.807 482.104 660.877 485.374C655.739 488.799 647.434 492.795 643.646 493.678C639.909 494.508 638.507 495.754 638.403 498.141C638.3 499.543 638.559 499.958 639.649 500.321C641.414 500.996 643.75 499.854 647.382 496.48C650.86 493.262 652.313 492.588 656.984 492.121C661.707 491.654 663.68 490.512 669.441 484.595C672.036 482 675.098 479.249 676.344 478.523C677.537 477.796 678.939 476.499 679.406 475.564C681.17 472.087 683.402 469.388 685.011 468.713C686.568 468.09 686.983 467.415 688.8 462.693C691.239 456.516 692.537 450.703 692.537 446.188C692.537 443.385 692.433 443.074 691.447 443.074C690.564 443.074 690.409 442.814 690.564 441.154C690.772 438.558 691.654 438.454 693.264 440.842C694.561 442.711 694.613 443.126 694.613 450.132C694.613 456.724 694.509 457.554 693.575 458.385C692.485 459.371 691.187 462.848 690.668 466.326C690.409 467.831 690.097 468.454 689.682 468.298C689.319 468.194 687.97 469.388 686.62 470.997C681.482 477.433 678.679 480.443 676.188 482.311C674.787 483.401 672.711 485.27 671.568 486.515C668.974 489.422 664.977 492.328 662.745 492.951C661.448 493.315 660.825 493.885 660.41 495.079C658.801 499.699 655.064 502.19 649.147 502.605C645.41 502.916 645.307 502.968 645.307 504.266C645.307 505.927 646.189 506.913 647.642 506.913C649.77 506.913 657.192 502.76 662.019 498.868C665.807 495.806 667.209 494.975 668.507 494.975C669.752 494.975 670.79 494.456 672.243 493.159C673.333 492.173 674.631 491.342 675.098 491.342C675.565 491.342 675.928 491.031 675.928 490.615C675.928 489.318 678.056 487.19 680.652 485.893C682.053 485.166 683.506 484.076 683.869 483.401C684.284 482.778 685.374 480.962 686.309 479.301C687.243 477.692 688.592 476.135 689.267 475.824C690.046 475.46 690.461 474.838 690.461 473.903C690.461 473.073 691.239 471.672 692.485 470.27C696.378 465.858 698.765 457.035 698.765 447.278V442.243L696.326 439.856C694.924 438.507 692.952 437.053 691.914 436.586C689.578 435.652 689.423 435.652 689.215 436.43Z" fill="black" fill-opacity="0.9"/>
<path d="M609.858 436.638C609.65 436.846 609.494 437.468 609.494 437.987C609.494 438.662 609.131 438.922 608.197 438.922C607.211 438.922 606.847 439.285 606.588 440.323C606.121 442.658 605.913 443.074 605.394 443.074C605.135 443.074 604.719 442.607 604.564 442.036C604.408 441.465 603.889 440.998 603.474 440.998C602.591 440.998 602.436 445.409 603.266 445.928C603.578 446.084 603.785 445.773 603.785 445.202C603.785 444.319 603.993 444.268 605.238 444.631C607.782 445.358 610.844 443.437 611.986 440.427C612.401 439.337 612.297 438.818 611.415 437.676C610.792 436.897 610.065 436.43 609.858 436.638Z" fill="black" fill-opacity="0.9"/>
<path d="M735.615 439.025C735.667 443.437 736.705 449.198 738.989 457.606C740.234 462.329 741.895 469.907 742.622 474.422C744.075 483.09 745.373 487.501 746.982 488.955C748.954 490.719 748.798 488.124 746.566 481.637C745.995 479.872 745.477 477.64 745.477 476.706C745.477 475.772 745.009 473.748 744.438 472.242C742.622 467.468 741.428 462.433 739.248 450.34C738.107 443.904 737.017 438.247 736.861 437.728C736.342 436.067 735.615 436.846 735.615 439.025Z" fill="black" fill-opacity="0.9"/>
<path d="M636.276 441.309C635.756 442.036 634.926 444.268 634.407 446.344C633.784 448.939 633.369 449.821 633.11 449.146C632.591 447.849 630.93 448.056 630.566 449.406C630.411 450.081 629.217 451.274 627.919 452.053C625.584 453.558 624.805 454.907 625.169 457.139C625.272 458.073 625.584 458.333 626.362 458.229C628.335 457.918 631.552 455.271 632.694 452.987C633.317 451.741 634.303 450.184 634.874 449.613C636.12 448.264 639.597 440.894 639.286 440.375C638.715 439.493 637.106 440.011 636.276 441.309Z" fill="black" fill-opacity="0.9"/>
<path d="M660.358 442.036C659.995 442.711 657.919 445.15 655.687 447.537C653.455 449.925 651.379 452.624 651.015 453.662C650.652 454.856 650.081 455.53 649.355 455.634C647.694 455.893 645.981 458.437 646.656 459.579C647.486 460.824 649.095 460.668 649.718 459.267C649.978 458.644 650.652 458.125 651.171 458.125C651.742 458.125 652.469 457.347 653.04 456.049C653.559 454.907 654.13 454.129 654.337 454.336C654.752 454.803 660.721 448.991 661.707 447.122C662.59 445.409 662.59 443.697 661.707 442.088L661.033 440.842L660.358 442.036Z" fill="black" fill-opacity="0.9"/>
<path d="M641.985 443.541C640.843 445.669 640.947 446.188 642.452 446.188C643.853 446.188 644.165 445.773 644.372 443.593C644.58 441.673 642.971 441.621 641.985 443.541Z" fill="black" fill-opacity="0.9"/>
<path d="M611.155 447.485C610.792 448.264 610.325 449.977 610.169 451.326C609.857 453.506 609.909 453.662 610.688 452.987C611.882 452.053 612.816 448.368 612.245 447.07C611.83 446.136 611.726 446.188 611.155 447.485Z" fill="black" fill-opacity="0.9"/>
<path d="M639.286 446.603C638.455 447.122 637.521 449.095 637.521 450.288C637.521 452.468 640.168 450.963 640.791 448.42C641.05 447.174 640.168 446.032 639.286 446.603Z" fill="black" fill-opacity="0.9"/>
<path d="M643.23 450.599C642.555 452.416 642.555 455.893 643.282 456.309C644.164 456.88 644.476 456.205 644.684 452.987C644.943 449.665 644.113 448.316 643.23 450.599Z" fill="black" fill-opacity="0.9"/>
<path d="M606.692 451.586C606.328 453.039 607.107 455.53 607.937 455.53C608.716 455.53 608.404 450.755 607.626 450.496C607.262 450.392 606.899 450.859 606.692 451.586Z" fill="black" fill-opacity="0.9"/>
<path d="M615.826 452.676C614.114 454.544 613.439 456.36 613.75 457.866C613.854 458.592 614.425 458.333 616.657 456.516C618.94 454.596 619.356 453.973 619.252 452.676C619.044 450.496 617.747 450.496 615.826 452.676Z" fill="black" fill-opacity="0.9"/>
<path d="M639.909 452.935C638.144 453.506 636.535 454.856 635.964 456.361C635.653 457.087 634.874 457.606 633.68 457.814C631.293 458.281 627.919 460.565 621.795 465.962C617.02 470.115 616.864 470.322 618.214 470.582C622.106 471.412 627.296 468.921 632.175 463.99C634.251 461.914 636.223 460.201 636.639 460.201C637.002 460.201 638.092 459.63 639.078 458.904C640.064 458.177 641.102 457.606 641.362 457.606C641.673 457.606 641.933 456.464 641.933 455.011C641.933 453.558 641.829 452.416 641.673 452.468C641.517 452.468 640.739 452.728 639.909 452.935Z" fill="black" fill-opacity="0.9"/>
<path d="M692.537 455.79C692.537 456.776 692.796 457.606 693.056 457.606C693.367 457.606 693.575 456.776 693.575 455.79C693.575 454.803 693.367 453.973 693.056 453.973C692.796 453.973 692.537 454.803 692.537 455.79Z" fill="black" fill-opacity="0.9"/>
<path d="M751.186 455.79C750.667 456.413 750.771 457.45 751.964 461.603C752.691 464.405 753.781 467.519 754.352 468.505L755.39 470.322L755.182 466.845C754.975 464.198 754.559 462.744 753.262 460.461C751.912 458.073 751.705 457.45 752.276 456.776C752.691 456.257 752.743 455.842 752.379 455.478C752.016 455.115 751.653 455.219 751.186 455.79Z" fill="black" fill-opacity="0.9"/>
<path d="M618.785 459.319C614.425 463.419 612.505 465.911 613.75 465.911C614.996 465.911 622.158 462.277 623.612 460.876C624.702 459.838 624.961 459.215 624.702 458.177C624.39 456.724 623.612 455.53 623.041 455.53C622.885 455.582 620.965 457.243 618.785 459.319Z" fill="black" fill-opacity="0.9"/>
<path d="M610.013 460.201C610.013 463.315 610.636 463.523 611.57 460.772C612.245 458.644 611.986 457.606 610.74 457.606C610.221 457.606 610.013 458.281 610.013 460.201Z" fill="black" fill-opacity="0.9"/>
<path d="M644.113 460.98C643.074 461.914 642.296 462.174 641.414 461.966C640.48 461.758 640.116 461.914 639.857 462.744C639.597 463.575 639.078 463.834 637.884 463.834C635.86 463.834 634.718 464.561 629.788 469.128C627.556 471.205 625.272 472.865 624.442 473.021C622.573 473.385 622.21 474.163 622.833 476.602L623.248 478.471L625.843 476.187C629.58 472.865 641.414 464.354 642.348 464.354C642.452 464.354 642.4 465.184 642.296 466.17C641.984 468.713 642.815 468.454 644.476 465.391C645.254 463.99 646.241 462.589 646.708 462.381C647.331 462.018 647.382 461.707 646.915 460.772C646.137 459.423 645.929 459.423 644.113 460.98Z" fill="black" fill-opacity="0.9"/>
<path d="M606.017 461.499C605.861 461.966 605.861 462.433 606.017 462.589C606.484 463.056 607.418 462.277 607.418 461.447C607.418 460.461 606.432 460.513 606.017 461.499Z" fill="black" fill-opacity="0.9"/>
<path d="M711.222 461.551C711.222 462.07 709.924 466.222 708.367 470.841C706.81 475.512 705.512 479.56 705.512 479.924C705.512 480.287 704.838 481.429 704.059 482.467C703.229 483.505 701.412 486.308 700.011 488.695C698.61 491.083 695.859 494.664 693.938 496.636C690.72 499.906 688.437 503.487 688.385 505.252C688.385 506.082 693.575 502.138 696.949 498.816C699.596 496.169 701.62 492.588 702.191 489.578C702.398 488.28 703.229 486.879 704.422 485.685C705.668 484.439 707.225 481.637 709.093 477.381C712.571 469.44 713.298 467.001 713.298 463.471C713.298 461.084 713.194 460.72 712.26 460.72C711.637 460.72 711.222 461.084 711.222 461.551Z" fill="black" fill-opacity="0.9"/>
<path d="M602.332 463.367C602.436 464.354 602.747 465.08 603.007 464.976C603.785 464.821 603.63 462.122 602.851 461.862C602.332 461.707 602.176 462.122 602.332 463.367Z" fill="black" fill-opacity="0.9"/>
<path d="M731.775 469.595C731.256 472.242 731.412 475.72 732.242 480.703C732.709 483.246 733.228 487.761 733.487 490.668C733.747 493.574 734.11 496.169 734.318 496.481C735.771 498.92 736.083 490.823 734.785 481.74C734.37 478.575 733.903 474.474 733.695 472.554C733.332 468.558 732.294 466.948 731.775 469.595Z" fill="black" fill-opacity="0.9"/>
<path d="M611.103 470.582C610.377 472.969 610.377 473.177 611.051 473.177C611.363 473.177 611.57 472.813 611.57 472.346C611.57 471.672 611.934 471.568 613.646 471.879C615.515 472.191 615.723 472.139 615.723 471.152C615.723 470.53 615.411 470.063 615.1 470.063C614.736 470.063 613.802 469.751 613.076 469.336C611.726 468.661 611.674 468.661 611.103 470.582Z" fill="black" fill-opacity="0.9"/>
<path d="M638.974 469.388C638.507 469.907 637.936 470.841 637.625 471.412C637.313 472.035 636.327 472.658 635.393 472.865C632.331 473.488 629.217 475.72 628.179 478.003C627.66 479.197 627.245 480.235 627.348 480.287C627.504 480.495 636.846 475.512 637.884 474.63C639.13 473.592 641.673 469.44 641.362 468.973C640.895 468.246 639.805 468.454 638.974 469.388Z" fill="black" fill-opacity="0.9"/>
<path d="M644.684 469.803C643.542 470.945 642.192 474.111 642.192 475.72C642.192 476.55 647.019 472.762 647.798 471.256C649.251 468.558 646.967 467.468 644.684 469.803Z" fill="black" fill-opacity="0.9"/>
<path d="M606.64 470.011C604.46 470.478 604.2 472.71 606.121 474.007C606.899 474.526 607.626 474.682 607.885 474.422C608.456 473.799 609.079 469.544 608.612 469.595C608.353 469.648 607.522 469.803 606.64 470.011Z" fill="black" fill-opacity="0.9"/>
<path d="M749.473 473.488C749.058 473.903 749.577 476.343 750.148 476.966C750.666 477.536 751.393 474.422 750.926 473.696C750.563 473.125 749.94 473.021 749.473 473.488Z" fill="black" fill-opacity="0.9"/>
<path d="M618.837 474.734C618.421 474.993 617.643 475.097 617.176 474.942C616.449 474.734 616.242 474.993 616.242 476.187C616.242 478.159 615.723 478.575 614.84 477.329C613.906 475.979 613.698 476.031 611.726 477.9C609.079 480.339 609.442 480.962 613.335 480.962C618.992 480.962 621.899 479.197 621.535 476.031C621.328 474.163 620.446 473.696 618.837 474.734Z" fill="black" fill-opacity="0.9"/>
<path d="M639.701 475.876C638.819 476.758 638.923 478.367 639.857 478.367C640.739 478.367 641.881 476.499 641.414 475.772C640.999 475.097 640.48 475.097 639.701 475.876Z" fill="black" fill-opacity="0.9"/>
<path d="M636.379 479.509C635.445 480.443 634.926 481.585 634.926 482.519C634.926 484.232 635.082 484.336 636.483 483.557C637.625 482.934 638.974 479.093 638.248 478.419C637.988 478.159 637.158 478.626 636.379 479.509Z" fill="black" fill-opacity="0.9"/>
<path d="M630.515 483.505C630.047 484.44 629.944 485.166 630.255 485.374C630.826 485.737 632.85 484.751 632.85 484.076C632.85 483.868 633.006 483.297 633.162 482.83C633.784 481.221 631.397 481.896 630.515 483.505Z" fill="black" fill-opacity="0.9"/>
<path d="M638.767 483.297C638.611 484.024 638.559 484.751 638.715 484.907C639.234 485.425 640.116 484.543 640.116 483.557C640.116 482 639.13 481.844 638.767 483.297Z" fill="black" fill-opacity="0.9"/>
<path d="M625.636 482.986C624.442 483.297 623.404 484.958 623.871 485.737C624.131 486.256 626.155 486.256 626.985 485.737C627.297 485.529 627.764 484.699 627.919 483.92C628.335 482.415 628.023 482.311 625.636 482.986Z" fill="black" fill-opacity="0.9"/>
<path d="M622.262 483.817C622.055 484.439 621.743 484.543 620.965 484.076C620.238 483.713 619.823 483.713 619.615 484.076C618.941 485.166 619.823 486.152 621.432 486.152C622.833 486.152 622.989 485.997 622.989 484.595C622.989 482.882 622.729 482.623 622.262 483.817Z" fill="black" fill-opacity="0.9"/>
<path d="M615.204 485.062C614.373 486.671 614.581 488.228 615.619 488.228C616.968 488.228 617.799 487.19 617.799 485.529C617.799 484.44 617.539 484.076 616.761 484.076C616.242 484.076 615.515 484.543 615.204 485.062Z" fill="black" fill-opacity="0.9"/>
<path d="M611.57 486.152C611.57 486.827 611.83 487.087 612.349 486.879C612.764 486.671 613.127 486.256 613.127 485.841C613.127 485.426 612.764 485.114 612.349 485.114C611.934 485.114 611.57 485.581 611.57 486.152Z" fill="black" fill-opacity="0.9"/>
<path d="M729.179 492.484C728.92 495.598 728.349 497.363 725.962 502.397C724.352 505.771 723.159 508.625 723.315 508.781C723.782 509.248 725.546 508.054 726.481 506.653C726.999 505.875 727.415 504.214 727.467 502.968C727.519 501.723 727.726 500.684 727.986 500.684C728.193 500.684 728.816 499.906 729.387 498.972C730.166 497.726 730.425 496.377 730.425 493.678C730.425 488.54 729.646 487.813 729.179 492.484Z" fill="black" fill-opacity="0.9"/>
<path d="M625.168 490.615C625.272 491.394 625.636 492.121 625.999 492.276C626.518 492.432 626.674 492.069 626.518 491.031C626.414 490.252 626.051 489.526 625.687 489.37C625.168 489.214 625.013 489.578 625.168 490.615Z" fill="black" fill-opacity="0.9"/>
<path d="M629.424 489.993C629.009 491.135 629.373 493.055 630.151 493.315C630.566 493.418 630.774 492.848 630.774 491.394C630.774 489.318 629.995 488.54 629.424 489.993Z" fill="black" fill-opacity="0.9"/>
<path d="M633.161 490.097C632.694 491.342 632.798 493.418 633.369 493.418C634.044 493.418 634.926 491.654 634.926 490.356C634.926 489.059 633.629 488.903 633.161 490.097Z" fill="black" fill-opacity="0.9"/>
<path d="M618.629 491.135C618.11 492.536 618.266 493.418 619.096 493.418C619.563 493.418 619.875 492.951 619.875 492.173C619.875 490.616 619.096 489.993 618.629 491.135Z" fill="black" fill-opacity="0.9"/>
<path d="M614.477 492.173C614.269 492.64 614.269 493.159 614.425 493.315C614.736 493.626 616.241 492.38 616.241 491.809C616.241 490.979 614.788 491.291 614.477 492.173Z" fill="black" fill-opacity="0.9"/>
<path d="M716.931 494.352C716.931 494.716 715.685 496.377 714.128 498.038C711.637 500.736 710.08 503.903 710.858 504.681C711.377 505.148 713.868 503.124 715.322 500.996C717.086 498.401 718.176 494.975 717.45 494.249C717.086 493.885 716.931 493.937 716.931 494.352Z" fill="black" fill-opacity="0.9"/>
<path d="M652.78 495.442C651.327 496.325 648.939 499.076 648.939 499.854C648.939 500.269 655.219 499.595 656.258 499.076C656.725 498.816 657.399 497.934 657.659 497.052C658.126 495.754 658.074 495.442 657.244 494.975C655.79 494.197 654.597 494.352 652.78 495.442Z" fill="black" fill-opacity="0.9"/>
<path d="M635.03 496.844C633.68 497.778 633.525 500.062 634.718 500.529C635.756 500.944 637.002 499.439 637.002 497.778C637.002 496.169 636.379 495.91 635.03 496.844Z" fill="black" fill-opacity="0.9"/>
<path d="M670.894 497.259C669.285 498.038 669.129 501.723 670.686 501.723C671.984 501.723 673.333 499.802 673.333 497.986C673.333 496.429 672.814 496.273 670.894 497.259Z" fill="black" fill-opacity="0.9"/>
<path d="M626.466 498.297C625.947 499.595 625.999 501.723 626.57 501.723C627.245 501.723 627.66 499.699 627.193 498.453C626.829 497.519 626.778 497.467 626.466 498.297Z" fill="black" fill-opacity="0.9"/>
<path d="M721.186 498.193C720.304 499.076 720.408 501.723 721.29 501.723C722.121 501.723 722.639 500.633 722.639 498.816C722.639 497.467 722.121 497.259 721.186 498.193Z" fill="black" fill-opacity="0.9"/>
<path d="M629.736 499.595C629.736 500.166 629.995 500.788 630.255 500.944C630.566 501.152 630.774 500.684 630.774 499.958C630.774 499.231 630.566 498.609 630.255 498.609C629.995 498.609 629.736 499.076 629.736 499.595Z" fill="black" fill-opacity="0.9"/>
<path d="M665.288 500.684C664.458 501.256 663.109 502.553 662.278 503.643C660.929 505.46 660.877 505.667 661.707 506.238C662.901 507.12 662.901 507.12 665.652 505.875C667.728 504.992 668.039 504.577 668.351 502.916C668.506 501.826 668.662 500.633 668.662 500.269C668.662 499.335 667.053 499.491 665.288 500.684Z" fill="black" fill-opacity="0.9"/>
<path d="M642.452 503.435C641.933 504.733 642.4 506.653 643.23 506.653C644.32 506.653 644.476 505.044 643.542 503.695C642.867 502.76 642.711 502.709 642.452 503.435Z" fill="black" fill-opacity="0.9"/>
<path d="M615.1 505.044C613.958 507.587 616.864 508.937 621.535 508.054C623.3 507.691 624.338 507.743 625.272 508.21C626.726 508.989 627.141 508.781 627.141 507.172C627.141 504.889 625.791 504.473 622.47 505.719C619.407 506.809 619.407 506.809 618.473 505.771C616.709 503.799 615.774 503.643 615.1 505.044Z" fill="black" fill-opacity="0.9"/>
<path d="M637.625 504.577C635.445 505.511 635.704 506.601 638.144 506.809C639.597 506.913 640.22 506.705 640.843 505.771C641.31 505.148 641.673 504.421 641.673 504.214C641.673 503.539 639.493 503.747 637.625 504.577Z" fill="black" fill-opacity="0.9"/>
<path d="M633.161 505.615C633.006 506.03 632.487 506.394 632.02 506.394C630.878 506.394 631.397 507.639 632.694 507.847C633.94 508.054 635.134 506.705 634.718 505.615C634.355 504.629 633.577 504.629 633.161 505.615Z" fill="black" fill-opacity="0.9"/>
<path d="M675.409 505.874C675.409 506.445 675.669 506.913 675.928 506.913C676.24 506.913 676.447 506.445 676.447 505.874C676.447 505.304 676.24 504.837 675.928 504.837C675.669 504.837 675.409 505.304 675.409 505.874Z" fill="black" fill-opacity="0.9"/>
<path d="M685.115 506.29C684.181 507.276 683.714 508.262 683.817 509.041L683.973 510.183L685.426 508.937C686.568 508.003 686.88 507.276 686.724 506.186L686.568 504.733L685.115 506.29Z" fill="black" fill-opacity="0.9"/>
<path d="M655.79 506.913C654.856 507.484 653.818 508.522 653.507 509.248C652.988 510.39 652.884 510.442 652.313 509.664C651.171 508.107 649.978 509.196 649.978 511.843C649.978 514.594 651.171 515.113 652.209 512.726C652.625 511.74 653.143 511.376 653.766 511.48C655.635 511.843 657.296 511.013 658.801 508.885C659.683 507.743 660.358 506.55 660.358 506.29C660.358 505.511 657.503 505.875 655.79 506.913Z" fill="black" fill-opacity="0.9"/>
<path d="M628.698 507.276C628.698 507.899 628.958 508.574 629.217 508.729C629.892 509.144 629.892 507.951 629.217 506.913C628.802 506.29 628.698 506.342 628.698 507.276Z" fill="black" fill-opacity="0.9"/>
<path d="M668.403 508.989C668.04 510.079 668.974 512.311 669.648 511.895C670.167 511.584 669.7 507.951 669.181 507.951C668.922 507.951 668.61 508.418 668.403 508.989Z" fill="black" fill-opacity="0.9"/>
<path d="M730.944 509.092C730.944 509.456 731.203 510.131 731.463 510.546C731.878 511.168 731.982 511.117 731.982 510.182C731.982 509.56 731.775 508.885 731.463 508.729C731.203 508.574 730.944 508.729 730.944 509.092Z" fill="black" fill-opacity="0.9"/>
<path d="M720.668 510.183C719.163 511.791 719.214 512.518 720.823 512.207C721.55 512.103 722.121 511.688 722.121 511.324C722.121 510.909 722.277 510.286 722.432 509.819C722.899 508.625 721.965 508.833 720.668 510.183Z" fill="black" fill-opacity="0.9"/>
<path d="M665.237 510.286C665.029 510.805 664.198 511.065 662.641 511.065C659.631 511.065 656.413 512.414 655.168 514.179C652.832 517.449 654.285 518.072 659.32 516.047C660.98 515.373 663.108 514.646 663.939 514.438C665.133 514.179 665.548 513.815 665.548 512.985C665.548 512.362 666.015 511.532 666.586 511.168C667.209 510.805 667.52 510.286 667.364 510.027C666.897 509.248 665.548 509.404 665.237 510.286Z" fill="black" fill-opacity="0.9"/>
<path d="M688.956 510.857C687.762 512.414 687.502 514.179 688.54 514.179C689.838 514.127 691.966 511.74 691.654 510.598C691.291 509.144 690.253 509.248 688.956 510.857Z" fill="black" fill-opacity="0.9"/>
<path d="M645.203 510.598C643.853 511.376 644.061 512.259 645.877 513.297C647.85 514.387 648.421 514.075 648.421 511.791C648.421 510.287 648.265 510.027 647.279 510.027C646.604 510.027 645.67 510.286 645.203 510.598Z" fill="black" fill-opacity="0.9"/>
<path d="M679.925 510.39C679.094 511.169 679.613 512.155 680.703 511.999C682.209 511.791 682.676 510.027 681.222 510.027C680.703 510.027 680.08 510.183 679.925 510.39Z" fill="black" fill-opacity="0.9"/>
<path d="M676.447 514.023C676.447 515.321 677.226 515.995 677.745 515.165C677.952 514.854 677.745 514.231 677.278 513.764C676.499 512.985 676.447 512.985 676.447 514.023Z" fill="black" fill-opacity="0.9"/>
<path d="M695.288 513.764C694.976 514.127 694.613 514.854 694.457 515.321C694.198 516.048 694.405 516.255 695.34 516.255C696.533 516.255 697.208 515.373 697.208 513.868C697.208 512.985 695.962 512.933 695.288 513.764Z" fill="black" fill-opacity="0.9"/>
<path d="M631.034 514.698C630.878 514.958 630.982 515.684 631.293 516.307C631.864 517.345 631.916 517.345 632.591 516.411C633.006 515.892 633.369 515.165 633.369 514.802C633.369 514.075 631.501 513.971 631.034 514.698Z" fill="black" fill-opacity="0.9"/>
<path d="M683.454 515.217C682.935 515.788 682.209 516.255 681.793 516.255C681.015 516.255 680.911 517.708 681.586 518.798C681.949 519.369 682.468 519.213 684.181 517.864C686.413 516.099 687.035 514.179 685.374 514.179C684.803 514.179 683.973 514.646 683.454 515.217Z" fill="black" fill-opacity="0.9"/>
<path d="M672.711 516.515C671.517 518.072 671.517 519.525 672.658 519.265C673.645 519.058 674.683 516.359 674.06 515.736C673.8 515.476 673.178 515.84 672.711 516.515Z" fill="black" fill-opacity="0.9"/>
<path d="M664.873 518.175C664.25 518.746 664.458 519.369 665.289 519.369C665.704 519.369 666.067 519.006 666.067 518.591C666.067 517.76 665.444 517.552 664.873 518.175Z" fill="black" fill-opacity="0.9"/>
</svg>
