<svg width="1920" height="931" viewBox="0 0 1920 931" fill="none" xmlns="http://www.w3.org/2000/svg">
<path d="M954.976 289.6C954.212 290.745 953.735 291.986 954.021 292.368C954.69 293.513 959.653 291.509 961.658 289.313C963.28 287.595 963.185 287.5 959.844 287.5C957.457 287.5 956.026 288.072 954.976 289.6Z" fill="black" fill-opacity="0.9"/>
<path d="M927.39 292.654C927.104 293.417 927.2 294.372 927.677 294.658C928.918 295.422 929.968 293.227 928.822 292.081C928.25 291.508 927.773 291.699 927.39 292.654Z" fill="black" fill-opacity="0.9"/>
<path d="M943.426 293.609C936.172 296.472 929.109 300.004 922.141 304.394C913.455 309.931 889.497 327.016 889.974 327.398C891.024 328.448 896.847 325.966 904.006 321.385C908.396 318.617 913.932 315.658 916.319 314.894C919.659 313.749 920.518 312.985 920.518 311.267C920.518 309.262 921.187 308.881 925.196 308.308C927.677 307.926 931.972 306.59 934.645 305.254C941.804 301.817 953.449 291.127 949.917 291.318C949.44 291.413 946.576 292.368 943.426 293.609Z" fill="black" fill-opacity="0.9"/>
<path d="M990.866 292.94C991.057 294.086 992.011 294.659 993.538 294.659C995.066 294.659 996.02 294.086 996.211 292.94C996.498 291.7 995.925 291.318 993.538 291.318C991.152 291.318 990.579 291.7 990.866 292.94Z" fill="black" fill-opacity="0.9"/>
<path d="M917.655 297.617C915.841 299.431 916.223 300.194 918.514 299.335C919.373 299.049 920.041 298.19 920.041 297.426C920.041 295.708 919.564 295.708 917.655 297.617Z" fill="black" fill-opacity="0.9"/>
<path d="M954.881 299.908C950.204 301.436 944.477 303.154 942.281 303.726C939.8 304.299 938.082 305.445 937.699 306.59C936.745 309.549 932.068 312.89 925.005 315.562C920.041 317.471 917.273 319.285 913.837 322.912C910.305 326.635 906.583 329.021 896.751 333.794C884.056 339.998 877.088 344.77 877.088 347.252C877.088 349.066 877.279 348.97 883.292 346.107C886.156 344.77 890.07 343.434 892.074 343.148C894.365 342.766 897.133 341.334 899.614 339.043C901.81 337.039 905.724 334.748 908.682 333.794C917.368 330.93 920.614 328.83 926.341 322.339C932.163 315.753 936.745 312.317 939.609 312.317C940.563 312.317 943.236 310.599 945.527 308.404C950.49 303.822 954.881 301.817 959.94 301.817C962.326 301.817 964.235 301.149 965.189 300.099C968.721 296.186 966.526 296.186 954.881 299.908Z" fill="black" fill-opacity="0.9"/>
<path d="M973.971 303.822C970.153 304.681 967.385 307.067 968.339 308.594C968.625 309.072 970.248 309.453 972.062 309.453C974.352 309.453 975.784 308.785 977.216 306.972C979.22 304.394 979.793 302.676 978.553 302.867C978.075 302.963 976.071 303.344 973.971 303.822Z" fill="black" fill-opacity="0.9"/>
<path d="M981.13 304.681C981.13 306.208 981.798 306.59 984.471 306.59C987.143 306.59 987.811 306.208 987.811 304.681C987.811 303.154 987.143 302.772 984.471 302.772C981.798 302.772 981.13 303.154 981.13 304.681Z" fill="black" fill-opacity="0.9"/>
<path d="M997.738 304.203C998.025 305.063 998.311 306.017 998.311 306.208C998.311 306.399 998.979 306.59 999.838 306.59C1001.94 306.59 1001.08 303.344 998.884 302.963C997.547 302.676 997.261 302.963 997.738 304.203Z" fill="black" fill-opacity="0.9"/>
<path d="M963.281 308.022C962.994 308.881 962.994 309.74 963.281 310.026C964.14 310.885 965.858 309.453 965.858 307.926C965.858 306.113 964.044 306.208 963.281 308.022Z" fill="black" fill-opacity="0.9"/>
<path d="M952.113 311.935C951.54 313.367 953.735 316.04 955.644 316.135C956.695 316.135 956.408 312.794 955.167 311.553C953.64 310.026 952.781 310.122 952.113 311.935Z" fill="black" fill-opacity="0.9"/>
<path d="M980.079 311.362C970.057 311.84 969.962 311.84 967.385 314.894C965.475 317.09 963.948 318.044 961.944 318.044C960.417 318.044 957.553 318.617 955.644 319.38C953.64 320.144 947.149 322.339 941.135 324.248C934.549 326.253 927.582 329.307 923.477 331.789C919.755 334.08 915.65 336.275 914.314 336.657C912.978 337.039 910.209 338.948 908.11 340.857C906.01 342.861 902.478 344.961 900.283 345.629C897.992 346.202 895.319 347.92 893.887 349.543C892.169 351.643 890.642 352.406 888.542 352.406C886.347 352.406 885.392 352.884 885.01 354.22C884.724 355.175 882.529 357.274 880.142 358.897C877.661 360.52 874.415 363.097 872.793 364.815L869.929 367.774L874.225 367.106C881.288 366.056 883.77 364.243 883.77 360.329C883.77 358.42 883.961 358.324 886.156 359.279C889.21 360.615 892.933 358.992 901.905 352.406C905.341 349.925 909.541 347.157 911.259 346.298C913.264 345.248 914.314 344.007 914.314 342.766C914.314 341.048 914.505 340.952 915.746 341.907C916.891 342.861 917.559 342.861 918.323 342.098C918.991 341.43 920.232 340.952 921.091 340.952C921.95 340.952 926.436 338.566 931.113 335.703C939.513 330.357 951.922 325.68 957.362 325.68C958.985 325.68 961.658 324.63 963.281 323.389C966.43 321.003 973.589 318.33 983.039 316.135C988.384 314.799 991.152 313.176 990.579 311.649C990.388 311.267 985.616 311.076 980.079 311.362Z" fill="black" fill-opacity="0.9"/>
<path d="M993.538 311.362C993.538 311.84 994.111 312.317 994.875 312.317C995.639 312.317 996.593 311.84 996.879 311.362C997.166 310.79 996.593 310.408 995.543 310.408C994.397 310.408 993.538 310.79 993.538 311.362Z" fill="black" fill-opacity="0.9"/>
<path d="M941.422 314.226C939.513 314.99 934.932 319.953 935.6 320.526C936.172 321.098 947.818 317.28 949.344 316.039C950.585 314.894 950.585 314.703 948.963 314.13C946.672 313.176 943.904 313.176 941.422 314.226Z" fill="black" fill-opacity="0.9"/>
<path d="M999.17 316.135C991.534 317.471 985.425 321.767 986.093 325.298C986.379 326.826 986.762 326.73 988.861 324.439L991.247 321.767L993.061 323.771C995.352 326.253 995.639 326.253 1002.89 322.626L1009.1 319.667L1016.16 321.385L1023.22 323.198L1025.71 320.621L1028.28 318.139L1025.42 316.994C1021.98 315.658 1004.99 314.99 999.17 316.135Z" fill="black" fill-opacity="0.9"/>
<path d="M965.953 327.303C956.408 330.071 945.24 333.698 941.136 335.321C932.355 338.852 921.95 345.248 916.605 350.306C914.028 352.884 911.832 354.029 910.114 354.029C908.301 354.029 906.105 355.366 903.051 358.324C900.569 360.71 892.169 366.82 884.247 371.974C869.834 381.328 866.302 384.001 855.134 393.451C847.785 399.654 847.498 399.941 847.498 402.804C847.498 406.145 850.457 405.095 852.748 400.896C854.275 398.032 855.707 396.982 860.098 395.359C863.057 394.31 866.875 392.114 868.402 390.587C869.929 388.964 872.22 387.724 873.366 387.724C876.42 387.724 881.097 383.81 884.724 378.274C886.347 375.601 888.256 373.406 888.924 373.406C891.788 373.406 900.664 368.06 911.927 359.661C928.441 347.157 931.4 345.629 948.963 339.902C957.267 337.23 965.572 333.984 967.385 332.743C973.112 328.83 976.453 327.398 978.648 327.971C981.416 328.639 984.28 326.539 983.802 324.153C983.516 322.339 982.753 322.435 965.953 327.303Z" fill="black" fill-opacity="0.9"/>
<path d="M1014.44 327.589C1011.48 328.066 1004.04 329.689 997.738 331.312C991.534 332.839 983.993 334.366 981.13 334.748C975.498 335.511 971.68 337.039 969.771 339.425C968.625 340.761 968.912 340.952 972.253 340.952C974.352 340.952 983.325 339.616 992.202 337.898C1006.33 335.225 1010.34 334.843 1024.56 334.843C1038.88 334.843 1041.46 335.034 1046.32 336.848C1051.67 338.948 1051.76 338.948 1051.76 337.039C1051.76 335.989 1051 334.939 1050.14 334.557C1049.19 334.271 1045.46 332.552 1041.74 330.739C1036.3 328.162 1033.63 327.494 1027.42 327.112C1023.22 326.921 1017.4 327.112 1014.44 327.589Z" fill="black" fill-opacity="0.9"/>
<path d="M1012.44 339.998C1011.01 340.38 1007.47 342.098 1004.71 343.72C999.075 346.966 996.211 347.252 988.861 345.534C984.279 344.484 983.802 344.58 981.702 346.584C979.984 348.207 978.552 348.588 975.784 348.398C972.348 348.111 972.061 348.302 971.775 350.879L971.394 353.648L976.834 352.979C979.889 352.693 992.011 350.402 1003.94 348.111C1033.72 342.193 1035.35 342.002 1038.97 345.057C1040.6 346.488 1043.65 347.825 1045.85 348.207C1049.85 348.875 1054.63 348.111 1054.63 346.87C1054.63 345.725 1047.75 342.193 1042.31 340.571C1036.68 338.948 1017.21 338.566 1012.44 339.998Z" fill="black" fill-opacity="0.9"/>
<path d="M955.549 343.339C933.595 348.97 903.433 368.252 884.056 389.059C880.334 392.973 877.375 395.359 876.038 395.359C874.893 395.359 872.029 397.46 869.166 400.323C866.398 403.091 862.102 406.909 859.43 408.723C856.853 410.536 853.798 413.591 852.748 415.5C851.125 418.459 850.553 418.84 849.121 417.886C847.689 417.027 847.021 417.313 845.112 419.413C842.63 422.276 838.621 432.108 839.099 434.208C839.29 435.067 842.917 432.204 848.453 426.858C858.571 416.932 870.406 407.291 882.72 398.7C889.019 394.214 891.501 391.828 893.506 388.2C894.938 385.623 897.515 382.283 899.233 380.851C905.341 375.697 924.527 364.051 942.281 354.697C957.267 346.775 966.907 340.952 964.903 341.048C964.617 341.048 960.417 342.098 955.549 343.339Z" fill="black" fill-opacity="0.9"/>
<path d="M1013.58 351.452C1013.58 353.075 1018.16 357.179 1021.51 358.611C1026.56 360.71 1034.2 361.379 1037.35 360.043C1039.93 358.992 1040.5 359.183 1043.46 361.379C1048.71 365.388 1069.8 372.833 1071.43 371.21C1072.57 370.065 1069.71 366.724 1067.51 366.724C1065.7 366.724 1065.03 366.056 1064.36 363.574C1063.6 360.615 1063.22 360.424 1050.52 356.511C1043.36 354.315 1034.87 352.025 1031.53 351.452C1023.61 350.211 1013.58 350.211 1013.58 351.452Z" fill="black" fill-opacity="0.9"/>
<path d="M952.017 354.124C945.908 356.225 940.849 359.183 929.777 367.201C924.813 370.733 917.082 375.697 912.596 378.369C908.014 380.946 902.478 384.574 900.283 386.387C896.56 389.442 891.692 395.932 892.551 396.791C893.505 397.841 903.433 392.019 913.359 384.574C924.336 376.269 941.326 366.724 952.589 362.524C957.84 360.615 958.794 359.851 959.367 357.274C960.131 354.507 960.512 354.315 964.426 354.315C966.717 354.315 968.912 353.838 969.198 353.361C970.153 351.738 957.171 352.311 952.017 354.124Z" fill="black" fill-opacity="0.9"/>
<path d="M995.447 356.606C994.111 357.465 990.579 358.133 987.334 358.133C980.652 358.133 979.507 358.706 978.361 362.525L977.598 365.388L992.011 365.006C1005.95 364.624 1013.58 363.67 1013.58 362.047C1013.58 361.665 1012.34 360.138 1010.72 358.611C1007.28 355.366 999.361 354.315 995.447 356.606Z" fill="black" fill-opacity="0.9"/>
<path d="M1014.54 363.097C1014.54 365.961 1015.97 368.06 1017.21 367.297C1017.78 366.915 1019.69 367.965 1021.51 369.492C1023.99 371.688 1027.33 373.024 1036.49 375.314C1050.52 378.847 1053.96 380.183 1058.73 384.001C1061.5 386.292 1062.93 386.769 1065.03 386.292C1067.13 385.814 1068.37 386.292 1070.66 388.2C1072.19 389.537 1073.91 390.587 1074.48 390.587C1076.1 390.587 1076.68 387.532 1075.44 386.006C1072.95 383.046 1060.07 375.314 1052.91 372.547C1044.8 369.492 1017.69 360.997 1015.78 360.997C1015.11 360.997 1014.54 361.952 1014.54 363.097Z" fill="black" fill-opacity="0.9"/>
<path d="M967.767 363.86C948.963 367.774 929.109 378.178 908.301 395.264C900.283 401.85 898.087 403.091 898.087 401.086C898.087 399.751 893.983 399.846 892.551 401.278C891.883 401.945 891.406 403.377 891.406 404.523C891.406 407.1 889.878 408.341 889.115 406.337C888.351 404.236 885.297 404.619 883.197 406.909C882.243 408.055 876.42 412.923 870.406 417.791C858.952 426.954 849.503 436.499 847.021 441.272C845.78 443.563 845.112 443.944 843.203 443.467C841.294 442.99 840.53 443.467 838.908 446.235C837.762 448.048 836.33 449.862 835.567 450.149C834.803 450.435 833.658 452.44 833.085 454.634C832.131 457.689 831.176 458.93 828.694 459.98C825.067 461.412 823.635 463.894 825.64 465.134C829.172 467.33 835.949 461.125 837.953 453.967C839.194 449.766 840.244 449.385 841.008 452.916C841.198 454.348 843.394 452.916 851.603 446.235C857.33 441.653 862.77 437.453 863.725 436.976C864.679 436.404 866.207 434.686 867.161 433.158C872.029 424.758 879.761 418.65 897.61 408.723C904.482 404.905 914.505 398.414 920.041 394.31C933.118 384.669 940.086 380.469 945.813 379.037C948.963 378.274 950.776 377.129 951.636 375.506C953.258 372.547 957.84 370.256 960.704 370.924C962.039 371.306 963.949 370.924 965.189 370.16C966.335 369.397 968.912 368.442 970.821 368.156C974.639 367.393 976.739 365.674 976.167 363.574C975.976 362.429 974.639 362.429 967.767 363.86Z" fill="black" fill-opacity="0.9"/>
<path d="M981.416 370.924C974.735 372.451 972.539 373.501 967.48 377.51C964.617 379.706 963.567 380.087 962.995 379.133C961.753 377.224 954.118 378.56 947.435 381.901C944.19 383.523 936.364 388.773 930.064 393.546C923.668 398.414 915.078 403.95 910.496 406.05C901.428 410.441 891.883 417.599 877.088 431.153C871.552 436.308 865.634 441.558 863.916 442.799C861.816 444.517 860.48 446.616 859.812 449.48C858.571 454.253 857.425 455.398 856.566 452.63C855.707 449.862 854.18 450.244 854.18 453.298C854.18 456.925 853.225 460.266 852.175 460.266C851.698 460.266 851.316 459.216 851.316 457.88C851.316 456.544 850.935 455.493 850.362 455.493C849.885 455.493 849.407 456.162 849.407 457.021C849.407 457.88 848.071 459.026 846.544 459.598C843.776 460.648 843.585 460.934 844.158 464.275C844.826 467.902 844.826 467.902 841.867 467.33C839.48 466.852 838.431 467.234 836.044 469.621C833.753 471.911 833.181 473.343 833.181 476.493C833.181 480.216 833.276 480.406 835.758 480.12C838.144 479.833 838.431 479.452 838.335 476.207C838.24 472.579 839.48 471.72 841.58 473.82C842.535 474.775 845.017 472.771 853.512 463.798C859.812 457.211 865.92 451.676 868.402 450.435C871.457 448.812 872.984 447.38 873.747 444.994C874.606 442.417 878.043 439.458 892.456 428.958C902.096 421.895 916.033 411.3 923.382 405.381C938.463 393.355 943.045 390.11 950.585 386.292C955.072 384.001 956.122 383.81 958.699 384.764C961.944 385.909 966.621 384.955 985.425 379.133C991.152 377.415 996.498 376.269 998.789 376.46C1002.13 376.746 1002.61 376.46 1002.89 374.646C1003.18 373.024 1002.61 372.164 1000.89 371.592C996.498 369.874 987.43 369.587 981.416 370.924Z" fill="black" fill-opacity="0.9"/>
<path d="M1009.29 370.351C1005.76 371.115 1004.04 373.31 1005.18 375.792C1006.04 377.701 1007.09 377.988 1013.68 378.56C1019.79 379.133 1021.79 379.706 1024.08 381.614C1027.33 384.383 1030.19 384.287 1030.57 381.519C1031.05 377.988 1014.54 369.301 1009.29 370.351Z" fill="black" fill-opacity="0.9"/>
<path d="M1036.97 380.087C1036.3 381.233 1037.16 382.951 1038.5 382.951C1039.64 382.951 1039.64 380.374 1038.5 379.61C1038.02 379.323 1037.35 379.515 1036.97 380.087Z" fill="black" fill-opacity="0.9"/>
<path d="M1042.98 384.096C1042.7 387.151 1042.6 387.246 1038.88 386.96C1033.63 386.578 1024.85 385.05 1017.12 383.237C1008.05 381.137 995.161 381.997 981.608 385.814C975.88 387.341 965.094 390.205 957.649 391.923C939.322 396.409 928.632 401.469 925.673 407.1C924.718 408.818 924.91 408.818 927.868 408.245C929.586 407.864 935.409 406.05 940.754 404.332C947.532 402.041 952.208 401.086 956.313 401.086C961.658 401.086 962.422 400.8 964.617 398.223C966.144 396.409 967.863 395.359 969.485 395.359C970.821 395.359 978.362 394.023 986.284 392.4C1004.61 388.678 1012.06 388.487 1019.6 391.923C1025.8 394.691 1028.66 394.978 1031.24 393.068C1032.77 391.923 1033.53 392.209 1037.26 394.787C1040.88 397.364 1042.22 397.746 1047.56 397.746C1050.91 397.746 1053.67 398.032 1053.67 398.414C1053.67 399.941 1058.45 402.136 1064.08 403.091C1068.95 403.95 1071.14 405 1075.82 408.818C1081.07 413.018 1086.13 414.927 1086.13 412.636C1086.13 411.109 1071.24 397.746 1065.8 394.596C1062.84 392.782 1057.59 390.396 1053.96 389.251C1048.52 387.437 1047.28 386.578 1046.13 384.096C1044.32 380.182 1043.36 380.278 1042.98 384.096Z" fill="black" fill-opacity="0.9"/>
<path d="M994.97 399.082C989.72 401.469 988.957 401.659 987.143 400.418C985.234 399.082 984.566 399.178 980.557 401.469C977.885 402.996 974.639 403.95 972.348 403.95C968.339 403.95 954.213 408.531 953.545 409.963C952.59 412.254 947.054 417.6 943.809 419.318C941.708 420.368 935.504 422.659 929.873 424.472C917.559 428.481 910.019 433.349 897.706 444.994C890.069 452.248 862.77 482.315 862.77 483.556C862.77 483.747 864.393 483.556 866.302 482.983C872.029 481.456 877.47 476.875 888.256 464.753C894.842 457.403 901.332 451.198 907.059 446.999C917.846 438.981 945.908 422.086 948.39 422.086C949.345 422.086 952.972 420.558 956.503 418.745C959.94 416.836 966.144 414.545 970.153 413.495C974.162 412.445 979.984 410.059 983.134 408.15C988.67 404.714 988.861 404.618 996.402 405.191C1000.7 405.478 1004.61 406.145 1005.28 406.623C1005.95 407.196 1009.86 407.577 1014.06 407.672C1019.98 407.672 1024.08 408.436 1032.67 411.109C1038.69 412.923 1045.65 414.45 1048.04 414.45C1050.81 414.45 1052.91 415.022 1053.67 415.881C1055.3 417.886 1062.84 422.086 1064.74 422.086C1065.6 422.086 1068.85 423.804 1072 425.904C1075.15 428.004 1078.49 429.722 1079.35 429.722C1080.21 429.722 1081.74 430.963 1082.59 432.49C1084.41 435.64 1087.65 437.167 1089.28 435.545C1090.99 433.826 1088.61 430.39 1081.26 423.899C1077.44 420.558 1072.19 415.595 1069.61 413.018C1067.04 410.346 1065.13 409.009 1065.51 409.868C1065.8 410.822 1066.37 412.35 1066.75 413.209C1067.32 414.831 1067.23 414.831 1065.41 413.209C1064.36 412.35 1063.03 411.586 1062.45 411.586C1061.88 411.586 1060.16 410.536 1058.64 409.2C1057.01 407.768 1053.58 406.432 1050.62 405.859C1047.85 405.286 1041.46 403.663 1036.49 402.136C1021.03 397.364 1015.97 396.314 1008.24 396.314C1001.94 396.314 999.743 396.791 994.97 399.082Z" fill="black" fill-opacity="0.9"/>
<path d="M940.277 408.245C923.764 411.3 918.323 413.782 907.537 423.04C903.337 426.668 896.847 431.249 893.219 433.158C883.292 438.408 868.307 455.398 858.666 472.388C855.612 477.734 854.18 479.357 852.748 479.166C851.412 478.975 850.744 479.547 850.553 480.979C849.98 484.702 853.225 483.556 861.625 477.161C864.489 475.062 872.507 466.566 879.474 458.453C891.979 443.753 899.328 436.977 909.542 430.486C918.514 424.759 931.972 418.459 938.082 417.027C944.286 415.595 947.054 413.686 949.249 409.487C950.872 406.337 950.968 406.337 940.277 408.245Z" fill="black" fill-opacity="0.9"/>
<path d="M870.693 412.064C870.406 412.923 870.406 413.782 870.693 414.068C871.552 414.927 873.27 413.495 873.27 411.968C873.27 410.154 871.457 410.25 870.693 412.064Z" fill="black" fill-opacity="0.9"/>
<path d="M983.516 414.927C939.895 428.576 917.751 442.131 879.952 478.115C871.648 486.038 869.166 487.947 866.78 487.947C864.298 487.947 863.725 488.52 861.434 493.578C860.098 496.633 858.953 499.783 858.953 500.451C858.953 501.406 858.571 501.31 857.425 500.165C855.994 498.829 855.23 499.21 847.689 504.556C842.44 508.278 838.621 511.81 837.094 514.387C835.758 516.583 833.944 518.682 833.085 518.969C832.322 519.255 830.699 521.164 829.458 523.264C828.313 525.364 826.595 527.559 825.736 528.227C824.686 529.086 824.017 531.091 823.827 533.954C823.731 536.531 823.827 538.536 824.113 538.536C824.304 538.536 827.645 536.055 831.367 533C835.853 529.469 838.908 526.223 839.958 523.742C840.912 521.641 841.771 520.496 841.771 521.068C841.771 521.737 842.058 522.31 842.535 522.31C842.917 522.31 848.548 517.059 855.135 510.569C861.721 504.174 874.607 492.243 883.77 484.225C892.933 476.111 905.438 464.943 911.451 459.407C918.991 452.344 923.859 448.717 926.818 447.571C929.3 446.616 936.364 442.799 942.568 439.076C963.854 426.381 973.494 423.231 994.493 422.372C1011.29 421.704 1025.71 424.091 1045.46 430.772C1062.26 436.404 1064.94 437.74 1065.99 440.508C1066.56 441.94 1067.61 442.608 1069.71 442.703C1071.62 442.799 1074.58 444.422 1078.2 447.285C1083.45 451.389 1087.27 452.726 1088.42 450.912C1089.28 449.576 1079.54 437.549 1074.77 434.113C1068.56 429.531 1063.98 427.717 1058.35 427.622C1053.86 427.527 1053.67 427.336 1053.67 424.854C1053.67 422.276 1053.48 422.181 1050.62 422.754C1048.9 423.136 1046.42 423.422 1045.08 423.518C1042.98 423.518 1042.7 423.136 1042.7 419.89C1042.7 417.981 1042.41 416.359 1042.03 416.359C1041.55 416.359 1041.26 416.932 1041.26 417.695C1041.26 420.463 1039.16 420.272 1030.48 416.645C1022.27 413.209 1021.03 413.018 1011.67 412.923C1005.85 412.923 1000.79 412.445 999.552 411.777C997.071 410.346 999.266 409.963 983.516 414.927Z" fill="black" fill-opacity="0.9"/>
<path d="M861.721 419.127C858.666 422.277 857.807 425.14 860.671 422.945C864.107 420.368 866.589 417.886 866.589 417.122C866.589 415.595 864.489 416.454 861.721 419.127Z" fill="black" fill-opacity="0.9"/>
<path d="M999.743 427.527C997.643 427.717 989.243 428.767 981.225 429.818C967.385 431.631 966.24 431.917 963.09 434.686C959.367 438.026 956.122 439.458 948.963 441.176C942.472 442.608 936.172 446.521 923.382 456.83C917.655 461.412 910.496 466.471 907.632 467.903C904.387 469.525 900.569 472.675 897.515 476.207C889.878 484.988 877.184 497.492 857.616 515.628L839.671 532.332L840.244 537.773C840.817 543.786 839.385 546.268 838.335 540.923C838.049 539.109 837.476 537.582 837.094 537.582C836.044 537.677 833.658 539.968 830.508 543.977C828.694 546.363 826.499 548.082 825.449 548.082C823.826 548.082 823.636 548.558 824.208 551.327C824.972 555.622 823.826 557.626 822.108 555.24C820.867 553.618 820.677 553.713 819.34 556.959C817.622 561.063 817.431 569.653 819.054 570.608C820.39 571.467 824.686 566.312 824.399 564.308C824.208 563.545 823.158 562.781 821.917 562.59C817.431 561.922 820.39 559.536 825.64 559.536C829.935 559.536 832.703 556.099 833.562 549.99C834.231 545.6 834.422 545.122 835.185 546.84C835.567 548.082 836.521 549.036 837.285 549.036C837.953 549.036 841.485 545.313 845.112 540.636C848.739 536.055 857.712 526.223 865.061 518.778C874.893 508.565 878.138 504.746 877.756 503.41C877.375 501.883 878.138 501.31 881.288 500.356C884.438 499.497 887.588 496.728 897.133 486.897C903.719 480.12 909.828 474.584 910.687 474.584C912.405 474.584 918.227 469.334 921.855 464.562C923.191 462.748 924.146 462.08 924.432 462.843C925.291 464.753 926.436 464.37 931.686 460.171C938.082 455.207 945.145 451.58 960.131 445.949C966.717 443.467 974.735 440.126 977.789 438.695C983.326 436.021 983.898 435.926 998.789 435.926H1014.06L1028.86 441.462C1038.21 444.994 1046.13 447.285 1050.33 447.858C1059.21 448.907 1059.5 449.003 1064.55 455.493C1068.85 460.934 1072.76 463.321 1081.54 465.516C1084.79 466.375 1086.41 467.903 1089.28 472.388C1091.85 476.397 1093.76 477.639 1093.76 475.252C1093.76 472.388 1086.13 461.412 1080.3 456.066C1072.1 448.431 1062.93 443.944 1047.28 439.649C1046.61 439.458 1046.04 438.312 1046.04 436.976C1046.04 435.64 1045.65 434.303 1045.08 434.017C1044.61 433.731 1044.13 434.113 1044.13 434.876C1044.13 437.453 1042.41 437.453 1038.21 434.686C1028.76 428.386 1015.97 425.999 999.743 427.527Z" fill="black" fill-opacity="0.9"/>
<path d="M997.93 440.985C995.829 443.371 994.398 443.753 978.744 445.471C961.753 447.285 958.222 448.526 949.154 455.971C944.954 459.407 938.559 463.702 934.836 465.707C918.514 474.202 899.615 489.283 889.211 502.265C885.679 506.655 881.574 510.76 880.047 511.428C878.52 512.096 876.134 514.196 874.607 516.105C869.071 523.264 865.539 526.891 863.439 527.464C861.912 527.846 860.098 530.518 856.757 537.104C854.275 542.068 852.271 546.84 852.271 547.604C852.271 549.513 851.316 549.417 849.694 547.318C848.453 545.791 848.357 545.791 846.926 547.604C846.162 548.654 844.253 551.518 842.726 553.999C840.721 557.149 839.29 558.581 837.858 558.581C835.949 558.581 835.853 558.867 836.426 563.258C836.808 566.122 836.617 568.221 836.044 568.603C835.567 568.889 835.09 568.317 835.09 567.267C835.09 565.358 833.467 563.64 832.608 564.594C832.322 564.88 832.417 567.554 832.799 570.608L833.467 576.048L838.717 570.417C841.676 567.362 847.212 561.444 851.03 557.435C855.135 553.14 857.998 549.322 857.998 548.177C857.998 546.84 858.571 546.172 859.907 546.172C861.243 546.172 862.771 544.645 864.68 541.591C866.207 539.109 869.071 535.386 871.075 533.286C873.08 531.187 876.42 526.795 878.52 523.55C880.906 519.923 883.484 517.155 885.393 516.2C887.397 515.246 888.733 513.814 889.115 512.096C889.402 510.664 889.688 509.137 889.783 508.755C890.261 506.942 918.8 483.27 928.155 476.97C944.763 465.898 971.489 453.299 987.335 449.29C997.547 446.712 1011.29 447.762 1024.56 452.153C1032.01 454.634 1048.9 463.13 1065.13 472.675C1080.11 481.456 1091.66 487.47 1092.43 486.802C1092.62 486.611 1091.66 484.797 1090.33 482.793C1088.8 480.597 1083.84 476.588 1077.15 472.198C1071.24 468.284 1065.22 463.607 1063.79 461.793C1062.07 459.502 1059.97 458.071 1057.4 457.403C1055.3 456.83 1047.47 453.775 1040.12 450.625C1023.42 443.658 1013.58 440.508 1005.76 439.649C1000.41 439.171 999.552 439.267 997.93 440.985Z" fill="black" fill-opacity="0.9"/>
<path d="M983.516 456.066C967.003 459.694 950.871 467.043 932.831 479.261C916.509 490.238 908.777 497.492 890.642 518.969C874.129 538.536 872.602 540.159 869.07 541.877C866.302 543.214 861.434 550.754 859.811 556.195C858.952 559.249 857.807 560.967 856.375 561.54C855.229 561.922 853.13 564.117 851.793 566.312C849.502 569.844 849.407 570.321 850.743 571.849C851.602 572.803 852.27 574.044 852.27 574.616C852.27 576.431 854.657 575.953 856.757 573.567C857.807 572.422 859.62 569.748 860.67 567.649C861.72 565.549 863.916 562.876 865.538 561.635C867.161 560.49 869.356 557.722 870.502 555.431C871.647 553.236 875.656 548.177 879.379 544.263C883.101 540.35 888.924 533 892.265 528.037C898.946 518.014 902.382 514.578 923.381 496.824C931.304 490.142 939.608 482.983 941.994 480.788C945.622 477.543 947.34 476.684 952.781 475.729C956.408 475.061 963.28 472.771 968.053 470.67C993.824 459.312 998.883 458.643 1015.49 464.37C1021.03 466.184 1027.04 467.998 1028.95 468.284C1030.76 468.666 1036.49 471.625 1041.55 474.965C1050.62 480.979 1056.15 483.842 1057.01 482.983C1057.3 482.793 1057.78 481.17 1058.06 479.547C1058.54 477.161 1058.35 476.397 1056.92 475.825C1055.87 475.348 1052.15 473.057 1048.42 470.67C1040.02 465.134 1030.1 460.075 1022.17 457.403C1013.87 454.539 993.443 453.871 983.516 456.066Z" fill="black" fill-opacity="0.9"/>
<path d="M983.326 466.852C981.607 467.998 980.176 469.238 980.176 469.716C980.176 470.766 985.616 471.529 993.252 471.625C998.693 471.625 1003.47 473.629 1004.9 476.397C1005.66 477.829 1007.38 478.211 1013.11 478.593C1019.31 478.974 1021.6 479.738 1029.14 483.461C1039.83 488.806 1049 496.633 1067.9 516.487C1075.44 524.504 1081.74 530.804 1082.02 530.518C1082.69 529.85 1077.82 520.687 1072.29 512.287C1065.41 501.692 1060.16 496.155 1054.53 493.388C1051.95 492.051 1048.42 489.283 1046.9 487.374C1039.83 478.497 1033.15 475.348 1007.38 468.761C991.82 464.848 987.239 464.466 983.326 466.852Z" fill="black" fill-opacity="0.9"/>
<path d="M851.316 471.72C850.553 473.247 850.553 473.63 851.698 473.63C853.225 473.63 854.466 471.053 853.225 470.289C852.748 470.002 851.889 470.67 851.316 471.72Z" fill="black" fill-opacity="0.9"/>
<path d="M966.812 475.062C964.235 477.161 962.135 478.211 961.085 477.925C957.171 476.684 945.622 483.938 931.686 496.442C926.627 500.929 917.941 508.469 912.5 513.147C901.715 522.596 895.988 528.991 891.31 537.391C889.592 540.35 885.965 545.218 883.292 548.177C880.62 551.136 876.324 556.672 873.747 560.585C871.265 564.499 869.07 567.84 868.879 568.03C868.688 568.222 867.925 567.935 867.256 567.267C865.634 566.026 864.298 567.744 861.052 575.094C858.093 581.775 855.23 585.403 851.698 586.835C849.789 587.694 848.453 588.839 848.453 589.889C848.453 592.466 844.921 597.621 842.344 598.861C841.007 599.434 839.862 600.771 839.671 601.82C839.48 602.87 838.144 604.493 836.521 605.352C834.326 606.593 833.562 607.738 833.18 610.697C832.799 613.465 832.512 614.038 831.94 612.702C830.89 609.934 829.076 611.366 827.835 615.947C827.262 618.525 826.308 620.052 825.544 619.86C824.781 619.67 824.59 620.147 825.067 621.292C825.449 622.247 826.022 623.774 826.213 624.633C827.072 627.497 829.362 626.542 830.985 622.724C832.799 618.238 832.799 618.238 834.708 619.765C836.426 621.197 835.949 621.674 841.867 613.179C843.489 610.888 846.257 608.216 847.975 607.07C850.075 605.925 852.366 603.157 854.18 599.72C855.802 596.762 859.048 591.989 861.339 589.125C863.725 586.262 867.447 580.916 869.643 577.194C871.838 573.567 875.084 568.699 876.802 566.408C878.52 564.117 879.952 561.158 879.952 559.822C879.952 558.294 881.192 556.29 883.483 554.19C885.392 552.377 887.301 550.945 887.683 550.945C888.065 550.945 892.36 546.077 897.133 540.159C906.391 528.896 911.164 524.123 915.46 521.832C917.178 520.878 918.609 518.778 919.755 515.628C921.282 511.332 922.905 509.328 922.905 511.81C922.905 513.814 924.813 512.574 930.732 506.751C934.549 503.028 939.704 499.21 944.763 496.538C949.249 494.151 956.312 489.761 960.512 486.706L968.149 481.17L980.175 481.456C991.247 481.648 992.393 481.552 996.211 479.357C1000.7 476.78 1001.27 475.538 998.025 475.538C996.784 475.538 991.725 474.679 986.762 473.63C973.78 470.957 971.585 471.053 966.812 475.062Z" fill="black" fill-opacity="0.9"/>
<path d="M828.121 477.066C827.072 478.974 826.403 484.034 827.072 486.42C828.026 490.238 830.317 487.756 830.317 482.793C830.317 478.879 829.076 475.634 828.121 477.066Z" fill="black" fill-opacity="0.9"/>
<path d="M844.73 478.784C843.966 479.643 843.68 480.597 844.062 480.979C844.921 481.838 846.83 479.738 846.353 478.402C846.162 477.638 845.589 477.734 844.73 478.784Z" fill="black" fill-opacity="0.9"/>
<path d="M1057.97 483.366C1057.49 486.324 1058.06 487.184 1067.23 496.728C1077.25 507.133 1080.49 509.042 1084.12 507.037C1086.89 505.605 1086.7 504.937 1082.88 502.838C1081.07 501.883 1076.68 497.492 1073.24 493.102C1067.04 485.274 1061.79 480.311 1059.59 480.311C1059.02 480.311 1058.25 481.743 1057.97 483.366Z" fill="black" fill-opacity="0.9"/>
<path d="M836.139 484.893C834.803 487.375 835.471 488.902 837.094 487.279C837.666 486.706 837.953 485.465 837.762 484.511C837.475 482.888 837.285 482.888 836.139 484.893Z" fill="black" fill-opacity="0.9"/>
<path d="M1000.7 483.747C999.647 483.938 993.443 484.511 986.857 484.988C972.253 486.229 968.339 487.374 963.662 492.051C960.99 494.724 959.653 495.488 958.794 494.724C957.935 493.961 956.026 495.201 951.54 499.401C948.199 502.455 945.144 504.842 944.668 504.556C944.285 504.269 941.995 504.937 939.608 505.987C934.073 508.469 910.114 532.522 898.278 547.413C893.697 553.236 886.824 561.73 883.102 566.312C879.283 570.99 876.133 574.999 876.133 575.285C876.133 575.571 874.606 579.008 872.793 583.017C870.979 586.93 869.452 590.843 869.452 591.607C869.452 592.657 868.879 592.848 867.543 592.466C866.207 592.084 865.443 592.37 864.966 593.612C864.679 594.566 862.77 597.525 860.766 600.198C858.666 602.87 856.757 606.306 856.471 607.929C856.089 609.838 854.943 611.27 852.748 612.415C850.934 613.37 846.066 617.952 841.867 622.533C837.667 627.115 832.703 631.601 830.699 632.556C827.262 634.178 827.262 634.274 827.835 638.569C828.122 640.955 828.694 643.151 828.981 643.437C830.412 644.869 834.899 640.574 837.571 635.133C839.671 630.933 840.721 629.501 841.103 630.551C841.485 631.41 842.63 632.078 843.775 632.078C845.685 632.078 845.78 631.697 845.207 628.164C844.73 625.397 844.921 624.442 845.685 625.015C846.735 625.683 856.089 616.424 856.089 614.706C856.089 614.229 856.471 614.038 856.948 614.419C858.57 615.374 864.011 608.884 868.688 600.484C874.225 590.748 875.37 589.316 881.097 585.403C885.583 582.444 888.065 577.862 889.974 569.272C890.356 567.553 892.265 564.212 894.365 561.826C896.369 559.44 898.087 556.672 898.087 555.717C898.087 554.476 899.424 553.14 901.81 551.899C904.196 550.754 908.491 546.459 913.55 540.254C923.095 528.513 929.3 523.169 952.494 506.751C968.721 495.201 970.439 494.247 973.971 494.437C976.071 494.533 981.416 493.961 985.807 493.102C990.198 492.338 995.447 491.956 997.357 492.242C1000.51 492.815 1000.98 492.624 1001.65 490.62C1002.22 488.806 1002.42 488.71 1002.8 490.047C1003.37 492.338 1006.42 493.102 1013.3 492.815C1020.74 492.529 1025.32 494.437 1035.73 502.265C1039.93 505.51 1044.51 508.278 1045.94 508.565C1047.85 508.946 1049.28 510.664 1051.95 515.532C1057.2 525.173 1066.18 536.627 1074.39 544.168C1078.39 547.89 1081.83 550.754 1082.12 550.563C1082.31 550.276 1081.74 547.89 1080.88 545.122C1079.54 541.304 1077.44 538.249 1071.71 532.332C1067.51 528.037 1064.17 523.741 1064.17 522.882C1064.17 519.923 1059.59 514.101 1051.67 506.942C1030.76 488.138 1015.59 481.17 1000.7 483.747Z" fill="black" fill-opacity="0.9"/>
<path d="M1075.15 486.133C1077.34 493.102 1082.98 498.924 1086.79 498.16C1088.51 497.874 1088.99 498.16 1088.99 499.592C1088.99 501.979 1090.71 505.128 1092.04 505.128C1093.48 505.128 1092.23 499.783 1089.85 495.869C1088.7 494.151 1085.46 491.001 1082.4 488.997C1074.19 483.461 1074.39 483.556 1075.15 486.133Z" fill="black" fill-opacity="0.9"/>
<path d="M820.772 486.706C820.867 488.043 823.635 491.192 824.208 490.62C825.162 489.57 823.54 486.038 822.108 486.038C821.344 486.038 820.772 486.324 820.772 486.706Z" fill="black" fill-opacity="0.9"/>
<path d="M843.871 487.183C843.203 487.851 842.726 489.665 842.726 491.383C842.726 493.961 842.439 494.342 840.912 493.961C839.958 493.674 838.812 493.961 838.526 494.533C838.144 495.106 836.999 495.583 835.853 495.583C834.231 495.583 834.04 495.965 834.612 497.683C834.994 498.924 835.281 500.833 835.281 501.979C835.281 503.219 835.567 504.173 835.949 504.173C836.999 504.173 840.339 500.26 841.771 497.587C842.63 495.965 843.108 495.679 843.68 496.538C844.253 497.397 844.826 497.397 846.544 496.538C848.357 495.583 848.548 494.915 847.976 492.433C847.594 490.715 847.212 488.615 847.212 487.661C847.116 485.752 845.494 485.56 843.871 487.183Z" fill="black" fill-opacity="0.9"/>
<path d="M850.648 487.088C849.121 488.615 849.026 491.765 850.362 491.765C851.603 491.765 852.557 489.474 852.08 487.47C851.889 486.229 851.603 486.133 850.648 487.088Z" fill="black" fill-opacity="0.9"/>
<path d="M855.898 491.001C852.844 494.438 852.557 495.583 854.657 495.583C856.375 495.583 859.239 491.384 858.762 489.474C858.571 488.329 857.807 488.806 855.898 491.001Z" fill="black" fill-opacity="0.9"/>
<path d="M977.789 498.256C961.467 504.269 960.894 504.556 958.603 508.087C955.645 512.764 951.254 516.296 941.327 521.832C931.591 527.178 925.005 533 921.855 539.013C920.518 541.591 918.514 543.69 916.892 544.359C915.364 545.027 911.928 548.082 909.351 551.327C906.678 554.477 902.669 558.486 900.474 560.108C896.369 563.258 893.887 567.649 894.46 570.512C894.938 573.09 904.96 565.167 920.996 549.513C934.168 536.723 943.904 528.61 950.013 525.46C952.208 524.314 953.163 524.218 954.977 525.173C957.554 526.605 959.367 525.65 965.189 520.114C968.339 517.155 969.103 516.869 973.207 517.251C975.785 517.537 980.653 517.059 984.185 516.2C990.58 514.673 990.675 514.673 994.111 517.059C998.311 519.923 1003.47 520.973 1006.52 519.541C1009.77 518.11 1009.38 515.246 1005.76 512.478C999.266 507.706 993.73 507.037 980.176 509.424C975.689 510.187 969.676 510.856 966.812 510.856C961.849 510.856 961.753 510.76 963.758 509.328C970.63 504.556 988.67 501.692 994.302 504.556C997.93 506.464 999.648 506.464 1001.46 504.746C1002.7 503.506 1003.18 503.792 1005.85 507.037C1007.67 509.233 1011.29 511.905 1015.01 513.814C1018.45 515.437 1021.22 517.442 1021.22 518.205C1021.22 519.064 1022.27 520.878 1023.61 522.5C1024.94 524.028 1025.99 525.841 1025.99 526.605C1025.99 527.273 1028.19 529.277 1030.86 530.996C1037.45 535.196 1043.36 542.545 1052.72 558.294C1057.11 565.549 1062.84 574.426 1065.6 578.149C1068.37 581.775 1071.24 586.739 1071.9 589.03C1072.67 591.703 1074.77 594.852 1077.25 597.334C1080.21 600.293 1083.36 605.639 1088.51 616.424C1092.52 624.633 1095.96 631.124 1096.24 630.838C1097.1 629.979 1094.62 618.429 1092.71 613.943C1091.66 611.556 1089.66 608.406 1088.23 606.974C1086.32 604.97 1085.74 603.538 1085.94 601.152C1086.32 597.621 1084.89 595.998 1082.88 597.621C1081.83 598.48 1081.45 598.098 1081.07 595.616C1079.64 587.407 1078.87 585.594 1074.58 579.962C1072 576.526 1065.03 566.408 1059.02 557.34C1053 548.368 1043.84 535.959 1038.69 529.85C1033.44 523.742 1028.19 517.442 1027.04 515.819C1025.51 513.623 1024.18 512.764 1022.27 512.764C1020.17 512.764 1018.16 511.237 1013.2 505.988C1008.24 500.642 1006.42 499.306 1004.8 499.688C1003.47 500.069 1002.32 499.592 1001.17 498.16C999.743 496.442 998.311 496.06 992.489 495.774C986.571 495.583 984.185 495.965 977.789 498.256Z" fill="black" fill-opacity="0.9"/>
<path d="M1011.77 497.588C1009.1 498.638 1009.19 498.829 1016.35 503.601C1019.12 505.51 1022.56 507.037 1023.99 507.037C1025.9 507.037 1026.95 507.896 1028.66 510.856C1029.81 512.955 1033.25 516.392 1036.3 518.587C1039.26 520.687 1042.79 523.742 1044.13 525.173C1046.13 527.464 1046.8 527.655 1048.14 526.7C1051.76 524.028 1046.13 514.674 1040.88 514.674C1039.64 514.674 1037.83 513.242 1036.2 510.856C1029.71 501.692 1017.69 495.202 1011.77 497.588Z" fill="black" fill-opacity="0.9"/>
<path d="M827.93 501.883C827.644 504.269 826.69 507.992 825.926 510.092C825.162 512.287 824.685 514.196 824.876 514.292C825.067 514.482 826.403 514.101 827.835 513.433C829.839 512.574 830.221 511.81 829.839 510.092C829.458 508.755 830.03 507.228 831.271 505.892C832.512 504.46 832.894 503.506 832.226 502.838C831.748 502.36 831.271 500.928 831.271 499.688C831.271 495.583 828.694 497.301 827.93 501.883Z" fill="black" fill-opacity="0.9"/>
<path d="M822.394 504.937C819.34 508.278 817.717 515.819 819.817 517.059C820.867 517.728 821.631 515.914 824.017 508.183C825.449 503.028 824.972 501.979 822.394 504.937Z" fill="black" fill-opacity="0.9"/>
<path d="M1079.44 511.715C1079.44 514.768 1098.53 534.241 1099.3 531.854C1099.49 531.377 1098.06 527.941 1096.15 524.218C1091.85 516.2 1086.41 510.855 1082.31 510.855C1080.69 510.855 1079.44 511.237 1079.44 511.715Z" fill="black" fill-opacity="0.9"/>
<path d="M1010.91 521.068C1011.1 522.691 1011.77 523.741 1012.63 523.741C1013.49 523.741 1014.16 522.691 1014.35 521.068C1014.63 518.969 1014.25 518.491 1012.63 518.491C1011.01 518.491 1010.62 518.969 1010.91 521.068Z" fill="black" fill-opacity="0.9"/>
<path d="M974.448 521.737C972.539 522.5 968.721 524.218 965.858 525.65C962.994 527.082 958.126 528.896 954.976 529.659C947.722 531.282 945.908 532.619 930.54 547.509L917.655 560.013L916.7 566.885C916.128 570.704 916.032 573.853 916.414 573.853C916.795 573.853 919.086 571.371 921.663 568.413C931.4 556.863 937.604 551.136 941.518 550.086C944.19 549.417 945.908 548.177 947.149 546.077C949.345 542.45 954.021 539.491 957.744 539.491C959.94 539.491 961.658 538.441 964.33 535.768C977.216 522.596 998.693 525.364 1026.18 543.69C1033.44 548.463 1034.39 549.609 1037.26 555.336C1038.97 558.772 1044.89 569.081 1050.33 578.244C1063.03 599.434 1063.31 599.912 1063.12 604.111C1063.03 606.115 1064.08 610.697 1065.41 614.42C1068.95 624.156 1072.76 637.424 1073.81 643.819C1074.86 650.405 1076.1 653.077 1078.2 653.077C1080.97 653.077 1078.97 642.865 1073.62 629.024C1069.42 618.238 1068.56 615.088 1068.18 608.216C1067.8 600.198 1067.7 599.912 1058.35 581.489C1044.61 554.095 1036.97 542.927 1026.18 534.527C1021.03 530.423 1020.46 530.137 1019.02 531.568C1017.59 533 1017.21 532.714 1013.39 528.991C1009.48 525.077 1009 524.791 1003.56 524.696C1000.03 524.505 996.211 523.742 993.538 522.5C988.575 520.114 979.793 519.828 974.448 521.737Z" fill="black" fill-opacity="0.9"/>
<path d="M1015.49 522.596C1015.49 524.696 1018.07 528.037 1019.6 528.037C1020.74 528.037 1020.36 522.786 1019.12 521.546C1017.31 519.732 1015.49 520.209 1015.49 522.596Z" fill="black" fill-opacity="0.9"/>
<path d="M1049.57 526.795C1047.75 528.513 1049 533.573 1051.86 536.245C1053.48 537.773 1055.87 540.827 1057.2 543.022C1058.44 545.313 1060.83 548.177 1062.36 549.417C1063.89 550.754 1065.13 552.472 1065.13 553.331C1065.13 556.958 1068.85 562.113 1073.43 564.499C1077.44 566.694 1078.3 567.744 1079.83 572.135C1082.98 581.012 1086.99 588.171 1089.47 589.316C1092.81 590.843 1093.28 589.793 1091.57 585.116C1088.8 577.957 1081.83 566.981 1069.71 550.849C1063.31 542.258 1056.92 533.095 1055.58 530.614C1053.39 526.509 1051.19 525.077 1049.57 526.795Z" fill="black" fill-opacity="0.9"/>
<path d="M818.577 532.522C818.195 532.809 817.908 534.05 817.908 535.291C817.908 536.914 818.29 537.295 819.817 536.914C821.058 536.627 821.726 535.577 821.726 534.145C821.726 531.95 819.913 531.091 818.577 532.522Z" fill="black" fill-opacity="0.9"/>
<path d="M973.685 532.522C971.394 533 964.903 538.632 964.903 540.159C964.903 540.731 967.099 540.923 970.153 540.636C973.303 540.35 978.744 540.923 983.612 541.877C990.293 543.309 992.393 543.404 994.97 542.545C998.884 541.018 1000.98 541.782 1010.34 548.177C1014.35 550.849 1018.93 553.617 1020.74 554.381C1023.03 555.335 1024.75 557.245 1027.23 561.635C1029.05 564.976 1034.01 573.567 1038.21 580.821C1042.41 588.075 1047.47 598.288 1049.47 603.538C1052.15 610.506 1053.48 612.988 1054.72 612.988C1056.06 612.988 1056.92 615.088 1058.92 624.155C1065.13 651.264 1067.23 659.759 1069.61 666.918C1072.19 674.84 1076.2 683.622 1077.25 683.622C1078.49 683.622 1076.39 674.267 1073.72 668.445C1072 664.436 1070.09 657.277 1068.47 648.687C1065.03 629.119 1060.07 612.988 1057.59 612.988C1057.11 612.988 1056.54 610.697 1056.35 607.929C1055.68 600.961 1047.28 582.539 1044.41 581.871C1043.17 581.489 1042.41 580.916 1042.7 580.535C1043.65 578.912 1040.31 570.799 1036.11 564.404C1030.57 556.099 1019.31 544.836 1012.34 540.636C1009.48 538.918 1004.52 536.531 1001.27 535.482C995.925 533.668 994.875 533.573 990.293 534.718C985.425 535.863 984.948 535.768 982.562 533.859C979.985 531.95 978.266 531.663 973.685 532.522Z" fill="black" fill-opacity="0.9"/>
<path d="M1083.26 533.573C1083.26 536.245 1086.03 539.491 1088.42 539.491C1090.33 539.491 1090.71 540.064 1091.18 543.5C1091.57 546.172 1092.62 548.368 1094.62 550.372C1098.06 553.809 1098.34 552.854 1096.15 545.313C1093.76 537.486 1083.26 527.846 1083.26 533.573Z" fill="black" fill-opacity="0.9"/>
<path d="M818.195 541.972C816.763 544.168 816.477 544.263 815.427 542.927C814.472 541.495 814.281 541.591 813.708 543.69C813.136 546.172 813.804 549.036 815.045 549.036C816.477 549.036 820.772 543.214 820.772 541.304C820.772 538.822 820.199 539.013 818.195 541.972Z" fill="black" fill-opacity="0.9"/>
<path d="M994.493 546.267C994.493 548.463 1004.9 557.818 1011.2 561.158C1017.02 564.404 1017.88 565.167 1018.64 568.317C1019.12 570.321 1021.12 573.757 1023.22 576.048C1029.24 583.017 1039.16 608.979 1043.75 630.169C1044.61 634.083 1045.56 644.583 1045.94 653.555C1046.7 669.591 1046.7 669.877 1050.52 679.327C1053.67 686.963 1055.01 692.499 1057.4 706.721C1060.26 723.234 1062.65 733.256 1063.89 733.256C1064.27 733.256 1064.17 729.057 1063.89 723.807C1063.22 714.357 1061.12 702.903 1057.49 688.967C1056.44 684.767 1055.58 679.899 1055.58 677.99C1055.49 676.082 1054.72 672.836 1053.67 670.736C1052.53 668.35 1051.76 664.818 1051.76 661.191C1051.76 657.564 1051 653.936 1049.76 651.169C1048.42 648.209 1047.95 645.823 1048.33 643.437C1048.71 641.337 1048.33 638.569 1047.56 636.66C1046.42 633.988 1046.32 631.983 1047.09 626.542C1048.23 618.238 1047.09 612.606 1041.46 600.007C1039.35 595.33 1037.16 589.793 1036.49 587.694C1033.25 577.48 1024.08 564.785 1012.92 555.24C1004.61 548.082 994.493 543.214 994.493 546.267Z" fill="black" fill-opacity="0.9"/>
<path d="M952.972 549.036C941.518 553.618 926.341 568.699 917.464 584.162C914.982 588.648 910.878 594.471 908.491 597.143C906.105 599.816 901.618 605.256 898.469 609.17C895.415 613.084 891.215 617.952 889.21 619.956C885.869 623.201 885.679 623.774 886.251 627.115C887.014 631.506 887.397 632.078 889.115 632.078C890.069 632.078 890.451 630.742 890.451 626.542L890.547 621.102L892.074 623.965L893.601 626.733L895.128 624.442C895.987 623.106 899.9 618.047 903.909 612.988C907.918 608.025 912.309 601.916 913.741 599.529C915.173 597.048 917.082 594.852 918.132 594.566C919.086 594.28 921.377 592.084 923.095 589.507C924.813 587.026 927.677 583.112 929.395 580.821C931.209 578.339 932.449 575.572 932.449 573.853C932.449 571.276 932.641 571.085 935.218 571.563C939.131 572.422 941.231 570.894 945.717 563.926C949.917 557.435 952.589 555.717 954.88 557.626C956.026 558.581 956.408 558.486 956.885 557.054C958.412 552.281 959.462 549.99 960.131 549.99C961.753 549.99 961.944 554.763 960.512 558.104C959.748 560.013 959.271 561.827 959.462 562.017C959.653 562.208 961.18 561.827 962.803 561.254C965.953 560.013 966.717 557.913 964.807 556.004C964.139 555.336 963.948 554.19 964.33 553.331C964.807 552.091 965.666 551.804 968.148 552.281C970.63 552.758 971.489 552.567 971.966 551.327C973.016 548.654 971.012 547.699 964.139 547.413C959.462 547.223 956.408 547.604 952.972 549.036Z" fill="black" fill-opacity="0.9"/>
<path d="M973.494 550.372C973.494 554.19 975.498 555.336 980.557 554.381C982.467 553.999 984.28 554.285 985.425 555.144C987.239 556.481 987.335 556.576 985.616 559.44C983.612 562.781 984.185 566.503 986.666 566.026C987.525 565.835 988.575 564.308 989.148 562.59C989.625 560.967 990.389 559.536 990.866 559.536C991.344 559.536 994.684 562.303 998.311 565.739C1001.94 569.176 1005.57 571.944 1006.23 571.944C1007 571.944 1009.38 575.571 1011.48 580.057C1013.68 584.544 1017.97 592.466 1021.22 597.621C1024.37 602.775 1026.95 608.025 1026.95 609.361C1026.95 610.697 1028.09 615.661 1029.43 620.243C1030.76 624.919 1032.48 631.124 1033.34 633.987C1034.39 637.9 1034.96 647.828 1035.54 672.932C1036.3 705.385 1036.3 706.816 1034.49 709.871C1032.58 713.116 1029.33 727.434 1030.38 728.388C1031.62 729.63 1034.49 724.379 1036.01 717.984C1036.97 713.975 1038.4 710.73 1039.45 710.062C1040.98 708.916 1041.26 706.816 1041.84 692.594C1043.94 637.805 1031.24 588.934 1008.62 564.69C1003.18 558.867 1000.12 557.34 998.693 559.631C998.406 560.203 996.879 558.581 995.352 555.908C991.916 549.895 986.762 547.126 978.934 547.126H973.494V550.372Z" fill="black" fill-opacity="0.9"/>
<path d="M1083.45 552.09C1081.83 553.713 1082.02 554.381 1084.6 556.958C1085.93 558.294 1088.23 561.826 1089.75 564.88C1091.28 568.03 1093.48 571.371 1094.62 572.326C1096.63 574.14 1096.63 574.14 1096.63 571.371C1096.63 568.221 1094.72 564.499 1090.23 558.581C1088.51 556.29 1087.08 553.713 1087.08 552.663C1087.08 550.754 1085.17 550.372 1083.45 552.09Z" fill="black" fill-opacity="0.9"/>
<path d="M968.721 558.104C966.907 560.299 968.339 562.59 971.298 562.208C973.398 562.017 974.066 561.349 974.257 559.249C974.543 557.054 974.257 556.672 972.252 556.672C970.916 556.672 969.389 557.34 968.721 558.104Z" fill="black" fill-opacity="0.9"/>
<path d="M977.502 560.012C975.88 563.545 976.071 564.308 978.648 564.308C981.702 564.308 982.562 562.781 981.035 559.917C979.507 557.054 978.839 557.054 977.502 560.012Z" fill="black" fill-opacity="0.9"/>
<path d="M950.395 561.54C948.677 562.494 947.913 569.081 949.44 569.081C951.636 569.081 954.404 565.835 954.404 563.258C954.404 560.395 953.259 559.822 950.395 561.54Z" fill="black" fill-opacity="0.9"/>
<path d="M811.227 565.644C811.227 567.458 810.845 569.272 810.272 569.558C809.127 570.226 809.031 574.521 810.081 575.189C811.227 575.858 816.954 572.23 816.954 570.894C816.954 570.226 816.477 568.126 815.809 566.122C815.045 563.545 814.186 562.399 812.945 562.399C811.609 562.399 811.227 563.162 811.227 565.644Z" fill="black" fill-opacity="0.9"/>
<path d="M908.396 566.217C904.578 568.317 901.81 571.753 900.187 576.431C898.946 580.153 899.328 580.248 903.814 577.576C909.446 574.14 915.269 567.744 915.269 564.785C915.269 563.735 911.832 564.499 908.396 566.217Z" fill="black" fill-opacity="0.9"/>
<path d="M962.994 564.976C957.649 565.263 956.599 565.644 955.836 567.458C955.263 568.699 953.831 569.653 952.303 569.844C950.968 570.035 949.154 571.18 948.294 572.422C947.34 573.853 946.195 574.521 944.954 574.14C943.618 573.758 942.186 574.999 939.036 579.294C936.84 582.348 931.018 588.648 926.15 593.23C916.319 602.489 910.019 611.175 908.301 617.57C907.537 620.433 906.487 622.056 905.055 622.629C903.814 623.106 902.86 624.061 902.86 624.92C902.86 625.683 902.001 626.351 900.951 626.351C899.519 626.351 898.851 627.21 898.374 629.31C897.992 631.315 896.656 632.937 894.174 634.56C890.165 637.042 887.301 641.623 887.779 644.773C888.256 648.305 890.833 647.064 893.315 642.101C894.746 639.428 896.274 637.424 896.942 637.519C897.61 637.71 898.087 636.755 898.087 635.419C898.087 633.319 898.374 633.033 900.378 633.605C902.383 634.083 902.764 633.797 903.051 631.506C903.242 629.501 904.006 628.642 906.201 628.069C907.919 627.592 910.401 625.492 912.405 623.01C914.218 620.624 917.178 618.047 918.8 617.188C921.568 615.947 921.95 615.279 921.95 612.129C921.95 609.075 922.523 608.12 925.864 605.352C928.059 603.634 931.686 599.243 934.073 595.712C937.127 590.939 939.418 588.553 942.281 587.121C944.477 585.976 950.299 582.348 955.263 579.008C960.131 575.667 964.903 572.898 965.858 572.898C966.812 572.898 970.63 573.567 974.353 574.426C981.511 576.048 984.853 575.762 987.239 573.281C989.529 571.085 989.148 570.226 985.425 568.413C982.753 567.171 981.416 566.981 979.317 567.744C977.026 568.699 976.453 568.508 974.639 566.503C973.59 565.358 971.871 564.404 970.916 564.499C969.962 564.594 966.431 564.785 962.994 564.976Z" fill="black" fill-opacity="0.9"/>
<path d="M989.72 573.281C989.72 577.576 990.006 578.626 991.533 579.103C993.92 579.867 997.833 584.449 1002.32 591.798C1004.42 595.33 1007.28 598.575 1009.57 599.912C1013.11 602.202 1013.49 602.87 1016.26 612.702C1020.74 628.069 1022.94 638.473 1024.66 651.837C1026.47 665.582 1025.8 672.359 1021.79 682.19C1019.69 687.536 1018.83 690.876 1016.45 703.667C1015.68 707.867 1014.25 710.539 1009.67 716.553C1006.42 720.753 1001.75 728.484 999.17 733.734C996.401 739.652 992.965 744.997 990.293 747.765C985.902 752.347 982.466 757.788 983.42 758.742C983.707 759.028 985.33 758.36 987.048 757.31C990.579 755.115 994.874 749.579 1001.37 738.983C1003.85 735.07 1006.9 730.775 1008.33 729.439C1011.29 726.67 1013.58 721.707 1013.58 718.176C1013.58 716.934 1014.63 714.93 1015.78 713.784C1018.55 711.207 1020.46 706.053 1023.13 693.931C1024.37 688.395 1025.9 683.717 1027.04 682.477L1028.95 680.281L1028.57 687.44C1028.28 691.449 1026.47 700.422 1024.46 707.676C1020.17 723.52 1021.12 726.575 1026.75 714.643C1030.76 706.149 1031.24 701.662 1030.95 673.218C1030.67 648.878 1030.48 645.251 1028.47 636.469C1027.23 631.219 1025.42 622.534 1024.46 617.283C1022.94 609.361 1022.08 606.879 1018.83 602.011C1016.64 598.861 1012.82 592.657 1010.24 588.171C1004.04 577.194 1001.46 574.044 996.497 570.799C990.388 566.981 989.72 567.171 989.72 573.281Z" fill="black" fill-opacity="0.9"/>
<path d="M827.644 569.748C826.976 570.035 824.972 573.185 823.158 576.717C820.581 581.871 819.531 583.112 818.099 582.73C816.954 582.444 815.999 583.112 815.236 584.735C814.663 586.071 814.472 587.216 814.949 587.216C815.427 587.216 816.095 588.266 816.381 589.603C817.145 592.753 818.004 592.561 820.008 589.125C820.963 587.502 823.063 585.498 824.685 584.544C826.308 583.685 828.694 582.062 829.935 581.012C831.94 579.198 832.035 578.817 830.985 574.044C830.412 571.371 829.744 569.081 829.458 569.176C829.076 569.176 828.312 569.462 827.644 569.748Z" fill="black" fill-opacity="0.9"/>
<path d="M845.685 574.044C845.208 575.38 844.73 575.667 844.253 574.999C843.108 572.994 840.817 574.999 834.994 583.017C831.844 587.407 828.408 591.511 827.358 591.989C825.258 593.134 825.067 595.139 826.595 599.529C827.74 602.679 829.363 603.348 831.176 601.152C831.94 600.293 831.94 599.148 831.367 597.43C830.222 594.471 830.89 593.612 833.276 595.139C835.758 596.666 837.667 595.33 841.39 589.698C845.208 583.971 848.453 580.535 850.076 580.535C850.744 580.535 851.316 579.676 851.316 578.53C851.316 573.853 847.021 570.417 845.685 574.044Z" fill="black" fill-opacity="0.9"/>
<path d="M909.732 577.576C907.632 579.198 903.242 584.162 899.996 588.839C896.655 593.42 891.787 599.815 889.115 602.965C886.347 606.115 883.006 610.22 881.67 612.033C878.901 615.661 874.797 625.301 875.656 626.16C875.943 626.446 877.183 626.16 878.424 625.587C879.952 624.919 881.192 623.01 882.243 619.86C883.578 615.947 884.629 614.611 888.351 612.32C891.406 610.411 895.605 605.925 901.619 598.097C906.391 591.893 911.927 585.021 913.837 582.921C915.65 580.916 916.986 578.625 916.7 577.862C916.414 577.194 916.223 576.144 916.223 575.667C916.223 574.044 913.645 574.807 909.732 577.576Z" fill="black" fill-opacity="0.9"/>
<path d="M933.882 578.244C933.023 579.58 932.545 580.916 932.832 581.203C933.595 582.062 937.223 578.625 937.223 577.003C937.223 574.999 935.695 575.571 933.882 578.244Z" fill="black" fill-opacity="0.9"/>
<path d="M890.356 580.63C888.542 582.826 885.488 586.357 883.483 588.458C881.574 590.557 879.093 593.993 877.947 596.189C876.897 598.289 875.179 601.63 874.225 603.443C873.175 605.256 872.316 607.738 872.316 608.979C872.316 610.888 872.793 611.175 874.988 610.888C877.375 610.602 877.565 610.316 877.279 606.975C877.088 603.921 877.279 603.443 879.093 603.443C881.86 603.443 885.583 599.148 888.924 592.275C891.024 587.789 892.074 586.643 893.315 586.93C895.605 587.503 898.279 583.398 897.896 579.867C897.419 575.476 894.174 575.858 890.356 580.63Z" fill="black" fill-opacity="0.9"/>
<path d="M964.903 581.489C961.849 582.539 958.603 584.448 957.076 586.166C955.072 588.457 953.64 589.125 951.063 589.125C946.481 589.125 940.945 594.28 937.127 602.011C934.741 606.974 933.882 607.833 932.163 607.547C930.35 607.165 929.395 608.311 926.055 614.133C923.859 618.047 921.187 621.961 920.232 622.82C918.705 624.155 918.514 625.397 918.896 629.024C919.659 636.66 920.328 636.755 924.813 630.265C927.009 626.924 931.496 621.292 934.645 617.569C937.89 613.847 943.236 607.547 946.576 603.538C950.395 598.861 953.449 596.093 955.167 595.616C956.599 595.33 958.699 594.661 959.844 594.375C961.563 593.802 961.944 594.088 962.231 596.379C962.422 597.811 963.09 599.243 963.853 599.434C964.808 599.72 964.999 599.339 964.617 597.811C963.376 593.039 968.339 584.352 972.348 584.352C973.494 584.352 973.685 585.88 973.398 593.134L973.017 602.011L976.167 601.916C978.648 601.725 979.221 602.106 979.221 603.729C979.221 604.779 980.557 607.738 982.275 610.315C984.28 613.56 985.33 616.615 985.712 619.956C985.903 622.724 986.952 627.401 988.098 630.455C989.912 635.61 989.912 636.66 988.861 643.819C986.379 660.714 981.035 677.227 974.162 689.54C970.63 695.84 969.103 697.558 965.572 699.371C964.521 699.849 960.99 704.144 957.84 708.916C953.831 714.834 950.872 718.079 948.486 719.416C945.431 721.039 944.858 721.802 944.858 724.57C944.858 727.434 944.668 727.72 942.567 727.148C940.468 726.67 940.277 726.861 939.8 732.016C939.227 737.647 939.704 740.033 940.754 736.311C941.136 734.593 941.995 734.211 944.763 734.211C948.963 734.115 952.303 731.443 958.699 722.757C961.276 719.321 965.953 713.784 969.198 710.348C976.643 702.521 978.648 698.894 985.903 681.236C990.58 669.782 991.82 665.677 992.107 660.714C992.298 657.277 993.062 652.791 993.825 650.691C997.357 640.86 996.498 620.051 992.202 610.506C989.625 604.875 984.375 598.67 979.698 595.807L976.548 593.898L978.362 590.079C979.412 587.98 980.366 586.262 980.557 586.262C980.939 586.262 992.775 606.593 995.256 611.556C999.265 619.574 1000.6 626.351 1000.51 637.805C1000.41 654.509 996.402 669.877 987.716 687.917C981.798 700.23 976.453 708.248 968.626 716.552C964.14 721.325 962.135 724.189 961.658 726.67C961.18 729.438 960.417 730.297 957.744 731.348C955.931 732.111 954.404 733.066 954.404 733.638C954.404 734.211 952.495 736.597 950.204 738.983C946.1 743.088 945.431 744.615 945.717 749.197C945.908 752.728 948.486 751.774 949.249 747.956C949.726 745.474 950.49 744.329 952.399 743.661C960.512 740.701 969.389 732.588 975.498 722.375C977.502 719.13 979.412 717.03 980.462 717.03C983.612 717.03 997.07 686.485 1001.65 668.827C1005.28 654.605 1006.23 645.537 1005.66 629.787C1005.09 613.943 1002.99 601.343 1000.12 595.52C997.643 590.843 991.439 584.066 987.048 581.298L983.707 579.198L982.275 581.298C980.557 583.876 979.698 583.876 977.312 581.489C974.925 579.103 971.68 579.103 964.903 581.489Z" fill="black" fill-opacity="0.9"/>
<path d="M967.957 589.03C966.144 590.176 966.907 593.326 969.103 593.707C971.489 594.185 972.825 592.562 972.062 590.176C971.394 588.075 970.057 587.694 967.957 589.03Z" fill="black" fill-opacity="0.9"/>
<path d="M807.695 590.748C805.023 591.225 804.927 593.612 807.409 596.666C809.222 598.766 809.413 598.861 811.704 597.334C813.995 595.806 815.14 591.034 813.231 591.034C812.754 591.034 811.8 590.843 811.036 590.652C810.368 590.462 808.841 590.557 807.695 590.748Z" fill="black" fill-opacity="0.9"/>
<path d="M1092.81 595.711C1092.81 598.384 1093.48 600.293 1095.19 602.202L1097.48 604.875L1097.58 601.247C1097.58 597.429 1095.29 591.989 1093.76 591.989C1093.19 591.989 1092.81 593.707 1092.81 595.711Z" fill="black" fill-opacity="0.9"/>
<path d="M820.963 598.861C818.481 601.343 820.199 609.17 823.253 609.17C824.399 609.17 824.59 608.12 824.399 603.729C824.113 598.288 823.063 596.761 820.963 598.861Z" fill="black" fill-opacity="0.9"/>
<path d="M952.781 601.63C951.254 603.157 951.158 605.543 952.686 607.07C954.308 608.693 952.781 609.648 950.299 608.502C948.104 607.452 947.627 608.025 941.422 616.615C925.1 639.428 906.678 660.714 901.046 663.386C896.369 665.582 893.315 670.45 893.315 675.604C893.315 677.895 893.792 679.995 894.365 680.281C894.842 680.663 896.942 679.804 898.947 678.468C900.856 677.131 902.956 675.986 903.623 675.986C905.151 675.986 906.583 672.836 906.869 668.923C907.156 665.009 907.442 664.818 909.255 667.109C910.496 668.732 910.687 668.637 912.119 666.441C912.978 665.104 915.937 661.859 918.705 659.282C921.377 656.61 924.432 653.173 925.386 651.646C926.436 650.024 929.205 646.587 931.782 644.01C934.263 641.337 938.845 635.324 941.995 630.551C948.39 620.72 954.499 614.611 960.704 611.939L964.903 610.029L968.912 612.32C971.203 613.657 973.494 614.516 974.066 614.325C974.639 614.038 975.498 615.47 975.976 617.379C977.694 624.347 982.371 623.965 981.894 616.807C981.607 614.133 980.748 612.893 976.548 609.648C973.78 607.547 971.012 604.78 970.344 603.443C968.817 600.388 964.617 599.912 960.131 602.298C956.885 604.111 956.79 604.111 955.358 602.298C954.213 600.866 953.735 600.675 952.781 601.63Z" fill="black" fill-opacity="0.9"/>
<path d="M1004.99 604.493C1004.99 606.307 1006.14 612.225 1007.57 617.761C1010.05 627.115 1010.15 629.024 1010.05 645.728C1009.96 659.187 1010.15 663.577 1011.01 663.291C1011.67 663.1 1012.63 661.286 1013.2 659.187C1014.82 653.364 1016.92 654.319 1016.54 660.714C1016.16 669.304 1013.68 678.563 1008.05 692.69C1004.9 700.803 1002.61 708.057 1002.32 711.112C1001.94 715.312 1001.46 716.362 999.552 717.317C996.975 718.462 994.684 721.993 991.63 729.725C989.912 734.211 989.148 735.07 987.716 734.688C986.476 734.307 985.903 734.593 985.903 735.547C985.903 736.311 983.326 739.175 980.271 741.847C974.162 747.192 972.731 750.247 974.449 754.733L975.498 757.406L977.026 755.115C977.98 753.874 981.989 748.719 985.998 743.756C993.062 735.07 998.311 726.098 998.311 722.566C998.311 721.516 998.789 721.134 999.648 721.421C1001.37 722.089 1003.18 718.652 1005.47 710.826C1006.52 707.008 1008.14 703.953 1010.43 701.567C1013.3 698.704 1013.97 697.176 1014.35 692.976C1014.63 690.017 1015.78 686.199 1017.31 683.622C1019.41 679.995 1019.79 677.99 1020.07 669.972C1020.36 664.818 1019.98 658.137 1019.41 655.178C1018.83 652.218 1017.88 644.678 1017.4 638.473C1015.78 621.388 1011.29 606.498 1006.52 602.584C1005.18 601.439 1004.99 601.725 1004.99 604.493Z" fill="black" fill-opacity="0.9"/>
<path d="M1072.09 606.498C1072.57 608.693 1076.39 620.243 1079.16 628.26C1080.02 630.647 1082.12 633.892 1083.93 635.61C1086.51 638.092 1087.08 639.332 1087.08 642.769C1087.08 648.019 1088.23 649.927 1089.94 647.828C1093.38 643.628 1077.73 604.588 1072.38 604.397C1072 604.397 1071.81 605.352 1072.09 606.498Z" fill="black" fill-opacity="0.9"/>
<path d="M814.09 608.311C814.09 610.793 813.804 611.174 811.99 610.888C810.272 610.697 809.699 611.175 809.508 612.893C808.936 616.424 810.845 617.474 813.422 615.088C814.663 613.943 816.095 612.988 816.763 612.988C818.672 612.988 818.958 611.174 817.431 608.216C815.522 604.493 814.09 604.588 814.09 608.311Z" fill="black" fill-opacity="0.9"/>
<path d="M867.829 612.988C865.921 616.52 863.153 619.479 857.33 624.06C855.326 625.779 852.176 629.787 850.458 633.033C846.735 640.001 844.253 642.769 842.344 642.005C841.581 641.719 840.626 642.196 840.149 643.246C838.622 646.205 839.29 647.828 841.962 648.114C843.871 648.305 845.78 647.16 850.553 642.769C853.798 639.715 857.521 636.66 858.762 635.992C860.957 634.847 860.957 634.178 859.239 629.406C858.953 628.737 859.621 628.261 861.148 628.261C864.012 628.261 867.353 624.347 870.502 617.379C872.316 613.179 872.316 612.606 870.979 611.27C869.643 609.934 869.357 610.124 867.829 612.988Z" fill="black" fill-opacity="0.9"/>
<path d="M803.972 615.375C804.068 618.524 805.5 618.524 805.5 615.375C805.5 614.038 805.118 612.988 804.64 612.988C804.163 612.988 803.877 614.038 803.972 615.375Z" fill="black" fill-opacity="0.9"/>
<path d="M962.994 616.806C962.23 617.283 960.417 617.761 958.985 617.761C955.453 617.761 949.917 624.347 940.563 639.81C934.263 650.119 930.732 654.7 920.614 665.295C913.837 672.454 906.964 678.945 905.341 679.708C903.719 680.567 900.664 683.527 898.565 686.39C895.51 690.399 893.506 691.926 889.783 693.358C884.056 695.458 878.042 701.471 878.042 705.098C878.042 707.389 878.138 707.389 881.67 706.149C892.36 702.33 902.574 695.267 918.514 680.472L928.632 671.022L928.727 666.154C928.822 663.386 929.109 662.337 929.3 663.768C930.064 668.54 932.831 666.536 939.131 656.514C941.327 653.077 943.904 650.023 944.954 649.737C946.003 649.355 946.767 648.305 946.767 646.969C946.767 642.578 947.913 638.856 949.153 639.332C949.726 639.619 952.494 636.851 955.167 633.033C957.935 629.31 961.18 625.778 962.517 625.206C964.521 624.347 964.903 623.488 964.903 619.956C964.903 617.761 964.808 615.851 964.712 615.851C964.521 615.851 963.757 616.329 962.994 616.806Z" fill="black" fill-opacity="0.9"/>
<path d="M966.43 619.86C966.144 620.529 965.762 623.01 965.571 625.206C965.189 628.165 964.426 629.883 962.803 630.933C958.794 633.796 956.503 636.946 951.922 645.728C949.344 650.882 945.336 656.705 942.472 659.855C939.704 662.718 936.363 667.3 934.932 669.972C933.595 672.645 931.304 675.699 929.872 676.749C928.345 677.8 922.522 683.431 916.795 689.158C910.592 695.458 905.437 699.849 903.909 700.135C902.574 700.422 897.037 703.285 891.692 706.53C884.151 711.112 881.001 712.448 877.565 712.735C874.701 712.925 872.411 713.689 871.361 714.739C869.166 717.03 867.734 723.711 869.452 723.711C872.124 723.711 890.451 717.603 896.847 714.548C903.433 711.398 908.587 706.817 908.587 704.048C908.587 703.285 909.064 702.712 909.541 702.712C910.114 702.712 910.496 703.571 910.496 704.621C910.496 705.671 910.973 706.53 911.451 706.53C912.023 706.53 912.405 706.149 912.405 705.671C912.405 705.194 915.364 702.426 919.086 699.467C923 696.317 925.959 693.072 926.341 691.64C926.723 690.208 927.486 689.444 928.25 689.731C929.013 690.017 931.209 688.204 933.595 685.435C935.886 682.858 940.086 678.181 943.045 675.222C948.199 669.877 949.822 667.109 957.935 649.259C961.276 642.005 967.385 633.319 968.435 634.274C968.625 634.464 967.671 638.092 966.335 642.196C963.662 650.405 959.272 659.282 959.176 656.609C959.176 654.319 957.267 654.509 957.267 656.896C957.267 657.945 957.649 658.804 958.126 658.804C958.508 658.804 957.362 662.432 955.549 666.822C952.781 673.313 951.54 675.127 948.867 676.558C947.149 677.513 942.663 681.999 939.036 686.581C931.018 696.699 923.382 703.858 914.314 709.871C904.864 716.171 889.592 723.52 882.624 725.143C875.752 726.67 873.174 728.961 872.983 733.352C872.793 735.929 873.27 736.693 875.274 737.361C878.52 738.602 882.815 736.502 889.497 730.298C895.892 724.379 898.565 723.139 907.155 722.28C915.841 721.421 919.469 719.321 930.064 708.439C934.836 703.667 940.468 698.607 942.758 697.272C944.954 695.935 947.531 693.549 948.39 691.831C951.635 685.435 955.739 680.472 958.699 679.231C961.562 678.086 962.326 676.845 965.667 668.159C970.153 656.8 972.539 646.11 972.539 637.805C972.539 632.651 972.348 632.078 970.535 632.078C968.912 632.078 968.625 631.601 968.912 628.547C969.294 623.774 970.916 623.583 973.876 627.974C976.262 631.41 976.357 632.173 976.357 645.059C976.357 657.182 976.167 658.709 974.448 660.236C972.444 662.05 970.057 668.445 969.103 674.84C968.625 677.608 968.053 678.754 967.29 678.468C966.621 678.276 964.14 680.472 961.658 683.431C952.208 695.267 947.054 700.803 942.472 704.239C939.895 706.244 936.077 709.68 933.977 711.971C929.205 717.316 921.855 722.661 917.75 723.807C915.364 724.475 914.218 725.525 913.455 727.72C910.496 736.216 903.623 740.797 892.742 741.56C885.869 742.133 885.679 742.229 885.679 744.615C885.679 747.67 887.301 749.483 889.974 749.483C893.887 749.483 907.537 741.847 916.414 734.688C923.382 729.057 925.959 727.529 928.345 727.529C930.636 727.529 932.545 726.575 935.218 724.189C937.222 722.375 939.608 720.848 940.468 720.848C941.327 720.848 941.995 720.275 941.995 719.511C941.995 717.125 945.908 713.212 950.681 710.825C953.258 709.489 955.931 707.484 956.599 706.244C957.362 705.098 959.367 701.757 961.085 698.703C962.803 695.744 965.285 692.88 966.526 692.308C967.957 691.64 968.721 690.494 968.721 688.776C968.721 687.249 970.153 684.672 972.444 682.095C979.603 673.981 983.993 657.755 983.993 639.81V630.551L979.507 626.16C976.93 623.679 973.303 621.006 971.394 620.147C967.098 618.429 966.812 618.429 966.43 619.86Z" fill="black" fill-opacity="0.9"/>
<path d="M820.485 620.243C820.104 620.624 819.817 621.77 819.817 622.724C819.817 623.965 819.149 624.442 817.431 624.442C815.617 624.442 814.949 625.111 814.472 627.019C813.613 631.315 813.231 632.078 812.277 632.078C811.799 632.078 811.036 631.219 810.749 630.169C810.463 629.12 809.509 628.261 808.745 628.261C807.122 628.261 806.836 636.374 808.363 637.328C808.936 637.614 809.318 637.042 809.318 635.992C809.318 634.369 809.699 634.274 811.99 634.942C816.667 636.279 822.299 632.746 824.399 627.21C825.163 625.206 824.972 624.252 823.349 622.151C822.204 620.72 820.867 619.86 820.485 620.243Z" fill="black" fill-opacity="0.9"/>
<path d="M1051.76 624.633C1051.86 632.746 1053.77 643.341 1057.97 658.804C1060.26 667.491 1063.31 681.426 1064.65 689.731C1067.32 705.671 1069.71 713.784 1072.67 716.457C1076.29 719.703 1076.01 714.93 1071.9 702.999C1070.85 699.753 1069.9 695.649 1069.9 693.931C1069.9 692.213 1069.04 688.49 1067.99 685.722C1064.65 676.941 1062.45 667.681 1058.45 645.442C1056.35 633.605 1054.34 623.201 1054.05 622.247C1053.1 619.192 1051.76 620.624 1051.76 624.633Z" fill="black" fill-opacity="0.9"/>
<path d="M869.07 628.833C868.115 630.169 866.588 634.274 865.634 638.092C864.488 642.865 863.725 644.487 863.247 643.246C862.293 640.86 859.239 641.242 858.57 643.724C858.284 644.964 856.089 647.16 853.702 648.592C849.407 651.359 847.975 653.841 848.643 657.945C848.834 659.664 849.407 660.141 850.839 659.95C854.466 659.377 860.384 654.509 862.484 650.31C863.629 648.019 865.443 645.155 866.493 644.105C868.784 641.623 875.179 628.069 874.606 627.115C873.556 625.492 870.597 626.447 869.07 628.833Z" fill="black" fill-opacity="0.9"/>
<path d="M913.359 630.169C912.691 631.41 908.873 635.896 904.769 640.287C900.664 644.678 896.847 649.641 896.178 651.55C895.51 653.746 894.46 654.987 893.124 655.178C890.069 655.654 886.919 660.332 888.16 662.432C889.688 664.723 892.647 664.436 893.792 661.859C894.269 660.714 895.51 659.759 896.464 659.759C897.515 659.759 898.851 658.328 899.901 655.941C900.856 653.841 901.905 652.409 902.287 652.791C903.051 653.65 914.028 642.96 915.841 639.523C917.464 636.374 917.464 633.224 915.841 630.265L914.601 627.974L913.359 630.169Z" fill="black" fill-opacity="0.9"/>
<path d="M879.57 632.937C877.47 636.851 877.661 637.805 880.429 637.805C883.006 637.805 883.579 637.042 883.961 633.033C884.342 629.501 881.384 629.406 879.57 632.937Z" fill="black" fill-opacity="0.9"/>
<path d="M822.871 640.191C822.203 641.623 821.344 644.773 821.058 647.255C820.485 651.264 820.581 651.55 822.012 650.31C824.208 648.592 825.926 641.814 824.876 639.428C824.112 637.71 823.921 637.805 822.871 640.191Z" fill="black" fill-opacity="0.9"/>
<path d="M874.606 638.569C873.079 639.524 871.361 643.151 871.361 645.346C871.361 649.355 876.229 646.587 877.374 641.91C877.851 639.619 876.229 637.519 874.606 638.569Z" fill="black" fill-opacity="0.9"/>
<path d="M881.86 645.919C880.619 649.26 880.619 655.655 881.956 656.418C883.578 657.469 884.151 656.227 884.533 650.31C885.01 644.2 883.483 641.719 881.86 645.919Z" fill="black" fill-opacity="0.9"/>
<path d="M814.663 647.732C813.995 650.405 815.426 654.986 816.954 654.986C818.385 654.986 817.813 646.205 816.381 645.728C815.713 645.537 815.045 646.396 814.663 647.732Z" fill="black" fill-opacity="0.9"/>
<path d="M831.462 649.737C828.312 653.173 827.072 656.513 827.644 659.282C827.835 660.618 828.885 660.141 832.99 656.8C837.189 653.268 837.953 652.123 837.762 649.737C837.38 645.728 834.994 645.728 831.462 649.737Z" fill="black" fill-opacity="0.9"/>
<path d="M875.751 650.214C872.506 651.264 869.547 653.746 868.497 656.514C867.925 657.85 866.493 658.804 864.297 659.187C859.907 660.046 853.702 664.245 842.439 674.172C833.658 681.809 833.371 682.19 835.853 682.668C843.012 684.195 852.557 679.613 861.529 670.545C865.347 666.727 868.974 663.577 869.738 663.577C870.406 663.577 872.41 662.527 874.224 661.191C876.038 659.855 877.947 658.804 878.424 658.804C878.997 658.804 879.474 656.705 879.474 654.032C879.474 651.359 879.283 649.259 878.997 649.355C878.71 649.355 877.278 649.832 875.751 650.214Z" fill="black" fill-opacity="0.9"/>
<path d="M972.539 655.464C972.539 657.277 973.017 658.804 973.493 658.804C974.066 658.804 974.448 657.277 974.448 655.464C974.448 653.65 974.066 652.123 973.493 652.123C973.017 652.123 972.539 653.65 972.539 655.464Z" fill="black" fill-opacity="0.9"/>
<path d="M1080.4 655.464C1079.44 656.61 1079.64 658.518 1081.83 666.154C1083.17 671.309 1085.17 677.036 1086.22 678.849L1088.13 682.19L1087.75 675.795C1087.37 670.927 1086.6 668.254 1084.22 664.055C1081.74 659.664 1081.35 658.518 1082.4 657.278C1083.17 656.323 1083.26 655.559 1082.59 654.892C1081.93 654.223 1081.26 654.414 1080.4 655.464Z" fill="black" fill-opacity="0.9"/>
<path d="M836.903 661.954C828.885 669.495 825.354 674.077 827.644 674.077C829.935 674.077 843.107 667.395 845.78 664.818C847.785 662.909 848.262 661.764 847.785 659.855C847.212 657.182 845.78 654.987 844.73 654.987C844.444 655.082 840.912 658.136 836.903 661.954Z" fill="black" fill-opacity="0.9"/>
<path d="M820.772 663.577C820.772 669.304 821.917 669.686 823.635 664.627C824.876 660.714 824.399 658.804 822.108 658.804C821.154 658.804 820.772 660.046 820.772 663.577Z" fill="black" fill-opacity="0.9"/>
<path d="M883.483 665.009C881.574 666.727 880.142 667.205 878.52 666.822C876.802 666.441 876.133 666.727 875.656 668.254C875.179 669.782 874.225 670.259 872.029 670.259C868.306 670.259 866.206 671.595 857.139 679.995C853.034 683.813 848.834 686.867 847.307 687.153C843.871 687.822 843.203 689.254 844.348 693.739L845.112 697.176L849.884 692.976C856.757 686.867 878.52 671.214 880.238 671.214C880.428 671.214 880.333 672.74 880.142 674.554C879.569 679.231 881.097 678.754 884.151 673.122C885.583 670.545 887.397 667.968 888.256 667.586C889.401 666.918 889.497 666.345 888.637 664.627C887.206 662.145 886.824 662.145 883.483 665.009Z" fill="black" fill-opacity="0.9"/>
<path d="M813.422 665.963C813.136 666.822 813.136 667.681 813.422 667.968C814.281 668.827 815.999 667.395 815.999 665.868C815.999 664.055 814.186 664.15 813.422 665.963Z" fill="black" fill-opacity="0.9"/>
<path d="M1006.9 666.059C1006.9 667.013 1004.52 674.65 1001.65 683.144C998.789 691.735 996.402 699.18 996.402 699.849C996.402 700.517 995.161 702.617 993.73 704.526C992.203 706.435 988.862 711.589 986.284 715.98C983.707 720.37 978.648 726.957 975.117 730.584C969.198 736.597 964.999 743.183 964.903 746.429C964.903 747.956 974.449 740.702 980.653 734.593C985.521 729.725 989.243 723.139 990.293 717.603C990.675 715.216 992.203 712.639 994.397 710.444C996.688 708.153 999.552 702.999 1002.99 695.171C1009.38 680.567 1010.72 676.082 1010.72 669.591C1010.72 665.2 1010.53 664.531 1008.81 664.531C1007.67 664.531 1006.9 665.2 1006.9 666.059Z" fill="black" fill-opacity="0.9"/>
<path d="M806.645 669.399C806.836 671.214 807.409 672.549 807.886 672.359C809.318 672.073 809.031 667.109 807.6 666.632C806.645 666.346 806.359 667.109 806.645 669.399Z" fill="black" fill-opacity="0.9"/>
<path d="M1044.7 680.854C1043.75 685.722 1044.03 692.117 1045.56 701.281C1046.42 705.957 1047.37 714.262 1047.85 719.607C1048.33 724.952 1049 729.725 1049.38 730.298C1052.05 734.784 1052.62 719.894 1050.24 703.189C1049.47 697.367 1048.61 689.826 1048.23 686.294C1047.56 678.945 1045.65 675.986 1044.7 680.854Z" fill="black" fill-opacity="0.9"/>
<path d="M822.776 682.668C821.44 687.058 821.44 687.44 822.681 687.44C823.254 687.44 823.635 686.772 823.635 685.913C823.635 684.672 824.304 684.481 827.453 685.054C830.89 685.626 831.272 685.531 831.272 683.717C831.272 682.572 830.699 681.713 830.126 681.713C829.458 681.713 827.74 681.14 826.404 680.377C823.922 679.135 823.826 679.135 822.776 682.668Z" fill="black" fill-opacity="0.9"/>
<path d="M874.034 680.472C873.175 681.426 872.124 683.144 871.552 684.194C870.979 685.34 869.166 686.485 867.447 686.867C861.816 688.012 856.089 692.117 854.18 696.317C853.225 698.512 852.462 700.421 852.652 700.517C852.939 700.898 870.12 691.735 872.029 690.113C874.32 688.203 878.997 680.567 878.424 679.708C877.565 678.372 875.561 678.754 874.034 680.472Z" fill="black" fill-opacity="0.9"/>
<path d="M884.533 681.236C882.433 683.336 879.952 689.158 879.952 692.117C879.952 693.644 888.829 686.677 890.26 683.908C892.933 678.945 888.733 676.941 884.533 681.236Z" fill="black" fill-opacity="0.9"/>
<path d="M814.567 681.618C810.559 682.477 810.081 686.581 813.613 688.967C815.045 689.922 816.381 690.208 816.858 689.731C817.908 688.585 819.054 680.758 818.195 680.854C817.717 680.95 816.19 681.236 814.567 681.618Z" fill="black" fill-opacity="0.9"/>
<path d="M1077.25 688.012C1076.49 688.776 1077.44 693.263 1078.49 694.408C1079.44 695.458 1080.78 689.73 1079.92 688.395C1079.25 687.344 1078.11 687.153 1077.25 688.012Z" fill="black" fill-opacity="0.9"/>
<path d="M836.998 690.303C836.235 690.781 834.803 690.972 833.944 690.686C832.608 690.303 832.226 690.781 832.226 692.977C832.226 696.603 831.271 697.367 829.649 695.076C827.931 692.594 827.549 692.69 823.922 696.126C819.054 700.612 819.722 701.758 826.881 701.758C837.285 701.758 842.63 698.512 841.962 692.69C841.58 689.254 839.957 688.395 836.998 690.303Z" fill="black" fill-opacity="0.9"/>
<path d="M875.37 692.404C873.747 694.026 873.938 696.985 875.656 696.985C877.279 696.985 879.379 693.549 878.52 692.213C877.756 690.972 876.802 690.972 875.37 692.404Z" fill="black" fill-opacity="0.9"/>
<path d="M869.261 699.085C867.542 700.803 866.588 702.903 866.588 704.621C866.588 707.771 866.874 707.962 869.452 706.53C871.551 705.385 874.033 698.321 872.697 697.081C872.22 696.603 870.692 697.462 869.261 699.085Z" fill="black" fill-opacity="0.9"/>
<path d="M858.475 706.435C857.616 708.153 857.425 709.489 857.998 709.871C859.048 710.539 862.77 708.726 862.77 707.484C862.77 707.103 863.057 706.053 863.343 705.194C864.489 702.235 860.098 703.475 858.475 706.435Z" fill="black" fill-opacity="0.9"/>
<path d="M873.652 706.053C873.365 707.389 873.27 708.726 873.556 709.012C874.511 709.966 876.133 708.343 876.133 706.53C876.133 703.667 874.32 703.38 873.652 706.053Z" fill="black" fill-opacity="0.9"/>
<path d="M849.503 705.48C847.307 706.053 845.398 709.107 846.257 710.539C846.735 711.494 850.457 711.494 851.984 710.539C852.557 710.158 853.416 708.63 853.702 707.198C854.466 704.431 853.893 704.239 849.503 705.48Z" fill="black" fill-opacity="0.9"/>
<path d="M843.299 707.008C842.917 708.153 842.344 708.343 840.912 707.484C839.576 706.817 838.812 706.817 838.431 707.484C837.19 709.489 838.812 711.303 841.771 711.303C844.349 711.303 844.635 711.017 844.635 708.439C844.635 705.29 844.158 704.812 843.299 707.008Z" fill="black" fill-opacity="0.9"/>
<path d="M830.317 709.299C828.79 712.257 829.172 715.121 831.081 715.121C833.563 715.121 835.09 713.212 835.09 710.158C835.09 708.153 834.613 707.485 833.181 707.485C832.226 707.485 830.89 708.344 830.317 709.299Z" fill="black" fill-opacity="0.9"/>
<path d="M823.635 711.303C823.635 712.544 824.113 713.021 825.067 712.639C825.831 712.257 826.499 711.493 826.499 710.73C826.499 709.967 825.831 709.394 825.067 709.394C824.304 709.394 823.635 710.253 823.635 711.303Z" fill="black" fill-opacity="0.9"/>
<path d="M1039.93 722.947C1039.45 728.675 1038.4 731.92 1034.01 741.179C1031.05 747.383 1028.86 752.633 1029.14 752.919C1030 753.778 1033.25 751.583 1034.96 749.006C1035.92 747.574 1036.68 744.52 1036.78 742.229C1036.87 739.938 1037.26 738.029 1037.73 738.029C1038.11 738.029 1039.26 736.597 1040.31 734.879C1041.74 732.588 1042.22 730.106 1042.22 725.143C1042.22 715.693 1040.79 714.357 1039.93 722.947Z" fill="black" fill-opacity="0.9"/>
<path d="M848.643 719.511C848.834 720.943 849.502 722.28 850.171 722.566C851.125 722.852 851.411 722.184 851.125 720.275C850.934 718.843 850.266 717.507 849.598 717.22C848.643 716.934 848.357 717.603 848.643 719.511Z" fill="black" fill-opacity="0.9"/>
<path d="M856.47 718.366C855.707 720.466 856.375 723.998 857.807 724.475C858.57 724.666 858.952 723.616 858.952 720.943C858.952 717.125 857.52 715.693 856.47 718.366Z" fill="black" fill-opacity="0.9"/>
<path d="M863.343 718.557C862.484 720.848 862.675 724.666 863.725 724.666C864.966 724.666 866.588 721.421 866.588 719.034C866.588 716.648 864.202 716.361 863.343 718.557Z" fill="black" fill-opacity="0.9"/>
<path d="M836.617 720.466C835.662 723.044 835.948 724.666 837.476 724.666C838.335 724.666 838.907 723.807 838.907 722.375C838.907 719.511 837.476 718.366 836.617 720.466Z" fill="black" fill-opacity="0.9"/>
<path d="M828.981 722.375C828.599 723.234 828.599 724.189 828.885 724.475C829.458 725.048 832.226 722.757 832.226 721.707C832.226 720.18 829.553 720.753 828.981 722.375Z" fill="black" fill-opacity="0.9"/>
<path d="M1017.4 726.384C1017.4 727.052 1015.11 730.106 1012.25 733.161C1007.67 738.124 1004.8 743.947 1006.23 745.379C1007.19 746.238 1011.77 742.515 1014.44 738.602C1017.69 733.829 1019.69 727.529 1018.36 726.193C1017.69 725.525 1017.4 725.62 1017.4 726.384Z" fill="black" fill-opacity="0.9"/>
<path d="M899.424 728.388C896.751 730.011 892.36 735.07 892.36 736.502C892.36 737.265 903.909 736.025 905.819 735.07C906.678 734.593 907.918 732.97 908.396 731.348C909.255 728.961 909.16 728.388 907.632 727.529C904.96 726.097 902.764 726.384 899.424 728.388Z" fill="black" fill-opacity="0.9"/>
<path d="M866.779 730.965C864.298 732.684 864.011 736.884 866.207 737.743C868.115 738.507 870.406 735.738 870.406 732.684C870.406 729.725 869.261 729.247 866.779 730.965Z" fill="black" fill-opacity="0.9"/>
<path d="M932.736 731.729C929.777 733.161 929.491 739.938 932.355 739.938C934.741 739.938 937.223 736.406 937.223 733.066C937.223 730.202 936.268 729.916 932.736 731.729Z" fill="black" fill-opacity="0.9"/>
<path d="M851.03 733.639C850.075 736.025 850.171 739.938 851.221 739.938C852.461 739.938 853.225 736.216 852.366 733.925C851.698 732.207 851.602 732.111 851.03 733.639Z" fill="black" fill-opacity="0.9"/>
<path d="M1025.23 733.447C1023.61 735.07 1023.8 739.938 1025.42 739.938C1026.95 739.938 1027.9 737.934 1027.9 734.593C1027.9 732.111 1026.95 731.729 1025.23 733.447Z" fill="black" fill-opacity="0.9"/>
<path d="M857.043 736.025C857.043 737.075 857.52 738.22 857.997 738.506C858.57 738.888 858.952 738.029 858.952 736.692C858.952 735.357 858.57 734.211 857.997 734.211C857.52 734.211 857.043 735.07 857.043 736.025Z" fill="black" fill-opacity="0.9"/>
<path d="M922.427 738.029C920.9 739.079 918.418 741.465 916.891 743.47C914.409 746.811 914.314 747.192 915.841 748.243C918.037 749.865 918.036 749.865 923.095 747.574C926.913 745.952 927.486 745.188 928.059 742.133C928.345 740.129 928.632 737.934 928.632 737.265C928.632 735.547 925.672 735.833 922.427 738.029Z" fill="black" fill-opacity="0.9"/>
<path d="M880.429 743.088C879.474 745.474 880.334 749.006 881.86 749.006C883.865 749.006 884.151 746.047 882.433 743.565C881.193 741.847 880.906 741.752 880.429 743.088Z" fill="black" fill-opacity="0.9"/>
<path d="M830.126 746.047C828.026 750.724 833.371 753.206 841.962 751.583C845.207 750.915 847.116 751.01 848.834 751.869C851.507 753.301 852.271 752.919 852.271 749.961C852.271 745.761 849.789 744.997 843.68 747.288C838.048 749.292 838.048 749.292 836.33 747.384C833.085 743.756 831.367 743.47 830.126 746.047Z" fill="black" fill-opacity="0.9"/>
<path d="M871.551 745.188C867.542 746.906 868.02 748.91 872.506 749.292C875.179 749.483 876.324 749.102 877.47 747.383C878.329 746.238 878.997 744.901 878.997 744.52C878.997 743.279 874.988 743.661 871.551 745.188Z" fill="black" fill-opacity="0.9"/>
<path d="M863.343 747.097C863.057 747.86 862.102 748.529 861.243 748.529C859.143 748.529 860.098 750.82 862.484 751.201C864.775 751.583 866.97 749.102 866.206 747.097C865.538 745.283 864.106 745.283 863.343 747.097Z" fill="black" fill-opacity="0.9"/>
<path d="M941.04 747.574C941.04 748.624 941.518 749.483 941.995 749.483C942.567 749.483 942.95 748.624 942.95 747.574C942.95 746.524 942.567 745.665 941.995 745.665C941.518 745.665 941.04 746.524 941.04 747.574Z" fill="black" fill-opacity="0.9"/>
<path d="M958.89 748.338C957.171 750.151 956.312 751.965 956.504 753.397L956.79 755.497L959.462 753.206C961.563 751.488 962.135 750.151 961.849 748.147L961.563 745.474L958.89 748.338Z" fill="black" fill-opacity="0.9"/>
<path d="M904.959 749.483C903.241 750.533 901.332 752.442 900.759 753.778C899.805 755.878 899.614 755.974 898.564 754.542C896.464 751.679 894.269 753.683 894.269 758.551C894.269 763.61 896.464 764.565 898.373 760.173C899.137 758.36 900.091 757.692 901.237 757.883C904.673 758.551 907.728 757.024 910.495 753.111C912.118 751.01 913.359 748.815 913.359 748.338C913.359 746.906 908.109 747.574 904.959 749.483Z" fill="black" fill-opacity="0.9"/>
<path d="M855.134 750.151C855.134 751.296 855.612 752.538 856.089 752.824C857.33 753.587 857.33 751.392 856.089 749.483C855.325 748.338 855.134 748.433 855.134 750.151Z" fill="black" fill-opacity="0.9"/>
<path d="M928.154 753.301C927.486 755.306 929.205 759.41 930.445 758.647C931.4 758.074 930.54 751.393 929.586 751.393C929.109 751.393 928.536 752.252 928.154 753.301Z" fill="black" fill-opacity="0.9"/>
<path d="M1043.17 753.492C1043.17 754.16 1043.65 755.401 1044.13 756.165C1044.89 757.31 1045.08 757.215 1045.08 755.497C1045.08 754.351 1044.7 753.111 1044.13 752.824C1043.65 752.538 1043.17 752.824 1043.17 753.492Z" fill="black" fill-opacity="0.9"/>
<path d="M1024.27 755.497C1021.51 758.455 1021.6 759.792 1024.56 759.219C1025.9 759.028 1026.95 758.265 1026.95 757.596C1026.95 756.833 1027.23 755.688 1027.52 754.829C1028.38 752.633 1026.66 753.015 1024.27 755.497Z" fill="black" fill-opacity="0.9"/>
<path d="M922.332 755.688C921.949 756.642 920.422 757.119 917.559 757.119C912.023 757.119 906.105 759.601 903.814 762.847C899.519 768.86 902.191 770.005 911.45 766.283C914.504 765.041 918.418 763.706 919.945 763.323C922.141 762.847 922.904 762.178 922.904 760.651C922.904 759.506 923.764 757.979 924.813 757.31C925.958 756.642 926.531 755.688 926.245 755.21C925.386 753.778 922.904 754.065 922.332 755.688Z" fill="black" fill-opacity="0.9"/>
<path d="M965.953 756.737C963.757 759.601 963.281 762.847 965.189 762.847C967.576 762.751 971.489 758.36 970.916 756.26C970.248 753.587 968.339 753.778 965.953 756.737Z" fill="black" fill-opacity="0.9"/>
<path d="M885.487 756.26C883.005 757.692 883.388 759.314 886.728 761.224C890.355 763.228 891.406 762.655 891.406 758.455C891.406 755.688 891.119 755.21 889.305 755.21C888.065 755.21 886.347 755.688 885.487 756.26Z" fill="black" fill-opacity="0.9"/>
<path d="M949.344 755.878C947.817 757.31 948.772 759.124 950.776 758.838C953.545 758.455 954.404 755.21 951.73 755.21C950.776 755.21 949.631 755.497 949.344 755.878Z" fill="black" fill-opacity="0.9"/>
<path d="M942.949 762.56C942.949 764.946 944.381 766.187 945.335 764.66C945.717 764.087 945.335 762.942 944.476 762.083C943.045 760.651 942.949 760.651 942.949 762.56Z" fill="black" fill-opacity="0.9"/>
<path d="M977.598 762.083C977.026 762.751 976.357 764.087 976.071 764.946C975.594 766.283 975.975 766.664 977.694 766.664C979.889 766.664 981.13 765.041 981.13 762.274C981.13 760.651 978.839 760.556 977.598 762.083Z" fill="black" fill-opacity="0.9"/>
<path d="M859.43 763.801C859.144 764.278 859.334 765.614 859.907 766.76C860.957 768.669 861.053 768.669 862.293 766.951C863.057 765.996 863.725 764.66 863.725 763.992C863.725 762.655 860.289 762.464 859.43 763.801Z" fill="black" fill-opacity="0.9"/>
<path d="M955.835 764.755C954.88 765.805 953.545 766.664 952.781 766.664C951.349 766.664 951.158 769.337 952.399 771.341C953.067 772.392 954.021 772.105 957.171 769.623C961.276 766.378 962.422 762.847 959.367 762.847C958.317 762.847 956.79 763.706 955.835 764.755Z" fill="black" fill-opacity="0.9"/>
<path d="M936.077 767.142C933.881 770.005 933.881 772.678 935.981 772.2C937.795 771.819 939.703 766.856 938.558 765.71C938.081 765.233 936.936 765.901 936.077 767.142Z" fill="black" fill-opacity="0.9"/>
<path d="M921.664 770.196C920.518 771.246 920.9 772.391 922.427 772.391C923.191 772.391 923.859 771.724 923.859 770.96C923.859 769.433 922.714 769.05 921.664 770.196Z" fill="black" fill-opacity="0.9"/>
</svg>
