<svg width="1366" height="619" viewBox="0 0 1366 619" fill="none" xmlns="http://www.w3.org/2000/svg">
<path d="M672.44 256.32C665.346 259.003 658.252 263.652 655.212 267.706C653.781 269.614 651.576 271.521 649.668 272.594C646.687 274.323 641.442 279.271 641.442 280.403C641.442 280.701 644.482 283.861 648.178 287.437C656.821 295.843 658.431 298.704 660.16 308.957C660.398 310.448 660.16 311.163 659.206 312.057L657.954 313.249L660.1 318.793C661.233 321.834 662.663 326.066 663.2 328.152C664.631 333.816 668.327 341.923 672.976 349.613L677.09 356.528L678.222 365.589C678.878 370.715 679.116 374.709 678.818 374.709C678.52 374.709 675.122 372.742 671.307 370.298C667.432 367.854 662.842 365.41 661.054 364.814C659.266 364.277 657.298 363.323 656.643 362.787C655.987 362.191 654.497 361.595 653.364 361.356C649.132 360.581 645.138 357.958 635.838 350.03C624.75 340.492 624.095 339.956 622.127 340.254C621.114 340.373 619.445 339.479 616.464 337.213L612.232 334.054L614.08 331.968C615.034 330.835 615.808 329.643 615.689 329.285C615.57 328.927 614.497 328.331 613.305 327.914C609.907 326.781 604.661 321.357 603.23 317.541C602.575 315.753 601.084 313.19 599.892 311.938C597.806 309.613 597.806 309.494 598.163 305.619C598.402 303.473 598.7 300.612 598.879 299.3C599.117 297.452 598.938 296.498 597.806 294.889C597.031 293.756 595.838 292.624 595.064 292.385C593.335 291.73 591.606 293.458 588.387 299.002C584.691 305.5 583.499 309.315 583.141 316.29C582.903 321.834 582.664 322.728 581.234 324.755C579.922 326.543 579.505 327.974 579.147 331.55C578.909 334.054 578.968 336.319 579.266 336.617C579.624 336.975 596.315 339.538 598.64 339.538C598.819 339.538 599.773 340.194 600.727 340.969C601.68 341.804 603.171 342.638 604.005 342.817C604.84 343.055 607.165 344.903 609.251 346.99C612.828 350.626 613.007 350.924 612.351 352.355C611.934 353.249 611.814 354.262 612.053 354.68C612.351 355.157 614.557 357.064 617.001 359.031C619.445 360.999 623.737 364.516 626.539 366.9C629.34 369.225 634.169 372.683 637.269 374.53C652.231 383.293 652.947 383.83 660.756 391.58C664.929 395.752 669.757 400.223 671.486 401.475C676.315 405.111 676.672 405.767 679.593 415.722C681.024 420.73 683.468 423.83 688.416 426.989C690.502 428.36 691.933 429.791 692.469 431.102C693.423 433.427 693.602 438.494 692.708 438.494C690.085 438.494 681.56 432.354 671.426 423.055C663.498 415.842 660.994 412.742 659.921 408.688C659.087 405.469 656.225 399.746 655.51 399.746C655.212 399.746 655.212 401.177 655.391 402.846L655.808 406.006L653.245 403.621C648.476 399.15 647.522 398.435 646.807 398.852C646.389 399.091 646.926 400.223 648.416 402.012L650.681 404.813L647.224 401.952C645.257 400.402 643.468 399.15 643.23 399.15C641.561 399.15 642.336 400.819 645.138 403.442C648.059 406.244 647.701 406.244 643.468 403.562C642.455 402.846 641.799 402.727 641.382 403.144C640.965 403.562 641.62 404.515 643.468 406.065C646.509 408.569 646.628 409.284 643.826 407.794C640.488 406.065 640.547 407.198 643.945 409.761C645.793 411.132 647.82 412.98 648.476 413.874C649.132 414.828 651.456 416.497 653.602 417.57C657.12 419.299 658.252 420.372 663.975 427.347C674.765 440.581 676.613 443.084 676.613 444.396C676.613 445.171 677.328 446.065 678.58 446.78C681.322 448.39 686.151 452.324 686.151 452.92C686.151 453.934 683.408 453.278 678.043 450.953C672.261 448.39 663.319 441.773 657.596 435.871L654.914 433.189L654.854 427.943C654.735 422.339 653.483 418.226 651.933 418.226C651.218 418.226 651.158 418.882 651.397 421.505C651.874 426.154 650.681 425.856 646.449 420.134C642.932 415.484 641.62 414.053 640.726 414.053C639.832 414.053 640.249 415.663 641.799 418.465C642.693 420.014 643.23 421.385 643.111 421.505C642.992 421.684 641.442 420.312 639.653 418.465C635.778 414.471 634.348 413.576 633.632 414.709C633.275 415.305 634.407 416.855 637.448 419.955L641.74 424.366L637.626 421.564C635.421 420.074 633.156 418.822 632.738 418.822C631.01 418.822 632.023 420.491 635.838 423.83C637.984 425.737 639.594 427.406 639.474 427.585C639.296 427.704 638.103 427.287 636.732 426.631C633.871 425.141 633.692 425.141 633.692 426.214C633.692 426.691 634.586 427.704 635.659 428.479C639.057 430.864 658.252 447.555 664.333 453.397C667.552 456.497 671.128 460.252 672.201 461.743C673.274 463.233 675.599 465.379 677.388 466.512C682.395 469.731 702.365 483.024 703.736 484.038C704.869 484.872 704.869 484.932 703.021 485.349C701.948 485.528 700.755 486.124 700.398 486.541C700.04 487.018 699.206 487.376 698.609 487.376C697.834 487.376 697.477 487.793 697.477 488.628C697.477 489.284 696.702 490.535 695.748 491.43C694.794 492.324 693.84 493.993 693.602 495.125C693.364 496.258 692.767 497.51 692.291 497.868C691.575 498.345 691.456 499.239 691.754 501.742C691.933 503.531 692.171 505.796 692.291 506.75C692.469 509.432 699.325 517.838 700.815 517.361C701.232 517.242 702.305 517.838 703.319 518.672C704.273 519.507 705.465 520.162 705.882 520.162C706.299 520.162 707.134 520.639 707.79 521.236C708.863 522.189 708.982 522.189 710.651 520.162C711.605 519.03 712.737 518.076 713.155 518.076C714.049 518.076 718.758 514.261 722.037 510.923C728.952 503.769 729.548 502.994 731.098 498.285C731.933 495.722 732.648 493.456 732.648 493.218C732.648 492.979 731.277 492.085 729.667 491.251C726.15 489.462 725.733 488.628 725.196 482.249L724.779 477.54L727.283 473.665C733.721 463.472 734.794 459.478 733.542 450.417C733.065 446.959 732.409 441.952 732.111 439.269C731.038 430.506 729.548 427.108 715.599 400.939C714.109 398.137 712.022 394.918 710.949 393.785C709.757 392.533 708.803 390.805 708.565 389.433C707.969 386.214 704.63 376.14 701.53 368.152C700.04 364.396 698.371 359.687 697.775 357.72C697.238 355.753 696.165 353.07 695.45 351.759C694.735 350.447 693.602 348.063 693.006 346.453C692.35 344.605 690.86 342.459 689.072 340.671C687.462 339.181 686.151 337.511 686.151 337.035C686.151 336.498 685.316 335.127 684.362 333.875C683.349 332.623 682.097 330.12 681.62 328.272C679.832 322.251 674.288 309.136 672.499 306.871C671.188 305.202 668.267 298.287 668.267 296.856C668.267 296.797 669.221 296.2 670.353 295.485C672.321 294.352 672.44 294.114 672.44 291.074C672.44 288.928 672.142 287.557 671.546 287.08C669.876 285.709 669.519 282.669 670.413 276.827C671.665 268.481 671.784 268.123 674.586 264.964C677.507 261.685 678.222 259.658 677.447 257.333C676.791 255.545 675.361 255.247 672.44 256.32Z" fill="black" fill-opacity="0.9"/>
</svg>
