<svg width="1920" height="931" viewBox="0 0 1920 931" fill="none" xmlns="http://www.w3.org/2000/svg">
<path d="M959.785 266.845C958.946 268.103 958.421 269.467 958.736 269.886C959.471 271.145 964.924 268.942 967.127 266.53C968.91 264.642 968.805 264.537 965.134 264.537C962.512 264.537 960.938 265.167 959.785 266.845Z" fill="black" fill-opacity="0.9"/>
<path d="M929.474 270.201C929.159 271.04 929.264 272.089 929.788 272.403C931.152 273.242 932.306 270.83 931.047 269.572C930.418 268.942 929.894 269.152 929.474 270.201Z" fill="black" fill-opacity="0.9"/>
<path d="M947.094 271.25C939.123 274.396 931.362 278.277 923.705 283.102C914.161 289.185 887.835 307.959 888.36 308.379C889.513 309.532 895.911 306.805 903.778 301.771C908.602 298.729 914.685 295.478 917.308 294.639C920.978 293.38 921.922 292.541 921.922 290.653C921.922 288.451 922.657 288.031 927.062 287.402C929.788 286.982 934.508 285.514 937.445 284.046C945.312 280.27 958.107 268.523 954.227 268.733C953.702 268.837 950.555 269.886 947.094 271.25Z" fill="black" fill-opacity="0.9"/>
<path d="M999.221 270.516C999.431 271.774 1000.48 272.404 1002.16 272.404C1003.84 272.404 1004.89 271.774 1005.1 270.516C1005.41 269.152 1004.78 268.733 1002.16 268.733C999.536 268.733 998.907 269.152 999.221 270.516Z" fill="black" fill-opacity="0.9"/>
<path d="M918.775 275.655C916.783 277.648 917.202 278.487 919.719 277.543C920.663 277.228 921.398 276.284 921.398 275.445C921.398 273.557 920.873 273.557 918.775 275.655Z" fill="black" fill-opacity="0.9"/>
<path d="M959.68 278.172C954.541 279.85 948.248 281.738 945.836 282.368C943.109 282.997 941.221 284.255 940.801 285.514C939.753 288.766 934.614 292.436 926.852 295.373C921.398 297.471 918.357 299.464 914.581 303.449C910.7 307.54 906.61 310.162 895.806 315.406C881.857 322.223 874.201 327.468 874.201 330.195C874.201 332.188 874.41 332.082 881.018 328.936C884.164 327.468 888.465 325.999 890.667 325.685C893.184 325.265 896.226 323.692 898.953 321.175C901.365 318.972 905.666 316.455 908.917 315.406C918.461 312.259 922.028 309.952 928.321 302.82C934.718 295.583 939.753 291.807 942.899 291.807C943.948 291.807 946.885 289.919 949.402 287.507C954.856 282.473 959.68 280.27 965.24 280.27C967.861 280.27 969.959 279.536 971.008 278.382C974.889 274.082 972.477 274.082 959.68 278.172Z" fill="black" fill-opacity="0.9"/>
<path d="M980.657 282.472C976.462 283.416 973.42 286.038 974.469 287.717C974.784 288.241 976.567 288.661 978.559 288.661C981.077 288.661 982.65 287.926 984.223 285.934C986.426 283.102 987.055 281.214 985.692 281.424C985.167 281.528 982.965 281.948 980.657 282.472Z" fill="black" fill-opacity="0.9"/>
<path d="M988.523 283.416C988.523 285.094 989.257 285.514 992.195 285.514C995.131 285.514 995.865 285.094 995.865 283.416C995.865 281.738 995.131 281.318 992.195 281.318C989.257 281.318 988.523 281.738 988.523 283.416Z" fill="black" fill-opacity="0.9"/>
<path d="M1006.77 282.892C1007.09 283.836 1007.4 284.885 1007.4 285.094C1007.4 285.304 1008.14 285.514 1009.08 285.514C1011.39 285.514 1010.44 281.948 1008.03 281.528C1006.56 281.214 1006.25 281.528 1006.77 282.892Z" fill="black" fill-opacity="0.9"/>
<path d="M968.911 287.087C968.596 288.031 968.596 288.975 968.911 289.29C969.855 290.234 971.743 288.66 971.743 286.982C971.743 284.99 969.749 285.094 968.911 287.087Z" fill="black" fill-opacity="0.9"/>
<path d="M956.639 291.387C956.01 292.961 958.422 295.897 960.52 296.002C961.674 296.002 961.359 292.331 959.995 290.968C958.317 289.29 957.373 289.395 956.639 291.387Z" fill="black" fill-opacity="0.9"/>
<path d="M987.369 290.758C976.357 291.283 976.252 291.283 973.42 294.639C971.322 297.051 969.644 298.1 967.442 298.1C965.764 298.1 962.617 298.729 960.519 299.568C958.317 300.408 951.184 302.82 944.577 304.917C937.34 307.12 929.684 310.476 925.174 313.203C921.083 315.721 916.573 318.133 915.105 318.552C913.636 318.972 910.594 321.07 908.287 323.167C905.98 325.37 902.099 327.677 899.687 328.412C897.17 329.041 894.233 330.929 892.659 332.711C890.771 335.019 889.094 335.858 886.786 335.858C884.374 335.858 883.325 336.383 882.905 337.851C882.59 338.9 880.179 341.207 877.556 342.99C874.83 344.774 871.263 347.605 869.48 349.493L866.334 352.745L871.054 352.011C878.815 350.857 881.542 348.864 881.542 344.564C881.542 342.466 881.752 342.361 884.164 343.41C887.52 344.878 891.611 343.095 901.47 335.858C905.245 333.132 909.861 330.09 911.748 329.146C913.951 327.992 915.105 326.628 915.105 325.265C915.105 323.377 915.314 323.272 916.678 324.321C917.937 325.37 918.671 325.37 919.51 324.531C920.244 323.797 921.607 323.272 922.551 323.272C923.495 323.272 928.425 320.65 933.564 317.504C942.794 311.63 956.429 306.491 962.407 306.491C964.191 306.491 967.127 305.337 968.91 303.974C972.372 301.351 980.238 298.415 990.621 296.002C996.494 294.534 999.536 292.751 998.907 291.073C998.697 290.653 993.453 290.444 987.369 290.758Z" fill="black" fill-opacity="0.9"/>
<path d="M1002.16 290.758C1002.16 291.283 1002.79 291.807 1003.63 291.807C1004.47 291.807 1005.51 291.283 1005.83 290.758C1006.14 290.129 1005.51 289.709 1004.36 289.709C1003.1 289.709 1002.16 290.129 1002.16 290.758Z" fill="black" fill-opacity="0.9"/>
<path d="M944.892 293.905C942.794 294.744 937.76 300.198 938.494 300.827C939.123 301.456 951.919 297.261 953.597 295.897C954.96 294.639 954.96 294.429 953.178 293.8C950.661 292.751 947.619 292.751 944.892 293.905Z" fill="black" fill-opacity="0.9"/>
<path d="M1008.35 296.002C999.956 297.471 993.243 302.191 993.977 306.071C994.292 307.749 994.712 307.645 997.019 305.127L999.641 302.191L1001.63 304.393C1004.15 307.12 1004.47 307.12 1012.44 303.135L1019.25 299.883L1027.02 301.771L1034.78 303.764L1037.5 300.932L1040.34 298.205L1037.19 296.946C1033.41 295.478 1014.74 294.744 1008.35 296.002Z" fill="black" fill-opacity="0.9"/>
<path d="M971.847 308.274C961.359 311.316 949.087 315.301 944.577 317.084C934.928 320.965 923.495 327.992 917.622 333.551C914.79 336.383 912.378 337.641 910.49 337.641C908.497 337.641 906.085 339.11 902.728 342.361C900.002 344.983 890.771 351.696 882.067 357.36C866.229 367.638 862.348 370.575 850.077 380.959C842.001 387.776 841.686 388.09 841.686 391.237C841.686 394.908 844.937 393.754 847.455 389.14C849.133 385.993 850.706 384.839 855.531 383.056C858.782 381.903 862.977 379.49 864.655 377.812C866.334 376.029 868.851 374.666 870.11 374.666C873.466 374.666 878.605 370.365 882.59 364.282C884.374 361.345 886.472 358.933 887.206 358.933C890.352 358.933 900.106 353.059 912.482 343.83C930.628 330.09 933.879 328.412 953.178 322.119C962.303 319.182 971.428 315.616 973.42 314.252C979.713 309.952 983.384 308.379 985.796 309.008C988.838 309.742 991.985 307.435 991.46 304.813C991.145 302.82 990.307 302.925 971.847 308.274Z" fill="black" fill-opacity="0.9"/>
<path d="M1025.13 308.588C1021.88 309.113 1013.7 310.896 1006.77 312.679C999.956 314.357 991.67 316.035 988.524 316.455C982.335 317.294 978.14 318.972 976.042 321.594C974.784 323.062 975.098 323.272 978.769 323.272C981.077 323.272 990.936 321.804 1000.69 319.916C1016.21 316.979 1020.62 316.56 1036.25 316.56C1051.98 316.56 1054.81 316.769 1060.16 318.762C1066.03 321.07 1066.14 321.07 1066.14 318.972C1066.14 317.818 1065.3 316.665 1064.35 316.245C1063.31 315.93 1059.22 314.042 1055.13 312.05C1049.15 309.218 1046.21 308.484 1039.39 308.064C1034.78 307.854 1028.38 308.064 1025.13 308.588Z" fill="black" fill-opacity="0.9"/>
<path d="M1022.92 322.223C1021.35 322.643 1017.47 324.531 1014.43 326.314C1008.24 329.88 1005.1 330.195 997.019 328.307C991.985 327.153 991.46 327.258 989.153 329.46C987.265 331.243 985.691 331.663 982.65 331.453C978.874 331.139 978.559 331.348 978.244 334.18L977.825 337.222L983.804 336.487C987.16 336.173 1000.48 333.655 1013.59 331.139C1046.31 324.636 1048.1 324.426 1052.08 327.782C1053.87 329.355 1057.22 330.824 1059.63 331.243C1064.04 331.978 1069.28 331.139 1069.28 329.775C1069.28 328.516 1061.73 324.636 1055.75 322.853C1049.57 321.07 1028.17 320.65 1022.92 322.223Z" fill="black" fill-opacity="0.9"/>
<path d="M960.415 325.894C936.291 332.082 903.148 353.269 881.857 376.133C877.766 380.434 874.515 383.056 873.047 383.056C871.788 383.056 868.641 385.364 865.495 388.51C862.453 391.551 857.733 395.747 854.797 397.74C851.965 399.732 848.609 403.089 847.455 405.187C845.672 408.438 845.043 408.857 843.469 407.808C841.896 406.865 841.162 407.179 839.064 409.486C836.337 412.633 831.932 423.436 832.456 425.744C832.666 426.688 836.652 423.541 842.735 417.667C853.853 406.76 866.858 396.166 880.388 386.727C887.31 381.797 890.038 379.175 892.24 375.189C893.814 372.357 896.645 368.687 898.533 367.114C905.246 361.45 926.327 348.654 945.836 338.375C962.303 329.67 972.896 323.272 970.693 323.377C970.378 323.377 965.764 324.531 960.415 325.894Z" fill="black" fill-opacity="0.9"/>
<path d="M1024.18 334.809C1024.18 336.593 1029.22 341.102 1032.89 342.676C1038.45 344.983 1046.84 345.718 1050.3 344.249C1053.13 343.095 1053.76 343.305 1057.01 345.718C1062.78 350.123 1085.96 358.304 1087.74 356.52C1089 355.262 1085.86 351.591 1083.44 351.591C1081.45 351.591 1080.72 350.857 1079.98 348.129C1079.14 344.878 1078.72 344.668 1064.77 340.369C1056.91 337.956 1047.57 335.439 1043.9 334.809C1035.2 333.446 1024.18 333.446 1024.18 334.809Z" fill="black" fill-opacity="0.9"/>
<path d="M956.534 337.746C949.821 340.054 944.262 343.305 932.096 352.115C926.642 355.996 918.146 361.45 913.217 364.387C908.183 367.218 902.099 371.204 899.687 373.197C895.597 376.553 890.248 383.685 891.192 384.629C892.24 385.783 903.148 379.385 914.056 371.204C926.118 362.079 944.787 351.59 957.163 346.976C962.932 344.878 963.981 344.039 964.61 341.207C965.449 338.166 965.869 337.956 970.169 337.956C972.686 337.956 975.098 337.431 975.413 336.907C976.462 335.124 962.197 335.753 956.534 337.746Z" fill="black" fill-opacity="0.9"/>
<path d="M1004.26 340.473C1002.79 341.417 998.907 342.151 995.341 342.151C987.998 342.151 986.74 342.78 985.481 346.976L984.643 350.123L1000.48 349.703C1015.79 349.283 1024.18 348.235 1024.18 346.451C1024.18 346.032 1022.82 344.354 1021.04 342.676C1017.26 339.11 1008.56 337.956 1004.26 340.473Z" fill="black" fill-opacity="0.9"/>
<path d="M1025.23 347.605C1025.23 350.752 1026.81 353.059 1028.17 352.22C1028.8 351.801 1030.9 352.955 1032.89 354.632C1035.62 357.045 1039.29 358.513 1049.36 361.03C1064.77 364.911 1068.55 366.379 1073.79 370.575C1076.84 373.092 1078.41 373.616 1080.72 373.092C1083.02 372.568 1084.39 373.092 1086.9 375.189C1088.58 376.658 1090.47 377.812 1091.1 377.812C1092.88 377.812 1093.51 374.455 1092.15 372.778C1089.42 369.526 1075.26 361.03 1067.4 357.989C1058.48 354.632 1028.69 345.297 1026.6 345.297C1025.86 345.297 1025.23 346.347 1025.23 347.605Z" fill="black" fill-opacity="0.9"/>
<path d="M973.84 348.444C953.178 352.744 931.362 364.177 908.498 382.951C899.687 390.188 897.275 391.551 897.275 389.349C897.275 387.881 892.765 387.985 891.192 389.559C890.457 390.293 889.933 391.866 889.933 393.125C889.933 395.956 888.254 397.32 887.416 395.118C886.577 392.81 883.22 393.23 880.913 395.747C879.864 397.006 873.466 402.355 866.858 407.704C854.272 417.773 843.889 428.261 841.162 433.505C839.798 436.023 839.064 436.442 836.967 435.917C834.869 435.393 834.03 435.917 832.247 438.959C830.988 440.952 829.415 442.945 828.576 443.26C827.737 443.574 826.478 445.777 825.849 448.189C824.8 451.545 823.751 452.908 821.024 454.062C817.039 455.636 815.465 458.363 817.668 459.726C821.549 462.139 828.995 455.321 831.198 447.455C832.561 442.839 833.715 442.42 834.554 446.301C834.764 447.874 837.176 446.301 846.196 438.959C852.489 433.925 858.468 429.309 859.517 428.786C860.565 428.156 862.244 426.268 863.292 424.59C868.641 415.36 877.137 408.648 896.75 397.74C904.302 393.545 915.315 386.412 921.398 381.902C935.767 371.309 943.424 366.694 949.717 365.121C953.178 364.282 955.171 363.023 956.115 361.24C957.898 357.989 962.932 355.472 966.079 356.206C967.547 356.625 969.645 356.206 971.008 355.366C972.266 354.528 975.098 353.478 977.196 353.164C981.391 352.325 983.699 350.437 983.07 348.129C982.86 346.871 981.391 346.871 973.84 348.444Z" fill="black" fill-opacity="0.9"/>
<path d="M988.838 356.206C981.497 357.884 979.084 359.038 973.525 363.443C970.378 365.855 969.225 366.275 968.596 365.226C967.232 363.128 958.842 364.597 951.499 368.267C947.934 370.05 939.333 375.819 932.411 381.063C925.383 386.412 915.944 392.495 910.909 394.803C900.946 399.628 890.457 407.494 874.2 422.387C868.117 428.051 861.614 433.82 859.726 435.183C857.419 437.071 855.95 439.378 855.216 442.525C853.853 447.769 852.594 449.028 851.65 445.986C850.706 442.945 849.028 443.364 849.028 446.721C849.028 450.706 847.979 454.377 846.826 454.377C846.301 454.377 845.882 453.223 845.882 451.755C845.882 450.286 845.462 449.132 844.833 449.132C844.308 449.132 843.784 449.867 843.784 450.811C843.784 451.755 842.315 453.014 840.637 453.643C837.596 454.796 837.386 455.111 838.015 458.782C838.749 462.768 838.749 462.768 835.498 462.139C832.876 461.614 831.722 462.033 829.1 464.656C826.583 467.173 825.954 468.746 825.954 472.207C825.954 476.298 826.059 476.507 828.785 476.193C831.408 475.878 831.722 475.459 831.617 471.893C831.512 467.907 832.876 466.963 835.183 469.27C836.232 470.32 838.959 468.117 848.294 458.257C855.216 451.02 861.929 444.937 864.656 443.574C868.012 441.791 869.69 440.218 870.529 437.596C871.473 434.764 875.249 431.512 891.086 419.975C901.68 412.214 916.993 400.572 925.069 394.068C941.641 380.853 946.675 377.287 954.96 373.092C959.89 370.575 961.044 370.365 963.876 371.414C967.442 372.672 972.581 371.624 993.243 365.226C999.536 363.338 1005.41 362.079 1007.93 362.289C1011.6 362.603 1012.12 362.289 1012.44 360.296C1012.75 358.513 1012.12 357.569 1010.23 356.94C1005.41 355.052 995.446 354.737 988.838 356.206Z" fill="black" fill-opacity="0.9"/>
<path d="M1019.46 355.576C1015.58 356.416 1013.7 358.828 1014.95 361.555C1015.9 363.653 1017.05 363.967 1024.29 364.597C1031 365.226 1033.2 365.855 1035.72 367.952C1039.29 370.994 1042.43 370.89 1042.85 367.848C1043.38 363.967 1025.23 354.422 1019.46 355.576Z" fill="black" fill-opacity="0.9"/>
<path d="M1049.88 366.274C1049.15 367.533 1050.09 369.421 1051.56 369.421C1052.82 369.421 1052.82 366.589 1051.56 365.75C1051.03 365.435 1050.3 365.645 1049.88 366.274Z" fill="black" fill-opacity="0.9"/>
<path d="M1056.49 370.68C1056.17 374.036 1056.07 374.141 1051.98 373.826C1046.21 373.407 1036.56 371.728 1028.07 369.736C1018.1 367.428 1003.94 368.372 989.048 372.568C982.755 374.245 970.903 377.392 962.722 379.28C942.585 384.21 930.838 389.769 927.586 395.956C926.537 397.844 926.747 397.844 929.999 397.215C931.887 396.796 938.284 394.803 944.158 392.915C951.605 390.398 956.744 389.349 961.254 389.349C967.127 389.349 967.967 389.034 970.379 386.202C972.057 384.21 973.945 383.056 975.728 383.056C977.196 383.056 985.482 381.588 994.188 379.805C1014.33 375.714 1022.51 375.504 1030.79 379.28C1037.61 382.322 1040.76 382.636 1043.59 380.538C1045.27 379.28 1046.11 379.594 1050.2 382.426C1054.18 385.258 1055.65 385.678 1061.52 385.678C1065.19 385.678 1068.24 385.993 1068.24 386.412C1068.24 388.09 1073.48 390.503 1079.67 391.551C1085.02 392.495 1087.43 393.649 1092.57 397.844C1098.34 402.459 1103.9 404.557 1103.9 402.04C1103.9 400.361 1087.53 385.678 1081.56 382.217C1078.3 380.224 1072.54 377.602 1068.55 376.343C1062.57 374.351 1061.21 373.407 1059.95 370.68C1057.96 366.379 1056.91 366.485 1056.49 370.68Z" fill="black" fill-opacity="0.9"/>
<path d="M1003.73 387.146C997.963 389.769 997.124 389.978 995.131 388.615C993.033 387.146 992.3 387.252 987.894 389.769C984.958 391.447 981.391 392.495 978.874 392.495C974.469 392.495 958.946 397.53 958.213 399.103C957.163 401.62 951.08 407.494 947.514 409.382C945.206 410.536 938.389 413.053 932.201 415.046C918.671 419.451 910.386 424.8 896.855 437.596C888.465 445.567 858.468 478.605 858.468 479.968C858.468 480.178 860.251 479.968 862.348 479.339C868.641 477.661 874.62 472.627 886.472 459.307C893.709 451.23 900.841 444.413 907.134 439.798C918.986 430.988 949.822 412.424 952.549 412.424C953.597 412.424 957.583 410.745 961.464 408.753C965.239 406.655 972.057 404.137 976.462 402.984C980.867 401.83 987.265 399.208 990.726 397.11C996.809 393.335 997.019 393.23 1005.3 393.859C1010.02 394.174 1014.33 394.908 1015.06 395.433C1015.79 396.062 1020.09 396.481 1024.71 396.586C1031.21 396.586 1035.72 397.425 1045.16 400.362C1051.77 402.355 1059.42 404.033 1062.05 404.033C1065.09 404.033 1067.4 404.662 1068.24 405.606C1070.02 407.809 1078.3 412.424 1080.4 412.424C1081.35 412.424 1084.91 414.312 1088.37 416.619C1091.83 418.926 1095.51 420.814 1096.45 420.814C1097.39 420.814 1099.07 422.178 1100.01 423.856C1102.01 427.317 1105.57 428.995 1107.36 427.212C1109.25 425.324 1106.62 421.549 1098.55 414.416C1094.35 410.745 1088.58 405.291 1085.75 402.46C1082.92 399.523 1080.82 398.054 1081.24 398.998C1081.56 400.047 1082.19 401.726 1082.6 402.67C1083.23 404.452 1083.13 404.452 1081.14 402.67C1079.98 401.726 1078.51 400.886 1077.88 400.886C1077.26 400.886 1075.37 399.732 1073.69 398.264C1071.91 396.691 1068.13 395.223 1064.88 394.593C1061.84 393.964 1054.81 392.181 1049.36 390.503C1032.36 385.258 1026.81 384.105 1018.31 384.105C1011.39 384.105 1008.98 384.629 1003.73 387.146Z" fill="black" fill-opacity="0.9"/>
<path d="M943.633 397.215C925.489 400.572 919.51 403.299 907.658 413.472C903.043 417.458 895.911 422.493 891.925 424.59C881.017 430.359 864.551 449.028 853.957 467.697C850.601 473.571 849.028 475.354 847.455 475.144C845.986 474.934 845.252 475.563 845.042 477.137C844.413 481.227 847.979 479.968 857.209 472.941C860.355 470.634 869.166 461.299 876.822 452.384C890.562 436.232 898.638 428.786 909.861 421.653C919.719 415.36 934.508 408.438 941.221 406.865C948.038 405.291 951.08 403.193 953.492 398.579C955.275 395.118 955.38 395.118 943.633 397.215Z" fill="black" fill-opacity="0.9"/>
<path d="M867.173 401.411C866.858 402.355 866.858 403.299 867.173 403.614C868.117 404.557 870.005 402.984 870.005 401.306C870.005 399.313 868.012 399.418 867.173 401.411Z" fill="black" fill-opacity="0.9"/>
<path d="M991.145 404.557C943.214 419.555 918.881 434.449 877.347 473.99C868.222 482.696 865.495 484.794 862.873 484.794C860.146 484.794 859.517 485.423 856.999 490.981C855.531 494.338 854.272 497.799 854.272 498.533C854.272 499.582 853.853 499.477 852.594 498.218C851.021 496.75 850.182 497.17 841.896 503.043C836.127 507.134 831.932 511.014 830.254 513.846C828.786 516.259 826.793 518.566 825.849 518.88C825.01 519.195 823.227 521.293 821.863 523.6C820.605 525.907 818.717 528.32 817.773 529.054C816.619 529.998 815.885 532.2 815.675 535.347C815.57 538.179 815.675 540.381 815.99 540.381C816.199 540.381 819.87 537.655 823.961 534.298C828.89 530.418 832.247 526.851 833.4 524.125C834.449 521.817 835.393 520.558 835.393 521.188C835.393 521.922 835.708 522.552 836.232 522.552C836.652 522.552 842.84 516.783 850.077 509.651C857.314 502.623 871.473 489.513 881.542 480.703C891.611 471.787 905.351 459.516 911.959 453.433C920.244 445.671 925.593 441.686 928.844 440.428C931.572 439.378 939.333 435.183 946.15 431.093C969.54 417.143 980.133 413.682 1003.21 412.738C1021.67 412.004 1037.5 414.626 1059.22 421.968C1077.67 428.156 1080.61 429.624 1081.77 432.666C1082.39 434.239 1083.55 434.973 1085.86 435.079C1087.95 435.183 1091.2 436.966 1095.19 440.113C1100.96 444.623 1105.15 446.091 1106.41 444.098C1107.36 442.63 1096.66 429.415 1091.41 425.639C1084.6 420.605 1079.56 418.611 1073.37 418.507C1068.45 418.402 1068.24 418.192 1068.24 415.465C1068.24 412.633 1068.03 412.528 1064.88 413.158C1062.99 413.577 1060.26 413.892 1058.8 413.997C1056.49 413.997 1056.17 413.577 1056.17 410.011C1056.17 407.913 1055.86 406.131 1055.44 406.131C1054.92 406.131 1054.6 406.76 1054.6 407.598C1054.6 410.64 1052.29 410.43 1042.75 406.445C1033.73 402.669 1032.36 402.459 1022.09 402.355C1015.69 402.355 1010.13 401.83 1008.77 401.096C1006.04 399.523 1008.45 399.103 991.145 404.557Z" fill="black" fill-opacity="0.9"/>
<path d="M857.314 409.172C853.958 412.633 853.014 415.78 856.16 413.368C859.936 410.536 862.663 407.809 862.663 406.969C862.663 405.291 860.356 406.235 857.314 409.172Z" fill="black" fill-opacity="0.9"/>
<path d="M1008.98 418.402C1006.67 418.611 997.438 419.765 988.628 420.919C973.42 422.912 972.162 423.227 968.701 426.268C964.61 429.939 961.044 431.512 953.178 433.4C946.046 434.973 939.123 439.274 925.069 450.601C918.776 455.636 910.909 461.195 907.763 462.768C904.197 464.55 900.002 468.012 896.645 471.893C888.254 481.542 874.305 495.282 852.804 515.209L833.086 533.565L833.715 539.543C834.344 546.151 832.771 548.877 831.617 543.004C831.303 541.011 830.673 539.333 830.254 539.333C829.1 539.438 826.478 541.955 823.017 546.36C821.024 548.983 818.612 550.87 817.458 550.87C815.675 550.87 815.465 551.394 816.095 554.436C816.934 559.156 815.675 561.359 813.787 558.737C812.424 556.953 812.214 557.058 810.746 560.625C808.858 565.134 808.648 574.574 810.431 575.622C811.899 576.566 816.619 570.903 816.304 568.7C816.095 567.862 814.941 567.022 813.577 566.812C808.648 566.078 811.899 563.456 817.668 563.456C822.388 563.456 825.429 559.681 826.373 552.968C827.107 548.143 827.317 547.618 828.156 549.506C828.576 550.87 829.625 551.919 830.464 551.919C831.198 551.919 835.079 547.829 839.064 542.689C843.05 537.655 852.909 526.851 860.985 518.671C871.788 507.449 875.354 503.253 874.934 501.785C874.515 500.106 875.354 499.477 878.815 498.428C882.276 497.484 885.737 494.442 896.226 483.64C903.463 476.193 910.175 470.11 911.119 470.11C913.007 470.11 919.405 464.341 923.391 459.097C924.859 457.104 925.908 456.37 926.223 457.209C927.167 459.307 928.425 458.887 934.194 454.272C941.221 448.818 948.982 444.833 965.449 438.644C972.686 435.917 981.497 432.247 984.852 430.674C990.936 427.736 991.566 427.632 1007.93 427.632H1024.71L1040.97 433.715C1051.24 437.596 1059.95 440.113 1064.56 440.742C1074.32 441.896 1074.63 442.001 1080.19 449.133C1084.91 455.111 1089.21 457.734 1098.86 460.145C1102.43 461.089 1104.21 462.768 1107.36 467.697C1110.19 472.102 1112.29 473.466 1112.29 470.844C1112.29 467.697 1103.9 455.636 1097.5 449.762C1088.48 441.372 1078.41 436.442 1061.21 431.722C1060.47 431.512 1059.84 430.253 1059.84 428.786C1059.84 427.317 1059.42 425.848 1058.8 425.534C1058.27 425.219 1057.75 425.639 1057.75 426.478C1057.75 429.31 1055.86 429.31 1051.24 426.268C1040.86 419.346 1026.81 416.723 1008.98 418.402Z" fill="black" fill-opacity="0.9"/>
<path d="M1006.98 433.191C1004.68 435.812 1003.1 436.232 985.902 438.12C967.232 440.113 963.352 441.476 953.387 449.657C948.773 453.433 941.745 458.153 937.655 460.355C919.72 469.69 898.953 486.261 887.521 500.526C883.64 505.35 879.13 509.86 877.452 510.595C875.774 511.329 873.151 513.636 871.473 515.734C865.39 523.6 861.509 527.586 859.202 528.215C857.524 528.635 855.531 531.571 851.86 538.808C849.133 544.263 846.931 549.506 846.931 550.346C846.931 552.444 845.882 552.338 844.099 550.031C842.735 548.353 842.63 548.353 841.057 550.346C840.218 551.5 838.12 554.646 836.442 557.373C834.24 560.834 832.666 562.407 831.093 562.407C828.995 562.407 828.891 562.722 829.52 567.547C829.939 570.693 829.73 573 829.1 573.42C828.576 573.734 828.052 573.105 828.052 571.952C828.052 569.854 826.268 567.966 825.325 569.015C825.01 569.329 825.115 572.267 825.534 575.622L826.268 581.601L832.037 575.413C835.289 572.057 841.372 565.553 845.567 561.148C850.077 556.429 853.224 552.233 853.224 550.975C853.224 549.506 853.853 548.772 855.321 548.772C856.79 548.772 858.468 547.094 860.566 543.738C862.244 541.011 865.39 536.92 867.593 534.613C869.796 532.306 873.466 527.481 875.774 523.915C878.396 519.929 881.228 516.888 883.326 515.839C885.528 514.79 886.996 513.217 887.416 511.329C887.731 509.756 888.045 508.078 888.15 507.658C888.675 505.665 920.034 479.654 930.313 472.731C948.563 460.565 977.93 446.721 995.342 442.315C1006.56 439.484 1021.67 440.637 1036.25 445.462C1044.43 448.188 1062.99 457.523 1080.82 468.012C1097.29 477.661 1109.98 484.269 1110.82 483.535C1111.03 483.325 1109.98 481.332 1108.51 479.13C1106.83 476.717 1101.38 472.312 1094.04 467.488C1087.53 463.187 1080.93 458.048 1079.35 456.055C1077.47 453.538 1075.16 451.964 1072.33 451.23C1070.02 450.601 1061.42 447.245 1053.34 443.783C1034.99 436.127 1024.18 432.666 1015.58 431.722C1009.71 431.197 1008.77 431.303 1006.98 433.191Z" fill="black" fill-opacity="0.9"/>
<path d="M991.145 449.762C973.001 453.748 955.275 461.824 935.452 475.249C917.517 487.311 909.021 495.282 889.093 518.88C870.948 540.381 869.27 542.165 865.39 544.053C862.348 545.521 856.999 553.807 855.216 559.785C854.272 563.142 853.013 565.03 851.44 565.659C850.181 566.078 847.874 568.491 846.406 570.903C843.888 574.784 843.783 575.308 845.252 576.986C846.196 578.035 846.93 579.398 846.93 580.027C846.93 582.021 849.552 581.496 851.86 578.874C853.013 577.616 855.006 574.678 856.16 572.371C857.313 570.064 859.726 567.127 861.509 565.764C863.292 564.505 865.704 561.463 866.963 558.946C868.222 556.534 872.627 550.975 876.717 546.674C880.808 542.375 887.205 534.298 890.877 528.845C898.218 517.832 901.994 514.056 925.068 494.548C933.774 487.205 942.899 479.339 945.52 476.927C949.506 473.361 951.394 472.417 957.373 471.368C961.358 470.634 968.91 468.117 974.154 465.809C1002.47 453.328 1008.03 452.594 1026.28 458.887C1032.36 460.88 1038.97 462.872 1041.07 463.187C1043.06 463.606 1049.36 466.858 1054.91 470.529C1064.88 477.136 1070.96 480.283 1071.91 479.339C1072.22 479.13 1072.75 477.346 1073.06 475.563C1073.58 472.941 1073.37 472.102 1071.8 471.473C1070.65 470.949 1066.56 468.432 1062.47 465.809C1053.24 459.726 1042.33 454.167 1033.62 451.23C1024.5 448.084 1002.05 447.35 991.145 449.762Z" fill="black" fill-opacity="0.9"/>
<path d="M990.936 461.614C989.048 462.873 987.475 464.236 987.475 464.76C987.475 465.914 993.453 466.753 1001.84 466.858C1007.82 466.858 1013.07 469.061 1014.64 472.102C1015.48 473.675 1017.37 474.095 1023.66 474.515C1030.48 474.934 1032.99 475.773 1041.28 479.864C1053.03 485.737 1063.1 494.338 1083.86 516.153C1092.15 524.964 1099.07 531.886 1099.39 531.571C1100.12 530.837 1094.77 520.768 1088.69 511.539C1081.14 499.897 1075.37 493.813 1069.18 490.772C1066.35 489.303 1062.47 486.261 1060.79 484.164C1053.03 474.41 1045.69 470.949 1017.37 463.712C1000.27 459.411 995.236 458.992 990.936 461.614Z" fill="black" fill-opacity="0.9"/>
<path d="M845.882 466.963C845.043 468.641 845.043 469.061 846.301 469.061C847.979 469.061 849.343 466.229 847.979 465.39C847.455 465.075 846.511 465.809 845.882 466.963Z" fill="black" fill-opacity="0.9"/>
<path d="M972.791 470.634C969.959 472.941 967.652 474.095 966.498 473.781C962.197 472.417 949.507 480.388 934.193 494.128C928.635 499.057 919.09 507.343 913.112 512.483C901.26 522.866 894.967 529.893 889.827 539.123C887.94 542.375 883.955 547.724 881.017 550.975C878.081 554.226 873.361 560.31 870.529 564.61C867.802 568.91 865.39 572.581 865.18 572.791C864.97 573.001 864.131 572.686 863.397 571.952C861.614 570.588 860.146 572.476 856.58 580.552C853.328 587.894 850.182 591.88 846.301 593.453C844.203 594.397 842.735 595.655 842.735 596.809C842.735 599.641 838.854 605.305 836.022 606.668C834.554 607.298 833.295 608.766 833.086 609.919C832.876 611.073 831.407 612.857 829.624 613.801C827.212 615.164 826.373 616.423 825.953 619.674C825.534 622.716 825.219 623.345 824.59 621.876C823.436 618.835 821.443 620.408 820.08 625.443C819.451 628.275 818.402 629.953 817.563 629.743C816.724 629.533 816.514 630.057 817.038 631.316C817.458 632.365 818.087 634.043 818.297 634.987C819.241 638.133 821.758 637.085 823.541 632.889C825.534 627.96 825.534 627.96 827.632 629.638C829.52 631.211 828.995 631.736 835.498 622.401C837.281 619.884 840.323 616.947 842.21 615.689C844.518 614.43 847.035 611.388 849.028 607.612C850.811 604.361 854.377 599.117 856.894 595.97C859.516 592.824 863.607 586.95 866.019 582.859C868.431 578.874 871.998 573.525 873.886 571.008C875.774 568.491 877.347 565.239 877.347 563.771C877.347 562.092 878.71 559.89 881.227 557.583C883.325 555.59 885.422 554.017 885.842 554.017C886.262 554.017 890.981 548.668 896.226 542.165C906.399 529.789 911.644 524.544 916.364 522.027C918.252 520.978 919.825 518.671 921.083 515.209C922.761 510.49 924.545 508.287 924.545 511.014C924.545 513.217 926.642 511.854 933.145 505.455C937.34 501.365 943.004 497.17 948.563 494.233C953.492 491.61 961.253 486.786 965.869 483.43L974.259 477.347L987.475 477.661C999.641 477.871 1000.9 477.766 1005.1 475.354C1010.02 472.522 1010.65 471.158 1007.09 471.158C1005.72 471.158 1000.17 470.214 994.712 469.061C980.447 466.124 978.035 466.229 972.791 470.634Z" fill="black" fill-opacity="0.9"/>
<path d="M820.394 472.837C819.241 474.934 818.507 480.493 819.241 483.115C820.289 487.311 822.807 484.584 822.807 479.13C822.807 474.829 821.443 471.264 820.394 472.837Z" fill="black" fill-opacity="0.9"/>
<path d="M838.644 474.725C837.805 475.669 837.491 476.717 837.91 477.136C838.854 478.08 840.952 475.773 840.427 474.305C840.218 473.466 839.588 473.571 838.644 474.725Z" fill="black" fill-opacity="0.9"/>
<path d="M1072.96 479.759C1072.43 483.01 1073.06 483.954 1083.13 494.442C1094.14 505.875 1097.71 507.972 1101.69 505.77C1104.73 504.197 1104.53 503.463 1100.33 501.155C1098.34 500.106 1093.51 495.282 1089.74 490.457C1082.92 481.856 1077.15 476.403 1074.74 476.403C1074.11 476.403 1073.27 477.976 1072.96 479.759Z" fill="black" fill-opacity="0.9"/>
<path d="M829.205 481.437C827.736 484.164 828.47 485.842 830.253 484.059C830.883 483.43 831.197 482.066 830.988 481.018C830.673 479.234 830.463 479.234 829.205 481.437Z" fill="black" fill-opacity="0.9"/>
<path d="M1010.02 480.178C1008.87 480.388 1002.05 481.018 994.816 481.541C978.769 482.905 974.469 484.164 969.33 489.303C966.393 492.24 964.925 493.079 963.981 492.24C963.037 491.401 960.939 492.764 956.01 497.379C952.339 500.735 948.982 503.358 948.458 503.043C948.038 502.729 945.521 503.462 942.899 504.616C936.816 507.343 910.49 533.774 897.485 550.136C892.45 556.534 884.898 565.868 880.808 570.903C876.612 576.042 873.151 580.447 873.151 580.762C873.151 581.077 871.473 584.853 869.481 589.258C867.487 593.557 865.809 597.858 865.809 598.697C865.809 599.85 865.18 600.06 863.711 599.641C862.243 599.221 861.404 599.536 860.88 600.9C860.565 601.948 858.468 605.2 856.265 608.137C853.957 611.073 851.86 614.849 851.545 616.632C851.126 618.73 849.867 620.303 847.455 621.561C845.462 622.611 840.113 627.645 835.498 632.68C830.883 637.714 825.429 642.643 823.227 643.692C819.451 645.475 819.451 645.58 820.08 650.3C820.395 652.922 821.024 655.335 821.339 655.649C822.912 657.222 827.841 652.503 830.778 646.524C833.086 641.909 834.239 640.336 834.659 641.49C835.078 642.434 836.337 643.168 837.596 643.168C839.693 643.168 839.798 642.748 839.169 638.867C838.644 635.826 838.854 634.777 839.693 635.406C840.847 636.141 851.126 625.967 851.126 624.079C851.126 623.555 851.545 623.345 852.07 623.764C853.853 624.813 859.831 617.681 864.97 608.451C871.054 597.753 872.312 596.18 878.605 591.88C883.534 588.628 886.262 583.594 888.36 574.154C888.779 572.267 890.877 568.595 893.184 565.974C895.387 563.351 897.275 560.31 897.275 559.26C897.275 557.897 898.743 556.429 901.365 555.065C903.987 553.807 908.707 549.087 914.266 542.269C924.754 529.369 931.572 523.496 957.058 505.455C974.889 492.764 976.777 491.716 980.657 491.925C982.964 492.03 988.838 491.401 993.662 490.457C998.488 489.618 1004.26 489.199 1006.35 489.513C1009.82 490.142 1010.34 489.932 1011.07 487.73C1011.7 485.737 1011.91 485.632 1012.33 487.101C1012.96 489.618 1016.32 490.457 1023.87 490.142C1032.05 489.828 1037.08 491.925 1048.52 500.526C1053.13 504.092 1058.17 507.134 1059.74 507.448C1061.84 507.868 1063.41 509.756 1066.35 515.105C1072.12 525.698 1081.97 538.284 1091 546.57C1095.4 550.66 1099.18 553.807 1099.49 553.597C1099.7 553.282 1099.07 550.66 1098.13 547.618C1096.66 543.423 1094.35 540.067 1088.06 533.564C1083.44 528.845 1079.77 524.125 1079.77 523.181C1079.77 519.929 1074.74 513.531 1066.03 505.665C1043.06 485.003 1026.39 477.346 1010.02 480.178Z" fill="black" fill-opacity="0.9"/>
<path d="M1091.83 482.8C1094.25 490.457 1100.43 496.855 1104.63 496.016C1106.52 495.701 1107.04 496.016 1107.04 497.589C1107.04 500.211 1108.93 503.673 1110.4 503.673C1111.97 503.673 1110.61 497.799 1107.99 493.498C1106.73 491.61 1103.16 488.149 1099.81 485.947C1090.79 479.864 1091 479.968 1091.83 482.8Z" fill="black" fill-opacity="0.9"/>
<path d="M812.318 483.429C812.423 484.898 815.465 488.359 816.094 487.73C817.143 486.576 815.36 482.696 813.787 482.696C812.948 482.696 812.318 483.01 812.318 483.429Z" fill="black" fill-opacity="0.9"/>
<path d="M837.701 483.954C836.967 484.688 836.442 486.681 836.442 488.569C836.442 491.401 836.128 491.82 834.449 491.401C833.401 491.087 832.142 491.401 831.827 492.031C831.408 492.66 830.149 493.184 828.891 493.184C827.108 493.184 826.898 493.604 827.527 495.492C827.947 496.855 828.261 498.953 828.261 500.211C828.261 501.575 828.576 502.623 828.995 502.623C830.149 502.623 833.82 498.324 835.393 495.386C836.337 493.604 836.862 493.289 837.491 494.233C838.12 495.177 838.75 495.177 840.638 494.233C842.63 493.184 842.84 492.45 842.211 489.723C841.791 487.835 841.372 485.527 841.372 484.479C841.267 482.381 839.484 482.171 837.701 483.954Z" fill="black" fill-opacity="0.9"/>
<path d="M845.148 483.85C843.47 485.527 843.365 488.989 844.833 488.989C846.197 488.989 847.245 486.471 846.721 484.269C846.511 482.906 846.197 482.8 845.148 483.85Z" fill="black" fill-opacity="0.9"/>
<path d="M850.916 488.149C847.56 491.925 847.245 493.184 849.552 493.184C851.44 493.184 854.587 488.569 854.062 486.471C853.853 485.213 853.014 485.738 850.916 488.149Z" fill="black" fill-opacity="0.9"/>
<path d="M984.853 496.121C966.917 502.729 966.288 503.043 963.771 506.924C960.52 512.063 955.695 515.944 944.787 522.027C934.089 527.901 926.852 534.298 923.391 540.906C921.922 543.738 919.72 546.045 917.937 546.78C916.259 547.514 912.483 550.87 909.651 554.436C906.714 557.897 902.309 562.302 899.897 564.086C895.387 567.547 892.66 572.371 893.289 575.518C893.814 578.35 904.827 569.644 922.447 552.444C936.921 538.389 947.619 529.474 954.331 526.013C956.744 524.754 957.793 524.649 959.786 525.698C962.618 527.271 964.61 526.222 971.008 520.139C974.469 516.888 975.308 516.573 979.818 516.993C982.65 517.307 987.999 516.783 991.88 515.839C998.907 514.161 999.012 514.161 1002.79 516.783C1007.4 519.929 1013.07 521.083 1016.42 519.51C1019.99 517.937 1019.57 514.79 1015.58 511.748C1008.45 506.504 1002.37 505.77 987.475 508.392C982.545 509.231 975.938 509.966 972.791 509.966C967.338 509.966 967.232 509.86 969.435 508.287C976.986 503.043 996.809 499.897 1003 503.043C1006.98 505.14 1008.87 505.14 1010.86 503.253C1012.23 501.889 1012.75 502.204 1015.69 505.77C1017.68 508.182 1021.67 511.119 1025.76 513.217C1029.53 515 1032.58 517.203 1032.58 518.041C1032.58 518.985 1033.73 520.978 1035.2 522.761C1036.67 524.44 1037.82 526.432 1037.82 527.271C1037.82 528.005 1040.23 530.208 1043.17 532.096C1050.41 536.711 1056.91 544.787 1067.19 562.092C1072.01 570.064 1078.3 579.818 1081.35 583.909C1084.39 587.894 1087.53 593.348 1088.27 595.865C1089.11 598.802 1091.41 602.263 1094.14 604.99C1097.39 608.242 1100.85 614.115 1106.52 625.967C1110.92 634.987 1114.7 642.119 1115.01 641.805C1115.96 640.861 1113.23 628.169 1111.13 623.24C1109.98 620.618 1107.78 617.156 1106.2 615.583C1104.11 613.381 1103.48 611.807 1103.69 609.185C1104.11 605.305 1102.53 603.522 1100.33 605.305C1099.18 606.249 1098.76 605.829 1098.34 603.102C1096.76 594.082 1095.92 592.09 1091.2 585.901C1088.37 582.125 1080.72 571.008 1074.11 561.044C1067.5 551.185 1057.43 537.55 1051.77 530.837C1046 524.125 1040.23 517.203 1038.97 515.419C1037.29 513.007 1035.83 512.063 1033.73 512.063C1031.42 512.063 1029.22 510.385 1023.76 504.617C1018.31 498.743 1016.32 497.274 1014.54 497.694C1013.07 498.113 1011.81 497.589 1010.55 496.016C1008.98 494.128 1007.4 493.708 1001.01 493.394C994.502 493.184 991.88 493.604 984.853 496.121Z" fill="black" fill-opacity="0.9"/>
<path d="M1022.19 495.386C1019.25 496.54 1019.36 496.75 1027.23 501.994C1030.27 504.092 1034.04 505.77 1035.62 505.77C1037.71 505.77 1038.87 506.714 1040.76 509.966C1042.01 512.273 1045.79 516.049 1049.15 518.461C1052.4 520.769 1056.28 524.125 1057.75 525.698C1059.95 528.216 1060.68 528.425 1062.15 527.376C1066.14 524.44 1059.95 514.161 1054.18 514.161C1052.82 514.161 1050.82 512.588 1049.04 509.966C1041.91 499.897 1028.69 492.765 1022.19 495.386Z" fill="black" fill-opacity="0.9"/>
<path d="M820.185 500.106C819.87 502.729 818.821 506.819 817.982 509.126C817.143 511.539 816.619 513.636 816.828 513.741C817.038 513.951 818.507 513.531 820.08 512.797C822.282 511.854 822.702 511.014 822.282 509.126C821.863 507.658 822.492 505.98 823.856 504.511C825.219 502.938 825.639 501.889 824.905 501.155C824.38 500.631 823.856 499.057 823.856 497.694C823.856 493.184 821.024 495.072 820.185 500.106Z" fill="black" fill-opacity="0.9"/>
<path d="M814.102 503.463C810.745 507.134 808.962 515.419 811.27 516.783C812.423 517.517 813.262 515.524 815.885 507.028C817.458 501.365 816.933 500.212 814.102 503.463Z" fill="black" fill-opacity="0.9"/>
<path d="M1096.55 510.91C1096.55 514.265 1117.53 535.662 1118.37 533.04C1118.58 532.515 1117.01 528.739 1114.91 524.649C1110.19 515.839 1104.21 509.966 1099.7 509.966C1097.92 509.966 1096.55 510.385 1096.55 510.91Z" fill="black" fill-opacity="0.9"/>
<path d="M1021.25 521.188C1021.46 522.971 1022.19 524.125 1023.14 524.125C1024.08 524.125 1024.81 522.971 1025.02 521.188C1025.34 518.881 1024.92 518.356 1023.14 518.356C1021.35 518.356 1020.93 518.881 1021.25 521.188Z" fill="black" fill-opacity="0.9"/>
<path d="M981.182 521.922C979.084 522.761 974.889 524.649 971.742 526.222C968.596 527.795 963.247 529.789 959.786 530.627C951.814 532.411 949.821 533.879 932.935 550.241L918.775 563.98L917.727 571.532C917.098 575.728 916.993 579.189 917.412 579.189C917.832 579.189 920.349 576.462 923.181 573.211C933.879 560.519 940.696 554.226 944.997 553.073C947.933 552.338 949.821 550.975 951.185 548.668C953.597 544.682 958.736 541.431 962.827 541.431C965.239 541.431 967.127 540.277 970.064 537.34C984.223 522.866 1007.82 525.907 1038.03 546.045C1046 551.29 1047.05 552.548 1050.2 558.841C1052.08 562.617 1058.59 573.945 1064.56 584.013C1078.51 607.298 1078.83 607.822 1078.62 612.437C1078.51 614.639 1079.67 619.674 1081.14 623.764C1085.02 634.462 1089.21 649.042 1090.37 656.069C1091.52 663.306 1092.88 666.242 1095.19 666.242C1098.23 666.242 1096.03 655.02 1090.16 639.811C1085.54 627.96 1084.6 624.499 1084.18 616.947C1083.76 608.137 1083.65 607.822 1073.37 587.579C1058.27 557.478 1049.88 545.207 1038.03 535.976C1032.36 531.467 1031.74 531.152 1030.16 532.725C1028.59 534.298 1028.17 533.984 1023.97 529.893C1019.67 525.593 1019.15 525.278 1013.17 525.174C1009.29 524.964 1005.1 524.125 1002.16 522.761C996.704 520.139 987.055 519.825 981.182 521.922Z" fill="black" fill-opacity="0.9"/>
<path d="M1026.28 522.866C1026.28 525.173 1029.11 528.845 1030.79 528.845C1032.05 528.845 1031.63 523.076 1030.27 521.712C1028.27 519.72 1026.28 520.244 1026.28 522.866Z" fill="black" fill-opacity="0.9"/>
<path d="M1063.72 527.481C1061.73 529.369 1063.1 534.928 1066.24 537.864C1068.03 539.543 1070.65 542.899 1072.12 545.311C1073.48 547.828 1076.1 550.975 1077.78 552.338C1079.46 553.807 1080.82 555.695 1080.82 556.639C1080.82 560.624 1084.91 566.288 1089.95 568.91C1094.35 571.323 1095.29 572.476 1096.97 577.301C1100.43 587.055 1104.84 594.922 1107.57 596.18C1111.24 597.858 1111.76 596.704 1109.87 591.565C1106.83 583.699 1099.18 571.637 1085.86 553.911C1078.83 544.472 1071.8 534.403 1070.33 531.677C1067.92 527.166 1065.51 525.593 1063.72 527.481Z" fill="black" fill-opacity="0.9"/>
<path d="M809.907 533.774C809.487 534.088 809.172 535.452 809.172 536.816C809.172 538.599 809.592 539.018 811.27 538.599C812.634 538.284 813.368 537.13 813.368 535.557C813.368 533.144 811.375 532.2 809.907 533.774Z" fill="black" fill-opacity="0.9"/>
<path d="M980.343 533.774C977.826 534.298 970.693 540.487 970.693 542.165C970.693 542.794 973.106 543.004 976.463 542.689C979.924 542.375 985.902 543.004 991.251 544.053C998.593 545.626 1000.9 545.73 1003.73 544.787C1008.03 543.109 1010.34 543.948 1020.62 550.975C1025.02 553.911 1030.06 556.953 1032.05 557.793C1034.57 558.841 1036.46 560.939 1039.18 565.764C1041.18 569.435 1046.63 578.874 1051.24 586.845C1055.86 594.816 1061.42 606.039 1063.62 611.807C1066.56 619.464 1068.03 622.191 1069.39 622.191C1070.86 622.191 1071.8 624.499 1074 634.462C1080.82 664.249 1083.13 673.584 1085.75 681.451C1088.58 690.155 1092.99 699.805 1094.14 699.805C1095.51 699.805 1093.2 689.526 1090.26 683.129C1088.37 678.723 1086.28 670.857 1084.49 661.418C1080.72 639.917 1075.26 622.191 1072.54 622.191C1072.01 622.191 1071.38 619.674 1071.17 616.632C1070.44 608.975 1061.21 588.733 1058.06 587.999C1056.7 587.579 1055.86 586.95 1056.17 586.531C1057.22 584.747 1053.55 575.832 1048.94 568.805C1042.85 559.681 1030.48 547.304 1022.82 542.689C1019.67 540.801 1014.22 538.179 1010.65 537.026C1004.78 535.032 1003.63 534.928 998.593 536.186C993.244 537.445 992.719 537.34 990.097 535.242C987.265 533.144 985.377 532.83 980.343 533.774Z" fill="black" fill-opacity="0.9"/>
<path d="M1100.75 534.928C1100.75 537.864 1103.79 541.431 1106.41 541.431C1108.51 541.431 1108.93 542.06 1109.45 545.836C1109.87 548.773 1111.03 551.185 1113.23 553.388C1117.01 557.164 1117.32 556.114 1114.91 547.829C1112.29 539.228 1100.75 528.635 1100.75 534.928Z" fill="black" fill-opacity="0.9"/>
<path d="M809.487 544.157C807.914 546.57 807.599 546.674 806.445 545.207C805.397 543.633 805.187 543.738 804.557 546.045C803.928 548.772 804.662 551.919 806.026 551.919C807.599 551.919 812.319 545.521 812.319 543.423C812.319 540.696 811.69 540.906 809.487 544.157Z" fill="black" fill-opacity="0.9"/>
<path d="M1003.21 548.877C1003.21 551.29 1014.64 561.569 1021.56 565.239C1027.96 568.806 1028.9 569.644 1029.74 573.105C1030.27 575.308 1032.47 579.084 1034.78 581.601C1041.38 589.258 1052.29 617.786 1057.33 641.07C1058.27 645.37 1059.32 656.908 1059.74 666.767C1060.58 684.387 1060.58 684.702 1064.77 695.085C1068.23 703.476 1069.7 709.559 1072.33 725.187C1075.47 743.332 1078.09 754.344 1079.46 754.344C1079.88 754.344 1079.77 749.73 1079.46 743.961C1078.72 733.577 1076.42 720.991 1072.43 705.679C1071.28 701.064 1070.33 695.715 1070.33 693.617C1070.23 691.52 1069.39 687.953 1068.23 685.646C1066.98 683.024 1066.14 679.143 1066.14 675.158C1066.14 671.172 1065.3 667.186 1063.94 664.145C1062.47 660.893 1061.94 658.271 1062.36 655.649C1062.78 653.341 1062.36 650.3 1061.52 648.202C1060.26 645.266 1060.16 643.063 1061 637.085C1062.26 627.96 1061 621.772 1054.81 607.927C1052.5 602.788 1050.09 596.704 1049.36 594.397C1045.79 583.174 1035.72 569.225 1023.45 558.737C1014.32 550.87 1003.21 545.521 1003.21 548.877Z" fill="black" fill-opacity="0.9"/>
<path d="M957.583 551.919C944.997 556.953 928.32 573.525 918.566 590.517C915.839 595.446 911.329 601.844 908.706 604.78C906.085 607.717 901.155 613.695 897.694 617.996C894.338 622.296 889.723 627.645 887.52 629.848C883.849 633.414 883.64 634.043 884.269 637.714C885.108 642.539 885.528 643.168 887.415 643.168C888.464 643.168 888.883 641.699 888.883 637.085L888.989 631.107L890.667 634.253L892.344 637.294L894.023 634.777C894.967 633.309 899.267 627.75 903.672 622.191C908.077 616.737 912.902 610.025 914.475 607.402C916.049 604.676 918.146 602.263 919.3 601.949C920.348 601.634 922.866 599.221 924.754 596.389C926.641 593.663 929.788 589.363 931.676 586.845C933.669 584.118 935.032 581.077 935.032 579.189C935.032 576.357 935.242 576.147 938.074 576.672C942.374 577.616 944.682 575.937 949.611 568.281C954.226 561.149 957.163 559.261 959.68 561.359C960.938 562.407 961.359 562.303 961.882 560.729C963.561 555.485 964.714 552.968 965.449 552.968C967.232 552.968 967.442 558.212 965.868 561.883C965.029 563.98 964.505 565.974 964.714 566.183C964.924 566.393 966.602 565.974 968.386 565.344C971.847 563.98 972.686 561.673 970.588 559.575C969.854 558.841 969.644 557.583 970.063 556.639C970.588 555.276 971.532 554.961 974.259 555.485C976.986 556.009 977.93 555.799 978.454 554.436C979.608 551.5 977.406 550.45 969.854 550.136C964.714 549.926 961.359 550.346 957.583 551.919Z" fill="black" fill-opacity="0.9"/>
<path d="M980.133 553.387C980.133 557.583 982.335 558.841 987.894 557.793C989.992 557.373 991.985 557.687 993.244 558.631C995.236 560.1 995.341 560.204 993.454 563.351C991.251 567.022 991.88 571.113 994.607 570.588C995.551 570.379 996.705 568.7 997.334 566.812C997.859 565.03 998.697 563.456 999.222 563.456C999.747 563.456 1003.42 566.497 1007.4 570.273C1011.39 574.049 1015.37 577.091 1016.11 577.091C1016.95 577.091 1019.57 581.077 1021.88 586.006C1024.29 590.936 1029.01 599.641 1032.57 605.305C1036.04 610.969 1038.87 616.737 1038.87 618.206C1038.87 619.674 1040.13 625.128 1041.6 630.162C1043.06 635.302 1044.95 642.119 1045.89 645.266C1047.05 649.565 1047.68 660.474 1048.31 688.058C1049.15 723.719 1049.15 725.292 1047.15 728.648C1045.06 732.214 1041.49 747.947 1042.64 748.995C1044.01 750.359 1047.15 744.59 1048.83 737.563C1049.88 733.158 1051.45 729.592 1052.61 728.858C1054.29 727.599 1054.6 725.292 1055.23 709.664C1057.54 649.461 1043.59 595.76 1018.73 569.12C1012.75 562.722 1009.4 561.044 1007.82 563.561C1007.51 564.19 1005.83 562.407 1004.15 559.47C1000.38 552.863 994.712 549.821 986.111 549.821H980.133V553.387Z" fill="black" fill-opacity="0.9"/>
<path d="M1100.96 555.276C1099.18 557.058 1099.39 557.793 1102.22 560.625C1103.69 562.092 1106.2 565.974 1107.88 569.329C1109.56 572.791 1111.97 576.462 1113.23 577.51C1115.43 579.504 1115.43 579.504 1115.43 576.462C1115.43 573.001 1113.34 568.91 1108.41 562.407C1106.52 559.89 1104.94 557.058 1104.94 555.905C1104.94 553.807 1102.85 553.388 1100.96 555.276Z" fill="black" fill-opacity="0.9"/>
<path d="M974.888 561.883C972.895 564.295 974.468 566.812 977.72 566.393C980.028 566.183 980.761 565.449 980.971 563.142C981.286 560.729 980.971 560.31 978.769 560.31C977.3 560.31 975.622 561.044 974.888 561.883Z" fill="black" fill-opacity="0.9"/>
<path d="M984.538 563.98C982.755 567.862 982.964 568.7 985.796 568.7C989.153 568.7 990.097 567.022 988.419 563.876C986.74 560.729 986.006 560.729 984.538 563.98Z" fill="black" fill-opacity="0.9"/>
<path d="M954.751 565.659C952.863 566.707 952.024 573.944 953.702 573.944C956.115 573.944 959.156 570.379 959.156 567.547C959.156 564.4 957.898 563.771 954.751 565.659Z" fill="black" fill-opacity="0.9"/>
<path d="M801.83 570.169C801.83 572.161 801.411 574.154 800.781 574.469C799.523 575.203 799.418 579.923 800.572 580.657C801.83 581.391 808.123 577.406 808.123 575.937C808.123 575.203 807.599 572.896 806.865 570.693C806.026 567.861 805.082 566.603 803.718 566.603C802.25 566.603 801.83 567.441 801.83 570.169Z" fill="black" fill-opacity="0.9"/>
<path d="M908.602 570.798C904.407 573.105 901.365 576.881 899.582 582.021C898.219 586.111 898.638 586.216 903.568 583.279C909.756 579.504 916.154 572.476 916.154 569.225C916.154 568.071 912.378 568.91 908.602 570.798Z" fill="black" fill-opacity="0.9"/>
<path d="M968.596 569.435C962.722 569.749 961.568 570.169 960.73 572.161C960.1 573.525 958.527 574.574 956.848 574.784C955.381 574.993 953.387 576.252 952.443 577.616C951.395 579.189 950.136 579.923 948.773 579.504C947.304 579.083 945.731 580.448 942.27 585.167C939.857 588.523 933.46 595.445 928.111 600.48C917.308 610.654 910.385 620.198 908.498 627.225C907.658 630.372 906.504 632.155 904.931 632.784C903.568 633.309 902.519 634.358 902.519 635.302C902.519 636.141 901.575 636.875 900.421 636.875C898.848 636.875 898.114 637.819 897.589 640.126C897.17 642.328 895.701 644.112 892.974 645.895C888.569 648.621 885.423 653.656 885.947 657.117C886.472 660.998 889.304 659.634 892.03 654.181C893.604 651.244 895.282 649.042 896.016 649.146C896.75 649.356 897.275 648.307 897.275 646.839C897.275 644.531 897.589 644.216 899.792 644.846C901.995 645.37 902.414 645.056 902.728 642.538C902.938 640.336 903.778 639.392 906.19 638.763C908.078 638.238 910.805 635.931 913.007 633.204C915 630.582 918.252 627.75 920.034 626.806C923.076 625.443 923.495 624.708 923.495 621.247C923.495 617.891 924.125 616.842 927.796 613.801C930.209 611.913 934.194 607.088 936.816 603.207C940.172 597.963 942.689 595.341 945.836 593.768C948.248 592.509 954.646 588.523 960.1 584.853C965.449 581.181 970.693 578.14 971.743 578.14C972.791 578.14 976.986 578.874 981.077 579.818C988.943 581.601 992.614 581.286 995.236 578.56C997.753 576.147 997.334 575.203 993.243 573.211C990.307 571.847 988.838 571.637 986.531 572.476C984.014 573.525 983.385 573.315 981.391 571.113C980.238 569.854 978.35 568.805 977.301 568.91C976.252 569.015 972.372 569.225 968.596 569.435Z" fill="black" fill-opacity="0.9"/>
<path d="M997.963 578.56C997.963 583.279 998.277 584.433 999.955 584.957C1002.58 585.797 1006.88 590.831 1011.81 598.907C1014.11 602.788 1017.26 606.354 1019.78 607.822C1023.66 610.34 1024.08 611.073 1027.12 621.876C1032.05 638.763 1034.46 650.195 1036.35 664.879C1038.34 679.982 1037.61 687.429 1033.2 698.232C1030.9 704.106 1029.95 707.776 1027.33 721.831C1026.49 726.446 1024.92 729.382 1019.88 735.99C1016.32 740.605 1011.18 749.101 1008.35 754.869C1005.3 761.372 1001.53 767.245 998.592 770.287C993.768 775.321 989.992 781.3 991.04 782.348C991.355 782.663 993.138 781.929 995.026 780.775C998.907 778.363 1003.63 772.28 1010.76 760.638C1013.49 756.338 1016.84 751.618 1018.42 750.149C1021.67 747.108 1024.18 741.654 1024.18 737.773C1024.18 736.409 1025.34 734.207 1026.6 732.948C1029.64 730.116 1031.74 724.453 1034.67 711.133C1036.04 705.05 1037.71 699.91 1038.97 698.547L1041.07 696.134L1040.65 704C1040.34 708.405 1038.34 718.265 1036.14 726.236C1031.42 743.646 1032.47 747.003 1038.66 733.892C1043.06 724.558 1043.59 719.628 1043.27 688.373C1042.96 661.628 1042.75 657.642 1040.55 647.992C1039.18 642.224 1037.19 632.68 1036.14 626.911C1034.46 618.206 1033.52 615.479 1029.95 610.129C1027.54 606.668 1023.34 599.851 1020.51 594.922C1013.7 582.859 1010.86 579.398 1005.41 575.832C998.697 571.637 997.963 571.847 997.963 578.56Z" fill="black" fill-opacity="0.9"/>
<path d="M819.87 574.679C819.136 574.993 816.934 578.454 814.941 582.336C812.109 587.999 810.955 589.363 809.382 588.943C808.123 588.629 807.074 589.363 806.235 591.146C805.606 592.614 805.396 593.872 805.921 593.872C806.445 593.872 807.179 595.026 807.494 596.495C808.333 599.956 809.277 599.746 811.48 595.97C812.528 594.187 814.836 591.984 816.619 590.936C818.402 589.992 821.024 588.209 822.388 587.055C824.59 585.062 824.695 584.643 823.541 579.398C822.912 576.462 822.178 573.945 821.863 574.049C821.444 574.049 820.604 574.364 819.87 574.679Z" fill="black" fill-opacity="0.9"/>
<path d="M839.693 579.398C839.169 580.867 838.645 581.181 838.12 580.448C836.862 578.245 834.344 580.448 827.947 589.258C824.485 594.082 820.71 598.592 819.556 599.117C817.248 600.375 817.039 602.578 818.717 607.402C819.975 610.863 821.758 611.598 823.751 609.185C824.59 608.241 824.59 606.983 823.961 605.095C822.702 601.844 823.436 600.9 826.059 602.578C828.786 604.256 830.883 602.788 834.974 596.599C839.169 590.306 842.735 586.531 844.518 586.531C845.252 586.531 845.882 585.587 845.882 584.328C845.882 579.189 841.162 575.413 839.693 579.398Z" fill="black" fill-opacity="0.9"/>
<path d="M910.07 583.279C907.763 585.062 902.938 590.516 899.372 595.655C895.701 600.69 890.352 607.717 887.416 611.178C884.374 614.639 880.702 619.15 879.235 621.142C876.193 625.128 871.683 635.721 872.627 636.665C872.942 636.979 874.305 636.665 875.668 636.036C877.347 635.302 878.71 633.204 879.864 629.742C881.332 625.443 882.486 623.974 886.576 621.457C889.933 619.359 894.547 614.43 901.155 605.829C906.399 599.012 912.482 591.46 914.58 589.152C916.573 586.95 918.041 584.433 917.727 583.594C917.412 582.859 917.202 581.706 917.202 581.182C917.202 579.398 914.37 580.238 910.07 583.279Z" fill="black" fill-opacity="0.9"/>
<path d="M936.606 584.013C935.662 585.482 935.138 586.95 935.452 587.265C936.292 588.208 940.277 584.433 940.277 582.65C940.277 580.448 938.599 581.077 936.606 584.013Z" fill="black" fill-opacity="0.9"/>
<path d="M888.779 586.635C886.787 589.048 883.43 592.928 881.227 595.236C879.13 597.543 876.403 601.319 875.144 603.732C873.99 606.039 872.103 609.71 871.054 611.703C869.9 613.695 868.956 616.423 868.956 617.786C868.956 619.884 869.481 620.198 871.893 619.884C874.515 619.569 874.724 619.254 874.41 615.583C874.201 612.227 874.41 611.703 876.403 611.703C879.444 611.703 883.535 606.983 887.206 599.431C889.513 594.502 890.667 593.243 892.03 593.558C894.547 594.187 897.485 589.677 897.065 585.797C896.541 580.972 892.974 581.392 888.779 586.635Z" fill="black" fill-opacity="0.9"/>
<path d="M970.693 587.579C967.337 588.733 963.771 590.831 962.093 592.719C959.89 595.236 958.317 595.97 955.485 595.97C950.451 595.97 944.368 601.634 940.172 610.129C937.55 615.583 936.606 616.527 934.718 616.212C932.725 615.793 931.676 617.052 928.006 623.449C925.593 627.75 922.657 632.05 921.607 632.994C919.929 634.462 919.719 635.826 920.139 639.811C920.978 648.202 921.713 648.307 926.642 641.175C929.054 637.504 933.984 631.316 937.445 627.225C941.011 623.135 946.885 616.212 950.555 611.807C954.751 606.668 958.107 603.626 959.995 603.102C961.568 602.788 963.876 602.053 965.135 601.738C967.022 601.109 967.442 601.424 967.756 603.941C967.966 605.514 968.7 607.087 969.54 607.298C970.588 607.612 970.798 607.193 970.378 605.514C969.015 600.271 974.469 590.726 978.874 590.726C980.132 590.726 980.342 592.404 980.028 600.375L979.609 610.129L983.07 610.025C985.796 609.815 986.425 610.234 986.425 612.017C986.425 613.171 987.894 616.422 989.782 619.254C991.985 622.82 993.139 626.177 993.558 629.848C993.768 632.889 994.921 638.029 996.18 641.385C998.173 647.048 998.173 648.202 997.019 656.069C994.292 674.633 988.419 692.778 980.867 706.308C976.986 713.23 975.308 715.118 971.428 717.111C970.274 717.636 966.393 722.355 962.932 727.599C958.527 734.102 955.275 737.668 952.653 739.137C949.297 740.92 948.667 741.758 948.667 744.8C948.667 747.947 948.458 748.261 946.15 747.632C943.843 747.107 943.633 747.317 943.109 752.981C942.48 759.17 943.004 761.791 944.158 757.701C944.577 755.813 945.521 755.394 948.563 755.394C953.178 755.288 956.848 752.352 963.876 742.808C966.708 739.032 971.847 732.948 975.413 729.172C983.594 720.572 985.796 716.586 993.768 697.183C998.907 684.597 1000.27 680.087 1000.58 674.633C1000.79 670.857 1001.63 665.927 1002.47 663.62C1006.35 652.817 1005.41 629.952 1000.69 619.464C997.858 613.276 992.089 606.458 986.95 603.312L983.489 601.215L985.481 597.019C986.635 594.711 987.684 592.824 987.894 592.824C988.313 592.824 1001.32 615.164 1004.05 620.618C1008.45 629.428 1009.92 636.875 1009.82 649.461C1009.71 667.815 1005.3 684.702 995.76 704.525C989.257 718.055 983.384 726.865 974.783 735.99C969.854 741.234 967.652 744.381 967.127 747.107C966.602 750.149 965.764 751.093 962.827 752.247C960.834 753.086 959.156 754.135 959.156 754.764C959.156 755.394 957.058 758.016 954.541 760.637C950.031 765.148 949.297 766.826 949.611 771.86C949.821 775.741 952.653 774.692 953.492 770.497C954.016 767.77 954.856 766.511 956.954 765.777C965.868 762.525 975.623 753.61 982.335 742.388C984.538 738.822 986.635 736.515 987.789 736.515C991.251 736.515 1006.04 702.952 1011.07 683.548C1015.06 667.921 1016.11 657.956 1015.48 640.651C1014.85 623.24 1012.54 609.395 1009.39 602.997C1006.67 597.858 999.851 590.411 995.026 587.37L991.355 585.062L989.782 587.37C987.894 590.202 986.95 590.202 984.328 587.579C981.706 584.957 978.14 584.957 970.693 587.579Z" fill="black" fill-opacity="0.9"/>
<path d="M974.049 595.866C972.057 597.124 972.895 600.585 975.308 601.005C977.93 601.529 979.398 599.746 978.559 597.124C977.825 594.816 976.356 594.397 974.049 595.866Z" fill="black" fill-opacity="0.9"/>
<path d="M797.95 597.753C795.013 598.277 794.908 600.9 797.635 604.256C799.628 606.564 799.838 606.668 802.355 604.99C804.872 603.312 806.131 598.068 804.033 598.068C803.509 598.068 802.46 597.858 801.621 597.648C800.886 597.439 799.208 597.543 797.95 597.753Z" fill="black" fill-opacity="0.9"/>
<path d="M1111.24 603.207C1111.24 606.144 1111.97 608.242 1113.86 610.34L1116.38 613.276L1116.48 609.29C1116.48 605.095 1113.96 599.117 1112.29 599.117C1111.66 599.117 1111.24 601.005 1111.24 603.207Z" fill="black" fill-opacity="0.9"/>
<path d="M812.528 606.668C809.801 609.395 811.689 617.996 815.046 617.996C816.304 617.996 816.514 616.842 816.304 612.017C815.99 606.039 814.836 604.361 812.528 606.668Z" fill="black" fill-opacity="0.9"/>
<path d="M957.373 609.71C955.695 611.388 955.59 614.01 957.269 615.689C959.051 617.471 957.373 618.521 954.646 617.262C952.234 616.108 951.709 616.737 944.892 626.177C926.957 651.244 906.714 674.633 900.526 677.57C895.387 679.982 892.03 685.331 892.03 690.995C892.03 693.512 892.555 695.819 893.184 696.134C893.709 696.554 896.016 695.61 898.219 694.142C900.317 692.673 902.624 691.414 903.358 691.414C905.036 691.414 906.61 687.953 906.924 683.653C907.239 679.353 907.554 679.143 909.546 681.66C910.909 683.443 911.119 683.339 912.693 680.926C913.637 679.458 916.888 675.892 919.93 673.06C922.866 670.123 926.223 666.348 927.271 664.669C928.425 662.886 931.467 659.111 934.299 656.279C937.025 653.341 942.06 646.734 945.521 641.49C952.549 630.687 959.261 623.974 966.079 621.038L970.693 618.94L975.098 621.457C977.615 622.926 980.133 623.87 980.762 623.66C981.391 623.345 982.335 624.918 982.86 627.016C984.748 634.672 989.887 634.253 989.363 626.387C989.048 623.45 988.104 622.086 983.489 618.521C980.447 616.213 977.406 613.172 976.672 611.703C974.994 608.346 970.379 607.822 965.449 610.444C961.883 612.437 961.778 612.437 960.205 610.444C958.946 608.871 958.422 608.661 957.373 609.71Z" fill="black" fill-opacity="0.9"/>
<path d="M1014.74 612.857C1014.74 614.849 1016 621.352 1017.58 627.435C1020.3 637.714 1020.41 639.811 1020.3 658.166C1020.2 672.955 1020.41 677.779 1021.35 677.465C1022.09 677.255 1023.14 675.262 1023.76 672.955C1025.55 666.557 1027.86 667.606 1027.44 674.633C1027.02 684.072 1024.29 694.246 1018.1 709.769C1014.64 718.684 1012.12 726.655 1011.81 730.012C1011.39 734.627 1010.86 735.78 1008.77 736.829C1005.93 738.088 1003.42 741.968 1000.06 750.464C998.173 755.394 997.334 756.338 995.761 755.918C994.398 755.498 993.768 755.813 993.768 756.862C993.768 757.701 990.936 760.847 987.58 763.784C980.868 769.658 979.294 773.014 981.182 777.943L982.335 780.881L984.014 778.363C985.063 776.999 989.468 771.336 993.873 765.882C1001.63 756.338 1007.4 746.478 1007.4 742.598C1007.4 741.444 1007.93 741.024 1008.87 741.339C1010.76 742.073 1012.75 738.297 1015.27 729.697C1016.42 725.502 1018.21 722.145 1020.72 719.523C1023.87 716.377 1024.6 714.698 1025.02 710.084C1025.34 706.832 1026.6 702.637 1028.27 699.805C1030.58 695.819 1031 693.617 1031.32 684.806C1031.63 679.143 1031.21 671.801 1030.58 668.55C1029.95 665.298 1028.9 657.012 1028.38 650.195C1026.6 631.421 1021.67 615.059 1016.42 610.759C1014.95 609.5 1014.74 609.815 1014.74 612.857Z" fill="black" fill-opacity="0.9"/>
<path d="M1088.48 615.059C1089 617.471 1093.2 630.163 1096.24 638.973C1097.18 641.595 1099.49 645.16 1101.48 647.048C1104.31 649.776 1104.94 651.139 1104.94 654.915C1104.94 660.684 1106.2 662.781 1108.09 660.474C1111.87 655.859 1094.67 612.961 1088.79 612.751C1088.37 612.751 1088.16 613.801 1088.48 615.059Z" fill="black" fill-opacity="0.9"/>
<path d="M804.977 617.052C804.977 619.779 804.662 620.198 802.669 619.884C800.781 619.674 800.152 620.198 799.942 622.086C799.313 625.967 801.411 627.121 804.242 624.499C805.606 623.24 807.179 622.191 807.913 622.191C810.011 622.191 810.326 620.198 808.648 616.947C806.55 612.857 804.977 612.961 804.977 617.052Z" fill="black" fill-opacity="0.9"/>
<path d="M864.027 622.191C861.929 626.072 858.888 629.323 852.49 634.358C850.287 636.246 846.826 640.651 844.938 644.217C840.848 651.874 838.121 654.915 836.023 654.076C835.184 653.761 834.135 654.285 833.611 655.439C831.932 658.69 832.667 660.474 835.603 660.788C837.701 660.998 839.799 659.74 845.043 654.915C848.609 651.559 852.699 648.202 854.063 647.468C856.475 646.21 856.475 645.475 854.587 640.231C854.273 639.497 855.007 638.973 856.685 638.973C859.832 638.973 863.503 634.672 866.964 627.016C868.957 622.401 868.957 621.772 867.488 620.303C866.02 618.835 865.705 619.044 864.027 622.191Z" fill="black" fill-opacity="0.9"/>
<path d="M793.859 624.813C793.964 628.275 795.537 628.275 795.537 624.813C795.537 623.345 795.118 622.191 794.593 622.191C794.069 622.191 793.754 623.345 793.859 624.813Z" fill="black" fill-opacity="0.9"/>
<path d="M968.596 626.387C967.757 626.911 965.764 627.435 964.191 627.435C960.31 627.435 954.227 634.672 943.948 651.663C937.025 662.991 933.145 668.025 922.027 679.668C914.58 687.534 907.029 694.666 905.246 695.505C903.463 696.449 900.106 699.701 897.799 702.847C894.443 707.252 892.24 708.93 888.15 710.503C881.857 712.81 875.249 719.418 875.249 723.404C875.249 725.921 875.354 725.921 879.235 724.558C890.982 720.362 902.204 712.601 919.72 696.344L930.838 685.961L930.942 680.611C931.047 677.57 931.362 676.416 931.572 677.99C932.411 683.233 935.452 681.031 942.374 670.018C944.787 666.242 947.619 662.886 948.773 662.572C949.926 662.152 950.765 660.998 950.765 659.53C950.765 654.705 952.024 650.615 953.387 651.139C954.017 651.453 957.058 648.412 959.995 644.216C963.037 640.126 966.603 636.246 968.071 635.616C970.274 634.672 970.693 633.728 970.693 629.848C970.693 627.435 970.588 625.337 970.484 625.337C970.274 625.337 969.434 625.862 968.596 626.387Z" fill="black" fill-opacity="0.9"/>
<path d="M972.372 629.742C972.057 630.477 971.637 633.204 971.428 635.616C971.008 638.867 970.169 640.755 968.386 641.909C963.981 645.056 961.464 648.517 956.429 658.166C953.597 663.83 949.192 670.228 946.046 673.689C943.004 676.836 939.333 681.87 937.76 684.806C936.292 687.744 933.774 691.099 932.201 692.253C930.523 693.407 924.125 699.595 917.832 705.888C911.015 712.81 905.351 717.636 903.672 717.95C902.205 718.265 896.121 721.411 890.248 724.977C881.961 730.012 878.5 731.48 874.725 731.795C871.578 732.004 869.061 732.843 867.908 733.997C865.495 736.515 863.922 743.856 865.81 743.856C868.746 743.856 888.884 737.144 895.912 733.787C903.149 730.326 908.812 725.292 908.812 722.25C908.812 721.411 909.336 720.782 909.861 720.782C910.49 720.782 910.909 721.726 910.909 722.879C910.909 724.033 911.434 724.977 911.959 724.977C912.588 724.977 913.007 724.558 913.007 724.033C913.007 723.509 916.259 720.467 920.349 717.216C924.649 713.754 927.901 710.189 928.321 708.615C928.74 707.042 929.579 706.203 930.418 706.517C931.257 706.832 933.67 704.84 936.292 701.798C938.809 698.966 943.424 693.827 946.675 690.576C952.339 684.702 954.122 681.66 963.037 662.047C966.708 654.076 973.42 644.531 974.574 645.58C974.784 645.79 973.735 649.775 972.266 654.285C969.33 663.305 964.506 673.06 964.4 670.123C964.4 667.606 962.303 667.815 962.303 670.438C962.303 671.591 962.722 672.535 963.247 672.535C963.666 672.535 962.408 676.521 960.415 681.345C957.373 688.478 956.01 690.47 953.073 692.043C951.185 693.093 946.256 698.022 942.27 703.056C933.46 714.174 925.069 722.041 915.105 728.648C904.722 735.571 887.94 743.646 880.284 745.43C872.732 747.107 869.9 749.625 869.69 754.45C869.481 757.282 870.005 758.12 872.207 758.855C875.774 760.218 880.494 757.911 887.835 751.093C894.862 744.59 897.799 743.227 907.239 742.283C916.783 741.339 920.769 739.032 932.411 727.075C937.655 721.831 943.843 716.272 946.36 714.804C948.773 713.335 951.605 710.713 952.549 708.825C956.115 701.798 960.624 696.344 963.876 694.981C967.023 693.722 967.861 692.358 971.533 682.814C976.462 670.332 979.084 658.586 979.084 649.461C979.084 643.797 978.874 643.168 976.882 643.168C975.098 643.168 974.784 642.643 975.098 639.287C975.518 634.043 977.301 633.833 980.553 638.658C983.175 642.434 983.279 643.272 983.279 657.432C983.279 670.753 983.07 672.43 981.182 674.108C978.98 676.102 976.357 683.129 975.308 690.155C974.784 693.197 974.154 694.456 973.316 694.141C972.581 693.931 969.855 696.344 967.127 699.595C956.744 712.601 951.08 718.684 946.046 722.46C943.214 724.663 939.019 728.438 936.711 730.956C931.467 736.829 923.391 742.702 918.881 743.961C916.259 744.696 915 745.849 914.161 748.261C910.909 757.596 903.358 762.631 891.401 763.469C883.849 764.099 883.64 764.204 883.64 766.826C883.64 770.182 885.423 772.175 888.36 772.175C892.66 772.175 907.658 763.784 917.413 755.918C925.069 749.73 927.901 748.051 930.523 748.051C933.04 748.051 935.138 747.003 938.075 744.381C940.277 742.388 942.899 740.71 943.843 740.71C944.787 740.71 945.521 740.08 945.521 739.241C945.521 736.619 949.822 732.319 955.066 729.697C957.898 728.228 960.834 726.026 961.568 724.663C962.408 723.404 964.61 719.733 966.498 716.377C968.386 713.125 971.113 709.979 972.477 709.349C974.05 708.615 974.889 707.357 974.889 705.469C974.889 703.791 976.462 700.959 978.98 698.127C986.846 689.212 991.67 671.382 991.67 651.663V641.49L986.74 636.665C983.909 633.938 979.924 631.001 977.826 630.057C973.106 628.169 972.791 628.169 972.372 629.742Z" fill="black" fill-opacity="0.9"/>
<path d="M812.004 630.163C811.584 630.582 811.27 631.841 811.27 632.889C811.27 634.253 810.536 634.777 808.648 634.777C806.655 634.777 805.921 635.512 805.396 637.609C804.452 642.329 804.033 643.168 802.984 643.168C802.46 643.168 801.621 642.224 801.306 641.07C800.991 639.917 799.942 638.973 799.103 638.973C797.32 638.973 797.006 647.888 798.684 648.936C799.313 649.251 799.733 648.622 799.733 647.468C799.733 645.685 800.152 645.581 802.669 646.314C807.809 647.783 813.997 643.902 816.304 637.819C817.143 635.616 816.934 634.568 815.151 632.26C813.892 630.687 812.424 629.743 812.004 630.163Z" fill="black" fill-opacity="0.9"/>
<path d="M1066.14 634.987C1066.24 643.902 1068.34 655.544 1072.95 672.535C1075.47 682.08 1078.83 697.393 1080.3 706.517C1083.23 724.033 1085.86 732.948 1089.11 735.885C1093.09 739.451 1092.78 734.207 1088.27 721.097C1087.11 717.53 1086.07 713.021 1086.07 711.133C1086.07 709.245 1085.12 705.154 1083.97 702.112C1080.3 692.464 1077.88 682.289 1073.48 657.852C1071.17 644.846 1068.97 633.414 1068.65 632.365C1067.61 629.009 1066.14 630.582 1066.14 634.987Z" fill="black" fill-opacity="0.9"/>
<path d="M865.39 639.602C864.34 641.07 862.663 645.58 861.614 649.776C860.355 655.02 859.516 656.803 858.992 655.439C857.943 652.817 854.587 653.237 853.852 655.964C853.538 657.327 851.125 659.74 848.503 661.313C843.784 664.354 842.21 667.081 842.944 671.591C843.154 673.479 843.784 674.004 845.357 673.794C849.342 673.164 855.845 667.815 858.153 663.201C859.411 660.684 861.404 657.537 862.558 656.383C865.075 653.656 872.102 638.763 871.473 637.714C870.319 635.931 867.068 636.979 865.39 639.602Z" fill="black" fill-opacity="0.9"/>
<path d="M914.056 641.07C913.322 642.434 909.127 647.363 904.616 652.188C900.107 657.012 895.912 662.466 895.177 664.564C894.443 666.977 893.289 668.34 891.821 668.55C888.465 669.074 885.003 674.214 886.367 676.521C888.045 679.038 891.296 678.723 892.555 675.892C893.08 674.633 894.443 673.584 895.491 673.584C896.645 673.584 898.114 672.011 899.267 669.389C900.317 667.081 901.47 665.508 901.89 665.927C902.728 666.871 914.791 655.125 916.783 651.349C918.566 647.888 918.566 644.426 916.783 641.175L915.42 638.658L914.056 641.07Z" fill="black" fill-opacity="0.9"/>
<path d="M876.927 644.112C874.62 648.412 874.83 649.461 877.871 649.461C880.703 649.461 881.332 648.622 881.752 644.217C882.172 640.336 878.92 640.232 876.927 644.112Z" fill="black" fill-opacity="0.9"/>
<path d="M814.626 652.083C813.892 653.656 812.948 657.117 812.633 659.844C812.004 664.249 812.108 664.564 813.682 663.201C816.094 661.313 817.982 653.866 816.828 651.244C815.989 649.356 815.779 649.461 814.626 652.083Z" fill="black" fill-opacity="0.9"/>
<path d="M871.473 650.3C869.795 651.349 867.907 655.335 867.907 657.746C867.907 662.152 873.256 659.11 874.515 653.971C875.039 651.453 873.256 649.146 871.473 650.3Z" fill="black" fill-opacity="0.9"/>
<path d="M879.444 658.376C878.08 662.047 878.08 669.074 879.549 669.913C881.332 671.067 881.961 669.703 882.381 663.201C882.905 656.488 881.227 653.761 879.444 658.376Z" fill="black" fill-opacity="0.9"/>
<path d="M805.606 660.369C804.871 663.306 806.445 668.34 808.123 668.34C809.696 668.34 809.067 658.69 807.494 658.166C806.759 657.956 806.025 658.9 805.606 660.369Z" fill="black" fill-opacity="0.9"/>
<path d="M824.066 662.572C820.604 666.347 819.241 670.018 819.87 673.06C820.08 674.528 821.234 674.004 825.744 670.333C830.359 666.452 831.198 665.193 830.988 662.572C830.568 658.167 827.946 658.167 824.066 662.572Z" fill="black" fill-opacity="0.9"/>
<path d="M872.732 663.096C869.166 664.25 865.914 666.977 864.761 670.018C864.131 671.487 862.558 672.535 860.146 672.955C855.321 673.899 848.503 678.513 836.127 689.422C826.478 697.813 826.163 698.232 828.89 698.757C836.756 700.434 847.245 695.4 857.104 685.436C861.299 681.241 865.285 677.78 866.124 677.78C866.858 677.78 869.06 676.626 871.054 675.158C873.046 673.689 875.144 672.535 875.668 672.535C876.297 672.535 876.822 670.228 876.822 667.291C876.822 664.354 876.612 662.047 876.297 662.152C875.983 662.152 874.409 662.676 872.732 663.096Z" fill="black" fill-opacity="0.9"/>
<path d="M979.084 668.865C979.084 670.857 979.609 672.535 980.133 672.535C980.762 672.535 981.182 670.857 981.182 668.865C981.182 666.871 980.762 665.194 980.133 665.194C979.609 665.194 979.084 666.871 979.084 668.865Z" fill="black" fill-opacity="0.9"/>
<path d="M1097.6 668.865C1096.55 670.123 1096.76 672.22 1099.18 680.611C1100.64 686.275 1102.85 692.568 1104 694.561L1106.1 698.232L1105.68 691.205C1105.26 685.856 1104.42 682.919 1101.8 678.304C1099.07 673.479 1098.65 672.22 1099.81 670.857C1100.64 669.809 1100.75 668.969 1100.01 668.235C1099.28 667.501 1098.55 667.711 1097.6 668.865Z" fill="black" fill-opacity="0.9"/>
<path d="M830.044 675.996C821.234 684.283 817.353 689.317 819.871 689.317C822.388 689.317 836.862 681.975 839.798 679.143C842.001 677.046 842.525 675.787 842.001 673.689C841.372 670.753 839.798 668.34 838.645 668.34C838.33 668.445 834.449 671.801 830.044 675.996Z" fill="black" fill-opacity="0.9"/>
<path d="M812.318 677.779C812.318 684.073 813.577 684.492 815.465 678.933C816.828 674.633 816.304 672.535 813.787 672.535C812.738 672.535 812.318 673.899 812.318 677.779Z" fill="black" fill-opacity="0.9"/>
<path d="M881.227 679.353C879.129 681.241 877.556 681.765 875.774 681.345C873.886 680.926 873.151 681.241 872.627 682.919C872.102 684.597 871.054 685.121 868.641 685.121C864.551 685.121 862.243 686.59 852.279 695.819C847.769 700.015 843.154 703.371 841.476 703.686C837.701 704.42 836.966 705.993 838.225 710.923L839.064 714.698L844.308 710.084C851.86 703.371 875.774 686.17 877.661 686.17C877.871 686.17 877.766 687.848 877.556 689.841C876.927 694.981 878.605 694.456 881.961 688.268C883.534 685.436 885.528 682.604 886.472 682.185C887.73 681.451 887.835 680.821 886.891 678.933C885.318 676.206 884.898 676.206 881.227 679.353Z" fill="black" fill-opacity="0.9"/>
<path d="M804.242 680.401C803.928 681.345 803.928 682.289 804.242 682.604C805.186 683.548 807.074 681.975 807.074 680.297C807.074 678.304 805.081 678.409 804.242 680.401Z" fill="black" fill-opacity="0.9"/>
<path d="M1016.84 680.507C1016.84 681.555 1014.22 689.946 1011.07 699.28C1007.93 708.72 1005.31 716.901 1005.31 717.636C1005.31 718.37 1003.94 720.677 1002.37 722.775C1000.69 724.873 997.019 730.536 994.188 735.361C991.356 740.185 985.797 747.422 981.916 751.408C975.413 758.016 970.799 765.253 970.693 768.818C970.693 770.497 981.182 762.525 987.999 755.813C993.348 750.464 997.439 743.227 998.593 737.144C999.012 734.521 1000.69 731.69 1003.1 729.278C1005.62 726.761 1008.77 721.097 1012.54 712.496C1019.57 696.449 1021.04 691.52 1021.04 684.387C1021.04 679.563 1020.83 678.828 1018.94 678.828C1017.68 678.828 1016.84 679.563 1016.84 680.507Z" fill="black" fill-opacity="0.9"/>
<path d="M796.796 684.177C797.006 686.17 797.635 687.638 798.16 687.429C799.733 687.114 799.418 681.66 797.845 681.136C796.796 680.821 796.481 681.66 796.796 684.177Z" fill="black" fill-opacity="0.9"/>
<path d="M1058.38 696.763C1057.33 702.112 1057.64 709.14 1059.32 719.209C1060.26 724.348 1061.31 733.473 1061.84 739.347C1062.36 745.22 1063.1 750.464 1063.52 751.093C1066.45 756.023 1067.08 739.661 1064.46 721.306C1063.62 714.908 1062.68 706.623 1062.26 702.742C1061.52 694.666 1059.42 691.414 1058.38 696.763Z" fill="black" fill-opacity="0.9"/>
<path d="M814.522 698.757C813.053 703.581 813.053 704 814.417 704C815.046 704 815.465 703.266 815.465 702.322C815.465 700.959 816.2 700.749 819.661 701.378C823.437 702.008 823.856 701.903 823.856 699.91C823.856 698.651 823.227 697.707 822.598 697.707C821.863 697.707 819.975 697.078 818.507 696.239C815.78 694.875 815.675 694.875 814.522 698.757Z" fill="black" fill-opacity="0.9"/>
<path d="M870.844 696.344C869.9 697.392 868.746 699.28 868.116 700.434C867.487 701.693 865.495 702.952 863.607 703.371C857.419 704.63 851.126 709.14 849.028 713.754C847.979 716.167 847.14 718.265 847.35 718.37C847.664 718.789 866.543 708.72 868.641 706.937C871.158 704.84 876.297 696.449 875.668 695.505C874.724 694.037 872.522 694.456 870.844 696.344Z" fill="black" fill-opacity="0.9"/>
<path d="M882.381 697.183C880.073 699.49 877.347 705.888 877.347 709.14C877.347 710.818 887.101 703.162 888.674 700.12C891.611 694.666 886.995 692.464 882.381 697.183Z" fill="black" fill-opacity="0.9"/>
<path d="M805.501 697.603C801.096 698.547 800.572 703.056 804.453 705.679C806.026 706.727 807.494 707.042 808.019 706.517C809.172 705.259 810.431 696.659 809.487 696.763C808.962 696.869 807.284 697.183 805.501 697.603Z" fill="black" fill-opacity="0.9"/>
<path d="M1094.14 704.63C1093.3 705.469 1094.35 710.399 1095.5 711.657C1096.55 712.81 1098.02 706.517 1097.08 705.05C1096.34 703.896 1095.09 703.686 1094.14 704.63Z" fill="black" fill-opacity="0.9"/>
<path d="M830.149 707.147C829.31 707.671 827.736 707.882 826.792 707.567C825.324 707.147 824.905 707.671 824.905 710.084C824.905 714.069 823.856 714.908 822.073 712.391C820.185 709.664 819.765 709.769 815.78 713.545C810.431 718.474 811.165 719.733 819.031 719.733C830.463 719.733 836.337 716.167 835.603 709.769C835.183 705.994 833.4 705.05 830.149 707.147Z" fill="black" fill-opacity="0.9"/>
<path d="M872.312 709.455C870.529 711.237 870.739 714.489 872.627 714.489C874.409 714.489 876.717 710.713 875.773 709.245C874.934 707.881 873.886 707.881 872.312 709.455Z" fill="black" fill-opacity="0.9"/>
<path d="M865.599 716.796C863.711 718.684 862.663 720.991 862.663 722.879C862.663 726.34 862.977 726.551 865.809 724.977C868.116 723.719 870.844 715.957 869.375 714.594C868.851 714.069 867.172 715.013 865.599 716.796Z" fill="black" fill-opacity="0.9"/>
<path d="M853.748 724.873C852.804 726.761 852.594 728.228 853.223 728.648C854.377 729.382 858.468 727.39 858.468 726.026C858.468 725.607 858.782 724.453 859.097 723.509C860.356 720.257 855.531 721.621 853.748 724.873Z" fill="black" fill-opacity="0.9"/>
<path d="M870.424 724.452C870.109 725.921 870.004 727.39 870.319 727.704C871.368 728.753 873.151 726.97 873.151 724.977C873.151 721.831 871.158 721.516 870.424 724.452Z" fill="black" fill-opacity="0.9"/>
<path d="M843.888 723.823C841.476 724.453 839.378 727.809 840.322 729.382C840.847 730.431 844.937 730.431 846.615 729.382C847.245 728.963 848.189 727.284 848.503 725.711C849.342 722.67 848.713 722.46 843.888 723.823Z" fill="black" fill-opacity="0.9"/>
<path d="M837.072 725.502C836.652 726.761 836.023 726.97 834.45 726.026C832.981 725.292 832.142 725.292 831.723 726.026C830.359 728.228 832.142 730.222 835.394 730.222C838.225 730.222 838.54 729.907 838.54 727.075C838.54 723.614 838.016 723.089 837.072 725.502Z" fill="black" fill-opacity="0.9"/>
<path d="M822.807 728.019C821.129 731.27 821.549 734.417 823.647 734.417C826.374 734.417 828.052 732.319 828.052 728.963C828.052 726.761 827.527 726.026 825.954 726.026C824.905 726.026 823.437 726.97 822.807 728.019Z" fill="black" fill-opacity="0.9"/>
<path d="M815.465 730.222C815.465 731.585 815.99 732.11 817.039 731.69C817.878 731.27 818.612 730.431 818.612 729.592C818.612 728.753 817.878 728.124 817.039 728.124C816.199 728.124 815.465 729.068 815.465 730.222Z" fill="black" fill-opacity="0.9"/>
<path d="M1053.13 743.017C1052.61 749.31 1051.45 752.877 1046.63 763.05C1043.38 769.868 1040.97 775.636 1041.28 775.951C1042.22 776.895 1045.79 774.482 1047.68 771.65C1048.73 770.077 1049.57 766.721 1049.67 764.204C1049.78 761.687 1050.2 759.589 1050.72 759.589C1051.14 759.589 1052.4 758.016 1053.55 756.128C1055.13 753.611 1055.65 750.883 1055.65 745.43C1055.65 735.046 1054.08 733.577 1053.13 743.017Z" fill="black" fill-opacity="0.9"/>
<path d="M842.945 739.241C843.154 740.814 843.888 742.283 844.623 742.598C845.672 742.912 845.986 742.178 845.672 740.08C845.462 738.507 844.728 737.039 843.993 736.724C842.945 736.409 842.63 737.144 842.945 739.241Z" fill="black" fill-opacity="0.9"/>
<path d="M851.545 737.983C850.706 740.291 851.44 744.171 853.013 744.696C853.852 744.905 854.272 743.752 854.272 740.814C854.272 736.619 852.699 735.046 851.545 737.983Z" fill="black" fill-opacity="0.9"/>
<path d="M859.097 738.193C858.153 740.71 858.363 744.905 859.516 744.905C860.88 744.905 862.663 741.339 862.663 738.717C862.663 736.095 860.041 735.78 859.097 738.193Z" fill="black" fill-opacity="0.9"/>
<path d="M829.729 740.291C828.68 743.122 828.995 744.905 830.673 744.905C831.617 744.905 832.246 743.961 832.246 742.388C832.246 739.241 830.673 737.983 829.729 740.291Z" fill="black" fill-opacity="0.9"/>
<path d="M821.338 742.388C820.919 743.332 820.919 744.381 821.234 744.696C821.863 745.325 824.905 742.808 824.905 741.654C824.905 739.976 821.968 740.605 821.338 742.388Z" fill="black" fill-opacity="0.9"/>
<path d="M1028.38 746.793C1028.38 747.527 1025.86 750.883 1022.72 754.24C1017.68 759.694 1014.53 766.092 1016.11 767.665C1017.16 768.609 1022.19 764.519 1025.13 760.218C1028.69 754.974 1030.9 748.051 1029.43 746.584C1028.69 745.849 1028.38 745.954 1028.38 746.793Z" fill="black" fill-opacity="0.9"/>
<path d="M898.743 748.995C895.806 750.779 890.981 756.338 890.981 757.911C890.981 758.75 903.672 757.386 905.77 756.338C906.714 755.813 908.077 754.03 908.602 752.247C909.546 749.625 909.441 748.995 907.763 748.051C904.826 746.478 902.414 746.793 898.743 748.995Z" fill="black" fill-opacity="0.9"/>
<path d="M862.873 751.827C860.145 753.715 859.831 758.33 862.243 759.274C864.34 760.114 866.858 757.072 866.858 753.715C866.858 750.464 865.599 749.939 862.873 751.827Z" fill="black" fill-opacity="0.9"/>
<path d="M935.348 752.667C932.096 754.24 931.782 761.687 934.928 761.687C937.55 761.687 940.277 757.806 940.277 754.135C940.277 750.989 939.228 750.674 935.348 752.667Z" fill="black" fill-opacity="0.9"/>
<path d="M845.567 754.764C844.518 757.386 844.623 761.687 845.776 761.687C847.14 761.687 847.979 757.596 847.035 755.079C846.301 753.191 846.196 753.086 845.567 754.764Z" fill="black" fill-opacity="0.9"/>
<path d="M1036.98 754.554C1035.2 756.338 1035.41 761.687 1037.19 761.687C1038.87 761.687 1039.92 759.484 1039.92 755.813C1039.92 753.086 1038.87 752.667 1036.98 754.554Z" fill="black" fill-opacity="0.9"/>
<path d="M852.174 757.386C852.174 758.54 852.699 759.799 853.223 760.114C853.852 760.533 854.272 759.589 854.272 758.12C854.272 756.652 853.852 755.394 853.223 755.394C852.699 755.394 852.174 756.338 852.174 757.386Z" fill="black" fill-opacity="0.9"/>
<path d="M924.02 759.589C922.342 760.743 919.615 763.365 917.937 765.567C915.21 769.238 915.105 769.658 916.783 770.812C919.195 772.594 919.195 772.594 924.754 770.077C928.95 768.295 929.579 767.455 930.208 764.099C930.523 761.896 930.837 759.484 930.837 758.75C930.837 756.862 927.586 757.176 924.02 759.589Z" fill="black" fill-opacity="0.9"/>
<path d="M877.871 765.148C876.822 767.77 877.766 771.65 879.444 771.65C881.647 771.65 881.961 768.399 880.073 765.672C878.71 763.784 878.396 763.679 877.871 765.148Z" fill="black" fill-opacity="0.9"/>
<path d="M822.597 768.399C820.29 773.538 826.163 776.265 835.603 774.482C839.169 773.748 841.266 773.853 843.154 774.797C846.091 776.37 846.93 775.951 846.93 772.7C846.93 768.085 844.203 767.245 837.491 769.762C831.302 771.965 831.302 771.965 829.415 769.868C825.849 765.882 823.961 765.567 822.597 768.399Z" fill="black" fill-opacity="0.9"/>
<path d="M868.116 767.455C863.711 769.343 864.236 771.546 869.166 771.965C872.102 772.175 873.361 771.756 874.62 769.868C875.563 768.609 876.297 767.14 876.297 766.721C876.297 765.357 871.892 765.777 868.116 767.455Z" fill="black" fill-opacity="0.9"/>
<path d="M859.097 769.553C858.782 770.392 857.733 771.126 856.789 771.126C854.482 771.126 855.53 773.644 858.153 774.063C860.67 774.482 863.082 771.756 862.243 769.553C861.509 767.56 859.936 767.56 859.097 769.553Z" fill="black" fill-opacity="0.9"/>
<path d="M944.472 770.077C944.472 771.231 944.997 772.175 945.521 772.175C946.15 772.175 946.57 771.231 946.57 770.077C946.57 768.924 946.15 767.98 945.521 767.98C944.997 767.98 944.472 768.924 944.472 770.077Z" fill="black" fill-opacity="0.9"/>
<path d="M964.086 770.916C962.198 772.909 961.254 774.902 961.464 776.475L961.779 778.783L964.715 776.265C967.023 774.378 967.652 772.909 967.338 770.706L967.023 767.77L964.086 770.916Z" fill="black" fill-opacity="0.9"/>
<path d="M904.826 772.175C902.938 773.329 900.84 775.426 900.211 776.895C899.162 779.202 898.952 779.307 897.799 777.734C895.491 774.588 893.079 776.79 893.079 782.139C893.079 787.697 895.491 788.747 897.589 783.922C898.428 781.929 899.477 781.195 900.735 781.404C904.511 782.139 907.868 780.461 910.909 776.161C912.692 773.853 914.055 771.441 914.055 770.916C914.055 769.343 908.287 770.077 904.826 772.175Z" fill="black" fill-opacity="0.9"/>
<path d="M850.077 772.909C850.077 774.168 850.601 775.532 851.125 775.846C852.489 776.685 852.489 774.273 851.125 772.175C850.286 770.916 850.077 771.021 850.077 772.909Z" fill="black" fill-opacity="0.9"/>
<path d="M930.313 776.37C929.579 778.573 931.467 783.083 932.83 782.244C933.879 781.615 932.935 774.273 931.886 774.273C931.362 774.273 930.732 775.217 930.313 776.37Z" fill="black" fill-opacity="0.9"/>
<path d="M1056.7 776.58C1056.7 777.314 1057.22 778.678 1057.75 779.517C1058.59 780.775 1058.8 780.671 1058.8 778.783C1058.8 777.524 1058.38 776.161 1057.75 775.846C1057.22 775.532 1056.7 775.846 1056.7 776.58Z" fill="black" fill-opacity="0.9"/>
<path d="M1035.93 778.783C1032.89 782.034 1032.99 783.502 1036.25 782.873C1037.71 782.663 1038.87 781.825 1038.87 781.09C1038.87 780.251 1039.18 778.993 1039.5 778.049C1040.44 775.636 1038.55 776.055 1035.93 778.783Z" fill="black" fill-opacity="0.9"/>
<path d="M923.915 778.993C923.495 780.041 921.817 780.566 918.67 780.566C912.587 780.566 906.084 783.292 903.567 786.859C898.847 793.467 901.784 794.725 911.958 790.635C915.314 789.271 919.614 787.803 921.292 787.383C923.705 786.859 924.544 786.124 924.544 784.446C924.544 783.188 925.488 781.51 926.641 780.775C927.9 780.041 928.529 778.993 928.215 778.468C927.271 776.895 924.544 777.209 923.915 778.993Z" fill="black" fill-opacity="0.9"/>
<path d="M971.847 780.146C969.434 783.292 968.91 786.859 971.008 786.859C973.63 786.753 977.93 781.929 977.301 779.622C976.567 776.685 974.469 776.895 971.847 780.146Z" fill="black" fill-opacity="0.9"/>
<path d="M883.43 779.622C880.702 781.195 881.122 782.978 884.793 785.076C888.779 787.278 889.933 786.649 889.933 782.034C889.933 778.993 889.618 778.468 887.625 778.468C886.262 778.468 884.374 778.993 883.43 779.622Z" fill="black" fill-opacity="0.9"/>
<path d="M953.597 779.202C951.919 780.775 952.968 782.769 955.171 782.454C958.212 782.034 959.156 778.468 956.219 778.468C955.171 778.468 953.912 778.783 953.597 779.202Z" fill="black" fill-opacity="0.9"/>
<path d="M946.57 786.544C946.57 789.166 948.143 790.529 949.192 788.851C949.611 788.222 949.192 786.964 948.248 786.02C946.674 784.446 946.57 784.446 946.57 786.544Z" fill="black" fill-opacity="0.9"/>
<path d="M984.643 786.02C984.014 786.754 983.279 788.222 982.964 789.166C982.441 790.635 982.86 791.054 984.748 791.054C987.16 791.054 988.524 789.271 988.524 786.23C988.524 784.446 986.006 784.342 984.643 786.02Z" fill="black" fill-opacity="0.9"/>
<path d="M854.797 787.908C854.482 788.432 854.692 789.9 855.321 791.159C856.475 793.257 856.58 793.257 857.943 791.369C858.783 790.32 859.517 788.852 859.517 788.118C859.517 786.649 855.741 786.439 854.797 787.908Z" fill="black" fill-opacity="0.9"/>
<path d="M960.73 788.956C959.68 790.11 958.212 791.054 957.373 791.054C955.8 791.054 955.59 793.991 956.954 796.193C957.688 797.347 958.736 797.032 962.197 794.305C966.708 790.739 967.967 786.859 964.61 786.859C963.456 786.859 961.778 787.803 960.73 788.956Z" fill="black" fill-opacity="0.9"/>
<path d="M939.018 791.579C936.606 794.725 936.606 797.662 938.913 797.137C940.906 796.718 943.003 791.264 941.745 790.005C941.221 789.481 939.962 790.215 939.018 791.579Z" fill="black" fill-opacity="0.9"/>
<path d="M923.181 794.935C921.922 796.089 922.342 797.347 924.02 797.347C924.86 797.347 925.593 796.613 925.593 795.774C925.593 794.096 924.335 793.676 923.181 794.935Z" fill="black" fill-opacity="0.9"/>
</svg>
