<svg width="1920" height="931" viewBox="0 0 1920 931" fill="none" xmlns="http://www.w3.org/2000/svg">
<path d="M924.667 386.417C913.912 390.484 903.157 397.533 898.547 403.679C896.378 406.571 893.034 409.463 890.142 411.09C885.623 413.711 877.67 421.213 877.67 422.93C877.67 423.382 882.279 428.172 887.882 433.595C900.987 446.338 903.428 450.676 906.049 466.222C906.41 468.481 906.049 469.566 904.603 470.921L902.705 472.729L905.958 481.134C907.675 485.744 909.845 492.16 910.658 495.324C912.827 503.91 918.431 516.201 925.48 527.86L931.716 538.344L933.434 552.082C934.428 559.855 934.789 565.91 934.337 565.91C933.886 565.91 928.734 562.928 922.95 559.222C917.075 555.516 910.116 551.811 907.404 550.907C904.693 550.094 901.71 548.648 900.716 547.834C899.722 546.93 897.463 546.027 895.745 545.665C889.328 544.49 883.273 540.513 869.174 528.493C852.363 514.032 851.369 513.219 848.387 513.671C846.85 513.852 844.32 512.496 839.801 509.061L833.384 504.271L836.185 501.108C837.631 499.391 838.806 497.583 838.626 497.041C838.445 496.499 836.818 495.595 835.01 494.962C829.859 493.245 821.905 485.021 819.736 479.236C818.742 476.525 816.483 472.639 814.675 470.741C811.512 467.216 811.512 467.035 812.054 461.16C812.416 457.907 812.868 453.568 813.139 451.58C813.5 448.778 813.229 447.332 811.512 444.892C810.337 443.175 808.529 441.458 807.354 441.096C804.733 440.102 802.112 442.723 797.232 451.128C791.628 460.98 789.821 466.764 789.278 477.338C788.917 485.744 788.555 487.099 786.386 490.172C784.398 492.883 783.765 495.053 783.223 500.475C782.862 504.271 782.952 507.706 783.404 508.158C783.946 508.7 809.252 512.586 812.777 512.586C813.048 512.586 814.494 513.58 815.94 514.755C817.386 516.021 819.646 517.286 820.911 517.557C822.177 517.919 825.701 520.72 828.865 523.884C834.287 529.397 834.559 529.849 833.564 532.018C832.932 533.373 832.751 534.91 833.112 535.543C833.564 536.266 836.908 539.158 840.614 542.14C844.32 545.123 850.827 550.455 855.075 554.07C859.323 557.595 866.643 562.837 871.343 565.639C894.028 578.925 895.113 579.738 906.952 591.487C913.279 597.814 920.6 604.592 923.221 606.49C930.541 612.004 931.084 612.998 935.512 628.091C937.681 635.683 941.387 640.383 948.888 645.173C952.052 647.252 954.221 649.421 955.034 651.409C956.48 654.934 956.751 662.616 955.396 662.616C951.419 662.616 938.495 653.307 923.13 639.208C911.11 628.272 907.314 623.572 905.687 617.426C904.422 612.546 900.084 603.869 898.999 603.869C898.547 603.869 898.547 606.039 898.818 608.569L899.451 613.359L895.565 609.744C888.334 602.966 886.888 601.881 885.804 602.514C885.171 602.875 885.984 604.592 888.244 607.304L891.678 611.552L886.436 607.213C883.454 604.864 880.742 602.966 880.381 602.966C877.85 602.966 879.025 605.496 883.273 609.473C887.702 613.721 887.159 613.721 880.742 609.654C879.206 608.569 878.212 608.388 877.579 609.021C876.946 609.654 877.941 611.1 880.742 613.45C885.352 617.246 885.533 618.33 881.285 616.071C876.223 613.45 876.314 615.167 881.465 619.053C884.267 621.132 887.34 623.934 888.334 625.289C889.328 626.735 892.853 629.266 896.107 630.893C901.439 633.514 903.157 635.141 911.833 645.715C928.192 665.779 930.993 669.575 930.993 671.564C930.993 672.739 932.078 674.094 933.976 675.179C938.133 677.619 945.454 683.584 945.454 684.488C945.454 686.024 941.297 685.03 933.162 681.505C924.396 677.619 910.839 667.587 902.162 658.639L898.095 654.572L898.005 646.619C897.824 638.123 895.926 631.887 893.576 631.887C892.492 631.887 892.401 632.881 892.763 636.858C893.486 643.907 891.678 643.456 885.261 634.779C879.929 627.73 877.941 625.56 876.585 625.56C875.229 625.56 875.862 628.001 878.212 632.249C879.567 634.598 880.381 636.677 880.2 636.858C880.019 637.129 877.67 635.05 874.958 632.249C869.083 626.193 866.914 624.837 865.83 626.555C865.288 627.458 867.005 629.808 871.614 634.508L878.121 641.196L871.885 636.948C868.541 634.689 865.107 632.791 864.474 632.791C861.853 632.791 863.39 635.321 869.174 640.383C872.428 643.275 874.868 645.805 874.687 646.077C874.416 646.257 872.608 645.625 870.53 644.631C866.191 642.371 865.92 642.371 865.92 643.998C865.92 644.721 867.276 646.257 868.903 647.432C874.054 651.047 903.157 676.354 912.375 685.211C917.256 689.911 922.678 695.605 924.305 697.864C925.932 700.123 929.457 703.377 932.168 705.094C939.76 709.975 970.037 730.129 972.116 731.666C973.833 732.931 973.833 733.022 971.031 733.654C969.405 733.925 967.597 734.829 967.055 735.462C966.512 736.185 965.247 736.727 964.343 736.727C963.168 736.727 962.626 737.36 962.626 738.625C962.626 739.619 961.451 741.517 960.005 742.873C958.559 744.229 957.113 746.759 956.751 748.476C956.39 750.194 955.486 752.092 954.763 752.634C953.679 753.357 953.498 754.713 953.95 758.509C954.221 761.22 954.582 764.654 954.763 766.1C955.034 770.168 965.428 782.911 967.687 782.188C968.32 782.007 969.947 782.911 971.483 784.176C972.929 785.442 974.737 786.436 975.37 786.436C976.002 786.436 977.268 787.159 978.262 788.063C979.889 789.509 980.069 789.509 982.6 786.436C984.046 784.719 985.763 783.273 986.396 783.273C987.752 783.273 994.892 777.488 999.862 772.427C1010.35 761.581 1011.25 760.407 1013.6 753.267C1014.87 749.38 1015.95 745.946 1015.95 745.584C1015.95 745.223 1013.87 743.867 1011.43 742.602C1006.1 739.89 1005.47 738.625 1004.65 728.955L1004.02 721.815L1007.82 715.94C1017.58 700.485 1019.2 694.43 1017.31 680.692C1016.58 675.45 1015.59 667.858 1015.14 663.791C1013.51 650.505 1011.25 645.354 990.101 605.677C987.842 601.429 984.679 596.549 983.052 594.831C981.244 592.934 979.798 590.313 979.437 588.234C978.533 583.353 973.472 568.079 968.772 555.968C966.512 550.274 963.982 543.134 963.078 540.152C962.265 537.169 960.638 533.102 959.553 531.114C958.469 529.126 956.751 525.51 955.848 523.07C954.854 520.268 952.594 517.015 949.883 514.303C947.442 512.044 945.454 509.513 945.454 508.79C945.454 507.977 944.189 505.898 942.743 504C941.206 502.102 939.308 498.306 938.585 495.505C935.874 486.376 927.469 466.493 924.757 463.058C922.769 460.528 918.34 450.044 918.34 447.875C918.34 447.784 919.786 446.88 921.504 445.796C924.486 444.079 924.667 443.717 924.667 439.108C924.667 435.854 924.215 433.775 923.311 433.052C920.78 430.974 920.238 426.364 921.594 417.507C923.492 404.854 923.673 404.312 927.92 399.522C932.349 394.551 933.434 391.478 932.259 387.953C931.265 385.242 929.095 384.79 924.667 386.417Z" fill="black" fill-opacity="0.9"/>
<path d="M1660.46 243.285C1659.48 243.665 1659.59 245.294 1660.84 249.692C1661.44 251.755 1661.93 253.655 1661.93 253.872C1661.93 254.578 1659.54 254.36 1654.76 253.22C1646.24 251.266 1642.33 251.157 1641.62 252.949C1641.41 253.546 1642.27 254.252 1644.72 255.446C1649.44 257.835 1651.18 259.572 1650.8 261.472C1650.42 263.047 1651.18 263.59 1651.99 262.341C1652.26 261.852 1652.48 262.178 1652.75 263.264C1652.97 264.187 1653.3 265.273 1653.46 265.761C1654.44 268.041 1635.92 283.514 1626.15 288.726C1618.82 292.634 1617.95 293.449 1617.63 297.249C1617.41 299.583 1617.84 301.918 1619.8 309.138C1622.24 317.879 1622.24 318.042 1621.26 319.182C1620.67 319.779 1620.12 320.756 1620.02 321.353C1619.85 322.005 1619.47 322.331 1618.98 322.222C1618.55 322.059 1616.54 321.896 1614.53 321.842C1612.52 321.788 1610.79 321.679 1610.73 321.57C1610.62 321.462 1608.94 319.616 1606.99 317.553L1603.35 313.753L1604.98 307.781C1607.37 299.258 1607.37 294.317 1605.03 284.437C1604.06 280.256 1602.92 275.805 1602.43 274.556C1601.67 272.547 1601.4 272.276 1599.6 272.113C1597.92 271.95 1597.59 271.733 1597.21 270.267C1596.94 269.29 1595.75 267.716 1594.17 266.413C1592.76 265.218 1591.13 263.318 1590.54 262.232C1589.34 260.061 1588.37 259.626 1588.8 261.472C1589.13 262.667 1589.13 262.667 1588.37 261.689C1587.93 261.092 1587.55 260.278 1587.55 259.898C1587.55 259.518 1587.23 259.192 1586.79 259.192C1586.14 259.192 1586.09 259.572 1586.52 260.929C1587.12 263.155 1586.74 263.535 1586.03 261.418C1585.43 259.681 1585 259.464 1583.59 260.061C1582.83 260.332 1582.83 260.604 1583.53 262.558C1584.51 265.327 1586.47 267.661 1589.99 270.159L1592.82 272.167L1594.34 280.202C1595.21 284.6 1595.91 289.214 1595.97 290.408C1596.07 291.603 1596.29 293.557 1596.51 294.752C1596.83 296.543 1596.56 297.683 1594.93 301.483C1592.71 306.804 1591.95 307.727 1588.47 309.518C1584.89 311.31 1584.19 311.038 1583.53 307.781L1582.94 305.067L1580.22 304.904C1578.7 304.795 1577.29 304.524 1577.02 304.198C1576.69 303.926 1575.34 303.709 1573.92 303.709C1572.35 303.709 1571.16 303.384 1570.72 302.895C1569.04 300.886 1565.78 302.244 1561.44 306.75C1557.26 311.201 1556.93 311.853 1557.37 316.142C1557.69 318.965 1558.07 320.05 1559.21 321.299C1560.9 323.091 1565.56 325.316 1568.82 325.914C1570.29 326.185 1570.94 326.565 1570.83 327.108C1570.72 327.542 1571.21 328.9 1571.86 330.148L1573.11 332.483L1570.23 335.414L1567.3 338.346L1567.68 341.115L1568.06 343.829L1565.4 345.186C1563.94 345.946 1561.28 347.412 1559.54 348.444C1557.8 349.529 1555.79 350.398 1555.14 350.398C1553.89 350.398 1550.36 346.978 1548.03 343.503C1547.27 342.363 1546.13 340.843 1545.42 340.083C1544.72 339.323 1543.52 337.477 1542.82 336.011L1541.51 333.297L1543.09 331.505C1544.88 329.497 1544.99 328.411 1543.9 325.696C1542.87 323.253 1542.06 323.308 1541.84 325.805C1541.73 327.434 1541.41 327.922 1540.54 328.031C1539.61 328.139 1539.34 327.705 1538.64 324.828C1537.61 320.268 1536.52 319.942 1536.47 324.176C1536.41 327.868 1535.54 326.674 1535.49 322.819C1535.43 321.353 1535.16 320.539 1534.73 320.539C1533.97 320.539 1532.28 323.091 1531.63 325.316C1531.2 326.782 1531.2 326.782 1531.14 324.991C1531.09 322.982 1530.33 322.711 1529.41 324.394C1528.43 326.294 1529.19 328.9 1531.9 332.591C1533.42 334.708 1534.29 336.391 1534.13 336.989C1534.02 337.532 1534.35 339.106 1534.95 340.463C1536.19 343.449 1536.25 344.318 1535.11 345.566C1534.24 346.489 1534.46 346.869 1537.88 351.05C1539.89 353.547 1542.27 356.858 1543.14 358.433C1544.83 361.364 1548.73 365.056 1550.2 365.056C1551.72 365.056 1565.51 360.116 1568.01 358.704C1569.36 357.89 1572.24 356.098 1574.47 354.633C1578.49 351.972 1578.54 351.972 1582.34 352.19C1591.19 352.678 1606.77 354.795 1608.94 355.773C1610.19 356.316 1612.8 357.944 1614.75 359.356C1616.65 360.767 1619.26 362.396 1620.5 362.939C1622.57 363.916 1623 363.916 1626.21 363.156C1628.05 362.722 1630.98 362.342 1632.67 362.342H1635.71L1637.01 359.519C1638.09 357.239 1638.8 356.478 1641.03 355.338C1642.55 354.524 1645.26 352.841 1647.16 351.538C1649.93 349.584 1650.85 348.498 1652.26 345.621C1653.84 342.418 1654 341.657 1653.95 337.423C1653.95 334.871 1653.51 330.04 1653.02 326.728C1652.54 323.471 1651.88 317.607 1651.61 313.699C1651.34 309.844 1650.96 305.935 1650.8 305.067C1650.53 303.764 1650.74 303.112 1651.83 301.918C1653.62 299.963 1654.44 298.389 1655.96 293.666C1660.08 281.179 1663.12 277.433 1669.96 276.348C1672.68 275.913 1675.55 274.556 1678.11 272.384C1679.79 270.919 1679.84 270.756 1679.25 268.964C1678.87 267.933 1677.62 265.707 1676.48 264.024C1675.34 262.341 1674.25 260.007 1674.03 258.866C1673.55 255.392 1670.61 250.452 1666.76 246.543C1663.39 243.177 1662.2 242.525 1660.46 243.285Z" fill="black" fill-opacity="0.9"/>
<path d="M199.729 243.651C199.783 244.031 200.109 245.769 200.489 247.452C201.412 251.252 200.652 251.632 199.186 248.157C198.209 245.877 197.395 245.171 196.798 246.149C196.689 246.366 197.286 248.212 198.209 250.275C199.078 252.283 199.946 254.835 200.109 255.921C200.435 257.658 200.326 257.821 199.403 257.387C197.503 256.626 195.929 256.464 195.929 257.007C195.929 257.821 199.675 260.644 201.955 261.621C203.041 262.055 204.072 262.707 204.289 262.978C205.158 264.39 206.244 273.185 206.244 279.048C206.244 285.4 206.19 285.563 204.398 288.82C202.444 292.294 201.141 293.706 196.743 296.963L194.029 299.026L193.703 296.366C193.486 294.955 193.594 292.892 193.866 291.806C194.735 288.82 193.432 286.866 189.197 284.803C184.691 282.577 180.185 282.088 177.471 283.608C172.313 286.431 171.336 295.118 175.408 302.175C176.711 304.401 176.819 308.093 175.625 309.938C175.136 310.644 173.833 311.621 172.747 312.11C171.336 312.762 169.979 314.119 168.459 316.453C164.115 322.914 163.41 325.411 164.387 330.297C164.713 331.98 165.201 337.572 165.418 342.729C165.961 353.098 166.341 354.293 169.653 355.704C172.096 356.736 184.528 356.844 186.103 355.867C187.46 354.999 189.957 355.976 191.477 358.093C192.129 358.907 193.377 359.776 194.246 359.993C195.169 360.156 196.852 360.807 197.992 361.35C206.081 365.259 218.296 363.196 225.245 356.682C229.643 352.61 231 349.135 232.574 338.277C233.986 328.288 235.397 320.633 235.831 320.199C235.994 320.036 239.577 320.253 243.812 320.633C254.724 321.611 278.72 320.688 279.751 319.276C280.403 318.408 280.674 318.462 283.715 320.145C286.538 321.665 287.135 321.828 287.895 321.231C288.981 320.362 292.021 310.97 292.021 308.527C292.021 307.55 292.292 306.464 292.564 306.193C293.595 305.161 295.93 291.806 295.658 288.494C295.332 284.64 295.061 284.26 292.889 284.26C290.446 284.26 289.578 285.128 288.492 288.603C286.755 294.14 281.543 297.941 271.282 301.306C266.885 302.772 265.093 303.098 263.085 302.881C261.673 302.718 260.425 302.392 260.316 302.229C260.153 302.012 262.976 300.818 266.559 299.461C270.142 298.158 273.291 296.8 273.617 296.42C273.943 296.04 274.105 294.683 273.997 293.38L273.834 291.046L277.091 289.851C278.883 289.146 281.217 288.169 282.249 287.626C284.095 286.703 284.149 286.594 284.095 283.717C284.04 280.839 282.792 277.365 281.489 276.551C281.163 276.333 280.892 274.813 280.837 273.185C280.674 267.701 276.657 261.838 271.119 258.961L268.079 257.387L266.722 258.961C265.636 260.155 265.419 260.861 265.691 261.947C265.908 262.707 266.179 265.801 266.342 268.842C266.613 274.705 265.745 278.288 264.116 278.288C263.628 278.288 262.922 278.994 262.487 279.862C261.619 281.545 258.633 284.26 257.71 284.26C257.384 284.26 254.507 285.508 251.358 287.028C244.301 290.449 242.509 291.1 236.592 292.403C233.986 292.946 230.348 294.195 228.502 295.118C225.299 296.746 225.082 296.963 223.236 300.981C222.151 303.261 220.25 306.355 219.002 307.875C217.753 309.341 214.713 313.467 212.27 316.942C209.827 320.471 207.601 323.457 207.33 323.619C206.841 323.945 205.701 322.208 202.769 316.67C200.381 312.11 200.489 311.676 206.135 305.704C210.424 301.144 214.876 293.923 216.83 288.277C217.807 285.508 217.807 285.4 216.559 280.677C215.799 277.691 215.202 273.51 215.039 269.71L214.767 263.575L212.813 262.653C210.913 261.784 210.858 261.567 210.478 258.201C210.316 256.246 209.773 253.478 209.284 252.012C208.795 250.546 208.415 248.646 208.415 247.777C208.415 245.443 207.112 246.149 206.895 248.592C206.624 251.578 205.81 251.035 205.43 247.614C204.941 243.977 203.909 243.868 203.529 247.397C203.204 250.166 202.878 249.84 201.846 245.823C201.466 244.249 200.869 243 200.435 243C200.055 243 199.729 243.326 199.729 243.651Z" fill="black" fill-opacity="0.9"/>
<path d="M342.708 582.372C348.283 585.16 353.07 588.842 354.279 591.156C354.753 592.103 355.857 593.997 356.751 595.364C358.224 597.573 358.645 597.889 360.223 597.889C361.748 597.889 362.485 598.362 364.536 600.572C365.904 602.044 367.376 603.99 367.902 604.885L368.797 606.568L365.272 610.25C363.326 612.301 360.749 614.405 359.592 614.984C358.382 615.562 356.541 617.193 355.437 618.665C354.385 620.086 353.07 621.401 352.491 621.611C351.965 621.821 350.44 623.61 349.072 625.661C347.705 627.712 345.338 630.658 343.812 632.183C339.815 636.338 335.397 641.546 335.923 641.546C336.133 641.546 337.132 641.072 338.079 640.494C339.026 639.915 340.183 639.442 340.656 639.442C341.13 639.442 342.971 638.495 344.706 637.39C348.336 635.024 352.859 633.13 354.753 633.13C356.541 633.13 362.59 627.555 365.588 623.136C368.008 619.612 368.06 619.454 368.428 614.142C368.797 609.303 368.954 608.619 370.164 607.515C370.9 606.883 371.9 606.305 372.373 606.305C374.425 606.305 379.579 621.874 379.053 626.45C378.895 627.66 378.527 629.606 378.264 630.763C377.738 632.604 377.843 633.13 378.843 634.708C379.737 636.233 379.947 637.39 380 641.178C380 644.702 379.842 645.911 379.211 646.28C378.106 646.963 370.9 646.911 367.587 646.227C365.115 645.701 364.536 645.754 361.117 647.069C359.066 647.858 357.014 648.699 356.594 648.962C355.857 649.435 352.175 651.224 346.863 653.696C341.919 656.01 331.241 659.903 327.665 660.692C325.561 661.165 323.351 661.901 322.72 662.322C322.142 662.743 321.248 663.111 320.722 663.111C319.196 663.111 319.564 665.005 322.457 671.527C325.876 679.311 328.138 685.202 330.452 692.04C331.452 695.091 332.872 698.983 333.608 700.719C334.345 702.455 335.186 705.4 335.502 707.241C336.028 710.502 335.975 710.713 334.345 713.816C333.345 715.71 331.241 718.287 329.243 720.18C327.349 721.969 324.456 724.704 322.72 726.334L319.617 729.227L323.351 731.91C327.77 735.118 328.611 736.275 329.558 740.326C329.979 742.167 330.663 743.639 331.346 744.113C337.237 748.373 339.71 751.108 339.078 752.739C338.552 754.001 330.189 759.366 328.664 759.366C327.875 759.366 325.771 758.682 323.93 757.788L320.564 756.263L314.883 756.999C307.835 757.946 303.995 758.945 298.42 761.26C296 762.259 293.633 763.048 293.107 763.048C292.581 763.048 290.846 762.207 289.268 761.155L286.375 759.314L277.17 759.682C266.808 760.05 262.39 759.577 257.34 757.525C255.5 756.789 253.606 756.21 253.027 756.21C251.923 756.21 247.294 753.528 244.191 751.056C242.981 750.109 241.771 749.373 241.456 749.373C240.719 749.373 239.141 746.9 239.457 746.322C240.351 744.902 235.46 743.061 230.726 743.061C229.253 743.061 227.359 742.64 226.15 742.009C224.992 741.43 223.73 740.957 223.309 740.957C222.257 740.957 213.736 734.435 213.316 733.277C213.158 732.857 213 731.226 213 729.701C213 727.386 213.263 726.545 214.578 724.914C216.051 723.073 218.26 718.024 218.26 716.551C218.26 716.13 219.101 715.078 220.206 714.132C221.837 712.659 222.415 712.501 224.203 712.711C225.571 712.922 226.833 713.553 227.938 714.605C229.726 716.341 230.778 716.498 235.354 715.92L237.826 715.552L237.458 713.658C237.248 712.606 237.143 710.187 237.143 708.241C237.195 705.611 237.037 704.559 236.406 704.033C233.566 701.718 233.408 701.403 233.671 699.299C234.039 696.511 233.04 693.408 230.726 689.989C228.622 686.991 228.359 685.36 229.358 681.994C229.831 680.469 229.831 678.68 229.358 674.63C228.832 669.738 228.885 669.002 229.831 665.531C231.515 659.797 231.935 658.903 233.671 658.062C235.46 657.115 237.511 657.378 241.193 658.956C243.98 660.218 243.717 660.849 240.404 661.112C238.352 661.27 237.984 661.481 237.563 662.743C236.932 664.794 237.826 665.741 239.194 664.531C240.299 663.532 241.403 663.374 241.403 664.163C241.403 664.479 240.456 666.057 239.247 667.635C237.669 669.791 237.248 670.738 237.669 671.159C237.984 671.474 238.247 672.211 238.247 672.737C238.247 673.894 244.717 687.412 246.347 689.621C246.926 690.462 248.031 692.251 248.767 693.618C251.87 699.351 253.396 701.929 256.446 706.452C263.652 717.287 265.178 719.391 265.651 719.076C265.914 718.918 266.124 718.024 266.124 717.13C266.124 716.183 266.65 714.395 267.229 713.08C268.071 711.291 268.334 709.45 268.439 705.453C268.544 701.981 268.965 698.668 269.754 695.722C270.437 693.25 271.016 690.304 271.121 689.147C271.226 687.99 271.542 686.097 271.91 684.939C272.226 683.782 272.857 680.679 273.225 678.102C274.014 672.684 274.856 669.107 275.645 667.477C276.118 666.635 276.065 665.268 275.645 662.164C275.119 658.482 275.119 657.693 275.96 655.432C277.012 652.591 278.695 651.382 280.536 652.065C281.168 652.276 282.588 652.749 283.745 653.117C285.323 653.591 286.112 654.222 286.743 655.537C288.005 657.956 287.953 658.377 286.375 658.377C284.797 658.377 284.218 659.429 283.85 663.111C283.692 664.689 283.061 667.056 282.483 668.371C281.115 671.369 281.115 672.842 282.43 674.525C283.271 675.577 283.482 676.681 283.482 679.627C283.482 683.309 285.27 697.984 285.849 698.878C286.007 699.141 286.375 701.613 286.638 704.401C286.901 707.241 287.216 709.661 287.427 709.818C287.585 709.976 288.689 709.187 289.951 708.03C293.37 704.822 293.949 704.453 296.579 704.138C298.735 703.927 298.998 703.717 299.156 702.402C299.261 701.613 299.787 700.719 300.366 700.456C302.207 699.457 303.048 696.932 302.628 693.934C302.417 692.461 302.312 690.304 302.365 689.147C302.417 687.99 302.102 684.098 301.628 680.469C300.366 670.422 299.524 659.745 299.577 654.012L299.63 648.857L303.259 645.175C305.258 643.124 308.045 640.599 309.518 639.547C318.723 632.814 331.452 621.769 332.609 619.507C333.819 617.087 336.08 614.721 339.867 611.722L342.918 609.408V603.044C342.918 595.364 342.287 593.734 337.606 588.684C334.397 585.265 333.766 583.424 335.028 581.005C335.87 579.48 337.606 579.795 342.708 582.372Z" fill="black" fill-opacity="0.9"/>
<path d="M1670.54 577.383C1666.9 577.958 1666.26 578.277 1663.19 581.279C1660.96 583.45 1658.91 584.727 1656.49 585.557C1654.57 586.196 1651.83 587.345 1650.42 588.111C1648.63 589.133 1647.48 589.389 1646.59 589.069C1645.89 588.75 1644.55 588.495 1643.59 588.495C1641.99 588.431 1641.55 589.005 1638.61 594.944C1636.56 599.159 1634.71 604.204 1633.5 609.057C1632.41 613.208 1630.88 617.933 1630.05 619.594C1629.22 621.254 1627.75 625.149 1626.79 628.342C1625.84 631.471 1624.24 636.261 1623.28 638.879C1622.26 641.561 1621.24 645.52 1620.98 647.819C1620.66 650.693 1620.03 652.608 1618.88 654.205C1614.85 659.697 1612.55 662.123 1609.87 663.656C1603.1 667.551 1597.99 672.277 1596.14 676.491C1595.18 678.599 1593.91 680.387 1593.08 680.706C1592.31 681.089 1591.61 682.047 1591.48 682.941C1591.35 683.835 1590.97 684.793 1590.65 685.112C1590.33 685.495 1590.08 686.262 1590.08 686.836C1590.08 688.305 1588.16 688.752 1578.71 689.646C1576.79 689.838 1575.01 690.157 1574.62 690.348C1573.54 690.987 1562.62 689.135 1562.62 688.305C1562.62 686.964 1560 684.218 1556.36 681.728C1554.25 680.323 1552.02 678.088 1551.12 676.555C1550.23 675.086 1546.78 669.658 1543.4 664.55C1535.99 653.311 1535.48 651.587 1538.29 647.372C1541.35 642.774 1540.65 641.178 1536.95 644.307C1533.75 646.989 1533.24 646.542 1533.24 641.178C1533.24 638.559 1532.99 636.261 1532.73 636.069C1531.58 635.367 1530.82 636.835 1530.37 640.603C1530.11 642.838 1529.73 644.626 1529.41 644.626C1529.15 644.626 1528.26 642.838 1527.49 640.603C1525.71 635.877 1525 634.728 1524.11 635.622C1523.73 636.005 1523.92 637.857 1524.62 640.794C1525.26 643.285 1525.58 645.456 1525.45 645.648C1525.26 645.775 1524.05 644.371 1522.71 642.391C1520.21 638.815 1519.58 638.368 1518.87 639.581C1518.17 640.667 1519.07 642.966 1521.43 646.414C1522.64 648.266 1523.66 650.437 1523.66 651.331C1523.66 653.119 1522.07 654.141 1520.92 652.991C1520.53 652.608 1519.26 652.289 1518.11 652.289C1516.32 652.289 1516 652.481 1516 653.885C1516 655.035 1516.45 655.546 1517.72 655.865C1518.68 656.12 1521.3 657.142 1523.47 658.164C1525.64 659.122 1528.01 659.952 1528.64 659.952C1530.3 659.952 1533.11 664.103 1534.52 668.828C1536.18 674.128 1538.48 678.407 1540.84 680.706C1541.93 681.728 1543.14 683.643 1543.46 684.921C1543.84 686.198 1545.25 688.688 1546.65 690.476C1548.38 692.647 1549.21 694.308 1549.21 695.649C1549.21 697.628 1547.87 698.395 1546.97 696.99C1546.78 696.607 1545.95 696.351 1545.12 696.351C1544.35 696.351 1543.4 696.032 1542.95 695.585C1542.57 695.202 1540.52 694.627 1538.54 694.372C1536.5 694.052 1533.94 693.669 1532.86 693.478C1531.33 693.158 1530.37 693.541 1528.01 695.393C1524.88 697.692 1523.98 699.608 1523.41 704.653C1523.22 706.249 1522.9 708.74 1522.64 710.208C1522 714.487 1524.94 717.808 1527.37 715.381C1527.88 714.87 1528.71 715.253 1530.69 716.977C1532.09 718.318 1533.88 719.34 1534.65 719.34C1535.35 719.34 1536.88 720.043 1537.97 720.809C1539.76 722.214 1540.27 722.278 1543.78 721.767C1545.89 721.447 1548.31 721.192 1549.08 721.192C1550.1 721.128 1551.25 720.234 1552.59 718.318C1553.68 716.786 1554.89 715.509 1555.27 715.509C1555.66 715.509 1557.83 716.53 1560.13 717.744C1566.26 721 1572.45 723.172 1575.58 723.172C1578.64 723.172 1589.56 719.915 1593.91 717.744C1596.84 716.275 1600.36 713.657 1604.64 709.889C1605.91 708.74 1608.72 706.952 1610.89 705.93C1616.7 703.12 1621.75 698.075 1628.45 688.433C1636.95 676.172 1637.97 674.128 1638.67 668.381C1639.95 657.845 1643.01 651.65 1646.91 651.65C1648.44 651.65 1649.08 651.076 1651.06 647.819C1653.55 643.732 1656.17 641.369 1659.36 640.347C1660.51 639.964 1661.34 639.262 1661.47 638.432C1661.79 636.133 1659.94 635.367 1653.68 635.303C1645.44 635.239 1645.31 635.111 1647.36 630.705C1652.47 619.402 1653.3 618.189 1660.64 610.462C1664.66 606.247 1667.98 602.352 1667.98 601.777C1667.98 601.202 1667.54 600.372 1667.02 599.925C1665.17 598.393 1665.94 595.774 1669.58 591.177C1674.3 585.366 1675.01 584.599 1677.75 582.492C1680.5 580.448 1680.56 579.938 1678.84 578.213C1677.56 576.936 1674.88 576.681 1670.54 577.383Z" fill="black" fill-opacity="0.9"/>
</svg>
