<svg width="1920" height="931" viewBox="0 0 1920 931" fill="none" xmlns="http://www.w3.org/2000/svg">
<path d="M959.975 259.993C959.188 261.175 958.695 262.454 958.991 262.848C959.68 264.029 964.799 261.962 966.866 259.698C968.539 257.926 968.44 257.828 964.996 257.828C962.534 257.828 961.058 258.418 959.975 259.993Z" fill="black" fill-opacity="0.9"/>
<path d="M931.528 263.143C931.232 263.93 931.331 264.915 931.823 265.21C933.103 265.998 934.185 263.734 933.004 262.552C932.414 261.962 931.922 262.159 931.528 263.143Z" fill="black" fill-opacity="0.9"/>
<path d="M948.065 264.127C940.584 267.08 933.3 270.723 926.114 275.25C917.157 280.96 892.45 298.579 892.942 298.973C894.024 300.056 900.029 297.497 907.412 292.772C911.94 289.917 917.649 286.866 920.11 286.078C923.555 284.897 924.441 284.11 924.441 282.338C924.441 280.271 925.13 279.877 929.264 279.286C931.823 278.893 936.253 277.514 939.009 276.136C946.392 272.593 958.4 261.568 954.758 261.765C954.266 261.863 951.313 262.848 948.065 264.127Z" fill="black" fill-opacity="0.9"/>
<path d="M996.987 263.438C997.184 264.62 998.168 265.21 999.742 265.21C1001.32 265.21 1002.3 264.62 1002.5 263.438C1002.79 262.159 1002.2 261.765 999.742 261.765C997.282 261.765 996.691 262.159 996.987 263.438Z" fill="black" fill-opacity="0.9"/>
<path d="M921.487 268.262C919.617 270.132 920.011 270.919 922.373 270.033C923.259 269.738 923.949 268.852 923.949 268.065C923.949 266.293 923.456 266.293 921.487 268.262Z" fill="black" fill-opacity="0.9"/>
<path d="M959.877 270.624C955.054 272.199 949.148 273.971 946.884 274.562C944.325 275.152 942.553 276.333 942.159 277.515C941.175 280.566 936.352 284.011 929.067 286.768C923.949 288.736 921.094 290.606 917.551 294.347C913.909 298.186 910.07 300.647 899.931 305.568C886.839 311.967 879.654 316.888 879.654 319.448C879.654 321.318 879.85 321.219 886.051 318.266C889.004 316.888 893.04 315.51 895.108 315.215C897.47 314.821 900.325 313.345 902.884 310.982C905.148 308.915 909.184 306.553 912.235 305.568C921.192 302.615 924.54 300.45 930.446 293.756C936.45 286.964 941.175 283.421 944.128 283.421C945.112 283.421 947.868 281.649 950.231 279.385C955.349 274.66 959.877 272.593 965.094 272.593C967.555 272.593 969.524 271.904 970.508 270.821C974.15 266.785 971.886 266.785 959.877 270.624Z" fill="black" fill-opacity="0.9"/>
<path d="M979.564 274.66C975.627 275.546 972.772 278.007 973.756 279.582C974.051 280.074 975.725 280.467 977.595 280.467C979.957 280.467 981.434 279.778 982.91 277.908C984.977 275.25 985.568 273.479 984.289 273.676C983.796 273.774 981.729 274.168 979.564 274.66Z" fill="black" fill-opacity="0.9"/>
<path d="M986.946 275.546C986.946 277.121 987.635 277.515 990.392 277.515C993.148 277.515 993.836 277.121 993.836 275.546C993.836 273.971 993.148 273.577 990.392 273.577C987.635 273.577 986.946 273.971 986.946 275.546Z" fill="black" fill-opacity="0.9"/>
<path d="M1004.07 275.054C1004.37 275.939 1004.66 276.924 1004.66 277.121C1004.66 277.318 1005.35 277.514 1006.24 277.514C1008.41 277.514 1007.52 274.168 1005.25 273.774C1003.88 273.479 1003.58 273.774 1004.07 275.054Z" fill="black" fill-opacity="0.9"/>
<path d="M968.54 278.991C968.244 279.877 968.244 280.763 968.54 281.058C969.425 281.944 971.197 280.467 971.197 278.893C971.197 277.022 969.327 277.121 968.54 278.991Z" fill="black" fill-opacity="0.9"/>
<path d="M957.023 283.027C956.432 284.503 958.696 287.26 960.665 287.358C961.748 287.358 961.452 283.913 960.172 282.633C958.597 281.058 957.712 281.157 957.023 283.027Z" fill="black" fill-opacity="0.9"/>
<path d="M985.863 282.436C975.528 282.929 975.429 282.929 972.772 286.078C970.803 288.342 969.228 289.327 967.161 289.327C965.586 289.327 962.633 289.917 960.664 290.705C958.597 291.492 951.903 293.756 945.702 295.725C938.91 297.792 931.725 300.942 927.492 303.501C923.653 305.864 919.42 308.128 918.043 308.521C916.664 308.915 913.81 310.884 911.644 312.852C909.479 314.92 905.836 317.085 903.573 317.774C901.21 318.365 898.454 320.137 896.977 321.81C895.206 323.976 893.631 324.763 891.466 324.763C889.201 324.763 888.217 325.255 887.823 326.633C887.528 327.618 885.264 329.783 882.803 331.456C880.244 333.13 876.897 335.788 875.224 337.56L872.271 340.611L876.7 339.922C883.984 338.839 886.544 336.969 886.544 332.933C886.544 330.964 886.741 330.866 889.004 331.85C892.154 333.228 895.993 331.555 905.246 324.763C908.789 322.204 913.121 319.349 914.893 318.463C916.96 317.38 918.043 316.101 918.043 314.821C918.043 313.049 918.239 312.951 919.519 313.935C920.7 314.92 921.389 314.92 922.177 314.132C922.866 313.443 924.145 312.951 925.031 312.951C925.917 312.951 930.544 310.49 935.367 307.537C944.029 302.025 956.825 297.201 962.436 297.201C964.11 297.201 966.866 296.119 968.539 294.839C971.788 292.378 979.17 289.622 988.915 287.358C994.427 285.98 997.282 284.307 996.691 282.732C996.494 282.338 991.573 282.141 985.863 282.436Z" fill="black" fill-opacity="0.9"/>
<path d="M999.742 282.436C999.742 282.928 1000.33 283.421 1001.12 283.421C1001.91 283.421 1002.89 282.928 1003.19 282.436C1003.48 281.846 1002.89 281.452 1001.81 281.452C1000.63 281.452 999.742 281.846 999.742 282.436Z" fill="black" fill-opacity="0.9"/>
<path d="M945.997 285.389C944.029 286.177 939.304 291.295 939.993 291.886C940.584 292.476 952.593 288.539 954.168 287.259C955.447 286.078 955.447 285.881 953.774 285.291C951.412 284.306 948.557 284.306 945.997 285.389Z" fill="black" fill-opacity="0.9"/>
<path d="M1005.55 287.358C997.675 288.736 991.376 293.166 992.065 296.808C992.36 298.383 992.754 298.284 994.919 295.922L997.38 293.166L999.251 295.233C1001.61 297.792 1001.91 297.792 1009.39 294.051L1015.79 291L1023.07 292.772L1030.36 294.642L1032.92 291.984L1035.57 289.425L1032.62 288.244C1029.08 286.866 1011.55 286.177 1005.55 287.358Z" fill="black" fill-opacity="0.9"/>
<path d="M971.295 298.875C961.452 301.729 949.935 305.47 945.702 307.143C936.647 310.785 925.917 317.38 920.405 322.597C917.748 325.255 915.483 326.436 913.712 326.436C911.842 326.436 909.577 327.815 906.427 330.866C903.868 333.326 895.206 339.627 887.036 344.942C872.172 354.588 868.53 357.345 857.014 367.09C849.434 373.487 849.139 373.783 849.139 376.736C849.139 380.181 852.19 379.098 854.553 374.768C856.128 371.815 857.604 370.732 862.132 369.058C865.184 367.976 869.121 365.711 870.696 364.137C872.271 362.463 874.633 361.184 875.815 361.184C878.964 361.184 883.788 357.148 887.528 351.439C889.201 348.682 891.17 346.419 891.859 346.419C894.812 346.419 903.967 340.906 915.582 332.244C932.611 319.349 935.662 317.774 953.774 311.868C962.338 309.112 970.902 305.765 972.772 304.485C978.678 300.45 982.123 298.973 984.387 299.564C987.242 300.253 990.195 298.087 989.702 295.626C989.407 293.756 988.62 293.855 971.295 298.875Z" fill="black" fill-opacity="0.9"/>
<path d="M1021.3 299.17C1018.25 299.662 1010.57 301.335 1004.07 303.009C997.675 304.584 989.899 306.159 986.946 306.552C981.138 307.34 977.201 308.915 975.232 311.376C974.051 312.754 974.347 312.951 977.792 312.951C979.957 312.951 989.211 311.573 998.365 309.801C1012.93 307.045 1017.07 306.651 1031.73 306.651C1046.5 306.651 1049.16 306.848 1054.18 308.718C1059.69 310.884 1059.79 310.884 1059.79 308.915C1059.79 307.832 1059 306.749 1058.11 306.356C1057.13 306.06 1053.29 304.288 1049.45 302.418C1043.84 299.761 1041.08 299.071 1034.69 298.678C1030.36 298.481 1024.35 298.678 1021.3 299.17Z" fill="black" fill-opacity="0.9"/>
<path d="M1019.23 311.966C1017.76 312.36 1014.11 314.132 1011.26 315.805C1005.45 319.152 1002.5 319.447 994.919 317.676C990.194 316.593 989.702 316.691 987.537 318.758C985.765 320.432 984.288 320.826 981.434 320.629C977.89 320.333 977.595 320.53 977.299 323.188L976.906 326.043L982.517 325.353C985.667 325.058 998.168 322.696 1010.47 320.333C1041.18 314.23 1042.86 314.034 1046.6 317.183C1048.27 318.66 1051.42 320.038 1053.68 320.432C1057.82 321.121 1062.74 320.333 1062.74 319.054C1062.74 317.873 1055.65 314.23 1050.04 312.557C1044.23 310.884 1024.15 310.49 1019.23 311.966Z" fill="black" fill-opacity="0.9"/>
<path d="M960.566 315.412C937.926 321.219 906.821 341.103 886.839 362.561C883 366.597 879.949 369.058 878.571 369.058C877.389 369.058 874.436 371.224 871.483 374.177C868.629 377.031 864.199 380.969 861.443 382.839C858.785 384.709 855.635 387.859 854.553 389.828C852.879 392.879 852.289 393.273 850.812 392.289C849.336 391.403 848.647 391.698 846.678 393.863C844.119 396.816 839.984 406.956 840.477 409.121C840.674 410.007 844.414 407.054 850.123 401.541C860.557 391.305 872.763 381.362 885.461 372.503C891.957 367.877 894.517 365.416 896.584 361.675C898.061 359.018 900.718 355.573 902.49 354.096C908.79 348.781 928.575 336.772 946.884 327.125C962.338 318.955 972.28 312.951 970.212 313.049C969.917 313.049 965.587 314.132 960.566 315.412Z" fill="black" fill-opacity="0.9"/>
<path d="M1020.41 323.778C1020.41 325.452 1025.14 329.684 1028.58 331.161C1033.8 333.326 1041.68 334.016 1044.92 332.637C1047.58 331.554 1048.17 331.752 1051.22 334.016C1056.64 338.15 1078.39 345.828 1080.06 344.154C1081.25 342.973 1078.29 339.528 1076.03 339.528C1074.16 339.528 1073.47 338.839 1072.78 336.279C1071.99 333.228 1071.6 333.031 1058.51 328.996C1051.13 326.731 1042.37 324.369 1038.92 323.778C1030.75 322.499 1020.41 322.499 1020.41 323.778Z" fill="black" fill-opacity="0.9"/>
<path d="M956.924 326.534C950.624 328.7 945.407 331.752 933.989 340.02C928.87 343.662 920.897 348.781 916.271 351.537C911.546 354.195 905.836 357.935 903.573 359.805C899.734 362.955 894.714 369.648 895.6 370.534C896.584 371.617 906.821 365.613 917.058 357.935C928.378 349.372 945.899 339.528 957.514 335.197C962.929 333.228 963.913 332.44 964.503 329.783C965.291 326.929 965.684 326.731 969.721 326.731C972.083 326.731 974.346 326.239 974.642 325.747C975.627 324.074 962.239 324.664 956.924 326.534Z" fill="black" fill-opacity="0.9"/>
<path d="M1001.71 329.094C1000.33 329.98 996.691 330.669 993.344 330.669C986.454 330.669 985.272 331.259 984.091 335.197L983.304 338.15L998.167 337.756C1012.54 337.362 1020.41 336.378 1020.41 334.705C1020.41 334.311 1019.13 332.736 1017.46 331.161C1013.92 327.815 1005.75 326.732 1001.71 329.094Z" fill="black" fill-opacity="0.9"/>
<path d="M1021.4 335.788C1021.4 338.741 1022.87 340.906 1024.15 340.118C1024.74 339.725 1026.71 340.808 1028.58 342.382C1031.14 344.647 1034.59 346.024 1044.04 348.387C1058.51 352.029 1062.05 353.407 1066.97 357.345C1069.83 359.707 1071.3 360.199 1073.47 359.707C1075.63 359.215 1076.92 359.707 1079.28 361.675C1080.85 363.054 1082.62 364.137 1083.21 364.137C1084.89 364.137 1085.48 360.986 1084.2 359.412C1081.64 356.36 1068.35 348.387 1060.97 345.533C1052.6 342.382 1024.65 333.622 1022.68 333.622C1021.99 333.622 1021.4 334.606 1021.4 335.788Z" fill="black" fill-opacity="0.9"/>
<path d="M973.165 336.575C953.774 340.611 933.3 351.34 911.841 368.96C903.573 375.752 901.309 377.031 901.309 374.964C901.309 373.586 897.076 373.684 895.6 375.161C894.91 375.85 894.419 377.326 894.419 378.508C894.419 381.165 892.843 382.445 892.056 380.378C891.269 378.212 888.118 378.606 885.953 380.969C884.969 382.15 878.964 387.17 872.763 392.19C860.951 401.64 851.206 411.483 848.647 416.405C847.367 418.768 846.678 419.161 844.709 418.669C842.741 418.177 841.953 418.669 840.28 421.523C839.098 423.393 837.622 425.264 836.835 425.559C836.047 425.855 834.866 427.922 834.275 430.185C833.291 433.335 832.307 434.615 829.747 435.698C826.007 437.174 824.53 439.734 826.597 441.013C830.239 443.278 837.228 436.879 839.295 429.497C840.575 425.165 841.658 424.772 842.445 428.414C842.642 429.89 844.906 428.414 853.371 421.523C859.277 416.799 864.888 412.467 865.873 411.976C866.857 411.385 868.432 409.613 869.416 408.038C874.436 399.376 882.409 393.076 900.816 382.839C907.904 378.902 918.239 372.208 923.949 367.976C937.434 358.033 944.62 353.702 950.526 352.226C953.774 351.439 955.644 350.257 956.53 348.584C958.204 345.533 962.929 343.17 965.882 343.859C967.259 344.252 969.228 343.859 970.508 343.071C971.689 342.284 974.347 341.299 976.315 341.004C980.253 340.217 982.419 338.445 981.828 336.279C981.631 335.098 980.253 335.098 973.165 336.575Z" fill="black" fill-opacity="0.9"/>
<path d="M987.242 343.859C980.352 345.434 978.087 346.517 972.87 350.651C969.917 352.915 968.835 353.309 968.244 352.325C966.964 350.356 959.09 351.734 952.199 355.179C948.853 356.852 940.781 362.266 934.285 367.188C927.689 372.208 918.83 377.917 914.105 380.083C904.754 384.611 894.91 391.993 879.654 405.971C873.944 411.286 867.841 416.7 866.07 417.98C863.904 419.752 862.526 421.917 861.837 424.87C860.557 429.792 859.376 430.973 858.49 428.118C857.604 425.264 856.029 425.658 856.029 428.808C856.029 432.548 855.045 435.993 853.962 435.993C853.47 435.993 853.076 434.91 853.076 433.533C853.076 432.154 852.683 431.071 852.092 431.071C851.6 431.071 851.108 431.761 851.108 432.647C851.108 433.533 849.729 434.714 848.155 435.304C845.3 436.387 845.103 436.682 845.694 440.128C846.383 443.868 846.383 443.868 843.331 443.278C840.87 442.785 839.788 443.179 837.327 445.64C834.964 448.002 834.374 449.479 834.374 452.727C834.374 456.566 834.472 456.763 837.031 456.467C839.492 456.172 839.788 455.779 839.689 452.432C839.591 448.691 840.87 447.805 843.036 449.971C844.02 450.956 846.58 448.888 855.34 439.635C861.837 432.843 868.137 427.134 870.696 425.855C873.846 424.181 875.421 422.705 876.208 420.244C877.094 417.586 880.638 414.534 895.501 403.707C905.443 396.423 919.815 385.497 927.394 379.393C942.947 366.991 947.671 363.644 955.447 359.707C960.074 357.345 961.157 357.148 963.815 358.132C967.161 359.313 971.984 358.329 991.376 352.325C997.282 350.553 1002.79 349.372 1005.16 349.568C1008.6 349.863 1009.09 349.568 1009.39 347.698C1009.68 346.024 1009.09 345.138 1007.32 344.548C1002.79 342.776 993.443 342.481 987.242 343.859Z" fill="black" fill-opacity="0.9"/>
<path d="M1015.98 343.268C1012.34 344.056 1010.57 346.32 1011.75 348.879C1012.64 350.848 1013.72 351.143 1020.51 351.734C1026.81 352.325 1028.88 352.915 1031.24 354.883C1034.59 357.738 1037.54 357.64 1037.94 354.785C1038.43 351.143 1021.4 342.185 1015.98 343.268Z" fill="black" fill-opacity="0.9"/>
<path d="M1044.53 353.309C1043.84 354.49 1044.73 356.262 1046.1 356.262C1047.29 356.262 1047.29 353.604 1046.1 352.816C1045.61 352.521 1044.92 352.718 1044.53 353.309Z" fill="black" fill-opacity="0.9"/>
<path d="M1050.73 357.443C1050.44 360.593 1050.34 360.691 1046.5 360.396C1041.09 360.002 1032.03 358.427 1024.06 356.557C1014.71 354.392 1001.42 355.278 987.439 359.215C981.533 360.789 970.41 363.742 962.732 365.514C943.833 370.141 932.808 375.358 929.756 381.165C928.772 382.937 928.969 382.937 932.02 382.346C933.792 381.953 939.797 380.083 945.309 378.311C952.298 375.949 957.121 374.964 961.354 374.964C966.866 374.964 967.654 374.669 969.917 372.011C971.493 370.141 973.265 369.058 974.937 369.058C976.316 369.058 984.092 367.68 992.262 366.007C1011.16 362.168 1018.84 361.971 1026.62 365.514C1033.01 368.369 1035.97 368.664 1038.62 366.695C1040.2 365.514 1040.99 365.81 1044.83 368.467C1048.57 371.125 1049.94 371.519 1055.46 371.519C1058.9 371.519 1061.76 371.815 1061.76 372.208C1061.76 373.783 1066.68 376.047 1072.49 377.031C1077.51 377.917 1079.77 379 1084.59 382.937C1090.01 387.268 1095.22 389.237 1095.22 386.875C1095.22 385.299 1079.87 371.519 1074.26 368.271C1071.21 366.4 1065.79 363.94 1062.05 362.758C1056.44 360.888 1055.16 360.002 1053.98 357.443C1052.11 353.407 1051.13 353.506 1050.73 357.443Z" fill="black" fill-opacity="0.9"/>
<path d="M1001.22 372.897C995.805 375.358 995.018 375.555 993.148 374.275C991.179 372.897 990.49 372.996 986.356 375.358C983.6 376.933 980.253 377.917 977.89 377.917C973.756 377.917 959.188 382.642 958.499 384.118C957.514 386.481 951.805 391.993 948.459 393.765C946.293 394.848 939.895 397.211 934.087 399.081C921.389 403.215 913.613 408.235 900.915 420.244C893.04 427.725 864.888 458.731 864.888 460.011C864.888 460.208 866.562 460.011 868.53 459.42C874.436 457.846 880.047 453.121 891.17 440.62C897.962 433.04 904.655 426.642 910.561 422.311C921.685 414.043 950.624 396.62 953.184 396.62C954.168 396.62 957.909 395.044 961.55 393.174C965.094 391.206 971.492 388.843 975.627 387.761C979.761 386.678 985.765 384.217 989.013 382.248C994.722 378.705 994.919 378.606 1002.7 379.197C1007.13 379.492 1011.16 380.181 1011.85 380.674C1012.54 381.264 1016.57 381.658 1020.91 381.756C1027.01 381.756 1031.24 382.544 1040.1 385.299C1046.3 387.17 1053.49 388.745 1055.95 388.745C1058.8 388.745 1060.97 389.336 1061.76 390.221C1063.43 392.289 1071.21 396.62 1073.17 396.62C1074.06 396.62 1077.41 398.392 1080.66 400.557C1083.9 402.722 1087.35 404.494 1088.23 404.494C1089.12 404.494 1090.7 405.774 1091.58 407.349C1093.45 410.597 1096.8 412.172 1098.47 410.499C1100.24 408.727 1097.78 405.184 1090.2 398.49C1086.27 395.044 1080.85 389.926 1078.19 387.268C1075.54 384.513 1073.57 383.134 1073.96 384.02C1074.26 385.004 1074.85 386.58 1075.24 387.466C1075.83 389.138 1075.73 389.138 1073.86 387.466C1072.78 386.58 1071.4 385.792 1070.81 385.792C1070.22 385.792 1068.45 384.709 1066.87 383.331C1065.2 381.855 1061.66 380.476 1058.61 379.886C1055.75 379.295 1049.16 377.622 1044.04 376.047C1028.09 371.125 1022.87 370.043 1014.9 370.043C1008.41 370.043 1006.14 370.534 1001.22 372.897Z" fill="black" fill-opacity="0.9"/>
<path d="M944.816 382.347C927.788 385.497 922.177 388.056 911.054 397.604C906.723 401.345 900.03 406.07 896.289 408.038C886.051 413.452 870.597 430.973 860.656 448.494C857.506 454.007 856.029 455.68 854.553 455.483C853.175 455.286 852.486 455.877 852.289 457.353C851.698 461.192 855.045 460.011 863.707 453.416C866.66 451.251 874.929 442.49 882.114 434.123C895.009 418.964 902.588 411.976 913.121 405.282C922.374 399.376 936.253 392.879 942.553 391.403C948.951 389.926 951.806 387.957 954.07 383.627C955.743 380.378 955.842 380.378 944.816 382.347Z" fill="black" fill-opacity="0.9"/>
<path d="M873.058 386.285C872.763 387.17 872.763 388.056 873.058 388.352C873.944 389.238 875.716 387.761 875.716 386.186C875.716 384.316 873.846 384.414 873.058 386.285Z" fill="black" fill-opacity="0.9"/>
<path d="M989.407 389.237C944.423 403.313 921.587 417.291 882.607 454.4C874.043 462.571 871.483 464.539 869.023 464.539C866.463 464.539 865.873 465.13 863.51 470.347C862.132 473.497 860.951 476.745 860.951 477.434C860.951 478.419 860.557 478.32 859.376 477.139C857.9 475.761 857.112 476.154 849.336 481.667C843.922 485.506 839.985 489.148 838.41 491.805C837.032 494.07 835.161 496.235 834.275 496.53C833.488 496.826 831.815 498.794 830.535 500.96C829.354 503.125 827.582 505.389 826.696 506.078C825.613 506.964 824.924 509.031 824.727 511.984C824.629 514.642 824.727 516.709 825.023 516.709C825.219 516.709 828.665 514.15 832.504 511C837.13 507.358 840.28 504.011 841.363 501.452C842.347 499.286 843.233 498.105 843.233 498.696C843.233 499.385 843.528 499.976 844.02 499.976C844.414 499.976 850.222 494.561 857.014 487.868C863.806 481.273 877.094 468.969 886.544 460.701C895.994 452.333 908.889 440.816 915.09 435.107C922.866 427.823 927.886 424.083 930.937 422.902C933.497 421.917 940.781 417.98 947.179 414.141C969.13 401.05 979.072 397.801 1000.73 396.915C1018.05 396.226 1032.92 398.687 1053.29 405.577C1070.62 411.385 1073.37 412.763 1074.45 415.617C1075.04 417.094 1076.13 417.783 1078.29 417.882C1080.26 417.98 1083.31 419.654 1087.05 422.607C1092.47 426.839 1096.41 428.217 1097.59 426.347C1098.47 424.969 1088.43 412.566 1083.51 409.023C1077.11 404.298 1072.39 402.427 1066.58 402.329C1061.95 402.231 1061.76 402.034 1061.76 399.474C1061.76 396.816 1061.56 396.718 1058.61 397.309C1056.83 397.702 1054.28 397.998 1052.9 398.097C1050.73 398.097 1050.44 397.702 1050.44 394.356C1050.44 392.387 1050.14 390.714 1049.75 390.714C1049.26 390.714 1048.96 391.305 1048.96 392.092C1048.96 394.946 1046.79 394.749 1037.84 391.009C1029.37 387.466 1028.09 387.269 1018.45 387.17C1012.44 387.17 1007.22 386.678 1005.94 385.989C1003.39 384.513 1005.65 384.118 989.407 389.237Z" fill="black" fill-opacity="0.9"/>
<path d="M863.806 393.568C860.656 396.816 859.77 399.769 862.723 397.506C866.266 394.848 868.826 392.289 868.826 391.501C868.826 389.926 866.66 390.812 863.806 393.568Z" fill="black" fill-opacity="0.9"/>
<path d="M1006.14 402.231C1003.98 402.427 995.313 403.51 987.045 404.593C972.772 406.463 971.591 406.758 968.342 409.613C964.504 413.058 961.157 414.534 953.774 416.306C947.081 417.783 940.584 421.819 927.394 432.45C921.488 437.175 914.105 442.392 911.152 443.868C907.806 445.541 903.868 448.789 900.718 452.432C892.843 461.487 879.752 474.383 859.573 493.085L841.067 510.311L841.658 515.922C842.249 522.123 840.772 524.682 839.689 519.17C839.394 517.3 838.803 515.725 838.41 515.725C837.327 515.823 834.866 518.185 831.618 522.32C829.747 524.781 827.483 526.553 826.401 526.553C824.727 526.553 824.53 527.045 825.121 529.899C825.908 534.329 824.727 536.396 822.955 533.935C821.676 532.262 821.479 532.36 820.101 535.707C818.329 539.94 818.132 548.799 819.806 549.783C821.184 550.669 825.613 545.353 825.318 543.286C825.121 542.499 824.038 541.711 822.759 541.514C818.132 540.826 821.184 538.365 826.597 538.365C831.027 538.365 833.882 534.821 834.768 528.521C835.457 523.993 835.653 523.501 836.441 525.273C836.835 526.553 837.819 527.537 838.606 527.537C839.295 527.537 842.938 523.698 846.678 518.875C850.419 514.15 859.671 504.011 867.251 496.333C877.389 485.801 880.736 481.863 880.342 480.486C879.949 478.91 880.736 478.32 883.984 477.336C887.233 476.45 890.481 473.595 900.325 463.456C907.117 456.467 913.416 450.758 914.302 450.758C916.074 450.758 922.078 445.345 925.819 440.423C927.197 438.553 928.181 437.863 928.477 438.651C929.363 440.62 930.544 440.226 935.957 435.895C942.553 430.776 949.837 427.036 965.291 421.228C972.083 418.669 980.352 415.224 983.501 413.747C989.211 410.991 989.801 410.893 1005.16 410.893H1020.91L1036.16 416.602C1045.81 420.244 1053.98 422.607 1058.31 423.197C1067.47 424.279 1067.76 424.378 1072.98 431.071C1077.41 436.682 1081.44 439.143 1090.5 441.407C1093.85 442.293 1095.52 443.868 1098.47 448.494C1101.13 452.628 1103.1 453.909 1103.1 451.447C1103.1 448.494 1095.22 437.174 1089.22 431.662C1080.75 423.788 1071.3 419.161 1055.16 414.732C1054.47 414.534 1053.88 413.353 1053.88 411.976C1053.88 410.597 1053.49 409.219 1052.9 408.924C1052.41 408.628 1051.91 409.023 1051.91 409.81C1051.91 412.467 1050.14 412.467 1045.81 409.613C1036.06 403.117 1022.88 400.655 1006.14 402.231Z" fill="black" fill-opacity="0.9"/>
<path d="M1004.27 416.11C1002.11 418.57 1000.63 418.964 984.486 420.736C966.964 422.606 963.322 423.886 953.971 431.564C949.64 435.107 943.045 439.537 939.206 441.604C922.374 450.365 902.884 465.917 892.155 479.304C888.513 483.832 884.28 488.065 882.705 488.754C881.13 489.443 878.669 491.608 877.094 493.577C871.385 500.96 867.743 504.7 865.577 505.291C864.003 505.684 862.132 508.44 858.687 515.232C856.128 520.351 854.061 525.273 854.061 526.06C854.061 528.029 853.076 527.93 851.403 525.765C850.123 524.19 850.025 524.19 848.548 526.06C847.761 527.143 845.792 530.096 844.217 532.655C842.15 535.903 840.674 537.38 839.197 537.38C837.228 537.38 837.13 537.675 837.721 542.204C838.114 545.157 837.917 547.322 837.327 547.716C836.835 548.011 836.343 547.42 836.343 546.338C836.343 544.369 834.669 542.597 833.783 543.581C833.488 543.877 833.586 546.633 833.98 549.783L834.669 555.393L840.083 549.586C843.135 546.436 848.844 540.333 852.781 536.199C857.014 531.769 859.967 527.832 859.967 526.651C859.967 525.273 860.557 524.584 861.935 524.584C863.313 524.584 864.888 523.009 866.857 519.859C868.432 517.299 871.385 513.461 873.452 511.295C875.52 509.13 878.964 504.601 881.13 501.255C883.591 497.514 886.249 494.66 888.218 493.675C890.285 492.691 891.662 491.215 892.056 489.443C892.352 487.966 892.647 486.392 892.745 485.997C893.238 484.127 922.669 459.716 932.316 453.219C949.443 441.801 977.005 428.808 993.345 424.674C1003.88 422.016 1018.05 423.098 1031.73 427.627C1039.41 430.185 1056.83 438.946 1073.57 448.789C1089.02 457.846 1100.93 464.047 1101.72 463.358C1101.92 463.161 1100.93 461.291 1099.55 459.224C1097.98 456.96 1092.86 452.825 1085.97 448.298C1079.87 444.262 1073.67 439.439 1072.19 437.568C1070.42 435.205 1068.25 433.729 1065.6 433.04C1063.43 432.45 1055.36 429.299 1047.78 426.051C1030.55 418.866 1020.41 415.617 1012.34 414.731C1006.83 414.239 1005.94 414.338 1004.27 416.11Z" fill="black" fill-opacity="0.9"/>
<path d="M989.407 431.662C972.378 435.403 955.742 442.982 937.138 455.581C920.306 466.902 912.333 474.383 893.631 496.53C876.601 516.709 875.027 518.383 871.385 520.154C868.53 521.533 863.51 529.309 861.837 534.92C860.951 538.07 859.769 539.841 858.293 540.432C857.112 540.826 854.946 543.09 853.568 545.353C851.206 548.996 851.107 549.488 852.485 551.063C853.371 552.047 854.06 553.326 854.06 553.917C854.06 555.788 856.521 555.295 858.687 552.835C859.769 551.654 861.64 548.897 862.722 546.732C863.805 544.566 866.069 541.81 867.743 540.53C869.416 539.349 871.68 536.494 872.861 534.132C874.043 531.868 878.177 526.651 882.016 522.615C885.855 518.58 891.859 511 895.304 505.882C902.194 495.546 905.738 492.003 927.393 473.694C935.564 466.803 944.127 459.42 946.588 457.157C950.329 453.81 952.101 452.924 957.711 451.94C961.452 451.251 968.539 448.888 973.46 446.722C1000.04 435.009 1005.25 434.32 1022.38 440.226C1028.09 442.097 1034.29 443.967 1036.26 444.262C1038.13 444.655 1044.04 447.707 1049.25 451.152C1058.61 457.353 1064.32 460.306 1065.2 459.42C1065.5 459.224 1065.99 457.55 1066.28 455.877C1066.78 453.416 1066.58 452.628 1065.1 452.038C1064.02 451.546 1060.18 449.184 1056.34 446.722C1047.68 441.013 1037.44 435.796 1029.27 433.04C1020.71 430.087 999.644 429.399 989.407 431.662Z" fill="black" fill-opacity="0.9"/>
<path d="M989.211 442.785C987.439 443.966 985.962 445.246 985.962 445.738C985.962 446.821 991.573 447.608 999.447 447.707C1005.06 447.707 1009.98 449.774 1011.46 452.628C1012.24 454.105 1014.02 454.499 1019.92 454.892C1026.32 455.286 1028.68 456.074 1036.46 459.913C1047.48 465.425 1056.93 473.497 1076.42 493.971C1084.2 502.239 1090.7 508.736 1090.99 508.44C1091.68 507.752 1086.66 498.302 1080.95 489.64C1073.86 478.714 1068.45 473.004 1062.64 470.15C1059.98 468.772 1056.34 465.917 1054.77 463.949C1047.48 454.794 1040.59 451.546 1014.02 444.754C997.971 440.718 993.246 440.325 989.211 442.785Z" fill="black" fill-opacity="0.9"/>
<path d="M853.076 447.805C852.289 449.38 852.289 449.774 853.47 449.774C855.045 449.774 856.325 447.117 855.045 446.329C854.553 446.034 853.667 446.722 853.076 447.805Z" fill="black" fill-opacity="0.9"/>
<path d="M972.181 451.251C969.523 453.416 967.358 454.499 966.275 454.204C962.239 452.924 950.329 460.405 935.957 473.3C930.741 477.926 921.783 485.702 916.172 490.526C905.049 500.271 899.143 506.866 894.32 515.528C892.548 518.58 888.808 523.6 886.051 526.651C883.295 529.702 878.866 535.412 876.208 539.447C873.648 543.483 871.385 546.929 871.188 547.125C870.991 547.322 870.204 547.027 869.514 546.338C867.841 545.058 866.463 546.83 863.116 554.409C860.065 561.3 857.112 565.04 853.47 566.517C851.501 567.403 850.123 568.584 850.123 569.667C850.123 572.325 846.481 577.64 843.823 578.92C842.445 579.51 841.264 580.888 841.067 581.971C840.87 583.054 839.492 584.727 837.819 585.613C835.555 586.893 834.767 588.074 834.373 591.125C833.98 593.98 833.684 594.571 833.094 593.192C832.011 590.338 830.141 591.815 828.861 596.539C828.271 599.197 827.286 600.772 826.499 600.575C825.711 600.378 825.514 600.87 826.007 602.051C826.4 603.036 826.991 604.611 827.188 605.497C828.074 608.45 830.436 607.466 832.11 603.528C833.98 598.902 833.98 598.902 835.948 600.477C837.72 601.953 837.228 602.445 843.331 593.685C845.004 591.322 847.859 588.566 849.631 587.385C851.796 586.204 854.159 583.349 856.029 579.805C857.702 576.754 861.049 571.832 863.412 568.879C865.872 565.926 869.711 560.414 871.976 556.575C874.239 552.835 877.586 547.815 879.358 545.452C881.13 543.09 882.606 540.038 882.606 538.66C882.606 537.085 883.886 535.018 886.248 532.852C888.217 530.982 890.185 529.506 890.58 529.506C890.973 529.506 895.403 524.486 900.325 518.383C909.872 506.768 914.794 501.846 919.224 499.483C920.996 498.499 922.472 496.333 923.653 493.085C925.228 488.655 926.902 486.588 926.902 489.148C926.902 491.215 928.87 489.935 934.973 483.93C938.91 480.092 944.226 476.154 949.443 473.399C954.07 470.937 961.353 466.409 965.684 463.259L973.559 457.55L985.962 457.846C997.38 458.043 998.561 457.944 1002.5 455.68C1007.12 453.023 1007.72 451.743 1004.37 451.743C1003.09 451.743 997.872 450.857 992.754 449.774C979.367 447.018 977.103 447.117 972.181 451.251Z" fill="black" fill-opacity="0.9"/>
<path d="M829.156 453.318C828.074 455.286 827.385 460.503 828.074 462.964C829.058 466.902 831.42 464.342 831.42 459.224C831.42 455.188 830.141 451.841 829.156 453.318Z" fill="black" fill-opacity="0.9"/>
<path d="M846.284 455.09C845.497 455.976 845.201 456.96 845.595 457.353C846.481 458.239 848.45 456.074 847.957 454.696C847.761 453.909 847.17 454.007 846.284 455.09Z" fill="black" fill-opacity="0.9"/>
<path d="M1066.19 459.815C1065.69 462.866 1066.28 463.752 1075.73 473.595C1086.07 484.325 1089.42 486.293 1093.16 484.226C1096.01 482.749 1095.81 482.061 1091.88 479.895C1090.01 478.91 1085.48 474.383 1081.94 469.855C1075.54 461.783 1070.12 456.665 1067.86 456.665C1067.27 456.665 1066.48 458.141 1066.19 459.815Z" fill="black" fill-opacity="0.9"/>
<path d="M837.425 461.389C836.047 463.949 836.736 465.524 838.409 463.85C839 463.259 839.295 461.98 839.098 460.996C838.803 459.322 838.606 459.322 837.425 461.389Z" fill="black" fill-opacity="0.9"/>
<path d="M1007.13 460.208C1006.04 460.405 999.644 460.996 992.852 461.487C977.792 462.768 973.756 463.949 968.933 468.772C966.177 471.528 964.799 472.315 963.913 471.528C963.027 470.741 961.058 472.02 956.432 476.351C952.987 479.501 949.837 481.962 949.345 481.667C948.951 481.372 946.588 482.06 944.128 483.143C938.419 485.702 913.711 510.508 901.506 525.863C896.781 531.868 889.694 540.628 885.855 545.353C881.917 550.177 878.669 554.311 878.669 554.607C878.669 554.902 877.094 558.445 875.224 562.58C873.353 566.615 871.779 570.651 871.779 571.439C871.779 572.521 871.188 572.718 869.81 572.325C868.432 571.93 867.644 572.226 867.152 573.506C866.857 574.49 864.888 577.541 862.821 580.298C860.656 583.054 858.687 586.597 858.392 588.271C857.998 590.239 856.817 591.716 854.553 592.897C852.682 593.882 847.662 598.607 843.331 603.331C839 608.056 833.882 612.682 831.814 613.667C828.271 615.34 828.271 615.439 828.861 619.868C829.157 622.329 829.747 624.593 830.043 624.888C831.519 626.365 836.145 621.935 838.902 616.325C841.067 611.993 842.15 610.517 842.544 611.6C842.937 612.486 844.119 613.175 845.3 613.175C847.269 613.175 847.367 612.781 846.776 609.138C846.284 606.284 846.481 605.3 847.269 605.89C848.351 606.58 857.998 597.031 857.998 595.259C857.998 594.768 858.392 594.57 858.884 594.964C860.557 595.949 866.168 589.255 870.991 580.593C876.701 570.553 877.882 569.076 883.788 565.04C888.414 561.989 890.973 557.264 892.942 548.405C893.336 546.633 895.305 543.188 897.47 540.727C899.537 538.266 901.309 535.412 901.309 534.427C901.309 533.148 902.687 531.769 905.148 530.49C907.608 529.309 912.038 524.879 917.255 518.481C927.098 506.373 933.497 500.862 957.416 483.93C974.15 472.02 975.922 471.036 979.564 471.232C981.729 471.331 987.242 470.741 991.769 469.855C996.298 469.067 1001.71 468.674 1003.68 468.969C1006.93 469.56 1007.42 469.362 1008.11 467.295C1008.7 465.425 1008.9 465.326 1009.29 466.705C1009.88 469.067 1013.03 469.855 1020.12 469.56C1027.8 469.264 1032.52 471.232 1043.25 479.305C1047.58 482.651 1052.31 485.506 1053.78 485.801C1055.75 486.195 1057.23 487.966 1059.98 492.987C1065.4 502.929 1074.65 514.741 1083.12 522.517C1087.25 526.356 1090.79 529.309 1091.09 529.112C1091.29 528.816 1090.7 526.356 1089.81 523.501C1088.43 519.564 1086.27 516.414 1080.36 510.311C1076.03 505.882 1072.58 501.452 1072.58 500.566C1072.58 497.514 1067.86 491.51 1059.69 484.128C1038.13 464.736 1022.48 457.55 1007.13 460.208Z" fill="black" fill-opacity="0.9"/>
<path d="M1083.9 462.669C1086.17 469.855 1091.98 475.859 1095.91 475.071C1097.68 474.776 1098.18 475.071 1098.18 476.548C1098.18 479.009 1099.95 482.258 1101.33 482.258C1102.8 482.258 1101.52 476.745 1099.06 472.709C1097.88 470.937 1094.53 467.689 1091.38 465.622C1082.92 459.913 1083.12 460.011 1083.9 462.669Z" fill="black" fill-opacity="0.9"/>
<path d="M821.577 463.259C821.675 464.638 824.53 467.886 825.121 467.295C826.105 466.212 824.432 462.571 822.955 462.571C822.168 462.571 821.577 462.866 821.577 463.259Z" fill="black" fill-opacity="0.9"/>
<path d="M845.398 463.752C844.709 464.44 844.217 466.311 844.217 468.083C844.217 470.741 843.922 471.134 842.347 470.741C841.363 470.445 840.181 470.741 839.886 471.331C839.492 471.922 838.311 472.414 837.13 472.414C835.457 472.414 835.26 472.808 835.85 474.58C836.244 475.859 836.539 477.828 836.539 479.009C836.539 480.289 836.835 481.273 837.228 481.273C838.311 481.273 841.756 477.237 843.233 474.481C844.119 472.808 844.611 472.512 845.202 473.398C845.792 474.284 846.383 474.284 848.155 473.398C850.025 472.414 850.222 471.725 849.631 469.165C849.237 467.393 848.844 465.228 848.844 464.244C848.745 462.275 847.072 462.078 845.398 463.752Z" fill="black" fill-opacity="0.9"/>
<path d="M852.387 463.654C850.812 465.228 850.714 468.477 852.092 468.477C853.372 468.477 854.356 466.114 853.864 464.047C853.667 462.768 853.372 462.669 852.387 463.654Z" fill="black" fill-opacity="0.9"/>
<path d="M857.801 467.689C854.651 471.233 854.356 472.414 856.521 472.414C858.293 472.414 861.246 468.083 860.754 466.114C860.557 464.933 859.77 465.425 857.801 467.689Z" fill="black" fill-opacity="0.9"/>
<path d="M983.501 475.17C966.669 481.372 966.078 481.667 963.716 485.309C960.665 490.132 956.137 493.774 945.9 499.483C935.859 504.996 929.067 511 925.819 517.201C924.441 519.859 922.374 522.024 920.701 522.714C919.125 523.403 915.582 526.553 912.924 529.899C910.168 533.148 906.034 537.282 903.77 538.955C899.537 542.204 896.978 546.731 897.568 549.684C898.061 552.342 908.396 544.172 924.933 528.029C938.517 514.839 948.557 506.472 954.857 503.224C957.121 502.043 958.105 501.944 959.976 502.929C962.634 504.405 964.504 503.42 970.508 497.711C973.756 494.66 974.544 494.365 978.776 494.758C981.434 495.054 986.454 494.561 990.097 493.675C996.692 492.101 996.79 492.101 1000.33 494.561C1004.66 497.514 1009.98 498.597 1013.13 497.121C1016.48 495.644 1016.08 492.691 1012.34 489.836C1005.65 484.915 999.94 484.226 985.963 486.687C981.336 487.474 975.135 488.163 972.182 488.163C967.063 488.163 966.964 488.065 969.031 486.588C976.119 481.667 994.723 478.714 1000.53 481.667C1004.27 483.635 1006.04 483.635 1007.91 481.863C1009.19 480.584 1009.68 480.879 1012.44 484.226C1014.31 486.49 1018.05 489.246 1021.89 491.215C1025.43 492.888 1028.29 494.955 1028.29 495.742C1028.29 496.628 1029.37 498.499 1030.75 500.172C1032.13 501.747 1033.21 503.617 1033.21 504.405C1033.21 505.094 1035.47 507.161 1038.23 508.933C1045.02 513.264 1051.13 520.843 1060.77 537.085C1065.3 544.566 1071.21 553.721 1074.06 557.559C1076.92 561.299 1079.87 566.419 1080.56 568.781C1081.35 571.537 1083.51 574.785 1086.07 577.345C1089.12 580.396 1092.37 585.908 1097.68 597.031C1101.82 605.497 1105.36 612.19 1105.66 611.895C1106.54 611.009 1103.98 599.098 1102.02 594.472C1100.93 592.011 1098.87 588.763 1097.39 587.286C1095.42 585.219 1094.83 583.742 1095.03 581.282C1095.42 577.64 1093.94 575.966 1091.88 577.64C1090.79 578.526 1090.4 578.132 1090.01 575.573C1088.53 567.107 1087.74 565.237 1083.31 559.429C1080.66 555.886 1073.47 545.452 1067.27 536.101C1061.07 526.848 1051.62 514.051 1046.3 507.752C1040.89 501.452 1035.47 494.955 1034.29 493.282C1032.72 491.018 1031.34 490.132 1029.37 490.132C1027.21 490.132 1025.14 488.557 1020.02 483.143C1014.9 477.631 1013.03 476.252 1011.36 476.647C1009.98 477.04 1008.8 476.548 1007.62 475.071C1006.14 473.299 1004.66 472.906 998.661 472.611C992.557 472.414 990.097 472.808 983.501 475.17Z" fill="black" fill-opacity="0.9"/>
<path d="M1018.54 474.481C1015.79 475.564 1015.89 475.761 1023.27 480.682C1026.12 482.651 1029.67 484.226 1031.14 484.226C1033.11 484.226 1034.19 485.112 1035.97 488.164C1037.15 490.329 1040.69 493.873 1043.84 496.137C1046.89 498.302 1050.53 501.452 1051.91 502.929C1053.98 505.291 1054.67 505.488 1056.05 504.503C1059.79 501.748 1053.98 492.101 1048.57 492.101C1047.29 492.101 1045.42 490.624 1043.74 488.164C1037.05 478.714 1024.65 472.02 1018.54 474.481Z" fill="black" fill-opacity="0.9"/>
<path d="M828.959 478.91C828.664 481.372 827.68 485.21 826.892 487.376C826.105 489.64 825.613 491.608 825.81 491.707C826.006 491.904 827.385 491.51 828.861 490.821C830.928 489.935 831.322 489.148 830.928 487.376C830.534 485.997 831.125 484.423 832.405 483.044C833.684 481.568 834.078 480.584 833.389 479.895C832.897 479.403 832.405 477.926 832.405 476.647C832.405 472.414 829.747 474.185 828.959 478.91Z" fill="black" fill-opacity="0.9"/>
<path d="M823.251 482.06C820.101 485.506 818.427 493.282 820.593 494.561C821.676 495.251 822.463 493.38 824.924 485.407C826.4 480.092 825.908 479.009 823.251 482.06Z" fill="black" fill-opacity="0.9"/>
<path d="M1088.33 489.049C1088.33 492.199 1108.02 512.279 1108.81 509.819C1109 509.326 1107.53 505.783 1105.56 501.944C1101.13 493.675 1095.52 488.164 1091.29 488.164C1089.61 488.164 1088.33 488.557 1088.33 489.049Z" fill="black" fill-opacity="0.9"/>
<path d="M1017.66 498.696C1017.86 500.369 1018.54 501.452 1019.43 501.452C1020.32 501.452 1021 500.369 1021.2 498.696C1021.5 496.53 1021.1 496.038 1019.43 496.038C1017.76 496.038 1017.36 496.53 1017.66 498.696Z" fill="black" fill-opacity="0.9"/>
<path d="M980.056 499.385C978.087 500.172 974.15 501.944 971.197 503.42C968.244 504.897 963.224 506.768 959.976 507.555C952.494 509.228 950.624 510.607 934.776 525.962L921.487 538.857L920.503 545.944C919.913 549.882 919.815 553.13 920.208 553.13C920.602 553.13 922.964 550.571 925.622 547.519C935.662 535.608 942.06 529.702 946.096 528.62C948.852 527.93 950.624 526.651 951.904 524.486C954.168 520.745 958.991 517.694 962.83 517.694C965.094 517.694 966.866 516.611 969.622 513.855C982.91 500.271 1005.06 503.125 1033.41 522.024C1040.89 526.946 1041.87 528.128 1044.83 534.034C1046.6 537.577 1052.7 548.208 1058.31 557.658C1071.4 579.51 1071.7 580.003 1071.5 584.333C1071.4 586.4 1072.49 591.125 1073.86 594.964C1077.51 605.004 1081.44 618.687 1082.53 625.282C1083.61 632.074 1084.89 634.83 1087.05 634.83C1089.91 634.83 1087.84 624.298 1082.33 610.024C1078 598.902 1077.11 595.654 1076.72 588.566C1076.32 580.298 1076.23 580.003 1066.58 561.004C1052.41 532.754 1044.53 521.237 1033.41 512.575C1028.09 508.342 1027.5 508.047 1026.02 509.524C1024.55 511 1024.15 510.705 1020.22 506.866C1016.18 502.83 1015.69 502.535 1010.08 502.436C1006.44 502.239 1002.5 501.452 999.742 500.172C994.624 497.712 985.568 497.416 980.056 499.385Z" fill="black" fill-opacity="0.9"/>
<path d="M1022.38 500.271C1022.38 502.436 1025.04 505.882 1026.62 505.882C1027.8 505.882 1027.4 500.467 1026.12 499.188C1024.25 497.318 1022.38 497.81 1022.38 500.271Z" fill="black" fill-opacity="0.9"/>
<path d="M1057.52 504.602C1055.65 506.373 1056.93 511.591 1059.89 514.347C1061.56 515.922 1064.02 519.071 1065.4 521.336C1066.68 523.698 1069.14 526.651 1070.71 527.93C1072.29 529.309 1073.57 531.081 1073.57 531.966C1073.57 535.707 1077.41 541.023 1082.13 543.483C1086.27 545.747 1087.15 546.83 1088.73 551.358C1091.98 560.513 1096.11 567.895 1098.67 569.076C1102.11 570.651 1102.61 569.568 1100.83 564.745C1097.98 557.362 1090.79 546.043 1078.29 529.407C1071.7 520.548 1065.1 511.098 1063.72 508.539C1061.46 504.306 1059.2 502.83 1057.52 504.602Z" fill="black" fill-opacity="0.9"/>
<path d="M819.313 510.508C818.92 510.803 818.624 512.083 818.624 513.362C818.624 515.036 819.018 515.429 820.593 515.036C821.873 514.741 822.562 513.658 822.562 512.181C822.562 509.917 820.692 509.031 819.313 510.508Z" fill="black" fill-opacity="0.9"/>
<path d="M979.269 510.507C976.906 511 970.213 516.808 970.213 518.382C970.213 518.973 972.477 519.17 975.627 518.875C978.875 518.58 984.486 519.17 989.506 520.154C996.396 521.631 998.562 521.729 1001.22 520.843C1005.26 519.268 1007.42 520.056 1017.07 526.651C1021.2 529.407 1025.93 532.262 1027.8 533.049C1030.16 534.033 1031.93 536.002 1034.49 540.53C1036.36 543.976 1041.48 552.835 1045.81 560.315C1050.14 567.796 1055.36 578.329 1057.43 583.742C1060.18 590.929 1061.56 593.487 1062.84 593.487C1064.22 593.487 1065.1 595.653 1067.17 605.004C1073.57 632.96 1075.73 641.72 1078.19 649.103C1080.85 657.273 1084.99 666.329 1086.07 666.329C1087.35 666.329 1085.18 656.682 1082.43 650.678C1080.66 646.544 1078.69 639.161 1077.01 630.302C1073.47 610.123 1068.35 593.487 1065.79 593.487C1065.3 593.487 1064.71 591.125 1064.51 588.271C1063.82 581.085 1055.16 562.087 1052.21 561.398C1050.93 561.004 1050.14 560.414 1050.44 560.02C1051.42 558.346 1047.98 549.98 1043.64 543.385C1037.94 534.821 1026.32 523.205 1019.13 518.875C1016.18 517.103 1011.06 514.642 1007.72 513.559C1002.2 511.689 1001.12 511.59 996.396 512.772C991.376 513.953 990.884 513.855 988.423 511.886C985.765 509.917 983.994 509.622 979.269 510.507Z" fill="black" fill-opacity="0.9"/>
<path d="M1092.27 511.591C1092.27 514.347 1095.13 517.694 1097.59 517.694C1099.55 517.694 1099.95 518.285 1100.44 521.828C1100.83 524.584 1101.92 526.848 1103.98 528.915C1107.53 532.459 1107.82 531.474 1105.56 523.698C1103.1 515.627 1092.27 505.685 1092.27 511.591Z" fill="black" fill-opacity="0.9"/>
<path d="M818.919 520.253C817.443 522.517 817.148 522.615 816.065 521.237C815.081 519.761 814.884 519.859 814.293 522.024C813.702 524.584 814.392 527.537 815.671 527.537C817.148 527.537 821.577 521.533 821.577 519.564C821.577 517.004 820.987 517.201 818.919 520.253Z" fill="black" fill-opacity="0.9"/>
<path d="M1000.73 524.682C1000.73 526.946 1011.46 536.593 1017.95 540.038C1023.96 543.385 1024.84 544.172 1025.63 547.421C1026.12 549.488 1028.19 553.031 1030.36 555.394C1036.56 562.58 1046.79 589.353 1051.52 611.206C1052.41 615.242 1053.39 626.07 1053.78 635.322C1054.57 651.859 1054.57 652.155 1058.51 661.899C1061.76 669.774 1063.13 675.483 1065.59 690.15C1068.55 707.179 1071.01 717.514 1072.29 717.514C1072.68 717.514 1072.58 713.184 1072.29 707.769C1071.6 698.025 1069.43 686.212 1065.69 671.842C1064.61 667.51 1063.72 662.49 1063.72 660.521C1063.63 658.553 1062.84 655.206 1061.76 653.04C1060.57 650.58 1059.79 646.937 1059.79 643.197C1059.79 639.457 1059 635.716 1057.72 632.862C1056.34 629.81 1055.85 627.349 1056.24 624.889C1056.64 622.723 1056.24 619.868 1055.46 617.899C1054.28 615.144 1054.18 613.076 1054.96 607.466C1056.15 598.902 1054.96 593.094 1049.16 580.101C1046.99 575.278 1044.73 569.568 1044.04 567.403C1040.69 556.87 1031.24 543.779 1019.72 533.936C1011.16 526.553 1000.73 521.533 1000.73 524.682Z" fill="black" fill-opacity="0.9"/>
<path d="M957.908 527.537C946.096 532.262 930.445 547.815 921.291 563.761C918.731 568.387 914.499 574.392 912.038 577.148C909.577 579.904 904.95 585.514 901.702 589.55C898.553 593.586 894.221 598.607 892.154 600.674C888.709 604.02 888.512 604.611 889.103 608.056C889.89 612.584 890.284 613.175 892.056 613.175C893.04 613.175 893.434 611.796 893.434 607.466L893.533 601.855L895.107 604.808L896.682 607.662L898.257 605.3C899.143 603.922 903.179 598.705 907.313 593.488C911.447 588.369 915.975 582.07 917.452 579.608C918.929 577.05 920.897 574.785 921.98 574.49C922.964 574.195 925.326 571.93 927.098 569.273C928.87 566.714 931.823 562.678 933.595 560.316C935.465 557.756 936.745 554.902 936.745 553.13C936.745 550.472 936.942 550.275 939.6 550.768C943.635 551.654 945.801 550.078 950.427 542.893C954.758 536.199 957.514 534.427 959.877 536.396C961.058 537.38 961.452 537.282 961.944 535.805C963.519 530.884 964.601 528.521 965.291 528.521C966.964 528.521 967.161 533.443 965.684 536.888C964.897 538.857 964.405 540.727 964.601 540.924C964.799 541.121 966.373 540.727 968.047 540.137C971.295 538.857 972.083 536.691 970.114 534.722C969.425 534.034 969.228 532.852 969.622 531.967C970.114 530.687 971 530.392 973.559 530.883C976.118 531.376 977.004 531.179 977.496 529.899C978.58 527.144 976.512 526.159 969.425 525.863C964.601 525.667 961.452 526.06 957.908 527.537Z" fill="black" fill-opacity="0.9"/>
<path d="M979.072 528.915C979.072 532.852 981.139 534.033 986.356 533.049C988.325 532.655 990.195 532.95 991.376 533.836C993.246 535.215 993.345 535.313 991.573 538.266C989.506 541.711 990.097 545.55 992.655 545.058C993.541 544.861 994.624 543.286 995.215 541.514C995.707 539.841 996.494 538.365 996.987 538.365C997.479 538.365 1000.92 541.219 1004.66 544.763C1008.41 548.306 1012.15 551.161 1012.83 551.161C1013.62 551.161 1016.08 554.902 1018.25 559.528C1020.51 564.154 1024.94 572.325 1028.29 577.64C1031.54 582.955 1034.19 588.369 1034.19 589.747C1034.19 591.125 1035.38 596.244 1036.75 600.969C1038.13 605.792 1039.9 612.19 1040.79 615.143C1041.87 619.179 1042.46 629.416 1043.05 655.304C1043.84 688.772 1043.84 690.248 1041.97 693.398C1040 696.745 1036.66 711.51 1037.74 712.494C1039.02 713.774 1041.97 708.36 1043.55 701.765C1044.53 697.631 1046.01 694.284 1047.09 693.595C1048.66 692.413 1048.96 690.248 1049.55 675.581C1051.72 619.08 1038.62 568.682 1015.3 543.68C1009.68 537.675 1006.53 536.101 1005.06 538.463C1004.76 539.054 1003.19 537.38 1001.61 534.624C998.07 528.423 992.754 525.568 984.682 525.568H979.072V528.915Z" fill="black" fill-opacity="0.9"/>
<path d="M1092.47 530.687C1090.79 532.36 1090.99 533.049 1093.65 535.707C1095.03 537.085 1097.39 540.727 1098.96 543.877C1100.54 547.125 1102.8 550.57 1103.98 551.555C1106.05 553.425 1106.05 553.425 1106.05 550.57C1106.05 547.322 1104.08 543.483 1099.46 537.38C1097.68 535.018 1096.21 532.36 1096.21 531.278C1096.21 529.309 1094.24 528.915 1092.47 530.687Z" fill="black" fill-opacity="0.9"/>
<path d="M974.15 536.888C972.279 539.152 973.756 541.514 976.807 541.121C978.973 540.924 979.662 540.235 979.859 538.07C980.154 535.805 979.859 535.412 977.792 535.412C976.413 535.412 974.839 536.101 974.15 536.888Z" fill="black" fill-opacity="0.9"/>
<path d="M983.206 538.856C981.533 542.499 981.729 543.286 984.387 543.286C987.537 543.286 988.423 541.711 986.848 538.758C985.273 535.805 984.584 535.805 983.206 538.856Z" fill="black" fill-opacity="0.9"/>
<path d="M955.251 540.432C953.479 541.416 952.692 548.208 954.266 548.208C956.531 548.208 959.385 544.861 959.385 542.204C959.385 539.251 958.204 538.66 955.251 540.432Z" fill="black" fill-opacity="0.9"/>
<path d="M811.734 544.664C811.734 546.534 811.34 548.405 810.749 548.7C809.568 549.389 809.47 553.819 810.553 554.508C811.734 555.197 817.64 551.456 817.64 550.078C817.64 549.389 817.148 547.224 816.459 545.157C815.671 542.499 814.785 541.318 813.506 541.318C812.128 541.318 811.734 542.105 811.734 544.664Z" fill="black" fill-opacity="0.9"/>
<path d="M911.94 545.255C908.003 547.42 905.148 550.964 903.474 555.788C902.195 559.627 902.588 559.725 907.215 556.969C913.023 553.425 919.027 546.83 919.027 543.779C919.027 542.695 915.483 543.483 911.94 545.255Z" fill="black" fill-opacity="0.9"/>
<path d="M968.244 543.976C962.732 544.271 961.649 544.665 960.862 546.535C960.271 547.815 958.795 548.799 957.219 548.996C955.842 549.192 953.971 550.373 953.085 551.654C952.101 553.13 950.92 553.819 949.64 553.425C948.262 553.031 946.785 554.311 943.537 558.741C941.273 561.89 935.269 568.387 930.248 573.112C920.11 582.66 913.613 591.618 911.842 598.212C911.054 601.165 909.971 602.839 908.494 603.43C907.215 603.922 906.231 604.906 906.231 605.792C906.231 606.58 905.345 607.269 904.262 607.269C902.785 607.269 902.097 608.154 901.604 610.32C901.211 612.387 899.832 614.061 897.273 615.734C893.139 618.293 890.186 623.018 890.678 626.266C891.17 629.909 893.828 628.628 896.387 623.51C897.863 620.754 899.439 618.687 900.128 618.785C900.816 618.982 901.309 617.998 901.309 616.62C901.309 614.454 901.604 614.159 903.671 614.749C905.738 615.242 906.132 614.946 906.427 612.584C906.624 610.517 907.412 609.631 909.676 609.04C911.447 608.548 914.007 606.383 916.074 603.823C917.944 601.363 920.996 598.705 922.669 597.819C925.524 596.54 925.917 595.85 925.917 592.602C925.917 589.452 926.508 588.467 929.953 585.613C932.217 583.842 935.957 579.313 938.419 575.671C941.568 570.749 943.931 568.289 946.884 566.812C949.148 565.631 955.152 561.89 960.271 558.446C965.291 555 970.212 552.145 971.197 552.145C972.181 552.145 976.118 552.835 979.957 553.721C987.34 555.394 990.785 555.098 993.246 552.54C995.608 550.275 995.215 549.389 991.376 547.519C988.62 546.239 987.242 546.043 985.076 546.83C982.714 547.815 982.123 547.618 980.253 545.55C979.17 544.369 977.399 543.385 976.414 543.483C975.43 543.582 971.788 543.779 968.244 543.976Z" fill="black" fill-opacity="0.9"/>
<path d="M995.805 552.54C995.805 556.969 996.1 558.051 997.675 558.544C1000.14 559.331 1004.17 564.056 1008.8 571.635C1010.96 575.278 1013.92 578.624 1016.28 580.003C1019.92 582.365 1020.32 583.054 1023.17 593.192C1027.8 609.04 1030.06 619.769 1031.83 633.55C1033.7 647.725 1033.01 654.714 1028.88 664.852C1026.71 670.365 1025.83 673.81 1023.37 687C1022.58 691.331 1021.1 694.087 1016.38 700.289C1013.03 704.62 1008.21 712.593 1005.55 718.007C1002.7 724.11 999.152 729.622 996.396 732.477C991.868 737.201 988.324 742.812 989.308 743.796C989.604 744.092 991.277 743.403 993.049 742.32C996.691 740.056 1001.12 734.347 1007.81 723.42C1010.37 719.385 1013.52 714.956 1015 713.577C1018.05 710.722 1020.41 705.604 1020.41 701.962C1020.41 700.682 1021.5 698.615 1022.68 697.434C1025.53 694.776 1027.5 689.461 1030.26 676.96C1031.54 671.251 1033.11 666.427 1034.29 665.148L1036.26 662.884L1035.87 670.266C1035.57 674.4 1033.7 683.654 1031.63 691.134C1027.21 707.474 1028.19 710.624 1034 698.32C1038.13 689.56 1038.62 684.933 1038.33 655.6C1038.03 630.499 1037.84 626.759 1035.77 617.702C1034.49 612.289 1032.62 603.331 1031.63 597.917C1030.06 589.748 1029.17 587.188 1025.83 582.168C1023.56 578.92 1019.63 572.521 1016.97 567.895C1010.57 556.575 1007.91 553.327 1002.79 549.98C996.494 546.043 995.805 546.239 995.805 552.54Z" fill="black" fill-opacity="0.9"/>
<path d="M828.664 548.897C827.975 549.192 825.908 552.441 824.038 556.083C821.38 561.399 820.298 562.678 818.821 562.285C817.64 561.989 816.656 562.678 815.868 564.352C815.277 565.729 815.081 566.91 815.573 566.91C816.065 566.91 816.754 567.993 817.049 569.372C817.837 572.62 818.723 572.423 820.79 568.879C821.774 567.206 823.94 565.139 825.613 564.155C827.286 563.269 829.747 561.595 831.027 560.513C833.094 558.642 833.192 558.249 832.11 553.327C831.519 550.571 830.83 548.208 830.535 548.306C830.141 548.306 829.353 548.602 828.664 548.897Z" fill="black" fill-opacity="0.9"/>
<path d="M847.269 553.326C846.777 554.705 846.284 555 845.792 554.311C844.611 552.244 842.249 554.311 836.244 562.58C832.996 567.107 829.452 571.34 828.369 571.832C826.204 573.013 826.007 575.08 827.582 579.608C828.763 582.856 830.437 583.546 832.307 581.282C833.094 580.396 833.094 579.215 832.504 577.443C831.322 574.392 832.011 573.506 834.472 575.08C837.032 576.655 839 575.278 842.839 569.47C846.777 563.564 850.123 560.02 851.797 560.02C852.486 560.02 853.076 559.134 853.076 557.953C853.076 553.13 848.647 549.586 847.269 553.326Z" fill="black" fill-opacity="0.9"/>
<path d="M913.318 556.969C911.152 558.642 906.624 563.761 903.278 568.584C899.832 573.309 894.812 579.904 892.056 583.152C889.201 586.4 885.756 590.633 884.378 592.503C881.523 596.244 877.291 606.185 878.177 607.071C878.472 607.367 879.752 607.071 881.031 606.481C882.607 605.792 883.886 603.823 884.969 600.575C886.347 596.539 887.43 595.161 891.268 592.799C894.419 590.83 898.749 586.204 904.951 578.132C909.872 571.734 915.581 564.647 917.55 562.481C919.42 560.414 920.799 558.051 920.503 557.264C920.208 556.575 920.011 555.492 920.011 555C920.011 553.326 917.353 554.114 913.318 556.969Z" fill="black" fill-opacity="0.9"/>
<path d="M938.222 557.658C937.336 559.036 936.843 560.414 937.139 560.709C937.926 561.595 941.667 558.051 941.667 556.378C941.667 554.311 940.092 554.902 938.222 557.658Z" fill="black" fill-opacity="0.9"/>
<path d="M893.336 560.118C891.466 562.383 888.316 566.024 886.248 568.191C884.28 570.356 881.721 573.899 880.54 576.164C879.457 578.329 877.685 581.774 876.701 583.644C875.618 585.514 874.732 588.074 874.732 589.353C874.732 591.322 875.224 591.618 877.488 591.322C879.949 591.027 880.145 590.732 879.85 587.286C879.654 584.137 879.85 583.644 881.721 583.644C884.575 583.644 888.414 579.215 891.859 572.128C894.025 567.501 895.108 566.32 896.387 566.615C898.749 567.206 901.506 562.973 901.112 559.331C900.62 554.803 897.273 555.197 893.336 560.118Z" fill="black" fill-opacity="0.9"/>
<path d="M970.212 561.004C967.063 562.087 963.716 564.056 962.141 565.828C960.074 568.19 958.597 568.879 955.94 568.879C951.215 568.879 945.506 574.195 941.568 582.168C939.107 587.286 938.221 588.172 936.45 587.877C934.58 587.483 933.595 588.664 930.15 594.669C927.886 598.705 925.13 602.741 924.145 603.627C922.57 605.004 922.373 606.284 922.768 610.024C923.555 617.899 924.244 617.998 928.87 611.305C931.134 607.859 935.761 602.051 939.009 598.212C942.356 594.373 947.868 587.877 951.313 583.743C955.251 578.919 958.4 576.065 960.172 575.573C961.649 575.278 963.815 574.588 964.996 574.293C966.768 573.702 967.161 573.998 967.456 576.36C967.653 577.836 968.342 579.313 969.13 579.51C970.114 579.805 970.311 579.412 969.917 577.836C968.638 572.915 973.756 563.957 977.89 563.957C979.071 563.957 979.268 565.533 978.973 573.013L978.58 582.168L981.828 582.07C984.387 581.873 984.977 582.266 984.977 583.94C984.977 585.023 986.356 588.074 988.128 590.732C990.195 594.078 991.278 597.228 991.671 600.674C991.868 603.528 992.951 608.352 994.132 611.501C996.002 616.816 996.002 617.899 994.919 625.282C992.36 642.705 986.848 659.734 979.761 672.432C976.118 678.929 974.544 680.701 970.902 682.571C969.819 683.063 966.177 687.492 962.929 692.414C958.794 698.517 955.742 701.863 953.282 703.242C950.132 704.915 949.541 705.702 949.541 708.557C949.541 711.51 949.345 711.805 947.179 711.215C945.013 710.722 944.816 710.919 944.325 716.235C943.734 722.043 944.226 724.503 945.309 720.664C945.702 718.893 946.588 718.499 949.443 718.499C953.774 718.4 957.219 715.644 963.815 706.687C966.472 703.143 971.295 697.434 974.642 693.89C982.32 685.819 984.387 682.078 991.868 663.868C996.691 652.056 997.971 647.823 998.266 642.705C998.463 639.161 999.251 634.534 1000.04 632.369C1003.68 622.231 1002.79 600.772 998.365 590.929C995.707 585.121 990.293 578.722 985.47 575.769L982.221 573.801L984.091 569.863C985.174 567.698 986.159 565.926 986.356 565.926C986.749 565.926 998.956 586.893 1001.51 592.011C1005.65 600.279 1007.03 607.268 1006.93 619.081C1006.83 636.306 1002.7 652.154 993.738 670.758C987.635 683.456 982.123 691.725 974.051 700.289C969.425 705.211 967.358 708.164 966.866 710.722C966.373 713.577 965.586 714.463 962.83 715.546C960.96 716.333 959.385 717.318 959.385 717.909C959.385 718.499 957.416 720.96 955.054 723.42C950.821 727.654 950.132 729.228 950.427 733.953C950.624 737.595 953.282 736.611 954.07 732.674C954.561 730.114 955.349 728.933 957.318 728.244C965.685 725.192 974.839 716.826 981.138 706.293C983.206 702.946 985.174 700.781 986.258 700.781C989.506 700.781 1003.39 669.282 1008.11 651.071C1011.85 636.405 1012.83 627.054 1012.24 610.812C1011.65 594.472 1009.49 581.479 1006.53 575.474C1003.98 570.651 997.577 563.662 993.049 560.808L989.604 558.642L988.128 560.808C986.356 563.466 985.47 563.466 983.009 561.004C980.548 558.544 977.201 558.544 970.212 561.004Z" fill="black" fill-opacity="0.9"/>
<path d="M973.362 568.781C971.492 569.962 972.279 573.211 974.544 573.604C977.004 574.097 978.382 572.423 977.595 569.962C976.906 567.796 975.528 567.403 973.362 568.781Z" fill="black" fill-opacity="0.9"/>
<path d="M808.092 570.553C805.336 571.045 805.237 573.506 807.797 576.655C809.667 578.821 809.864 578.92 812.226 577.345C814.589 575.769 815.77 570.848 813.801 570.848C813.309 570.848 812.325 570.651 811.537 570.454C810.848 570.258 809.273 570.356 808.092 570.553Z" fill="black" fill-opacity="0.9"/>
<path d="M1102.11 575.671C1102.11 578.427 1102.8 580.396 1104.57 582.365L1106.94 585.121L1107.04 581.38C1107.04 577.443 1104.67 571.832 1103.1 571.832C1102.51 571.832 1102.11 573.604 1102.11 575.671Z" fill="black" fill-opacity="0.9"/>
<path d="M821.774 578.919C819.215 581.479 820.987 589.55 824.136 589.55C825.318 589.55 825.514 588.467 825.318 583.94C825.022 578.329 823.94 576.754 821.774 578.919Z" fill="black" fill-opacity="0.9"/>
<path d="M957.712 581.774C956.137 583.349 956.038 585.81 957.613 587.385C959.286 589.058 957.712 590.043 955.152 588.862C952.889 587.779 952.396 588.369 945.998 597.228C929.165 620.754 910.168 642.705 904.36 645.461C899.537 647.725 896.387 652.745 896.387 658.06C896.387 660.423 896.879 662.588 897.47 662.883C897.962 663.278 900.128 662.392 902.195 661.013C904.164 659.635 906.329 658.454 907.018 658.454C908.593 658.454 910.07 655.206 910.365 651.17C910.66 647.134 910.956 646.937 912.826 649.3C914.105 650.973 914.302 650.875 915.779 648.611C916.665 647.232 919.716 643.886 922.571 641.228C925.327 638.472 928.477 634.929 929.461 633.353C930.544 631.68 933.399 628.137 936.056 625.479C938.615 622.722 943.34 616.521 946.588 611.6C953.184 601.461 959.483 595.161 965.882 592.405L970.212 590.436L974.347 592.799C976.709 594.177 979.072 595.063 979.662 594.866C980.253 594.571 981.139 596.047 981.631 598.016C983.403 605.201 988.226 604.808 987.734 597.425C987.439 594.669 986.553 593.389 982.222 590.043C979.367 587.877 976.513 585.023 975.823 583.644C974.249 580.494 969.917 580.003 965.291 582.463C961.944 584.333 961.846 584.333 960.369 582.463C959.188 580.987 958.696 580.79 957.712 581.774Z" fill="black" fill-opacity="0.9"/>
<path d="M1011.55 584.727C1011.55 586.597 1012.74 592.701 1014.21 598.409C1016.77 608.056 1016.87 610.024 1016.77 627.251C1016.67 641.13 1016.87 645.658 1017.76 645.362C1018.45 645.165 1019.43 643.295 1020.02 641.13C1021.69 635.125 1023.86 636.11 1023.47 642.705C1023.07 651.564 1020.51 661.112 1014.7 675.68C1011.46 684.047 1009.09 691.528 1008.8 694.678C1008.41 699.009 1007.91 700.092 1005.94 701.076C1003.29 702.258 1000.92 705.899 997.775 713.873C996.003 718.499 995.215 719.385 993.738 718.991C992.459 718.597 991.868 718.893 991.868 719.877C991.868 720.665 989.211 723.618 986.061 726.373C979.761 731.886 978.285 735.036 980.056 739.662L981.139 742.419L982.714 740.056C983.698 738.776 987.832 733.461 991.967 728.342C999.251 719.385 1004.66 710.132 1004.66 706.49C1004.66 705.407 1005.16 705.014 1006.04 705.309C1007.81 705.998 1009.68 702.454 1012.05 694.383C1013.13 690.446 1014.8 687.295 1017.17 684.835C1020.12 681.882 1020.81 680.306 1021.2 675.976C1021.5 672.924 1022.68 668.987 1024.25 666.329C1026.42 662.588 1026.81 660.521 1027.11 652.253C1027.4 646.937 1027.01 640.047 1026.42 636.996C1025.83 633.944 1024.84 626.168 1024.35 619.769C1022.68 602.15 1018.05 586.795 1013.13 582.758C1011.75 581.577 1011.55 581.873 1011.55 584.727Z" fill="black" fill-opacity="0.9"/>
<path d="M1080.75 586.794C1081.25 589.058 1085.18 600.969 1088.04 609.237C1088.92 611.698 1091.09 615.045 1092.96 616.816C1095.62 619.376 1096.21 620.655 1096.21 624.199C1096.21 629.613 1097.39 631.581 1099.16 629.416C1102.7 625.085 1086.56 584.826 1081.05 584.628C1080.65 584.628 1080.46 585.613 1080.75 586.794Z" fill="black" fill-opacity="0.9"/>
<path d="M814.687 588.665C814.687 591.224 814.391 591.618 812.521 591.322C810.749 591.125 810.159 591.618 809.962 593.389C809.371 597.031 811.34 598.114 813.998 595.654C815.277 594.472 816.754 593.488 817.443 593.488C819.412 593.488 819.707 591.618 818.132 588.566C816.163 584.727 814.687 584.826 814.687 588.665Z" fill="black" fill-opacity="0.9"/>
<path d="M870.105 593.487C868.137 597.13 865.282 600.181 859.278 604.906C857.211 606.678 853.962 610.812 852.191 614.159C848.352 621.345 845.792 624.199 843.824 623.412C843.036 623.117 842.052 623.608 841.56 624.691C839.985 627.742 840.674 629.416 843.43 629.711C845.399 629.908 847.367 628.727 852.289 624.199C855.636 621.049 859.475 617.899 860.754 617.21C863.018 616.029 863.018 615.34 861.246 610.419C860.951 609.729 861.64 609.237 863.215 609.237C866.168 609.237 869.614 605.201 872.862 598.016C874.732 593.685 874.732 593.094 873.354 591.716C871.976 590.338 871.681 590.534 870.105 593.487Z" fill="black" fill-opacity="0.9"/>
<path d="M804.253 595.949C804.351 599.197 805.828 599.197 805.828 595.949C805.828 594.57 805.434 593.487 804.942 593.487C804.45 593.487 804.154 594.57 804.253 595.949Z" fill="black" fill-opacity="0.9"/>
<path d="M968.244 597.425C967.456 597.917 965.586 598.409 964.11 598.409C960.467 598.409 954.758 605.201 945.112 621.148C938.615 631.778 934.973 636.503 924.539 647.43C917.55 654.812 910.463 661.506 908.789 662.293C907.117 663.179 903.966 666.231 901.801 669.184C898.651 673.318 896.584 674.893 892.745 676.369C886.839 678.534 880.638 684.736 880.638 688.476C880.638 690.839 880.736 690.839 884.378 689.559C895.403 685.622 905.935 678.338 922.373 663.08L932.808 653.336L932.906 648.315C933.004 645.461 933.3 644.378 933.497 645.855C934.284 650.776 937.138 648.709 943.635 638.373C945.899 634.83 948.557 631.68 949.64 631.385C950.722 630.991 951.51 629.908 951.51 628.53C951.51 624.002 952.691 620.164 953.971 620.655C954.561 620.95 957.416 618.096 960.172 614.159C963.027 610.32 966.373 606.678 967.752 606.087C969.819 605.201 970.212 604.315 970.212 600.674C970.212 598.409 970.114 596.44 970.016 596.44C969.819 596.44 969.031 596.933 968.244 597.425Z" fill="black" fill-opacity="0.9"/>
<path d="M971.788 600.575C971.492 601.264 971.098 603.823 970.902 606.087C970.508 609.138 969.721 610.91 968.047 611.993C963.913 614.946 961.55 618.195 956.825 627.251C954.168 632.566 950.034 638.57 947.081 641.819C944.226 644.772 940.781 649.497 939.304 652.253C937.926 655.009 935.564 658.159 934.087 659.242C932.513 660.325 926.508 666.132 920.602 672.038C914.204 678.534 908.888 683.063 907.313 683.358C905.935 683.653 900.226 686.606 894.714 689.953C886.937 694.678 883.689 696.056 880.145 696.351C877.192 696.548 874.83 697.336 873.747 698.419C871.483 700.781 870.007 707.671 871.779 707.671C874.534 707.671 893.434 701.372 900.029 698.221C906.821 694.973 912.137 690.248 912.137 687.393C912.137 686.607 912.628 686.016 913.121 686.016C913.711 686.016 914.105 686.902 914.105 687.984C914.105 689.067 914.597 689.953 915.09 689.953C915.68 689.953 916.074 689.56 916.074 689.067C916.074 688.575 919.125 685.721 922.964 682.669C927 679.42 930.051 676.074 930.445 674.597C930.839 673.121 931.627 672.333 932.414 672.628C933.201 672.924 935.466 671.054 937.926 668.199C940.289 665.541 944.62 660.718 947.671 657.667C952.987 652.154 954.66 649.3 963.027 630.893C966.472 623.412 972.772 614.454 973.855 615.439C974.051 615.635 973.067 619.376 971.689 623.608C968.933 632.074 964.405 641.228 964.306 638.472C964.306 636.11 962.338 636.306 962.338 638.768C962.338 639.85 962.732 640.736 963.224 640.736C963.617 640.736 962.436 644.477 960.566 649.004C957.711 655.698 956.432 657.568 953.675 659.044C951.904 660.029 947.278 664.655 943.537 669.38C935.268 679.815 927.393 687.197 918.043 693.398C908.298 699.895 892.548 707.474 885.362 709.148C878.275 710.722 875.617 713.085 875.42 717.613C875.224 720.271 875.716 721.058 877.783 721.747C881.13 723.027 885.56 720.862 892.45 714.463C899.044 708.36 901.801 707.081 910.66 706.195C919.617 705.309 923.358 703.143 934.284 691.922C939.206 687 945.013 681.783 947.376 680.405C949.64 679.027 952.298 676.566 953.184 674.794C956.53 668.199 960.763 663.081 963.815 661.801C966.768 660.62 967.555 659.34 971 650.383C975.627 638.669 978.087 627.644 978.087 619.081C978.087 613.765 977.89 613.174 976.02 613.174C974.346 613.174 974.051 612.682 974.346 609.533C974.741 604.611 976.414 604.414 979.466 608.942C981.926 612.486 982.024 613.273 982.024 626.561C982.024 639.063 981.828 640.638 980.056 642.212C977.989 644.083 975.528 650.678 974.544 657.273C974.051 660.127 973.461 661.309 972.674 661.013C971.984 660.816 969.425 663.081 966.866 666.132C957.121 678.338 951.805 684.047 947.081 687.591C944.423 689.658 940.486 693.201 938.32 695.564C933.398 701.076 925.819 706.588 921.586 707.769C919.125 708.459 917.944 709.541 917.157 711.805C914.105 720.566 907.018 725.291 895.796 726.078C888.709 726.669 888.513 726.768 888.513 729.228C888.513 732.378 890.185 734.248 892.942 734.248C896.977 734.248 911.054 726.373 920.208 718.991C927.393 713.184 930.051 711.608 932.513 711.608C934.875 711.608 936.843 710.624 939.6 708.164C941.667 706.293 944.127 704.718 945.013 704.718C945.899 704.718 946.588 704.127 946.588 703.34C946.588 700.879 950.624 696.843 955.546 694.383C958.204 693.004 960.96 690.937 961.649 689.658C962.436 688.476 964.503 685.031 966.275 681.882C968.047 678.83 970.606 675.877 971.886 675.286C973.362 674.597 974.15 673.416 974.15 671.644C974.15 670.07 975.627 667.412 977.989 664.754C985.372 656.387 989.899 639.653 989.899 621.148V611.6L985.273 607.071C982.615 604.513 978.875 601.756 976.906 600.87C972.476 599.098 972.181 599.098 971.788 600.575Z" fill="black" fill-opacity="0.9"/>
<path d="M821.282 600.969C820.888 601.362 820.593 602.544 820.593 603.528C820.593 604.808 819.904 605.3 818.132 605.3C816.262 605.3 815.573 605.989 815.081 607.957C814.195 612.387 813.801 613.175 812.817 613.175C812.324 613.175 811.537 612.289 811.242 611.206C810.946 610.123 809.962 609.237 809.174 609.237C807.501 609.237 807.206 617.604 808.781 618.588C809.371 618.883 809.765 618.293 809.765 617.211C809.765 615.537 810.159 615.439 812.521 616.128C817.345 617.506 823.152 613.863 825.318 608.154C826.105 606.087 825.908 605.103 824.235 602.937C823.054 601.461 821.676 600.575 821.282 600.969Z" fill="black" fill-opacity="0.9"/>
<path d="M1059.79 605.497C1059.89 613.863 1061.85 624.789 1066.19 640.736C1068.55 649.694 1071.7 664.065 1073.08 672.628C1075.83 689.067 1078.29 697.434 1081.34 700.19C1085.08 703.537 1084.79 698.615 1080.56 686.311C1079.47 682.964 1078.49 678.732 1078.49 676.96C1078.49 675.188 1077.6 671.349 1076.52 668.494C1073.08 659.439 1070.81 649.89 1066.68 626.956C1064.51 614.749 1062.45 604.02 1062.15 603.036C1061.17 599.886 1059.79 601.362 1059.79 605.497Z" fill="black" fill-opacity="0.9"/>
<path d="M871.385 609.828C870.4 611.206 868.825 615.439 867.841 619.376C866.66 624.298 865.872 625.971 865.38 624.691C864.396 622.231 861.246 622.624 860.557 625.184C860.262 626.463 857.998 628.727 855.537 630.204C851.107 633.058 849.631 635.617 850.32 639.85C850.517 641.622 851.107 642.114 852.584 641.917C856.324 641.326 862.427 636.306 864.593 631.976C865.774 629.613 867.644 626.66 868.727 625.577C871.09 623.018 877.685 609.04 877.094 608.056C876.011 606.383 872.96 607.367 871.385 609.828Z" fill="black" fill-opacity="0.9"/>
<path d="M917.058 611.205C916.369 612.486 912.432 617.111 908.199 621.64C903.966 626.168 900.029 631.286 899.34 633.255C898.651 635.519 897.568 636.798 896.19 636.996C893.04 637.487 889.792 642.311 891.071 644.476C892.647 646.839 895.698 646.543 896.879 643.886C897.372 642.704 898.651 641.72 899.635 641.72C900.718 641.72 902.096 640.244 903.179 637.783C904.164 635.617 905.246 634.141 905.64 634.534C906.427 635.42 917.747 624.396 919.617 620.852C921.291 617.604 921.291 614.356 919.617 611.304L918.338 608.942L917.058 611.205Z" fill="black" fill-opacity="0.9"/>
<path d="M882.212 614.06C880.047 618.096 880.244 619.081 883.098 619.081C885.756 619.081 886.347 618.293 886.741 614.159C887.134 610.517 884.083 610.419 882.212 614.06Z" fill="black" fill-opacity="0.9"/>
<path d="M823.742 621.541C823.053 623.018 822.168 626.266 821.872 628.825C821.282 632.96 821.38 633.255 822.857 631.976C825.121 630.204 826.892 623.215 825.81 620.754C825.022 618.982 824.825 619.08 823.742 621.541Z" fill="black" fill-opacity="0.9"/>
<path d="M877.094 619.868C875.519 620.852 873.747 624.593 873.747 626.857C873.747 630.991 878.767 628.137 879.949 623.313C880.44 620.951 878.767 618.785 877.094 619.868Z" fill="black" fill-opacity="0.9"/>
<path d="M884.574 627.447C883.295 630.893 883.295 637.488 884.673 638.275C886.346 639.358 886.937 638.078 887.331 631.976C887.823 625.676 886.248 623.117 884.574 627.447Z" fill="black" fill-opacity="0.9"/>
<path d="M815.277 629.318C814.588 632.074 816.065 636.799 817.64 636.799C819.116 636.799 818.526 627.742 817.049 627.251C816.36 627.054 815.671 627.94 815.277 629.318Z" fill="black" fill-opacity="0.9"/>
<path d="M832.602 631.385C829.353 634.929 828.074 638.373 828.664 641.228C828.861 642.607 829.944 642.114 834.177 638.669C838.508 635.027 839.295 633.846 839.098 631.385C838.705 627.251 836.244 627.251 832.602 631.385Z" fill="black" fill-opacity="0.9"/>
<path d="M878.275 631.877C874.928 632.96 871.876 635.519 870.794 638.373C870.204 639.752 868.727 640.736 866.463 641.13C861.935 642.016 855.537 646.346 843.921 656.584C834.866 664.459 834.57 664.852 837.13 665.345C844.512 666.919 854.355 662.195 863.608 652.843C867.546 648.906 871.286 645.658 872.074 645.658C872.762 645.658 874.829 644.575 876.7 643.197C878.57 641.819 880.539 640.736 881.031 640.736C881.621 640.736 882.114 638.57 882.114 635.815C882.114 633.058 881.917 630.893 881.621 630.991C881.326 630.991 879.85 631.483 878.275 631.877Z" fill="black" fill-opacity="0.9"/>
<path d="M978.087 637.291C978.087 639.161 978.58 640.736 979.071 640.736C979.662 640.736 980.056 639.161 980.056 637.291C980.056 635.42 979.662 633.846 979.071 633.846C978.58 633.846 978.087 635.42 978.087 637.291Z" fill="black" fill-opacity="0.9"/>
<path d="M1089.32 637.291C1088.33 638.472 1088.53 640.441 1090.79 648.316C1092.17 653.631 1094.24 659.537 1095.32 661.407L1097.29 664.852L1096.9 658.258C1096.5 653.237 1095.72 650.481 1093.26 646.15C1090.7 641.622 1090.3 640.441 1091.39 639.161C1092.17 638.177 1092.27 637.389 1091.58 636.701C1090.89 636.011 1090.2 636.208 1089.32 637.291Z" fill="black" fill-opacity="0.9"/>
<path d="M838.213 643.984C829.944 651.761 826.302 656.486 828.665 656.486C831.027 656.486 844.611 649.595 847.367 646.937C849.434 644.969 849.926 643.788 849.434 641.819C848.843 639.063 847.367 636.799 846.284 636.799C845.989 636.897 842.347 640.047 838.213 643.984Z" fill="black" fill-opacity="0.9"/>
<path d="M821.577 645.658C821.577 651.564 822.758 651.957 824.53 646.741C825.81 642.705 825.318 640.736 822.955 640.736C821.971 640.736 821.577 642.016 821.577 645.658Z" fill="black" fill-opacity="0.9"/>
<path d="M886.248 647.134C884.279 648.906 882.803 649.399 881.13 649.004C879.358 648.611 878.669 648.906 878.177 650.481C877.684 652.056 876.7 652.548 874.436 652.548C870.597 652.548 868.432 653.926 859.08 662.588C854.848 666.526 850.517 669.675 848.942 669.971C845.398 670.66 844.709 672.137 845.89 676.763L846.678 680.306L851.599 675.976C858.687 669.675 881.13 653.533 882.902 653.533C883.098 653.533 883 655.107 882.803 656.977C882.212 661.801 883.788 661.309 886.937 655.501C888.414 652.843 890.284 650.185 891.17 649.792C892.351 649.103 892.45 648.513 891.564 646.741C890.087 644.181 889.694 644.181 886.248 647.134Z" fill="black" fill-opacity="0.9"/>
<path d="M813.998 648.118C813.702 649.004 813.702 649.89 813.998 650.185C814.884 651.071 816.655 649.595 816.655 648.02C816.655 646.15 814.785 646.248 813.998 648.118Z" fill="black" fill-opacity="0.9"/>
<path d="M1013.52 648.217C1013.52 649.201 1011.06 657.076 1008.11 665.836C1005.16 674.696 1002.7 682.373 1002.7 683.063C1002.7 683.752 1001.42 685.917 999.94 687.886C998.365 689.855 994.92 695.17 992.262 699.698C989.604 704.226 984.387 711.018 980.745 714.758C974.642 720.96 970.311 727.752 970.213 731.098C970.213 732.674 980.056 725.192 986.454 718.893C991.474 713.873 995.313 707.081 996.396 701.372C996.79 698.91 998.365 696.253 1000.63 693.989C1002.99 691.627 1005.94 686.311 1009.49 678.239C1016.08 663.179 1017.46 658.553 1017.46 651.859C1017.46 647.331 1017.26 646.642 1015.49 646.642C1014.31 646.642 1013.52 647.331 1013.52 648.217Z" fill="black" fill-opacity="0.9"/>
<path d="M807.009 651.662C807.206 653.533 807.797 654.91 808.289 654.714C809.765 654.419 809.47 649.299 807.993 648.808C807.009 648.512 806.714 649.299 807.009 651.662Z" fill="black" fill-opacity="0.9"/>
<path d="M1052.5 663.474C1051.52 668.494 1051.81 675.09 1053.39 684.539C1054.28 689.362 1055.26 697.926 1055.75 703.439C1056.24 708.951 1056.93 713.873 1057.33 714.463C1060.08 719.09 1060.67 703.734 1058.21 686.508C1057.43 680.503 1056.54 672.727 1056.15 669.085C1055.46 661.506 1053.49 658.454 1052.5 663.474Z" fill="black" fill-opacity="0.9"/>
<path d="M823.644 665.345C822.266 669.872 822.266 670.266 823.546 670.266C824.137 670.266 824.53 669.577 824.53 668.691C824.53 667.412 825.219 667.215 828.468 667.805C832.011 668.396 832.405 668.298 832.405 666.427C832.405 665.246 831.814 664.36 831.224 664.36C830.535 664.36 828.763 663.769 827.385 662.982C824.826 661.702 824.727 661.702 823.644 665.345Z" fill="black" fill-opacity="0.9"/>
<path d="M876.503 663.08C875.618 664.065 874.534 665.836 873.944 666.919C873.353 668.101 871.483 669.282 869.711 669.675C863.904 670.857 857.998 675.09 856.029 679.42C855.045 681.684 854.257 683.653 854.454 683.752C854.749 684.145 872.467 674.695 874.436 673.023C876.799 671.054 881.622 663.179 881.031 662.293C880.145 660.915 878.078 661.309 876.503 663.08Z" fill="black" fill-opacity="0.9"/>
<path d="M887.331 663.868C885.165 666.034 882.606 672.038 882.606 675.09C882.606 676.664 891.761 669.479 893.237 666.624C895.993 661.506 891.662 659.439 887.331 663.868Z" fill="black" fill-opacity="0.9"/>
<path d="M815.179 664.262C811.045 665.148 810.553 669.38 814.195 671.841C815.671 672.825 817.049 673.121 817.541 672.628C818.624 671.447 819.805 663.376 818.92 663.474C818.427 663.573 816.852 663.868 815.179 664.262Z" fill="black" fill-opacity="0.9"/>
<path d="M1086.07 670.857C1085.28 671.644 1086.27 676.271 1087.35 677.452C1088.33 678.534 1089.71 672.628 1088.83 671.251C1088.14 670.168 1086.96 669.971 1086.07 670.857Z" fill="black" fill-opacity="0.9"/>
<path d="M838.311 673.219C837.523 673.711 836.047 673.909 835.161 673.613C833.783 673.219 833.389 673.711 833.389 675.976C833.389 679.716 832.405 680.503 830.732 678.141C828.96 675.581 828.566 675.68 824.825 679.224C819.805 683.85 820.494 685.031 827.877 685.031C838.606 685.031 844.119 681.685 843.429 675.68C843.036 672.137 841.362 671.251 838.311 673.219Z" fill="black" fill-opacity="0.9"/>
<path d="M877.882 675.385C876.208 677.058 876.405 680.11 878.177 680.11C879.85 680.11 882.016 676.566 881.13 675.188C880.342 673.909 879.358 673.909 877.882 675.385Z" fill="black" fill-opacity="0.9"/>
<path d="M871.581 682.275C869.809 684.047 868.825 686.212 868.825 687.984C868.825 691.232 869.121 691.43 871.778 689.953C873.944 688.772 876.503 681.487 875.125 680.208C874.633 679.716 873.058 680.602 871.581 682.275Z" fill="black" fill-opacity="0.9"/>
<path d="M860.459 689.855C859.573 691.627 859.376 693.004 859.966 693.398C861.049 694.087 864.888 692.217 864.888 690.937C864.888 690.544 865.184 689.461 865.479 688.575C866.66 685.523 862.132 686.803 860.459 689.855Z" fill="black" fill-opacity="0.9"/>
<path d="M876.11 689.46C875.814 690.839 875.715 692.217 876.011 692.512C876.996 693.496 878.668 691.823 878.668 689.953C878.668 687 876.798 686.705 876.11 689.46Z" fill="black" fill-opacity="0.9"/>
<path d="M851.206 688.87C848.942 689.461 846.973 692.611 847.859 694.087C848.351 695.071 852.19 695.071 853.765 694.087C854.356 693.694 855.242 692.118 855.537 690.642C856.324 687.788 855.734 687.591 851.206 688.87Z" fill="black" fill-opacity="0.9"/>
<path d="M844.808 690.445C844.414 691.627 843.823 691.823 842.347 690.937C840.969 690.248 840.181 690.248 839.788 690.937C838.508 693.004 840.181 694.875 843.233 694.875C845.891 694.875 846.186 694.58 846.186 691.922C846.186 688.674 845.694 688.181 844.808 690.445Z" fill="black" fill-opacity="0.9"/>
<path d="M831.421 692.808C829.846 695.859 830.24 698.812 832.208 698.812C834.768 698.812 836.343 696.843 836.343 693.694C836.343 691.627 835.85 690.937 834.374 690.937C833.39 690.937 832.011 691.823 831.421 692.808Z" fill="black" fill-opacity="0.9"/>
<path d="M824.53 694.875C824.53 696.154 825.022 696.647 826.007 696.253C826.794 695.859 827.483 695.071 827.483 694.284C827.483 693.497 826.794 692.906 826.007 692.906C825.219 692.906 824.53 693.792 824.53 694.875Z" fill="black" fill-opacity="0.9"/>
<path d="M1047.58 706.883C1047.09 712.789 1046.01 716.137 1041.48 725.685C1038.43 732.083 1036.16 737.497 1036.46 737.792C1037.34 738.678 1040.69 736.414 1042.46 733.756C1043.45 732.279 1044.24 729.13 1044.33 726.768C1044.43 724.405 1044.83 722.436 1045.32 722.436C1045.71 722.436 1046.89 720.96 1047.98 719.188C1049.45 716.826 1049.94 714.266 1049.94 709.148C1049.94 699.403 1048.47 698.024 1047.58 706.883Z" fill="black" fill-opacity="0.9"/>
<path d="M850.32 703.34C850.517 704.816 851.206 706.195 851.895 706.49C852.879 706.785 853.174 706.096 852.879 704.127C852.682 702.651 851.993 701.273 851.304 700.977C850.32 700.682 850.024 701.372 850.32 703.34Z" fill="black" fill-opacity="0.9"/>
<path d="M858.391 702.159C857.604 704.325 858.293 707.967 859.769 708.459C860.557 708.655 860.951 707.573 860.951 704.816C860.951 700.879 859.474 699.403 858.391 702.159Z" fill="black" fill-opacity="0.9"/>
<path d="M865.479 702.356C864.593 704.718 864.79 708.655 865.873 708.655C867.152 708.655 868.826 705.309 868.826 702.848C868.826 700.387 866.365 700.092 865.479 702.356Z" fill="black" fill-opacity="0.9"/>
<path d="M837.917 704.325C836.933 706.982 837.228 708.655 838.803 708.655C839.689 708.655 840.28 707.769 840.28 706.293C840.28 703.34 838.803 702.159 837.917 704.325Z" fill="black" fill-opacity="0.9"/>
<path d="M830.042 706.293C829.649 707.179 829.649 708.164 829.944 708.459C830.534 709.049 833.389 706.687 833.389 705.604C833.389 704.029 830.633 704.62 830.042 706.293Z" fill="black" fill-opacity="0.9"/>
<path d="M1024.35 710.427C1024.35 711.116 1021.99 714.266 1019.04 717.416C1014.31 722.534 1011.36 728.539 1012.83 730.016C1013.82 730.902 1018.54 727.063 1021.3 723.027C1024.65 718.105 1026.71 711.608 1025.34 710.231C1024.65 709.541 1024.35 709.64 1024.35 710.427Z" fill="black" fill-opacity="0.9"/>
<path d="M902.687 712.494C899.93 714.168 895.403 719.385 895.403 720.862C895.403 721.649 907.313 720.369 909.282 719.385C910.168 718.893 911.447 717.219 911.939 715.546C912.825 713.085 912.727 712.494 911.152 711.608C908.396 710.132 906.132 710.427 902.687 712.494Z" fill="black" fill-opacity="0.9"/>
<path d="M869.023 715.152C866.463 716.924 866.168 721.255 868.432 722.141C870.4 722.929 872.763 720.074 872.763 716.924C872.763 713.873 871.581 713.38 869.023 715.152Z" fill="black" fill-opacity="0.9"/>
<path d="M937.04 715.94C933.989 717.416 933.694 724.405 936.647 724.405C939.108 724.405 941.667 720.763 941.667 717.318C941.667 714.365 940.682 714.07 937.04 715.94Z" fill="black" fill-opacity="0.9"/>
<path d="M852.781 717.909C851.796 720.369 851.895 724.405 852.977 724.405C854.257 724.405 855.045 720.566 854.159 718.204C853.47 716.432 853.371 716.333 852.781 717.909Z" fill="black" fill-opacity="0.9"/>
<path d="M1032.42 717.711C1030.75 719.385 1030.95 724.405 1032.62 724.405C1034.19 724.405 1035.18 722.338 1035.18 718.893C1035.18 716.333 1034.19 715.94 1032.42 717.711Z" fill="black" fill-opacity="0.9"/>
<path d="M858.982 720.369C858.982 721.452 859.474 722.633 859.966 722.929C860.557 723.322 860.951 722.436 860.951 721.058C860.951 719.68 860.557 718.499 859.966 718.499C859.474 718.499 858.982 719.385 858.982 720.369Z" fill="black" fill-opacity="0.9"/>
<path d="M926.409 722.436C924.834 723.519 922.275 725.98 920.7 728.047C918.141 731.492 918.042 731.886 919.617 732.969C921.881 734.642 921.881 734.642 927.098 732.279C931.036 730.607 931.626 729.819 932.217 726.669C932.512 724.602 932.808 722.338 932.808 721.649C932.808 719.877 929.756 720.172 926.409 722.436Z" fill="black" fill-opacity="0.9"/>
<path d="M883.098 727.654C882.114 730.114 883 733.756 884.575 733.756C886.642 733.756 886.937 730.705 885.165 728.145C883.886 726.373 883.591 726.275 883.098 727.654Z" fill="black" fill-opacity="0.9"/>
<path d="M831.224 730.705C829.058 735.528 834.57 738.087 843.429 736.414C846.776 735.725 848.745 735.823 850.517 736.709C853.273 738.186 854.06 737.792 854.06 734.741C854.06 730.409 851.501 729.622 845.201 731.984C839.394 734.051 839.394 734.051 837.622 732.083C834.275 728.342 832.503 728.047 831.224 730.705Z" fill="black" fill-opacity="0.9"/>
<path d="M873.944 729.819C869.809 731.591 870.302 733.658 874.928 734.051C877.684 734.248 878.865 733.855 880.047 732.083C880.933 730.902 881.621 729.523 881.621 729.13C881.621 727.85 877.487 728.244 873.944 729.819Z" fill="black" fill-opacity="0.9"/>
<path d="M865.479 731.788C865.183 732.575 864.199 733.264 863.313 733.264C861.147 733.264 862.132 735.627 864.593 736.02C866.955 736.414 869.219 733.855 868.432 731.788C867.743 729.917 866.266 729.917 865.479 731.788Z" fill="black" fill-opacity="0.9"/>
<path d="M945.604 732.279C945.604 733.362 946.096 734.248 946.588 734.248C947.179 734.248 947.573 733.362 947.573 732.279C947.573 731.197 947.179 730.311 946.588 730.311C946.096 730.311 945.604 731.197 945.604 732.279Z" fill="black" fill-opacity="0.9"/>
<path d="M964.011 733.067C962.239 734.937 961.353 736.808 961.55 738.284L961.846 740.45L964.602 738.087C966.768 736.316 967.358 734.937 967.063 732.87L966.768 730.114L964.011 733.067Z" fill="black" fill-opacity="0.9"/>
<path d="M908.396 734.248C906.624 735.331 904.655 737.3 904.064 738.678C903.08 740.843 902.883 740.942 901.801 739.466C899.635 736.513 897.371 738.58 897.371 743.6C897.371 748.816 899.635 749.801 901.604 745.273C902.391 743.403 903.376 742.714 904.557 742.91C908.1 743.6 911.251 742.024 914.105 737.989C915.778 735.823 917.058 733.56 917.058 733.067C917.058 731.591 911.644 732.279 908.396 734.248Z" fill="black" fill-opacity="0.9"/>
<path d="M857.013 734.937C857.013 736.118 857.506 737.398 857.998 737.694C859.277 738.481 859.277 736.217 857.998 734.248C857.21 733.067 857.013 733.165 857.013 734.937Z" fill="black" fill-opacity="0.9"/>
<path d="M932.316 738.185C931.627 740.253 933.399 744.486 934.678 743.698C935.662 743.107 934.776 736.217 933.792 736.217C933.3 736.217 932.709 737.103 932.316 738.185Z" fill="black" fill-opacity="0.9"/>
<path d="M1050.93 738.383C1050.93 739.071 1051.42 740.352 1051.91 741.139C1052.7 742.32 1052.9 742.222 1052.9 740.45C1052.9 739.269 1052.5 737.989 1051.91 737.694C1051.42 737.399 1050.93 737.694 1050.93 738.383Z" fill="black" fill-opacity="0.9"/>
<path d="M1031.44 740.45C1028.58 743.501 1028.68 744.879 1031.73 744.289C1033.11 744.091 1034.19 743.305 1034.19 742.615C1034.19 741.828 1034.49 740.647 1034.79 739.761C1035.67 737.497 1033.9 737.89 1031.44 740.45Z" fill="black" fill-opacity="0.9"/>
<path d="M926.311 740.647C925.917 741.631 924.342 742.123 921.389 742.123C915.68 742.123 909.577 744.682 907.214 748.029C902.785 754.231 905.541 755.412 915.089 751.573C918.239 750.293 922.275 748.915 923.85 748.521C926.114 748.029 926.901 747.34 926.901 745.765C926.901 744.584 927.787 743.009 928.87 742.32C930.051 741.631 930.641 740.647 930.346 740.154C929.46 738.678 926.901 738.973 926.311 740.647Z" fill="black" fill-opacity="0.9"/>
<path d="M971.295 741.729C969.031 744.682 968.539 748.029 970.507 748.029C972.969 747.93 977.004 743.403 976.414 741.237C975.725 738.481 973.756 738.678 971.295 741.729Z" fill="black" fill-opacity="0.9"/>
<path d="M888.315 741.237C885.756 742.714 886.15 744.387 889.595 746.356C893.335 748.423 894.418 747.832 894.418 743.501C894.418 740.647 894.123 740.154 892.252 740.154C890.973 740.154 889.201 740.647 888.315 741.237Z" fill="black" fill-opacity="0.9"/>
<path d="M954.168 740.843C952.593 742.32 953.577 744.19 955.644 743.895C958.499 743.501 959.385 740.154 956.628 740.154C955.644 740.154 954.463 740.45 954.168 740.843Z" fill="black" fill-opacity="0.9"/>
<path d="M947.573 747.734C947.573 750.195 949.049 751.474 950.033 749.899C950.427 749.309 950.033 748.128 949.147 747.242C947.671 745.765 947.573 745.765 947.573 747.734Z" fill="black" fill-opacity="0.9"/>
<path d="M983.305 747.242C982.714 747.93 982.024 749.309 981.729 750.195C981.237 751.573 981.631 751.967 983.403 751.967C985.667 751.967 986.946 750.293 986.946 747.439C986.946 745.765 984.584 745.667 983.305 747.242Z" fill="black" fill-opacity="0.9"/>
<path d="M861.443 749.013C861.148 749.506 861.345 750.883 861.935 752.065C863.018 754.034 863.117 754.034 864.396 752.262C865.184 751.278 865.873 749.899 865.873 749.211C865.873 747.832 862.329 747.635 861.443 749.013Z" fill="black" fill-opacity="0.9"/>
<path d="M960.862 749.997C959.877 751.081 958.499 751.966 957.711 751.966C956.235 751.966 956.038 754.722 957.318 756.789C958.007 757.872 958.991 757.577 962.239 755.018C966.472 751.671 967.654 748.029 964.503 748.029C963.42 748.029 961.846 748.915 960.862 749.997Z" fill="black" fill-opacity="0.9"/>
<path d="M940.485 752.459C938.221 755.412 938.221 758.168 940.386 757.675C942.257 757.282 944.225 752.163 943.044 750.982C942.553 750.49 941.371 751.179 940.485 752.459Z" fill="black" fill-opacity="0.9"/>
<path d="M925.622 755.608C924.441 756.691 924.835 757.873 926.409 757.873C927.197 757.873 927.886 757.184 927.886 756.396C927.886 754.821 926.705 754.427 925.622 755.608Z" fill="black" fill-opacity="0.9"/>
</svg>
