<svg width="1366" height="619" viewBox="0 0 1366 619" fill="none" xmlns="http://www.w3.org/2000/svg">
<g clip-path="url(#clip0_37_4)">
<g clip-path="url(#clip1_37_4)">
<path d="M1320.8 319.76C1318.8 319.545 1316 319.854 1314.48 320.318C1312.97 320.783 1309.37 321.198 1306.61 321.215C1300.05 321.433 1298.87 318.483 1301.65 308.655C1306.24 291.648 1307.03 277.598 1303.62 271.88C1300.77 267.094 1298.46 269.46 1295.32 280.364C1293.72 285.962 1289.67 296.594 1286.28 303.986L1280.32 317.411L1267.6 320.487C1258.32 322.644 1253.13 323.271 1249.01 322.463C1245.94 321.888 1241.8 321.914 1239.91 322.495C1234.74 324.082 1165.9 322.013 1138.62 319.48C1125.37 318.16 1110.28 317.13 1105.32 317.136C1100.18 317.054 1091.27 316.339 1085.48 315.491L1074.79 313.94L1097.14 308.047C1136.47 297.635 1158.23 290.267 1172.86 282.602C1195.02 270.693 1208.74 267.724 1230.15 269.991L1241.98 271.194L1244.5 265.034C1245.96 261.687 1246.87 258.787 1246.66 258.573C1246.46 258.359 1242.35 257.134 1237.58 255.975C1230.11 254.126 1227.19 254.056 1217.33 256.116C1202.77 259.064 1200.16 258.208 1201.63 250.854C1202.16 248.07 1204.72 240.658 1207.17 234.246C1209.78 227.921 1212.15 219.879 1212.57 216.298C1214.85 199.445 1214.41 200.269 1226.21 188.78C1232.41 182.875 1240.63 175.933 1244.41 173.393C1252.63 168.247 1261.32 159.229 1260.62 156.958C1259.89 154.561 1256.54 153.103 1253.89 153.916C1252.63 154.303 1247.4 158.394 1242.23 163.155C1236.9 167.828 1230.37 173.558 1227.52 175.952L1222.2 180.208L1220.84 175.792C1218.83 169.231 1219.97 163.497 1225.81 149.693C1231.26 136.84 1231.62 130.378 1226.82 131.849C1223.8 132.779 1210.42 149.032 1206.91 156.045C1203.84 162.233 1202.68 170.597 1204.15 175.392C1206.36 182.584 1202.42 191.799 1196.49 193.619C1192.96 194.703 1192.01 196.1 1189.04 204.879C1187.28 210.39 1185.38 214.978 1184.75 215.172C1182.98 215.714 1182.28 225.591 1183.62 234.432C1186.08 251.9 1181.94 257.312 1157.54 268.666C1144.96 274.46 1134.1 278.207 1103.9 287.335C1059.66 300.635 1040.82 304.9 1025.41 305.073C1019.22 305.175 1008.32 305.623 1001.29 306.123L988.415 306.899L973.086 315.883C949.846 329.227 929.607 339.304 915.669 344.272C908.807 346.654 900.585 350.005 897.285 351.846C894.071 353.523 876.047 360.02 857.528 366.256C821.17 378.242 802.487 382.594 789.475 382.032C777.88 381.586 765.031 382.906 739.634 386.973C726.601 389.04 713.412 390.602 710.327 390.444C707.28 390.413 699.847 390.485 693.869 390.801C687.892 391.116 678.372 391.139 672.91 390.882C667.32 390.665 662.1 390.748 661.343 390.98C660.586 391.213 652.204 389.091 642.667 386.357C628.28 382.213 625.224 380.804 624.411 378.154C623.559 375.378 622.812 375.193 619.405 376.239C614.611 377.71 600.776 374.915 597.837 372.089C596.451 370.72 595.88 368.41 595.834 365.111C595.858 358.891 594.626 358.026 591.528 361.876C589.158 364.95 580.646 368.253 578.803 366.748C578.192 366.107 578.513 364.904 579.581 363.886C582.747 360.705 614.394 343.262 619.945 341.559C627.39 339.274 634.492 340.822 638.389 345.425L641.549 349.425L642.33 342.972C642.838 339.227 642.472 335.336 641.474 333.433C640.079 330.686 641.022 327.912 648.874 312.11C653.83 302.168 659.605 287.694 661.794 279.982C663.983 272.269 666.774 263.819 667.882 261.132C668.952 258.319 669.643 255.622 669.449 254.991C669.294 254.486 669.957 251.246 670.91 248.054C672.223 243.786 672.224 241.99 670.905 241.291C669.916 240.766 668.665 238.941 668.201 237.427C667.426 234.903 668.806 233.099 676.234 226.264C685.41 217.926 691.568 210.099 689.589 209.05C688.929 208.7 686.968 210.407 685.239 212.87C681.354 218.204 674.644 224.681 670.324 227.249C667.275 229.013 667.237 228.887 667.298 224.588C667.325 214.778 666.124 198.718 665.193 197.485C663.817 195.698 663.454 200.365 663.409 221.364C663.351 234.221 662.735 240.761 661.035 243.768C658.625 248.511 649.401 255.345 628.937 267.838C612.502 277.713 609.056 278.633 594.735 276.953C575.252 274.649 574.291 274.667 567.456 279.388C558.418 285.475 548.536 290.164 532.832 295.674C524.999 298.492 517.758 300.99 517.001 301.222C514.39 302.161 516.619 306.724 520.024 307.473C525.428 308.438 554.071 297.853 566.866 290.061L577.671 283.432L587.519 285.38C594.582 286.802 597.56 287.959 598.471 290.026C599.866 292.774 600.157 292.822 608.631 289.394C613.562 287.466 625.57 281.158 635.52 275.343C645.344 269.567 653.761 265.052 654.255 265.314C656.031 266.15 649.581 287.871 643.934 300.511C640.804 307.408 629.29 315.773 623.536 315.468C621.993 315.39 615.067 311.717 608.327 307.296C601.46 302.915 595.029 299.504 594.145 299.775C590.991 300.743 593.356 304.85 600.464 311.366C609.046 319.087 610.983 323.6 607.312 326.936C605.817 328.361 594.003 335.3 580.975 342.335C547.98 360.33 532.421 364.967 527.196 358.287C524.928 355.393 522.929 355.178 522.199 357.749C521.421 360.611 517.035 360.715 512.971 357.82C509.276 355.226 508.403 355.08 505.723 357.145C503.849 358.687 501.452 359.422 498.948 359.362C490.691 358.997 462.945 363.508 442.875 368.287C408.401 376.519 383.47 380.304 382.58 377.402C382.463 377.024 383.222 374.996 384.233 372.891C386.866 367.527 383.937 366.079 378.451 370.247C374.966 372.836 374.083 373.107 371.318 371.746C368.098 370.25 367.971 370.288 367.59 373.995C367.249 376.032 366.326 377.972 365.316 378.282C362.919 379.018 355.856 377.596 353.266 375.905C351.908 375.08 349.114 374.971 346.717 375.706C344.445 376.403 342.146 376.557 341.612 376.168C341.04 375.654 337.159 375.602 332.85 375.958C323.942 376.621 280.558 375.163 271.574 373.778C265.209 372.832 261.485 369.695 259.626 363.639C257.845 357.835 258.974 354.313 263.263 352.996C267.175 351.796 269.672 346.888 268.433 342.85C267.581 340.075 267.708 340.036 262.892 344.137C257.697 348.354 252.689 350.029 251.914 347.506C251.14 344.982 254.267 341.675 265.665 332.931C277.87 323.664 279.356 320.861 275.217 315.918C271.484 311.403 261.193 305.312 251.589 301.908C246.952 300.294 240.124 296.039 233.656 290.707C223.745 282.704 219.952 280.692 218.689 282.875C216.891 286.464 239.875 304.675 247.162 305.476C249.578 305.701 255.078 307.879 259.317 310.443C272.527 318.4 270.242 324.9 251.508 333.134C235.511 340.39 236.259 338.78 239.712 354.978C241.8 365.382 240.623 369.194 234.187 372.964C231.604 374.447 207.699 382.473 180.949 390.682C132.877 405.435 132.285 405.755 122.615 412.035C117.227 415.622 102.753 423.791 90.2404 430.254C68.5544 441.465 65.6036 442.646 21.9558 457.422C-26.9526 473.949 -38.8331 478.424 -39.3391 480.374C-39.6602 481.577 -14.2409 539.215 -12.0986 542.147C-10.8869 543.846 -6.55821 542.656 -3.73229 539.718C-2.53797 538.661 2.71397 535.531 8.08207 532.779C30.9911 521.055 51.2906 508.474 62.3693 499.138C91.2165 474.823 122.11 452.227 132.234 447.878C140.543 444.361 203.532 427.378 224.679 422.96C242.303 419.208 263.002 417.826 276.702 419.282C281.99 419.868 291.937 419.439 299.603 418.328C312.675 416.388 332.072 417.062 341.318 419.747C344.51 420.7 344.791 421.166 343.421 422.553C341.751 424.308 342.156 428.325 344.134 429.375C344.755 429.599 346.289 428.299 347.669 426.496C348.883 424.604 350.806 422.772 351.815 422.462C353.582 421.92 353.92 423.473 353.556 429.935C353.272 433.059 356.457 430.84 358.401 426.377L360.257 422.08L369.369 421.631C387.418 421.062 400.922 425.477 414.81 436.54C420.706 441.357 422.607 442.154 425.635 441.225C429.925 439.909 432.36 441.094 440.913 448.272C444.307 451.234 448.507 453.672 450.05 453.751C453.64 453.754 458.932 448.954 458.585 446.024C458.412 444.558 450.885 439.827 437.693 432.831C426.316 426.796 416.646 420.928 416.297 419.793C415.716 417.9 417.318 417.271 433.283 413.061C456.392 406.936 459.313 407.006 468.963 413.709C479.02 420.839 490.714 432.851 492.262 437.898C492.921 440.043 493.004 445.263 492.361 449.464C490.751 460.865 492.892 465.592 496.41 458.162C498.218 454.156 500.168 454.662 501.64 459.456C502.259 461.475 503.267 462.96 503.898 462.767C508.566 461.334 498.004 428.266 491.235 423.303C483.932 417.951 470.142 406.306 469.871 405.423C469.097 402.899 492.117 398.734 507.186 398.803C511.068 398.855 518.006 398.52 522.771 398.301C532.387 397.697 557.236 400.84 562.396 403.26C564.171 404.095 567.121 404.709 569.004 404.545C574.147 404.21 587.418 407.868 608.401 415.51C618.956 419.312 632.004 423.592 637.398 424.974C642.793 426.355 649.962 428.573 653.396 429.866C656.869 431.286 662.515 432.59 665.931 432.922C669.472 433.216 673.964 433.908 676.118 434.628C682.084 436.525 691.72 436.881 696.388 435.449C706.356 432.39 734.004 442.405 747.629 453.962C751.149 456.886 757.363 464.09 761.483 469.867C768.831 480.313 769.112 480.779 782.735 520.225C803.737 581.013 811.471 606.666 814.33 624.978C815.711 633.528 817.219 642.039 817.722 643.68C818.651 646.708 819.234 646.805 834.7 647.719C838.494 647.936 846.954 650.309 853.57 652.973C868.703 659.098 870.74 659.439 877.554 657.348C880.582 656.419 886.279 655.637 890.412 655.611C898.389 655.51 904.882 652.827 906.477 649.024C908.032 645.095 904.374 644.423 884.85 645.583C875.321 646.022 865.219 645.947 862.357 645.168C854.053 643.299 829.665 633.112 829.123 631.345C828.852 630.462 827.847 625.386 827.055 620.107C826.137 614.866 824.136 604.298 822.57 596.495C820.916 588.857 819.845 581.317 820.176 579.696C820.556 577.785 820.053 576.145 818.831 574.863C815.689 571.823 807.069 550.033 793.833 511.849C786.997 492.272 779.007 470.287 776.053 462.91C773.225 455.495 770.843 448.633 770.912 447.507C771.177 443.422 778.299 444.136 793.986 449.814C803.337 453.295 807.296 453.599 816.069 451.597C819.427 450.842 819.777 450.183 819.265 447.165C818.898 445.068 818.055 443.67 817.298 443.903C816.541 444.135 813.97 443.405 811.535 442.22C799.517 436.796 782.092 432.203 765.937 430.396C751.238 428.833 742.855 426.711 742.197 424.566C741.539 422.421 744.732 421.579 763.035 419.138C787.868 415.935 816.301 414.112 820.065 415.58C821.966 416.377 826.417 420.534 829.82 424.874C834.037 430.068 837.431 433.03 840.128 433.721C842.243 434.315 846.793 436.094 850.052 437.717C854.756 440.001 856.629 440.254 858.959 438.849C861.541 437.366 862.579 437.6 866.875 441.252C872.519 446.146 872.76 448.281 867.683 451.082C863.033 453.475 856.708 464.804 857.869 468.59C858.915 471.996 860.808 471.415 867.973 465.075C871.217 462.147 877.284 458.076 881.507 456.089L889.195 452.35L900.379 457.753C906.568 460.824 911.98 463.167 912.611 462.973C913.873 462.586 914.293 459.005 913.364 455.977C913.015 454.842 909.737 452.258 906.022 450.499C902.394 448.575 897.177 445.068 894.52 442.708C888.187 436.92 869.243 427.824 858.775 425.652C847.394 423.208 840.013 419.399 838.735 415.235C835.482 404.636 849.922 403.104 869.837 411.765C881.119 416.586 893.092 418.71 894.869 415.956C896.948 412.833 894.853 411.405 882.096 407.174C875.597 404.889 868.855 402.264 867.167 401.263C864.121 399.437 864.121 399.437 867.422 397.596C869.198 396.636 877.76 393.043 886.359 389.575L901.919 383.144L910.931 386.867C915.975 388.908 923.106 391 927.055 391.721C939.318 393.894 945.687 389.454 934.783 386.312C929.932 384.901 928.458 383.697 927.529 380.669L926.406 377.01L937.11 374.553C946.049 372.638 948.873 371.495 954.398 367.453C958.097 364.661 962.291 362.132 963.679 361.706C967.969 360.389 976.313 360.59 978.952 361.989C982.376 363.699 990.749 364.443 994.661 363.243C999.582 361.732 997.488 358.509 989.068 354.466L981.512 350.987L984.59 347.971C989.164 343.531 999.182 338.385 1009.02 335.365C1021.14 331.648 1034.57 332.221 1081.63 338.485C1094.74 340.261 1106.15 341.453 1107.03 341.182C1111.2 339.905 1130.65 345.256 1131.46 347.906C1132.39 350.934 1137.99 352.529 1147.22 352.459C1152.6 352.463 1159.61 352.798 1162.81 353.334C1169.51 354.455 1196.81 364.712 1210.23 371.088C1215.19 373.294 1221.23 375.443 1223.77 375.629C1230.86 376.217 1243.32 383.989 1244.75 388.657C1245.84 392.19 1245.53 392.559 1241.5 393.798C1237.21 395.114 1237.12 395.279 1238.63 400.2C1239.52 403.102 1239.84 407.284 1239.41 409.487C1238.81 413.397 1239.21 414.241 1246.14 422.883C1250.19 427.99 1257.48 437.349 1262.34 443.728C1267.03 450.02 1271.59 454.972 1272.22 454.778C1274.11 454.197 1271.23 449.285 1261.96 437.081C1257.38 431.168 1252.02 423.149 1249.82 419.13C1246.14 412.529 1246 411.607 1247.32 408.716C1248.24 406.776 1251.1 404.382 1254.47 402.793C1257.51 401.446 1263.22 398.452 1266.99 396.33C1274.73 391.882 1280.13 391.468 1281.21 395.001C1282.58 399 1290.4 406.953 1291.28 405.304C1292.41 403.161 1286.01 393.53 1280.85 389.315C1275.32 384.799 1274.98 381.451 1279.27 375.166C1284.68 367.155 1283.67 365.669 1274.91 368.632C1265.78 371.711 1262.09 370.913 1256.35 364.805C1252.44 360.62 1251.16 360.046 1247.47 360.626C1245.03 361.235 1242.03 361.33 1240.66 360.921C1238.45 360.493 1238.54 360.328 1240.77 359.505C1242.29 359.04 1243.57 357.818 1243.64 356.693C1243.85 353.316 1290.56 339.533 1304.27 338.777C1310 338.538 1316.61 337.612 1319.14 336.837C1323.18 335.598 1323.65 334.9 1324.42 328.865C1325.42 320.414 1325.18 320.074 1320.8 319.76ZM1230.01 357.702C1225.63 357.388 1209.57 353.204 1204.2 350.987L1198.66 348.683L1202.8 348.24C1205.19 347.922 1210.23 348.585 1214.29 349.685C1218.19 350.697 1222.52 351.302 1223.78 350.914C1225.04 350.527 1226.25 350.848 1226.44 351.479C1226.67 352.236 1228.53 352.907 1230.49 352.996C1233.45 353.192 1234.03 353.707 1233.23 355.608C1232.74 356.724 1231.26 357.732 1230.01 357.702ZM920.074 383.371C919.443 383.564 918.658 383.253 918.425 382.496C918.232 381.865 918.669 381.041 919.3 380.847C920.057 380.615 920.755 381.091 920.949 381.722C921.181 382.479 920.831 383.138 920.074 383.371Z" fill="black"/>
<path d="M387.864 351.558C387.42 352.023 386.698 352.43 385.892 352.299C385.311 352.205 366.089 349.05 365.505 348.939C363.829 348.627 362.934 347.843 362.541 346.92C361.941 345.518 353.868 331.7 339.167 323.755C337.594 322.908 341.293 317.177 345.897 319.371C349.051 320.874 357.183 327.561 358.828 326.975C360.098 326.522 362.915 321.612 363.565 311.013L364.867 289.703C364.961 288.758 365.417 287.886 366.14 287.271C366.863 286.655 367.796 286.344 368.744 286.402C369.692 286.46 370.58 286.884 371.223 287.583C371.865 288.282 372.211 289.203 372.188 290.153L371.055 308.75C370.942 310.563 371.421 311.5 372.394 311.574C373.259 311.644 373.644 311.228 373.905 309.536L376.524 287.332C376.58 286.854 376.729 286.391 376.964 285.971C377.199 285.551 377.514 285.181 377.892 284.882C378.27 284.584 378.702 284.363 379.166 284.232C379.629 284.101 380.113 284.062 380.591 284.119C381.07 284.174 381.533 284.323 381.954 284.557C382.375 284.792 382.746 285.107 383.045 285.485C383.344 285.863 383.565 286.296 383.696 286.76C383.827 287.224 383.865 287.709 383.808 288.188L381.319 309.302C381.103 311.16 381.281 312.272 382.379 312.32C383.038 312.35 383.4 311.491 383.603 310.69L387.536 291.279C387.621 290.796 387.801 290.334 388.066 289.922C388.332 289.509 388.677 289.154 389.082 288.878C389.487 288.601 389.944 288.408 390.424 288.311C390.905 288.214 391.401 288.214 391.881 288.311C392.362 288.409 392.818 288.602 393.223 288.878C393.628 289.155 393.974 289.51 394.239 289.923C394.504 290.335 394.684 290.797 394.768 291.28C394.852 291.764 394.839 292.259 394.728 292.737L391.106 310.627C390.57 313.254 390.703 314.356 391.742 314.567C392.801 314.788 393.128 313.986 393.304 313.281L397.078 298.241C397.328 297.423 397.883 296.734 398.628 296.313C399.372 295.893 400.25 295.775 401.079 295.983C401.908 296.191 402.626 296.709 403.084 297.431C403.542 298.152 403.706 299.022 403.542 299.861L399.431 316.231L399.433 316.235L399.431 316.239L396.965 326.054C396.553 327.931 396.244 329.737 396.085 331.575C395.161 342.375 389.325 350.001 387.864 351.558Z" fill="#ABCC63"/>
<g clip-path="url(#clip2_37_4)">
<path d="M268.901 442.792C269.235 442.242 269.853 441.689 270.668 441.644C271.256 441.611 290.706 440.559 291.301 440.542C293.005 440.486 294.047 441.06 294.629 441.876C295.517 443.117 306.371 454.875 322.438 459.474C324.156 459.963 321.776 466.355 316.808 465.203C313.404 464.413 304.025 459.631 302.544 460.557C301.401 461.272 299.705 466.673 301.35 477.164L304.66 498.256C304.771 499.198 304.513 500.148 303.939 500.905C303.366 501.661 302.521 502.166 301.583 502.313C300.645 502.46 299.686 502.237 298.909 501.692C298.131 501.147 297.595 500.322 297.413 499.39L294.522 480.985C294.242 479.189 293.572 478.378 292.607 478.514C291.747 478.632 291.46 479.121 291.569 480.83L293.785 503.077C293.833 503.556 293.787 504.04 293.648 504.501C293.509 504.962 293.281 505.391 292.976 505.764C292.671 506.136 292.296 506.445 291.872 506.673C291.448 506.9 290.983 507.042 290.504 507.09C290.024 507.139 289.54 507.093 289.078 506.955C288.617 506.816 288.187 506.588 287.814 506.283C287.441 505.978 287.132 505.602 286.904 505.178C286.676 504.753 286.535 504.287 286.488 503.808L284.379 482.652C284.19 480.791 283.777 479.744 282.695 479.932C282.045 480.045 281.876 480.961 281.85 481.788L282.182 501.59C282.203 502.08 282.127 502.57 281.956 503.03C281.785 503.49 281.524 503.911 281.188 504.268C280.852 504.625 280.448 504.911 279.999 505.11C279.551 505.308 279.067 505.415 278.576 505.423C278.086 505.431 277.599 505.341 277.144 505.158C276.689 504.974 276.275 504.702 275.927 504.356C275.579 504.01 275.304 503.598 275.119 503.144C274.933 502.69 274.84 502.203 274.845 501.713L274.535 483.463C274.494 480.781 274.127 479.734 273.067 479.751C271.986 479.763 271.839 480.616 271.818 481.343L271.367 496.843C271.298 497.695 270.904 498.488 270.267 499.058C269.63 499.629 268.799 499.933 267.945 499.908C267.09 499.883 266.278 499.531 265.675 498.925C265.072 498.319 264.725 497.505 264.705 496.65L265.201 479.779L265.198 479.775L265.199 479.772L265.497 469.656C265.496 467.734 265.408 465.904 265.169 464.074C263.75 453.329 267.809 444.626 268.901 442.792Z" fill="#ABCC63"/>
</g>
<g clip-path="url(#clip3_37_4)">
<path d="M718.119 227.405C718.452 226.855 719.071 226.303 719.885 226.258C720.473 226.224 739.924 225.173 740.519 225.156C742.223 225.1 743.265 225.674 743.847 226.49C744.735 227.731 755.589 239.489 771.656 244.088C773.374 244.577 770.993 250.969 766.026 249.816C762.621 249.027 753.242 244.245 751.762 245.17C750.619 245.886 748.923 251.287 750.567 261.778L753.878 282.869C753.989 283.812 753.731 284.762 753.157 285.518C752.583 286.275 751.739 286.78 750.801 286.927C749.863 287.073 748.904 286.851 748.126 286.306C747.349 285.761 746.813 284.936 746.631 284.004L743.739 265.598C743.46 263.803 742.79 262.991 741.825 263.128C740.964 263.246 740.678 263.735 740.786 265.444L743.003 287.691C743.051 288.17 743.005 288.654 742.866 289.115C742.727 289.576 742.499 290.005 742.194 290.378C741.889 290.75 741.514 291.059 741.09 291.287C740.665 291.514 740.2 291.656 739.721 291.704C739.242 291.753 738.758 291.707 738.296 291.569C737.835 291.43 737.405 291.202 737.032 290.897C736.659 290.592 736.349 290.216 736.122 289.791C735.894 289.367 735.753 288.901 735.706 288.421L733.596 267.266C733.408 265.405 732.995 264.357 731.912 264.546C731.263 264.659 731.093 265.575 731.067 266.402L731.399 286.204C731.421 286.694 731.344 287.184 731.174 287.643C731.003 288.103 730.742 288.524 730.406 288.882C730.07 289.239 729.666 289.525 729.217 289.724C728.768 289.922 728.285 290.028 727.794 290.037C727.304 290.045 726.817 289.955 726.362 289.771C725.907 289.588 725.493 289.315 725.145 288.97C724.797 288.624 724.522 288.212 724.336 287.758C724.15 287.304 724.057 286.817 724.063 286.327L723.753 268.076C723.711 265.395 723.345 264.347 722.285 264.365C721.204 264.377 721.057 265.23 721.036 265.957L720.585 281.457C720.515 282.309 720.122 283.102 719.485 283.672C718.848 284.242 718.017 284.547 717.162 284.522C716.308 284.497 715.495 284.145 714.893 283.539C714.29 282.933 713.943 282.118 713.923 281.264L714.418 264.393L714.416 264.389L714.416 264.386L714.715 254.269C714.714 252.348 714.626 250.517 714.387 248.688C712.968 237.943 717.027 229.24 718.119 227.405Z" fill="#ABCC63"/>
</g>
<path d="M282.482 234.884C282.633 234.259 283.056 233.546 283.819 233.257C284.37 233.048 302.596 226.176 303.158 225.98C304.766 225.413 305.933 225.645 306.734 226.248C307.955 227.163 321.851 235.098 338.556 234.635C340.342 234.583 340.001 241.395 334.917 241.795C331.434 242.07 321.049 240.34 319.917 241.67C319.043 242.697 319.055 248.357 323.789 257.863L333.309 276.973C333.7 277.838 333.74 278.822 333.421 279.716C333.102 280.61 332.45 281.347 331.599 281.77C330.749 282.193 329.768 282.27 328.863 281.985C327.957 281.7 327.197 281.075 326.742 280.242L318.432 263.566C317.624 261.939 316.74 261.367 315.861 261.789C315.076 262.161 314.951 262.713 315.57 264.31L324.396 284.852C324.586 285.294 324.688 285.769 324.695 286.25C324.701 286.732 324.613 287.21 324.435 287.657C324.257 288.104 323.992 288.512 323.657 288.857C323.321 289.202 322.92 289.477 322.478 289.667C322.036 289.859 321.56 289.961 321.078 289.968C320.597 289.976 320.118 289.888 319.67 289.709C319.222 289.531 318.814 289.266 318.469 288.93C318.124 288.594 317.849 288.193 317.659 287.75L309.265 268.217C308.523 266.499 307.813 265.625 306.839 266.132C306.253 266.435 306.368 267.36 306.593 268.156L312.884 286.935C313.053 287.396 313.128 287.885 313.104 288.375C313.08 288.865 312.958 289.345 312.745 289.787C312.533 290.229 312.234 290.624 311.866 290.949C311.498 291.273 311.069 291.521 310.604 291.677C310.139 291.832 309.647 291.893 309.158 291.856C308.669 291.819 308.192 291.683 307.756 291.459C307.32 291.234 306.934 290.924 306.619 290.547C306.305 290.171 306.07 289.735 305.927 289.266L300.125 271.959C299.276 269.415 298.611 268.527 297.605 268.864C296.578 269.202 296.695 270.059 296.895 270.759L301.141 285.672C301.332 286.505 301.196 287.38 300.761 288.116C300.326 288.852 299.625 289.393 298.803 289.627C297.981 289.861 297.101 289.771 296.343 289.375C295.585 288.979 295.009 288.307 294.732 287.498L290.114 271.264L290.11 271.261L290.11 271.258L287.342 261.523C286.761 259.691 286.125 257.972 285.345 256.301C280.75 246.484 281.994 236.962 282.482 234.884Z" fill="#ABCC63"/>
<g clip-path="url(#clip4_37_4)">
<path d="M497.138 200.744C497.675 200.39 498.471 200.158 499.226 200.467C499.771 200.691 517.781 208.109 518.326 208.35C519.888 209.033 520.582 209.999 520.756 210.987C521.024 212.489 525.763 227.773 538.288 238.837C539.629 240.017 534.73 244.763 530.741 241.586C528.008 239.408 521.599 231.056 519.864 231.255C518.524 231.409 514.67 235.555 511.64 245.733L505.554 266.196C505.249 267.096 504.608 267.842 503.764 268.278C502.921 268.714 501.941 268.806 501.031 268.535C500.121 268.264 499.351 267.651 498.884 266.825C498.416 265.998 498.287 265.023 498.524 264.103L503.833 246.244C504.353 244.503 504.098 243.482 503.167 243.19C502.34 242.926 501.871 243.244 501.234 244.834L493.663 265.87C493.5 266.324 493.25 266.74 492.926 267.097C492.603 267.453 492.212 267.742 491.777 267.947C491.341 268.153 490.87 268.27 490.389 268.293C489.908 268.316 489.427 268.244 488.974 268.081C488.52 267.919 488.103 267.669 487.746 267.346C487.389 267.022 487.099 266.631 486.893 266.195C486.688 265.759 486.57 265.287 486.548 264.806C486.525 264.324 486.597 263.843 486.761 263.39L493.959 243.385C494.59 241.624 494.667 240.501 493.609 240.206C492.974 240.028 492.427 240.782 492.048 241.517L483.828 259.536C483.637 259.987 483.357 260.396 483.005 260.738C482.653 261.08 482.236 261.347 481.779 261.525C481.322 261.703 480.834 261.788 480.344 261.774C479.853 261.76 479.371 261.648 478.925 261.444C478.478 261.241 478.077 260.95 477.746 260.588C477.414 260.227 477.157 259.803 476.992 259.341C476.827 258.879 476.756 258.389 476.784 257.899C476.811 257.41 476.936 256.93 477.152 256.49L484.725 239.882C485.841 237.443 485.961 236.34 484.996 235.899C484.015 235.446 483.515 236.152 483.184 236.799L476.108 250.597C475.679 251.337 474.982 251.883 474.162 252.124C473.342 252.365 472.461 252.282 471.7 251.892C470.939 251.502 470.357 250.835 470.074 250.028C469.791 249.221 469.828 248.337 470.178 247.557L477.883 232.541L477.882 232.536L477.885 232.533L482.506 223.53C483.332 221.794 484.041 220.104 484.612 218.35C487.954 208.039 495.362 201.929 497.138 200.744Z" fill="#ABCC63"/>
</g>
<g clip-path="url(#clip5_37_4)">
<path d="M361.078 565.009C360.746 565.56 360.127 566.112 359.313 566.158C358.725 566.192 339.275 567.254 338.68 567.271C336.976 567.327 335.934 566.754 335.351 565.938C334.463 564.698 323.602 552.945 307.533 548.355C305.815 547.867 308.192 541.474 313.16 542.623C316.565 543.411 325.947 548.188 327.426 547.262C328.569 546.546 330.262 541.144 328.612 530.654L325.291 509.564C325.179 508.621 325.437 507.672 326.01 506.915C326.584 506.158 327.428 505.653 328.366 505.505C329.304 505.358 330.263 505.58 331.041 506.124C331.818 506.669 332.355 507.494 332.538 508.426L335.438 526.83C335.719 528.625 336.389 529.436 337.354 529.299C338.215 529.181 338.501 528.692 338.392 526.983L336.163 504.737C336.115 504.258 336.161 503.774 336.3 503.313C336.438 502.852 336.667 502.423 336.971 502.05C337.276 501.677 337.651 501.368 338.075 501.14C338.499 500.912 338.964 500.77 339.443 500.722C339.922 500.673 340.407 500.719 340.868 500.857C341.33 500.995 341.76 501.223 342.133 501.528C342.506 501.833 342.816 502.208 343.043 502.633C343.271 503.058 343.413 503.523 343.46 504.003L345.581 525.157C345.77 527.018 346.184 528.065 347.266 527.876C347.916 527.763 348.084 526.847 348.11 526.02L347.768 506.218C347.746 505.728 347.822 505.238 347.992 504.778C348.163 504.318 348.424 503.897 348.76 503.54C349.096 503.182 349.5 502.896 349.948 502.697C350.397 502.499 350.881 502.392 351.371 502.383C351.861 502.375 352.349 502.465 352.804 502.648C353.259 502.831 353.673 503.103 354.021 503.449C354.369 503.795 354.644 504.207 354.83 504.66C355.016 505.114 355.109 505.601 355.104 506.091L355.424 524.342C355.466 527.023 355.833 528.07 356.894 528.052C357.975 528.039 358.121 527.187 358.142 526.459L358.585 510.96C358.654 510.107 359.047 509.314 359.683 508.744C360.32 508.173 361.151 507.868 362.006 507.893C362.86 507.917 363.673 508.268 364.276 508.874C364.879 509.48 365.226 510.294 365.246 511.149L364.76 528.02L364.763 528.024L364.762 528.027L364.469 538.144C364.471 540.066 364.559 541.896 364.8 543.725C366.225 554.47 362.17 563.175 361.078 565.009Z" fill="#ABCC63"/>
</g>
<g clip-path="url(#clip6_37_4)">
<path d="M619.161 589.044C618.829 589.594 618.21 590.147 617.396 590.193C616.808 590.226 597.358 591.288 596.763 591.306C595.059 591.362 594.017 590.789 593.434 589.973C592.546 588.733 581.685 576.98 565.616 572.389C563.898 571.902 566.275 565.508 571.243 566.658C574.648 567.446 584.03 572.223 585.509 571.297C586.652 570.58 588.345 565.179 586.695 554.689L583.374 533.599C583.262 532.656 583.52 531.706 584.093 530.95C584.667 530.193 585.511 529.687 586.449 529.54C587.387 529.393 588.346 529.615 589.124 530.159C589.901 530.704 590.438 531.528 590.621 532.46L593.521 550.864C593.802 552.66 594.472 553.471 595.438 553.334C596.298 553.216 596.584 552.727 596.475 551.018L594.246 528.771C594.198 528.292 594.244 527.809 594.383 527.348C594.521 526.887 594.75 526.457 595.054 526.085C595.359 525.712 595.734 525.403 596.158 525.175C596.582 524.947 597.047 524.805 597.526 524.757C598.005 524.708 598.49 524.753 598.951 524.892C599.413 525.03 599.843 525.258 600.216 525.563C600.589 525.867 600.899 526.243 601.126 526.668C601.354 527.092 601.496 527.558 601.543 528.037L603.664 549.192C603.853 551.052 604.267 552.1 605.349 551.911C605.999 551.798 606.167 550.881 606.193 550.055L605.851 530.252C605.829 529.762 605.905 529.273 606.076 528.813C606.246 528.353 606.507 527.932 606.843 527.574C607.179 527.217 607.583 526.93 608.031 526.732C608.48 526.533 608.964 526.427 609.454 526.418C609.944 526.41 610.432 526.5 610.887 526.683C611.342 526.866 611.756 527.138 612.104 527.484C612.452 527.829 612.727 528.241 612.913 528.695C613.099 529.149 613.192 529.635 613.187 530.126L613.507 548.376C613.549 551.057 613.916 552.105 614.977 552.087C616.058 552.074 616.204 551.221 616.225 550.494L616.668 534.994C616.737 534.142 617.13 533.349 617.766 532.778C618.403 532.208 619.234 531.903 620.089 531.927C620.943 531.952 621.756 532.303 622.359 532.909C622.962 533.515 623.309 534.329 623.329 535.184L622.843 552.054L622.846 552.059L622.845 552.062L622.552 562.178C622.554 564.1 622.642 565.93 622.883 567.76C624.308 578.504 620.253 587.209 619.161 589.044Z" fill="#ABCC63"/>
</g>
<g clip-path="url(#clip7_37_4)">
<path d="M392.843 434.851C393.385 434.506 394.185 434.286 394.935 434.607C395.477 434.838 413.371 442.532 413.912 442.781C415.464 443.487 416.143 444.464 416.302 445.454C416.547 446.96 421.052 462.315 433.405 473.569C434.728 474.77 429.757 479.441 425.817 476.202C423.118 473.983 416.837 465.534 415.1 465.706C413.758 465.84 409.84 469.926 406.656 480.056L400.257 500.425C399.938 501.319 399.285 502.055 398.435 502.479C397.585 502.902 396.604 502.979 395.699 502.694C394.793 502.409 394.033 501.784 393.578 500.951C393.123 500.117 393.009 499.14 393.26 498.224L398.841 480.448C399.388 478.716 399.148 477.691 398.222 477.385C397.399 477.108 396.926 477.419 396.264 478.998L388.372 499.917C388.203 500.368 387.946 500.78 387.617 501.132C387.288 501.483 386.893 501.766 386.454 501.965C386.016 502.163 385.542 502.274 385.061 502.289C384.58 502.305 384.101 502.225 383.65 502.055C383.199 501.887 382.785 501.63 382.433 501.301C382.081 500.972 381.797 500.577 381.598 500.138C381.399 499.699 381.289 499.225 381.274 498.744C381.259 498.262 381.339 497.782 381.509 497.331L389.012 477.439C389.67 475.688 389.765 474.566 388.711 474.254C388.079 474.067 387.521 474.812 387.13 475.542L378.635 493.433C378.437 493.881 378.151 494.286 377.794 494.622C377.437 494.958 377.016 495.22 376.556 495.391C376.097 495.562 375.607 495.639 375.117 495.617C374.627 495.596 374.146 495.476 373.703 495.266C373.26 495.055 372.864 494.758 372.537 494.392C372.211 494.026 371.962 493.598 371.803 493.134C371.645 492.669 371.582 492.178 371.617 491.689C371.652 491.199 371.784 490.722 372.007 490.285L379.833 473.795C380.986 471.374 381.123 470.272 380.165 469.817C379.191 469.348 378.68 470.047 378.339 470.689L371.053 484.377C370.613 485.11 369.908 485.645 369.084 485.874C368.26 486.102 367.38 486.005 366.625 485.604C365.871 485.202 365.299 484.526 365.028 483.716C364.757 482.905 364.808 482.021 365.17 481.246L373.104 466.35L373.103 466.345L373.106 466.342L377.865 457.41C378.717 455.688 379.451 454.009 380.049 452.264C383.548 442.005 391.05 436.009 392.843 434.851Z" fill="#ABCC63"/>
</g>
<g clip-path="url(#clip8_37_4)">
<path d="M727.232 469.587C727.87 469.506 728.687 469.648 729.228 470.258C729.619 470.699 742.521 485.292 742.904 485.749C744.005 487.05 744.203 488.223 743.924 489.186C743.503 490.652 741.025 506.462 747.396 521.911C748.08 523.562 741.591 525.665 739.41 521.055C737.915 517.896 735.84 507.575 734.195 506.989C732.925 506.538 727.638 508.561 720.436 516.364L705.958 532.055C705.288 532.728 704.383 533.115 703.434 533.135C702.484 533.155 701.564 532.806 700.867 532.162C700.169 531.518 699.748 530.629 699.692 529.681C699.637 528.733 699.951 527.8 700.568 527.079L713.201 513.384C714.435 512.051 714.655 511.022 713.948 510.35C713.322 509.748 712.761 509.827 711.489 510.973L695.425 526.525C695.08 526.86 694.672 527.124 694.224 527.301C693.777 527.478 693.299 527.566 692.817 527.558C692.336 527.551 691.861 527.449 691.419 527.257C690.977 527.066 690.578 526.79 690.243 526.444C689.906 526.099 689.642 525.69 689.464 525.243C689.286 524.795 689.198 524.316 689.205 523.834C689.212 523.352 689.315 522.877 689.507 522.435C689.698 521.993 689.975 521.593 690.322 521.258L705.596 506.469C706.938 505.165 707.502 504.191 706.682 503.46C706.191 503.021 705.367 503.457 704.703 503.95L689.387 516.505C689.016 516.827 688.585 517.071 688.118 517.222C687.652 517.374 687.16 517.431 686.671 517.389C686.182 517.348 685.707 517.208 685.273 516.98C684.839 516.751 684.455 516.438 684.144 516.059C683.833 515.68 683.601 515.242 683.462 514.771C683.323 514.301 683.28 513.807 683.335 513.32C683.39 512.832 683.543 512.361 683.783 511.933C684.023 511.506 684.347 511.131 684.735 510.831L698.849 499.256C700.925 497.559 701.519 496.621 700.847 495.8C700.166 494.961 699.406 495.375 698.823 495.81L686.393 505.08C685.682 505.555 684.816 505.739 683.974 505.594C683.131 505.449 682.376 504.986 681.865 504.301C681.354 503.615 681.125 502.76 681.226 501.911C681.327 501.062 681.75 500.285 682.408 499.739L695.94 489.652L695.942 489.647L695.945 489.646L704.06 483.598C705.566 482.404 706.946 481.199 708.232 479.876C715.773 472.091 725.116 469.869 727.232 469.587Z" fill="#ABCC63"/>
</g>
<g clip-path="url(#clip9_37_4)">
<path d="M623.937 447.344C624.379 446.877 625.101 446.469 625.906 446.597C626.488 446.689 645.719 449.785 646.304 449.895C647.981 450.202 648.878 450.983 649.274 451.905C649.878 453.305 657.993 467.098 672.719 474.999C674.294 475.841 670.613 481.583 666.002 479.403C662.843 477.91 654.691 471.248 653.048 471.839C651.779 472.296 648.977 477.214 648.359 487.815L647.122 509.129C647.031 510.074 646.578 510.947 645.856 511.565C645.135 512.183 644.203 512.497 643.255 512.441C642.307 512.386 641.417 511.966 640.773 511.268C640.129 510.571 639.78 509.651 639.799 508.701L640.876 490.101C640.984 488.287 640.501 487.352 639.529 487.281C638.663 487.214 638.28 487.631 638.023 489.324L635.472 511.535C635.418 512.014 635.27 512.477 635.036 512.898C634.803 513.319 634.489 513.69 634.112 513.989C633.735 514.289 633.303 514.511 632.84 514.643C632.377 514.776 631.893 514.816 631.415 514.761C630.936 514.707 630.472 514.56 630.05 514.327C629.629 514.093 629.257 513.779 628.957 513.402C628.657 513.025 628.435 512.592 628.302 512.129C628.17 511.665 628.131 511.18 628.186 510.702L630.61 489.58C630.821 487.721 630.639 486.61 629.541 486.565C628.883 486.537 628.523 487.397 628.322 488.199L624.448 507.622C624.365 508.105 624.187 508.567 623.922 508.981C623.658 509.394 623.314 509.75 622.91 510.028C622.505 510.306 622.05 510.5 621.569 510.598C621.089 510.697 620.593 510.699 620.112 510.603C619.631 510.507 619.174 510.315 618.768 510.04C618.363 509.764 618.016 509.41 617.749 508.998C617.483 508.587 617.302 508.126 617.216 507.642C617.131 507.159 617.143 506.664 617.252 506.186L620.819 488.285C621.347 485.656 621.211 484.554 620.171 484.346C619.112 484.129 618.787 484.931 618.613 485.638L614.886 500.689C614.637 501.507 614.085 502.199 613.341 502.621C612.598 503.043 611.721 503.164 610.891 502.959C610.061 502.754 609.342 502.238 608.882 501.517C608.421 500.797 608.255 499.928 608.417 499.088L612.478 482.706L612.476 482.702L612.477 482.698L614.914 472.876C615.32 470.997 615.623 469.19 615.777 467.352C616.668 456.549 622.48 448.905 623.937 447.344Z" fill="#ABCC63"/>
</g>
<g clip-path="url(#clip10_37_4)">
<path d="M556.254 416.005C556.797 415.66 557.596 415.44 558.346 415.761C558.888 415.992 576.783 423.686 577.323 423.935C578.875 424.641 579.554 425.618 579.713 426.608C579.958 428.114 584.463 443.469 596.817 454.723C598.139 455.924 593.168 460.595 589.229 457.356C586.529 455.137 580.248 446.688 578.511 446.86C577.169 446.994 573.251 451.08 570.067 461.21L563.668 481.579C563.349 482.473 562.696 483.209 561.846 483.633C560.996 484.056 560.015 484.133 559.11 483.848C558.204 483.563 557.444 482.938 556.989 482.105C556.534 481.271 556.42 480.294 556.671 479.378L562.252 461.602C562.799 459.87 562.559 458.845 561.633 458.539C560.81 458.262 560.337 458.573 559.675 460.152L551.783 481.071C551.614 481.522 551.357 481.934 551.028 482.286C550.699 482.637 550.304 482.92 549.865 483.119C549.427 483.317 548.954 483.428 548.472 483.443C547.991 483.459 547.512 483.379 547.061 483.209C546.61 483.041 546.196 482.784 545.844 482.455C545.492 482.126 545.208 481.731 545.01 481.292C544.811 480.853 544.7 480.379 544.685 479.898C544.67 479.416 544.75 478.936 544.92 478.485L552.424 458.593C553.081 456.842 553.176 455.72 552.122 455.408C551.49 455.221 550.932 455.966 550.541 456.696L542.046 474.586C541.848 475.035 541.562 475.44 541.205 475.776C540.848 476.112 540.427 476.374 539.968 476.545C539.508 476.715 539.018 476.792 538.528 476.771C538.038 476.75 537.558 476.63 537.114 476.42C536.671 476.209 536.275 475.912 535.949 475.546C535.622 475.18 535.373 474.752 535.215 474.287C535.056 473.823 534.993 473.332 535.028 472.843C535.063 472.353 535.196 471.876 535.418 471.439L543.244 454.948C544.397 452.528 544.534 451.426 543.576 450.971C542.602 450.502 542.092 451.201 541.75 451.843L534.464 465.531C534.024 466.264 533.319 466.799 532.495 467.028C531.671 467.256 530.791 467.159 530.037 466.758C529.282 466.356 528.71 465.68 528.439 464.869C528.168 464.059 528.219 463.175 528.581 462.4L536.515 447.504L536.515 447.499L536.517 447.496L541.276 438.564C542.128 436.842 542.862 435.163 543.46 433.418C546.959 423.159 554.461 417.163 556.254 416.005Z" fill="#ABCC63"/>
</g>
<g clip-path="url(#clip11_37_4)">
<path d="M486.752 478.497C487.295 478.152 488.094 477.932 488.844 478.253C489.386 478.484 507.281 486.178 507.821 486.427C509.373 487.134 510.052 488.11 510.211 489.1C510.456 490.606 514.961 505.961 527.315 517.216C528.637 518.416 523.666 523.087 519.727 519.849C517.027 517.63 510.746 509.18 509.009 509.353C507.667 509.486 503.749 513.572 500.565 523.703L494.166 544.071C493.847 544.965 493.195 545.702 492.345 546.125C491.494 546.548 490.514 546.625 489.608 546.34C488.702 546.055 487.942 545.431 487.487 544.597C487.032 543.763 486.918 542.786 487.169 541.87L492.75 524.094C493.297 522.362 493.057 521.337 492.132 521.031C491.309 520.754 490.835 521.065 490.173 522.645L482.281 543.563C482.112 544.014 481.855 544.427 481.526 544.778C481.197 545.129 480.802 545.412 480.364 545.611C479.925 545.81 479.452 545.92 478.97 545.935C478.489 545.951 478.01 545.871 477.559 545.701C477.108 545.533 476.694 545.277 476.342 544.948C475.99 544.618 475.707 544.223 475.508 543.784C475.309 543.345 475.198 542.871 475.183 542.39C475.168 541.908 475.248 541.428 475.418 540.977L482.922 521.085C483.579 519.334 483.674 518.212 482.62 517.9C481.988 517.713 481.43 518.459 481.039 519.188L472.545 537.079C472.346 537.527 472.06 537.932 471.703 538.268C471.346 538.605 470.925 538.866 470.466 539.037C470.006 539.208 469.516 539.285 469.026 539.263C468.536 539.242 468.056 539.122 467.612 538.912C467.169 538.701 466.773 538.404 466.447 538.038C466.12 537.672 465.871 537.244 465.713 536.78C465.554 536.315 465.491 535.824 465.526 535.335C465.561 534.845 465.694 534.368 465.916 533.931L473.742 517.441C474.895 515.02 475.032 513.918 474.074 513.463C473.1 512.994 472.59 513.693 472.248 514.335L464.962 528.023C464.522 528.756 463.817 529.292 462.993 529.52C462.169 529.748 461.289 529.652 460.535 529.25C459.78 528.848 459.208 528.172 458.937 527.362C458.667 526.551 458.717 525.667 459.079 524.892L467.013 509.996L467.013 509.991L467.015 509.988L471.774 501.057C472.626 499.334 473.36 497.655 473.958 495.91C477.457 485.651 484.959 479.656 486.752 478.497Z" fill="#ABCC63"/>
</g>
<path d="M772.782 558.794C773.398 558.981 774.085 559.445 774.329 560.223C774.506 560.785 780.31 579.379 780.473 579.952C780.946 581.589 780.646 582.741 779.998 583.506C779.014 584.671 770.287 598.085 769.781 614.788C769.73 616.574 762.949 615.839 762.844 610.741C762.772 607.247 765.1 596.98 763.839 595.772C762.864 594.841 757.212 594.525 747.448 598.699L727.818 607.096C726.932 607.436 725.948 607.419 725.074 607.049C724.199 606.679 723.502 605.985 723.129 605.112C722.756 604.238 722.736 603.255 723.072 602.367C723.409 601.479 724.077 600.757 724.936 600.351L742.065 593.021C743.736 592.309 744.358 591.46 743.988 590.557C743.663 589.753 743.118 589.595 741.489 590.121L720.47 597.742C720.017 597.906 719.537 597.98 719.056 597.959C718.575 597.938 718.103 597.822 717.667 597.618C717.231 597.414 716.839 597.127 716.514 596.771C716.189 596.416 715.937 596 715.773 595.548C715.608 595.095 715.533 594.615 715.554 594.133C715.574 593.652 715.69 593.179 715.894 592.742C716.098 592.306 716.386 591.913 716.741 591.588C717.097 591.263 717.514 591.012 717.967 590.848L737.954 583.6C739.711 582.959 740.625 582.301 740.176 581.299C739.907 580.696 738.977 580.758 738.169 580.936L719.057 586.129C718.587 586.27 718.094 586.316 717.606 586.264C717.119 586.212 716.646 586.062 716.217 585.825C715.788 585.587 715.411 585.265 715.109 584.879C714.806 584.493 714.584 584.05 714.455 583.577C714.327 583.104 714.294 582.609 714.36 582.123C714.426 581.637 714.588 581.169 714.838 580.747C715.088 580.325 715.419 579.957 715.814 579.665C716.208 579.373 716.657 579.163 717.133 579.048L734.747 574.258C737.336 573.558 738.261 572.946 737.983 571.922C737.705 570.878 736.843 570.944 736.133 571.103L720.998 574.478C720.155 574.621 719.29 574.435 718.581 573.958C717.871 573.481 717.372 572.75 717.186 571.915C716.999 571.081 717.141 570.207 717.58 569.474C718.019 568.74 718.723 568.204 719.547 567.974L736.021 564.304L736.024 564.301L736.028 564.301L745.906 562.102C747.769 561.628 749.521 561.093 751.236 560.411C761.302 556.392 770.736 558.186 772.782 558.794Z" fill="#ABCC63"/>
<g clip-path="url(#clip12_37_4)">
<path d="M848.437 489.176C848.98 488.831 849.78 488.611 850.53 488.932C851.071 489.163 868.966 496.857 869.507 497.106C871.058 497.813 871.738 498.789 871.897 499.779C872.141 501.285 876.646 516.64 889 527.895C890.323 529.095 885.352 533.766 881.412 530.528C878.712 528.309 872.432 519.859 870.695 520.032C869.353 520.165 865.435 524.251 862.25 534.382L855.852 554.75C855.533 555.645 854.88 556.381 854.03 556.804C853.18 557.227 852.199 557.304 851.293 557.019C850.388 556.734 849.627 556.11 849.173 555.276C848.718 554.443 848.604 553.465 848.854 552.549L854.436 534.774C854.983 533.041 854.743 532.016 853.817 531.71C852.994 531.434 852.52 531.744 851.859 533.324L843.967 554.242C843.797 554.693 843.541 555.106 843.212 555.457C842.883 555.808 842.488 556.091 842.049 556.29C841.611 556.489 841.137 556.599 840.656 556.614C840.175 556.63 839.695 556.55 839.245 556.381C838.794 556.212 838.38 555.956 838.028 555.627C837.676 555.298 837.392 554.902 837.193 554.463C836.994 554.024 836.884 553.55 836.869 553.069C836.853 552.587 836.933 552.107 837.104 551.657L844.607 531.764C845.264 530.013 845.359 528.891 844.306 528.58C843.674 528.392 843.115 529.138 842.725 529.867L834.23 547.758C834.032 548.206 833.746 548.611 833.389 548.947C833.032 549.284 832.611 549.545 832.151 549.716C831.691 549.887 831.202 549.964 830.712 549.942C830.222 549.921 829.741 549.801 829.298 549.591C828.855 549.381 828.458 549.083 828.132 548.717C827.806 548.351 827.556 547.923 827.398 547.459C827.24 546.994 827.177 546.503 827.212 546.014C827.246 545.525 827.379 545.047 827.602 544.61L835.427 528.12C836.581 525.699 836.718 524.598 835.76 524.142C834.786 523.673 834.275 524.372 833.934 525.014L826.648 538.702C826.207 539.435 825.502 539.971 824.679 540.199C823.855 540.427 822.975 540.331 822.22 539.929C821.466 539.527 820.894 538.852 820.623 538.041C820.352 537.23 820.403 536.346 820.765 535.572L828.699 520.675L828.698 520.67L828.7 520.667L833.459 511.736C834.312 510.013 835.046 508.334 835.644 506.589C839.143 496.33 846.644 490.335 848.437 489.176Z" fill="#ABCC63"/>
</g>
<g clip-path="url(#clip13_37_4)">
<path d="M909.807 480.227C909.95 479.6 910.363 478.881 911.122 478.582C911.67 478.366 929.802 471.248 930.361 471.044C931.961 470.455 933.131 470.672 933.94 471.264C935.173 472.162 949.176 479.908 965.873 479.219C967.658 479.142 967.41 485.958 962.332 486.427C958.852 486.749 948.445 485.161 947.331 486.505C946.471 487.544 946.56 493.204 951.422 502.645L961.2 521.624C961.603 522.484 961.656 523.466 961.35 524.365C961.043 525.264 960.4 526.008 959.556 526.443C958.712 526.878 957.732 526.968 956.822 526.696C955.913 526.423 955.144 525.808 954.678 524.981L946.143 508.42C945.313 506.803 944.421 506.244 943.548 506.677C942.768 507.06 942.65 507.614 943.291 509.202L952.395 529.622C952.591 530.062 952.699 530.536 952.712 531.017C952.726 531.498 952.644 531.977 952.472 532.427C952.3 532.876 952.041 533.288 951.71 533.637C951.379 533.987 950.982 534.267 950.542 534.463C950.103 534.661 949.629 534.77 949.147 534.784C948.665 534.797 948.185 534.716 947.735 534.544C947.285 534.372 946.873 534.112 946.524 533.781C946.174 533.449 945.893 533.052 945.698 532.611L937.039 513.194C936.275 511.487 935.553 510.622 934.585 511.142C934.004 511.453 934.132 512.376 934.367 513.169L940.913 531.861C941.087 532.32 941.169 532.808 941.151 533.299C941.134 533.789 941.019 534.271 940.812 534.716C940.605 535.16 940.312 535.559 939.948 535.889C939.585 536.218 939.159 536.472 938.696 536.634C938.233 536.796 937.742 536.863 937.253 536.833C936.763 536.802 936.285 536.673 935.846 536.454C935.407 536.235 935.016 535.931 934.697 535.558C934.378 535.186 934.136 534.753 933.987 534.286L927.951 517.06C927.068 514.528 926.391 513.649 925.389 513.999C924.367 514.351 924.496 515.207 924.705 515.903L929.153 530.758C929.356 531.588 929.232 532.465 928.807 533.207C928.382 533.948 927.688 534.499 926.869 534.744C926.05 534.989 925.168 534.911 924.406 534.525C923.643 534.139 923.057 533.475 922.77 532.67L917.932 516.501L917.928 516.498L917.927 516.494L915.028 506.798C914.422 504.974 913.763 503.264 912.961 501.603C908.232 491.85 909.347 482.312 909.807 480.227Z" fill="#ABCC63"/>
</g>
<path d="M968.409 395.831C968.503 395.195 968.86 394.446 969.594 394.09C970.124 393.832 987.658 385.348 988.2 385.102C989.75 384.393 990.933 384.519 991.786 385.047C993.084 385.849 1007.64 392.501 1024.23 390.536C1026.01 390.323 1026.28 397.138 1021.25 397.995C1017.81 398.582 1007.31 397.794 1006.3 399.22C1005.52 400.321 1006.05 405.958 1011.62 414.999L1022.82 433.174C1023.28 434.001 1023.41 434.977 1023.18 435.896C1022.94 436.816 1022.36 437.607 1021.55 438.105C1020.74 438.603 1019.77 438.768 1018.84 438.566C1017.91 438.364 1017.1 437.81 1016.57 437.021L1006.79 421.161C1005.84 419.613 1004.91 419.123 1004.07 419.622C1003.33 420.063 1003.25 420.625 1004.01 422.159L1014.65 441.823C1014.88 442.246 1015.02 442.711 1015.07 443.189C1015.12 443.668 1015.08 444.152 1014.94 444.614C1014.8 445.075 1014.58 445.505 1014.27 445.879C1013.97 446.252 1013.6 446.563 1013.17 446.792C1012.75 447.022 1012.29 447.167 1011.81 447.218C1011.33 447.268 1010.84 447.224 1010.38 447.087C1009.92 446.95 1009.49 446.722 1009.11 446.419C1008.74 446.115 1008.43 445.74 1008.2 445.316L998.083 426.618C997.19 424.974 996.404 424.167 995.479 424.759C994.923 425.114 995.121 426.025 995.417 426.797L1003.37 444.934C1003.58 445.378 1003.7 445.859 1003.72 446.349C1003.74 446.839 1003.66 447.328 1003.49 447.788C1003.32 448.247 1003.06 448.667 1002.72 449.023C1002.38 449.38 1001.98 449.665 1001.53 449.862C1001.08 450.059 1000.59 450.164 1000.1 450.171C999.614 450.177 999.127 450.086 998.673 449.901C998.218 449.716 997.805 449.443 997.458 449.096C997.112 448.749 996.838 448.336 996.653 447.882L989.317 431.168C988.243 428.711 987.5 427.886 986.529 428.311C985.537 428.74 985.73 429.584 985.992 430.263L991.564 444.733C991.829 445.546 991.772 446.429 991.405 447.201C991.038 447.973 990.389 448.575 989.591 448.883C988.794 449.19 987.908 449.179 987.118 448.853C986.328 448.526 985.693 447.909 985.345 447.129L979.284 431.377L979.28 431.374L979.28 431.37L975.647 421.924C974.903 420.152 974.115 418.498 973.188 416.903C967.728 407.54 968.11 397.944 968.409 395.831Z" fill="#ABCC63"/>
<g clip-path="url(#clip14_37_4)">
<path d="M1085.15 361.76C1085.6 361.298 1086.32 360.898 1087.13 361.037C1087.71 361.136 1106.9 364.47 1107.48 364.587C1109.16 364.915 1110.04 365.707 1110.43 366.634C1111.01 368.042 1118.96 381.933 1133.58 390.016C1135.15 390.877 1131.4 396.573 1126.81 394.337C1123.67 392.805 1115.6 386.042 1113.95 386.613C1112.68 387.054 1109.82 391.937 1109.07 402.53L1107.57 423.827C1107.46 424.771 1107 425.638 1106.27 426.247C1105.54 426.855 1104.61 427.158 1103.66 427.091C1102.71 427.024 1101.83 426.592 1101.19 425.887C1100.56 425.182 1100.22 424.258 1100.25 423.309L1101.56 404.723C1101.69 402.911 1101.22 401.97 1100.25 401.886C1099.38 401.808 1098.99 402.22 1098.71 403.91L1095.89 426.089C1095.83 426.566 1095.67 427.027 1095.44 427.445C1095.2 427.864 1094.88 428.231 1094.5 428.525C1094.12 428.82 1093.68 429.037 1093.22 429.164C1092.75 429.291 1092.27 429.325 1091.79 429.264C1091.31 429.204 1090.85 429.051 1090.43 428.813C1090.01 428.574 1089.65 428.255 1089.35 427.875C1089.06 427.494 1088.84 427.058 1088.71 426.593C1088.59 426.128 1088.55 425.643 1088.61 425.165L1091.3 404.075C1091.53 402.219 1091.36 401.105 1090.27 401.047C1089.61 401.011 1089.24 401.866 1089.03 402.666L1084.91 422.039C1084.83 422.521 1084.64 422.981 1084.37 423.391C1084.1 423.801 1083.75 424.153 1083.35 424.426C1082.94 424.699 1082.48 424.887 1082 424.98C1081.52 425.072 1081.02 425.068 1080.54 424.966C1080.06 424.864 1079.61 424.667 1079.2 424.386C1078.8 424.106 1078.46 423.747 1078.2 423.332C1077.94 422.917 1077.76 422.454 1077.68 421.97C1077.6 421.486 1077.62 420.991 1077.74 420.514L1081.52 402.659C1082.09 400.036 1081.96 398.933 1080.93 398.712C1079.87 398.482 1079.53 399.28 1079.35 399.984L1075.44 414.988C1075.18 415.803 1074.62 416.488 1073.87 416.901C1073.12 417.314 1072.24 417.424 1071.42 417.209C1070.59 416.993 1069.88 416.468 1069.42 415.742C1068.97 415.016 1068.82 414.145 1068.99 413.307L1073.25 396.977L1073.25 396.972L1073.25 396.969L1075.81 387.177C1076.24 385.304 1076.57 383.501 1076.74 381.664C1077.77 370.874 1083.67 363.302 1085.15 361.76Z" fill="#ABCC63"/>
</g>
<g clip-path="url(#clip15_37_4)">
<path d="M1202.25 406.348C1202.87 406.181 1203.7 406.21 1204.32 406.74C1204.77 407.123 1219.54 419.816 1219.98 420.215C1221.25 421.354 1221.61 422.489 1221.46 423.481C1221.25 424.991 1220.95 440.991 1229.38 455.424C1230.28 456.966 1224.14 459.936 1221.35 455.668C1219.44 452.743 1215.97 442.802 1214.26 442.447C1212.94 442.173 1207.98 444.901 1201.91 453.615L1189.71 471.138C1189.14 471.897 1188.3 472.404 1187.36 472.553C1186.42 472.703 1185.47 472.483 1184.69 471.941C1183.91 471.398 1183.37 470.574 1183.18 469.643C1183 468.712 1183.18 467.745 1183.7 466.946L1194.34 451.653C1195.38 450.163 1195.45 449.113 1194.66 448.544C1193.96 448.034 1193.42 448.189 1192.31 449.498L1178.53 467.1C1178.23 467.479 1177.86 467.796 1177.44 468.033C1177.02 468.27 1176.56 468.422 1176.08 468.48C1175.61 468.539 1175.12 468.502 1174.66 468.373C1174.19 468.244 1173.76 468.025 1173.38 467.728C1173 467.432 1172.68 467.064 1172.44 466.645C1172.21 466.225 1172.05 465.763 1172 465.285C1171.94 464.807 1171.97 464.322 1172.1 463.857C1172.23 463.393 1172.45 462.959 1172.75 462.58L1185.86 445.842C1187.01 444.367 1187.44 443.325 1186.52 442.713C1185.98 442.345 1185.22 442.889 1184.63 443.468L1171.17 458C1170.85 458.369 1170.46 458.67 1170.02 458.884C1169.57 459.098 1169.09 459.221 1168.6 459.247C1168.11 459.273 1167.62 459.2 1167.16 459.033C1166.7 458.866 1166.28 458.608 1165.92 458.275C1165.56 457.941 1165.27 457.539 1165.07 457.092C1164.87 456.645 1164.76 456.162 1164.74 455.672C1164.73 455.182 1164.82 454.694 1165 454.237C1165.18 453.781 1165.45 453.365 1165.79 453.015L1178.19 439.619C1180.01 437.654 1180.47 436.644 1179.7 435.923C1178.91 435.184 1178.21 435.698 1177.69 436.209L1166.65 447.092C1166.01 447.659 1165.17 447.96 1164.32 447.931C1163.47 447.903 1162.65 447.547 1162.05 446.938C1161.45 446.33 1161.11 445.514 1161.09 444.659C1161.08 443.804 1161.39 442.976 1161.97 442.345L1173.99 430.503L1173.99 430.498L1174 430.496L1181.21 423.396C1182.54 422.007 1183.74 420.625 1184.83 419.138C1191.24 410.395 1200.19 406.917 1202.25 406.348Z" fill="#ABCC63"/>
</g>
<g clip-path="url(#clip16_37_4)">
<path d="M720.82 377.265C720.306 377.652 719.527 377.935 718.754 377.674C718.195 377.486 699.75 371.226 699.191 371.02C697.589 370.438 696.835 369.518 696.598 368.543C696.236 367.062 690.535 352.109 677.333 341.863C675.92 340.77 680.507 335.723 684.69 338.64C687.556 340.64 694.483 348.568 696.201 348.259C697.528 348.02 701.112 343.638 703.489 333.289L708.263 312.479C708.51 311.563 709.103 310.777 709.917 310.289C710.731 309.8 711.703 309.645 712.628 309.858C713.553 310.071 714.36 310.634 714.879 311.429C715.399 312.224 715.589 313.189 715.412 314.122L711.248 332.282C710.839 334.053 711.159 335.055 712.106 335.288C712.948 335.498 713.396 335.151 713.931 333.525L720.151 312.049C720.284 311.587 720.507 311.155 720.808 310.779C721.108 310.403 721.479 310.089 721.901 309.857C722.322 309.624 722.786 309.477 723.264 309.424C723.743 309.37 724.227 309.412 724.689 309.546C725.153 309.678 725.585 309.901 725.962 310.201C726.339 310.502 726.653 310.873 726.886 311.295C727.119 311.717 727.266 312.181 727.319 312.66C727.372 313.139 727.33 313.623 727.196 314.086L721.283 334.508C720.766 336.305 720.76 337.432 721.834 337.659C722.479 337.796 722.977 337.009 723.309 336.251L730.368 317.746C730.53 317.284 730.783 316.858 731.113 316.494C731.442 316.131 731.841 315.837 732.286 315.631C732.731 315.424 733.213 315.309 733.703 315.292C734.193 315.274 734.682 315.356 735.14 315.53C735.599 315.705 736.017 315.97 736.371 316.31C736.725 316.649 737.008 317.056 737.202 317.506C737.396 317.957 737.498 318.442 737.502 318.932C737.506 319.423 737.411 319.909 737.224 320.362L730.721 337.418C729.762 339.922 729.713 341.031 730.703 341.409C731.711 341.8 732.165 341.063 732.455 340.396L738.64 326.177C739.022 325.411 739.682 324.822 740.485 324.529C741.288 324.237 742.173 324.264 742.957 324.605C743.741 324.945 744.364 325.574 744.698 326.361C745.032 327.148 745.051 328.033 744.752 328.834L738.016 344.309L738.017 344.314L738.015 344.317L733.974 353.596C733.26 355.38 732.661 357.112 732.202 358.899C729.522 369.401 722.516 375.969 720.82 377.265Z" fill="#ABCC63"/>
</g>
<g clip-path="url(#clip17_37_4)">
<path d="M1070.53 520.094C1070.47 520.734 1070.15 521.498 1069.43 521.89C1068.92 522.173 1051.81 531.489 1051.28 531.761C1049.77 532.544 1048.58 532.475 1047.7 531.988C1046.37 531.25 1031.51 525.305 1015.03 528.064C1013.27 528.362 1012.67 521.568 1017.65 520.471C1021.06 519.72 1031.58 520.002 1032.52 518.529C1033.25 517.392 1032.45 511.787 1026.46 503.023L1014.39 485.407C1013.89 484.604 1013.71 483.636 1013.91 482.706C1014.1 481.776 1014.64 480.957 1015.43 480.421C1016.21 479.885 1017.17 479.673 1018.11 479.831C1019.04 479.988 1019.88 480.502 1020.45 481.265L1030.98 496.637C1032 498.138 1032.95 498.582 1033.77 498.043C1034.49 497.567 1034.54 497.003 1033.71 495.506L1022.14 476.376C1021.89 475.964 1021.72 475.508 1021.65 475.032C1021.58 474.556 1021.6 474.07 1021.71 473.603C1021.83 473.135 1022.03 472.695 1022.32 472.307C1022.6 471.919 1022.96 471.591 1023.37 471.342C1023.79 471.092 1024.24 470.925 1024.72 470.851C1025.19 470.778 1025.68 470.799 1026.15 470.914C1026.62 471.028 1027.06 471.234 1027.45 471.52C1027.83 471.806 1028.16 472.165 1028.41 472.578L1039.42 490.768C1040.39 492.367 1041.21 493.135 1042.11 492.499C1042.64 492.118 1042.4 491.218 1042.07 490.46L1033.25 472.727C1033.02 472.294 1032.88 471.819 1032.84 471.331C1032.79 470.842 1032.85 470.35 1033 469.883C1033.15 469.415 1033.39 468.983 1033.71 468.611C1034.03 468.239 1034.42 467.935 1034.86 467.716C1035.3 467.498 1035.78 467.37 1036.27 467.339C1036.75 467.309 1037.25 467.377 1037.71 467.54C1038.17 467.702 1038.6 467.956 1038.96 468.286C1039.32 468.616 1039.62 469.015 1039.82 469.46L1047.95 485.802C1049.14 488.205 1049.93 488.993 1050.88 488.521C1051.85 488.045 1051.61 487.212 1051.32 486.546L1045.06 472.36C1044.75 471.561 1044.77 470.676 1045.1 469.887C1045.43 469.098 1046.05 468.466 1046.83 468.121C1047.61 467.776 1048.49 467.744 1049.3 468.032C1050.1 468.32 1050.77 468.906 1051.15 469.669L1057.96 485.111L1057.97 485.114L1057.97 485.117L1062.05 494.378C1062.88 496.113 1063.75 497.727 1064.75 499.276C1070.65 508.365 1070.73 517.968 1070.53 520.094Z" fill="#ABCC63"/>
</g>
<g clip-path="url(#clip18_37_4)">
<path d="M499.727 332.954C499.76 333.597 499.559 334.401 498.911 334.897C498.443 335.254 482.948 347.057 482.465 347.405C481.087 348.409 479.902 348.521 478.962 348.172C477.53 347.645 461.944 344.021 446.071 349.248C444.375 349.809 442.751 343.185 447.507 341.345C450.767 340.085 461.212 338.769 461.916 337.171C462.459 335.937 460.826 330.517 453.57 322.764L438.977 307.18C438.354 306.463 438.034 305.532 438.084 304.584C438.133 303.636 438.548 302.743 439.241 302.095C439.934 301.446 440.852 301.091 441.802 301.105C442.751 301.118 443.658 301.499 444.333 302.168L457.069 315.766C458.31 317.094 459.32 317.388 460.041 316.733C460.687 316.152 460.649 315.587 459.599 314.234L445.261 297.079C444.952 296.71 444.718 296.284 444.574 295.825C444.43 295.365 444.377 294.882 444.42 294.403C444.462 293.923 444.599 293.457 444.822 293.03C445.045 292.603 445.35 292.225 445.719 291.916C446.088 291.606 446.515 291.372 446.974 291.227C447.434 291.082 447.918 291.029 448.398 291.072C448.878 291.114 449.344 291.251 449.771 291.475C450.198 291.698 450.577 292.003 450.886 292.374L464.521 308.686C465.723 310.119 466.654 310.753 467.443 309.989C467.917 309.53 467.542 308.677 467.099 307.979L455.694 291.787C455.4 291.394 455.189 290.946 455.071 290.47C454.954 289.994 454.933 289.499 455.01 289.014C455.087 288.53 455.261 288.066 455.52 287.65C455.78 287.233 456.12 286.873 456.521 286.591C456.922 286.309 457.376 286.109 457.855 286.005C458.335 285.901 458.83 285.894 459.312 285.985C459.794 286.075 460.253 286.261 460.662 286.532C461.071 286.803 461.421 287.153 461.693 287.562L472.207 302.483C473.748 304.677 474.64 305.338 475.508 304.727C476.395 304.109 476.037 303.321 475.646 302.708L467.307 289.635C466.885 288.891 466.765 288.014 466.971 287.185C467.177 286.355 467.694 285.636 468.415 285.176C469.135 284.717 470.005 284.551 470.844 284.714C471.683 284.876 472.428 285.355 472.925 286.051L481.998 300.282L482.002 300.284L482.004 300.287L487.443 308.822C488.524 310.411 489.625 311.876 490.851 313.254C498.065 321.344 499.599 330.823 499.727 332.954Z" fill="#ABCC63"/>
</g>
<g clip-path="url(#clip19_37_4)">
<path d="M844.341 356.206C844.061 356.785 843.496 357.392 842.689 357.513C842.107 357.6 822.838 360.448 822.246 360.52C820.555 360.733 819.464 360.259 818.809 359.5C817.81 358.347 805.913 347.644 789.49 344.553C787.734 344.225 789.512 337.64 794.566 338.328C798.028 338.799 807.81 342.692 809.198 341.633C810.27 340.814 811.459 335.28 808.85 324.986L803.6 304.292C803.402 303.363 803.571 302.394 804.072 301.588C804.574 300.781 805.368 300.2 806.288 299.967C807.209 299.734 808.184 299.867 809.009 300.337C809.833 300.808 810.444 301.58 810.711 302.491L815.295 320.55C815.739 322.311 816.481 323.058 817.43 322.832C818.275 322.635 818.515 322.122 818.249 320.43L813.982 298.484C813.889 298.011 813.891 297.525 813.987 297.053C814.082 296.582 814.27 296.133 814.539 295.734C814.808 295.335 815.153 294.992 815.554 294.726C815.955 294.461 816.405 294.276 816.878 294.185C817.35 294.091 817.837 294.092 818.309 294.187C818.782 294.282 819.231 294.47 819.631 294.739C820.03 295.008 820.373 295.353 820.639 295.755C820.905 296.157 821.089 296.608 821.18 297.081L825.24 317.95C825.6 319.785 826.108 320.79 827.168 320.502C827.805 320.33 827.888 319.402 827.838 318.576L825.673 298.89C825.606 298.404 825.637 297.91 825.765 297.436C825.892 296.962 826.113 296.519 826.414 296.132C826.716 295.745 827.092 295.422 827.52 295.183C827.949 294.944 828.421 294.794 828.908 294.74C829.396 294.686 829.889 294.731 830.359 294.871C830.829 295.012 831.266 295.245 831.645 295.557C832.023 295.869 832.335 296.254 832.562 296.689C832.789 297.124 832.927 297.599 832.967 298.088L834.966 316.232C835.255 318.898 835.717 319.907 836.771 319.791C837.846 319.679 837.914 318.816 837.867 318.09L836.881 302.615C836.871 301.761 837.19 300.934 837.771 300.308C838.352 299.681 839.152 299.301 840.005 299.246C840.858 299.192 841.7 299.467 842.356 300.015C843.012 300.563 843.433 301.342 843.532 302.191L844.601 319.034L844.604 319.038L844.604 319.042L845.243 329.142C845.423 331.056 845.679 332.87 846.087 334.669C848.495 345.237 845.259 354.279 844.341 356.206Z" fill="#ABCC63"/>
</g>
<g clip-path="url(#clip20_37_4)">
<path d="M950.817 308.28C950.812 308.923 950.563 309.714 949.886 310.169C949.398 310.498 933.221 321.349 932.718 321.668C931.283 322.587 930.094 322.628 929.176 322.224C927.779 321.611 912.438 317.058 896.279 321.322C894.553 321.781 893.329 315.071 898.188 313.52C901.517 312.458 912.022 311.771 912.821 310.218C913.437 309.019 912.133 303.511 905.355 295.336L891.724 278.904C891.146 278.151 890.882 277.203 890.988 276.259C891.094 275.316 891.562 274.45 892.293 273.844C893.024 273.238 893.961 272.939 894.908 273.01C895.855 273.08 896.738 273.515 897.371 274.223L909.268 288.561C910.427 289.961 911.417 290.316 912.177 289.705C912.856 289.164 912.852 288.597 911.885 287.184L898.603 269.199C898.316 268.812 898.109 268.373 897.993 267.906C897.876 267.439 897.853 266.953 897.924 266.477C897.996 266.001 898.16 265.543 898.408 265.131C898.656 264.719 898.983 264.359 899.371 264.073C899.758 263.786 900.197 263.577 900.665 263.46C901.132 263.343 901.618 263.32 902.095 263.391C902.571 263.462 903.029 263.627 903.442 263.875C903.855 264.124 904.214 264.452 904.5 264.84L917.132 281.941C918.246 283.444 919.136 284.133 919.97 283.417C920.471 282.988 920.148 282.114 919.747 281.39L909.335 264.543C909.065 264.133 908.881 263.673 908.792 263.191C908.704 262.708 908.713 262.213 908.819 261.734C908.925 261.255 909.126 260.802 909.41 260.403C909.694 260.003 910.056 259.664 910.473 259.406C910.89 259.148 911.355 258.976 911.84 258.901C912.324 258.826 912.819 258.849 913.295 258.968C913.771 259.087 914.218 259.301 914.61 259.596C915.002 259.891 915.33 260.261 915.577 260.686L925.176 276.211C926.583 278.494 927.434 279.206 928.336 278.649C929.259 278.086 928.949 277.278 928.595 276.642L921.056 263.092C920.68 262.324 920.613 261.442 920.868 260.626C921.124 259.81 921.683 259.124 922.43 258.708C923.177 258.292 924.055 258.179 924.883 258.392C925.711 258.604 926.425 259.127 926.879 259.851L935.081 274.602L935.086 274.604L935.087 274.607L940.004 283.453C940.988 285.104 941.999 286.632 943.14 288.082C949.855 296.59 950.818 306.145 950.817 308.28Z" fill="#ABCC63"/>
</g>
<g clip-path="url(#clip21_37_4)">
<path d="M1033.87 291.699C1033.42 292.16 1032.69 292.559 1031.89 292.419C1031.31 292.319 1012.12 288.954 1011.54 288.837C1009.87 288.506 1008.98 287.712 1008.6 286.785C1008.01 285.376 1000.09 271.472 985.478 263.366C983.914 262.502 987.675 256.812 992.255 259.056C995.393 260.593 1003.45 267.369 1005.1 266.801C1006.38 266.362 1009.25 261.483 1010.01 250.892L1011.55 229.597C1011.65 228.653 1012.12 227.786 1012.85 227.179C1013.58 226.571 1014.51 226.27 1015.46 226.339C1016.41 226.407 1017.29 226.84 1017.93 227.547C1018.56 228.253 1018.9 229.178 1018.86 230.127L1017.53 248.71C1017.39 250.522 1017.86 251.464 1018.84 251.549C1019.7 251.628 1020.09 251.217 1020.37 249.527L1023.23 227.353C1023.29 226.876 1023.45 226.415 1023.69 225.997C1023.92 225.58 1024.24 225.213 1024.62 224.919C1025.01 224.625 1025.44 224.408 1025.91 224.282C1026.37 224.156 1026.86 224.123 1027.33 224.185C1027.81 224.245 1028.27 224.399 1028.69 224.638C1029.11 224.877 1029.48 225.197 1029.77 225.578C1030.07 225.959 1030.28 226.395 1030.41 226.86C1030.53 227.325 1030.57 227.811 1030.5 228.289L1027.79 249.375C1027.55 251.23 1027.72 252.344 1028.81 252.404C1029.47 252.441 1029.84 251.587 1030.05 250.787L1034.2 231.421C1034.29 230.938 1034.47 230.479 1034.74 230.069C1035.01 229.66 1035.36 229.308 1035.77 229.036C1036.18 228.764 1036.64 228.576 1037.12 228.484C1037.6 228.392 1038.1 228.398 1038.58 228.5C1039.06 228.603 1039.51 228.801 1039.91 229.082C1040.31 229.363 1040.66 229.722 1040.92 230.138C1041.18 230.553 1041.35 231.017 1041.43 231.501C1041.51 231.985 1041.49 232.48 1041.37 232.957L1037.56 250.806C1036.99 253.428 1037.11 254.531 1038.15 254.753C1039.21 254.985 1039.54 254.188 1039.73 253.484L1043.66 238.486C1043.92 237.671 1044.49 236.988 1045.23 236.576C1045.98 236.164 1046.86 236.055 1047.69 236.272C1048.52 236.489 1049.23 237.015 1049.68 237.742C1050.13 238.468 1050.28 239.34 1050.11 240.177L1045.82 256.501L1045.82 256.505L1045.82 256.509L1043.25 266.296C1042.81 268.169 1042.49 269.972 1042.31 271.808C1041.27 282.596 1035.35 290.159 1033.87 291.699Z" fill="#ABCC63"/>
</g>
<g clip-path="url(#clip22_37_4)">
<path d="M1129.6 258.65C1129.32 259.229 1128.76 259.836 1127.95 259.957C1127.37 260.044 1108.1 262.893 1107.51 262.965C1105.82 263.178 1104.73 262.703 1104.07 261.944C1103.07 260.791 1091.18 250.089 1074.75 246.997C1073 246.67 1074.78 240.085 1079.83 240.772C1083.29 241.243 1093.07 245.136 1094.46 244.077C1095.53 243.259 1096.72 237.724 1094.11 227.431L1088.86 206.736C1088.66 205.808 1088.83 204.838 1089.34 204.032C1089.84 203.225 1090.63 202.645 1091.55 202.412C1092.47 202.178 1093.45 202.311 1094.27 202.782C1095.1 203.252 1095.71 204.024 1095.97 204.935L1100.56 222.994C1101 224.756 1101.74 225.502 1102.69 225.276C1103.54 225.08 1103.78 224.566 1103.51 222.875L1099.24 200.928C1099.15 200.456 1099.15 199.97 1099.25 199.498C1099.34 199.026 1099.53 198.577 1099.8 198.178C1100.07 197.779 1100.42 197.437 1100.82 197.171C1101.22 196.905 1101.67 196.721 1102.14 196.629C1102.61 196.535 1103.1 196.536 1103.57 196.631C1104.04 196.727 1104.49 196.914 1104.89 197.183C1105.29 197.452 1105.64 197.798 1105.9 198.2C1106.17 198.601 1106.35 199.052 1106.44 199.525L1110.5 220.394C1110.86 222.23 1111.37 223.235 1112.43 222.946C1113.07 222.774 1113.15 221.846 1113.1 221.021L1110.94 201.334C1110.87 200.848 1110.9 200.354 1111.03 199.88C1111.15 199.406 1111.38 198.963 1111.68 198.576C1111.98 198.189 1112.35 197.867 1112.78 197.628C1113.21 197.389 1113.68 197.238 1114.17 197.184C1114.66 197.131 1115.15 197.175 1115.62 197.316C1116.09 197.456 1116.53 197.689 1116.91 198.001C1117.29 198.314 1117.6 198.698 1117.82 199.133C1118.05 199.568 1118.19 200.044 1118.23 200.533L1120.23 218.676C1120.52 221.342 1120.98 222.351 1122.03 222.236C1123.11 222.123 1123.18 221.26 1123.13 220.535L1122.14 205.06C1122.13 204.205 1122.45 203.379 1123.03 202.752C1123.61 202.125 1124.41 201.745 1125.27 201.691C1126.12 201.636 1126.96 201.911 1127.62 202.459C1128.27 203.007 1128.7 203.786 1128.79 204.635L1129.86 221.479L1129.87 221.483L1129.87 221.486L1130.51 231.586C1130.69 233.5 1130.94 235.314 1131.35 237.114C1133.76 247.681 1130.52 256.723 1129.6 258.65Z" fill="#ABCC63"/>
</g>
<g clip-path="url(#clip23_37_4)">
<path d="M880.656 633.483C880.045 633.683 879.216 633.699 878.568 633.202C878.101 632.844 862.669 620.958 862.206 620.583C860.878 619.514 860.462 618.4 860.553 617.401C860.689 615.882 860.127 599.889 850.945 585.926C849.961 584.435 855.934 581.141 858.949 585.254C861.015 588.073 865.007 597.814 866.733 598.077C868.066 598.28 872.874 595.292 878.468 586.265L889.711 568.116C890.242 567.328 891.057 566.777 891.985 566.577C892.913 566.378 893.883 566.546 894.69 567.046C895.497 567.547 896.079 568.34 896.313 569.26C896.547 570.181 896.415 571.156 895.946 571.981L886.136 587.821C885.177 589.364 885.156 590.416 885.977 590.942C886.706 591.414 887.242 591.23 888.274 589.864L901.1 571.551C901.376 571.157 901.727 570.82 902.133 570.561C902.539 570.302 902.991 570.126 903.466 570.042C903.94 569.958 904.425 569.969 904.895 570.073C905.366 570.177 905.81 570.373 906.205 570.649C906.6 570.924 906.938 571.275 907.197 571.681C907.457 572.087 907.634 572.54 907.718 573.014C907.802 573.489 907.791 573.975 907.687 574.446C907.582 574.916 907.386 575.361 907.109 575.756L894.914 593.171C893.843 594.704 893.473 595.768 894.417 596.331C894.983 596.669 895.708 596.085 896.267 595.475L908.928 580.245C909.231 579.859 909.608 579.538 910.038 579.301C910.467 579.063 910.939 578.914 911.427 578.863C911.915 578.811 912.408 578.858 912.878 579C913.347 579.142 913.783 579.377 914.16 579.69C914.538 580.004 914.848 580.39 915.074 580.825C915.299 581.261 915.435 581.737 915.473 582.226C915.511 582.716 915.451 583.207 915.296 583.673C915.141 584.138 914.894 584.568 914.57 584.936L902.905 598.975C901.188 601.035 900.782 602.068 901.598 602.746C902.425 603.441 903.093 602.891 903.583 602.353L914.032 590.896C914.64 590.295 915.455 589.951 916.31 589.934C917.165 589.916 917.993 590.228 918.625 590.804C919.257 591.38 919.643 592.176 919.705 593.029C919.767 593.882 919.499 594.725 918.956 595.386L907.58 607.854L907.58 607.859L907.577 607.861L900.754 615.336C899.502 616.794 898.375 618.239 897.363 619.781C891.433 628.854 882.68 632.805 880.656 633.483Z" fill="#ABCC63"/>
</g>
</g>
</g>
<defs>
<clipPath id="clip0_37_4">
<rect width="1366" height="619" fill="white"/>
</clipPath>
<clipPath id="clip1_37_4">
<rect width="1187.84" height="1372.62" fill="white" transform="translate(1126.22 -326) rotate(72.9398)"/>
</clipPath>
<clipPath id="clip2_37_4">
<rect width="70.2439" height="70.2439" fill="white" transform="translate(316.485 516.257) rotate(-166.941)"/>
</clipPath>
<clipPath id="clip3_37_4">
<rect width="70.2439" height="70.2439" fill="white" transform="translate(765.702 300.87) rotate(-166.941)"/>
</clipPath>
<clipPath id="clip4_37_4">
<rect width="70.2439" height="70.2439" fill="white" transform="translate(508.484 287.534) rotate(-141.458)"/>
</clipPath>
<clipPath id="clip5_37_4">
<rect width="70.2439" height="70.2439" fill="white" transform="translate(313.455 491.569) rotate(13.0287)"/>
</clipPath>
<clipPath id="clip6_37_4">
<rect width="70.2439" height="70.2439" fill="white" transform="translate(571.539 515.604) rotate(13.0287)"/>
</clipPath>
<clipPath id="clip7_37_4">
<rect width="70.2439" height="70.2439" fill="white" transform="translate(402.86 521.805) rotate(-140.582)"/>
</clipPath>
<clipPath id="clip8_37_4">
<rect width="70.2439" height="70.2439" fill="white" transform="translate(699.19 552.502) rotate(-115.324)"/>
</clipPath>
<clipPath id="clip9_37_4">
<rect width="70.2439" height="70.2439" fill="white" transform="translate(654.863 529.228) rotate(-154.7)"/>
</clipPath>
<clipPath id="clip10_37_4">
<rect width="70.2439" height="70.2439" fill="white" transform="translate(566.271 502.959) rotate(-140.582)"/>
</clipPath>
<clipPath id="clip11_37_4">
<rect width="70.2439" height="70.2439" fill="white" transform="translate(496.771 565.451) rotate(-140.582)"/>
</clipPath>
<clipPath id="clip12_37_4">
<rect width="70.2439" height="70.2439" fill="white" transform="translate(858.455 576.13) rotate(-140.582)"/>
</clipPath>
<clipPath id="clip13_37_4">
<rect width="70.2439" height="70.2439" fill="white" transform="translate(978.09 534.99) rotate(174.72)"/>
</clipPath>
<clipPath id="clip14_37_4">
<rect width="70.2439" height="70.2439" fill="white" transform="translate(1115.06 444.02) rotate(-153.991)"/>
</clipPath>
<clipPath id="clip15_37_4">
<rect width="70.2439" height="70.2439" fill="white" transform="translate(1185.81 492.319) rotate(-123.182)"/>
</clipPath>
<clipPath id="clip16_37_4">
<rect width="70.2439" height="70.2439" fill="white" transform="translate(703.983 291.371) rotate(34.8993)"/>
</clipPath>
<clipPath id="clip17_37_4">
<rect width="70.2439" height="70.2439" fill="white" transform="translate(995.977 474.244) rotate(-12.4209)"/>
</clipPath>
<clipPath id="clip18_37_4">
<rect width="70.244" height="70.244" fill="white" transform="translate(419.079 298.938) rotate(-21.1408)"/>
</clipPath>
<clipPath id="clip19_37_4">
<rect width="70.2439" height="70.2439" fill="white" transform="translate(790.158 287.463) rotate(7.74498)"/>
</clipPath>
<clipPath id="clip20_37_4">
<rect width="70.2439" height="70.2439" fill="white" transform="translate(872.356 269.483) rotate(-17.6988)"/>
</clipPath>
<clipPath id="clip21_37_4">
<rect width="70.2439" height="70.2439" fill="white" transform="translate(996.565 212.691) rotate(16.6061)"/>
</clipPath>
<clipPath id="clip22_37_4">
<rect width="70.2439" height="70.2439" fill="white" transform="translate(1075.42 189.908) rotate(7.74498)"/>
</clipPath>
<clipPath id="clip23_37_4">
<rect width="70.2439" height="70.2439" fill="white" transform="translate(892.483 546.757) rotate(53.7561)"/>
</clipPath>
</defs>
</svg>
