<svg width="1920" height="931" viewBox="0 0 1920 931" fill="none" xmlns="http://www.w3.org/2000/svg">
<path d="M931.997 365.993C920.686 370.271 909.374 377.685 904.526 384.149C902.245 387.191 898.728 390.232 895.686 391.943C890.933 394.7 882.568 402.59 882.568 404.396C882.568 404.871 887.416 409.909 893.31 415.612C907.093 429.015 909.659 433.578 912.416 449.928C912.796 452.304 912.416 453.445 910.895 454.871L908.899 456.772L912.321 465.612C914.127 470.46 916.408 477.209 917.264 480.536C919.545 489.566 925.439 502.494 932.853 514.756L939.412 525.782L941.218 540.231C942.263 548.406 942.644 554.775 942.168 554.775C941.693 554.775 936.275 551.638 930.191 547.74C924.013 543.843 916.693 539.946 913.842 538.995C910.99 538.14 907.853 536.619 906.808 535.763C905.762 534.813 903.386 533.862 901.579 533.482C894.83 532.246 888.462 528.064 873.633 515.421C855.953 500.212 854.907 499.357 851.77 499.832C850.154 500.022 847.493 498.596 842.74 494.984L835.991 489.946L838.937 486.619C840.458 484.813 841.694 482.912 841.504 482.342C841.314 481.771 839.603 480.821 837.702 480.156C832.284 478.349 823.919 469.699 821.637 463.616C820.592 460.764 818.215 456.677 816.314 454.68C812.987 450.973 812.987 450.783 813.558 444.605C813.938 441.183 814.413 436.62 814.698 434.529C815.078 431.582 814.793 430.061 812.987 427.494C811.751 425.688 809.85 423.882 808.615 423.502C805.858 422.456 803.101 425.213 797.968 434.053C792.075 444.414 790.174 450.498 789.603 461.62C789.223 470.46 788.843 471.886 786.562 475.118C784.47 477.969 783.805 480.251 783.235 485.954C782.854 489.946 782.949 493.558 783.425 494.034C783.995 494.604 810.611 498.691 814.318 498.691C814.603 498.691 816.124 499.737 817.645 500.973C819.166 502.304 821.542 503.634 822.873 503.92C824.204 504.3 827.911 507.247 831.238 510.573C836.941 516.372 837.226 516.847 836.181 519.129C835.515 520.554 835.325 522.17 835.706 522.836C836.181 523.596 839.698 526.638 843.595 529.775C847.493 532.912 854.337 538.52 858.804 542.322C863.272 546.029 870.971 551.543 875.914 554.489C899.773 568.463 900.914 569.318 913.366 581.675C920.02 588.329 927.72 595.459 930.476 597.455C938.176 603.253 938.746 604.299 943.404 620.173C945.685 628.158 949.583 633.101 957.472 638.139C960.799 640.325 963.081 642.606 963.936 644.698C965.457 648.405 965.742 656.485 964.316 656.485C960.134 656.485 946.541 646.694 930.381 631.865C917.739 620.363 913.747 615.42 912.036 608.957C910.705 603.824 906.142 594.698 905.001 594.698C904.526 594.698 904.526 596.979 904.811 599.641L905.477 604.679L901.389 600.877C893.785 593.748 892.264 592.607 891.123 593.272C890.458 593.653 891.313 595.459 893.69 598.31L897.302 602.778L891.789 598.215C888.652 595.744 885.8 593.748 885.42 593.748C882.758 593.748 883.994 596.409 888.462 600.592C893.119 605.059 892.549 605.059 885.8 600.782C884.184 599.641 883.139 599.451 882.473 600.116C881.808 600.782 882.853 602.303 885.8 604.774C890.648 608.766 890.838 609.907 886.37 607.531C881.047 604.774 881.142 606.58 886.561 610.668C889.507 612.854 892.739 615.801 893.785 617.226C894.83 618.747 898.538 621.409 901.96 623.12C907.568 625.877 909.374 627.588 918.499 638.709C935.705 659.812 938.651 663.804 938.651 665.895C938.651 667.131 939.792 668.557 941.788 669.697C946.161 672.264 953.86 678.538 953.86 679.488C953.86 681.104 949.488 680.059 940.933 676.351C931.712 672.264 917.454 661.713 908.328 652.302L904.051 648.025L903.956 639.66C903.766 630.724 901.77 624.166 899.298 624.166C898.157 624.166 898.062 625.211 898.443 629.394C899.203 636.808 897.302 636.333 890.553 627.207C884.945 619.793 882.853 617.512 881.428 617.512C880.002 617.512 880.667 620.078 883.139 624.546C884.564 627.017 885.42 629.203 885.23 629.394C885.04 629.679 882.568 627.492 879.717 624.546C873.538 618.177 871.257 616.751 870.116 618.557C869.546 619.508 871.352 621.979 876.199 626.922L883.044 633.956L876.485 629.489C872.968 627.112 869.355 625.116 868.69 625.116C865.933 625.116 867.549 627.778 873.633 633.101C877.055 636.143 879.621 638.804 879.431 639.089C879.146 639.279 877.245 638.614 875.059 637.568C870.496 635.192 870.211 635.192 870.211 636.903C870.211 637.663 871.637 639.279 873.348 640.515C878.766 644.317 909.374 670.933 919.07 680.249C924.203 685.192 929.906 691.18 931.617 693.556C933.328 695.933 937.035 699.355 939.887 701.161C947.872 706.294 979.716 727.492 981.902 729.107C983.708 730.438 983.708 730.533 980.761 731.199C979.05 731.484 977.149 732.434 976.579 733.1C976.008 733.86 974.678 734.431 973.727 734.431C972.491 734.431 971.921 735.096 971.921 736.427C971.921 737.472 970.685 739.469 969.164 740.894C967.643 742.32 966.123 744.982 965.742 746.788C965.362 748.594 964.412 750.59 963.651 751.16C962.51 751.921 962.32 753.347 962.796 757.339C963.081 760.191 963.461 763.803 963.651 765.324C963.936 769.601 974.868 783.004 977.244 782.244C977.909 782.054 979.621 783.004 981.236 784.335C982.757 785.666 984.658 786.711 985.324 786.711C985.989 786.711 987.32 787.472 988.366 788.422C990.077 789.943 990.267 789.943 992.928 786.711C994.449 784.905 996.255 783.384 996.921 783.384C998.347 783.384 1005.86 777.301 1011.08 771.978C1022.11 760.571 1023.06 759.335 1025.53 751.826C1026.86 747.738 1028 744.126 1028 743.746C1028 743.366 1025.82 741.94 1023.25 740.609C1017.64 737.758 1016.98 736.427 1016.12 726.256L1015.46 718.746L1019.45 712.568C1029.72 696.313 1031.43 689.944 1029.43 675.496C1028.67 669.983 1027.62 661.998 1027.15 657.72C1025.44 643.747 1023.06 638.329 1000.82 596.599C998.442 592.132 995.115 586.999 993.404 585.193C991.503 583.196 989.982 580.44 989.601 578.253C988.651 573.12 983.328 557.056 978.385 544.318C976.008 538.33 973.347 530.82 972.396 527.684C971.541 524.547 969.83 520.269 968.689 518.178C967.548 516.087 965.742 512.284 964.792 509.718C963.746 506.771 961.37 503.349 958.518 500.498C955.952 498.121 953.86 495.46 953.86 494.699C953.86 493.844 952.53 491.657 951.009 489.661C949.393 487.665 947.396 483.673 946.636 480.726C943.784 471.125 934.944 450.213 932.092 446.601C930.001 443.939 925.343 432.913 925.343 430.631C925.343 430.536 926.864 429.586 928.67 428.445C931.807 426.639 931.997 426.259 931.997 421.411C931.997 417.989 931.522 415.803 930.572 415.042C927.91 412.856 927.34 408.008 928.765 398.692C930.762 385.385 930.952 384.814 935.419 379.776C940.077 374.548 941.218 371.316 939.982 367.609C938.936 364.757 936.655 364.282 931.997 365.993Z" fill="black" fill-opacity="0.9"/>
</svg>
