<svg width="1920" height="931" viewBox="0 0 1920 931" fill="none" xmlns="http://www.w3.org/2000/svg">
<g clip-path="url(#clip0_9_2)">
<g clip-path="url(#clip1_9_2)">
<path d="M1730.33 385.682C1727.47 385.649 1723.53 386.467 1721.45 387.331C1719.37 388.196 1714.32 389.272 1710.42 389.671C1701.15 390.872 1699.08 386.851 1701.69 372.546C1705.87 347.822 1705.09 327.804 1699.48 320.164C1694.79 313.769 1691.84 317.436 1688.87 333.315C1687.36 341.465 1683.06 357.082 1679.26 368.018L1672.64 387.853L1655.03 393.94C1642.17 398.258 1634.9 399.851 1628.96 399.264C1624.52 398.868 1618.67 399.466 1616.07 400.546C1608.95 403.499 1511.12 409.917 1472.11 410.034C1453.17 409.963 1431.64 410.552 1424.6 411.236C1417.32 411.818 1404.59 412.016 1396.28 411.599L1380.91 410.854L1411.79 399.467C1466.1 379.37 1495.94 365.972 1515.63 353.123C1545.42 333.235 1564.46 327.164 1595.1 327.469L1612.03 327.566L1614.77 318.494C1616.38 313.553 1617.27 309.319 1616.95 309.044C1616.63 308.769 1610.65 307.59 1603.73 306.597C1592.89 304.991 1588.75 305.289 1575.05 309.547C1554.82 315.703 1551.01 314.845 1552.09 304.223C1552.46 300.206 1555.08 289.355 1557.68 279.935C1560.53 270.617 1562.78 258.899 1562.89 253.768C1563.84 229.575 1563.33 230.803 1578.49 212.917C1586.47 203.708 1597.18 192.754 1602.18 188.642C1613.14 180.232 1624.23 166.272 1622.93 163.148C1621.56 159.851 1616.62 158.239 1612.98 159.751C1611.24 160.471 1604.38 166.98 1597.71 174.428C1590.79 181.774 1582.32 190.781 1578.6 194.562L1571.64 201.316L1569.12 195.242C1565.38 186.218 1566.21 177.937 1572.62 157.582C1578.58 138.628 1578.22 129.421 1571.63 132.157C1567.46 133.886 1550.72 158.735 1546.7 169.15C1543.19 178.337 1542.68 190.347 1545.41 196.942C1549.52 206.834 1545.19 220.428 1537.04 223.812C1532.18 225.829 1531.02 227.937 1528.01 240.782C1526.26 248.829 1524.18 255.591 1523.32 255.951C1520.89 256.959 1521.24 271.051 1524.33 283.399C1530.19 307.819 1525.06 316.05 1492.02 335.455C1474.98 345.374 1460.1 352.16 1418.55 369.197C1357.67 394.054 1331.54 402.659 1309.72 404.997C1300.98 405.982 1285.58 408.098 1275.69 409.76L1257.55 412.61L1237.05 427.423C1205.93 449.491 1178.62 466.521 1159.54 475.454C1150.14 479.761 1138.94 485.627 1134.52 488.685C1130.19 491.497 1105.53 503.154 1080.13 514.506C1030.24 536.43 1004.35 545.137 985.838 546.107C969.346 547.051 951.317 550.667 915.879 559.879C897.69 564.579 879.213 568.584 874.819 568.78C870.497 569.15 859.973 570.262 851.545 571.521C843.117 572.781 829.63 574.105 821.854 574.484C813.904 574.935 806.517 575.762 805.476 576.194C804.434 576.626 792.267 574.759 778.382 572.18C757.43 568.261 752.909 566.679 751.397 563.035C749.812 559.217 748.728 559.056 744.043 561.001C737.448 563.737 717.462 561.656 712.915 558.05C710.764 556.298 709.641 553.102 709.128 548.433C708.317 539.615 706.454 538.558 702.586 544.434C699.645 549.113 688.031 554.95 685.215 553.066C684.263 552.241 684.554 550.493 685.93 548.905C689.984 543.968 732.461 514.95 740.097 511.782C750.336 507.533 760.61 508.762 766.759 514.755L771.781 519.994L772.011 510.744C772.221 505.368 771.174 499.903 769.501 497.343C767.151 493.639 768.111 489.579 777.092 466.12C782.765 451.358 788.982 430.063 791.036 418.835C793.09 407.608 795.898 395.255 797.103 391.296C798.237 387.165 798.85 383.249 798.489 382.381C798.201 381.687 798.7 377.005 799.617 372.352C800.898 366.125 800.656 363.58 798.692 362.768C797.218 362.159 795.198 359.742 794.334 357.66C792.894 354.189 794.604 351.445 804.202 340.75C816.072 327.687 823.736 315.76 820.789 314.541C819.807 314.135 817.259 316.82 815.143 320.546C810.362 328.632 801.733 338.722 795.96 342.949C791.88 345.862 791.808 345.689 791.311 339.589C790.016 325.683 786.132 303.087 784.646 301.466C782.453 299.121 782.573 305.784 785.362 335.548C787.027 353.776 787.042 363.127 785.041 367.619C782.27 374.668 770.128 385.606 742.824 406.089C720.875 422.317 716.117 424.088 695.594 423.653C667.672 423.034 666.313 423.191 657.268 430.809C645.287 440.663 631.92 448.651 610.414 458.592C599.697 463.649 589.775 468.173 588.734 468.605C585.161 470.291 588.939 476.453 593.867 477.053C601.656 477.686 640.809 458.795 657.882 446.015L672.293 435.153L686.513 436.575C696.716 437.631 701.093 438.866 702.665 441.672C705.015 445.376 705.434 445.405 716.977 439.395C723.702 435.994 739.862 425.423 753.173 415.832C766.31 406.312 777.624 398.769 778.361 399.074C780.99 400.017 774.801 431.675 768.515 450.354C765.017 460.553 749.836 473.972 741.64 474.321C739.443 474.419 729.13 470.155 718.977 464.807C708.651 459.531 699.074 455.571 697.859 456.075C693.521 457.875 697.43 463.373 708.388 471.642C721.598 481.417 724.957 487.55 720.208 492.776C718.283 494.999 702.483 506.437 684.977 518.176C640.663 548.159 619.245 556.843 610.933 548.087C607.325 544.295 604.464 544.262 603.779 548.004C603.065 552.166 596.863 552.908 590.711 549.358C585.122 546.185 583.865 546.096 580.348 549.386C577.902 551.825 574.605 553.194 571.049 553.448C559.298 554.053 520.591 564.215 492.798 573.713C445.064 590.062 410.248 598.813 408.592 594.821C408.376 594.301 409.175 591.325 410.322 588.204C413.325 580.245 408.977 578.591 401.77 585.243C397.182 589.385 395.967 589.889 391.865 588.336C387.097 586.653 386.924 586.725 386.887 592.029C386.681 594.963 385.636 597.837 384.247 598.413C380.95 599.782 370.748 598.726 366.848 596.683C364.812 595.697 360.837 595.922 357.54 597.29C354.416 598.587 351.177 599.117 350.369 598.638C349.488 597.987 343.981 598.441 337.923 599.531C325.389 601.68 263.712 605.507 250.792 604.765C241.643 604.289 235.94 600.35 232.484 592.02C229.171 584.037 230.291 578.893 236.192 576.445C241.572 574.212 244.444 566.918 242.14 561.364C240.556 557.546 240.729 557.474 234.461 563.94C227.673 570.622 220.803 573.676 219.363 570.205C217.923 566.734 221.905 561.624 236.87 547.684C252.906 532.893 254.632 528.718 248.094 522.277C242.191 516.386 226.78 509.151 212.708 505.633C205.917 503.975 195.663 498.873 185.772 492.195C170.64 482.2 164.992 479.865 163.499 483.129C161.439 488.46 196.483 511.145 206.918 511.29C210.373 511.281 218.463 513.619 224.818 516.678C244.62 526.16 242.264 535.681 216.835 549.895C195.151 562.35 195.993 559.967 203.085 582.452C207.458 596.912 206.308 602.474 197.699 608.691C194.241 611.143 161.454 625.765 124.663 641.032C58.5428 668.468 57.7471 669.002 44.8977 679.216C37.7493 685.03 18.3477 698.573 1.49376 709.432C-27.7149 728.265 -31.7359 730.34 -91.5827 757.208C-158.646 787.273 -174.874 795.228 -175.327 798.06C-175.618 799.808 -131.766 878.036 -128.332 881.9C-126.384 884.143 -120.411 881.868 -116.806 877.321C-115.257 875.661 -108.24 870.511 -101.006 865.882C-70.1343 846.155 -43.0766 825.57 -28.6452 810.835C8.93158 772.459 49.6415 736.241 63.3976 728.702C74.6945 722.59 161.649 689.967 191.017 680.832C215.483 673.121 244.628 668.35 264.241 668.553C271.814 668.665 285.851 666.705 296.565 664.091C314.826 659.565 342.405 657.885 355.872 660.434C360.524 661.351 360.986 661.974 359.234 664.125C357.105 666.839 358.224 672.477 361.171 673.695C362.081 673.928 364.079 671.879 365.788 669.135C367.252 666.29 369.728 663.432 371.116 662.856C373.546 661.847 374.236 664.002 374.599 673.209C374.621 677.675 378.832 674.097 380.981 667.51L383.028 661.168L395.88 659.293C421.38 656.035 441.117 660.458 462.299 674.248C471.309 680.274 474.112 681.145 478.277 679.417C484.178 676.969 487.789 678.318 500.885 687.327C506.097 691.064 512.38 693.949 514.577 693.851C519.665 693.367 526.512 685.847 525.622 681.741C525.177 679.688 513.869 674.006 494.224 665.883C477.281 658.877 462.78 651.875 462.132 650.313C461.052 647.71 463.236 646.601 485.289 638.467C517.205 626.647 521.353 626.35 535.939 634.537C551.16 643.275 569.363 658.709 572.243 665.651C573.467 668.601 574.295 675.988 573.954 682.029C573.221 698.403 576.898 704.811 580.874 693.804C582.891 687.881 585.724 688.333 588.46 694.928C589.612 697.704 591.243 699.672 592.11 699.312C598.531 696.648 579.072 651.222 568.804 645.108C557.728 638.515 536.605 623.886 536.101 622.672C534.661 619.201 566.717 610.171 588.081 608.222C593.589 607.768 603.376 606.351 610.098 605.393C623.643 603.23 659.284 604.309 666.925 607.037C669.554 607.98 673.817 608.449 676.463 607.961C683.706 606.787 703.01 610.168 733.784 618.148C749.258 622.102 768.33 626.394 776.161 627.619C783.993 628.845 794.454 631.014 799.496 632.38C804.611 633.919 812.79 635.001 817.675 635.008C822.733 634.943 829.193 635.314 832.343 636.041C841.056 637.918 854.759 637.115 861.18 634.45C874.89 628.761 915.43 639.198 936.308 653.725C941.694 657.39 951.479 666.755 958.102 674.382C969.934 688.187 970.395 688.81 995.06 742.857C1033.08 826.149 1047.53 861.451 1054.06 887.013C1057.18 898.942 1060.48 910.798 1061.41 913.054C1063.14 917.22 1063.98 917.279 1086.02 916.473C1091.43 916.264 1103.74 918.479 1113.47 921.355C1135.75 927.978 1138.68 928.185 1148.06 924.296C1152.22 922.568 1160.19 920.686 1166.04 920.087C1177.33 918.861 1186.17 914.177 1187.91 908.571C1189.58 902.793 1184.31 902.337 1156.8 906.632C1143.35 908.549 1129.03 909.815 1124.87 909.1C1112.84 907.58 1076.9 896.456 1075.89 894.026C1075.39 892.812 1073.27 885.755 1071.43 878.381C1069.42 871.08 1065.15 856.374 1061.87 845.53C1058.49 834.931 1055.95 824.39 1056.2 822.049C1056.48 819.289 1055.54 817.033 1053.63 815.383C1048.77 811.502 1033.59 781.793 1009.65 729.481C997.301 702.666 982.993 672.597 977.805 662.544C972.79 652.42 968.482 643.019 968.427 641.415C968.247 635.59 978.437 635.634 1001.44 641.55C1015.16 645.212 1020.81 645.105 1032.98 641.076C1037.63 639.55 1038.04 638.568 1036.9 634.361C1036.1 631.44 1034.71 629.573 1033.67 630.005C1032.63 630.437 1028.89 629.753 1025.28 628.403C1007.51 622.35 982.191 618.208 959.052 617.842C938.009 617.623 925.842 615.756 924.618 612.805C923.393 609.855 927.804 608.228 953.409 602.282C988.167 594.369 1028.21 587.924 1033.74 589.493C1036.55 590.364 1043.42 595.65 1048.83 601.338C1055.51 608.126 1060.72 611.863 1064.64 612.476C1067.72 613.029 1074.41 614.933 1079.25 616.79C1086.22 619.387 1088.91 619.492 1092.02 617.184C1095.48 614.732 1096.98 614.922 1103.57 619.514C1112.23 625.683 1112.86 628.676 1106.05 633.334C1099.78 637.358 1092.36 654.272 1094.52 659.478C1096.46 664.164 1099.07 663.083 1108.36 653.124C1112.56 648.534 1120.6 641.941 1126.32 638.553L1136.7 632.209L1153.29 638.347C1162.48 641.858 1170.46 644.442 1171.33 644.082C1173.07 643.362 1173.18 638.231 1171.45 634.066C1170.8 632.504 1165.8 629.288 1160.3 627.3C1154.9 625.066 1147.03 620.806 1142.94 617.822C1133.18 610.48 1105.1 600.163 1089.97 598.508C1073.51 596.59 1062.53 592.195 1060.16 586.468C1054.11 571.89 1074.36 567.757 1103.76 577.325C1120.4 582.625 1137.66 584.009 1139.8 579.864C1142.32 575.156 1139.16 573.417 1120.51 569.154C1110.99 566.799 1101.08 563.995 1098.55 562.806C1093.98 560.632 1093.98 560.632 1098.41 557.574C1100.8 555.973 1112.44 549.718 1124.16 543.635L1145.33 532.407L1158.61 536.459C1166.04 538.667 1176.43 540.662 1182.12 541.148C1199.79 542.561 1208.22 535.405 1192.34 532.433C1185.27 531.093 1183.02 529.586 1181.29 525.421L1179.2 520.389L1194.04 515.453C1206.44 511.525 1210.29 509.522 1217.57 503.043C1222.43 498.584 1228.03 494.43 1229.94 493.638C1235.84 491.189 1247.7 490.339 1251.63 491.964C1256.71 493.923 1268.68 493.839 1274.06 491.607C1280.83 488.798 1277.42 484.515 1264.94 479.929L1253.76 476.025L1257.71 471.334C1263.59 464.419 1277.09 455.767 1290.62 450.15C1307.28 443.237 1326.39 442.224 1393.94 444.708C1412.76 445.444 1429.09 445.583 1430.31 445.079C1436.03 442.703 1464.33 447.644 1465.84 451.288C1467.57 455.453 1475.72 456.954 1488.78 455.6C1496.42 454.874 1506.39 454.397 1511 454.722C1520.64 455.401 1560.73 466.227 1580.61 473.44C1587.93 475.893 1596.79 478.117 1600.42 478.036C1610.53 477.906 1629.25 487.227 1631.92 493.648C1633.93 498.507 1633.56 499.071 1628 501.375C1622.1 503.823 1622 504.069 1624.81 510.837C1626.46 514.829 1627.48 520.713 1627.17 523.892C1626.86 529.514 1627.54 530.657 1638.54 541.961C1644.97 548.647 1656.58 560.921 1664.32 569.301C1671.83 577.579 1678.96 583.978 1679.83 583.617C1682.43 582.537 1677.67 575.969 1662.88 559.933C1655.59 552.175 1646.91 541.539 1643.24 536.143C1637.13 527.289 1636.8 526.002 1638.28 521.726C1639.32 518.851 1643.04 515.07 1647.61 512.359C1651.74 510.038 1659.42 505.02 1664.47 501.501C1674.84 494.145 1682.43 492.826 1684.45 497.685C1686.93 503.167 1699.09 513.374 1700.11 510.919C1701.43 507.726 1691.04 494.949 1683.16 489.676C1674.71 484.027 1673.78 479.329 1679 469.84C1685.58 457.753 1683.95 455.785 1671.94 461.173C1659.42 466.777 1654.07 466.147 1645.11 458.272C1639 452.872 1637.11 452.233 1631.96 453.555C1628.59 454.75 1624.34 455.293 1622.35 454.9C1619.17 454.591 1619.27 454.346 1622.32 452.876C1624.4 452.012 1626.05 450.107 1626 448.502C1625.83 443.689 1690.16 417.811 1709.49 414.876C1717.57 413.761 1726.82 411.548 1730.29 410.108C1735.84 407.804 1736.42 406.75 1736.7 398.093C1736.96 385.981 1736.57 385.532 1730.33 385.682ZM1606.81 451.784C1600.57 451.934 1577.25 448.185 1569.33 445.774L1561.17 443.262L1566.98 442.071C1570.32 441.295 1577.55 441.552 1583.46 442.557C1589.12 443.462 1595.34 443.731 1597.07 443.011C1598.81 442.291 1600.55 442.582 1600.91 443.45C1601.35 444.491 1604.08 445.189 1606.87 445.049C1611.09 444.925 1611.97 445.577 1611.1 448.379C1610.56 450.026 1608.59 451.656 1606.81 451.784ZM1171.09 530.263C1170.23 530.623 1169.07 530.289 1168.64 529.247C1168.28 528.38 1168.79 527.152 1169.65 526.792C1170.69 526.36 1171.75 526.939 1172.11 527.807C1172.54 528.848 1172.13 529.831 1171.09 530.263Z" fill="#682D0F" fill-opacity="0.8"/>
<path d="M412.571 557.479C412.005 558.199 411.036 558.874 409.877 558.798C409.04 558.743 381.373 556.884 380.529 556.806C378.112 556.591 376.737 555.601 376.055 554.347C375.014 552.441 361.697 533.958 339.784 524.695C337.44 523.708 341.903 515.085 348.725 517.568C353.4 519.269 365.832 527.641 368.083 526.587C369.822 525.772 373.147 518.432 372.628 503.324L371.578 472.948C371.583 471.596 372.111 470.299 373.052 469.328C373.993 468.358 375.274 467.79 376.625 467.744C377.975 467.697 379.292 468.176 380.297 469.08C381.302 469.984 381.918 471.242 382.015 472.591L382.935 499.099C383.021 501.684 383.828 502.946 385.216 502.919C386.451 502.901 386.94 502.259 387.081 499.826L387.776 468.004C387.79 467.319 387.939 466.643 388.214 466.016C388.49 465.388 388.886 464.821 389.381 464.347C389.876 463.873 390.459 463.501 391.098 463.252C391.737 463.004 392.418 462.883 393.103 462.898C393.789 462.911 394.466 463.06 395.094 463.335C395.723 463.61 396.291 464.006 396.765 464.501C397.24 464.997 397.613 465.581 397.861 466.22C398.11 466.859 398.23 467.542 398.214 468.228L397.555 498.487C397.502 501.149 397.905 502.701 399.467 502.62C400.405 502.573 400.802 501.307 400.981 500.143L403.918 472.102C403.971 471.406 404.164 470.727 404.484 470.107C404.804 469.486 405.246 468.936 405.782 468.489C406.319 468.042 406.939 467.707 407.607 467.504C408.275 467.301 408.977 467.233 409.672 467.306C410.366 467.379 411.039 467.59 411.651 467.927C412.262 468.265 412.8 468.721 413.232 469.27C413.664 469.818 413.982 470.448 414.166 471.121C414.351 471.795 414.399 472.498 414.307 473.191L411.605 499.035C411.203 502.831 411.54 504.375 413.042 504.533C414.571 504.701 414.926 503.521 415.081 502.497L418.384 480.671C418.629 479.479 419.321 478.426 420.319 477.73C421.317 477.033 422.545 476.746 423.748 476.928C424.951 477.11 426.039 477.747 426.786 478.708C427.534 479.668 427.884 480.879 427.765 482.09L424.163 505.846L424.166 505.852L424.165 505.857L422.003 520.101C421.674 522.818 421.483 525.419 421.506 528.045C421.663 543.475 414.43 555.075 412.571 557.479Z" fill="#ABCC63"/>
<g clip-path="url(#clip2_9_2)">
<path d="M256.38 702.929C256.777 702.104 257.578 701.237 258.727 701.062C259.555 700.936 286.976 696.803 287.817 696.698C290.224 696.388 291.779 697.059 292.715 698.137C294.141 699.774 311.12 714.963 334.513 719.297C337.014 719.757 334.509 729.138 327.313 728.18C322.381 727.524 308.441 722.021 306.469 723.534C304.946 724.703 303.276 732.587 307.032 747.23L314.588 776.67C314.874 777.991 314.637 779.372 313.927 780.522C313.217 781.672 312.088 782.502 310.779 782.837C309.469 783.173 308.081 782.988 306.905 782.322C305.729 781.655 304.857 780.559 304.472 779.263L297.875 753.572C297.235 751.066 296.175 750.007 294.826 750.332C293.623 750.615 293.283 751.347 293.669 753.754L299.832 784.98C299.966 785.653 299.965 786.345 299.831 787.017C299.697 787.689 299.432 788.328 299.051 788.897C298.669 789.467 298.18 789.955 297.609 790.336C297.039 790.716 296.4 790.98 295.727 791.112C295.055 791.247 294.362 791.248 293.689 791.114C293.016 790.981 292.376 790.716 291.806 790.334C291.236 789.953 290.746 789.462 290.366 788.891C289.986 788.32 289.722 787.68 289.59 787.007L283.727 757.313C283.207 754.702 282.48 753.273 280.972 753.688C280.066 753.936 279.951 755.257 280.026 756.432L283.187 784.449C283.284 785.141 283.242 785.845 283.063 786.52C282.883 787.195 282.571 787.827 282.143 788.379C281.715 788.931 281.181 789.391 280.572 789.733C279.963 790.075 279.292 790.292 278.598 790.37C277.904 790.448 277.202 790.387 276.532 790.189C275.862 789.991 275.239 789.661 274.699 789.218C274.159 788.775 273.714 788.228 273.389 787.61C273.064 786.992 272.866 786.316 272.807 785.62L269.888 759.799C269.465 756.005 268.804 754.57 267.303 754.739C265.773 754.903 265.68 756.132 265.75 757.165L267.216 779.191C267.234 780.408 266.784 781.585 265.959 782.48C265.134 783.374 263.997 783.918 262.783 783.999C261.568 784.08 260.369 783.692 259.433 782.915C258.496 782.138 257.894 781.031 257.75 779.822L256.16 755.848L256.155 755.842L256.156 755.837L255.205 741.461C254.942 738.737 254.569 736.156 253.982 733.596C250.511 718.561 255.081 705.677 256.38 702.929Z" fill="#ABCC63"/>
</g>
<g clip-path="url(#clip3_9_2)">
<path d="M863.714 336.677C864.111 335.853 864.912 334.986 866.06 334.811C866.889 334.684 894.309 330.551 895.151 330.446C897.558 330.136 899.113 330.807 900.049 331.885C901.475 333.523 918.454 348.711 941.847 353.046C944.348 353.505 941.843 362.886 934.647 361.928C929.715 361.272 915.774 355.769 913.803 357.282C912.28 358.452 910.61 366.335 914.366 380.979L921.922 410.418C922.208 411.739 921.971 413.12 921.261 414.27C920.55 415.42 919.422 416.25 918.113 416.586C916.803 416.921 915.415 416.737 914.239 416.07C913.063 415.403 912.191 414.307 911.806 413.011L905.209 387.321C904.569 384.815 903.509 383.755 902.16 384.08C900.957 384.364 900.617 385.096 901.003 387.502L907.166 418.729C907.3 419.401 907.299 420.093 907.165 420.765C907.031 421.437 906.766 422.076 906.385 422.646C906.003 423.215 905.514 423.704 904.943 424.084C904.373 424.464 903.733 424.728 903.061 424.861C902.388 424.996 901.696 424.996 901.023 424.863C900.35 424.729 899.71 424.464 899.14 424.083C898.57 423.701 898.08 423.211 897.7 422.64C897.32 422.069 897.056 421.428 896.924 420.755L891.061 391.062C890.541 388.45 889.813 387.022 888.306 387.436C887.4 387.684 887.285 389.005 887.36 390.181L890.521 418.198C890.618 418.889 890.576 419.593 890.397 420.268C890.217 420.943 889.904 421.575 889.477 422.127C889.049 422.679 888.515 423.14 887.906 423.482C887.297 423.824 886.626 424.04 885.932 424.118C885.238 424.197 884.536 424.135 883.866 423.937C883.196 423.739 882.573 423.409 882.033 422.966C881.493 422.523 881.048 421.977 880.722 421.359C880.397 420.741 880.199 420.064 880.14 419.368L877.222 393.547C876.799 389.753 876.138 388.318 874.637 388.487C873.107 388.651 873.014 389.88 873.084 390.913L874.55 412.939C874.568 414.156 874.118 415.333 873.293 416.228C872.468 417.123 871.331 417.667 870.117 417.748C868.902 417.829 867.703 417.441 866.767 416.663C865.83 415.886 865.228 414.779 865.084 413.571L863.494 389.596L863.489 389.59L863.49 389.586L862.539 375.209C862.276 372.486 861.903 369.904 861.316 367.344C857.844 352.31 862.415 339.425 863.714 336.677Z" fill="#ABCC63"/>
</g>
<path d="M247.38 406.455C247.51 405.549 248.013 404.481 249.055 403.967C249.807 403.596 274.702 391.383 275.472 391.029C277.673 390.007 279.358 390.177 280.576 390.923C282.43 392.054 303.201 401.411 326.811 398.485C329.334 398.168 329.777 407.868 322.627 409.126C317.727 409.988 302.776 408.948 301.352 410.986C300.253 412.56 301.04 420.58 309.039 433.408L325.126 459.196C325.797 460.369 325.988 461.757 325.658 463.067C325.328 464.378 324.502 465.51 323.355 466.225C322.208 466.94 320.828 467.183 319.506 466.902C318.184 466.622 317.022 465.839 316.264 464.72L302.222 442.218C300.856 440.021 299.526 439.331 298.338 440.048C297.276 440.682 297.173 441.481 298.267 443.66L313.565 471.571C313.896 472.172 314.104 472.831 314.179 473.513C314.254 474.194 314.194 474.883 314.002 475.541C313.811 476.199 313.491 476.813 313.062 477.347C312.633 477.882 312.103 478.326 311.502 478.656C310.901 478.987 310.241 479.197 309.559 479.273C308.877 479.349 308.187 479.289 307.529 479.097C306.87 478.906 306.256 478.586 305.721 478.156C305.186 477.726 304.741 477.195 304.412 476.593L289.863 450.053C288.579 447.72 287.454 446.578 286.142 447.428C285.353 447.937 285.642 449.232 286.069 450.33L297.536 476.087C297.837 476.717 298.009 477.401 298.042 478.099C298.075 478.796 297.967 479.493 297.726 480.148C297.485 480.804 297.114 481.404 296.637 481.914C296.16 482.424 295.585 482.833 294.947 483.117C294.309 483.401 293.621 483.554 292.923 483.567C292.225 483.581 291.531 483.454 290.883 483.195C290.234 482.935 289.644 482.549 289.148 482.058C288.651 481.566 288.259 480.981 287.992 480.335L277.419 456.598C275.871 453.109 274.807 451.94 273.428 452.554C272.019 453.172 272.301 454.372 272.679 455.336L280.723 475.893C281.107 477.048 281.033 478.306 280.516 479.408C280 480.51 279.08 481.371 277.947 481.815C276.813 482.259 275.553 482.25 274.426 481.792C273.298 481.333 272.39 480.46 271.888 479.351L263.138 456.974L263.132 456.97L263.131 456.965L257.887 443.546C256.814 441.028 255.68 438.679 254.348 436.416C246.502 423.13 246.971 409.467 247.38 406.455Z" fill="#ABCC63"/>
<g clip-path="url(#clip4_9_2)">
<path d="M546.935 328.914C547.648 328.34 548.744 327.903 549.856 328.239C550.659 328.481 577.19 336.548 577.994 336.815C580.3 337.571 581.415 338.845 581.797 340.221C582.38 342.313 591.172 363.329 610.424 377.307C612.484 378.797 606.187 386.188 600.103 382.227C595.933 379.513 585.716 368.547 583.285 369.065C581.408 369.465 576.509 375.863 573.598 390.698L567.753 420.525C567.443 421.84 566.635 422.985 565.499 423.717C564.363 424.45 562.987 424.714 561.661 424.453C560.335 424.193 559.161 423.429 558.386 422.321C557.611 421.213 557.296 419.848 557.506 418.513L562.604 392.484C563.104 389.946 562.603 388.534 561.245 388.246C560.037 387.985 559.416 388.499 558.729 390.838L550.858 421.678C550.689 422.342 550.391 422.967 549.981 423.516C549.57 424.065 549.056 424.528 548.467 424.878C547.878 425.228 547.225 425.458 546.547 425.556C545.869 425.654 545.178 425.617 544.514 425.447C543.848 425.28 543.223 424.982 542.673 424.572C542.123 424.162 541.659 423.648 541.309 423.058C540.958 422.468 540.727 421.815 540.63 421.136C540.532 420.457 540.57 419.765 540.74 419.101L548.223 389.774C548.877 387.193 548.835 385.59 547.295 385.315C546.371 385.149 545.699 386.293 545.261 387.386L536.06 414.037C535.85 414.703 535.509 415.321 535.057 415.853C534.605 416.385 534.051 416.821 533.427 417.135C532.803 417.449 532.123 417.635 531.426 417.682C530.73 417.729 530.031 417.636 529.371 417.408C528.71 417.18 528.103 416.822 527.583 416.355C527.064 415.888 526.643 415.322 526.347 414.69C526.05 414.058 525.883 413.373 525.855 412.675C525.827 411.977 525.94 411.281 526.186 410.628L534.661 386.063C535.911 382.456 535.932 380.877 534.505 380.383C533.053 379.873 532.44 380.942 532.058 381.905L523.905 402.419C523.398 403.525 522.485 404.394 521.355 404.847C520.226 405.3 518.966 405.302 517.835 404.852C516.704 404.403 515.788 403.537 515.277 402.432C514.766 401.327 514.699 400.069 515.089 398.916L523.968 376.59L523.966 376.583L523.969 376.579L529.296 363.192C530.23 360.62 531.005 358.129 531.576 355.566C534.911 340.5 544.58 330.836 546.935 328.914Z" fill="#ABCC63"/>
</g>
<g clip-path="url(#clip5_9_2)">
<path d="M403.607 863.604C403.21 864.429 402.409 865.296 401.261 865.472C400.432 865.599 373.014 869.746 372.173 869.851C369.766 870.163 368.211 869.492 367.274 868.415C365.847 866.778 348.86 851.598 325.465 847.276C322.964 846.818 325.464 837.435 332.661 838.39C337.593 839.043 351.536 844.539 353.507 843.025C355.029 841.855 356.695 833.97 352.932 819.329L345.36 789.893C345.074 788.572 345.31 787.191 346.019 786.041C346.729 784.89 347.857 784.06 349.166 783.724C350.476 783.387 351.864 783.571 353.041 784.237C354.217 784.903 355.089 785.999 355.475 787.295L362.086 812.982C362.727 815.488 363.787 816.546 365.136 816.221C366.339 815.937 366.678 815.205 366.291 812.798L360.112 781.575C359.978 780.903 359.978 780.211 360.112 779.539C360.245 778.867 360.51 778.227 360.891 777.658C361.272 777.088 361.762 776.599 362.332 776.219C362.902 775.838 363.541 775.574 364.214 775.441C364.886 775.306 365.579 775.305 366.252 775.438C366.925 775.571 367.565 775.836 368.135 776.217C368.706 776.598 369.195 777.088 369.576 777.659C369.956 778.23 370.22 778.87 370.353 779.543L376.231 809.234C376.752 811.845 377.481 813.273 378.989 812.858C379.894 812.609 380.009 811.288 379.933 810.113L376.757 782.097C376.66 781.406 376.702 780.702 376.881 780.027C377.059 779.352 377.372 778.72 377.799 778.168C378.227 777.615 378.761 777.154 379.369 776.812C379.978 776.47 380.649 776.253 381.343 776.174C382.037 776.096 382.739 776.157 383.409 776.354C384.079 776.552 384.702 776.882 385.242 777.324C385.783 777.767 386.229 778.313 386.554 778.931C386.879 779.549 387.078 780.226 387.137 780.921L390.069 806.741C390.494 810.535 391.156 811.969 392.656 811.8C394.186 811.635 394.279 810.406 394.209 809.373L392.731 787.348C392.713 786.131 393.162 784.953 393.987 784.058C394.811 783.163 395.948 782.618 397.162 782.537C398.376 782.455 399.575 782.843 400.512 783.619C401.449 784.396 402.052 785.503 402.197 786.711L403.799 810.685L403.804 810.69L403.803 810.695L404.762 825.071C405.026 827.795 405.4 830.376 405.989 832.936C409.468 847.968 404.904 860.855 403.607 863.604Z" fill="#ABCC63"/>
</g>
<g clip-path="url(#clip6_9_2)">
<path d="M772.607 862.604C772.21 863.429 771.409 864.296 770.261 864.472C769.432 864.599 742.014 868.746 741.173 868.851C738.766 869.163 737.211 868.492 736.274 867.415C734.847 865.778 717.86 850.598 694.465 846.276C691.964 845.818 694.464 836.435 701.661 837.39C706.593 838.043 720.536 843.539 722.507 842.025C724.029 840.855 725.695 832.97 721.932 818.329L714.36 788.893C714.074 787.572 714.31 786.191 715.019 785.041C715.729 783.89 716.857 783.06 718.166 782.724C719.476 782.387 720.864 782.571 722.041 783.237C723.217 783.903 724.089 784.999 724.475 786.295L731.086 811.982C731.727 814.488 732.787 815.546 734.136 815.221C735.339 814.937 735.678 814.205 735.291 811.798L729.112 780.575C728.978 779.903 728.978 779.211 729.112 778.539C729.245 777.867 729.51 777.227 729.891 776.658C730.272 776.088 730.762 775.599 731.332 775.219C731.902 774.838 732.541 774.574 733.214 774.441C733.886 774.306 734.579 774.305 735.252 774.438C735.925 774.571 736.565 774.836 737.135 775.217C737.706 775.598 738.195 776.088 738.576 776.659C738.956 777.23 739.22 777.87 739.353 778.543L745.231 808.234C745.752 810.845 746.481 812.273 747.989 811.858C748.894 811.609 749.009 810.288 748.933 809.113L745.757 781.097C745.66 780.406 745.702 779.702 745.881 779.027C746.059 778.352 746.372 777.72 746.799 777.168C747.227 776.615 747.761 776.154 748.369 775.812C748.978 775.47 749.649 775.253 750.343 775.174C751.037 775.096 751.739 775.157 752.409 775.354C753.079 775.552 753.702 775.882 754.242 776.324C754.783 776.767 755.229 777.313 755.554 777.931C755.879 778.549 756.078 779.226 756.137 779.921L759.069 805.741C759.494 809.535 760.156 810.969 761.656 810.8C763.186 810.635 763.279 809.406 763.209 808.373L761.731 786.348C761.713 785.131 762.162 783.953 762.987 783.058C763.811 782.163 764.948 781.618 766.162 781.537C767.376 781.455 768.575 781.843 769.512 782.619C770.449 783.396 771.052 784.503 771.197 785.711L772.799 809.685L772.804 809.69L772.803 809.695L773.762 824.071C774.026 826.795 774.4 829.376 774.989 831.936C778.468 846.968 773.904 859.855 772.607 862.604Z" fill="#ABCC63"/>
</g>
<g clip-path="url(#clip7_9_2)">
<path d="M430.94 674.839C431.662 674.277 432.765 673.856 433.871 674.209C434.67 674.463 461.075 682.935 461.875 683.214C464.169 684.005 465.265 685.297 465.625 686.678C466.176 688.779 474.646 709.927 493.681 724.197C495.719 725.719 489.309 733.013 483.286 728.959C479.159 726.182 469.111 715.061 466.672 715.541C464.789 715.913 459.792 722.236 456.655 737.024L450.355 766.758C450.024 768.068 449.199 769.2 448.052 769.915C446.905 770.631 445.525 770.873 444.203 770.593C442.881 770.312 441.719 769.53 440.961 768.41C440.203 767.291 439.909 765.921 440.14 764.59L445.634 738.641C446.174 736.111 445.695 734.692 444.341 734.384C443.137 734.104 442.508 734.608 441.785 736.936L433.443 767.653C433.264 768.314 432.957 768.934 432.538 769.477C432.12 770.019 431.598 770.474 431.004 770.815C430.409 771.156 429.754 771.377 429.074 771.464C428.394 771.551 427.704 771.504 427.042 771.324C426.38 771.146 425.759 770.84 425.215 770.421C424.672 770.003 424.216 769.481 423.874 768.886C423.533 768.291 423.312 767.634 423.225 766.954C423.138 766.273 423.186 765.582 423.367 764.921L431.297 735.711C431.991 733.141 431.973 731.538 430.438 731.24C429.516 731.059 428.826 732.192 428.372 733.279L418.764 759.786C418.545 760.449 418.194 761.061 417.734 761.586C417.274 762.111 416.713 762.539 416.084 762.843C415.456 763.148 414.773 763.323 414.076 763.36C413.378 763.396 412.681 763.292 412.024 763.054C411.368 762.816 410.765 762.449 410.253 761.974C409.741 761.499 409.329 760.927 409.042 760.29C408.755 759.654 408.598 758.966 408.581 758.268C408.564 757.57 408.688 756.876 408.944 756.226L417.793 731.794C419.099 728.207 419.143 726.627 417.724 726.112C416.28 725.58 415.651 726.64 415.255 727.596L406.789 747.983C406.264 749.081 405.339 749.936 404.202 750.372C403.066 750.807 401.805 750.79 400.681 750.323C399.557 749.857 398.655 748.977 398.161 747.864C397.667 746.752 397.619 745.493 398.027 744.346L407.247 722.158L407.245 722.151L407.248 722.147L412.779 708.843C413.752 706.286 414.565 703.807 415.175 701.253C418.74 686.24 428.556 676.724 430.94 674.839Z" fill="#ABCC63"/>
</g>
<g clip-path="url(#clip8_9_2)">
<path d="M909.527 678.638C910.421 678.437 911.598 678.527 912.448 679.319C913.062 679.89 933.327 698.818 933.931 699.412C935.669 701.106 936.109 702.742 935.845 704.145C935.447 706.28 934.083 729.02 945.21 750.049C946.403 752.294 937.494 756.156 933.777 749.92C931.229 745.647 926.887 731.302 924.476 730.696C922.614 730.228 915.398 733.814 906.251 745.85L887.865 770.053C887.007 771.097 885.778 771.769 884.435 771.926C883.093 772.084 881.742 771.714 880.665 770.896C879.589 770.078 878.872 768.875 878.664 767.539C878.457 766.204 878.775 764.839 879.552 763.733L895.594 742.61C897.161 740.552 897.333 739.064 896.241 738.208C895.271 737.441 894.487 737.629 892.84 739.426L872.189 763.646C871.745 764.168 871.202 764.598 870.592 764.91C869.982 765.222 869.316 765.411 868.633 765.465C867.95 765.52 867.263 765.44 866.611 765.229C865.959 765.018 865.355 764.68 864.833 764.236C864.31 763.792 863.879 763.25 863.566 762.639C863.253 762.029 863.063 761.363 863.008 760.679C862.953 759.995 863.034 759.307 863.246 758.654C863.457 758.002 863.795 757.397 864.241 756.876L883.877 733.843C885.601 731.814 886.269 730.356 885.008 729.432C884.251 728.876 883.144 729.606 882.27 730.395L862.27 750.268C861.788 750.774 861.21 751.178 860.57 751.456C859.929 751.735 859.24 751.882 858.542 751.89C857.843 751.897 857.151 751.764 856.504 751.5C855.858 751.235 855.272 750.843 854.78 750.348C854.287 749.852 853.9 749.263 853.639 748.616C853.378 747.968 853.25 747.274 853.262 746.576C853.274 745.878 853.425 745.189 853.708 744.55C853.991 743.912 854.398 743.336 854.907 742.858L873.336 724.538C876.047 721.851 876.761 720.441 875.698 719.37C874.619 718.273 873.598 718.963 872.831 719.658L856.475 734.484C855.533 735.253 854.33 735.632 853.117 735.541C851.903 735.449 850.771 734.896 849.953 733.994C849.136 733.093 848.696 731.912 848.724 730.695C848.751 729.479 849.245 728.319 850.103 727.456L867.909 711.323L867.91 711.316L867.915 711.314L878.593 701.642C880.565 699.745 882.358 697.85 884 695.8C893.629 683.743 906.567 679.326 909.527 678.638Z" fill="#ABCC63"/>
</g>
<g clip-path="url(#clip9_9_2)">
<path d="M760.125 661.15C760.689 660.428 761.656 659.751 762.815 659.823C763.652 659.875 791.325 661.65 792.169 661.726C794.587 661.933 795.964 662.919 796.65 664.171C797.697 666.073 811.07 684.516 833.012 693.713C835.359 694.692 830.922 703.329 824.092 700.867C819.412 699.179 806.955 690.846 804.707 691.906C802.971 692.726 799.667 700.077 800.233 715.183L801.375 745.556C801.374 746.908 800.85 748.207 799.912 749.18C798.974 750.153 797.695 750.725 796.345 750.775C794.994 750.826 793.676 750.351 792.668 749.45C791.66 748.549 791.041 747.293 790.94 745.945L789.939 719.44C789.845 716.855 789.034 715.595 787.646 715.626C786.411 715.649 785.924 716.292 785.79 718.726L785.193 750.549C785.181 751.234 785.034 751.91 784.76 752.538C784.486 753.167 784.092 753.735 783.598 754.211C783.105 754.686 782.523 755.06 781.885 755.311C781.247 755.561 780.566 755.684 779.881 755.671C779.195 755.66 778.518 755.514 777.888 755.241C777.259 754.968 776.69 754.573 776.214 754.079C775.737 753.585 775.363 753.002 775.113 752.364C774.862 751.725 774.74 751.043 774.754 750.357L775.32 720.096C775.366 717.434 774.957 715.883 773.396 715.969C772.458 716.019 772.065 717.286 771.89 718.45L769.038 746.5C768.987 747.197 768.796 747.876 768.478 748.497C768.16 749.119 767.72 749.67 767.185 750.119C766.65 750.568 766.03 750.905 765.363 751.11C764.695 751.315 763.993 751.384 763.299 751.314C762.604 751.243 761.93 751.034 761.318 750.698C760.705 750.363 760.166 749.908 759.733 749.361C759.299 748.814 758.979 748.185 758.793 747.512C758.606 746.839 758.556 746.136 758.646 745.443L761.269 719.591C761.66 715.793 761.318 714.251 759.816 714.097C758.285 713.934 757.934 715.115 757.783 716.139L754.546 737.975C754.305 739.168 753.615 740.223 752.62 740.923C751.624 741.622 750.397 741.913 749.193 741.734C747.99 741.556 746.9 740.922 746.15 739.964C745.399 739.006 745.045 737.797 745.161 736.585L748.69 712.818L748.687 712.812L748.689 712.807L750.807 698.556C751.128 695.839 751.311 693.237 751.28 690.611C751.075 675.182 758.273 663.559 760.125 661.15Z" fill="#ABCC63"/>
</g>
<g clip-path="url(#clip10_9_2)">
<path d="M659.951 625.933C660.673 625.371 661.776 624.95 662.883 625.303C663.682 625.557 690.086 634.029 690.886 634.308C693.181 635.099 694.276 636.391 694.636 637.772C695.187 639.873 703.657 661.021 722.693 675.291C724.73 676.813 718.32 684.107 712.297 680.053C708.17 677.275 698.122 666.155 695.684 666.635C693.8 667.007 688.803 673.329 685.667 688.118L679.366 717.852C679.036 719.162 678.211 720.294 677.063 721.009C675.916 721.724 674.537 721.967 673.214 721.687C671.892 721.406 670.73 720.624 669.972 719.504C669.215 718.385 668.92 717.015 669.151 715.683L674.646 689.735C675.185 687.205 674.706 685.786 673.353 685.477C672.149 685.198 671.52 685.702 670.797 688.03L662.455 718.746C662.276 719.408 661.968 720.028 661.55 720.57C661.131 721.113 660.61 721.568 660.015 721.909C659.421 722.25 658.765 722.47 658.085 722.558C657.405 722.645 656.715 722.598 656.054 722.418C655.391 722.24 654.77 721.933 654.227 721.515C653.683 721.097 653.227 720.575 652.886 719.98C652.544 719.385 652.323 718.728 652.236 718.048C652.149 717.367 652.197 716.676 652.378 716.014L660.308 686.805C661.002 684.235 660.984 682.631 659.449 682.333C658.528 682.153 657.838 683.286 657.383 684.373L647.776 710.88C647.556 711.543 647.206 712.155 646.745 712.68C646.285 713.205 645.724 713.632 645.096 713.937C644.467 714.242 643.784 714.417 643.087 714.454C642.389 714.49 641.692 714.386 641.035 714.148C640.379 713.91 639.777 713.543 639.265 713.068C638.752 712.593 638.341 712.021 638.053 711.384C637.766 710.748 637.61 710.06 637.593 709.362C637.576 708.664 637.699 707.969 637.955 707.32L646.805 682.888C648.11 679.301 648.155 677.721 646.736 677.206C645.291 676.674 644.663 677.734 644.266 678.69L635.8 699.077C635.276 700.175 634.35 701.03 633.213 701.466C632.077 701.901 630.817 701.884 629.693 701.417C628.569 700.951 627.667 700.07 627.173 698.958C626.679 697.846 626.631 696.587 627.038 695.44L636.258 673.252L636.257 673.245L636.259 673.241L641.79 659.937C642.764 657.38 643.576 654.901 644.187 652.347C647.751 637.334 657.567 627.818 659.951 625.933Z" fill="#ABCC63"/>
</g>
<g clip-path="url(#clip11_9_2)">
<path d="M569.951 723.933C570.673 723.371 571.776 722.95 572.883 723.303C573.682 723.557 600.086 732.029 600.886 732.308C603.181 733.099 604.276 734.391 604.636 735.772C605.187 737.873 613.657 759.021 632.693 773.291C634.73 774.813 628.32 782.107 622.297 778.053C618.17 775.275 608.122 764.155 605.684 764.635C603.8 765.007 598.803 771.329 595.667 786.118L589.366 815.852C589.036 817.162 588.211 818.294 587.063 819.009C585.916 819.724 584.537 819.967 583.214 819.687C581.892 819.406 580.73 818.624 579.972 817.504C579.215 816.385 578.92 815.015 579.151 813.683L584.646 787.735C585.185 785.205 584.706 783.786 583.353 783.477C582.149 783.198 581.52 783.702 580.797 786.03L572.455 816.746C572.276 817.408 571.968 818.028 571.55 818.57C571.131 819.113 570.61 819.568 570.015 819.909C569.421 820.25 568.765 820.47 568.085 820.558C567.405 820.645 566.715 820.598 566.054 820.418C565.391 820.24 564.77 819.933 564.227 819.515C563.683 819.097 563.227 818.575 562.886 817.98C562.544 817.385 562.323 816.728 562.236 816.048C562.149 815.367 562.197 814.676 562.378 814.014L570.308 784.805C571.002 782.235 570.984 780.631 569.449 780.333C568.528 780.153 567.838 781.286 567.383 782.373L557.776 808.88C557.556 809.543 557.206 810.155 556.745 810.68C556.285 811.205 555.724 811.632 555.096 811.937C554.467 812.242 553.784 812.417 553.087 812.454C552.389 812.49 551.692 812.386 551.035 812.148C550.379 811.91 549.777 811.543 549.265 811.068C548.752 810.593 548.341 810.021 548.053 809.384C547.766 808.748 547.61 808.06 547.593 807.362C547.576 806.664 547.699 805.969 547.955 805.32L556.805 780.888C558.11 777.301 558.155 775.721 556.736 775.206C555.291 774.674 554.663 775.734 554.266 776.69L545.8 797.077C545.276 798.175 544.35 799.03 543.213 799.466C542.077 799.901 540.817 799.884 539.693 799.417C538.569 798.951 537.667 798.07 537.173 796.958C536.679 795.846 536.631 794.587 537.038 793.44L546.258 771.252L546.257 771.245L546.259 771.241L551.79 757.937C552.764 755.38 553.576 752.901 554.187 750.347C557.751 735.334 567.567 725.818 569.951 723.933Z" fill="#ABCC63"/>
</g>
<g clip-path="url(#clip12_9_2)">
<path d="M986.195 798.866C987.092 799.048 988.129 799.612 988.581 800.682C988.908 801.454 999.658 827.015 999.967 827.805C1000.86 830.062 1000.59 831.734 999.777 832.906C998.541 834.692 987.995 854.885 989.548 878.625C989.718 881.163 980.009 881.042 979.167 873.831C978.59 868.89 980.495 854.024 978.543 852.485C977.036 851.296 968.983 851.617 955.713 858.859L929.037 873.425C927.827 874.027 926.43 874.137 925.141 873.731C923.851 873.326 922.769 872.436 922.122 871.25C921.475 870.063 921.312 868.672 921.669 867.368C922.026 866.064 922.874 864.949 924.036 864.258L947.314 851.543C949.586 850.307 950.352 849.019 949.705 847.791C949.134 846.695 948.341 846.546 946.103 847.512L917.352 861.166C916.734 861.461 916.063 861.631 915.378 861.666C914.694 861.702 914.009 861.602 913.364 861.372C912.718 861.143 912.124 860.788 911.615 860.329C911.106 859.87 910.693 859.315 910.399 858.696C910.103 858.077 909.932 857.406 909.896 856.721C909.86 856.036 909.959 855.35 910.189 854.704C910.418 854.057 910.773 853.462 911.233 852.953C911.693 852.444 912.249 852.031 912.869 851.738L940.208 838.751C942.611 837.605 943.817 836.548 943.044 835.188C942.581 834.371 941.272 834.584 940.152 834.947L913.773 844.902C913.126 845.166 912.434 845.299 911.735 845.291C911.037 845.283 910.348 845.135 909.707 844.856C909.067 844.578 908.489 844.173 908.008 843.667C907.527 843.161 907.152 842.564 906.905 841.911C906.659 841.257 906.546 840.561 906.573 839.863C906.6 839.166 906.766 838.48 907.063 837.848C907.359 837.216 907.779 836.649 908.299 836.182C908.818 835.715 909.425 835.357 910.085 835.128L934.395 825.948C937.968 824.605 939.196 823.611 938.664 822.198C938.128 820.756 936.914 820.968 935.93 821.289L914.941 828.128C913.766 828.445 912.514 828.298 911.444 827.719C910.374 827.139 909.567 826.171 909.19 825.014C908.813 823.857 908.894 822.599 909.417 821.5C909.94 820.401 910.865 819.545 912.001 819.108L934.848 811.67L934.852 811.664L934.857 811.664L948.557 807.205C951.133 806.281 953.543 805.284 955.88 804.085C969.599 797.023 983.212 798.283 986.195 798.866Z" fill="#ABCC63"/>
</g>
<g clip-path="url(#clip13_9_2)">
<path d="M1083.95 689.933C1084.67 689.371 1085.78 688.95 1086.88 689.303C1087.68 689.557 1114.09 698.029 1114.89 698.308C1117.18 699.099 1118.28 700.391 1118.64 701.772C1119.19 703.873 1127.66 725.021 1146.69 739.291C1148.73 740.813 1142.32 748.107 1136.3 744.053C1132.17 741.275 1122.12 730.155 1119.68 730.635C1117.8 731.007 1112.8 737.329 1109.67 752.118L1103.37 781.852C1103.04 783.162 1102.21 784.294 1101.06 785.009C1099.92 785.724 1098.54 785.967 1097.21 785.687C1095.89 785.406 1094.73 784.624 1093.97 783.504C1093.21 782.385 1092.92 781.015 1093.15 779.683L1098.65 753.735C1099.19 751.205 1098.71 749.786 1097.35 749.477C1096.15 749.198 1095.52 749.702 1094.8 752.03L1086.45 782.746C1086.28 783.408 1085.97 784.028 1085.55 784.57C1085.13 785.113 1084.61 785.568 1084.02 785.909C1083.42 786.25 1082.76 786.47 1082.09 786.558C1081.41 786.645 1080.72 786.598 1080.05 786.418C1079.39 786.24 1078.77 785.933 1078.23 785.515C1077.68 785.097 1077.23 784.575 1076.89 783.98C1076.54 783.385 1076.32 782.728 1076.24 782.048C1076.15 781.367 1076.2 780.676 1076.38 780.014L1084.31 750.805C1085 748.235 1084.98 746.631 1083.45 746.333C1082.53 746.153 1081.84 747.286 1081.38 748.373L1071.78 774.88C1071.56 775.543 1071.21 776.155 1070.75 776.68C1070.28 777.205 1069.72 777.632 1069.1 777.937C1068.47 778.242 1067.78 778.417 1067.09 778.454C1066.39 778.49 1065.69 778.386 1065.04 778.148C1064.38 777.91 1063.78 777.543 1063.26 777.068C1062.75 776.593 1062.34 776.021 1062.05 775.384C1061.77 774.748 1061.61 774.06 1061.59 773.362C1061.58 772.664 1061.7 771.969 1061.96 771.32L1070.8 746.888C1072.11 743.301 1072.15 741.721 1070.74 741.206C1069.29 740.674 1068.66 741.734 1068.27 742.69L1059.8 763.077C1059.28 764.175 1058.35 765.03 1057.21 765.466C1056.08 765.901 1054.82 765.884 1053.69 765.417C1052.57 764.951 1051.67 764.07 1051.17 762.958C1050.68 761.846 1050.63 760.587 1051.04 759.44L1060.26 737.252L1060.26 737.245L1060.26 737.241L1065.79 723.937C1066.76 721.38 1067.58 718.901 1068.19 716.347C1071.75 701.334 1081.57 691.818 1083.95 689.933Z" fill="#ABCC63"/>
</g>
<g clip-path="url(#clip14_9_2)">
<path d="M1169.7 668.914C1169.82 668.006 1170.31 666.931 1171.34 666.404C1172.09 666.023 1196.82 653.473 1197.58 653.108C1199.77 652.057 1201.46 652.204 1202.69 652.933C1204.55 654.039 1225.45 663.114 1249.02 659.868C1251.54 659.517 1252.11 669.21 1244.98 670.565C1240.09 671.494 1225.13 670.656 1223.73 672.713C1222.65 674.302 1223.55 682.311 1231.72 695.029L1248.16 720.596C1248.84 721.76 1249.05 723.145 1248.74 724.46C1248.43 725.775 1247.62 726.918 1246.48 727.649C1245.34 728.379 1243.97 728.641 1242.64 728.378C1241.32 728.115 1240.14 727.349 1239.37 726.24L1225.02 703.93C1223.63 701.752 1222.29 701.08 1221.11 701.813C1220.06 702.461 1219.97 703.262 1221.09 705.426L1236.76 733.127C1237.1 733.723 1237.32 734.38 1237.4 735.06C1237.49 735.74 1237.44 736.43 1237.26 737.091C1237.07 737.751 1236.76 738.369 1236.34 738.91C1235.92 739.45 1235.39 739.902 1234.8 740.239C1234.2 740.579 1233.54 740.797 1232.86 740.882C1232.18 740.967 1231.49 740.917 1230.83 740.734C1230.17 740.552 1229.55 740.24 1229.01 739.818C1228.47 739.395 1228.02 738.87 1227.68 738.273L1212.77 711.932C1211.46 709.617 1210.32 708.49 1209.02 709.358C1208.23 709.878 1208.54 711.168 1208.98 712.26L1220.8 737.86C1221.11 738.486 1221.29 739.167 1221.33 739.864C1221.37 740.561 1221.28 741.26 1221.04 741.918C1220.81 742.577 1220.45 743.182 1219.98 743.698C1219.51 744.215 1218.94 744.631 1218.3 744.924C1217.67 745.216 1216.98 745.379 1216.29 745.402C1215.59 745.425 1214.89 745.307 1214.24 745.057C1213.59 744.806 1212.99 744.428 1212.49 743.944C1211.99 743.459 1211.59 742.879 1211.31 742.237L1200.42 718.646C1198.82 715.177 1197.74 714.024 1196.37 714.656C1194.97 715.293 1195.27 716.488 1195.66 717.447L1203.98 737.894C1204.38 739.043 1204.33 740.302 1203.82 741.411C1203.32 742.52 1202.42 743.394 1201.29 743.853C1200.16 744.312 1198.9 744.32 1197.77 743.877C1196.63 743.434 1195.71 742.573 1195.2 741.471L1186.14 719.215L1186.14 719.211L1186.14 719.206L1180.71 705.859C1179.6 703.356 1178.44 701.023 1177.08 698.778C1169.05 685.599 1169.33 671.931 1169.7 668.914Z" fill="#ABCC63"/>
</g>
<path d="M1241.28 541.354C1241.33 540.44 1241.73 539.331 1242.73 538.726C1243.44 538.288 1267.14 523.884 1267.87 523.462C1269.97 522.246 1271.67 522.264 1272.95 522.897C1274.89 523.856 1296.42 531.306 1319.67 526.267C1322.16 525.724 1323.47 535.345 1316.46 537.242C1311.66 538.541 1296.68 538.851 1295.44 541.009C1294.49 542.675 1296 550.592 1305.12 562.648L1323.46 586.883C1324.23 587.991 1324.55 589.356 1324.34 590.691C1324.13 592.026 1323.41 593.228 1322.33 594.043C1321.25 594.859 1319.9 595.225 1318.56 595.064C1317.21 594.904 1315.99 594.229 1315.13 593.182L1299.12 572.035C1297.56 569.971 1296.18 569.403 1295.06 570.224C1294.06 570.951 1294.03 571.757 1295.31 573.828L1313.06 600.249C1313.44 600.817 1313.71 601.455 1313.85 602.127C1313.98 602.799 1313.98 603.491 1313.85 604.163C1313.72 604.836 1313.46 605.476 1313.08 606.047C1312.7 606.618 1312.21 607.108 1311.64 607.49C1311.07 607.875 1310.44 608.143 1309.76 608.28C1309.09 608.417 1308.4 608.419 1307.73 608.288C1307.05 608.156 1306.41 607.893 1305.84 607.513C1305.27 607.133 1304.78 606.644 1304.4 606.074L1287.52 580.951C1286.03 578.743 1284.81 577.707 1283.57 578.672C1282.84 579.25 1283.24 580.513 1283.76 581.568L1297.5 606.189C1297.86 606.789 1298.09 607.455 1298.19 608.147C1298.28 608.839 1298.24 609.542 1298.06 610.217C1297.88 610.891 1297.56 611.522 1297.13 612.073C1296.7 612.624 1296.17 613.083 1295.56 613.423C1294.95 613.763 1294.28 613.978 1293.58 614.054C1292.89 614.13 1292.18 614.066 1291.52 613.867C1290.85 613.667 1290.22 613.335 1289.69 612.89C1289.15 612.446 1288.7 611.898 1288.38 611.279L1275.71 588.59C1273.86 585.254 1272.69 584.186 1271.37 584.921C1270.03 585.664 1270.41 586.833 1270.88 587.759L1280.74 607.509C1281.23 608.624 1281.27 609.884 1280.85 611.028C1280.44 612.172 1279.6 613.113 1278.51 613.657C1277.42 614.201 1276.16 614.306 1275 613.951C1273.84 613.596 1272.85 612.807 1272.25 611.748L1261.52 590.249L1261.52 590.246L1261.52 590.241L1255.08 577.348C1253.79 574.938 1252.45 572.7 1250.92 570.566C1241.91 558.04 1241.15 544.39 1241.28 541.354Z" fill="#ABCC63"/>
<g clip-path="url(#clip15_9_2)">
<path d="M1402.09 477.213C1402.66 476.498 1403.63 475.833 1404.79 475.92C1405.63 475.982 1433.28 478.1 1434.12 478.186C1436.54 478.423 1437.9 479.426 1438.57 480.686C1439.6 482.601 1452.74 501.209 1474.56 510.676C1476.9 511.684 1472.36 520.265 1465.56 517.719C1460.9 515.974 1448.55 507.487 1446.28 508.519C1444.54 509.318 1441.14 516.626 1441.52 531.739L1442.29 562.123C1442.27 563.475 1441.73 564.767 1440.78 565.729C1439.83 566.691 1438.55 567.247 1437.19 567.28C1435.84 567.314 1434.53 566.823 1433.53 565.909C1432.54 564.996 1431.93 563.732 1431.85 562.383L1431.18 535.868C1431.12 533.282 1430.32 532.012 1428.93 532.026C1427.7 532.033 1427.2 532.67 1427.04 535.102L1426.05 566.916C1426.03 567.601 1425.87 568.275 1425.59 568.9C1425.31 569.525 1424.91 570.088 1424.41 570.558C1423.91 571.027 1423.32 571.394 1422.68 571.636C1422.04 571.879 1421.36 571.993 1420.67 571.971C1419.98 571.952 1419.31 571.798 1418.68 571.517C1418.06 571.236 1417.49 570.834 1417.02 570.334C1416.55 569.835 1416.19 569.247 1415.94 568.606C1415.7 567.964 1415.59 567.281 1415.61 566.595L1416.55 536.343C1416.63 533.681 1416.24 532.126 1414.68 532.192C1413.74 532.231 1413.33 533.492 1413.14 534.655L1409.94 562.667C1409.88 563.363 1409.68 564.04 1409.36 564.657C1409.03 565.275 1408.59 565.821 1408.04 566.263C1407.5 566.705 1406.88 567.034 1406.21 567.231C1405.54 567.428 1404.84 567.489 1404.14 567.409C1403.45 567.33 1402.78 567.112 1402.17 566.77C1401.56 566.427 1401.03 565.965 1400.6 565.413C1400.18 564.86 1399.86 564.227 1399.69 563.552C1399.51 562.877 1399.47 562.173 1399.56 561.482L1402.51 535.664C1402.94 531.871 1402.62 530.325 1401.12 530.153C1399.59 529.97 1399.23 531.147 1399.06 532.169L1395.56 553.963C1395.3 555.153 1394.6 556.2 1393.59 556.887C1392.59 557.574 1391.36 557.849 1390.16 557.656C1388.96 557.463 1387.88 556.816 1387.14 555.848C1386.4 554.881 1386.06 553.667 1386.19 552.457L1390.01 528.736L1390.01 528.73L1390.01 528.725L1392.31 514.501C1392.66 511.788 1392.88 509.189 1392.88 506.562C1392.86 491.132 1400.21 479.599 1402.09 477.213Z" fill="#ABCC63"/>
</g>
<g clip-path="url(#clip16_9_2)">
<path d="M1574.09 524.492C1574.95 524.171 1576.13 524.099 1577.08 524.767C1577.76 525.249 1600.42 541.228 1601.1 541.734C1603.06 543.175 1603.72 544.735 1603.65 546.161C1603.54 548.33 1605.3 571.044 1619.2 590.353C1620.69 592.415 1612.39 597.458 1607.86 591.789C1604.75 587.904 1598.49 574.288 1596.02 574.017C1594.11 573.808 1587.45 578.347 1580.03 591.521L1565.13 618.01C1564.42 619.162 1563.3 619.995 1561.99 620.335C1560.68 620.674 1559.29 620.493 1558.11 619.83C1556.93 619.167 1556.06 618.073 1555.67 616.778C1555.28 615.483 1555.41 614.088 1556.03 612.886L1569.03 589.768C1570.3 587.516 1570.27 586.018 1569.07 585.319C1568.01 584.692 1567.26 584.985 1565.87 586.991L1548.72 613.807C1548.36 614.384 1547.88 614.884 1547.31 615.277C1546.75 615.669 1546.12 615.947 1545.45 616.095C1544.78 616.243 1544.09 616.257 1543.41 616.137C1542.74 616.017 1542.1 615.765 1541.52 615.396C1540.94 615.028 1540.44 614.55 1540.04 613.988C1539.65 613.426 1539.37 612.792 1539.22 612.122C1539.08 611.452 1539.06 610.76 1539.18 610.084C1539.3 609.409 1539.55 608.764 1539.93 608.186L1556.23 582.685C1557.66 580.44 1558.12 578.904 1556.74 578.161C1555.92 577.714 1554.92 578.588 1554.16 579.489L1537.07 601.91C1536.66 602.477 1536.14 602.956 1535.55 603.32C1534.95 603.683 1534.29 603.924 1533.6 604.026C1532.91 604.129 1532.2 604.092 1531.53 603.918C1530.85 603.744 1530.22 603.437 1529.66 603.013C1529.1 602.59 1528.64 602.059 1528.29 601.453C1527.95 600.847 1527.72 600.178 1527.64 599.484C1527.56 598.791 1527.61 598.088 1527.81 597.417C1528 596.746 1528.32 596.12 1528.76 595.577L1544.51 574.909C1546.83 571.876 1547.35 570.382 1546.15 569.466C1544.93 568.527 1544.01 569.35 1543.35 570.144L1529.17 587.067C1528.34 587.958 1527.2 588.497 1525.99 588.572C1524.77 588.648 1523.58 588.255 1522.64 587.473C1521.71 586.692 1521.11 585.582 1520.97 584.373C1520.84 583.164 1521.17 581.948 1521.9 580.976L1537.33 562.56L1537.33 562.553L1537.34 562.55L1546.59 551.509C1548.29 549.36 1549.8 547.238 1551.15 544.982C1559.04 531.723 1571.25 525.578 1574.09 524.492Z" fill="#ABCC63"/>
</g>
<g clip-path="url(#clip17_9_2)">
<path d="M887.899 548.679C887.223 549.296 886.157 549.803 885.026 549.538C884.21 549.347 857.22 542.983 856.4 542.767C854.051 542.159 852.857 540.958 852.389 539.609C851.674 537.558 841.564 517.144 821.464 504.417C819.313 503.061 825.128 495.284 831.451 498.851C835.785 501.295 846.678 511.589 849.071 510.918C850.919 510.399 855.402 503.703 857.364 488.713L861.303 458.576C861.528 457.243 862.262 456.049 863.349 455.246C864.436 454.443 865.793 454.092 867.133 454.268C868.473 454.443 869.693 455.132 870.537 456.188C871.38 457.244 871.782 458.586 871.657 459.932L868.223 486.233C867.885 488.797 868.474 490.175 869.848 490.375C871.07 490.56 871.657 490.007 872.195 487.629L878.091 456.351C878.217 455.678 878.475 455.035 878.849 454.461C879.224 453.888 879.708 453.393 880.274 453.006C880.839 452.619 881.476 452.348 882.146 452.207C882.817 452.067 883.509 452.06 884.183 452.187C884.857 452.312 885.5 452.569 886.075 452.943C886.65 453.317 887.146 453.801 887.533 454.368C887.92 454.934 888.192 455.571 888.332 456.242C888.473 456.914 888.479 457.607 888.352 458.281L882.747 488.024C882.258 490.641 882.402 492.238 883.956 492.414C884.889 492.521 885.487 491.338 885.855 490.219L893.344 463.037C893.511 462.359 893.812 461.721 894.229 461.161C894.647 460.601 895.172 460.131 895.775 459.778C896.377 459.425 897.044 459.196 897.737 459.105C898.429 459.014 899.133 459.062 899.806 459.248C900.479 459.434 901.108 459.752 901.656 460.185C902.204 460.618 902.66 461.156 902.996 461.768C903.333 462.38 903.543 463.053 903.615 463.748C903.687 464.442 903.619 465.144 903.415 465.812L896.517 490.865C895.498 494.544 895.579 496.122 897.034 496.524C898.515 496.94 899.059 495.835 899.379 494.85L906.212 473.859C906.648 472.723 907.504 471.798 908.603 471.274C909.701 470.751 910.959 470.669 912.116 471.045C913.273 471.422 914.242 472.228 914.822 473.298C915.402 474.368 915.549 475.62 915.234 476.795L907.791 499.64L907.792 499.647L907.79 499.651L903.325 513.35C902.555 515.975 901.941 518.51 901.534 521.105C899.163 536.352 890.127 546.611 887.899 548.679Z" fill="#ABCC63"/>
</g>
<g clip-path="url(#clip18_9_2)">
<path d="M1402.89 703.576C1402.88 704.491 1402.53 705.618 1401.57 706.27C1400.88 706.741 1377.9 722.268 1377.19 722.725C1375.15 724.04 1373.46 724.103 1372.15 723.533C1370.16 722.668 1348.29 716.261 1325.31 722.411C1322.86 723.073 1321.08 713.526 1327.99 711.295C1332.73 709.766 1347.68 708.737 1348.81 706.522C1349.68 704.812 1347.79 696.977 1338.1 685.373L1318.62 662.047C1317.79 660.978 1317.41 659.629 1317.56 658.286C1317.71 656.942 1318.37 655.707 1319.4 654.841C1320.44 653.975 1321.78 653.544 1323.12 653.64C1324.47 653.736 1325.73 654.351 1326.64 655.355L1343.64 675.708C1345.3 677.696 1346.71 678.196 1347.79 677.322C1348.75 676.549 1348.74 675.742 1347.36 673.735L1328.36 648.197C1327.95 647.648 1327.66 647.023 1327.49 646.359C1327.32 645.694 1327.29 645.003 1327.38 644.325C1327.48 643.647 1327.72 642.995 1328.07 642.407C1328.42 641.818 1328.88 641.305 1329.43 640.896C1329.98 640.485 1330.61 640.186 1331.27 640.017C1331.94 639.848 1332.63 639.812 1333.31 639.911C1333.99 640.01 1334.64 640.243 1335.23 640.595C1335.82 640.946 1336.33 641.411 1336.74 641.962L1354.8 666.245C1356.4 668.379 1357.67 669.356 1358.85 668.333C1359.56 667.719 1359.1 666.477 1358.52 665.449L1343.62 641.516C1343.23 640.934 1342.97 640.28 1342.84 639.594C1342.71 638.907 1342.72 638.202 1342.87 637.52C1343.02 636.838 1343.3 636.192 1343.71 635.621C1344.11 635.051 1344.62 634.566 1345.21 634.197C1345.81 633.828 1346.47 633.582 1347.16 633.472C1347.85 633.363 1348.55 633.393 1349.23 633.56C1349.91 633.728 1350.55 634.029 1351.1 634.447C1351.66 634.865 1352.13 635.391 1352.49 635.994L1366.23 658.048C1368.24 661.291 1369.46 662.302 1370.74 661.504C1372.05 660.698 1371.6 659.549 1371.1 658.646L1360.3 639.393C1359.76 638.302 1359.66 637.045 1360.02 635.883C1360.38 634.72 1361.17 633.74 1362.23 633.145C1363.29 632.549 1364.54 632.384 1365.72 632.683C1366.9 632.981 1367.92 633.722 1368.57 634.751L1380.32 655.709L1380.33 655.712L1380.33 655.717L1387.37 668.286C1388.78 670.631 1390.23 672.802 1391.86 674.86C1401.46 686.939 1402.88 700.537 1402.89 703.576Z" fill="#ABCC63"/>
</g>
<g clip-path="url(#clip19_9_2)">
<path d="M568.567 515.92C568.702 516.825 568.526 517.993 567.675 518.783C567.061 519.354 546.705 538.184 546.068 538.744C544.252 540.353 542.588 540.672 541.208 540.307C539.108 539.754 516.528 536.735 494.744 546.298C492.417 547.325 489.216 538.157 495.706 534.905C500.154 532.676 514.777 529.391 515.558 527.032C516.16 525.209 513.11 517.75 501.773 507.749L478.976 487.647C477.997 486.715 477.417 485.44 477.358 484.09C477.299 482.739 477.766 481.419 478.66 480.405C479.554 479.391 480.807 478.764 482.154 478.654C483.501 478.545 484.839 478.961 485.885 479.817L505.782 497.357C507.72 499.07 509.191 499.35 510.125 498.323C510.961 497.412 510.83 496.616 509.158 494.843L486.509 472.48C486.021 471.999 485.632 471.426 485.365 470.795C485.099 470.164 484.959 469.486 484.954 468.801C484.949 468.116 485.08 467.436 485.338 466.801C485.596 466.166 485.976 465.589 486.458 465.101C486.938 464.611 487.511 464.221 488.142 463.953C488.774 463.686 489.452 463.545 490.138 463.54C490.824 463.535 491.505 463.666 492.14 463.924C492.775 464.183 493.354 464.565 493.841 465.047L515.38 486.311C517.278 488.178 518.683 488.951 519.697 487.76C520.307 487.047 519.66 485.889 518.937 484.959L500.575 463.563C500.106 463.046 499.745 462.44 499.514 461.781C499.283 461.122 499.186 460.423 499.23 459.726C499.273 459.03 499.456 458.348 499.767 457.723C500.079 457.098 500.512 456.542 501.042 456.087C501.572 455.632 502.188 455.288 502.853 455.076C503.518 454.863 504.219 454.786 504.914 454.848C505.61 454.911 506.286 455.113 506.902 455.441C507.518 455.77 508.062 456.218 508.502 456.761L525.429 476.476C527.912 479.377 529.265 480.192 530.411 479.209C531.584 478.213 530.971 477.145 530.333 476.329L516.74 458.936C516.041 457.939 515.752 456.712 515.931 455.509C516.11 454.305 516.745 453.216 517.704 452.467C518.663 451.717 519.872 451.364 521.084 451.481C522.295 451.597 523.416 452.174 524.214 453.093L539.005 472.028L539.012 472.03L539.014 472.035L547.881 483.39C549.629 485.495 551.389 487.421 553.313 489.208C564.635 499.692 568.097 512.917 568.567 515.92Z" fill="#ABCC63"/>
</g>
<path d="M1060.08 502.056C1059.76 502.914 1059.04 503.851 1057.92 504.132C1057.1 504.335 1030.18 510.989 1029.36 511.171C1026.99 511.703 1025.38 511.179 1024.35 510.192C1022.77 508.694 1004.46 495.143 980.768 492.993C978.235 492.768 979.86 483.194 987.114 483.482C992.086 483.679 1006.48 487.867 1008.3 486.178C1009.71 484.873 1010.64 476.868 1005.54 462.635L995.294 434.022C994.887 432.733 994.995 431.336 995.596 430.126C996.197 428.915 997.243 427.984 998.516 427.528C999.789 427.073 1001.19 427.128 1002.42 427.683C1003.65 428.238 1004.62 429.249 1005.13 430.504L1014.07 455.472C1014.94 457.909 1016.1 458.865 1017.41 458.417C1018.58 458.023 1018.85 457.263 1018.25 454.902L1009.22 424.381C1009.02 423.724 1008.96 423.035 1009.03 422.353C1009.1 421.672 1009.31 421.011 1009.63 420.408C1009.96 419.806 1010.4 419.274 1010.93 418.843C1011.47 418.412 1012.08 418.089 1012.74 417.895C1013.39 417.698 1014.08 417.634 1014.77 417.704C1015.45 417.775 1016.11 417.98 1016.71 418.307C1017.32 418.634 1017.85 419.077 1018.28 419.61C1018.71 420.143 1019.03 420.757 1019.23 421.415L1027.81 450.438C1028.57 452.99 1029.43 454.345 1030.89 453.792C1031.77 453.462 1031.77 452.135 1031.58 450.972L1025.84 423.368C1025.68 422.689 1025.66 421.984 1025.77 421.295C1025.89 420.607 1026.14 419.948 1026.52 419.359C1026.89 418.77 1027.38 418.262 1027.95 417.865C1028.53 417.468 1029.18 417.19 1029.86 417.048C1030.54 416.906 1031.25 416.902 1031.93 417.037C1032.62 417.172 1033.27 417.443 1033.85 417.834C1034.43 418.225 1034.92 418.728 1035.3 419.313C1035.68 419.898 1035.94 420.554 1036.07 421.241L1041.36 446.681C1042.14 450.42 1042.93 451.787 1044.41 451.48C1045.91 451.175 1045.89 449.943 1045.73 448.921L1042.23 427.125C1042.1 425.915 1042.44 424.701 1043.18 423.734C1043.92 422.767 1045 422.12 1046.2 421.927C1047.4 421.734 1048.63 422.009 1049.63 422.696C1050.64 423.383 1051.34 424.43 1051.6 425.62L1055.4 449.344L1055.4 449.349L1055.4 449.354L1057.68 463.581C1058.2 466.268 1058.81 468.804 1059.63 471.299C1064.48 485.947 1061.12 499.2 1060.08 502.056Z" fill="#ABCC63"/>
<g clip-path="url(#clip20_9_2)">
<path d="M1204.46 419.674C1204.54 420.586 1204.29 421.741 1203.4 422.478C1202.75 423.011 1181.3 440.586 1180.63 441.106C1178.72 442.603 1177.04 442.822 1175.69 442.374C1173.62 441.696 1151.26 437.328 1128.94 445.566C1126.56 446.45 1123.92 437.107 1130.59 434.25C1135.16 432.293 1149.96 429.892 1150.88 427.583C1151.59 425.8 1148.99 418.171 1138.28 407.508L1116.73 386.074C1115.81 385.085 1115.3 383.777 1115.32 382.425C1115.35 381.074 1115.89 379.783 1116.85 378.825C1117.8 377.867 1119.09 377.316 1120.44 377.288C1121.79 377.259 1123.1 377.755 1124.09 378.672L1142.9 397.375C1144.73 399.201 1146.18 399.57 1147.18 398.6C1148.07 397.741 1147.98 396.939 1146.42 395.068L1125.16 371.386C1124.7 370.876 1124.34 370.282 1124.12 369.636C1123.89 368.989 1123.79 368.305 1123.83 367.62C1123.86 366.936 1124.03 366.265 1124.33 365.647C1124.62 365.029 1125.04 364.475 1125.55 364.017C1126.06 363.557 1126.65 363.202 1127.3 362.973C1127.95 362.744 1128.63 362.644 1129.32 362.68C1130 362.717 1130.67 362.888 1131.29 363.184C1131.91 363.48 1132.46 363.896 1132.92 364.407L1153.15 386.925C1154.93 388.903 1156.28 389.759 1157.37 388.631C1158.02 387.955 1157.44 386.761 1156.78 385.79L1139.73 363.33C1139.3 362.785 1138.97 362.159 1138.78 361.487C1138.59 360.815 1138.53 360.112 1138.62 359.419C1138.71 358.726 1138.93 358.057 1139.28 357.452C1139.63 356.847 1140.09 356.317 1140.65 355.895C1141.2 355.473 1141.84 355.167 1142.52 354.994C1143.19 354.822 1143.9 354.787 1144.59 354.891C1145.28 354.996 1145.94 355.238 1146.54 355.602C1147.13 355.967 1147.65 356.448 1148.05 357.015L1163.77 377.712C1166.07 380.756 1167.37 381.651 1168.58 380.739C1169.81 379.815 1169.26 378.712 1168.67 377.859L1156.15 359.681C1155.51 358.644 1155.29 357.403 1155.54 356.212C1155.8 355.021 1156.49 353.972 1157.5 353.282C1158.5 352.591 1159.73 352.311 1160.93 352.5C1162.13 352.689 1163.22 353.333 1163.96 354.297L1177.59 374.086L1177.59 374.089L1177.59 374.094L1185.76 385.961C1187.38 388.167 1189.02 390.195 1190.84 392.095C1201.51 403.239 1204.17 416.649 1204.46 419.674Z" fill="#ABCC63"/>
</g>
<g clip-path="url(#clip21_9_2)">
<path d="M1319.9 384.896C1319.32 385.61 1318.35 386.273 1317.19 386.185C1316.35 386.121 1288.71 383.96 1287.87 383.872C1285.45 383.631 1284.09 382.626 1283.42 381.365C1282.4 379.448 1269.28 360.82 1247.47 351.318C1245.14 350.307 1249.7 341.732 1256.49 344.29C1261.15 346.042 1273.49 354.549 1275.75 353.519C1277.5 352.724 1280.9 345.421 1280.55 330.307L1279.83 299.922C1279.85 298.57 1280.39 297.279 1281.34 296.319C1282.3 295.358 1283.58 294.804 1284.93 294.773C1286.29 294.741 1287.6 295.235 1288.59 296.15C1289.59 297.064 1290.19 298.329 1290.27 299.678L1290.9 326.195C1290.96 328.781 1291.75 330.052 1293.14 330.04C1294.38 330.035 1294.87 329.399 1295.04 326.967L1296.08 295.155C1296.1 294.47 1296.26 293.796 1296.54 293.172C1296.82 292.547 1297.23 291.985 1297.73 291.516C1298.23 291.047 1298.81 290.682 1299.46 290.44C1300.1 290.198 1300.78 290.085 1301.46 290.108C1302.15 290.128 1302.83 290.284 1303.45 290.566C1304.08 290.848 1304.64 291.25 1305.11 291.751C1305.58 292.251 1305.94 292.839 1306.19 293.481C1306.43 294.123 1306.54 294.807 1306.52 295.493L1305.53 325.743C1305.45 328.404 1305.83 329.96 1307.39 329.897C1308.33 329.86 1308.74 328.599 1308.93 327.437L1312.18 299.429C1312.24 298.733 1312.44 298.057 1312.77 297.44C1313.09 296.823 1313.54 296.278 1314.08 295.837C1314.62 295.395 1315.25 295.067 1315.92 294.871C1316.59 294.675 1317.29 294.616 1317.98 294.696C1318.68 294.777 1319.35 294.995 1319.96 295.339C1320.56 295.683 1321.1 296.145 1321.52 296.699C1321.95 297.252 1322.26 297.885 1322.44 298.56C1322.61 299.236 1322.65 299.94 1322.55 300.631L1319.57 326.444C1319.13 330.236 1319.45 331.783 1320.95 331.958C1322.47 332.143 1322.84 330.967 1323.01 329.945L1326.55 308.156C1326.81 306.966 1327.51 305.921 1328.52 305.235C1329.52 304.55 1330.75 304.276 1331.95 304.472C1333.16 304.667 1334.24 305.315 1334.97 306.284C1335.71 307.252 1336.05 308.467 1335.91 309.677L1332.05 333.392L1332.06 333.398L1332.05 333.403L1329.74 347.623C1329.38 350.335 1329.16 352.935 1329.15 355.561C1329.14 370.991 1321.78 382.512 1319.9 384.896Z" fill="#ABCC63"/>
</g>
<path d="M1451.08 325.056C1450.76 325.914 1450.04 326.851 1448.92 327.132C1448.1 327.335 1421.18 333.989 1420.36 334.171C1417.99 334.703 1416.38 334.179 1415.35 333.192C1413.77 331.694 1395.46 318.143 1371.77 315.993C1369.23 315.768 1370.86 306.194 1378.11 306.482C1383.09 306.679 1397.48 310.867 1399.3 309.178C1400.71 307.873 1401.64 299.868 1396.54 285.635L1386.29 257.022C1385.89 255.733 1386 254.336 1386.6 253.126C1387.2 251.915 1388.24 250.984 1389.52 250.528C1390.79 250.073 1392.19 250.128 1393.42 250.683C1394.65 251.238 1395.62 252.249 1396.13 253.504L1405.07 278.472C1405.94 280.909 1407.1 281.865 1408.41 281.417C1409.58 281.023 1409.85 280.263 1409.25 277.902L1400.22 247.381C1400.02 246.724 1399.96 246.035 1400.03 245.353C1400.1 244.672 1400.31 244.011 1400.63 243.408C1400.96 242.806 1401.4 242.274 1401.93 241.843C1402.47 241.412 1403.08 241.089 1403.74 240.895C1404.39 240.698 1405.08 240.634 1405.77 240.704C1406.45 240.775 1407.11 240.98 1407.71 241.307C1408.32 241.634 1408.85 242.077 1409.28 242.61C1409.71 243.143 1410.03 243.757 1410.23 244.415L1418.81 273.438C1419.57 275.99 1420.43 277.345 1421.89 276.792C1422.77 276.462 1422.77 275.135 1422.58 273.972L1416.84 246.368C1416.68 245.689 1416.66 244.984 1416.77 244.295C1416.89 243.607 1417.14 242.948 1417.52 242.359C1417.89 241.77 1418.38 241.262 1418.95 240.865C1419.53 240.468 1420.18 240.19 1420.86 240.048C1421.54 239.906 1422.25 239.902 1422.93 240.037C1423.62 240.172 1424.27 240.443 1424.85 240.834C1425.43 241.225 1425.92 241.728 1426.3 242.313C1426.68 242.898 1426.94 243.554 1427.07 244.241L1432.36 269.681C1433.14 273.42 1433.93 274.787 1435.41 274.48C1436.91 274.175 1436.89 272.943 1436.73 271.921L1433.23 250.125C1433.1 248.915 1433.44 247.701 1434.18 246.734C1434.92 245.767 1436 245.12 1437.2 244.927C1438.4 244.734 1439.63 245.009 1440.63 245.696C1441.64 246.383 1442.34 247.43 1442.6 248.62L1446.4 272.344L1446.4 272.349L1446.4 272.354L1448.68 286.581C1449.2 289.268 1449.81 291.804 1450.63 294.299C1455.48 308.947 1452.12 322.2 1451.08 325.056Z" fill="#ABCC63"/>
<g clip-path="url(#clip22_9_2)">
<path d="M1149.21 890.056C1148.37 890.422 1147.2 890.557 1146.21 889.941C1145.5 889.496 1122.02 874.75 1121.31 874.281C1119.29 872.947 1118.54 871.424 1118.54 869.996C1118.52 867.825 1115.55 845.238 1100.65 826.698C1099.05 824.719 1107.06 819.239 1111.9 824.658C1115.21 828.372 1122.19 841.634 1124.67 841.773C1126.59 841.879 1132.99 836.991 1139.69 823.44L1153.16 796.193C1153.81 795.005 1154.89 794.112 1156.18 793.704C1157.46 793.295 1158.86 793.401 1160.07 794.001C1161.28 794.6 1162.22 795.646 1162.67 796.918C1163.13 798.19 1163.08 799.59 1162.52 800.823L1150.77 824.602C1149.62 826.92 1149.74 828.414 1150.97 829.048C1152.07 829.617 1152.8 829.284 1154.08 827.207L1169.77 799.514C1170.11 798.917 1170.56 798.393 1171.1 797.971C1171.64 797.548 1172.25 797.237 1172.92 797.054C1173.58 796.871 1174.27 796.819 1174.95 796.903C1175.63 796.987 1176.28 797.204 1176.88 797.541C1177.48 797.878 1178 798.329 1178.43 798.869C1178.85 799.409 1179.16 800.027 1179.34 800.688C1179.53 801.349 1179.58 802.04 1179.5 802.721C1179.41 803.402 1179.19 804.059 1178.85 804.656L1163.94 830.991C1162.63 833.31 1162.25 834.868 1163.66 835.537C1164.51 835.94 1165.46 835.013 1166.17 834.073L1182.04 810.77C1182.42 810.183 1182.91 809.676 1183.49 809.282C1184.06 808.887 1184.71 808.612 1185.4 808.472C1186.08 808.332 1186.79 808.331 1187.47 808.469C1188.15 808.607 1188.8 808.88 1189.38 809.273C1189.96 809.667 1190.45 810.171 1190.83 810.758C1191.21 811.345 1191.47 812.001 1191.59 812.689C1191.71 813.377 1191.69 814.082 1191.53 814.763C1191.38 815.443 1191.08 816.085 1190.68 816.652L1176.05 838.131C1173.9 841.283 1173.46 842.802 1174.71 843.653C1175.98 844.526 1176.85 843.655 1177.47 842.827L1190.72 825.171C1191.5 824.237 1192.61 823.638 1193.82 823.497C1195.03 823.357 1196.24 823.686 1197.22 824.416C1198.19 825.147 1198.85 826.223 1199.05 827.423C1199.25 828.623 1198.99 829.855 1198.31 830.865L1183.88 850.078L1183.88 850.085L1183.88 850.089L1175.23 861.609C1173.65 863.845 1172.25 866.045 1171.02 868.369C1163.85 882.031 1151.99 888.82 1149.21 890.056Z" fill="#ABCC63"/>
</g>
</g>
</g>
<defs>
<clipPath id="clip0_9_2">
<rect width="1920" height="931" fill="white"/>
</clipPath>
<clipPath id="clip1_9_2">
<rect width="1691.02" height="1954.07" fill="white" transform="translate(1366.86 -503) rotate(67.464)"/>
</clipPath>
<clipPath id="clip2_9_2">
<rect width="100" height="100" fill="white" transform="translate(333.792 800.573) rotate(-172.417)"/>
</clipPath>
<clipPath id="clip3_9_2">
<rect width="100" height="100" fill="white" transform="translate(941.125 434.321) rotate(-172.417)"/>
</clipPath>
<clipPath id="clip4_9_2">
<rect width="100" height="100" fill="white" transform="translate(574.804 450.365) rotate(-146.934)"/>
</clipPath>
<clipPath id="clip5_9_2">
<rect width="100" height="100" fill="white" transform="translate(326.144 766) rotate(7.55297)"/>
</clipPath>
<clipPath id="clip6_9_2">
<rect width="100" height="100" fill="white" transform="translate(695.144 765) rotate(7.55297)"/>
</clipPath>
<clipPath id="clip7_9_2">
<rect width="100" height="100" fill="white" transform="translate(456.949 796.702) rotate(-146.058)"/>
</clipPath>
<clipPath id="clip8_9_2">
<rect width="100" height="100" fill="white" transform="translate(881.052 799.948) rotate(-120.8)"/>
</clipPath>
<clipPath id="clip9_9_2">
<rect width="100" height="100" fill="white" transform="translate(815.074 772.987) rotate(-160.176)"/>
</clipPath>
<clipPath id="clip10_9_2">
<rect width="100" height="100" fill="white" transform="translate(685.96 747.796) rotate(-146.058)"/>
</clipPath>
<clipPath id="clip11_9_2">
<rect width="100" height="100" fill="white" transform="translate(595.96 845.796) rotate(-146.058)"/>
</clipPath>
<clipPath id="clip12_9_2">
<rect width="100" height="100" fill="white" transform="translate(910.592 897.918) rotate(-96.6567)"/>
</clipPath>
<clipPath id="clip13_9_2">
<rect width="100" height="100" fill="white" transform="translate(1109.96 811.796) rotate(-146.058)"/>
</clipPath>
<clipPath id="clip14_9_2">
<rect width="100" height="100" fill="white" transform="translate(1273.91 737.243) rotate(169.244)"/>
</clipPath>
<clipPath id="clip15_9_2">
<rect width="100" height="100" fill="white" transform="translate(1455.65 589.722) rotate(-159.466)"/>
</clipPath>
<clipPath id="clip16_9_2">
<rect width="100" height="100" fill="white" transform="translate(1562.47 648.556) rotate(-128.658)"/>
</clipPath>
<clipPath id="clip17_9_2">
<rect width="100" height="100" fill="white" transform="translate(852.37 429.244) rotate(29.4236)"/>
</clipPath>
<clipPath id="clip18_9_2">
<rect width="100" height="100" fill="white" transform="translate(1291 648.73) rotate(-17.8966)"/>
</clipPath>
<clipPath id="clip19_9_2">
<rect width="100" height="100" fill="white" transform="translate(449.657 478.671) rotate(-26.6165)"/>
</clipPath>
<clipPath id="clip20_9_2">
<rect width="100" height="100" fill="white" transform="translate(1088 375.353) rotate(-23.1746)"/>
</clipPath>
<clipPath id="clip21_9_2">
<rect width="100" height="100" fill="white" transform="translate(1256.3 278) rotate(11.1304)"/>
</clipPath>
<clipPath id="clip22_9_2">
<rect width="100" height="100" fill="white" transform="translate(1154.19 765.548) rotate(48.2804)"/>
</clipPath>
</defs>
</svg>
