<svg width="1920" height="931" viewBox="0 0 1920 931" fill="none" xmlns="http://www.w3.org/2000/svg">
<g clip-path="url(#clip0_9_2)">
<g clip-path="url(#clip1_9_2)">
<path d="M1526.67 294.49C1524.75 295.145 1522.31 296.623 1521.12 297.694C1519.94 298.765 1516.81 300.68 1514.3 301.871C1508.38 304.867 1506.04 302.668 1504.4 292.481C1501.35 274.951 1496.09 261.743 1490.53 257.961C1485.88 254.792 1484.77 257.944 1486.54 269.271C1487.46 275.078 1488.28 286.544 1488.33 294.76L1488.59 309.596L1478.25 317.837C1470.67 323.768 1466.19 326.556 1462.07 327.569C1459.01 328.354 1455.24 330.14 1453.75 331.479C1449.69 335.138 1385.76 362.587 1359.69 371.898C1347 376.336 1332.74 381.824 1328.19 383.948C1323.46 386.062 1314.99 389.208 1309.33 390.896L1298.87 394.034L1316.83 379.108C1348.41 352.807 1365.2 336.782 1375.33 323.526C1390.55 303.171 1401.86 294.601 1422.43 287.553L1433.77 283.612L1433.46 276.893C1433.37 273.206 1432.96 270.164 1432.69 270.055C1432.41 269.946 1428.13 270.573 1423.26 271.547C1415.63 273.038 1412.93 274.219 1404.77 280.309C1392.7 289.215 1389.94 289.544 1388.15 282.181C1387.45 279.407 1386.63 271.528 1386.14 264.611C1385.84 257.703 1384.58 249.33 1383.44 245.872C1378.34 229.463 1378.29 230.404 1384.2 214.851C1387.36 206.802 1391.93 196.938 1394.31 193.002C1399.64 184.783 1403.76 172.819 1402.15 171.036C1400.46 169.154 1396.77 169.245 1394.69 171.119C1393.7 172.012 1390.65 177.99 1387.95 184.552C1385.06 191.105 1381.53 199.134 1379.93 202.544L1376.87 208.711L1373.75 205.244C1369.11 200.093 1367.71 194.355 1367.17 179.222C1366.68 165.13 1364.26 159.056 1360.49 162.447C1358.12 164.59 1352.8 185.177 1352.57 193.096C1352.4 200.073 1354.9 208.228 1358.29 211.992C1363.38 217.638 1363.7 227.756 1359.05 231.951C1356.27 234.45 1356 236.135 1357.02 245.441C1357.76 251.238 1357.97 256.253 1357.48 256.699C1356.09 257.948 1359.66 267.292 1364.65 274.821C1374.35 289.771 1372.87 296.491 1355.36 317.293C1346.31 327.962 1337.96 336.025 1314.2 357.257C1279.35 388.297 1263.9 400.238 1249.86 406.966C1244.25 409.694 1234.45 414.754 1228.23 418.207L1216.76 424.407L1206.55 439.17C1190.96 461.299 1176.72 479.157 1166.07 489.648C1160.8 494.755 1154.7 501.329 1152.46 504.423C1150.23 507.328 1136.49 520.963 1122.19 534.568C1094 561.046 1078.74 572.997 1066.59 578.028C1055.78 582.564 1044.57 589.25 1023.04 603.801C1011.99 611.25 1000.58 618.303 997.682 619.474C994.878 620.744 988.101 623.979 982.761 626.817C977.421 629.654 968.712 633.732 963.599 635.827C958.388 638.01 953.642 640.312 953.047 640.847C952.453 641.383 943.871 643.013 933.972 644.575C919.028 646.912 915.629 646.924 913.754 644.844C911.791 642.665 911.028 642.814 908.353 645.224C904.589 648.615 890.726 651.953 886.83 650.618C884.977 649.955 883.469 648.082 882.021 645.08C879.391 639.373 877.894 639.107 876.698 643.953C875.838 647.779 869.449 654.433 867.12 653.84C866.287 653.513 866.069 652.275 866.613 650.887C868.157 646.624 889.705 617.158 894.064 613.231C899.908 607.965 907.072 606.355 912.604 608.909L917.204 611.225L915.168 604.983C914.037 601.336 912.043 597.928 910.317 596.611C907.868 594.69 907.549 591.747 908.005 573.927C908.306 562.708 907.425 546.99 906.142 538.993C904.859 530.996 903.813 522.067 903.682 519.134C903.463 516.101 902.946 513.337 902.499 512.841C902.142 512.445 901.367 509.195 900.88 505.865C900.263 501.396 899.499 499.751 897.992 499.673C896.863 499.614 894.939 498.475 893.868 497.287C892.083 495.306 892.577 493.066 896.467 483.638C901.316 472.09 903.62 462.297 901.36 462.179C900.607 462.14 899.538 464.539 899.005 467.532C897.72 474.074 894.336 482.867 891.474 487.06C889.434 489.975 889.345 489.876 887.568 485.913C883.411 476.917 875.464 462.719 874.086 461.987C872.064 460.937 873.722 465.366 882.632 484.618C888.06 496.418 890.284 502.67 890.008 506.149C889.823 511.521 884.289 521.712 870.872 541.878C860.029 557.929 857.265 560.24 843.432 564.807C824.606 571.002 823.734 571.428 819.486 578.666C813.803 588.094 806.752 596.601 794.717 608.342C788.744 614.262 783.178 619.637 782.583 620.172C780.592 622.146 784.578 625.374 788.017 624.609C793.378 623.189 815.099 601.284 823.496 588.693L830.566 578.015L840.416 575.601C847.491 573.892 850.712 573.682 852.427 575.188C854.876 577.109 855.164 577.03 861.463 570.277C865.157 566.41 873.466 555.513 880.101 545.946C886.636 536.467 892.42 528.744 892.984 528.773C894.967 528.782 898.319 551.426 898.536 565.409C898.609 573.06 891.63 585.631 886.23 587.805C884.783 588.39 876.874 587.978 868.816 586.804C860.659 585.718 853.315 585.336 852.622 585.961C850.145 588.192 854.062 590.945 863.349 593.883C874.501 597.296 878.199 600.604 876.26 605.223C875.498 607.166 867.635 618.558 858.703 630.555C836.154 661.102 823.881 671.981 816.247 668.091C812.936 666.408 811.014 667.063 811.442 669.729C811.949 672.682 807.976 674.646 803.02 673.728C798.53 672.927 797.668 673.166 796.094 676.199C795.035 678.41 793.153 680.106 790.834 681.118C783.116 684.304 759.627 700.263 743.282 713.196C715.218 735.432 693.997 749.527 691.945 747.249C691.677 746.951 691.507 744.771 691.535 742.412C691.661 736.377 688.361 736.299 685.113 742.456C683.024 746.312 682.331 746.937 679.219 746.869C675.632 746.871 675.532 746.961 676.763 750.518C677.32 752.529 677.301 754.7 676.509 755.414C674.626 757.11 667.551 758.818 664.459 758.374C662.863 758.197 660.257 759.288 658.375 760.984C656.592 762.591 654.551 763.712 653.897 763.583C653.154 763.356 649.577 764.963 645.783 767.126C637.906 771.531 597.55 788.689 588.731 791.251C582.498 793.098 577.751 791.813 573.466 787.058C569.361 782.501 568.893 778.795 572.261 775.761C575.331 772.994 575.527 767.434 572.67 764.264C570.707 762.085 570.806 761.996 568.143 767.805C565.184 773.882 561.311 777.551 559.526 775.57C557.741 773.589 559.195 769.227 565.907 756.359C573.134 742.669 573.3 739.467 567.402 736.706C562.059 734.162 550.037 732.969 539.79 733.947C534.854 734.445 526.787 733.459 518.589 731.332C506.1 728.228 501.769 728.002 501.543 730.539C501.426 734.593 530.24 741.474 537.255 739.102C539.564 738.278 545.53 737.927 550.505 738.47C565.997 740.126 566.675 747.053 553.027 762.581C541.469 776.046 541.468 774.252 551.535 787.616C557.882 796.254 558.43 800.248 554.142 806.444C552.409 808.903 533.936 826.445 512.936 845.367C475.196 879.372 474.79 879.917 468.612 889.792C465.206 895.373 455.432 909.026 446.727 920.279C431.644 939.792 429.446 942.132 395.768 974.272C358.019 1010.26 349.046 1019.42 349.413 1021.42C349.632 1022.66 397.485 1064.62 400.697 1066.39C402.531 1067.43 405.988 1064.49 407.324 1060.6C407.967 1059.12 411.443 1054.01 415.186 1049.2C431.17 1028.7 444.399 1008.52 450.566 995.251C466.621 960.683 485.283 926.818 492.701 918.519C498.812 911.756 549.262 869.35 566.747 856.287C581.29 845.338 599.658 835.248 612.827 830.741C617.92 829.024 626.846 824.39 633.395 820.105C644.54 812.755 662.593 805.104 672.205 803.621C675.535 803.134 675.991 803.441 675.328 805.294C674.546 807.614 676.63 811.121 678.889 811.239C679.553 811.179 680.405 809.335 680.899 807.095C681.205 804.845 682.184 802.347 682.977 801.633C684.364 800.384 685.336 801.661 687.757 807.735C688.829 810.718 690.8 807.327 690.678 802.412L690.546 797.684L698.7 793.388C714.989 785.173 729.239 783.46 746.674 787.672C754.128 789.571 756.209 789.49 758.587 787.348C761.954 784.314 764.69 784.362 775.583 787.289C779.954 788.555 784.841 788.998 786.287 788.413C789.577 786.884 792.378 780.233 790.81 777.697C790.027 776.429 781.116 775.304 766.052 774.52C753.059 773.843 741.7 772.591 740.897 771.7C739.558 770.214 740.757 768.954 753.585 758.293C772.139 742.832 774.843 741.651 786.539 743.676C798.79 745.919 814.621 751.935 818.191 755.897C819.708 757.581 822.01 762.327 823.211 766.449C826.597 777.577 830.573 780.994 830.628 772.689C830.576 768.249 832.578 767.881 835.969 771.645C837.397 773.23 838.954 774.161 839.449 773.714C843.114 770.412 819.344 744.628 811.028 742.968C802.058 741.18 784.464 736.393 783.839 735.7C782.054 733.718 801.362 720.09 815.193 713.73C818.77 712.122 824.982 708.858 829.252 706.626C837.803 701.973 861.901 694.258 867.659 694.275C869.641 694.284 872.604 693.588 874.258 692.636C878.826 690.136 892.54 687.828 915.017 685.883C926.304 684.866 940.079 683.223 945.608 682.189C951.138 681.155 958.65 680.13 962.346 679.85C966.132 679.67 971.859 678.457 975.129 677.306C978.498 676.065 982.908 674.784 985.187 674.525C991.46 673.719 1000.44 669.937 1004.1 666.635C1011.93 659.584 1041.52 656.971 1058.92 661.747C1063.39 662.924 1072.16 666.874 1078.39 670.408C1089.58 676.844 1090.03 677.151 1119.33 707.47C1164.48 754.192 1182.49 774.39 1192.92 789.943C1197.83 797.185 1202.84 804.338 1204 805.626C1206.14 808.003 1206.72 807.844 1221.27 802.087C1224.84 800.668 1233.6 799.236 1240.79 798.855C1257.26 798.013 1259.28 797.457 1264.62 792.638C1267 790.496 1271.89 787.351 1275.66 785.565C1282.92 782.072 1287.73 776.847 1287.57 772.684C1287.32 768.423 1283.68 769.367 1266.29 778.752C1257.75 783.217 1248.47 787.454 1245.51 787.961C1237.11 789.789 1210.43 790.855 1209.18 789.468C1208.56 788.775 1205.47 784.555 1202.5 780.057C1199.42 775.649 1193.08 766.822 1188.32 760.343C1183.55 754.053 1179.36 747.603 1178.97 745.978C1178.5 744.066 1177.34 742.778 1175.68 742.125C1171.5 740.68 1154.32 724.397 1125.92 695.068C1111.31 680.052 1094.62 663.323 1088.77 657.826C1083.02 652.239 1077.91 646.97 1077.5 645.91C1076 642.055 1082.83 639.673 1099.61 638.186C1109.66 637.388 1113.42 635.978 1120.6 630.405C1123.35 628.282 1123.39 627.529 1121.64 624.983C1120.41 623.219 1119.04 622.299 1118.44 622.834C1117.85 623.37 1115.18 623.797 1112.45 623.749C1099.13 623.906 1081.21 627.127 1065.65 632.359C1051.52 637.193 1042.94 638.824 1041.42 637.14C1039.9 635.456 1042.47 633.323 1058.19 623.285C1079.57 609.765 1104.83 595.974 1108.91 595.714C1110.99 595.634 1116.83 597.543 1121.8 600.068C1127.88 603.027 1132.25 604.293 1135.01 603.776C1137.2 603.418 1142.13 603.108 1145.81 603.205C1151.09 603.292 1152.91 602.726 1154.45 600.445C1156.18 597.986 1157.23 597.758 1162.72 599.271C1169.98 601.348 1171.11 603.201 1167.65 607.93C1164.41 612.104 1163.45 625.177 1166.13 628.149C1168.54 630.823 1170.02 629.484 1173.88 620.622C1175.61 616.558 1179.43 610.242 1182.45 606.623L1187.9 599.921L1200.44 600.102C1207.42 600.276 1213.38 600.114 1213.87 599.668C1214.86 598.775 1213.72 595.317 1211.58 592.94C1210.77 592.048 1206.67 591.08 1202.52 591.052C1198.38 590.837 1192.1 589.849 1188.66 588.82C1180.39 586.219 1159.17 585.963 1148.65 588.437C1137.19 591.05 1128.8 590.708 1125.86 587.439C1118.36 579.119 1130.93 571.559 1152.86 571.002C1165.25 570.608 1177.12 567.45 1177.58 564.169C1178.15 560.423 1175.62 560.008 1162.14 561.572C1155.21 562.249 1147.91 562.719 1145.94 562.522C1142.37 562.148 1142.37 562.148 1144.61 559.054C1145.83 557.418 1152.14 550.477 1158.54 543.635L1170.05 531.112L1179.89 530.68C1185.38 530.399 1192.8 529.275 1196.72 528.252C1208.88 525.014 1212.82 518.233 1201.5 520.004C1196.45 520.78 1194.59 520.305 1192.45 517.928L1189.86 515.055L1198.62 508.242C1205.99 502.677 1208.09 500.427 1211.42 494.369C1213.62 490.235 1216.38 486.131 1217.47 485.149C1220.84 482.114 1228.57 478.74 1231.58 478.897C1235.45 479.004 1243.43 476.115 1246.5 473.349C1250.37 469.868 1247.07 467.808 1237.64 467.695L1229.24 467.729L1230.77 463.655C1233.07 457.638 1240.05 448.655 1247.77 441.693C1257.28 433.125 1269.83 427.925 1315.61 413.598C1328.37 409.636 1339.33 405.864 1340.02 405.239C1343.29 402.294 1363.39 398.903 1365.26 400.983C1367.4 403.36 1373.21 402.435 1381.63 398.436C1386.56 396.144 1393.12 393.464 1396.29 392.59C1402.89 390.763 1432.28 388.516 1447.28 388.637C1452.76 388.544 1459.21 387.936 1461.62 387.023C1468.36 384.541 1483.09 386.347 1486.39 390.012C1488.89 392.785 1488.77 393.251 1485.6 396.107C1482.23 399.142 1482.22 399.33 1485.7 403.193C1487.76 405.471 1489.83 409.167 1490.38 411.367C1491.5 415.201 1492.22 415.806 1502.26 420.765C1508.14 423.715 1518.81 429.179 1525.98 432.951C1532.96 436.713 1539.24 439.306 1539.74 438.86C1541.22 437.521 1536.48 434.253 1522.79 427.027C1516.08 423.562 1507.75 418.502 1504.03 415.759C1497.84 411.283 1497.31 410.5 1497.29 407.289C1497.31 405.119 1498.9 401.709 1501.32 398.814C1503.53 396.285 1507.48 391.109 1510.03 387.56C1515.22 380.184 1519.99 377.505 1522.49 380.279C1525.44 383.359 1536 387.307 1536.1 385.424C1536.23 382.976 1526.25 376.887 1519.73 375.226C1512.74 373.446 1511.01 370.523 1512.25 362.941C1513.79 353.297 1512.24 352.366 1505.48 358.812C1498.43 365.526 1494.7 366.37 1486.84 363.223C1481.48 361.056 1480.06 361.076 1476.93 363.179C1474.96 364.776 1472.24 366.145 1470.82 366.354C1468.62 366.9 1468.63 366.712 1470.32 365.006C1471.51 363.935 1472.16 362.27 1471.75 361.21C1470.5 358.029 1507.4 325.492 1519.64 318.953C1524.78 316.294 1530.45 312.624 1532.43 310.839C1535.6 307.983 1535.74 307.141 1533.87 301.285C1531.18 293.12 1530.81 292.912 1526.67 294.49ZM1459.69 367.946C1455.55 369.524 1439.06 372.537 1433.19 372.798L1427.14 373.049L1430.74 370.876C1432.79 369.567 1437.69 368.028 1441.88 367.302C1445.88 366.567 1450.1 365.276 1451.09 364.383C1452.08 363.491 1453.32 363.272 1453.77 363.767C1454.31 364.362 1456.3 364.182 1458.13 363.428C1460.92 362.346 1461.67 362.573 1461.75 364.655C1461.78 365.884 1460.85 367.44 1459.69 367.946ZM1186.77 523.58C1186.28 524.026 1185.42 524.076 1184.89 523.482C1184.44 522.987 1184.49 522.045 1184.99 521.599C1185.58 521.063 1186.42 521.202 1186.87 521.697C1187.4 522.291 1187.37 523.044 1186.77 523.58Z" fill="black"/>
</g>
</g>
<defs>
<clipPath id="clip0_9_2">
<rect width="1920" height="931" fill="white"/>
</clipPath>
<clipPath id="clip1_9_2">
<rect width="1200" height="1386.67" fill="white" transform="translate(1073.17 -214) rotate(47.9799)"/>
</clipPath>
</defs>
</svg>
