<svg width="428" height="926" viewBox="0 0 428 926" fill="none" xmlns="http://www.w3.org/2000/svg">
<path d="M234.567 316.804C225.414 320.265 216.261 326.265 212.338 331.495C210.492 333.956 207.646 336.418 205.185 337.802C201.339 340.033 194.57 346.417 194.57 347.879C194.57 348.263 198.493 352.34 203.262 356.955C214.415 367.801 216.492 371.493 218.722 384.723C219.03 386.646 218.722 387.569 217.492 388.723L215.876 390.261L218.645 397.414C220.107 401.337 221.953 406.798 222.645 409.491C224.491 416.798 229.26 427.259 235.26 437.181L240.567 446.104L242.029 457.795C242.875 464.41 243.182 469.564 242.798 469.564C242.413 469.564 238.029 467.026 233.106 463.872C228.106 460.718 222.184 457.565 219.876 456.796C217.568 456.103 215.03 454.873 214.184 454.18C213.338 453.411 211.415 452.642 209.954 452.334C204.492 451.334 199.339 447.95 187.339 437.72C173.033 425.413 172.186 424.72 169.648 425.105C168.341 425.259 166.187 424.105 162.341 421.182L156.88 417.106L159.264 414.413C160.495 412.952 161.495 411.414 161.341 410.952C161.187 410.491 159.803 409.721 158.264 409.183C153.88 407.721 147.111 400.722 145.265 395.799C144.419 393.491 142.496 390.184 140.958 388.569C138.265 385.569 138.265 385.415 138.727 380.415C139.035 377.646 139.419 373.954 139.65 372.262C139.958 369.877 139.727 368.647 138.265 366.57C137.265 365.109 135.727 363.647 134.727 363.339C132.496 362.493 130.266 364.724 126.112 371.877C121.343 380.261 119.805 385.184 119.343 394.184C119.036 401.337 118.728 402.491 116.882 405.106C115.19 407.414 114.651 409.26 114.19 413.875C113.882 417.106 113.959 420.028 114.344 420.413C114.805 420.875 136.342 424.182 139.342 424.182C139.573 424.182 140.804 425.028 142.034 426.028C143.265 427.105 145.188 428.182 146.265 428.413C147.342 428.72 150.342 431.105 153.034 433.797C157.649 438.489 157.88 438.873 157.034 440.72C156.495 441.873 156.341 443.181 156.649 443.719C157.034 444.335 159.88 446.796 163.033 449.334C166.187 451.873 171.725 456.411 175.34 459.488C178.955 462.487 185.186 466.949 189.186 469.333C208.492 480.64 209.415 481.333 219.491 491.332C224.876 496.716 231.106 502.485 233.337 504.1C239.567 508.793 240.029 509.639 243.798 522.484C245.644 528.945 248.797 532.945 255.182 537.022C257.874 538.791 259.72 540.637 260.412 542.329C261.643 545.329 261.874 551.867 260.72 551.867C257.335 551.867 246.336 543.944 233.26 531.945C223.03 522.638 219.799 518.638 218.415 513.408C217.338 509.254 213.646 501.87 212.723 501.87C212.338 501.87 212.338 503.716 212.569 505.87L213.107 509.946L209.8 506.87C203.646 501.101 202.416 500.178 201.492 500.716C200.954 501.024 201.646 502.485 203.569 504.793L206.492 508.408L202.031 504.716C199.493 502.716 197.185 501.101 196.877 501.101C194.724 501.101 195.724 503.254 199.339 506.639C203.108 510.254 202.646 510.254 197.185 506.793C195.877 505.87 195.031 505.716 194.493 506.254C193.954 506.793 194.801 508.023 197.185 510.023C201.108 513.254 201.262 514.177 197.647 512.254C193.339 510.023 193.416 511.485 197.8 514.792C200.185 516.561 202.8 518.946 203.646 520.1C204.492 521.33 207.492 523.484 210.261 524.868C214.799 527.099 216.261 528.484 223.645 537.483C237.567 554.559 239.952 557.79 239.952 559.482C239.952 560.482 240.875 561.636 242.49 562.559C246.028 564.635 252.259 569.712 252.259 570.481C252.259 571.789 248.721 570.943 241.798 567.943C234.337 564.635 222.799 556.097 215.415 548.483L211.953 545.021L211.876 538.252C211.723 531.022 210.107 525.715 208.107 525.715C207.184 525.715 207.108 526.561 207.415 529.945C208.031 535.945 206.492 535.56 201.031 528.176C196.493 522.176 194.801 520.33 193.647 520.33C192.493 520.33 193.031 522.407 195.031 526.022C196.185 528.022 196.877 529.791 196.724 529.945C196.57 530.176 194.57 528.407 192.262 526.022C187.263 520.869 185.416 519.715 184.493 521.176C184.032 521.946 185.493 523.945 189.416 527.945L194.954 533.637L189.647 530.022C186.801 528.099 183.878 526.484 183.34 526.484C181.109 526.484 182.417 528.638 187.339 532.945C190.109 535.406 192.185 537.56 192.031 537.791C191.801 537.945 190.262 537.406 188.493 536.56C184.801 534.637 184.57 534.637 184.57 536.022C184.57 536.637 185.724 537.945 187.109 538.945C191.493 542.021 216.261 563.559 224.107 571.097C228.26 575.096 232.875 579.942 234.26 581.865C235.644 583.788 238.644 586.557 240.952 588.019C247.413 592.172 273.181 609.325 274.95 610.633C276.411 611.71 276.411 611.787 274.027 612.325C272.642 612.556 271.104 613.325 270.642 613.863C270.181 614.479 269.104 614.94 268.335 614.94C267.335 614.94 266.873 615.479 266.873 616.556C266.873 617.402 265.873 619.017 264.643 620.171C263.412 621.324 262.181 623.478 261.874 624.94C261.566 626.401 260.797 628.016 260.181 628.478C259.258 629.093 259.105 630.247 259.489 633.478C259.72 635.785 260.028 638.708 260.181 639.939C260.412 643.4 269.258 654.246 271.181 653.63C271.719 653.476 273.104 654.246 274.411 655.322C275.642 656.399 277.18 657.245 277.719 657.245C278.257 657.245 279.334 657.861 280.18 658.63C281.565 659.861 281.719 659.861 283.872 657.245C285.103 655.784 286.564 654.553 287.103 654.553C288.257 654.553 294.333 649.631 298.564 645.323C307.486 636.093 308.256 635.093 310.255 629.016C311.332 625.709 312.255 622.786 312.255 622.478C312.255 622.171 310.486 621.017 308.409 619.94C303.871 617.632 303.333 616.556 302.64 608.325L302.102 602.249L305.333 597.249C313.64 584.096 315.024 578.942 313.409 567.251C312.794 562.789 311.948 556.328 311.563 552.867C310.179 541.56 308.256 537.175 290.257 503.408C288.334 499.793 285.641 495.639 284.257 494.178C282.719 492.563 281.488 490.332 281.18 488.563C280.411 484.409 276.104 471.41 272.104 461.103C270.181 456.257 268.027 450.181 267.258 447.642C266.566 445.104 265.181 441.643 264.258 439.95C263.335 438.258 261.874 435.181 261.104 433.105C260.258 430.72 258.335 427.951 256.028 425.643C253.951 423.721 252.259 421.567 252.259 420.951C252.259 420.259 251.182 418.49 249.951 416.875C248.644 415.259 247.028 412.029 246.413 409.644C244.105 401.876 236.952 384.954 234.644 382.031C232.952 379.877 229.183 370.954 229.183 369.108C229.183 369.031 230.414 368.262 231.875 367.339C234.414 365.878 234.567 365.57 234.567 361.647C234.567 358.878 234.183 357.109 233.414 356.494C231.26 354.725 230.798 350.802 231.952 343.264C233.568 332.495 233.721 332.034 237.337 327.957C241.106 323.726 242.029 321.111 241.029 318.111C240.183 315.804 238.337 315.419 234.567 316.804Z" fill="black" fill-opacity="0.9"/>
</svg>
