<svg width="428" height="926" viewBox="0 0 428 926" fill="none" xmlns="http://www.w3.org/2000/svg">
<path d="M254.567 296.804C245.414 300.265 236.261 306.265 232.338 311.495C230.492 313.956 227.646 316.418 225.185 317.802C221.339 320.033 214.57 326.417 214.57 327.879C214.57 328.263 218.493 332.34 223.262 336.955C234.415 347.801 236.492 351.493 238.722 364.723C239.03 366.646 238.722 367.569 237.492 368.723L235.876 370.261L238.645 377.414C240.107 381.337 241.953 386.798 242.645 389.491C244.491 396.798 249.26 407.259 255.26 417.181L260.567 426.104L262.029 437.795C262.875 444.41 263.182 449.564 262.798 449.564C262.413 449.564 258.029 447.026 253.106 443.872C248.106 440.718 242.184 437.565 239.876 436.796C237.568 436.103 235.03 434.873 234.184 434.18C233.338 433.411 231.415 432.642 229.954 432.334C224.492 431.334 219.339 427.95 207.339 417.72C193.033 405.413 192.186 404.72 189.648 405.105C188.341 405.259 186.187 404.105 182.341 401.182L176.88 397.106L179.264 394.413C180.495 392.952 181.495 391.414 181.341 390.952C181.187 390.491 179.803 389.721 178.264 389.183C173.88 387.721 167.111 380.722 165.265 375.799C164.419 373.491 162.496 370.184 160.958 368.569C158.265 365.569 158.265 365.415 158.727 360.415C159.035 357.646 159.419 353.954 159.65 352.262C159.958 349.877 159.727 348.647 158.265 346.57C157.265 345.109 155.727 343.647 154.727 343.339C152.496 342.493 150.266 344.724 146.112 351.877C141.343 360.261 139.805 365.184 139.343 374.184C139.036 381.337 138.728 382.491 136.882 385.106C135.19 387.414 134.651 389.26 134.19 393.875C133.882 397.106 133.959 400.028 134.344 400.413C134.805 400.875 156.342 404.182 159.342 404.182C159.573 404.182 160.804 405.028 162.034 406.028C163.265 407.105 165.188 408.182 166.265 408.413C167.342 408.72 170.342 411.105 173.034 413.797C177.649 418.489 177.88 418.873 177.034 420.72C176.495 421.873 176.341 423.181 176.649 423.719C177.034 424.335 179.88 426.796 183.033 429.334C186.187 431.873 191.725 436.411 195.34 439.488C198.955 442.487 205.186 446.949 209.186 449.333C228.492 460.64 229.415 461.333 239.491 471.332C244.876 476.716 251.106 482.485 253.337 484.1C259.567 488.793 260.029 489.639 263.798 502.484C265.644 508.945 268.797 512.945 275.182 517.022C277.874 518.791 279.72 520.637 280.412 522.329C281.643 525.329 281.874 531.867 280.72 531.867C277.335 531.867 266.336 523.944 253.26 511.945C243.03 502.638 239.799 498.638 238.415 493.408C237.338 489.254 233.646 481.87 232.723 481.87C232.338 481.87 232.338 483.716 232.569 485.87L233.107 489.946L229.8 486.87C223.646 481.101 222.416 480.178 221.492 480.716C220.954 481.024 221.646 482.485 223.569 484.793L226.492 488.408L222.031 484.716C219.493 482.716 217.185 481.101 216.877 481.101C214.724 481.101 215.724 483.254 219.339 486.639C223.108 490.254 222.646 490.254 217.185 486.793C215.877 485.87 215.031 485.716 214.493 486.254C213.954 486.793 214.801 488.023 217.185 490.023C221.108 493.254 221.262 494.177 217.647 492.254C213.339 490.023 213.416 491.485 217.8 494.792C220.185 496.561 222.8 498.946 223.646 500.1C224.492 501.33 227.492 503.484 230.261 504.868C234.799 507.099 236.261 508.484 243.645 517.483C257.567 534.559 259.952 537.79 259.952 539.482C259.952 540.482 260.875 541.636 262.49 542.559C266.028 544.635 272.259 549.712 272.259 550.481C272.259 551.789 268.721 550.943 261.798 547.943C254.337 544.635 242.799 536.097 235.415 528.483L231.953 525.021L231.876 518.252C231.723 511.022 230.107 505.715 228.107 505.715C227.184 505.715 227.108 506.561 227.415 509.945C228.031 515.945 226.492 515.56 221.031 508.176C216.493 502.176 214.801 500.33 213.647 500.33C212.493 500.33 213.031 502.407 215.031 506.022C216.185 508.022 216.877 509.791 216.724 509.945C216.57 510.176 214.57 508.407 212.262 506.022C207.263 500.869 205.416 499.715 204.493 501.176C204.032 501.946 205.493 503.945 209.416 507.945L214.954 513.637L209.647 510.022C206.801 508.099 203.878 506.484 203.34 506.484C201.109 506.484 202.417 508.638 207.339 512.945C210.109 515.406 212.185 517.56 212.031 517.791C211.801 517.945 210.262 517.406 208.493 516.56C204.801 514.637 204.57 514.637 204.57 516.022C204.57 516.637 205.724 517.945 207.109 518.945C211.493 522.021 236.261 543.559 244.107 551.097C248.26 555.096 252.875 559.942 254.26 561.865C255.644 563.788 258.644 566.557 260.952 568.019C267.413 572.172 293.181 589.325 294.95 590.633C296.411 591.71 296.411 591.787 294.027 592.325C292.642 592.556 291.104 593.325 290.642 593.863C290.181 594.479 289.104 594.94 288.335 594.94C287.335 594.94 286.873 595.479 286.873 596.556C286.873 597.402 285.873 599.017 284.643 600.171C283.412 601.324 282.181 603.478 281.874 604.94C281.566 606.401 280.797 608.016 280.181 608.478C279.258 609.093 279.105 610.247 279.489 613.478C279.72 615.785 280.028 618.708 280.181 619.939C280.412 623.4 289.258 634.246 291.181 633.63C291.719 633.476 293.104 634.246 294.411 635.322C295.642 636.399 297.18 637.245 297.719 637.245C298.257 637.245 299.334 637.861 300.18 638.63C301.565 639.861 301.719 639.861 303.872 637.245C305.103 635.784 306.564 634.553 307.103 634.553C308.257 634.553 314.333 629.631 318.564 625.323C327.486 616.093 328.256 615.093 330.255 609.016C331.332 605.709 332.255 602.786 332.255 602.478C332.255 602.171 330.486 601.017 328.409 599.94C323.871 597.632 323.333 596.556 322.64 588.325L322.102 582.249L325.333 577.249C333.64 564.096 335.024 558.942 333.409 547.251C332.794 542.789 331.948 536.328 331.563 532.867C330.179 521.56 328.256 517.175 310.257 483.408C308.334 479.793 305.641 475.639 304.257 474.178C302.719 472.563 301.488 470.332 301.18 468.563C300.411 464.409 296.104 451.41 292.104 441.103C290.181 436.257 288.027 430.181 287.258 427.642C286.566 425.104 285.181 421.643 284.258 419.95C283.335 418.258 281.874 415.181 281.104 413.105C280.258 410.72 278.335 407.951 276.028 405.643C273.951 403.721 272.259 401.567 272.259 400.951C272.259 400.259 271.182 398.49 269.951 396.875C268.644 395.259 267.028 392.029 266.413 389.644C264.105 381.876 256.952 364.954 254.644 362.031C252.952 359.877 249.183 350.954 249.183 349.108C249.183 349.031 250.414 348.262 251.875 347.339C254.414 345.878 254.567 345.57 254.567 341.647C254.567 338.878 254.183 337.109 253.414 336.494C251.26 334.725 250.798 330.802 251.952 323.264C253.568 312.495 253.721 312.034 257.337 307.957C261.106 303.726 262.029 301.111 261.029 298.111C260.183 295.804 258.337 295.419 254.567 296.804Z" fill="black" fill-opacity="0.9"/>
</svg>
