<svg width="428" height="926" viewBox="0 0 428 926" fill="none" xmlns="http://www.w3.org/2000/svg">
<g clip-path="url(#clip0_30_165)">
<path d="M429.462 783.285C428.485 783.665 428.593 785.294 429.842 789.692C430.439 791.755 430.928 793.655 430.928 793.872C430.928 794.578 428.539 794.36 423.761 793.22C415.238 791.266 411.329 791.157 410.623 792.949C410.406 793.546 411.275 794.252 413.718 795.446C418.441 797.835 420.178 799.572 419.798 801.472C419.418 803.047 420.178 803.59 420.993 802.341C421.264 801.852 421.481 802.178 421.753 803.264C421.97 804.187 422.296 805.273 422.458 805.761C423.436 808.041 404.923 823.514 395.151 828.726C387.822 832.634 386.953 833.449 386.628 837.249C386.41 839.583 386.845 841.918 388.799 849.138C391.242 857.879 391.242 858.042 390.265 859.182C389.668 859.779 389.125 860.756 389.016 861.353C388.853 862.005 388.473 862.331 387.985 862.222C387.55 862.059 385.542 861.896 383.533 861.842C381.524 861.788 379.787 861.679 379.733 861.57C379.624 861.462 377.941 859.616 375.987 857.553L372.349 853.753L373.978 847.781C376.367 839.258 376.367 834.317 374.032 824.437C373.055 820.256 371.915 815.805 371.427 814.556C370.667 812.547 370.395 812.276 368.604 812.113C366.921 811.95 366.595 811.733 366.215 810.267C365.943 809.29 364.749 807.716 363.175 806.413C361.763 805.218 360.134 803.318 359.537 802.232C358.343 800.061 357.366 799.626 357.8 801.472C358.126 802.667 358.126 802.667 357.366 801.689C356.931 801.092 356.551 800.278 356.551 799.898C356.551 799.518 356.226 799.192 355.791 799.192C355.14 799.192 355.085 799.572 355.52 800.929C356.117 803.155 355.737 803.535 355.031 801.418C354.434 799.681 354 799.464 352.588 800.061C351.828 800.332 351.828 800.604 352.534 802.558C353.511 805.327 355.466 807.661 358.994 810.159L361.817 812.167L363.337 820.202C364.206 824.6 364.912 829.214 364.966 830.408C365.075 831.603 365.292 833.557 365.509 834.752C365.835 836.543 365.563 837.683 363.935 841.483C361.709 846.804 360.949 847.727 357.474 849.518C353.891 851.31 353.185 851.038 352.534 847.781L351.937 845.067L349.222 844.904C347.702 844.795 346.291 844.524 346.019 844.198C345.693 843.926 344.336 843.709 342.925 843.709C341.35 843.709 340.156 843.384 339.722 842.895C338.039 840.886 334.781 842.244 330.438 846.75C326.258 851.201 325.932 851.853 326.366 856.142C326.692 858.965 327.072 860.05 328.212 861.299C329.895 863.091 334.564 865.316 337.822 865.914C339.287 866.185 339.939 866.565 339.83 867.108C339.722 867.542 340.21 868.9 340.862 870.148L342.11 872.483L339.233 875.414L336.301 878.346L336.681 881.115L337.061 883.829L334.401 885.186C332.935 885.946 330.275 887.412 328.538 888.444C326.801 889.529 324.792 890.398 324.141 890.398C322.892 890.398 319.363 886.978 317.029 883.503C316.269 882.363 315.129 880.843 314.423 880.083C313.717 879.323 312.523 877.477 311.817 876.011L310.514 873.297L312.088 871.505C313.88 869.497 313.989 868.411 312.903 865.696C311.871 863.253 311.057 863.308 310.84 865.805C310.731 867.434 310.405 867.922 309.537 868.031C308.614 868.139 308.342 867.705 307.637 864.828C306.605 860.268 305.519 859.942 305.465 864.176C305.411 867.868 304.542 866.674 304.488 862.819C304.434 861.353 304.162 860.539 303.728 860.539C302.968 860.539 301.285 863.091 300.633 865.316C300.199 866.782 300.199 866.782 300.145 864.991C300.091 862.982 299.33 862.711 298.408 864.394C297.43 866.294 298.19 868.9 300.905 872.591C302.425 874.708 303.294 876.391 303.131 876.989C303.022 877.532 303.348 879.106 303.945 880.463C305.194 883.449 305.248 884.318 304.108 885.566C303.239 886.489 303.456 886.869 306.877 891.05C308.885 893.547 311.274 896.858 312.143 898.433C313.826 901.364 317.735 905.056 319.2 905.056C320.72 905.056 334.51 900.116 337.007 898.704C338.364 897.89 341.242 896.098 343.468 894.633C347.485 891.972 347.539 891.972 351.34 892.19C360.189 892.678 375.77 894.795 377.941 895.773C379.19 896.316 381.796 897.944 383.75 899.356C385.65 900.767 388.256 902.396 389.505 902.939C391.568 903.916 392.002 903.916 395.205 903.156C397.051 902.722 399.983 902.342 401.666 902.342H404.706L406.009 899.519C407.095 897.239 407.8 896.478 410.026 895.338C411.546 894.524 414.261 892.841 416.161 891.538C418.93 889.584 419.853 888.498 421.264 885.621C422.838 882.418 423.001 881.657 422.947 877.423C422.947 874.871 422.513 870.04 422.024 866.728C421.536 863.471 420.884 857.607 420.613 853.699C420.341 849.844 419.961 845.935 419.798 845.067C419.527 843.764 419.744 843.112 420.83 841.918C422.621 839.963 423.436 838.389 424.956 833.666C429.082 821.179 432.122 817.433 438.962 816.348C441.677 815.913 444.554 814.556 447.106 812.384C448.789 810.919 448.843 810.756 448.246 808.964C447.866 807.933 446.617 805.707 445.477 804.024C444.337 802.341 443.251 800.007 443.034 798.866C442.545 795.392 439.614 790.452 435.759 786.543C432.393 783.177 431.199 782.525 429.462 783.285Z" fill="black" fill-opacity="0.9"/>
<path d="M78.7292 23.6513C78.7834 24.0314 79.1092 25.7686 79.4892 27.4516C80.4121 31.2518 79.6521 31.6319 78.1863 28.1573C77.2091 25.8772 76.3947 25.1714 75.7975 26.1486C75.689 26.3658 76.2861 28.2116 77.2091 30.2746C78.0777 32.2833 78.9463 34.8349 79.1092 35.9207C79.4349 37.658 79.3263 37.8208 78.4034 37.3865C76.5033 36.6265 74.9289 36.4636 74.9289 37.0065C74.9289 37.8208 78.6749 40.6439 80.955 41.6211C82.0408 42.0554 83.0723 42.7069 83.2894 42.9783C84.1581 44.3898 85.2439 53.1847 85.2439 59.0479C85.2439 65.3998 85.1896 65.5626 83.398 68.82C81.4436 72.2945 80.1407 73.706 75.7432 76.9634L73.0288 79.0264L72.7031 76.3662C72.4859 74.9547 72.5945 72.8917 72.8659 71.8059C73.7345 68.82 72.4316 66.8656 68.197 64.8026C63.691 62.5767 59.185 62.0881 56.4706 63.6082C51.3131 66.4313 50.3359 75.1175 54.4076 82.1751C55.7105 84.401 55.8191 88.0927 54.6247 89.9385C54.1361 90.6442 52.8332 91.6215 51.7474 92.1101C50.3359 92.7615 48.9787 94.1188 47.4586 96.4532C43.1154 102.914 42.4097 105.411 43.3869 110.297C43.7126 111.98 44.2012 117.572 44.4184 122.729C44.9613 133.098 45.3413 134.293 48.6529 135.704C51.0959 136.736 63.5282 136.844 65.1026 135.867C66.4598 134.999 68.9571 135.976 70.4772 138.093C71.1287 138.907 72.3773 139.776 73.2459 139.993C74.1689 140.156 75.8518 140.807 76.9919 141.35C85.081 145.259 97.2961 143.196 104.245 136.682C108.643 132.61 110 129.135 111.574 118.277C112.986 108.288 114.397 100.633 114.831 100.199C114.994 100.036 118.577 100.253 122.812 100.633C133.724 101.611 157.72 100.688 158.751 99.2762C159.403 98.4076 159.674 98.4619 162.715 100.145C165.538 101.665 166.135 101.828 166.895 101.231C167.981 100.362 171.021 90.97 171.021 88.527C171.021 87.5498 171.292 86.464 171.564 86.1925C172.595 85.161 174.93 71.8059 174.658 68.4942C174.332 64.6397 174.061 64.2597 171.889 64.2597C169.446 64.2597 168.578 65.1283 167.492 68.6028C165.755 74.1403 160.543 77.9406 150.282 81.3065C145.885 82.7723 144.093 83.098 142.085 82.8809C140.673 82.718 139.425 82.3923 139.316 82.2294C139.153 82.0123 141.976 80.8179 145.559 79.4607C149.142 78.1577 152.291 76.8005 152.617 76.4205C152.943 76.0404 153.105 74.6832 152.997 73.3803L152.834 71.0458L156.091 69.8515C157.883 69.1457 160.217 68.1685 161.249 67.6256C163.095 66.7027 163.149 66.5941 163.095 63.7168C163.04 60.8395 161.792 57.365 160.489 56.5506C160.163 56.3335 159.892 54.8134 159.837 53.1847C159.674 47.7015 155.657 41.8382 150.119 38.9609L147.079 37.3865L145.722 38.9609C144.636 40.1553 144.419 40.861 144.691 41.9468C144.908 42.7069 145.179 45.8014 145.342 48.8415C145.613 54.7048 144.745 58.2879 143.116 58.2879C142.628 58.2879 141.922 58.9936 141.487 59.8623C140.619 61.5452 137.633 64.2597 136.71 64.2597C136.384 64.2597 133.507 65.5083 130.358 67.0284C123.301 70.4487 121.509 71.1001 115.592 72.4031C112.986 72.946 109.348 74.1946 107.502 75.1175C104.299 76.7462 104.082 76.9634 102.236 80.9808C101.151 83.2609 99.2505 86.3554 98.0018 87.8755C96.7532 89.3413 93.713 93.4673 91.27 96.9418C88.8269 100.471 86.6011 103.457 86.3296 103.619C85.841 103.945 84.701 102.208 81.7694 96.6703C79.3806 92.1101 79.4892 91.6757 85.1353 85.7039C89.4241 81.1436 93.8758 73.9232 95.8303 68.2771C96.8075 65.5083 96.8075 65.3998 95.5588 60.6766C94.7988 57.6907 94.2016 53.5104 94.0387 49.7102L93.7673 43.5755L91.8129 42.6526C89.9127 41.7839 89.8584 41.5668 89.4784 38.2009C89.3156 36.2464 88.7727 33.4777 88.2841 32.0119C87.7955 30.5461 87.4154 28.646 87.4154 27.7773C87.4154 25.4429 86.1125 26.1486 85.8953 28.5917C85.6239 31.5776 84.8095 31.0347 84.4295 27.6145C83.9409 23.9771 82.9094 23.8685 82.5294 27.3973C82.2037 30.166 81.8779 29.8403 80.8464 25.8229C80.4664 24.2485 79.8692 22.9999 79.4349 22.9999C79.0549 22.9999 78.7292 23.3256 78.7292 23.6513Z" fill="black" fill-opacity="0.9"/>
<path d="M137.708 724.287C143.283 727.075 148.07 730.757 149.279 733.071C149.753 734.018 150.857 735.912 151.751 737.279C153.224 739.488 153.645 739.804 155.223 739.804C156.748 739.804 157.485 740.277 159.536 742.486C160.904 743.959 162.376 745.905 162.902 746.799L163.797 748.483L160.272 752.164C158.326 754.216 155.749 756.32 154.592 756.898C153.382 757.477 151.541 759.107 150.437 760.58C149.385 762 148.07 763.315 147.491 763.526C146.965 763.736 145.44 765.524 144.072 767.576C142.705 769.627 140.338 772.573 138.812 774.098C134.815 778.253 130.397 783.461 130.923 783.461C131.133 783.461 132.132 782.987 133.079 782.409C134.026 781.83 135.183 781.357 135.656 781.357C136.13 781.357 137.971 780.41 139.706 779.305C143.336 776.938 147.859 775.045 149.753 775.045C151.541 775.045 157.59 769.469 160.588 765.051C163.008 761.527 163.06 761.369 163.428 756.057C163.797 751.218 163.954 750.534 165.164 749.429C165.9 748.798 166.9 748.22 167.373 748.22C169.425 748.22 174.579 763.789 174.053 768.365C173.895 769.575 173.527 771.521 173.264 772.678C172.738 774.519 172.843 775.045 173.843 776.623C174.737 778.148 174.947 779.305 175 783.092C175 786.616 174.842 787.826 174.211 788.194C173.106 788.878 165.9 788.826 162.587 788.142C160.115 787.616 159.536 787.668 156.117 788.983C154.066 789.772 152.014 790.614 151.594 790.877C150.857 791.35 147.175 793.139 141.863 795.611C136.919 797.925 126.241 801.817 122.665 802.606C120.561 803.08 118.351 803.816 117.72 804.237C117.142 804.658 116.248 805.026 115.722 805.026C114.196 805.026 114.564 806.919 117.457 813.442C120.876 821.226 123.138 827.117 125.452 833.955C126.452 837.006 127.872 840.898 128.608 842.634C129.345 844.37 130.186 847.315 130.502 849.156C131.028 852.417 130.975 852.627 129.345 855.731C128.345 857.624 126.241 860.202 124.243 862.095C122.349 863.884 119.456 866.619 117.72 868.249L114.617 871.142L118.351 873.825C122.77 877.033 123.611 878.19 124.558 882.24C124.979 884.081 125.663 885.554 126.346 886.027C132.237 890.288 134.71 893.023 134.078 894.654C133.552 895.916 125.189 901.281 123.664 901.281C122.875 901.281 120.771 900.597 118.93 899.703L115.564 898.178L109.883 898.914C102.835 899.861 98.9953 900.86 93.4198 903.175C91.0003 904.174 88.6334 904.963 88.1074 904.963C87.5814 904.963 85.8457 904.121 84.2677 903.069L81.3748 901.228L72.1701 901.597C61.8082 901.965 57.3899 901.491 52.3405 899.44C50.4995 898.704 48.606 898.125 48.0274 898.125C46.9228 898.125 42.2942 895.443 39.1908 892.97C37.9811 892.024 36.7713 891.287 36.4557 891.287C35.7194 891.287 34.1414 888.815 34.457 888.237C35.3512 886.816 30.4595 884.975 25.7257 884.975C24.2529 884.975 22.3594 884.555 21.1496 883.924C19.9924 883.345 18.7301 882.872 18.3093 882.872C17.2573 882.872 8.73636 876.349 8.31557 875.192C8.15777 874.771 7.99998 873.141 7.99998 871.615C7.99998 869.301 8.26297 868.46 9.57793 866.829C11.0507 864.988 13.2598 859.939 13.2598 858.466C13.2598 858.045 14.1014 856.993 15.206 856.046C16.8365 854.574 17.4151 854.416 19.2034 854.626C20.571 854.837 21.8334 855.468 22.9379 856.52C24.7263 858.255 25.7782 858.413 30.3543 857.835L32.8264 857.467L32.4583 855.573C32.2479 854.521 32.1427 852.101 32.1427 850.155C32.1953 847.525 32.0375 846.473 31.4063 845.947C28.566 843.633 28.4082 843.318 28.6712 841.214C29.0394 838.426 28.04 835.323 25.7257 831.904C23.6217 828.906 23.3587 827.275 24.3581 823.909C24.8315 822.383 24.8315 820.595 24.3581 816.545C23.8321 811.653 23.8847 810.917 24.8315 807.445C26.5146 801.712 26.9354 800.818 28.6712 799.976C30.4595 799.03 32.5108 799.293 36.1927 800.871C38.9805 802.133 38.7175 802.764 35.4038 803.027C33.3524 803.185 32.9842 803.395 32.5634 804.658C31.9323 806.709 32.8264 807.656 34.194 806.446C35.2986 805.447 36.4031 805.289 36.4031 806.078C36.4031 806.393 35.4564 807.971 34.2466 809.549C32.6686 811.706 32.2479 812.653 32.6686 813.073C32.9842 813.389 33.2472 814.125 33.2472 814.651C33.2472 815.809 39.7168 829.326 41.3474 831.535C41.926 832.377 43.0305 834.165 43.7669 835.533C46.8702 841.266 48.3956 843.844 51.4463 848.367C58.6523 859.202 60.1776 861.306 60.651 860.991C60.914 860.833 61.1244 859.939 61.1244 859.044C61.1244 858.098 61.6504 856.309 62.229 854.994C63.0705 853.206 63.3335 851.365 63.4387 847.368C63.5439 843.896 63.9647 840.582 64.7537 837.637C65.4375 835.165 66.016 832.219 66.1212 831.062C66.2264 829.905 66.542 828.011 66.9102 826.854C67.2258 825.697 67.857 822.594 68.2252 820.016C69.0142 814.599 69.8557 811.022 70.6447 809.392C71.1181 808.55 71.0655 807.182 70.6447 804.079C70.1187 800.397 70.1187 799.608 70.9603 797.347C72.0123 794.506 73.6954 793.296 75.5364 793.98C76.1675 794.191 77.5877 794.664 78.7449 795.032C80.3228 795.506 81.1118 796.137 81.743 797.452C83.0053 799.871 82.9527 800.292 81.3748 800.292C79.7968 800.292 79.2183 801.344 78.8501 805.026C78.6923 806.604 78.0611 808.971 77.4825 810.286C76.1149 813.284 76.1149 814.757 77.4299 816.44C78.2715 817.492 78.4819 818.596 78.4819 821.542C78.4819 825.224 80.2702 839.899 80.8488 840.793C81.0066 841.056 81.3748 843.528 81.6378 846.316C81.9008 849.156 82.2164 851.575 82.4268 851.733C82.5846 851.891 83.6891 851.102 84.9515 849.945C88.3704 846.736 88.949 846.368 91.5789 846.053C93.7354 845.842 93.9984 845.632 94.1562 844.317C94.2614 843.528 94.7874 842.634 95.366 842.371C97.2069 841.371 98.0485 838.847 97.6277 835.849C97.4173 834.376 97.3121 832.219 97.3647 831.062C97.4173 829.905 97.1017 826.013 96.6283 822.383C95.366 812.337 94.5244 801.66 94.577 795.926L94.6296 790.772L98.2589 787.09C100.258 785.038 103.045 782.514 104.518 781.462C113.723 774.729 126.452 763.684 127.609 761.422C128.819 759.002 131.08 756.635 134.867 753.637L137.918 751.323V744.958C137.918 737.279 137.287 735.649 132.606 730.599C129.397 727.18 128.766 725.339 130.028 722.92C130.87 721.394 132.606 721.71 137.708 724.287Z" fill="black" fill-opacity="0.9"/>
<path d="M388.537 97.3835C384.897 97.9582 384.258 98.2775 381.193 101.279C378.958 103.45 376.915 104.727 374.488 105.557C372.572 106.196 369.827 107.345 368.422 108.112C366.634 109.133 365.484 109.389 364.59 109.07C363.888 108.75 362.547 108.495 361.589 108.495C359.992 108.431 359.545 109.006 356.608 114.944C354.564 119.159 352.713 124.204 351.499 129.057C350.414 133.208 348.881 137.933 348.051 139.594C347.221 141.254 345.752 145.149 344.794 148.342C343.836 151.471 342.24 156.261 341.282 158.879C340.26 161.561 339.238 165.52 338.983 167.819C338.664 170.693 338.025 172.609 336.876 174.205C332.853 179.697 330.554 182.123 327.872 183.656C321.103 187.551 315.994 192.277 314.142 196.491C313.184 198.599 311.907 200.387 311.077 200.706C310.311 201.089 309.608 202.047 309.48 202.941C309.353 203.835 308.97 204.793 308.65 205.112C308.331 205.496 308.076 206.262 308.076 206.837C308.076 208.305 306.16 208.752 296.709 209.646C294.793 209.838 293.005 210.157 292.622 210.349C291.536 210.987 280.617 209.135 280.617 208.305C280.617 206.964 277.998 204.218 274.358 201.728C272.251 200.323 270.016 198.088 269.122 196.555C268.228 195.087 264.78 189.659 261.395 184.55C253.988 173.311 253.477 171.587 256.287 167.372C259.352 162.774 258.649 161.178 254.946 164.307C251.753 166.989 251.242 166.542 251.242 161.178C251.242 158.56 250.986 156.261 250.731 156.069C249.581 155.367 248.815 156.836 248.368 160.603C248.113 162.838 247.73 164.626 247.41 164.626C247.155 164.626 246.261 162.838 245.494 160.603C243.706 155.878 243.004 154.728 242.11 155.622C241.727 156.005 241.918 157.857 242.621 160.795C243.259 163.285 243.579 165.456 243.451 165.648C243.259 165.776 242.046 164.371 240.705 162.391C238.215 158.815 237.576 158.368 236.874 159.581C236.171 160.667 237.065 162.966 239.428 166.414C240.641 168.266 241.663 170.437 241.663 171.331C241.663 173.119 240.067 174.141 238.917 172.992C238.534 172.609 237.257 172.289 236.107 172.289C234.319 172.289 234 172.481 234 173.886C234 175.035 234.447 175.546 235.724 175.865C236.682 176.121 239.3 177.142 241.471 178.164C243.643 179.122 246.005 179.952 246.644 179.952C248.304 179.952 251.114 184.103 252.519 188.828C254.179 194.129 256.478 198.407 258.841 200.706C259.926 201.728 261.14 203.644 261.459 204.921C261.842 206.198 263.247 208.688 264.652 210.476C266.376 212.648 267.206 214.308 267.206 215.649C267.206 217.629 265.865 218.395 264.971 216.99C264.78 216.607 263.95 216.351 263.119 216.351C262.353 216.351 261.395 216.032 260.948 215.585C260.565 215.202 258.522 214.627 256.542 214.372C254.499 214.053 251.944 213.669 250.859 213.478C249.326 213.158 248.368 213.542 246.005 215.394C242.876 217.692 241.982 219.608 241.408 224.653C241.216 226.249 240.897 228.74 240.641 230.209C240.003 234.487 242.94 237.808 245.367 235.381C245.878 234.87 246.708 235.253 248.687 236.978C250.092 238.319 251.88 239.34 252.647 239.34C253.349 239.34 254.882 240.043 255.967 240.809C257.755 242.214 258.266 242.278 261.778 241.767C263.886 241.448 266.312 241.192 267.079 241.192C268.1 241.128 269.25 240.234 270.591 238.319C271.676 236.786 272.89 235.509 273.273 235.509C273.656 235.509 275.827 236.531 278.126 237.744C284.256 241.001 290.451 243.172 293.58 243.172C296.645 243.172 307.565 239.915 311.907 237.744C314.845 236.275 318.357 233.657 322.635 229.889C323.912 228.74 326.722 226.952 328.893 225.93C334.704 223.12 339.749 218.076 346.454 208.433C354.948 196.172 355.969 194.129 356.672 188.381C357.949 177.845 361.014 171.651 364.909 171.651C366.442 171.651 367.081 171.076 369.06 167.819C371.551 163.732 374.169 161.369 377.362 160.348C378.511 159.965 379.341 159.262 379.469 158.432C379.788 156.133 377.937 155.367 371.678 155.303C363.441 155.239 363.313 155.111 365.356 150.705C370.465 139.402 371.295 138.189 378.639 130.462C382.662 126.247 385.983 122.352 385.983 121.777C385.983 121.203 385.536 120.372 385.025 119.925C383.173 118.393 383.939 115.775 387.579 111.177C392.305 105.366 393.007 104.599 395.753 102.492C398.499 100.449 398.563 99.9378 396.839 98.2136C395.561 96.9365 392.879 96.681 388.537 97.3835Z" fill="black" fill-opacity="0.9"/>
<path d="M234.567 336.804C225.414 340.265 216.261 346.265 212.338 351.495C210.492 353.956 207.646 356.418 205.185 357.802C201.339 360.033 194.57 366.417 194.57 367.879C194.57 368.263 198.493 372.34 203.262 376.955C214.415 387.801 216.492 391.493 218.722 404.723C219.03 406.646 218.722 407.569 217.492 408.723L215.876 410.261L218.645 417.414C220.107 421.337 221.953 426.798 222.645 429.491C224.491 436.798 229.26 447.259 235.26 457.181L240.567 466.104L242.029 477.795C242.875 484.41 243.182 489.564 242.798 489.564C242.413 489.564 238.029 487.026 233.106 483.872C228.106 480.718 222.184 477.565 219.876 476.796C217.568 476.103 215.03 474.873 214.184 474.18C213.338 473.411 211.415 472.642 209.954 472.334C204.492 471.334 199.339 467.95 187.339 457.72C173.033 445.413 172.186 444.72 169.648 445.105C168.341 445.259 166.187 444.105 162.341 441.182L156.88 437.106L159.264 434.413C160.495 432.952 161.495 431.414 161.341 430.952C161.187 430.491 159.803 429.721 158.264 429.183C153.88 427.721 147.111 420.722 145.265 415.799C144.419 413.491 142.496 410.184 140.958 408.569C138.265 405.569 138.265 405.415 138.727 400.415C139.035 397.646 139.419 393.954 139.65 392.262C139.958 389.877 139.727 388.647 138.265 386.57C137.265 385.109 135.727 383.647 134.727 383.339C132.496 382.493 130.266 384.724 126.112 391.877C121.343 400.261 119.805 405.184 119.343 414.184C119.036 421.337 118.728 422.491 116.882 425.106C115.19 427.414 114.651 429.26 114.19 433.875C113.882 437.106 113.959 440.028 114.344 440.413C114.805 440.875 136.342 444.182 139.342 444.182C139.573 444.182 140.804 445.028 142.034 446.028C143.265 447.105 145.188 448.182 146.265 448.413C147.342 448.72 150.342 451.105 153.034 453.797C157.649 458.489 157.88 458.873 157.034 460.72C156.495 461.873 156.341 463.181 156.649 463.719C157.034 464.335 159.88 466.796 163.033 469.334C166.187 471.873 171.725 476.411 175.34 479.488C178.955 482.487 185.186 486.949 189.186 489.333C208.492 500.64 209.415 501.333 219.491 511.332C224.876 516.716 231.106 522.485 233.337 524.1C239.567 528.793 240.029 529.639 243.798 542.484C245.644 548.945 248.797 552.945 255.182 557.022C257.874 558.791 259.72 560.637 260.412 562.329C261.643 565.329 261.874 571.867 260.72 571.867C257.335 571.867 246.336 563.944 233.26 551.945C223.03 542.638 219.799 538.638 218.415 533.408C217.338 529.254 213.646 521.87 212.723 521.87C212.338 521.87 212.338 523.716 212.569 525.87L213.107 529.946L209.8 526.87C203.646 521.101 202.416 520.178 201.492 520.716C200.954 521.024 201.646 522.485 203.569 524.793L206.492 528.408L202.031 524.716C199.493 522.716 197.185 521.101 196.877 521.101C194.724 521.101 195.724 523.254 199.339 526.639C203.108 530.254 202.646 530.254 197.185 526.793C195.877 525.87 195.031 525.716 194.493 526.254C193.954 526.793 194.801 528.023 197.185 530.023C201.108 533.254 201.262 534.177 197.647 532.254C193.339 530.023 193.416 531.485 197.8 534.792C200.185 536.561 202.8 538.946 203.646 540.1C204.492 541.33 207.492 543.484 210.261 544.868C214.799 547.099 216.261 548.484 223.645 557.483C237.567 574.559 239.952 577.79 239.952 579.482C239.952 580.482 240.875 581.636 242.49 582.559C246.028 584.635 252.259 589.712 252.259 590.481C252.259 591.789 248.721 590.943 241.798 587.943C234.337 584.635 222.799 576.097 215.415 568.483L211.953 565.021L211.876 558.252C211.723 551.022 210.107 545.715 208.107 545.715C207.184 545.715 207.108 546.561 207.415 549.945C208.031 555.945 206.492 555.56 201.031 548.176C196.493 542.176 194.801 540.33 193.647 540.33C192.493 540.33 193.031 542.407 195.031 546.022C196.185 548.022 196.877 549.791 196.724 549.945C196.57 550.176 194.57 548.407 192.262 546.022C187.263 540.869 185.416 539.715 184.493 541.176C184.032 541.946 185.493 543.945 189.416 547.945L194.954 553.637L189.647 550.022C186.801 548.099 183.878 546.484 183.34 546.484C181.109 546.484 182.417 548.638 187.339 552.945C190.109 555.406 192.185 557.56 192.031 557.791C191.801 557.945 190.262 557.406 188.493 556.56C184.801 554.637 184.57 554.637 184.57 556.022C184.57 556.637 185.724 557.945 187.109 558.945C191.493 562.021 216.261 583.559 224.107 591.097C228.26 595.096 232.875 599.942 234.26 601.865C235.644 603.788 238.644 606.557 240.952 608.019C247.413 612.172 273.181 629.325 274.95 630.633C276.411 631.71 276.411 631.787 274.027 632.325C272.642 632.556 271.104 633.325 270.642 633.863C270.181 634.479 269.104 634.94 268.335 634.94C267.335 634.94 266.873 635.479 266.873 636.556C266.873 637.402 265.873 639.017 264.643 640.171C263.412 641.324 262.181 643.478 261.874 644.94C261.566 646.401 260.797 648.016 260.181 648.478C259.258 649.093 259.105 650.247 259.489 653.478C259.72 655.785 260.028 658.708 260.181 659.939C260.412 663.4 269.258 674.246 271.181 673.63C271.719 673.476 273.104 674.246 274.411 675.322C275.642 676.399 277.18 677.245 277.719 677.245C278.257 677.245 279.334 677.861 280.18 678.63C281.565 679.861 281.719 679.861 283.872 677.245C285.103 675.784 286.564 674.553 287.103 674.553C288.257 674.553 294.333 669.631 298.564 665.323C307.486 656.093 308.256 655.093 310.255 649.016C311.332 645.709 312.255 642.786 312.255 642.478C312.255 642.171 310.486 641.017 308.409 639.94C303.871 637.632 303.333 636.556 302.64 628.325L302.102 622.249L305.333 617.249C313.64 604.096 315.024 598.942 313.409 587.251C312.794 582.789 311.948 576.328 311.563 572.867C310.179 561.56 308.256 557.175 290.257 523.408C288.334 519.793 285.641 515.639 284.257 514.178C282.719 512.563 281.488 510.332 281.18 508.563C280.411 504.409 276.104 491.41 272.104 481.103C270.181 476.257 268.027 470.181 267.258 467.642C266.566 465.104 265.181 461.643 264.258 459.95C263.335 458.258 261.874 455.181 261.104 453.105C260.258 450.72 258.335 447.951 256.028 445.643C253.951 443.721 252.259 441.567 252.259 440.951C252.259 440.259 251.182 438.49 249.951 436.875C248.644 435.259 247.028 432.029 246.413 429.644C244.105 421.876 236.952 404.954 234.644 402.031C232.952 399.877 229.183 390.954 229.183 389.108C229.183 389.031 230.414 388.262 231.875 387.339C234.414 385.878 234.567 385.57 234.567 381.647C234.567 378.878 234.183 377.109 233.414 376.494C231.26 374.725 230.798 370.802 231.952 363.264C233.568 352.495 233.721 352.034 237.337 347.957C241.106 343.726 242.029 341.111 241.029 338.111C240.183 335.804 238.337 335.419 234.567 336.804Z" fill="black" fill-opacity="0.9"/>
</g>
<defs>
<clipPath id="clip0_30_165">
<rect width="428" height="926" fill="white"/>
</clipPath>
</defs>
</svg>
