<svg width="428" height="865" viewBox="0 0 428 865" fill="none" xmlns="http://www.w3.org/2000/svg">
<g clip-path="url(#clip0_19_3)">
<path d="M507.563 229.701C506.592 230.239 505.424 231.27 504.888 231.961C504.352 232.652 502.859 233.983 501.62 234.867C498.728 237.051 497.256 236.094 495.389 230.773C492.052 221.638 487.945 215.041 484.588 213.544C481.78 212.289 481.488 214.092 483.536 220.014C484.595 223.048 486.144 229.137 486.962 233.553L488.54 241.508L483.773 246.941C480.27 250.864 478.125 252.798 476.011 253.74C474.439 254.458 472.581 255.784 471.911 256.648C470.08 259.009 438.344 279.955 425.22 287.485C418.821 291.099 411.682 295.43 409.44 297.012C407.097 298.607 402.844 301.118 399.963 302.573L394.643 305.272L402.861 295.506C417.307 278.305 424.79 268.061 428.958 259.95C435.178 247.529 440.43 241.826 450.815 236.046L456.537 232.829L455.72 229.245C455.315 227.271 454.801 225.673 454.641 225.642C454.481 225.61 452.239 226.361 449.716 227.355C445.755 228.895 444.414 229.792 440.617 233.856C434.982 239.815 433.532 240.258 431.858 236.47C431.21 235.046 430.009 230.886 429.077 227.212C428.247 223.526 426.758 219.143 425.809 217.393C421.483 209.058 421.548 209.57 423.222 200.632C424.142 195.997 425.649 190.248 426.547 187.901C428.623 182.964 429.681 176.13 428.644 175.326C427.55 174.477 425.576 174.883 424.638 176.092C424.191 176.668 423.129 180.179 422.31 183.97C421.389 187.775 420.264 192.436 419.736 194.424L418.687 198.037L416.671 196.474C413.677 194.152 412.368 191.201 410.618 183.111C408.99 175.578 407.1 172.545 405.403 174.733C404.332 176.115 403.46 187.705 404.105 191.986C404.686 195.756 406.82 199.901 409.009 201.598C412.291 204.144 413.443 209.556 411.344 212.263C410.094 213.875 410.108 214.808 411.56 219.715C412.516 222.762 413.115 225.439 412.891 225.727C412.266 226.534 415.092 231.215 418.503 234.783C425.167 241.887 425.019 245.645 417.611 258.529C413.773 265.143 410.06 270.287 399.329 284.007C383.584 304.073 376.43 311.99 369.528 316.966C366.77 318.977 361.988 322.647 358.974 325.105L353.407 329.549L349.342 338.478C343.092 351.89 337.157 362.873 332.443 369.546C330.102 372.803 327.455 376.929 326.551 378.81C325.633 380.588 319.56 389.251 313.181 397.953C300.576 414.921 293.525 422.825 287.471 426.707C282.094 430.192 276.713 434.872 266.539 444.781C261.312 449.857 255.854 454.754 254.411 455.664C253.025 456.619 249.692 459.014 247.094 461.056C244.495 463.099 240.204 466.135 237.657 467.756C235.064 469.434 232.733 471.131 232.465 471.477C232.198 471.822 227.739 473.529 222.564 475.326C214.751 478.028 212.923 478.363 211.714 477.425C210.447 476.443 210.051 476.597 208.845 478.152C207.148 480.34 200.013 483.476 197.789 483.134C196.727 482.956 195.735 482.095 194.666 480.62C192.7 477.804 191.869 477.805 191.694 480.529C191.601 482.67 188.807 486.867 187.497 486.773C187.017 486.678 186.78 486.032 186.939 485.233C187.357 482.791 196.1 464.856 198.065 462.322C200.7 458.925 204.399 457.366 207.621 458.205L210.32 459.007L208.621 455.845C207.66 453.993 206.258 452.352 205.202 451.811C203.699 451.014 203.243 449.461 201.766 439.831C200.843 433.767 198.849 425.397 197.386 421.219C195.923 417.041 194.497 412.339 194.143 410.773C193.732 409.163 193.187 407.726 192.899 407.503C192.668 407.324 191.937 405.65 191.353 403.906C190.589 401.562 190.019 400.751 189.201 400.854C188.588 400.932 187.443 400.505 186.752 399.969C185.6 399.076 185.649 397.823 186.83 392.376C188.323 385.695 188.615 380.204 187.388 380.359C186.979 380.411 186.636 381.805 186.638 383.466C186.58 387.11 185.609 392.167 184.475 394.7C183.66 396.465 183.602 396.42 182.263 394.46C179.157 390.022 173.51 383.153 172.698 382.892C171.508 382.523 172.828 384.745 179.483 394.24C183.543 400.064 185.344 403.212 185.532 405.11C185.952 408.018 183.96 414.035 178.691 426.18C174.41 435.863 173.147 437.374 166.147 441.168C156.618 446.32 156.19 446.634 154.605 450.938C152.459 456.559 149.488 461.817 144.149 469.297C141.509 473.059 139.034 476.488 138.766 476.834C137.886 478.088 140.342 479.439 142.118 478.695C144.864 477.413 154.432 463.529 157.732 455.944L160.503 449.517L165.568 447.266C169.209 445.663 170.921 445.238 171.989 445.882C173.493 446.679 173.64 446.609 176.375 442.367C177.989 439.93 181.405 433.265 184.049 427.476C186.649 421.746 189.013 417.032 189.32 416.993C190.387 416.806 194.38 428.663 195.848 436.165C196.627 440.273 194.088 447.711 191.393 449.402C190.672 449.857 186.377 450.4 181.929 450.547C177.436 450.751 173.448 451.256 173.136 451.659C172.019 453.099 174.392 454.201 179.672 454.884C186.001 455.641 188.311 457.063 187.714 459.736C187.492 460.855 184.363 467.743 180.718 475.06C171.541 493.673 165.99 500.712 161.508 499.357C159.564 498.772 158.593 499.31 159.081 500.703C159.639 502.242 157.692 503.683 154.937 503.668C152.444 503.672 152.004 503.883 151.45 505.667C151.094 506.959 150.245 508.053 149.096 508.822C145.252 511.282 134.159 522.138 126.616 530.675C113.669 545.35 103.616 554.984 102.291 553.957C102.119 553.823 101.817 552.666 101.604 551.394C101.088 548.136 99.305 548.413 98.1533 552.039C97.4024 554.315 97.0898 554.718 95.4092 554.983C93.4794 555.331 93.4348 555.388 94.4408 557.183C94.9345 558.211 95.1343 559.381 94.777 559.841C93.9285 560.935 90.2876 562.539 88.5811 562.599C87.7056 562.657 86.4093 563.497 85.5608 564.591C84.7569 565.627 83.7674 566.428 83.4031 566.422C82.9811 566.371 81.2124 567.582 79.3802 569.112C75.569 572.243 55.5182 585.375 51.0218 587.606C47.8474 589.202 45.169 588.969 42.4047 586.826C39.7556 584.771 39.1456 582.823 40.664 580.865C42.0484 579.079 41.6158 576.07 39.773 574.64C38.506 573.658 38.5507 573.6 37.6799 576.983C36.6752 580.538 34.9464 582.886 33.7947 581.993C32.6429 581.1 33.0036 578.613 35.3704 571.042C37.9346 562.978 37.7147 561.24 34.2747 560.325C31.1544 559.473 24.5718 559.994 19.1539 561.51C16.5472 562.255 12.1118 562.504 7.49651 562.153C0.477853 561.69 -1.87383 561.988 -1.75039 563.374C-1.42126 565.566 14.7445 566.483 18.289 564.528C19.4513 563.862 22.6268 563.096 25.3558 562.907C33.8493 562.3 34.8837 565.961 29.0429 575.634C24.127 583.995 23.9531 583.03 30.6604 589.246C34.9103 593.279 35.5908 595.375 33.8833 599.122C33.1888 600.613 24.947 611.835 15.4794 624.044C-1.53532 645.986 -1.70103 646.318 -4.07018 652.228C-5.36287 655.559 -9.30093 663.849 -12.8958 670.744C-19.1232 682.699 -20.0798 684.17 -35.0896 704.716C-51.9175 727.724 -55.8592 733.521 -55.4678 734.562C-55.2304 735.207 -25.4323 753.15 -23.5331 753.793C-22.446 754.175 -20.87 752.261 -20.5281 750.037C-20.3248 749.18 -18.9486 746.097 -17.3997 743.148C-10.7834 730.573 -5.6173 718.441 -3.58314 710.704C1.712 690.556 8.4774 670.534 11.6657 665.352C14.2994 661.124 37.3395 633.434 45.4826 624.717C52.2472 617.421 61.1531 610.217 67.8015 606.52C70.3752 605.104 74.7295 601.748 77.838 598.81C83.123 593.778 92.0947 587.917 97.1224 586.19C98.8665 585.606 99.1415 585.727 98.9641 586.789C98.7678 588.112 100.228 589.797 101.455 589.642C101.806 589.546 102.086 588.472 102.135 587.219C102.082 585.979 102.368 584.54 102.725 584.08C103.35 583.273 103.996 583.867 105.886 586.9C106.751 588.401 107.484 586.386 106.943 583.754L106.415 581.224L110.386 578.124C118.354 572.13 125.855 569.831 135.641 570.412C139.834 570.712 140.946 570.468 142.018 569.086C143.536 567.128 145.012 566.889 151.156 567.411C153.63 567.669 156.301 567.435 157.022 566.98C158.644 565.84 159.508 561.991 158.42 560.779C157.876 560.172 152.974 560.428 144.794 561.463C137.739 562.355 131.507 562.78 130.989 562.378C130.125 561.708 130.648 560.914 136.519 553.939C145.005 543.828 146.346 542.931 152.833 542.89C159.64 542.912 168.738 544.618 171.042 546.405C172.021 547.164 173.718 549.494 174.763 551.596C177.66 557.255 180.129 558.708 179.356 554.235C178.898 551.852 179.94 551.46 182.128 553.157C183.049 553.872 183.977 554.222 184.2 553.934C185.852 551.803 170.572 540.231 165.938 540.142C160.94 540.047 151.013 539.173 150.609 538.86C149.458 537.967 158.527 528.769 165.353 524.01C167.121 522.8 170.148 520.443 172.229 518.83C176.379 515.5 188.596 509.02 191.696 508.473C192.763 508.286 194.289 507.625 195.087 506.953C197.303 505.167 204.458 502.6 216.361 499.38C222.334 497.742 229.586 495.526 232.46 494.435C235.335 493.345 239.277 492.067 241.238 491.559C243.257 491.096 246.221 489.89 247.869 488.955C249.561 487.962 251.81 486.846 253.011 486.487C256.307 485.446 260.771 482.545 262.423 480.414C265.951 475.864 281.617 471.598 291.442 472.485C293.961 472.686 299.057 473.963 302.753 475.261C309.391 477.642 309.666 477.763 328.355 491.242C357.16 512.011 368.806 521.135 375.918 528.494C379.259 531.915 382.645 535.278 383.394 535.859C384.776 536.931 385.07 536.79 392.344 532.286C394.125 531.178 398.699 529.56 402.533 528.66C411.312 526.615 412.34 526.121 414.752 523.011C415.824 521.629 418.147 519.466 420.005 518.14C423.574 515.559 425.653 512.283 425.164 510.06C424.618 507.792 422.753 508.651 414.306 515.38C410.144 518.608 405.559 521.785 404.019 522.343C399.676 524.139 385.427 527.291 384.621 526.666C384.218 526.353 382.15 524.381 380.115 522.25C378.034 520.175 373.772 516.04 370.584 513.015C367.41 510.092 364.529 507.028 364.164 506.191C363.728 505.208 362.979 504.627 362.02 504.437C359.635 504.063 348.817 496.965 330.703 483.933C321.394 477.267 310.799 469.881 307.12 467.489C303.486 465.04 300.229 462.699 299.903 462.169C298.724 460.241 302.166 458.299 311.053 455.876C316.382 454.475 318.266 453.354 321.591 449.661C322.867 448.253 322.815 447.844 321.625 446.645C320.792 445.815 319.967 445.452 319.7 445.797C319.432 446.143 318.039 446.631 316.563 446.869C309.413 448.241 300.086 451.706 292.218 456.025C285.084 459.992 280.625 461.698 279.646 460.939C278.667 460.18 279.841 458.785 287.328 451.865C297.522 442.525 309.78 432.664 311.946 432.13C313.058 431.886 316.388 432.348 319.304 433.225C322.859 434.23 325.333 434.489 326.771 433.943C327.914 433.539 330.534 432.896 332.521 432.593C335.371 432.129 336.297 431.648 336.903 430.273C337.597 428.782 338.14 428.558 341.24 428.841C345.344 429.257 346.132 430.144 344.73 433.023C343.391 435.581 344.137 442.707 345.864 444.047C347.419 445.252 348.089 444.388 349.309 439.248C349.842 436.895 351.288 433.128 352.563 430.889L354.845 426.757L361.612 425.642C365.382 425.061 368.571 424.398 368.794 424.11C369.241 423.534 368.292 421.784 366.91 420.712C366.392 420.31 364.091 420.186 361.854 420.573C359.605 420.857 356.134 420.932 354.184 420.712C349.486 420.111 338.041 422.026 332.624 424.373C326.709 426.887 322.166 427.514 320.265 426.04C315.428 422.289 321.46 417.007 333.205 414.587C339.831 413.177 345.911 410.331 345.839 408.522C345.784 406.451 344.385 406.472 337.28 408.617C333.619 409.652 329.741 410.61 328.661 410.694C326.705 410.838 326.705 410.838 327.61 408.957C328.107 407.96 330.83 403.616 333.611 399.317L338.591 391.467L343.844 390.283C346.77 389.601 350.654 388.279 352.666 387.349C358.894 384.432 360.358 380.403 354.436 382.451C351.798 383.356 350.749 383.281 349.367 382.209L347.697 380.914L351.749 376.402C355.176 372.696 356.088 371.282 357.297 367.701C358.08 365.265 359.169 362.79 359.661 362.156C361.179 360.198 365.01 357.636 366.646 357.429C368.736 357.113 372.753 354.787 374.137 353.002C375.879 350.756 373.909 349.966 368.823 350.817L364.305 351.648L364.736 349.308C365.39 345.85 368.277 340.342 371.76 335.85C376.048 330.322 382.293 326.312 405.534 314.179C412.017 310.814 417.548 307.725 417.86 307.322C419.334 305.422 429.817 301.655 431.027 302.592C432.409 303.664 435.443 302.605 439.587 299.64C442.02 297.93 445.289 295.854 446.905 295.078C450.284 293.457 465.874 289.407 473.957 288.021C476.896 287.442 480.308 286.491 481.515 285.767C484.9 283.781 492.997 283.328 495.128 284.98C496.741 286.231 496.722 286.493 495.293 288.336C493.774 290.294 493.787 290.396 496.033 292.138C497.358 293.165 498.831 294.952 499.337 296.083C500.311 298.037 500.759 298.292 506.636 299.991C510.088 301.008 516.355 302.917 520.575 304.253C524.694 305.602 528.325 306.389 528.548 306.101C529.218 305.237 526.353 303.938 518.289 301.373C514.344 300.158 509.375 298.242 507.104 297.126C503.344 295.317 502.985 294.946 502.663 293.221C502.463 292.052 502.991 290.063 504.011 288.272C504.955 286.698 506.58 283.532 507.606 281.377C509.689 276.906 511.994 275.004 513.607 276.255C515.494 277.626 521.555 278.73 521.426 277.707C521.257 276.378 515.304 274.066 511.634 273.803C507.703 273.521 506.487 272.117 506.423 267.918C506.32 262.581 505.392 262.231 502.381 266.351C499.236 270.645 497.314 271.459 492.781 270.526C489.686 269.879 488.926 270.027 487.445 271.46C486.539 272.51 485.211 273.509 484.464 273.759C483.333 274.266 483.32 274.164 484.066 273.082C484.602 272.391 484.793 271.432 484.466 270.902C483.486 269.312 500.195 248.241 506.145 243.541C508.654 241.613 511.348 239.091 512.241 237.939C513.67 236.096 513.663 235.63 512.093 232.66C509.856 228.528 509.639 228.451 507.563 229.701ZM478.631 275.692C476.555 276.941 467.976 280.156 464.845 280.863L461.612 281.584L463.342 280.066C464.319 279.164 466.803 277.863 468.988 277.067C471.07 276.284 473.216 275.182 473.663 274.606C474.11 274.03 474.755 273.793 475.043 274.016C475.388 274.284 476.442 273.995 477.356 273.412C478.754 272.56 479.176 272.61 479.421 273.722C479.556 274.38 479.205 275.307 478.631 275.692ZM346.86 385.798C346.637 386.086 346.183 386.196 345.838 385.928C345.55 385.704 345.485 385.193 345.709 384.905C345.977 384.56 346.443 384.553 346.731 384.776C347.077 385.044 347.128 385.453 346.86 385.798Z" fill="black"/>
<path d="M96.4628 540.608C96.4106 540.959 96.2135 541.373 95.8083 541.57C95.5158 541.712 85.8349 546.398 85.5354 546.533C84.6795 546.925 84.0263 546.855 83.5556 546.564C82.8389 546.121 74.8022 542.449 65.6389 543.535C64.6596 543.653 64.508 539.889 67.2838 539.416C69.186 539.092 74.9828 539.526 75.5391 538.739C75.9685 538.131 75.68 535.019 72.6042 530.027L66.4182 519.992C66.1602 519.535 66.0891 518.996 66.2199 518.489C66.3507 517.981 66.6731 517.544 67.1195 517.269C67.5659 516.994 68.1015 516.903 68.6138 517.014C69.1261 517.126 69.5751 517.432 69.8667 517.867L75.2663 526.624C75.7916 527.479 76.3059 527.749 76.7685 527.473C77.1814 527.23 77.223 526.92 76.8032 526.073L70.9275 515.216C70.8008 514.982 70.7213 514.726 70.6936 514.461C70.666 514.197 70.6907 513.93 70.7664 513.675C70.8421 513.42 70.9673 513.183 71.1348 512.976C71.3023 512.77 71.5088 512.599 71.7426 512.472C71.9762 512.345 72.2327 512.265 72.4973 512.237C72.7619 512.209 73.0294 512.233 73.2845 512.309C73.5396 512.385 73.7773 512.51 73.9838 512.678C74.1903 512.846 74.3617 513.053 74.488 513.287L80.0761 523.611C80.5691 524.518 81.0031 524.963 81.5139 524.636C81.8208 524.44 81.7115 523.938 81.5483 523.511L77.1542 513.497C77.0385 513.252 76.9732 512.987 76.9619 512.716C76.9507 512.445 76.9938 512.175 77.0888 511.922C77.1837 511.668 77.3285 511.436 77.5147 511.239C77.7008 511.042 77.9245 510.885 78.1725 510.776C78.4205 510.667 78.6879 510.609 78.9587 510.606C79.2295 510.602 79.4983 510.652 79.7493 510.754C80.0002 510.856 80.2282 511.007 80.4197 511.199C80.6112 511.39 80.7624 511.618 80.8643 511.869L84.9161 521.098C85.5093 522.454 85.9194 522.91 86.4557 522.675C87.0035 522.438 86.8966 521.972 86.7521 521.597L83.6748 513.607C83.5282 513.159 83.5595 512.671 83.7621 512.245C83.9647 511.818 84.3232 511.486 84.7636 511.316C85.2041 511.147 85.6929 511.152 86.1292 511.333C86.5655 511.513 86.916 511.853 87.1084 512.284L90.4558 520.982L90.458 520.983L90.4583 520.985L92.4647 526.201C92.8755 527.179 93.3105 528.093 93.8226 528.973C96.8382 534.143 96.6278 539.441 96.4628 540.608Z" fill="#ABCC63"/>
<g clip-path="url(#clip1_19_3)">
<path d="M71.7528 619.614C71.7284 619.26 71.832 618.814 72.1853 618.534C72.4404 618.333 80.8875 611.675 81.1508 611.478C81.9025 610.912 82.5553 610.839 83.0777 611.023C83.8728 611.301 92.5111 613.159 101.227 610.129C102.158 609.803 103.115 613.446 100.506 614.504C98.7177 615.23 92.9631 616.052 92.5891 616.941C92.3005 617.627 93.2514 620.605 97.3286 624.818L105.528 633.289C105.878 633.679 106.063 634.19 106.044 634.714C106.026 635.238 105.805 635.734 105.428 636.099C105.051 636.463 104.548 636.667 104.023 636.669C103.499 636.67 102.995 636.468 102.616 636.105L95.4604 628.714C94.7635 627.992 94.2031 627.839 93.8106 628.207C93.4597 628.534 93.4858 628.846 94.0779 629.583L102.15 638.923C102.325 639.123 102.457 639.357 102.541 639.609C102.625 639.861 102.658 640.127 102.639 640.393C102.62 640.658 102.549 640.916 102.43 641.154C102.31 641.392 102.146 641.603 101.944 641.777C101.744 641.952 101.51 642.085 101.258 642.169C101.005 642.253 100.739 642.287 100.474 642.268C100.208 642.249 99.9491 642.178 99.7113 642.058C99.4736 641.939 99.2617 641.773 99.088 641.572L91.411 632.691C90.7343 631.911 90.2148 631.569 89.7862 631.998C89.5286 632.256 89.7434 632.723 89.9945 633.105L96.4389 641.94C96.6045 642.154 96.7255 642.399 96.7946 642.661C96.8638 642.923 96.8797 643.196 96.8416 643.464C96.8034 643.732 96.7118 643.99 96.5724 644.222C96.4329 644.454 96.2483 644.656 96.0294 644.816C95.8106 644.975 95.562 645.09 95.2983 645.151C95.0346 645.213 94.7612 645.222 94.4942 645.176C94.2273 645.131 93.9721 645.032 93.7439 644.886C93.5157 644.74 93.319 644.55 93.1655 644.327L87.2244 636.186C86.3534 634.988 85.855 634.632 85.3817 634.977C84.8977 635.326 85.1022 635.758 85.3239 636.093L90.0471 643.234C90.2867 643.641 90.3611 644.124 90.2549 644.584C90.1487 645.044 89.87 645.445 89.4763 645.706C89.0827 645.966 88.6041 646.065 88.1392 645.983C87.6744 645.901 87.2588 645.644 86.9783 645.264L81.8392 637.49L81.8367 637.489L81.8359 637.487L78.7551 632.825C78.1436 631.958 77.5223 631.159 76.8329 630.409C72.7764 626.009 71.8427 620.789 71.7528 619.614Z" fill="#ABCC63"/>
</g>
<g clip-path="url(#clip2_19_3)">
<path d="M206.104 379.577C206.08 379.223 206.183 378.777 206.537 378.498C206.792 378.296 215.239 371.638 215.502 371.441C216.254 370.875 216.907 370.802 217.429 370.986C218.224 371.264 226.862 373.122 235.578 370.092C236.509 369.766 237.466 373.409 234.857 374.468C233.069 375.193 227.314 376.015 226.94 376.904C226.652 377.59 227.603 380.568 231.68 384.782L239.879 393.252C240.229 393.642 240.414 394.153 240.396 394.677C240.377 395.201 240.156 395.697 239.779 396.062C239.402 396.426 238.899 396.631 238.375 396.632C237.85 396.633 237.346 396.431 236.968 396.068L229.812 388.677C229.115 387.955 228.554 387.802 228.162 388.17C227.811 388.497 227.837 388.809 228.429 389.546L236.502 398.886C236.676 399.087 236.809 399.32 236.892 399.572C236.976 399.824 237.01 400.091 236.99 400.356C236.971 400.621 236.9 400.88 236.781 401.117C236.662 401.355 236.497 401.567 236.296 401.74C236.095 401.915 235.862 402.048 235.609 402.132C235.357 402.217 235.09 402.25 234.825 402.231C234.559 402.212 234.3 402.141 234.063 402.021C233.825 401.902 233.613 401.737 233.439 401.535L225.762 392.654C225.086 391.874 224.566 391.532 224.138 391.961C223.88 392.219 224.095 392.686 224.346 393.068L230.79 401.903C230.956 402.117 231.077 402.362 231.146 402.624C231.215 402.886 231.231 403.159 231.193 403.427C231.155 403.695 231.063 403.953 230.924 404.185C230.784 404.418 230.6 404.619 230.381 404.779C230.162 404.939 229.913 405.053 229.65 405.115C229.386 405.176 229.113 405.185 228.846 405.139C228.579 405.094 228.323 404.995 228.095 404.849C227.867 404.703 227.67 404.513 227.517 404.29L221.576 396.149C220.705 394.951 220.206 394.595 219.733 394.94C219.249 395.289 219.454 395.721 219.675 396.056L224.398 403.197C224.638 403.604 224.712 404.087 224.606 404.547C224.5 405.007 224.221 405.408 223.828 405.669C223.434 405.929 222.955 406.029 222.491 405.946C222.026 405.864 221.61 405.607 221.33 405.227L216.191 397.453L216.188 397.452L216.187 397.45L213.106 392.788C212.495 391.921 211.874 391.122 211.184 390.372C207.128 385.972 206.194 380.753 206.104 379.577Z" fill="#ABCC63"/>
</g>
<path d="M11.7966 521.43C11.6664 521.099 11.6307 520.643 11.8832 520.27C12.0654 520 18.1101 511.104 18.3017 510.837C18.8473 510.07 19.4479 509.804 20.0014 509.822C20.8433 509.847 29.6397 509.012 37.0346 503.493C37.8241 502.902 39.8357 506.086 37.6676 507.882C36.1819 509.114 30.9436 511.634 30.8551 512.594C30.7871 513.335 32.592 515.887 37.7507 518.674L48.1233 524.276C48.5748 524.542 48.9055 524.974 49.0459 525.479C49.1863 525.984 49.1255 526.524 48.8762 526.985C48.6269 527.446 48.2086 527.793 47.7091 527.952C47.2096 528.111 46.6678 528.071 46.1975 527.839L37.1449 522.952C36.2628 522.474 35.6822 522.497 35.4192 522.967C35.1832 523.384 35.3021 523.673 36.089 524.197L46.6035 530.666C46.8301 530.805 47.027 530.988 47.1831 531.203C47.3391 531.418 47.4512 531.662 47.5129 531.92C47.5747 532.179 47.5849 532.447 47.5429 532.709C47.501 532.972 47.4077 533.224 47.2684 533.45C47.1297 533.677 46.9474 533.874 46.7322 534.031C46.517 534.187 46.2729 534.3 46.0141 534.362C45.7553 534.424 45.4869 534.434 45.2242 534.392C44.9614 534.349 44.7096 534.256 44.4831 534.116L34.4842 527.965C33.6037 527.426 33.0053 527.257 32.7262 527.795C32.5582 528.118 32.9041 528.499 33.2586 528.787L42.0685 535.266C42.2911 535.42 42.4804 535.618 42.6253 535.847C42.7703 536.075 42.8679 536.331 42.9124 536.598C42.9569 536.865 42.9474 537.139 42.8845 537.402C42.8215 537.665 42.7064 537.914 42.546 538.132C42.3855 538.35 42.1829 538.534 41.9502 538.672C41.7175 538.811 41.4594 538.901 41.1911 538.939C40.9228 538.976 40.6498 538.959 40.3882 538.888C40.1266 538.818 39.8817 538.696 39.668 538.53L31.5473 532.561C30.3556 531.682 29.7728 531.492 29.4257 531.964C29.0696 532.443 29.3949 532.793 29.7073 533.045L36.3652 538.429C36.7163 538.744 36.933 539.182 36.9705 539.653C37.008 540.123 36.8635 540.59 36.5668 540.957C36.27 541.324 35.8437 541.564 35.3758 541.625C34.9078 541.687 34.434 541.567 34.0519 541.29L26.8067 535.429L26.8039 535.429L26.8027 535.427L22.4587 531.912C21.614 531.27 20.7807 530.696 19.8972 530.189C14.702 527.218 12.2369 522.523 11.7966 521.43Z" fill="#ABCC63"/>
<g clip-path="url(#clip3_19_3)">
<path d="M97.8586 437.783C97.9889 437.453 98.2743 437.095 98.7135 436.995C99.0306 436.922 109.52 434.547 109.843 434.483C110.765 434.294 111.385 434.51 111.778 434.9C112.376 435.493 119.374 440.888 128.546 441.902C129.527 442.008 128.823 445.708 126.013 445.542C124.086 445.427 118.538 443.694 117.818 444.335C117.262 444.83 116.839 447.927 118.707 453.485L122.464 464.659C122.612 465.162 122.559 465.703 122.317 466.168C122.075 466.633 121.662 466.986 121.165 467.153C120.668 467.32 120.126 467.288 119.652 467.063C119.178 466.838 118.81 466.439 118.624 465.949L115.344 456.198C115.026 455.247 114.586 454.867 114.073 455.031C113.616 455.175 113.505 455.467 113.723 456.387L116.991 468.292C117.062 468.548 117.082 468.816 117.049 469.08C117.016 469.343 116.931 469.598 116.8 469.829C116.669 470.06 116.493 470.263 116.283 470.426C116.074 470.59 115.834 470.71 115.577 470.78C115.321 470.851 115.053 470.871 114.789 470.839C114.525 470.806 114.27 470.722 114.038 470.59C113.807 470.459 113.604 470.283 113.441 470.073C113.277 469.863 113.157 469.622 113.087 469.366L109.978 458.046C109.703 457.05 109.381 456.518 108.809 456.722C108.466 456.843 108.459 457.357 108.521 457.81L110.538 468.558C110.595 468.823 110.598 469.096 110.548 469.362C110.498 469.629 110.395 469.882 110.245 470.108C110.095 470.333 109.902 470.526 109.676 470.676C109.45 470.826 109.197 470.928 108.93 470.978C108.664 471.028 108.391 471.024 108.126 470.967C107.861 470.909 107.611 470.799 107.39 470.643C107.168 470.487 106.98 470.288 106.837 470.058C106.694 469.829 106.598 469.572 106.555 469.305L104.695 459.399C104.424 457.944 104.127 457.407 103.552 457.515C102.965 457.622 102.964 458.1 103.02 458.498L104.211 466.976C104.252 467.447 104.111 467.915 103.818 468.284C103.524 468.654 103.099 468.896 102.632 468.962C102.165 469.028 101.69 468.912 101.306 468.637C100.921 468.363 100.657 467.952 100.567 467.489L99.2726 458.26L99.2708 458.258L99.2709 458.256L98.4957 452.722C98.3168 451.676 98.0995 450.688 97.7998 449.714C96.0311 443.997 97.4339 438.883 97.8586 437.783Z" fill="#ABCC63"/>
</g>
<g clip-path="url(#clip4_19_3)">
<path d="M152.219 645.494C152.243 645.848 152.14 646.294 151.787 646.573C151.532 646.775 143.088 653.437 142.825 653.634C142.074 654.201 141.421 654.274 140.898 654.091C140.103 653.813 131.464 651.959 122.75 654.994C121.819 655.32 120.86 651.678 123.468 650.618C125.256 649.892 131.01 649.066 131.384 648.178C131.672 647.491 130.72 644.514 126.64 640.303L118.437 631.836C118.087 631.446 117.901 630.936 117.919 630.412C117.938 629.888 118.158 629.391 118.535 629.027C118.912 628.662 119.415 628.457 119.939 628.456C120.463 628.454 120.968 628.656 121.347 629.019L128.506 636.406C129.204 637.128 129.764 637.281 130.156 636.912C130.507 636.585 130.481 636.273 129.888 635.537L121.811 626.201C121.637 626 121.504 625.767 121.42 625.515C121.336 625.263 121.303 624.996 121.322 624.731C121.341 624.466 121.412 624.207 121.531 623.97C121.65 623.732 121.815 623.52 122.016 623.346C122.216 623.171 122.449 623.038 122.702 622.954C122.954 622.869 123.221 622.836 123.486 622.855C123.752 622.874 124.011 622.945 124.248 623.064C124.486 623.183 124.698 623.349 124.872 623.55L132.554 632.427C133.231 633.207 133.75 633.548 134.179 633.119C134.436 632.861 134.221 632.394 133.97 632.013L127.521 623.181C127.355 622.967 127.234 622.721 127.165 622.46C127.096 622.198 127.079 621.925 127.117 621.657C127.156 621.388 127.247 621.131 127.386 620.898C127.526 620.666 127.71 620.464 127.929 620.304C128.148 620.145 128.396 620.03 128.66 619.968C128.924 619.906 129.197 619.898 129.464 619.943C129.731 619.989 129.986 620.087 130.214 620.233C130.443 620.379 130.639 620.569 130.793 620.792L136.738 628.93C137.61 630.127 138.109 630.483 138.582 630.138C139.066 629.789 138.861 629.357 138.639 629.022L133.912 621.883C133.672 621.477 133.598 620.994 133.704 620.534C133.81 620.074 134.088 619.672 134.482 619.411C134.875 619.151 135.354 619.051 135.819 619.133C136.283 619.215 136.699 619.472 136.98 619.851L142.123 627.623L142.125 627.624L142.126 627.626L145.209 632.286C145.821 633.153 146.443 633.952 147.133 634.701C151.192 639.099 152.128 644.318 152.219 645.494Z" fill="#ABCC63"/>
</g>
<g clip-path="url(#clip5_19_3)">
<path d="M276.38 574.308C276.405 574.662 276.301 575.108 275.948 575.388C275.693 575.59 267.25 582.252 266.986 582.449C266.235 583.016 265.582 583.089 265.06 582.905C264.265 582.628 255.625 580.774 246.911 583.809C245.98 584.135 245.021 580.493 247.63 579.433C249.418 578.706 255.172 577.881 255.545 576.992C255.834 576.306 254.881 573.329 250.802 569.117L242.598 560.651C242.248 560.261 242.063 559.75 242.081 559.226C242.099 558.702 242.32 558.206 242.697 557.841C243.073 557.476 243.577 557.272 244.101 557.27C244.625 557.269 245.13 557.471 245.508 557.833L252.668 565.221C253.365 565.942 253.926 566.095 254.318 565.726C254.669 565.4 254.643 565.088 254.05 564.351L245.973 555.015C245.798 554.815 245.666 554.581 245.582 554.329C245.498 554.077 245.464 553.811 245.483 553.546C245.502 553.28 245.573 553.022 245.692 552.784C245.811 552.546 245.976 552.335 246.177 552.161C246.378 551.986 246.611 551.853 246.863 551.768C247.116 551.684 247.382 551.65 247.648 551.669C247.913 551.688 248.172 551.759 248.41 551.879C248.648 551.998 248.86 552.163 249.034 552.364L256.715 561.241C257.392 562.021 257.912 562.363 258.34 561.933C258.598 561.676 258.383 561.208 258.132 560.827L251.683 551.995C251.517 551.781 251.396 551.536 251.326 551.274C251.257 551.012 251.241 550.739 251.279 550.471C251.317 550.203 251.409 549.945 251.548 549.713C251.687 549.481 251.872 549.279 252.091 549.119C252.309 548.959 252.558 548.845 252.821 548.783C253.085 548.721 253.359 548.712 253.626 548.758C253.893 548.803 254.148 548.902 254.376 549.047C254.604 549.193 254.801 549.383 254.955 549.606L260.9 557.745C261.772 558.941 262.27 559.298 262.743 558.953C263.227 558.603 263.022 558.171 262.801 557.837L258.074 550.698C257.834 550.291 257.759 549.808 257.865 549.348C257.971 548.888 258.25 548.486 258.643 548.226C259.037 547.965 259.515 547.865 259.98 547.947C260.445 548.029 260.861 548.286 261.141 548.666L266.285 556.437L266.287 556.438L266.288 556.44L269.371 561.101C269.983 561.968 270.605 562.766 271.295 563.516C275.353 567.914 276.29 573.133 276.38 574.308Z" fill="#ABCC63"/>
</g>
<g clip-path="url(#clip6_19_3)">
<path d="M125.187 576.632C125.322 576.303 125.613 575.95 126.054 575.856C126.372 575.789 136.896 573.574 137.22 573.515C138.145 573.341 138.762 573.566 139.149 573.962C139.738 574.564 146.653 580.065 155.808 581.219C156.786 581.341 156.027 585.029 153.219 584.82C151.294 584.676 145.773 582.858 145.043 583.488C144.48 583.975 144.01 587.065 145.792 592.651L149.378 603.881C149.518 604.386 149.458 604.926 149.208 605.387C148.959 605.848 148.541 606.195 148.041 606.354C147.542 606.514 147 606.473 146.53 606.241C146.059 606.01 145.697 605.605 145.519 605.111L142.389 595.312C142.085 594.355 141.651 593.969 141.136 594.125C140.676 594.262 140.561 594.553 140.764 595.476L143.851 607.429C143.917 607.687 143.933 607.955 143.896 608.218C143.859 608.481 143.771 608.734 143.636 608.963C143.501 609.192 143.322 609.393 143.11 609.553C142.898 609.713 142.656 609.829 142.399 609.896C142.141 609.963 141.873 609.979 141.609 609.942C141.346 609.905 141.092 609.817 140.863 609.682C140.633 609.547 140.433 609.368 140.273 609.156C140.113 608.943 139.996 608.701 139.93 608.443L136.995 597.077C136.735 596.078 136.421 595.541 135.846 595.735C135.501 595.851 135.486 596.366 135.542 596.819L137.393 607.597C137.447 607.862 137.446 608.136 137.392 608.401C137.337 608.666 137.23 608.918 137.077 609.142C136.924 609.365 136.727 609.555 136.499 609.701C136.271 609.847 136.016 609.946 135.749 609.992C135.482 610.038 135.209 610.03 134.945 609.968C134.682 609.907 134.433 609.793 134.214 609.633C133.995 609.474 133.81 609.272 133.67 609.04C133.531 608.808 133.439 608.551 133.4 608.282L131.692 598.35C131.443 596.89 131.155 596.349 130.577 596.448C129.989 596.546 129.98 597.024 130.03 597.422L131.092 605.918C131.126 606.389 130.978 606.855 130.678 607.22C130.379 607.585 129.951 607.821 129.483 607.88C129.014 607.938 128.541 607.815 128.161 607.535C127.781 607.255 127.523 606.84 127.44 606.375L126.287 597.127L126.285 597.125L126.286 597.123L125.595 591.578C125.432 590.529 125.23 589.538 124.945 588.56C123.264 582.816 124.745 577.725 125.187 576.632Z" fill="#ABCC63"/>
</g>
<g clip-path="url(#clip7_19_3)">
<path d="M287.201 486.022C287.463 485.783 287.877 485.588 288.316 485.691C288.632 485.766 299.096 488.253 299.414 488.338C300.324 488.575 300.787 489.042 300.967 489.565C301.243 490.361 305.15 498.286 312.937 503.237C313.77 503.764 311.509 506.776 309.059 505.389C307.38 504.438 303.162 500.437 302.234 500.696C301.516 500.896 299.773 503.49 299.001 509.302L297.452 520.988C297.364 521.505 297.078 521.968 296.656 522.278C296.234 522.589 295.708 522.724 295.188 522.655C294.668 522.586 294.195 522.318 293.869 521.908C293.543 521.498 293.388 520.977 293.437 520.455L294.788 510.256C294.921 509.262 294.693 508.727 294.161 508.649C293.687 508.576 293.459 508.79 293.248 509.712L290.939 521.839C290.89 522.1 290.789 522.349 290.644 522.572C290.498 522.794 290.31 522.985 290.09 523.135C289.871 523.285 289.624 523.39 289.363 523.444C289.103 523.498 288.835 523.5 288.574 523.45C288.312 523.401 288.063 523.301 287.84 523.156C287.617 523.01 287.426 522.822 287.276 522.602C287.126 522.382 287.021 522.135 286.967 521.874C286.913 521.614 286.911 521.345 286.961 521.084L289.156 509.551C289.347 508.537 289.293 507.917 288.69 507.848C288.328 507.806 288.095 508.264 287.952 508.698L285.028 519.235C284.963 519.498 284.846 519.745 284.683 519.962C284.521 520.179 284.317 520.361 284.083 520.498C283.849 520.634 283.59 520.723 283.321 520.757C283.053 520.792 282.78 520.773 282.519 520.7C282.258 520.628 282.014 520.504 281.802 520.336C281.59 520.167 281.413 519.958 281.283 519.721C281.153 519.483 281.072 519.222 281.045 518.952C281.017 518.683 281.044 518.411 281.124 518.152L283.817 508.44C284.215 507.013 284.185 506.401 283.621 506.244C283.046 506.082 282.835 506.51 282.71 506.892L280.045 515.029C279.875 515.469 279.542 515.827 279.116 516.03C278.689 516.232 278.201 516.263 277.753 516.116C277.304 515.969 276.929 515.656 276.705 515.24C276.481 514.825 276.424 514.339 276.548 513.884L279.451 505.028L279.45 505.026L279.451 505.024L281.193 499.714C281.493 498.696 281.733 497.713 281.893 496.707C282.823 490.795 286.335 486.823 287.201 486.022Z" fill="#ABCC63"/>
</g>
<g clip-path="url(#clip8_19_3)">
<path d="M233.494 508.814C233.545 508.463 233.741 508.049 234.146 507.851C234.438 507.707 244.104 502.992 244.403 502.856C245.258 502.461 245.911 502.529 246.383 502.819C247.101 503.259 255.149 506.907 264.309 505.793C265.288 505.673 265.451 509.435 262.677 509.917C260.775 510.247 254.977 509.83 254.423 510.619C253.996 511.229 254.294 514.34 257.385 519.323L263.601 529.339C263.861 529.795 263.933 530.333 263.804 530.841C263.675 531.349 263.354 531.788 262.908 532.064C262.463 532.34 261.927 532.433 261.415 532.323C260.902 532.213 260.452 531.909 260.159 531.474L254.733 522.734C254.205 521.88 253.69 521.612 253.228 521.889C252.816 522.133 252.775 522.444 253.198 523.289L259.107 534.129C259.234 534.362 259.314 534.618 259.343 534.882C259.371 535.147 259.347 535.414 259.272 535.669C259.197 535.924 259.073 536.162 258.906 536.369C258.739 536.576 258.533 536.747 258.3 536.875C258.067 537.003 257.81 537.084 257.546 537.112C257.281 537.141 257.014 537.117 256.758 537.042C256.503 536.967 256.265 536.843 256.058 536.676C255.851 536.509 255.679 536.302 255.552 536.068L249.932 525.762C249.437 524.856 249.001 524.412 248.492 524.74C248.185 524.937 248.296 525.439 248.461 525.866L252.885 535.866C253.002 536.111 253.068 536.376 253.08 536.647C253.092 536.917 253.05 537.187 252.955 537.441C252.861 537.695 252.717 537.928 252.532 538.125C252.346 538.322 252.123 538.481 251.875 538.59C251.627 538.7 251.36 538.759 251.089 538.763C250.819 538.768 250.55 538.718 250.298 538.617C250.047 538.516 249.819 538.365 249.627 538.174C249.435 537.983 249.283 537.756 249.18 537.505L245.1 528.289C244.503 526.934 244.091 526.48 243.556 526.717C243.009 526.956 243.117 527.421 243.263 527.795L246.364 535.776C246.512 536.224 246.482 536.712 246.281 537.139C246.08 537.566 245.722 537.899 245.282 538.07C244.842 538.241 244.354 538.237 243.917 538.058C243.48 537.879 243.128 537.54 242.935 537.109L239.561 528.422L239.559 528.421L239.558 528.419L237.536 523.209C237.122 522.232 236.684 521.32 236.17 520.441C233.138 515.281 233.333 509.982 233.494 508.814Z" fill="#ABCC63"/>
</g>
<g clip-path="url(#clip9_19_3)">
<path d="M192.974 516.18C193.109 515.851 193.4 515.498 193.841 515.404C194.159 515.337 204.684 513.122 205.007 513.062C205.932 512.888 206.549 513.113 206.936 513.51C207.525 514.112 214.44 519.613 223.595 520.767C224.573 520.889 223.814 524.577 221.006 524.368C219.081 524.224 213.56 522.406 212.83 523.036C212.267 523.522 211.797 526.613 213.579 532.199L217.165 543.429C217.305 543.934 217.245 544.474 216.995 544.935C216.746 545.396 216.328 545.743 215.828 545.902C215.329 546.061 214.787 546.021 214.317 545.789C213.846 545.557 213.484 545.152 213.306 544.659L210.176 534.859C209.872 533.903 209.438 533.517 208.923 533.673C208.463 533.81 208.348 534.101 208.551 535.024L211.638 546.977C211.704 547.234 211.72 547.502 211.683 547.766C211.646 548.029 211.558 548.282 211.423 548.511C211.288 548.74 211.109 548.941 210.897 549.101C210.685 549.26 210.443 549.377 210.186 549.443C209.928 549.511 209.66 549.527 209.396 549.49C209.133 549.453 208.879 549.365 208.65 549.23C208.42 549.095 208.22 548.916 208.06 548.704C207.9 548.491 207.784 548.249 207.717 547.991L204.782 536.625C204.522 535.625 204.208 535.089 203.633 535.283C203.288 535.399 203.273 535.913 203.329 536.367L205.181 547.144C205.234 547.41 205.233 547.684 205.179 547.949C205.125 548.214 205.018 548.466 204.864 548.689C204.711 548.913 204.515 549.103 204.287 549.249C204.058 549.395 203.803 549.494 203.536 549.54C203.27 549.586 202.996 549.578 202.732 549.516C202.469 549.454 202.22 549.341 202.001 549.181C201.782 549.022 201.597 548.82 201.457 548.588C201.318 548.356 201.226 548.098 201.187 547.83L199.479 537.898C199.23 536.438 198.942 535.897 198.365 535.996C197.776 536.094 197.767 536.572 197.817 536.97L198.879 545.466C198.913 545.937 198.765 546.403 198.465 546.768C198.166 547.133 197.738 547.369 197.27 547.428C196.801 547.486 196.328 547.363 195.948 547.083C195.568 546.803 195.31 546.388 195.227 545.923L194.074 536.675L194.073 536.673L194.073 536.671L193.382 531.126C193.219 530.077 193.017 529.086 192.733 528.108C191.051 522.364 192.532 517.273 192.974 516.18Z" fill="#ABCC63"/>
</g>
<path d="M181.46 566.486C181.595 566.158 181.886 565.804 182.326 565.711C182.645 565.643 193.169 563.428 193.493 563.369C194.418 563.195 195.035 563.42 195.422 563.816C196.011 564.418 202.925 569.919 212.08 571.073C213.059 571.195 212.3 574.884 209.492 574.674C207.567 574.53 202.046 572.712 201.316 573.342C200.753 573.829 200.283 576.919 202.065 582.505L205.651 593.735C205.791 594.24 205.731 594.78 205.481 595.241C205.232 595.702 204.814 596.049 204.314 596.208C203.815 596.368 203.273 596.327 202.803 596.096C202.332 595.864 201.97 595.459 201.792 594.966L198.662 585.166C198.358 584.21 197.924 583.823 197.409 583.979C196.949 584.116 196.834 584.407 197.037 585.33L200.124 597.284C200.19 597.541 200.206 597.809 200.169 598.072C200.132 598.335 200.044 598.589 199.909 598.818C199.774 599.047 199.595 599.247 199.383 599.407C199.171 599.567 198.929 599.683 198.671 599.75C198.414 599.817 198.146 599.833 197.882 599.796C197.619 599.76 197.365 599.671 197.136 599.536C196.906 599.402 196.706 599.223 196.546 599.01C196.386 598.797 196.269 598.555 196.203 598.298L193.268 586.931C193.008 585.932 192.694 585.395 192.119 585.589C191.774 585.706 191.759 586.22 191.815 586.673L193.666 597.451C193.72 597.716 193.719 597.99 193.665 598.255C193.61 598.521 193.503 598.772 193.35 598.996C193.197 599.219 193 599.409 192.772 599.555C192.544 599.702 192.289 599.8 192.022 599.846C191.755 599.892 191.482 599.884 191.218 599.822C190.954 599.761 190.706 599.647 190.487 599.488C190.268 599.328 190.083 599.127 189.943 598.895C189.804 598.662 189.712 598.405 189.673 598.137L187.965 588.204C187.716 586.744 187.428 586.204 186.85 586.302C186.262 586.4 186.253 586.878 186.303 587.277L187.364 595.773C187.399 596.243 187.251 596.709 186.951 597.074C186.652 597.439 186.224 597.675 185.756 597.734C185.287 597.792 184.814 597.669 184.434 597.389C184.054 597.109 183.796 596.694 183.713 596.229L182.56 586.982L182.558 586.98L182.559 586.978L181.868 581.432C181.705 580.384 181.503 579.392 181.218 578.414C179.537 572.67 181.018 567.579 181.46 566.486Z" fill="#ABCC63"/>
<g clip-path="url(#clip10_19_3)">
<path d="M336.122 511.819C336.459 511.708 336.917 511.699 337.275 511.973C337.533 512.17 346.064 518.72 346.319 518.927C347.054 519.516 347.284 520.131 347.235 520.683C347.161 521.522 347.484 530.352 352.566 538.054C353.11 538.877 349.815 540.7 348.147 538.432C347.004 536.877 344.791 531.502 343.838 531.358C343.102 531.247 340.45 532.901 337.368 537.889L331.175 547.92C330.883 548.355 330.433 548.66 329.921 548.771C329.408 548.882 328.873 548.79 328.427 548.515C327.981 548.239 327.659 547.801 327.529 547.293C327.399 546.785 327.471 546.247 327.729 545.791L333.133 537.037C333.661 536.184 333.672 535.603 333.218 535.313C332.816 535.053 332.52 535.155 331.951 535.91L324.884 546.032C324.732 546.251 324.538 546.437 324.314 546.58C324.091 546.723 323.841 546.821 323.579 546.868C323.317 546.914 323.049 546.909 322.789 546.852C322.53 546.795 322.284 546.687 322.066 546.535C321.847 546.383 321.661 546.19 321.517 545.966C321.373 545.742 321.275 545.492 321.229 545.23C321.182 544.968 321.187 544.699 321.245 544.439C321.302 544.18 321.41 543.934 321.562 543.716L328.282 534.09C328.872 533.242 329.075 532.655 328.554 532.345C328.241 532.158 327.841 532.482 327.533 532.819L320.554 541.238C320.387 541.452 320.179 541.629 319.943 541.761C319.706 541.892 319.445 541.975 319.176 542.004C318.906 542.033 318.634 542.007 318.375 541.929C318.115 541.851 317.874 541.722 317.666 541.549C317.457 541.376 317.286 541.163 317.161 540.923C317.036 540.683 316.96 540.42 316.939 540.15C316.917 539.88 316.95 539.608 317.036 539.351C317.121 539.094 317.257 538.857 317.435 538.653L323.865 530.892C324.811 529.753 325.034 529.182 324.584 528.808C324.126 528.425 323.758 528.729 323.488 529.027L317.728 535.361C317.392 535.694 316.942 535.885 316.471 535.895C315.999 535.905 315.541 535.734 315.192 535.416C314.842 535.099 314.628 534.659 314.593 534.188C314.559 533.718 314.706 533.252 315.005 532.886L321.276 525.993L321.277 525.99L321.278 525.989L325.039 521.856C325.729 521.05 326.351 520.251 326.908 519.399C330.175 514.384 335.005 512.195 336.122 511.819Z" fill="#ABCC63"/>
</g>
<g clip-path="url(#clip11_19_3)">
<path d="M348.15 456.339C348.286 456.011 348.577 455.657 349.017 455.564C349.336 455.496 359.86 453.281 360.184 453.222C361.109 453.048 361.726 453.273 362.112 453.669C362.701 454.271 369.616 459.772 378.771 460.926C379.75 461.048 378.991 464.737 376.182 464.527C374.258 464.383 368.737 462.565 368.007 463.195C367.444 463.682 366.974 466.772 368.756 472.358L372.342 483.588C372.482 484.093 372.421 484.633 372.172 485.094C371.923 485.556 371.505 485.902 371.005 486.061C370.506 486.221 369.964 486.18 369.493 485.949C369.023 485.717 368.661 485.312 368.483 484.819L365.353 475.019C365.049 474.063 364.615 473.676 364.099 473.832C363.64 473.969 363.525 474.26 363.728 475.183L366.814 487.137C366.881 487.394 366.897 487.662 366.86 487.925C366.823 488.188 366.734 488.442 366.6 488.671C366.465 488.9 366.286 489.1 366.074 489.26C365.861 489.42 365.62 489.536 365.362 489.603C365.105 489.67 364.837 489.686 364.573 489.649C364.31 489.613 364.056 489.524 363.827 489.39C363.597 489.255 363.397 489.076 363.237 488.863C363.077 488.65 362.96 488.408 362.894 488.151L359.958 476.784C359.699 475.785 359.385 475.248 358.81 475.442C358.465 475.559 358.45 476.073 358.506 476.526L360.357 487.304C360.41 487.569 360.41 487.843 360.356 488.108C360.301 488.374 360.194 488.625 360.041 488.849C359.888 489.072 359.691 489.262 359.463 489.409C359.235 489.555 358.98 489.653 358.713 489.699C358.446 489.745 358.173 489.737 357.909 489.675C357.645 489.614 357.397 489.5 357.178 489.341C356.959 489.181 356.774 488.98 356.634 488.748C356.494 488.516 356.403 488.258 356.364 487.99L354.656 478.057C354.407 476.597 354.118 476.057 353.541 476.155C352.953 476.253 352.944 476.731 352.994 477.13L354.055 485.626C354.089 486.096 353.942 486.562 353.642 486.927C353.343 487.292 352.915 487.528 352.446 487.587C351.978 487.645 351.505 487.522 351.125 487.242C350.745 486.962 350.487 486.547 350.404 486.082L349.251 476.835L349.249 476.833L349.249 476.831L348.559 471.285C348.396 470.237 348.194 469.245 347.909 468.267C346.228 462.524 347.709 457.432 348.15 456.339Z" fill="#ABCC63"/>
</g>
<g clip-path="url(#clip12_19_3)">
<path d="M373.013 432.791C372.879 432.462 372.837 432.006 373.084 431.63C373.263 431.358 379.186 422.381 379.374 422.111C379.909 421.337 380.506 421.063 381.06 421.073C381.902 421.086 390.686 420.133 398.006 414.514C398.787 413.912 400.842 417.068 398.698 418.894C397.229 420.146 392.026 422.737 391.95 423.698C391.892 424.44 393.732 426.967 398.928 429.684L409.375 435.145C409.83 435.405 410.167 435.831 410.314 436.335C410.461 436.838 410.408 437.379 410.165 437.843C409.922 438.308 409.508 438.66 409.011 438.826C408.514 438.992 407.971 438.959 407.498 438.734L398.38 433.969C397.491 433.504 396.911 433.534 396.654 434.008C396.424 434.428 396.547 434.716 397.341 435.229L407.942 441.555C408.171 441.691 408.37 441.87 408.529 442.083C408.688 442.296 408.803 442.539 408.868 442.796C408.934 443.054 408.948 443.322 408.909 443.585C408.871 443.848 408.781 444.101 408.645 444.329C408.509 444.558 408.33 444.758 408.116 444.917C407.903 445.077 407.661 445.192 407.403 445.258C407.145 445.323 406.877 445.337 406.613 445.299C406.35 445.26 406.097 445.17 405.869 445.033L395.787 439.019C394.9 438.491 394.299 438.33 394.027 438.872C393.864 439.198 394.215 439.574 394.573 439.857L403.47 446.216C403.695 446.367 403.887 446.562 404.035 446.789C404.183 447.015 404.284 447.27 404.332 447.536C404.38 447.803 404.374 448.076 404.315 448.34C404.255 448.605 404.144 448.854 403.986 449.075C403.829 449.295 403.629 449.482 403.398 449.623C403.167 449.765 402.91 449.859 402.642 449.9C402.375 449.94 402.101 449.927 401.839 449.86C401.576 449.794 401.33 449.675 401.114 449.512L392.913 443.653C391.709 442.791 391.124 442.609 390.783 443.085C390.434 443.569 390.764 443.915 391.08 444.163L397.81 449.455C398.165 449.766 398.388 450.201 398.432 450.671C398.476 451.141 398.338 451.61 398.046 451.981C397.754 452.352 397.331 452.597 396.864 452.665C396.397 452.734 395.921 452.62 395.536 452.348L388.212 446.586L388.209 446.585L388.208 446.584L383.816 443.128C382.963 442.497 382.122 441.934 381.232 441.439C375.997 438.539 373.468 433.878 373.013 432.791Z" fill="#ABCC63"/>
</g>
<path d="M372.644 376.06C372.484 375.742 372.408 375.291 372.626 374.897C372.783 374.612 378.002 365.208 378.169 364.925C378.644 364.112 379.218 363.793 379.77 363.76C380.611 363.709 389.297 362.087 396.165 355.924C396.898 355.264 399.188 358.254 397.191 360.239C395.822 361.599 390.831 364.58 390.83 365.544C390.829 366.289 392.856 368.668 398.245 370.98L409.079 375.625C409.553 375.85 409.921 376.249 410.106 376.74C410.292 377.23 410.28 377.773 410.073 378.255C409.866 378.737 409.481 379.12 408.998 379.323C408.514 379.527 407.971 379.535 407.482 379.347L398.026 375.294C397.105 374.898 396.528 374.973 396.309 375.464C396.111 375.901 396.256 376.179 397.087 376.63L408.141 382.126C408.379 382.244 408.591 382.408 408.766 382.608C408.941 382.808 409.075 383.041 409.159 383.293C409.244 383.545 409.278 383.811 409.26 384.076C409.242 384.342 409.172 384.601 409.054 384.839C408.936 385.077 408.772 385.29 408.572 385.465C408.372 385.641 408.139 385.774 407.886 385.859C407.634 385.944 407.368 385.979 407.102 385.96C406.837 385.942 406.578 385.871 406.34 385.753L395.828 380.527C394.902 380.069 394.291 379.954 394.061 380.516C393.923 380.853 394.302 381.201 394.681 381.456L404.038 387.115C404.274 387.249 404.48 387.428 404.645 387.643C404.81 387.858 404.93 388.104 404.999 388.366C405.067 388.628 405.082 388.901 405.043 389.169C405.004 389.437 404.912 389.695 404.772 389.926C404.631 390.158 404.446 390.359 404.227 390.518C404.008 390.677 403.759 390.791 403.495 390.852C403.231 390.913 402.958 390.92 402.691 390.874C402.424 390.828 402.169 390.728 401.941 390.582L393.316 385.368C392.05 384.6 391.453 384.463 391.149 384.964C390.838 385.474 391.193 385.793 391.527 386.016L398.643 390.778C399.021 391.061 399.276 391.478 399.356 391.943C399.435 392.408 399.334 392.886 399.071 393.279C398.809 393.671 398.405 393.947 397.945 394.051C397.485 394.155 397.002 394.078 396.596 393.836L388.853 388.651L388.85 388.651L388.849 388.65L384.206 385.54C383.307 384.976 382.425 384.48 381.5 384.054C376.058 381.563 373.181 377.109 372.644 376.06Z" fill="#ABCC63"/>
<g clip-path="url(#clip13_19_3)">
<path d="M414.52 323.569C414.576 323.219 414.777 322.807 415.184 322.614C415.478 322.474 425.202 317.879 425.503 317.747C426.362 317.363 427.015 317.439 427.483 317.735C428.195 318.184 436.197 321.931 445.37 320.931C446.351 320.822 446.467 324.586 443.687 325.034C441.782 325.34 435.989 324.852 435.426 325.634C434.991 326.238 435.25 329.353 438.279 334.373L444.371 344.466C444.625 344.924 444.691 345.464 444.555 345.97C444.42 346.477 444.093 346.911 443.644 347.182C443.195 347.452 442.659 347.539 442.148 347.422C441.637 347.306 441.19 346.996 440.903 346.558L435.585 337.751C435.068 336.891 434.556 336.616 434.091 336.887C433.676 337.127 433.632 337.437 434.043 338.288L439.817 349.199C439.942 349.434 440.019 349.691 440.044 349.956C440.069 350.22 440.042 350.487 439.964 350.741C439.886 350.995 439.759 351.232 439.589 351.436C439.42 351.641 439.212 351.811 438.977 351.935C438.742 352.06 438.485 352.138 438.22 352.163C437.955 352.189 437.688 352.162 437.433 352.084C437.179 352.006 436.943 351.878 436.738 351.708C436.533 351.539 436.363 351.33 436.239 351.095L430.748 340.719C430.263 339.807 429.833 339.358 429.319 339.68C429.011 339.873 429.115 340.377 429.275 340.805L433.575 350.859C433.688 351.105 433.751 351.372 433.76 351.642C433.769 351.913 433.723 352.183 433.626 352.435C433.528 352.688 433.381 352.919 433.193 353.114C433.005 353.309 432.78 353.464 432.531 353.571C432.282 353.677 432.014 353.733 431.744 353.734C431.473 353.735 431.204 353.682 430.954 353.578C430.704 353.474 430.478 353.32 430.288 353.127C430.098 352.934 429.949 352.704 429.85 352.453L425.884 343.187C425.304 341.825 424.898 341.365 424.36 341.595C423.81 341.827 423.912 342.294 424.053 342.67L427.056 350.688C427.198 351.138 427.162 351.626 426.956 352.05C426.749 352.475 426.387 352.804 425.945 352.969C425.503 353.135 425.015 353.124 424.58 352.94C424.146 352.756 423.798 352.412 423.61 351.979L420.344 343.251L420.342 343.249L420.341 343.248L418.384 338.013C417.982 337.031 417.556 336.114 417.052 335.228C414.085 330.031 414.344 324.735 414.52 323.569Z" fill="#ABCC63"/>
</g>
<path d="M254.959 446.379C254.85 446.716 254.588 447.092 254.156 447.22C253.844 447.312 243.527 450.349 243.209 450.434C242.301 450.68 241.668 450.505 241.251 450.14C240.616 449.586 233.29 444.647 224.072 444.218C223.087 444.174 223.553 440.437 226.369 440.425C228.299 440.416 233.946 441.794 234.624 441.108C235.147 440.578 235.372 437.461 233.155 432.033L228.696 421.12C228.516 420.628 228.535 420.085 228.747 419.605C228.959 419.126 229.349 418.747 229.834 418.549C230.319 418.351 230.863 418.349 231.35 418.543C231.837 418.737 232.23 419.112 232.446 419.589L236.339 429.112C236.717 430.041 237.18 430.392 237.682 430.196C238.129 430.023 238.221 429.724 237.945 428.82L233.927 417.147C233.84 416.896 233.804 416.63 233.82 416.365C233.836 416.099 233.904 415.84 234.02 415.601C234.137 415.362 234.299 415.148 234.498 414.972C234.697 414.796 234.929 414.661 235.18 414.574C235.431 414.487 235.698 414.45 235.963 414.466C236.229 414.481 236.489 414.549 236.728 414.666C236.967 414.782 237.181 414.945 237.357 415.144C237.534 415.343 237.669 415.576 237.755 415.827L241.577 426.927C241.915 427.903 242.27 428.413 242.828 428.174C243.162 428.031 243.137 427.518 243.046 427.07L240.351 416.472C240.277 416.211 240.256 415.938 240.289 415.67C240.322 415.401 240.409 415.141 240.544 414.907C240.679 414.672 240.86 414.467 241.076 414.303C241.292 414.14 241.538 414.021 241.801 413.954C242.063 413.887 242.337 413.874 242.604 413.915C242.872 413.955 243.129 414.049 243.36 414.191C243.591 414.332 243.791 414.519 243.949 414.739C244.106 414.959 244.218 415.209 244.277 415.473L246.763 425.241C247.126 426.676 247.456 427.192 248.024 427.048C248.603 426.904 248.574 426.427 248.493 426.034L246.765 417.648C246.694 417.182 246.805 416.705 247.075 416.318C247.344 415.931 247.752 415.661 248.215 415.566C248.677 415.471 249.158 415.557 249.559 415.806C249.96 416.055 250.25 416.449 250.369 416.905L252.247 426.033L252.249 426.035L252.249 426.037L253.374 431.511C253.619 432.543 253.899 433.516 254.26 434.468C256.388 440.062 255.313 445.254 254.959 446.379Z" fill="#ABCC63"/>
<g clip-path="url(#clip14_19_3)">
<path d="M458.252 399.7C458.427 400.009 458.525 400.456 458.326 400.861C458.183 401.153 453.421 410.796 453.268 411.087C452.833 411.922 452.275 412.269 451.725 412.328C450.887 412.419 442.29 414.457 435.725 420.942C435.025 421.637 432.594 418.76 434.494 416.682C435.796 415.258 440.637 412.04 440.592 411.077C440.558 410.333 438.418 408.054 432.925 406.004L421.88 401.885C421.396 401.683 421.009 401.302 420.8 400.821C420.591 400.34 420.577 399.796 420.761 399.305C420.944 398.814 421.311 398.413 421.783 398.187C422.256 397.96 422.799 397.925 423.296 398.09L432.936 401.684C433.875 402.036 434.447 401.933 434.643 401.432C434.819 400.986 434.662 400.716 433.81 400.305L422.505 395.346C422.261 395.24 422.041 395.086 421.857 394.894C421.673 394.703 421.528 394.477 421.431 394.229C421.334 393.982 421.287 393.717 421.293 393.452C421.298 393.186 421.356 392.924 421.463 392.68C421.569 392.436 421.722 392.216 421.914 392.031C422.105 391.847 422.332 391.702 422.579 391.605C422.827 391.508 423.092 391.461 423.358 391.466C423.624 391.472 423.886 391.53 424.13 391.637L434.88 396.352C435.827 396.765 436.443 396.85 436.645 396.278C436.767 395.935 436.372 395.605 435.981 395.369L426.363 390.166C426.121 390.043 425.906 389.874 425.731 389.667C425.556 389.46 425.424 389.221 425.343 388.962C425.263 388.704 425.234 388.432 425.26 388.162C425.286 387.893 425.366 387.631 425.495 387.393C425.624 387.155 425.799 386.945 426.011 386.775C426.222 386.606 426.465 386.481 426.726 386.407C426.987 386.333 427.259 386.313 427.528 386.346C427.797 386.38 428.056 386.467 428.291 386.602L437.156 391.396C438.458 392.102 439.061 392.209 439.34 391.695C439.627 391.171 439.256 390.869 438.912 390.662L431.576 386.247C431.185 385.983 430.91 385.579 430.808 385.118C430.706 384.657 430.785 384.175 431.028 383.771C431.271 383.366 431.661 383.07 432.116 382.945C432.571 382.819 433.057 382.872 433.473 383.094L441.457 387.902L441.459 387.902L441.461 387.903L446.248 390.786C447.173 391.306 448.077 391.76 449.022 392.14C454.577 394.367 457.665 398.678 458.252 399.7Z" fill="#ABCC63"/>
</g>
<g clip-path="url(#clip15_19_3)">
<path d="M141.054 496.651C141.274 496.93 141.438 497.357 141.303 497.787C141.206 498.097 137.961 508.352 137.854 508.662C137.551 509.554 137.052 509.98 136.517 510.122C135.703 510.339 127.513 513.657 122.008 521.063C121.421 521.855 118.582 519.381 120.145 517.038C121.216 515.433 125.513 511.519 125.323 510.574C125.176 509.844 122.716 507.916 116.976 506.722L105.433 504.325C104.924 504.199 104.484 503.88 104.205 503.437C103.926 502.993 103.83 502.458 103.936 501.945C104.043 501.431 104.345 500.98 104.778 500.684C105.211 500.388 105.741 500.272 106.258 500.359L116.331 502.45C117.313 502.655 117.863 502.467 117.981 501.942C118.087 501.474 117.89 501.231 116.986 500.954L105.06 497.767C104.803 497.699 104.562 497.58 104.351 497.419C104.14 497.257 103.963 497.056 103.829 496.826C103.696 496.596 103.61 496.342 103.575 496.078C103.54 495.815 103.557 495.547 103.626 495.29C103.694 495.033 103.812 494.791 103.973 494.58C104.135 494.368 104.336 494.191 104.567 494.057C104.797 493.924 105.051 493.837 105.315 493.803C105.579 493.768 105.847 493.785 106.104 493.854L117.445 496.885C118.443 497.15 119.065 497.14 119.178 496.544C119.247 496.187 118.806 495.921 118.384 495.746L108.088 492.061C107.831 491.977 107.593 491.842 107.388 491.664C107.184 491.487 107.017 491.27 106.898 491.027C106.779 490.783 106.71 490.519 106.695 490.248C106.68 489.978 106.719 489.707 106.81 489.452C106.901 489.197 107.043 488.963 107.226 488.764C107.409 488.564 107.631 488.404 107.877 488.291C108.124 488.179 108.39 488.117 108.661 488.109C108.932 488.102 109.201 488.148 109.454 488.247L118.943 491.641C120.337 492.142 120.949 492.157 121.147 491.605C121.351 491.044 120.939 490.802 120.568 490.65L112.647 487.398C112.22 487.196 111.887 486.839 111.717 486.399C111.546 485.958 111.551 485.47 111.73 485.033C111.909 484.596 112.249 484.245 112.68 484.052C113.11 483.858 113.599 483.838 114.044 483.994L122.664 487.535L122.667 487.535L122.669 487.536L127.837 489.66C128.831 490.034 129.793 490.345 130.785 490.578C136.613 491.937 140.319 495.729 141.054 496.651Z" fill="#ABCC63"/>
</g>
<g clip-path="url(#clip16_19_3)">
<path d="M304.034 397.607C304.091 397.958 304.029 398.411 303.703 398.722C303.468 398.947 295.674 406.358 295.43 406.578C294.734 407.212 294.09 407.345 293.553 407.21C292.736 407.007 283.962 405.957 275.565 409.781C274.668 410.192 273.378 406.654 275.878 405.358C277.591 404.469 283.244 403.118 283.535 402.199C283.758 401.488 282.536 398.612 278.086 394.794L269.138 387.119C268.753 386.763 268.521 386.271 268.491 385.748C268.461 385.225 268.635 384.71 268.977 384.312C269.318 383.914 269.801 383.664 270.322 383.614C270.844 383.565 271.365 383.719 271.776 384.045L279.585 390.742C280.346 391.396 280.918 391.497 281.275 391.094C281.594 390.736 281.539 390.428 280.881 389.749L271.979 381.197C271.787 381.013 271.633 380.793 271.526 380.549C271.419 380.306 271.361 380.044 271.356 379.778C271.35 379.512 271.397 379.248 271.494 379.001C271.591 378.753 271.735 378.527 271.919 378.335C272.103 378.143 272.323 377.988 272.567 377.881C272.81 377.774 273.073 377.716 273.339 377.71C273.605 377.705 273.869 377.752 274.117 377.849C274.365 377.946 274.591 378.091 274.783 378.275L283.249 386.407C283.995 387.121 284.544 387.413 284.931 386.946C285.164 386.666 284.907 386.221 284.621 385.864L277.386 377.664C277.202 377.466 277.058 377.233 276.965 376.978C276.872 376.724 276.831 376.453 276.844 376.183C276.857 375.912 276.925 375.647 277.042 375.403C277.159 375.159 277.325 374.941 277.528 374.762C277.731 374.583 277.968 374.446 278.225 374.36C278.481 374.274 278.753 374.24 279.023 374.261C279.293 374.282 279.556 374.356 279.797 374.48C280.038 374.604 280.251 374.775 280.425 374.983L287.094 382.54C288.072 383.651 288.601 383.96 289.041 383.573C289.49 383.18 289.247 382.769 288.995 382.456L283.631 375.783C283.354 375.4 283.236 374.926 283.299 374.458C283.362 373.991 283.602 373.565 283.97 373.269C284.338 372.973 284.805 372.83 285.276 372.869C285.746 372.908 286.184 373.125 286.498 373.477L292.335 380.742L292.338 380.743L292.339 380.745L295.838 385.101C296.527 385.908 297.22 386.646 297.976 387.329C302.422 391.334 303.835 396.445 304.034 397.607Z" fill="#ABCC63"/>
</g>
<g clip-path="url(#clip17_19_3)">
<path d="M336.872 342.124C337.074 342.416 337.213 342.852 337.052 343.273C336.936 343.577 333.082 353.617 332.956 353.921C332.6 354.793 332.076 355.189 331.533 355.298C330.708 355.466 322.334 358.286 316.394 365.348C315.761 366.104 313.075 363.463 314.776 361.219C315.942 359.681 320.466 356.031 320.333 355.077C320.23 354.339 317.89 352.267 312.232 350.731L300.854 347.645C300.354 347.489 299.933 347.144 299.681 346.685C299.429 346.225 299.365 345.685 299.503 345.179C299.64 344.673 299.968 344.24 300.418 343.971C300.868 343.702 301.405 343.618 301.916 343.736L311.845 346.428C312.813 346.692 313.373 346.537 313.522 346.02C313.656 345.56 313.475 345.305 312.589 344.974L300.875 341.077C300.623 340.993 300.39 340.86 300.188 340.686C299.987 340.513 299.823 340.301 299.704 340.063C299.584 339.826 299.513 339.567 299.494 339.302C299.475 339.037 299.508 338.77 299.592 338.518C299.676 338.265 299.808 338.032 299.982 337.83C300.156 337.629 300.368 337.463 300.605 337.344C300.843 337.225 301.102 337.154 301.368 337.135C301.633 337.116 301.9 337.149 302.152 337.234L313.291 340.939C314.271 341.264 314.893 341.292 315.041 340.704C315.131 340.351 314.708 340.059 314.297 339.86L304.24 335.563C303.989 335.464 303.759 335.315 303.566 335.125C303.372 334.935 303.219 334.709 303.115 334.459C303.01 334.209 302.957 333.94 302.958 333.67C302.96 333.399 303.015 333.131 303.121 332.882C303.228 332.633 303.383 332.408 303.578 332.22C303.773 332.032 304.004 331.885 304.256 331.787C304.509 331.69 304.779 331.644 305.05 331.653C305.32 331.661 305.586 331.724 305.832 331.837L315.101 335.795C316.462 336.379 317.073 336.43 317.303 335.892C317.541 335.344 317.144 335.078 316.782 334.903L309.071 331.182C308.657 330.955 308.346 330.578 308.202 330.128C308.059 329.679 308.093 329.191 308.298 328.766C308.503 328.341 308.863 328.011 309.305 327.844C309.746 327.676 310.235 327.685 310.67 327.868L319.062 331.92L319.065 331.92L319.066 331.921L324.098 334.352C325.067 334.785 326.009 335.153 326.985 335.445C332.722 337.152 336.193 341.16 336.872 342.124Z" fill="#ABCC63"/>
</g>
<g clip-path="url(#clip18_19_3)">
<path d="M369.097 308.239C369.041 308.589 368.839 309 368.432 309.193C368.138 309.332 358.407 313.912 358.106 314.044C357.246 314.426 356.593 314.35 356.126 314.053C355.414 313.603 347.418 309.843 338.243 310.829C337.263 310.936 337.152 307.171 339.933 306.728C341.838 306.425 347.63 306.922 348.195 306.141C348.631 305.538 348.377 302.423 345.355 297.397L339.279 287.295C339.026 286.836 338.961 286.297 339.097 285.79C339.234 285.284 339.561 284.85 340.01 284.58C340.46 284.31 340.996 284.225 341.507 284.342C342.018 284.459 342.464 284.77 342.751 285.209L348.054 294.024C348.57 294.884 349.082 295.16 349.547 294.89C349.963 294.651 350.008 294.341 349.597 293.49L343.841 282.569C343.716 282.334 343.64 282.077 343.615 281.812C343.59 281.547 343.618 281.28 343.696 281.026C343.775 280.773 343.903 280.537 344.072 280.332C344.242 280.127 344.45 279.958 344.686 279.834C344.921 279.71 345.178 279.632 345.443 279.607C345.708 279.582 345.975 279.61 346.229 279.688C346.483 279.767 346.72 279.895 346.924 280.065C347.129 280.235 347.298 280.443 347.422 280.679L352.897 291.063C353.38 291.976 353.809 292.426 354.323 292.105C354.633 291.912 354.529 291.408 354.37 290.98L350.086 280.919C349.973 280.672 349.91 280.406 349.902 280.135C349.894 279.865 349.94 279.595 350.037 279.342C350.135 279.09 350.282 278.859 350.471 278.665C350.659 278.47 350.884 278.315 351.134 278.209C351.383 278.103 351.651 278.048 351.922 278.047C352.192 278.046 352.461 278.1 352.711 278.204C352.96 278.309 353.187 278.463 353.376 278.656C353.565 278.85 353.714 279.079 353.813 279.331L357.764 288.603C358.342 289.966 358.748 290.426 359.286 290.197C359.837 289.966 359.735 289.499 359.595 289.123L356.605 281.1C356.463 280.65 356.5 280.162 356.707 279.738C356.914 279.314 357.276 278.986 357.718 278.821C358.161 278.656 358.649 278.667 359.084 278.852C359.518 279.037 359.865 279.381 360.052 279.815L363.305 288.548L363.307 288.549L363.307 288.551L365.257 293.788C365.657 294.771 366.082 295.69 366.584 296.576C369.543 301.778 369.275 307.073 369.097 308.239Z" fill="#ABCC63"/>
</g>
<g clip-path="url(#clip19_19_3)">
<path d="M401.817 262.885C401.874 263.235 401.812 263.689 401.486 264C401.251 264.225 393.456 271.636 393.213 271.856C392.517 272.49 391.873 272.623 391.336 272.488C390.519 272.285 381.745 271.235 373.348 275.059C372.451 275.47 371.161 271.931 373.661 270.635C375.374 269.747 381.027 268.396 381.318 267.476C381.541 266.766 380.319 263.89 375.869 260.071L366.921 252.397C366.536 252.041 366.304 251.549 366.274 251.026C366.244 250.502 366.418 249.988 366.76 249.59C367.101 249.192 367.584 248.942 368.105 248.892C368.627 248.843 369.148 248.997 369.559 249.323L377.368 256.02C378.129 256.674 378.701 256.775 379.058 256.371C379.377 256.014 379.322 255.706 378.664 255.027L369.762 246.474C369.57 246.291 369.416 246.071 369.309 245.827C369.202 245.584 369.144 245.322 369.139 245.056C369.133 244.79 369.18 244.526 369.277 244.278C369.374 244.031 369.518 243.805 369.702 243.613C369.886 243.421 370.106 243.266 370.35 243.159C370.593 243.052 370.856 242.994 371.122 242.988C371.388 242.983 371.652 243.03 371.9 243.127C372.148 243.223 372.374 243.368 372.566 243.553L381.032 251.685C381.778 252.399 382.327 252.691 382.714 252.224C382.947 251.944 382.69 251.498 382.404 251.142L375.169 242.942C374.984 242.743 374.841 242.51 374.748 242.256C374.655 242.002 374.614 241.731 374.627 241.461C374.64 241.19 374.708 240.925 374.825 240.681C374.942 240.437 375.107 240.219 375.311 240.04C375.514 239.861 375.751 239.724 376.007 239.638C376.264 239.552 376.536 239.518 376.806 239.539C377.076 239.559 377.339 239.634 377.58 239.758C377.821 239.882 378.034 240.053 378.207 240.261L384.877 247.817C385.855 248.929 386.384 249.238 386.824 248.851C387.273 248.458 387.03 248.047 386.778 247.734L381.414 241.061C381.137 240.678 381.019 240.204 381.082 239.736C381.145 239.268 381.385 238.843 381.753 238.547C382.121 238.251 382.588 238.108 383.059 238.147C383.529 238.185 383.967 238.403 384.281 238.755L390.118 246.02L390.121 246.021L390.122 246.022L393.621 250.379C394.31 251.186 395.003 251.924 395.759 252.607C400.205 256.612 401.618 261.723 401.817 262.885Z" fill="#ABCC63"/>
</g>
<g clip-path="url(#clip20_19_3)">
<path d="M408.567 511.251C408.354 511.536 407.985 511.806 407.535 511.788C407.21 511.774 396.464 511.314 396.136 511.291C395.197 511.231 394.655 510.86 394.378 510.38C393.957 509.651 388.619 502.609 380.035 499.224C379.117 498.863 380.767 495.478 383.435 496.376C385.264 496.992 390.163 500.121 391.026 499.691C391.693 499.359 392.913 496.482 392.57 490.628L391.877 478.86C391.866 478.336 392.058 477.828 392.414 477.443C392.77 477.058 393.261 476.825 393.784 476.795C394.308 476.764 394.823 476.937 395.221 477.278C395.619 477.619 395.87 478.101 395.92 478.623L396.526 488.893C396.584 489.895 396.909 490.376 397.447 490.353C397.926 490.334 398.109 490.081 398.141 489.136L398.111 476.791C398.11 476.525 398.161 476.262 398.262 476.016C398.363 475.77 398.511 475.546 398.699 475.358C398.886 475.169 399.109 475.019 399.354 474.917C399.599 474.815 399.863 474.762 400.128 474.761C400.394 474.759 400.658 474.811 400.904 474.911C401.151 475.012 401.375 475.16 401.563 475.348C401.752 475.535 401.902 475.758 402.005 476.004C402.107 476.25 402.16 476.513 402.16 476.779L402.19 488.518C402.194 489.551 402.365 490.149 402.97 490.103C403.333 490.076 403.475 489.581 403.533 489.128L404.408 478.228C404.422 477.957 404.491 477.692 404.609 477.449C404.727 477.205 404.893 476.988 405.097 476.809C405.301 476.631 405.538 476.495 405.796 476.41C406.053 476.325 406.324 476.292 406.594 476.314C406.864 476.336 407.127 476.411 407.367 476.536C407.608 476.661 407.82 476.833 407.993 477.042C408.166 477.251 408.295 477.492 408.373 477.751C408.451 478.01 408.476 478.283 408.447 478.552L407.642 488.599C407.522 490.074 407.667 490.67 408.251 490.717C408.846 490.768 408.972 490.307 409.023 489.908L410.098 481.414C410.182 480.95 410.44 480.535 410.821 480.256C411.201 479.976 411.674 479.853 412.143 479.913C412.611 479.972 413.039 480.209 413.338 480.574C413.636 480.939 413.784 481.405 413.749 481.876L412.576 491.121L412.577 491.124L412.576 491.125L411.872 496.669C411.77 497.725 411.721 498.736 411.754 499.754C411.961 505.735 409.265 510.301 408.567 511.251Z" fill="#ABCC63"/>
</g>
</g>
<defs>
<clipPath id="clip0_19_3">
<rect width="655.879" height="757.905" fill="white" transform="translate(214.445) rotate(37.7923)"/>
</clipPath>
<clipPath id="clip1_19_3">
<rect width="38.7859" height="38.7859" fill="white" transform="translate(116.589 637.657) rotate(157.911)"/>
</clipPath>
<clipPath id="clip2_19_3">
<rect width="38.7859" height="38.7859" fill="white" transform="translate(250.94 397.62) rotate(157.911)"/>
</clipPath>
<clipPath id="clip3_19_3">
<rect width="38.7859" height="38.7859" fill="white" transform="translate(130.57 473.361) rotate(-176.606)"/>
</clipPath>
<clipPath id="clip4_19_3">
<rect width="38.7859" height="38.7859" fill="white" transform="translate(107.373 627.474) rotate(-22.1187)"/>
</clipPath>
<clipPath id="clip5_19_3">
<rect width="38.7859" height="38.7859" fill="white" transform="translate(231.535 556.288) rotate(-22.1187)"/>
</clipPath>
<clipPath id="clip6_19_3">
<rect width="38.7859" height="38.7859" fill="white" transform="translate(157.349 612.706) rotate(-175.729)"/>
</clipPath>
<clipPath id="clip7_19_3">
<rect width="38.7859" height="38.7859" fill="white" transform="translate(300.896 532.371) rotate(-150.471)"/>
</clipPath>
<clipPath id="clip8_19_3">
<rect width="38.7859" height="38.7859" fill="white" transform="translate(273.485 535.953) rotate(170.152)"/>
</clipPath>
<clipPath id="clip9_19_3">
<rect width="38.7859" height="38.7859" fill="white" transform="translate(225.136 552.254) rotate(-175.729)"/>
</clipPath>
<clipPath id="clip10_19_3">
<rect width="38.7859" height="38.7859" fill="white" transform="translate(329.662 559.716) rotate(-126.328)"/>
</clipPath>
<clipPath id="clip11_19_3">
<rect width="38.7859" height="38.7859" fill="white" transform="translate(380.313 492.413) rotate(-175.729)"/>
</clipPath>
<clipPath id="clip12_19_3">
<rect width="38.7859" height="38.7859" fill="white" transform="translate(421.249 435.811) rotate(139.573)"/>
</clipPath>
<clipPath id="clip13_19_3">
<rect width="38.7859" height="38.7859" fill="white" transform="translate(454.172 351.202) rotate(170.862)"/>
</clipPath>
<clipPath id="clip14_19_3">
<rect width="38.7859" height="38.7859" fill="white" transform="translate(410.015 402.7) rotate(-47.5683)"/>
</clipPath>
<clipPath id="clip15_19_3">
<rect width="38.7859" height="38.7859" fill="white" transform="translate(93.8296 506.929) rotate(-56.2882)"/>
</clipPath>
<clipPath id="clip16_19_3">
<rect width="38.7859" height="38.7859" fill="white" transform="translate(257.719 383.794) rotate(-27.4025)"/>
</clipPath>
<clipPath id="clip17_19_3">
<rect width="38.7859" height="38.7859" fill="white" transform="translate(289.115 349.548) rotate(-52.8463)"/>
</clipPath>
<clipPath id="clip18_19_3">
<rect width="38.7859" height="38.7859" fill="white" transform="translate(327.142 284.425) rotate(-18.5413)"/>
</clipPath>
<clipPath id="clip19_19_3">
<rect width="38.7859" height="38.7859" fill="white" transform="translate(355.503 249.072) rotate(-27.4025)"/>
</clipPath>
<clipPath id="clip20_19_3">
<rect width="38.7859" height="38.7859" fill="white" transform="translate(386.339 468.336) rotate(18.6086)"/>
</clipPath>
</defs>
</svg>
