<svg width="428" height="926" viewBox="0 0 428 926" fill="none" xmlns="http://www.w3.org/2000/svg">
<path d="M214.483 364.859C213.946 365.664 213.61 366.537 213.811 366.805C214.282 367.611 217.771 366.201 219.181 364.657C220.322 363.449 220.254 363.382 217.906 363.382C216.228 363.382 215.221 363.785 214.483 364.859Z" fill="black" fill-opacity="0.9"/>
<path d="M195.087 367.007C194.886 367.544 194.953 368.215 195.289 368.416C196.161 368.953 196.899 367.409 196.094 366.604C195.691 366.201 195.356 366.335 195.087 367.007Z" fill="black" fill-opacity="0.9"/>
<path d="M206.362 367.678C201.262 369.691 196.295 372.175 191.396 375.262C185.289 379.154 168.443 391.168 168.779 391.436C169.517 392.175 173.611 390.43 178.645 387.208C181.732 385.262 185.624 383.181 187.302 382.644C189.651 381.839 190.255 381.302 190.255 380.094C190.255 378.685 190.725 378.416 193.544 378.013C195.289 377.745 198.309 376.805 200.188 375.866C205.222 373.45 213.409 365.933 210.926 366.067C210.591 366.134 208.577 366.805 206.362 367.678Z" fill="black" fill-opacity="0.9"/>
<path d="M239.718 367.208C239.852 368.014 240.523 368.416 241.597 368.416C242.671 368.416 243.342 368.014 243.477 367.208C243.678 366.336 243.275 366.067 241.597 366.067C239.919 366.067 239.517 366.336 239.718 367.208Z" fill="black" fill-opacity="0.9"/>
<path d="M188.241 370.497C186.966 371.772 187.235 372.309 188.845 371.705C189.449 371.503 189.919 370.899 189.919 370.363C189.919 369.155 189.584 369.155 188.241 370.497Z" fill="black" fill-opacity="0.9"/>
<path d="M214.416 372.107C211.127 373.181 207.101 374.389 205.557 374.792C203.812 375.194 202.604 376 202.335 376.805C201.664 378.886 198.376 381.235 193.409 383.114C189.92 384.456 187.973 385.731 185.557 388.282C183.074 390.899 180.457 392.577 173.543 395.933C164.617 400.295 159.718 403.651 159.718 405.396C159.718 406.671 159.852 406.604 164.08 404.59C166.094 403.651 168.846 402.711 170.255 402.51C171.866 402.242 173.812 401.235 175.557 399.624C177.101 398.215 179.852 396.604 181.933 395.933C188.04 393.919 190.322 392.443 194.349 387.879C198.443 383.248 201.664 380.832 203.678 380.832C204.349 380.832 206.228 379.624 207.839 378.08C211.329 374.859 214.416 373.45 217.973 373.45C219.651 373.45 220.993 372.98 221.664 372.242C224.148 369.49 222.604 369.49 214.416 372.107Z" fill="black" fill-opacity="0.9"/>
<path d="M227.839 374.859C225.154 375.463 223.208 377.141 223.879 378.215C224.08 378.55 225.221 378.819 226.496 378.819C228.107 378.819 229.114 378.349 230.12 377.074C231.53 375.262 231.933 374.054 231.06 374.188C230.725 374.255 229.315 374.523 227.839 374.859Z" fill="black" fill-opacity="0.9"/>
<path d="M232.873 375.463C232.873 376.537 233.342 376.805 235.222 376.805C237.101 376.805 237.57 376.537 237.57 375.463C237.57 374.389 237.101 374.121 235.222 374.121C233.342 374.121 232.873 374.389 232.873 375.463Z" fill="black" fill-opacity="0.9"/>
<path d="M244.551 375.128C244.752 375.732 244.953 376.403 244.953 376.537C244.953 376.671 245.423 376.806 246.027 376.806C247.504 376.806 246.9 374.524 245.356 374.255C244.416 374.054 244.215 374.255 244.551 375.128Z" fill="black" fill-opacity="0.9"/>
<path d="M220.322 377.812C220.121 378.416 220.121 379.02 220.322 379.222C220.926 379.826 222.134 378.819 222.134 377.745C222.134 376.47 220.859 376.537 220.322 377.812Z" fill="black" fill-opacity="0.9"/>
<path d="M212.47 380.564C212.067 381.57 213.61 383.449 214.953 383.517C215.691 383.517 215.49 381.168 214.617 380.295C213.544 379.221 212.94 379.288 212.47 380.564Z" fill="black" fill-opacity="0.9"/>
<path d="M232.134 380.161C225.087 380.497 225.02 380.497 223.208 382.645C221.865 384.188 220.792 384.859 219.382 384.859C218.309 384.859 216.295 385.262 214.953 385.799C213.543 386.336 208.98 387.88 204.751 389.222C200.12 390.631 195.221 392.779 192.336 394.524C189.718 396.135 186.832 397.678 185.893 397.947C184.953 398.215 183.006 399.557 181.53 400.9C180.054 402.309 177.57 403.786 176.027 404.255C174.416 404.658 172.537 405.866 171.53 407.007C170.322 408.484 169.248 409.02 167.772 409.02C166.228 409.02 165.557 409.356 165.288 410.296C165.087 410.967 163.544 412.443 161.865 413.584C160.121 414.725 157.839 416.537 156.698 417.745L154.685 419.826L157.705 419.356C162.671 418.618 164.416 417.343 164.416 414.591C164.416 413.248 164.55 413.182 166.094 413.852C168.241 414.792 170.859 413.651 177.167 409.02C179.584 407.276 182.537 405.329 183.745 404.725C185.154 403.987 185.893 403.114 185.893 402.242C185.893 401.034 186.027 400.967 186.899 401.638C187.705 402.309 188.174 402.309 188.711 401.772C189.181 401.302 190.053 400.967 190.657 400.967C191.261 400.967 194.416 399.289 197.704 397.275C203.611 393.517 212.335 390.229 216.161 390.229C217.302 390.229 219.181 389.49 220.322 388.618C222.537 386.94 227.57 385.061 234.215 383.517C237.973 382.577 239.919 381.437 239.517 380.363C239.382 380.094 236.027 379.96 232.134 380.161Z" fill="black" fill-opacity="0.9"/>
<path d="M241.598 380.161C241.598 380.497 242 380.833 242.537 380.833C243.075 380.833 243.745 380.497 243.947 380.161C244.148 379.759 243.745 379.49 243.007 379.49C242.202 379.49 241.598 379.759 241.598 380.161Z" fill="black" fill-opacity="0.9"/>
<path d="M204.953 382.174C203.611 382.711 200.389 386.201 200.859 386.604C201.262 387.006 209.45 384.322 210.523 383.449C211.396 382.644 211.396 382.51 210.255 382.107C208.644 381.436 206.698 381.436 204.953 382.174Z" fill="black" fill-opacity="0.9"/>
<path d="M245.557 383.517C240.187 384.457 235.892 387.477 236.362 389.96C236.563 391.034 236.832 390.967 238.308 389.356L239.986 387.477L241.261 388.886C242.872 390.631 243.074 390.631 248.174 388.081L252.537 386L257.503 387.208L262.469 388.484L264.215 386.671L266.027 384.926L264.013 384.121C261.597 383.182 249.65 382.712 245.557 383.517Z" fill="black" fill-opacity="0.9"/>
<path d="M222.201 391.37C215.49 393.316 207.638 395.866 204.751 397.007C198.577 399.49 191.261 403.987 187.503 407.544C185.691 409.356 184.148 410.161 182.939 410.161C181.664 410.161 180.121 411.101 177.973 413.182C176.228 414.859 170.322 419.155 164.752 422.779C154.617 429.356 152.134 431.235 144.282 437.88C139.114 442.242 138.913 442.443 138.913 444.457C138.913 446.806 140.993 446.067 142.604 443.115C143.678 441.101 144.684 440.363 147.772 439.222C149.852 438.484 152.537 436.94 153.61 435.866C154.685 434.725 156.295 433.853 157.101 433.853C159.248 433.853 162.537 431.101 165.087 427.209C166.228 425.329 167.57 423.786 168.04 423.786C170.054 423.786 176.295 420.027 184.214 414.121C195.825 405.329 197.906 404.255 210.255 400.229C216.094 398.349 221.933 396.067 223.208 395.195C227.235 392.443 229.584 391.437 231.127 391.839C233.074 392.309 235.087 390.833 234.751 389.155C234.55 387.88 234.013 387.947 222.201 391.37Z" fill="black" fill-opacity="0.9"/>
<path d="M256.295 391.57C254.215 391.906 248.98 393.047 244.55 394.188C240.188 395.261 234.886 396.335 232.872 396.604C228.912 397.141 226.228 398.214 224.886 399.892C224.08 400.832 224.282 400.966 226.631 400.966C228.107 400.966 234.416 400.026 240.658 398.818C250.59 396.939 253.409 396.671 263.409 396.671C273.477 396.671 275.289 396.805 278.711 398.08C282.469 399.557 282.537 399.557 282.537 398.214C282.537 397.476 282 396.738 281.396 396.469C280.725 396.268 278.107 395.06 275.49 393.785C271.664 391.973 269.785 391.503 265.423 391.235C262.47 391.1 258.376 391.235 256.295 391.57Z" fill="black" fill-opacity="0.9"/>
<path d="M254.886 400.295C253.879 400.564 251.396 401.772 249.45 402.913C245.49 405.195 243.477 405.396 238.309 404.188C235.087 403.45 234.752 403.517 233.275 404.926C232.067 406.067 231.06 406.336 229.114 406.201C226.698 406 226.496 406.134 226.295 407.946L226.027 409.893L229.852 409.423C232 409.221 240.524 407.611 248.913 406C269.853 401.839 270.993 401.705 273.544 403.852C274.685 404.859 276.832 405.799 278.376 406.067C281.195 406.537 284.551 406 284.551 405.128C284.551 404.322 279.718 401.839 275.893 400.698C271.933 399.557 258.242 399.289 254.886 400.295Z" fill="black" fill-opacity="0.9"/>
<path d="M214.886 402.645C199.45 406.604 178.242 420.162 164.618 434.792C162 437.544 159.92 439.222 158.98 439.222C158.175 439.222 156.161 440.699 154.148 442.712C152.202 444.658 149.181 447.343 147.302 448.618C145.49 449.893 143.342 452.041 142.604 453.383C141.463 455.464 141.061 455.732 140.054 455.061C139.047 454.457 138.577 454.658 137.235 456.135C135.49 458.148 132.671 465.061 133.007 466.537C133.141 467.141 135.691 465.128 139.584 461.369C146.698 454.39 155.02 447.611 163.678 441.571C168.107 438.416 169.853 436.739 171.262 434.188C172.269 432.376 174.081 430.027 175.289 429.021C179.584 425.397 193.074 417.208 205.557 410.631C216.094 405.061 222.873 400.967 221.463 401.034C221.262 401.034 218.309 401.772 214.886 402.645Z" fill="black" fill-opacity="0.9"/>
<path d="M255.691 408.35C255.691 409.491 258.912 412.376 261.262 413.383C264.819 414.859 270.188 415.33 272.402 414.39C274.214 413.651 274.617 413.786 276.698 415.33C280.389 418.148 295.221 423.383 296.362 422.242C297.167 421.437 295.154 419.088 293.611 419.088C292.335 419.088 291.866 418.618 291.396 416.873C290.859 414.793 290.591 414.658 281.664 411.907C276.631 410.363 270.658 408.752 268.309 408.35C262.738 407.477 255.691 407.477 255.691 408.35Z" fill="black" fill-opacity="0.9"/>
<path d="M212.403 410.228C208.108 411.705 204.551 413.785 196.766 419.423C193.275 421.906 187.839 425.396 184.685 427.275C181.464 429.087 177.571 431.638 176.027 432.913C173.41 435.061 169.987 439.624 170.591 440.228C171.262 440.966 178.242 436.873 185.222 431.638C192.94 425.799 204.886 419.087 212.806 416.134C216.497 414.792 217.168 414.255 217.571 412.443C218.108 410.497 218.376 410.362 221.128 410.362C222.739 410.362 224.282 410.027 224.483 409.691C225.155 408.55 216.027 408.953 212.403 410.228Z" fill="black" fill-opacity="0.9"/>
<path d="M242.94 411.973C242 412.577 239.517 413.047 237.235 413.047C232.537 413.047 231.732 413.45 230.926 416.135L230.39 418.148L240.524 417.879C250.323 417.611 255.691 416.94 255.691 415.799C255.691 415.531 254.819 414.456 253.678 413.383C251.262 411.101 245.692 410.363 242.94 411.973Z" fill="black" fill-opacity="0.9"/>
<path d="M256.363 416.537C256.363 418.55 257.37 420.027 258.242 419.49C258.645 419.221 259.987 419.96 261.262 421.033C263.007 422.577 265.356 423.516 271.799 425.127C281.664 427.611 284.081 428.55 287.436 431.235C289.383 432.846 290.39 433.181 291.866 432.846C293.342 432.51 294.215 432.846 295.826 434.188C296.9 435.127 298.108 435.866 298.51 435.866C299.651 435.866 300.054 433.718 299.181 432.644C297.437 430.563 288.376 425.127 283.343 423.181C277.638 421.033 258.578 415.06 257.235 415.06C256.765 415.06 256.363 415.732 256.363 416.537Z" fill="black" fill-opacity="0.9"/>
<path d="M223.477 417.074C210.256 419.826 196.295 427.141 181.665 439.155C176.027 443.785 174.484 444.658 174.484 443.248C174.484 442.309 171.598 442.376 170.591 443.383C170.121 443.852 169.786 444.859 169.786 445.664C169.786 447.476 168.712 448.349 168.175 446.94C167.638 445.463 165.49 445.732 164.014 447.343C163.343 448.148 159.249 451.571 155.02 454.994C146.967 461.437 140.322 468.148 138.578 471.504C137.705 473.114 137.235 473.383 135.893 473.047C134.551 472.712 134.014 473.047 132.873 474.993C132.067 476.268 131.061 477.544 130.524 477.745C129.987 477.947 129.182 479.356 128.779 480.899C128.108 483.047 127.437 483.919 125.692 484.658C123.141 485.665 122.135 487.41 123.544 488.282C126.027 489.826 130.792 485.463 132.202 480.43C133.074 477.476 133.812 477.208 134.349 479.691C134.484 480.698 136.027 479.691 141.799 474.993C145.826 471.772 149.651 468.819 150.323 468.484C150.994 468.081 152.067 466.873 152.739 465.799C156.161 459.893 161.598 455.598 174.148 448.618C178.98 445.933 186.027 441.369 189.92 438.484C199.114 431.705 204.014 428.752 208.041 427.745C210.256 427.208 211.531 426.403 212.135 425.262C213.276 423.182 216.497 421.571 218.511 422.04C219.45 422.309 220.792 422.04 221.665 421.503C222.47 420.967 224.282 420.295 225.625 420.094C228.309 419.557 229.786 418.349 229.383 416.872C229.249 416.067 228.309 416.067 223.477 417.074Z" fill="black" fill-opacity="0.9"/>
<path d="M233.074 422.04C228.377 423.114 226.833 423.852 223.276 426.671C221.262 428.215 220.524 428.483 220.122 427.812C219.249 426.47 213.88 427.41 209.182 429.758C206.9 430.899 201.397 434.591 196.967 437.946C192.47 441.369 186.43 445.262 183.208 446.739C176.833 449.826 170.121 454.859 159.719 464.389C155.826 468.013 151.665 471.705 150.457 472.577C148.98 473.785 148.041 475.262 147.571 477.275C146.699 480.631 145.893 481.436 145.289 479.49C144.685 477.544 143.611 477.812 143.611 479.96C143.611 482.51 142.94 484.859 142.202 484.859C141.866 484.859 141.598 484.121 141.598 483.182C141.598 482.242 141.329 481.503 140.927 481.503C140.591 481.503 140.256 481.973 140.256 482.577C140.256 483.182 139.316 483.987 138.242 484.39C136.296 485.127 136.162 485.329 136.564 487.678C137.034 490.229 137.034 490.228 134.954 489.826C133.276 489.49 132.538 489.758 130.86 491.437C129.249 493.047 128.846 494.054 128.846 496.269C128.846 498.886 128.913 499.02 130.658 498.819C132.336 498.617 132.537 498.349 132.47 496.067C132.403 493.517 133.276 492.913 134.752 494.389C135.423 495.061 137.168 493.651 143.141 487.342C147.571 482.711 151.866 478.819 153.611 477.947C155.759 476.806 156.833 475.799 157.37 474.121C157.974 472.309 160.39 470.228 170.524 462.846C177.303 457.879 187.101 450.43 192.269 446.268C202.873 437.812 206.095 435.53 211.396 432.846C214.551 431.235 215.289 431.101 217.101 431.772C219.383 432.577 222.672 431.906 235.893 427.812C239.92 426.604 243.679 425.799 245.289 425.933C247.638 426.134 247.974 425.933 248.175 424.658C248.376 423.517 247.974 422.913 246.766 422.51C243.679 421.302 237.303 421.101 233.074 422.04Z" fill="black" fill-opacity="0.9"/>
<path d="M252.671 421.638C250.188 422.175 248.98 423.719 249.785 425.464C250.389 426.806 251.128 427.007 255.759 427.41C260.054 427.813 261.463 428.215 263.074 429.557C265.356 431.504 267.369 431.437 267.638 429.49C267.973 427.007 256.363 420.9 252.671 421.638Z" fill="black" fill-opacity="0.9"/>
<path d="M272.135 428.483C271.665 429.289 272.269 430.497 273.208 430.497C274.014 430.497 274.014 428.685 273.208 428.148C272.873 427.946 272.403 428.081 272.135 428.483Z" fill="black" fill-opacity="0.9"/>
<path d="M276.363 431.302C276.161 433.45 276.094 433.517 273.477 433.316C269.785 433.047 263.611 431.973 258.175 430.698C251.799 429.222 242.739 429.826 233.209 432.51C229.182 433.584 221.598 435.597 216.363 436.806C203.477 439.96 195.96 443.517 193.879 447.477C193.208 448.685 193.343 448.685 195.423 448.282C196.631 448.014 200.725 446.739 204.484 445.531C209.249 443.92 212.537 443.248 215.423 443.248C219.182 443.248 219.719 443.047 221.262 441.235C222.336 439.96 223.544 439.222 224.685 439.222C225.624 439.222 230.926 438.282 236.497 437.141C249.383 434.524 254.618 434.389 259.92 436.806C264.282 438.752 266.296 438.953 268.108 437.611C269.181 436.806 269.718 437.007 272.336 438.819C274.886 440.631 275.826 440.9 279.584 440.9C281.933 440.9 283.879 441.101 283.879 441.369C283.879 442.443 287.235 443.987 291.195 444.658C294.618 445.262 296.161 446 299.45 448.685C303.141 451.638 306.698 452.98 306.698 451.37C306.698 450.295 296.229 440.9 292.403 438.685C290.322 437.41 286.631 435.732 284.081 434.927C280.255 433.652 279.383 433.047 278.577 431.302C277.302 428.55 276.631 428.618 276.363 431.302Z" fill="black" fill-opacity="0.9"/>
<path d="M242.604 441.839C238.913 443.517 238.376 443.651 237.101 442.778C235.758 441.839 235.288 441.906 232.47 443.517C230.591 444.59 228.308 445.261 226.698 445.261C223.879 445.261 213.946 448.483 213.477 449.49C212.805 451.1 208.913 454.859 206.631 456.067C205.154 456.805 200.792 458.416 196.832 459.691C188.174 462.51 182.873 465.933 174.215 474.121C168.845 479.221 149.651 500.362 149.651 501.235C149.651 501.369 150.792 501.235 152.134 500.832C156.161 499.758 159.986 496.537 167.57 488.013C172.201 482.845 176.765 478.483 180.792 475.53C188.376 469.893 208.107 458.013 209.852 458.013C210.523 458.013 213.074 456.939 215.557 455.664C217.973 454.322 222.336 452.711 225.154 451.973C227.973 451.235 232.067 449.557 234.282 448.215C238.174 445.798 238.309 445.732 243.61 446.134C246.631 446.336 249.382 446.805 249.852 447.141C250.322 447.544 253.074 447.812 256.027 447.879C260.188 447.879 263.074 448.416 269.114 450.295C273.342 451.57 278.241 452.644 279.919 452.644C281.865 452.644 283.342 453.047 283.879 453.651C285.02 455.06 290.322 458.013 291.664 458.013C292.268 458.013 294.55 459.221 296.765 460.698C298.98 462.174 301.329 463.382 301.933 463.382C302.537 463.382 303.61 464.255 304.214 465.329C305.49 467.543 307.772 468.617 308.913 467.476C310.121 466.268 308.443 463.852 303.275 459.288C300.59 456.939 296.899 453.449 295.087 451.637C293.275 449.758 291.933 448.819 292.201 449.423C292.403 450.094 292.805 451.168 293.074 451.772C293.476 452.912 293.409 452.912 292.134 451.772C291.396 451.168 290.456 450.631 290.054 450.631C289.651 450.631 288.443 449.892 287.369 448.953C286.228 447.946 283.812 447.007 281.732 446.604C279.785 446.201 275.289 445.06 271.798 443.986C260.926 440.63 257.369 439.893 251.933 439.893C247.503 439.893 245.96 440.228 242.604 441.839Z" fill="black" fill-opacity="0.9"/>
<path d="M204.147 448.282C192.537 450.43 188.711 452.175 181.127 458.685C178.174 461.235 173.611 464.457 171.06 465.799C164.08 469.49 153.543 481.436 146.765 493.383C144.617 497.141 143.61 498.282 142.604 498.148C141.664 498.013 141.194 498.416 141.06 499.423C140.657 502.04 142.939 501.235 148.845 496.738C150.859 495.262 156.496 489.289 161.396 483.584C170.188 473.248 175.355 468.484 182.537 463.92C188.845 459.893 198.308 455.463 202.604 454.457C206.966 453.45 208.912 452.107 210.456 449.155C211.597 446.94 211.664 446.94 204.147 448.282Z" fill="black" fill-opacity="0.9"/>
<path d="M155.222 450.967C155.02 451.571 155.02 452.175 155.222 452.376C155.826 452.98 157.034 451.974 157.034 450.899C157.034 449.624 155.759 449.691 155.222 450.967Z" fill="black" fill-opacity="0.9"/>
<path d="M234.55 452.98C203.879 462.577 188.309 472.108 161.732 497.409C155.893 502.98 154.148 504.322 152.47 504.322C150.725 504.322 150.322 504.725 148.711 508.282C147.772 510.43 146.966 512.644 146.966 513.114C146.966 513.785 146.698 513.718 145.892 512.913C144.886 511.973 144.349 512.242 139.047 516C135.356 518.618 132.671 521.101 131.597 522.913C130.658 524.457 129.382 525.933 128.778 526.134C128.241 526.336 127.101 527.678 126.228 529.154C125.423 530.631 124.215 532.175 123.611 532.644C122.872 533.248 122.403 534.658 122.268 536.671C122.201 538.483 122.268 539.892 122.47 539.892C122.604 539.892 124.953 538.148 127.57 536C130.725 533.517 132.872 531.235 133.611 529.49C134.282 528.013 134.886 527.208 134.886 527.611C134.886 528.081 135.087 528.483 135.423 528.483C135.691 528.483 139.651 524.792 144.282 520.228C148.913 515.731 157.973 507.342 164.416 501.705C170.859 496 179.651 488.147 183.879 484.255C189.181 479.288 192.604 476.738 194.684 475.933C196.429 475.262 201.396 472.577 205.758 469.96C220.725 461.034 227.503 458.819 242.269 458.215C254.08 457.745 264.215 459.423 278.107 464.121C289.919 468.081 291.799 469.02 292.537 470.966C292.939 471.973 293.678 472.443 295.154 472.51C296.497 472.577 298.577 473.718 301.127 475.732C304.819 478.617 307.503 479.557 308.309 478.282C308.913 477.342 302.067 468.886 298.711 466.47C294.349 463.248 291.127 461.973 287.168 461.906C284.013 461.839 283.879 461.705 283.879 459.96C283.879 458.147 283.745 458.081 281.732 458.483C280.524 458.752 278.778 458.953 277.839 459.02C276.362 459.02 276.161 458.752 276.161 456.47C276.161 455.127 275.96 453.987 275.691 453.987C275.356 453.987 275.154 454.389 275.154 454.926C275.154 456.872 273.678 456.738 267.57 454.188C261.799 451.772 260.926 451.638 254.349 451.571C250.255 451.571 246.698 451.235 245.825 450.765C244.081 449.759 245.624 449.49 234.55 452.98Z" fill="black" fill-opacity="0.9"/>
<path d="M148.912 455.933C146.765 458.148 146.161 460.161 148.174 458.618C150.59 456.806 152.335 455.061 152.335 454.523C152.335 453.45 150.859 454.054 148.912 455.933Z" fill="black" fill-opacity="0.9"/>
<path d="M245.96 461.839C244.484 461.973 238.577 462.712 232.94 463.45C223.208 464.725 222.403 464.926 220.188 466.873C217.571 469.222 215.289 470.228 210.256 471.436C205.692 472.443 201.262 475.195 192.269 482.443C188.242 485.665 183.208 489.222 181.195 490.229C178.913 491.369 176.229 493.584 174.081 496.068C168.712 502.242 159.786 511.034 146.027 523.785L133.41 535.531L133.812 539.356C134.215 543.584 133.208 545.329 132.47 541.571C132.269 540.295 131.866 539.222 131.598 539.222C130.859 539.289 129.182 540.899 126.967 543.718C125.692 545.396 124.148 546.604 123.41 546.604C122.269 546.604 122.135 546.94 122.537 548.886C123.074 551.906 122.269 553.316 121.061 551.638C120.188 550.497 120.054 550.564 119.114 552.846C117.906 555.732 117.772 561.772 118.913 562.443C119.853 563.047 122.873 559.423 122.672 558.013C122.537 557.477 121.799 556.94 120.927 556.805C117.772 556.336 119.853 554.658 123.544 554.658C126.564 554.658 128.51 552.242 129.114 547.946C129.584 544.859 129.718 544.524 130.255 545.732C130.524 546.604 131.195 547.275 131.732 547.275C132.202 547.275 134.685 544.658 137.235 541.37C139.786 538.148 146.094 531.235 151.262 526C158.175 518.819 160.457 516.134 160.188 515.195C159.92 514.121 160.457 513.718 162.671 513.047C164.886 512.443 167.101 510.497 173.813 503.584C178.443 498.819 182.739 494.926 183.343 494.926C184.551 494.926 188.644 491.235 191.195 487.879C192.135 486.604 192.806 486.134 193.007 486.671C193.611 488.014 194.416 487.745 198.108 484.792C202.605 481.302 207.571 478.752 218.108 474.792C222.739 473.047 228.376 470.698 230.524 469.692C234.417 467.812 234.819 467.745 245.289 467.745H256.027L266.43 471.638C273.007 474.121 278.578 475.732 281.531 476.135C287.772 476.873 287.974 476.94 291.53 481.503C294.551 485.329 297.302 487.007 303.477 488.55C305.759 489.154 306.9 490.229 308.913 493.383C310.725 496.201 312.067 497.074 312.067 495.396C312.067 493.383 306.698 485.665 302.604 481.906C296.833 476.537 290.39 473.383 279.383 470.363C278.913 470.228 278.511 469.423 278.511 468.484C278.511 467.544 278.242 466.604 277.839 466.403C277.504 466.201 277.168 466.47 277.168 467.007C277.168 468.819 275.96 468.819 273.007 466.873C266.363 462.443 257.37 460.765 245.96 461.839Z" fill="black" fill-opacity="0.9"/>
<path d="M244.686 471.302C243.209 472.98 242.202 473.248 231.196 474.456C219.249 475.732 216.766 476.604 210.39 481.839C207.437 484.255 202.94 487.275 200.323 488.684C188.846 494.658 175.558 505.261 168.242 514.389C165.759 517.476 162.873 520.362 161.799 520.832C160.726 521.302 159.048 522.778 157.974 524.121C154.081 529.154 151.598 531.705 150.122 532.107C149.048 532.376 147.773 534.255 145.424 538.886C143.679 542.376 142.269 545.731 142.269 546.268C142.269 547.611 141.598 547.543 140.457 546.067C139.585 544.993 139.518 544.993 138.511 546.268C137.974 547.007 136.632 549.02 135.558 550.765C134.148 552.98 133.142 553.986 132.135 553.986C130.793 553.986 130.726 554.188 131.128 557.275C131.397 559.289 131.263 560.765 130.86 561.033C130.524 561.235 130.189 560.832 130.189 560.094C130.189 558.752 129.048 557.543 128.444 558.214C128.242 558.416 128.31 560.295 128.578 562.443L129.048 566.268L132.739 562.309C134.82 560.161 138.712 556 141.397 553.181C144.283 550.161 146.296 547.476 146.296 546.671C146.296 545.731 146.699 545.262 147.638 545.262C148.578 545.262 149.652 544.188 150.994 542.04C152.068 540.295 154.081 537.678 155.491 536.201C156.9 534.725 159.249 531.637 160.726 529.356C162.403 526.805 164.216 524.859 165.558 524.188C166.967 523.517 167.907 522.51 168.175 521.302C168.377 520.295 168.578 519.222 168.645 518.953C168.981 517.678 189.048 501.033 195.625 496.604C207.303 488.819 226.095 479.96 237.236 477.141C244.417 475.329 254.081 476.067 263.41 479.154C268.645 480.899 280.524 486.872 291.934 493.584C302.471 499.758 310.591 503.986 311.128 503.517C311.262 503.382 310.591 502.107 309.652 500.698C308.578 499.154 305.088 496.335 300.39 493.248C296.229 490.497 292.001 487.208 290.994 485.933C289.786 484.322 288.309 483.315 286.497 482.846C285.021 482.443 279.518 480.295 274.35 478.08C262.605 473.181 255.692 470.966 250.189 470.362C246.43 470.027 245.826 470.094 244.686 471.302Z" fill="black" fill-opacity="0.9"/>
<path d="M234.549 481.906C222.939 484.456 211.596 489.624 198.912 498.214C187.435 505.933 181.999 511.033 169.248 526.134C157.637 539.892 156.563 541.033 154.08 542.241C152.133 543.181 148.711 548.483 147.57 552.308C146.966 554.456 146.16 555.664 145.154 556.067C144.348 556.335 142.872 557.879 141.932 559.422C140.321 561.906 140.254 562.241 141.194 563.315C141.798 563.986 142.268 564.859 142.268 565.261C142.268 566.537 143.946 566.201 145.422 564.523C146.16 563.718 147.436 561.838 148.174 560.362C148.912 558.886 150.456 557.006 151.597 556.134C152.738 555.329 154.281 553.382 155.087 551.771C155.892 550.228 158.711 546.671 161.328 543.919C163.946 541.168 168.04 536 170.389 532.51C175.087 525.463 177.503 523.047 192.268 510.564C197.838 505.865 203.677 500.832 205.355 499.288C207.905 497.006 209.113 496.402 212.939 495.731C215.489 495.262 220.322 493.651 223.677 492.174C241.798 484.188 245.355 483.718 257.033 487.744C260.925 489.02 265.153 490.295 266.496 490.496C267.771 490.765 271.798 492.845 275.355 495.194C281.731 499.422 285.623 501.436 286.227 500.832C286.429 500.698 286.765 499.557 286.966 498.416C287.301 496.738 287.167 496.201 286.161 495.798C285.422 495.463 282.805 493.852 280.187 492.174C274.281 488.282 267.301 484.724 261.731 482.845C255.892 480.832 241.529 480.362 234.549 481.906Z" fill="black" fill-opacity="0.9"/>
<path d="M234.416 489.49C233.208 490.295 232.202 491.168 232.202 491.503C232.202 492.242 236.027 492.778 241.396 492.846C245.221 492.846 248.577 494.255 249.584 496.201C250.121 497.208 251.329 497.477 255.356 497.745C259.718 498.013 261.329 498.55 266.631 501.168C274.148 504.926 280.591 510.43 293.879 524.389C299.181 530.027 303.611 534.456 303.812 534.255C304.282 533.785 300.859 527.342 296.966 521.436C292.134 513.987 288.443 510.094 284.483 508.148C282.671 507.208 280.188 505.262 279.114 503.92C274.148 497.678 269.45 495.463 251.329 490.832C240.389 488.081 237.168 487.812 234.416 489.49Z" fill="black" fill-opacity="0.9"/>
<path d="M141.597 492.913C141.06 493.987 141.06 494.255 141.866 494.255C142.94 494.255 143.812 492.443 142.94 491.906C142.604 491.705 142 492.174 141.597 492.913Z" fill="black" fill-opacity="0.9"/>
<path d="M222.805 495.263C220.993 496.739 219.516 497.477 218.778 497.276C216.026 496.403 207.906 501.504 198.107 510.296C194.55 513.45 188.442 518.752 184.617 522.041C177.033 528.685 173.006 533.182 169.717 539.088C168.509 541.169 165.959 544.591 164.08 546.672C162.201 548.752 159.181 552.645 157.369 555.396C155.624 558.148 154.08 560.497 153.946 560.631C153.811 560.766 153.275 560.564 152.805 560.095C151.664 559.222 150.724 560.43 148.443 565.598C146.362 570.296 144.349 572.846 141.865 573.853C140.523 574.457 139.583 575.262 139.583 576.001C139.583 577.813 137.1 581.437 135.288 582.309C134.349 582.712 133.543 583.652 133.409 584.39C133.275 585.128 132.335 586.269 131.194 586.873C129.651 587.746 129.114 588.551 128.845 590.631C128.577 592.578 128.375 592.98 127.973 592.041C127.234 590.095 125.959 591.101 125.087 594.323C124.684 596.135 124.013 597.209 123.476 597.074C122.939 596.94 122.805 597.276 123.14 598.081C123.409 598.752 123.812 599.826 123.946 600.43C124.55 602.444 126.161 601.773 127.302 599.088C128.577 595.934 128.577 595.934 129.919 597.007C131.127 598.014 130.791 598.35 134.953 592.376C136.093 590.766 138.04 588.887 139.248 588.081C140.724 587.276 142.335 585.329 143.61 582.913C144.751 580.833 147.033 577.477 148.644 575.464C150.322 573.45 152.939 569.692 154.483 567.074C156.026 564.524 158.308 561.101 159.516 559.491C160.725 557.88 161.731 555.799 161.731 554.86C161.731 553.786 162.604 552.376 164.214 550.9C165.557 549.625 166.899 548.618 167.167 548.618C167.436 548.618 170.456 545.195 173.812 541.034C180.322 533.115 183.678 529.759 186.698 528.148C187.906 527.477 188.912 526 189.718 523.786C190.791 520.766 191.933 519.356 191.933 521.101C191.933 522.511 193.275 521.638 197.436 517.544C200.12 514.927 203.744 512.242 207.302 510.363C210.456 508.685 215.422 505.598 218.375 503.45L223.745 499.558L232.201 499.759C239.986 499.893 240.791 499.826 243.476 498.283C246.63 496.471 247.033 495.598 244.751 495.598C243.879 495.598 240.322 494.994 236.832 494.256C227.704 492.376 226.161 492.444 222.805 495.263Z" fill="black" fill-opacity="0.9"/>
<path d="M125.288 496.671C124.55 498.013 124.08 501.57 124.55 503.248C125.221 505.933 126.832 504.188 126.832 500.698C126.832 497.946 125.96 495.664 125.288 496.671Z" fill="black" fill-opacity="0.9"/>
<path d="M136.967 497.88C136.43 498.484 136.228 499.155 136.497 499.423C137.101 500.027 138.443 498.551 138.108 497.611C137.973 497.074 137.571 497.141 136.967 497.88Z" fill="black" fill-opacity="0.9"/>
<path d="M286.9 501.101C286.564 503.181 286.967 503.785 293.41 510.497C300.457 517.812 302.739 519.154 305.289 517.745C307.235 516.738 307.101 516.269 304.416 514.792C303.141 514.121 300.054 511.034 297.638 507.947C293.276 502.443 289.584 498.953 288.041 498.953C287.638 498.953 287.101 499.96 286.9 501.101Z" fill="black" fill-opacity="0.9"/>
<path d="M130.926 502.175C129.986 503.92 130.456 504.994 131.597 503.853C132 503.45 132.201 502.578 132.067 501.907C131.865 500.766 131.731 500.766 130.926 502.175Z" fill="black" fill-opacity="0.9"/>
<path d="M246.631 501.369C245.893 501.504 241.53 501.907 236.899 502.242C226.631 503.115 223.879 503.92 220.591 507.208C218.712 509.087 217.772 509.624 217.168 509.087C216.564 508.551 215.221 509.423 212.067 512.376C209.718 514.524 207.57 516.202 207.235 516C206.966 515.799 205.356 516.269 203.678 517.007C199.785 518.752 182.94 535.665 174.618 546.134C171.396 550.229 166.564 556.201 163.947 559.423C161.262 562.712 159.047 565.531 159.047 565.732C159.047 565.933 157.973 568.349 156.698 571.168C155.423 573.92 154.349 576.671 154.349 577.209C154.349 577.946 153.946 578.081 153.007 577.813C152.067 577.544 151.53 577.745 151.195 578.618C150.993 579.289 149.651 581.369 148.242 583.249C146.765 585.128 145.423 587.544 145.222 588.685C144.953 590.027 144.148 591.034 142.604 591.839C141.329 592.511 137.906 595.732 134.953 598.954C132 602.175 128.51 605.329 127.101 606C124.685 607.141 124.685 607.209 125.087 610.229C125.289 611.906 125.691 613.45 125.893 613.651C126.899 614.658 130.054 611.638 131.933 607.813C133.409 604.859 134.148 603.853 134.416 604.591C134.685 605.195 135.49 605.665 136.295 605.665C137.638 605.665 137.705 605.396 137.302 602.913C136.967 600.967 137.101 600.295 137.638 600.698C138.376 601.168 144.953 594.658 144.953 593.45C144.953 593.115 145.222 592.98 145.557 593.248C146.698 593.92 150.524 589.356 153.812 583.45C157.705 576.605 158.51 575.598 162.537 572.846C165.691 570.766 167.436 567.544 168.779 561.504C169.047 560.296 170.389 557.947 171.866 556.269C173.275 554.591 174.483 552.645 174.483 551.973C174.483 551.101 175.423 550.161 177.101 549.289C178.778 548.484 181.799 545.463 185.356 541.101C192.067 532.846 196.43 529.088 212.738 517.544C224.148 509.423 225.356 508.752 227.839 508.886C229.315 508.953 233.074 508.551 236.161 507.947C239.249 507.41 242.94 507.141 244.282 507.343C246.497 507.745 246.832 507.611 247.302 506.202C247.705 504.927 247.839 504.859 248.108 505.799C248.51 507.41 250.658 507.947 255.49 507.745C260.725 507.544 263.946 508.886 271.262 514.39C274.215 516.671 277.436 518.618 278.443 518.819C279.785 519.088 280.792 520.296 282.671 523.718C286.363 530.497 292.671 538.551 298.443 543.853C301.262 546.47 303.678 548.484 303.879 548.349C304.013 548.148 303.611 546.47 303.007 544.524C302.067 541.839 300.59 539.691 296.564 535.531C293.611 532.511 291.262 529.49 291.262 528.886C291.262 526.806 288.04 522.712 282.47 517.678C267.772 504.457 257.101 499.557 246.631 501.369Z" fill="black" fill-opacity="0.9"/>
<path d="M298.98 503.047C300.524 507.947 304.484 512.041 307.168 511.504C308.376 511.302 308.712 511.504 308.712 512.51C308.712 514.189 309.92 516.403 310.859 516.403C311.866 516.403 310.993 512.645 309.316 509.893C308.51 508.685 306.228 506.47 304.081 505.061C298.309 501.168 298.443 501.235 298.98 503.047Z" fill="black" fill-opacity="0.9"/>
<path d="M120.121 503.45C120.188 504.389 122.134 506.604 122.537 506.201C123.208 505.463 122.067 502.98 121.06 502.98C120.523 502.98 120.121 503.181 120.121 503.45Z" fill="black" fill-opacity="0.9"/>
<path d="M136.362 503.785C135.893 504.255 135.557 505.531 135.557 506.739C135.557 508.551 135.356 508.819 134.282 508.551C133.611 508.349 132.805 508.551 132.604 508.953C132.336 509.356 131.53 509.691 130.725 509.691C129.584 509.691 129.45 509.96 129.852 511.168C130.121 512.041 130.322 513.383 130.322 514.188C130.322 515.061 130.524 515.732 130.792 515.732C131.53 515.732 133.879 512.98 134.886 511.101C135.49 509.96 135.826 509.759 136.228 510.363C136.631 510.967 137.034 510.967 138.242 510.363C139.517 509.691 139.651 509.222 139.248 507.477C138.98 506.269 138.711 504.792 138.711 504.121C138.644 502.779 137.503 502.644 136.362 503.785Z" fill="black" fill-opacity="0.9"/>
<path d="M141.128 503.719C140.054 504.792 139.987 507.007 140.927 507.007C141.799 507.007 142.47 505.396 142.135 503.987C142.001 503.115 141.799 503.047 141.128 503.719Z" fill="black" fill-opacity="0.9"/>
<path d="M144.819 506.47C142.671 508.886 142.47 509.691 143.946 509.691C145.154 509.691 147.168 506.739 146.832 505.396C146.698 504.591 146.161 504.926 144.819 506.47Z" fill="black" fill-opacity="0.9"/>
<path d="M230.524 511.571C219.048 515.799 218.645 516 217.034 518.483C214.954 521.772 211.867 524.255 204.887 528.148C198.041 531.906 193.41 536 191.195 540.228C190.256 542.04 188.846 543.517 187.706 543.987C186.631 544.456 184.215 546.604 182.403 548.886C180.524 551.101 177.705 553.92 176.162 555.061C173.276 557.275 171.531 560.363 171.933 562.376C172.269 564.188 179.316 558.617 190.591 547.611C199.853 538.618 206.699 532.913 210.994 530.698C212.538 529.893 213.209 529.825 214.484 530.497C216.296 531.504 217.571 530.832 221.665 526.94C223.88 524.859 224.417 524.658 227.303 524.926C229.115 525.128 232.537 524.792 235.021 524.188C239.518 523.114 239.584 523.114 242.001 524.792C244.954 526.805 248.578 527.544 250.726 526.537C253.007 525.53 252.739 523.517 250.189 521.57C245.625 518.215 241.732 517.745 232.202 519.423C229.048 519.96 224.82 520.43 222.806 520.43C219.316 520.43 219.249 520.362 220.658 519.356C225.491 516 238.175 513.987 242.135 516C244.685 517.342 245.894 517.342 247.169 516.134C248.041 515.262 248.377 515.463 250.256 517.745C251.531 519.289 254.081 521.168 256.699 522.51C259.115 523.651 261.061 525.061 261.061 525.597C261.061 526.201 261.8 527.477 262.739 528.617C263.679 529.692 264.417 530.967 264.417 531.504C264.417 531.973 265.96 533.383 267.84 534.591C272.471 537.544 276.631 542.711 283.209 553.785C286.296 558.886 290.323 565.128 292.269 567.745C294.216 570.295 296.229 573.785 296.699 575.396C297.236 577.275 298.712 579.49 300.457 581.235C302.538 583.316 304.752 587.074 308.377 594.658C311.195 600.43 313.611 604.994 313.813 604.792C314.417 604.188 312.672 596.067 311.33 592.913C310.591 591.235 309.182 589.02 308.175 588.013C306.833 586.604 306.43 585.597 306.564 583.92C306.833 581.436 305.826 580.295 304.417 581.436C303.679 582.041 303.41 581.772 303.142 580.027C302.135 574.255 301.598 572.98 298.578 569.02C296.766 566.604 291.867 559.49 287.638 553.114C283.41 546.806 276.967 538.08 273.343 533.785C269.652 529.49 265.96 525.061 265.155 523.92C264.081 522.376 263.142 521.772 261.8 521.772C260.323 521.772 258.913 520.698 255.424 517.007C251.934 513.248 250.658 512.309 249.518 512.577C248.578 512.846 247.773 512.51 246.967 511.503C245.96 510.295 244.954 510.027 240.86 509.826C236.699 509.691 235.021 509.96 230.524 511.571Z" fill="black" fill-opacity="0.9"/>
<path d="M254.416 511.101C252.537 511.839 252.604 511.973 257.637 515.329C259.584 516.671 262 517.745 263.007 517.745C264.349 517.745 265.087 518.349 266.295 520.43C267.1 521.906 269.517 524.322 271.664 525.866C273.745 527.342 276.228 529.49 277.168 530.497C278.577 532.108 279.047 532.242 279.986 531.571C282.537 529.692 278.577 523.114 274.886 523.114C274.013 523.114 272.738 522.107 271.597 520.43C267.034 513.987 258.577 509.423 254.416 511.101Z" fill="black" fill-opacity="0.9"/>
<path d="M125.154 514.121C124.953 515.799 124.282 518.416 123.745 519.893C123.208 521.437 122.872 522.778 123.007 522.846C123.141 522.98 124.08 522.712 125.087 522.242C126.497 521.638 126.765 521.101 126.497 519.893C126.228 518.953 126.631 517.879 127.503 516.94C128.376 515.933 128.644 515.262 128.174 514.792C127.839 514.456 127.503 513.45 127.503 512.577C127.503 509.691 125.691 510.899 125.154 514.121Z" fill="black" fill-opacity="0.9"/>
<path d="M121.261 516.268C119.114 518.618 117.973 523.919 119.449 524.792C120.188 525.262 120.724 523.986 122.402 518.55C123.409 514.926 123.073 514.188 121.261 516.268Z" fill="black" fill-opacity="0.9"/>
<path d="M302 521.034C302 523.182 315.422 536.873 315.96 535.195C316.093 534.859 315.087 532.443 313.745 529.826C310.725 524.188 306.899 520.43 304.013 520.43C302.872 520.43 302 520.698 302 521.034Z" fill="black" fill-opacity="0.9"/>
<path d="M253.812 527.611C253.947 528.752 254.416 529.49 255.02 529.49C255.624 529.49 256.094 528.752 256.228 527.611C256.43 526.135 256.161 525.799 255.02 525.799C253.879 525.799 253.611 526.135 253.812 527.611Z" fill="black" fill-opacity="0.9"/>
<path d="M228.175 528.081C226.833 528.617 224.148 529.825 222.135 530.832C220.121 531.839 216.699 533.114 214.484 533.651C209.383 534.792 208.108 535.732 197.302 546.202L188.242 554.993L187.571 559.825C187.168 562.51 187.101 564.725 187.369 564.725C187.638 564.725 189.249 562.98 191.061 560.9C197.906 552.778 202.269 548.752 205.021 548.014C206.9 547.544 208.108 546.671 208.98 545.195C210.524 542.644 213.812 540.564 216.43 540.564C217.974 540.564 219.182 539.826 221.061 537.947C230.121 528.685 245.222 530.631 264.551 543.517C269.652 546.873 270.323 547.678 272.336 551.705C273.544 554.121 277.705 561.369 281.531 567.812C290.457 582.712 290.658 583.047 290.524 586C290.457 587.409 291.195 590.631 292.134 593.248C294.618 600.094 297.302 609.423 298.041 613.92C298.779 618.55 299.652 620.43 301.128 620.43C303.074 620.43 301.665 613.249 297.906 603.517C294.953 595.933 294.349 593.718 294.081 588.886C293.813 583.249 293.745 583.047 287.168 570.094C277.504 550.833 272.135 542.98 264.551 537.074C260.926 534.188 260.524 533.987 259.517 534.993C258.51 536 258.242 535.799 255.558 533.181C252.806 530.43 252.47 530.228 248.644 530.161C246.161 530.027 243.477 529.49 241.598 528.617C238.108 526.94 231.933 526.738 228.175 528.081Z" fill="black" fill-opacity="0.9"/>
<path d="M257.034 528.685C257.034 530.161 258.846 532.51 259.919 532.51C260.725 532.51 260.457 528.819 259.584 527.947C258.309 526.672 257.034 527.007 257.034 528.685Z" fill="black" fill-opacity="0.9"/>
<path d="M280.993 531.637C279.718 532.845 280.591 536.402 282.604 538.281C283.745 539.355 285.423 541.503 286.363 543.047C287.235 544.657 288.913 546.671 289.987 547.543C291.06 548.483 291.933 549.691 291.933 550.295C291.933 552.845 294.55 556.47 297.772 558.147C300.59 559.691 301.194 560.429 302.269 563.516C304.483 569.758 307.302 574.792 309.047 575.597C311.396 576.671 311.732 575.932 310.524 572.644C308.577 567.61 303.678 559.892 295.154 548.55C290.658 542.509 286.161 536.066 285.222 534.322C283.678 531.436 282.134 530.429 280.993 531.637Z" fill="black" fill-opacity="0.9"/>
<path d="M118.578 535.665C118.309 535.866 118.108 536.739 118.108 537.611C118.108 538.752 118.376 539.02 119.45 538.752C120.323 538.551 120.792 537.812 120.792 536.806C120.792 535.262 119.517 534.658 118.578 535.665Z" fill="black" fill-opacity="0.9"/>
<path d="M227.638 535.664C226.027 536 221.463 539.96 221.463 541.033C221.463 541.436 223.007 541.571 225.155 541.369C227.369 541.168 231.195 541.571 234.618 542.242C239.315 543.248 240.792 543.315 242.604 542.711C245.356 541.638 246.832 542.175 253.409 546.671C256.228 548.55 259.45 550.497 260.725 551.034C262.335 551.705 263.543 553.047 265.289 556.134C266.564 558.483 270.054 564.524 273.007 569.624C275.96 574.725 279.517 581.906 280.926 585.597C282.805 590.497 283.745 592.241 284.617 592.241C285.557 592.241 286.161 593.718 287.571 600.094C291.933 619.154 293.41 625.128 295.087 630.161C296.899 635.731 299.718 641.906 300.457 641.906C301.329 641.906 299.852 635.329 297.973 631.235C296.765 628.416 295.423 623.382 294.282 617.342C291.866 603.584 288.376 592.241 286.631 592.241C286.295 592.241 285.892 590.631 285.759 588.685C285.288 583.785 279.383 570.832 277.369 570.363C276.497 570.094 275.96 569.691 276.161 569.423C276.832 568.282 274.483 562.577 271.53 558.081C267.638 552.242 259.718 544.322 254.819 541.369C252.805 540.161 249.316 538.483 247.033 537.745C243.275 536.47 242.537 536.403 239.315 537.208C235.893 538.013 235.557 537.946 233.879 536.604C232.067 535.261 230.859 535.06 227.638 535.664Z" fill="black" fill-opacity="0.9"/>
<path d="M304.685 536.403C304.685 538.282 306.631 540.564 308.309 540.564C309.651 540.564 309.919 540.967 310.255 543.383C310.524 545.262 311.261 546.806 312.671 548.215C315.087 550.631 315.288 549.96 313.745 544.658C312.067 539.155 304.685 532.376 304.685 536.403Z" fill="black" fill-opacity="0.9"/>
<path d="M118.309 542.309C117.302 543.852 117.101 543.919 116.363 542.98C115.691 541.973 115.557 542.04 115.155 543.517C114.752 545.262 115.222 547.275 116.094 547.275C117.101 547.275 120.121 543.182 120.121 541.839C120.121 540.094 119.718 540.228 118.309 542.309Z" fill="black" fill-opacity="0.9"/>
<path d="M242.269 545.329C242.269 546.873 249.584 553.45 254.013 555.799C258.107 558.081 258.711 558.617 259.248 560.832C259.584 562.242 260.993 564.658 262.47 566.268C266.698 571.168 273.678 589.423 276.899 604.322C277.503 607.074 278.174 614.457 278.443 620.765C278.98 632.04 278.98 632.242 281.664 638.886C283.879 644.255 284.819 648.148 286.496 658.148C288.51 669.758 290.188 676.805 291.06 676.805C291.329 676.805 291.262 673.853 291.06 670.161C290.591 663.517 289.114 655.463 286.564 645.665C285.825 642.712 285.221 639.289 285.221 637.946C285.154 636.604 284.617 634.322 283.879 632.846C283.074 631.168 282.537 628.685 282.537 626.135C282.537 623.584 282 621.034 281.128 619.088C280.188 617.007 279.852 615.329 280.121 613.651C280.389 612.175 280.121 610.229 279.584 608.886C278.778 607.007 278.712 605.598 279.248 601.772C280.053 595.933 279.248 591.973 275.289 583.114C273.812 579.826 272.269 575.933 271.798 574.457C269.517 567.275 263.074 558.349 255.221 551.638C249.382 546.604 242.269 543.182 242.269 545.329Z" fill="black" fill-opacity="0.9"/>
<path d="M213.074 547.275C205.02 550.497 194.349 561.101 188.108 571.973C186.362 575.127 183.477 579.222 181.798 581.101C180.121 582.98 176.966 586.805 174.751 589.557C172.604 592.309 169.651 595.732 168.242 597.141C165.892 599.423 165.759 599.826 166.161 602.175C166.698 605.262 166.967 605.664 168.175 605.664C168.846 605.664 169.114 604.725 169.114 601.772L169.181 597.946L170.255 599.96L171.329 601.906L172.403 600.295C173.007 599.356 175.758 595.799 178.577 592.241C181.396 588.752 184.483 584.457 185.49 582.778C186.497 581.034 187.839 579.49 188.577 579.289C189.248 579.087 190.859 577.543 192.067 575.731C193.275 573.987 195.288 571.235 196.496 569.624C197.772 567.879 198.644 565.933 198.644 564.725C198.644 562.913 198.779 562.779 200.591 563.114C203.342 563.718 204.819 562.644 207.973 557.745C210.926 553.181 212.805 551.973 214.416 553.315C215.221 553.986 215.49 553.919 215.825 552.913C216.899 549.557 217.637 547.946 218.108 547.946C219.248 547.946 219.383 551.302 218.376 553.651C217.839 554.993 217.503 556.269 217.637 556.403C217.772 556.537 218.845 556.269 219.987 555.866C222.201 554.993 222.738 553.517 221.396 552.174C220.926 551.705 220.792 550.899 221.06 550.295C221.396 549.423 222 549.222 223.745 549.557C225.49 549.893 226.094 549.758 226.429 548.886C227.168 547.007 225.759 546.335 220.926 546.134C217.637 546 215.49 546.268 213.074 547.275Z" fill="black" fill-opacity="0.9"/>
<path d="M227.503 548.215C227.503 550.9 228.913 551.705 232.47 551.034C233.812 550.765 235.087 550.967 235.893 551.571C237.168 552.51 237.235 552.577 236.027 554.591C234.618 556.94 235.021 559.557 236.765 559.222C237.369 559.088 238.108 558.014 238.51 556.806C238.846 555.665 239.383 554.658 239.718 554.658C240.054 554.658 242.403 556.604 244.953 559.02C247.504 561.436 250.054 563.383 250.524 563.383C251.06 563.383 252.739 565.933 254.215 569.087C255.759 572.242 258.779 577.813 261.061 581.437C263.275 585.061 265.087 588.752 265.087 589.692C265.087 590.631 265.893 594.121 266.833 597.343C267.772 600.631 268.98 604.994 269.584 607.007C270.322 609.759 270.725 616.739 271.128 634.39C271.665 657.208 271.665 658.215 270.389 660.363C269.047 662.645 266.765 672.712 267.504 673.383C268.376 674.256 270.389 670.564 271.463 666.067C272.134 663.249 273.141 660.967 273.88 660.497C274.953 659.691 275.155 658.215 275.557 648.215C277.034 609.692 268.108 575.329 252.202 558.282C248.376 554.188 246.228 553.114 245.222 554.725C245.02 555.128 243.947 553.987 242.873 552.108C240.457 547.88 236.833 545.933 231.329 545.933H227.503V548.215Z" fill="black" fill-opacity="0.9"/>
<path d="M304.818 549.423C303.678 550.564 303.812 551.034 305.624 552.846C306.563 553.785 308.174 556.269 309.248 558.416C310.322 560.631 311.865 562.98 312.671 563.651C314.08 564.927 314.08 564.927 314.08 562.98C314.08 560.766 312.738 558.148 309.584 553.987C308.375 552.376 307.369 550.564 307.369 549.826C307.369 548.484 306.026 548.215 304.818 549.423Z" fill="black" fill-opacity="0.9"/>
<path d="M224.148 553.652C222.872 555.195 223.879 556.806 225.96 556.537C227.436 556.403 227.906 555.933 228.04 554.457C228.242 552.913 228.04 552.645 226.631 552.645C225.691 552.645 224.618 553.115 224.148 553.652Z" fill="black" fill-opacity="0.9"/>
<path d="M230.322 554.993C229.182 557.477 229.315 558.013 231.128 558.013C233.275 558.013 233.879 556.94 232.806 554.926C231.732 552.913 231.262 552.913 230.322 554.993Z" fill="black" fill-opacity="0.9"/>
<path d="M211.262 556.068C210.054 556.739 209.517 561.37 210.591 561.37C212.134 561.37 214.081 559.088 214.081 557.276C214.081 555.262 213.275 554.86 211.262 556.068Z" fill="black" fill-opacity="0.9"/>
<path d="M113.41 558.953C113.41 560.228 113.141 561.504 112.739 561.705C111.933 562.175 111.866 565.195 112.605 565.664C113.41 566.134 117.437 563.584 117.437 562.644C117.437 562.175 117.101 560.698 116.631 559.289C116.094 557.477 115.49 556.671 114.618 556.671C113.678 556.671 113.41 557.208 113.41 558.953Z" fill="black" fill-opacity="0.9"/>
<path d="M181.731 559.356C179.047 560.832 177.1 563.248 175.959 566.537C175.087 569.155 175.355 569.222 178.51 567.343C182.47 564.927 186.563 560.43 186.563 558.349C186.563 557.611 184.147 558.148 181.731 559.356Z" fill="black" fill-opacity="0.9"/>
<path d="M220.121 558.483C216.363 558.685 215.624 558.953 215.088 560.228C214.685 561.101 213.678 561.772 212.604 561.906C211.665 562.04 210.389 562.845 209.785 563.718C209.114 564.725 208.309 565.195 207.437 564.926C206.497 564.658 205.49 565.53 203.276 568.551C201.732 570.698 197.638 575.127 194.215 578.349C187.303 584.859 182.873 590.966 181.665 595.463C181.128 597.476 180.389 598.617 179.383 599.02C178.51 599.356 177.839 600.027 177.839 600.631C177.839 601.168 177.235 601.638 176.497 601.638C175.49 601.638 175.021 602.242 174.685 603.718C174.417 605.127 173.477 606.268 171.732 607.41C168.913 609.154 166.9 612.376 167.235 614.59C167.571 617.074 169.383 616.201 171.128 612.711C172.134 610.832 173.209 609.423 173.678 609.49C174.148 609.624 174.484 608.953 174.484 608.014C174.484 606.537 174.685 606.335 176.094 606.738C177.504 607.074 177.772 606.873 177.973 605.262C178.108 603.852 178.645 603.248 180.188 602.846C181.396 602.51 183.141 601.034 184.551 599.288C185.826 597.611 187.907 595.799 189.047 595.195C190.994 594.322 191.262 593.852 191.262 591.637C191.262 589.49 191.665 588.819 194.014 586.873C195.558 585.665 198.108 582.577 199.786 580.094C201.933 576.738 203.544 575.06 205.557 574.054C207.101 573.248 211.195 570.698 214.685 568.349C218.108 566 221.463 564.054 222.135 564.054C222.806 564.054 225.49 564.524 228.108 565.128C233.141 566.268 235.49 566.067 237.168 564.322C238.779 562.779 238.51 562.175 235.893 560.9C234.014 560.027 233.074 559.893 231.598 560.429C229.987 561.101 229.584 560.966 228.309 559.557C227.571 558.752 226.363 558.081 225.692 558.148C225.021 558.215 222.537 558.349 220.121 558.483Z" fill="black" fill-opacity="0.9"/>
<path d="M238.912 564.323C238.912 567.343 239.114 568.081 240.187 568.416C241.866 568.953 244.617 572.175 247.771 577.342C249.248 579.826 251.261 582.108 252.872 583.047C255.355 584.658 255.624 585.128 257.57 592.04C260.724 602.846 262.268 610.161 263.476 619.557C264.751 629.222 264.281 633.987 261.463 640.9C259.986 644.658 259.382 647.007 257.704 656C257.168 658.953 256.161 660.832 252.939 665.061C250.657 668.014 247.369 673.45 245.557 677.141C243.61 681.302 241.194 685.061 239.315 687.007C236.228 690.228 233.812 694.054 234.483 694.725C234.684 694.926 235.825 694.457 237.033 693.718C239.516 692.175 242.536 688.282 247.1 680.832C248.845 678.081 250.993 675.061 252 674.121C254.08 672.175 255.691 668.685 255.691 666.202C255.691 665.329 256.429 663.92 257.234 663.114C259.181 661.302 260.523 657.678 262.402 649.155C263.275 645.262 264.348 641.973 265.154 641.101L266.496 639.557L266.228 644.591C266.027 647.41 264.751 653.719 263.342 658.819C260.322 669.96 260.993 672.108 264.952 663.718C267.771 657.745 268.107 654.591 267.906 634.591C267.704 617.477 267.57 614.926 266.16 608.752C265.288 605.061 264.013 598.953 263.342 595.262C262.268 589.692 261.664 587.947 259.382 584.524C257.839 582.309 255.154 577.946 253.342 574.792C248.979 567.074 247.167 564.859 243.678 562.577C239.382 559.893 238.912 560.027 238.912 564.323Z" fill="black" fill-opacity="0.9"/>
<path d="M124.953 561.839C124.483 562.04 123.074 564.255 121.798 566.738C119.986 570.363 119.248 571.235 118.241 570.967C117.436 570.765 116.765 571.235 116.228 572.376C115.825 573.315 115.691 574.121 116.027 574.121C116.362 574.121 116.832 574.859 117.033 575.799C117.57 578.014 118.174 577.879 119.584 575.463C120.255 574.322 121.731 572.913 122.872 572.242C124.013 571.638 125.691 570.496 126.564 569.759C127.973 568.483 128.04 568.215 127.302 564.859C126.899 562.98 126.429 561.369 126.228 561.436C125.959 561.436 125.423 561.637 124.953 561.839Z" fill="black" fill-opacity="0.9"/>
<path d="M137.638 564.859C137.302 565.799 136.966 566 136.631 565.531C135.826 564.121 134.215 565.531 130.121 571.168C127.906 574.256 125.49 577.141 124.752 577.477C123.275 578.282 123.141 579.692 124.215 582.779C125.02 584.994 126.161 585.464 127.436 583.92C127.973 583.316 127.973 582.511 127.57 581.302C126.765 579.222 127.235 578.618 128.913 579.692C130.658 580.765 132 579.826 134.617 575.866C137.302 571.839 139.584 569.423 140.725 569.423C141.195 569.423 141.597 568.819 141.597 568.014C141.597 564.725 138.577 562.309 137.638 564.859Z" fill="black" fill-opacity="0.9"/>
<path d="M182.671 567.343C181.194 568.483 178.107 571.974 175.826 575.262C173.476 578.483 170.054 582.98 168.175 585.195C166.228 587.409 163.879 590.296 162.94 591.571C160.993 594.121 158.107 600.899 158.711 601.503C158.913 601.705 159.785 601.503 160.657 601.101C161.732 600.631 162.604 599.289 163.342 597.074C164.282 594.322 165.02 593.383 167.637 591.772C169.785 590.43 172.738 587.276 176.966 581.772C180.322 577.41 184.214 572.578 185.557 571.101C186.832 569.691 187.772 568.081 187.57 567.544C187.369 567.074 187.235 566.336 187.235 566C187.235 564.859 185.423 565.396 182.671 567.343Z" fill="black" fill-opacity="0.9"/>
<path d="M199.651 567.812C199.047 568.752 198.712 569.691 198.913 569.892C199.45 570.496 202.001 568.08 202.001 566.94C202.001 565.53 200.926 565.933 199.651 567.812Z" fill="black" fill-opacity="0.9"/>
<path d="M169.047 569.49C167.772 571.034 165.624 573.517 164.215 574.993C162.872 576.47 161.128 578.886 160.322 580.43C159.584 581.906 158.376 584.255 157.705 585.53C156.966 586.805 156.362 588.55 156.362 589.423C156.362 590.765 156.698 590.966 158.241 590.765C159.92 590.564 160.053 590.362 159.852 588.013C159.718 585.866 159.852 585.53 161.128 585.53C163.074 585.53 165.691 582.51 168.04 577.678C169.516 574.523 170.255 573.718 171.127 573.919C172.738 574.322 174.618 571.436 174.349 568.953C174.013 565.866 171.731 566.134 169.047 569.49Z" fill="black" fill-opacity="0.9"/>
<path d="M221.463 570.094C219.316 570.833 217.033 572.175 215.96 573.383C214.55 574.994 213.544 575.463 211.732 575.463C208.51 575.463 204.618 579.088 201.933 584.524C200.255 588.014 199.651 588.618 198.443 588.416C197.168 588.148 196.497 588.953 194.148 593.047C192.604 595.799 190.725 598.551 190.054 599.155C188.98 600.094 188.846 600.967 189.114 603.517C189.651 608.886 190.121 608.953 193.275 604.39C194.819 602.041 197.973 598.081 200.188 595.463C202.47 592.846 206.228 588.416 208.577 585.597C211.262 582.309 213.409 580.363 214.617 580.027C215.624 579.826 217.101 579.356 217.906 579.155C219.114 578.752 219.383 578.953 219.584 580.564C219.718 581.571 220.188 582.577 220.725 582.712C221.396 582.913 221.53 582.645 221.262 581.571C220.389 578.215 223.879 572.108 226.698 572.108C227.503 572.108 227.638 573.182 227.436 578.282L227.168 584.524L229.383 584.457C231.127 584.322 231.53 584.591 231.53 585.732C231.53 586.47 232.47 588.551 233.678 590.363C235.087 592.644 235.826 594.792 236.094 597.141C236.228 599.087 236.966 602.376 237.772 604.524C239.047 608.148 239.047 608.886 238.309 613.92C236.564 625.799 232.806 637.41 227.973 646.068C225.49 650.497 224.416 651.705 221.933 652.98C221.195 653.316 218.712 656.336 216.497 659.691C213.678 663.853 211.597 666.134 209.92 667.074C207.772 668.215 207.369 668.752 207.369 670.698C207.369 672.712 207.235 672.913 205.758 672.51C204.282 672.175 204.148 672.309 203.812 675.933C203.41 679.893 203.745 681.571 204.483 678.953C204.752 677.745 205.356 677.477 207.302 677.477C210.255 677.41 212.604 675.531 217.101 669.423C218.913 667.007 222.201 663.114 224.483 660.698C229.718 655.195 231.127 652.644 236.228 640.229C239.517 632.175 240.389 629.289 240.59 625.799C240.725 623.383 241.262 620.228 241.799 618.752C244.282 611.839 243.678 597.208 240.658 590.497C238.846 586.537 235.154 582.175 231.866 580.161L229.651 578.819L230.926 576.134C231.664 574.658 232.335 573.45 232.47 573.45C232.738 573.45 241.061 587.745 242.805 591.235C245.624 596.873 246.564 601.638 246.497 609.692C246.429 621.436 243.611 632.242 237.503 644.927C233.342 653.584 229.584 659.222 224.08 665.061C220.926 668.417 219.517 670.43 219.181 672.175C218.846 674.121 218.309 674.725 216.429 675.464C215.154 676 214.081 676.672 214.081 677.074C214.081 677.477 212.738 679.155 211.128 680.832C208.242 683.719 207.772 684.792 207.973 688.014C208.107 690.497 209.92 689.826 210.457 687.141C210.792 685.396 211.329 684.591 212.671 684.121C218.376 682.04 224.617 676.336 228.913 669.155C230.322 666.873 231.664 665.396 232.403 665.396C234.618 665.396 244.081 643.92 247.302 631.504C249.852 621.504 250.524 615.128 250.121 604.054C249.718 592.913 248.241 584.054 246.228 579.96C244.483 576.671 240.121 571.906 237.034 569.96L234.685 568.483L233.678 569.96C232.47 571.772 231.866 571.772 230.188 570.094C228.51 568.416 226.228 568.416 221.463 570.094Z" fill="black" fill-opacity="0.9"/>
<path d="M223.61 575.397C222.335 576.202 222.872 578.417 224.416 578.685C226.093 579.021 227.033 577.88 226.496 576.202C226.027 574.725 225.087 574.457 223.61 575.397Z" fill="black" fill-opacity="0.9"/>
<path d="M110.926 576.604C109.047 576.94 108.98 578.618 110.725 580.765C112 582.242 112.134 582.309 113.745 581.235C115.355 580.161 116.161 576.806 114.819 576.806C114.483 576.806 113.812 576.671 113.275 576.537C112.805 576.403 111.731 576.47 110.926 576.604Z" fill="black" fill-opacity="0.9"/>
<path d="M311.396 580.095C311.396 581.974 311.866 583.316 313.074 584.658L314.684 586.537L314.752 583.987C314.752 581.303 313.141 577.477 312.067 577.477C311.664 577.477 311.396 578.685 311.396 580.095Z" fill="black" fill-opacity="0.9"/>
<path d="M120.255 582.309C118.51 584.054 119.718 589.557 121.866 589.557C122.671 589.557 122.805 588.818 122.671 585.731C122.47 581.906 121.732 580.832 120.255 582.309Z" fill="black" fill-opacity="0.9"/>
<path d="M212.94 584.255C211.866 585.329 211.799 587.007 212.873 588.081C214.013 589.221 212.94 589.893 211.195 589.087C209.651 588.349 209.316 588.752 204.953 594.792C193.476 610.832 180.524 625.799 176.564 627.678C173.275 629.221 171.127 632.644 171.127 636.268C171.127 637.879 171.463 639.356 171.866 639.557C172.202 639.826 173.678 639.222 175.087 638.282C176.43 637.342 177.906 636.537 178.376 636.537C179.45 636.537 180.457 634.322 180.658 631.571C180.859 628.819 181.061 628.684 182.336 630.295C183.208 631.436 183.342 631.369 184.349 629.825C184.953 628.886 187.033 626.604 188.98 624.792C190.859 622.913 193.007 620.497 193.678 619.423C194.416 618.282 196.363 615.866 198.175 614.054C199.919 612.174 203.141 607.946 205.356 604.591C209.853 597.678 214.148 593.383 218.51 591.504L221.463 590.161L224.282 591.772C225.893 592.712 227.503 593.316 227.906 593.181C228.309 592.98 228.913 593.987 229.248 595.329C230.456 600.228 233.745 599.96 233.41 594.926C233.208 593.047 232.604 592.174 229.651 589.893C227.705 588.416 225.759 586.47 225.289 585.53C224.215 583.382 221.262 583.047 218.108 584.725C215.825 586 215.758 586 214.752 584.725C213.946 583.718 213.611 583.584 212.94 584.255Z" fill="black" fill-opacity="0.9"/>
<path d="M249.651 586.269C249.651 587.544 250.457 591.705 251.463 595.598C253.208 602.175 253.275 603.517 253.208 615.262C253.141 624.725 253.275 627.812 253.879 627.611C254.35 627.477 255.02 626.202 255.423 624.725C256.564 620.631 258.041 621.303 257.772 625.799C257.504 631.839 255.759 638.349 251.799 648.282C249.584 653.987 247.974 659.087 247.772 661.235C247.504 664.188 247.168 664.926 245.826 665.598C244.014 666.403 242.403 668.886 240.256 674.322C239.047 677.477 238.51 678.081 237.504 677.812C236.631 677.544 236.229 677.745 236.229 678.416C236.229 678.953 234.417 680.967 232.269 682.846C227.974 686.604 226.967 688.752 228.175 691.906L228.913 693.786L229.987 692.175C230.658 691.302 233.477 687.678 236.296 684.188C241.262 678.081 244.953 671.772 244.953 669.289C244.953 668.55 245.289 668.282 245.893 668.484C247.101 668.953 248.376 666.537 249.987 661.034C250.725 658.349 251.866 656.202 253.477 654.524C255.49 652.511 255.96 651.436 256.229 648.484C256.43 646.403 257.235 643.718 258.309 641.906C259.786 639.356 260.054 637.946 260.255 632.309C260.457 628.685 260.188 623.987 259.786 621.907C259.383 619.826 258.712 614.524 258.376 610.161C257.235 598.148 254.081 587.678 250.725 584.926C249.786 584.121 249.651 584.322 249.651 586.269Z" fill="black" fill-opacity="0.9"/>
<path d="M296.832 587.679C297.167 589.222 299.852 597.343 301.798 602.981C302.402 604.658 303.879 606.94 305.154 608.148C306.966 609.893 307.369 610.765 307.369 613.182C307.369 616.873 308.174 618.215 309.382 616.739C311.798 613.786 300.791 586.336 297.033 586.202C296.764 586.202 296.631 586.873 296.832 587.679Z" fill="black" fill-opacity="0.9"/>
<path d="M115.423 588.953C115.423 590.698 115.221 590.966 113.946 590.765C112.738 590.631 112.335 590.966 112.201 592.174C111.799 594.657 113.141 595.396 114.953 593.718C115.825 592.913 116.832 592.241 117.302 592.241C118.644 592.241 118.845 590.966 117.772 588.886C116.429 586.269 115.423 586.335 115.423 588.953Z" fill="black" fill-opacity="0.9"/>
<path d="M153.208 592.241C151.866 594.725 149.92 596.805 145.826 600.027C144.416 601.235 142.202 604.054 140.994 606.335C138.376 611.235 136.631 613.181 135.289 612.644C134.752 612.443 134.081 612.778 133.745 613.517C132.671 615.597 133.141 616.738 135.02 616.94C136.363 617.074 137.705 616.269 141.061 613.181C143.343 611.034 145.96 608.886 146.833 608.416C148.376 607.611 148.376 607.141 147.168 603.785C146.967 603.315 147.437 602.98 148.51 602.98C150.524 602.98 152.873 600.228 155.088 595.329C156.363 592.376 156.363 591.973 155.423 591.033C154.484 590.094 154.282 590.228 153.208 592.241Z" fill="black" fill-opacity="0.9"/>
<path d="M108.309 593.919C108.376 596.134 109.383 596.134 109.383 593.919C109.383 592.98 109.114 592.241 108.779 592.241C108.443 592.241 108.242 592.98 108.309 593.919Z" fill="black" fill-opacity="0.9"/>
<path d="M220.121 594.926C219.584 595.262 218.309 595.597 217.302 595.597C214.819 595.597 210.926 600.228 204.349 611.101C199.919 618.349 197.436 621.57 190.322 629.02C185.557 634.054 180.725 638.618 179.584 639.154C178.443 639.758 176.295 641.839 174.819 643.853C172.671 646.671 171.262 647.745 168.644 648.752C164.617 650.228 160.389 654.456 160.389 657.007C160.389 658.617 160.456 658.617 162.94 657.745C170.456 655.06 177.638 650.094 188.845 639.691L195.96 633.047L196.027 629.624C196.094 627.678 196.295 626.94 196.429 627.947C196.967 631.302 198.912 629.892 203.342 622.845C204.886 620.429 206.698 618.282 207.436 618.081C208.174 617.812 208.711 617.074 208.711 616.134C208.711 613.047 209.517 610.43 210.389 610.765C210.792 610.966 212.738 609.02 214.617 606.335C216.564 603.718 218.845 601.235 219.785 600.832C221.195 600.228 221.463 599.624 221.463 597.141C221.463 595.597 221.396 594.255 221.329 594.255C221.195 594.255 220.657 594.591 220.121 594.926Z" fill="black" fill-opacity="0.9"/>
<path d="M222.537 597.074C222.336 597.544 222.067 599.289 221.933 600.832C221.664 602.913 221.128 604.121 219.987 604.859C217.168 606.873 215.557 609.087 212.336 615.262C210.523 618.886 207.705 622.98 205.691 625.195C203.745 627.208 201.396 630.43 200.389 632.309C199.45 634.188 197.839 636.336 196.832 637.074C195.758 637.812 191.664 641.772 187.637 645.799C183.275 650.228 179.651 653.316 178.577 653.517C177.638 653.718 173.745 655.732 169.987 658.014C164.684 661.235 162.47 662.175 160.053 662.376C158.04 662.51 156.429 663.047 155.691 663.786C154.148 665.396 153.141 670.094 154.349 670.094C156.228 670.094 169.114 665.799 173.611 663.651C178.242 661.436 181.866 658.215 181.866 656.269C181.866 655.732 182.201 655.329 182.537 655.329C182.94 655.329 183.208 655.933 183.208 656.671C183.208 657.41 183.544 658.014 183.879 658.014C184.282 658.014 184.55 657.745 184.55 657.41C184.55 657.074 186.631 655.128 189.248 653.047C192 650.832 194.08 648.551 194.349 647.544C194.617 646.537 195.154 646 195.691 646.201C196.228 646.403 197.772 645.128 199.45 643.181C201.06 641.369 204.014 638.081 206.094 636C209.718 632.242 210.859 630.295 216.564 617.745C218.913 612.645 223.208 606.537 223.946 607.208C224.08 607.342 223.409 609.893 222.47 612.779C220.591 618.551 217.503 624.792 217.436 622.913C217.436 621.302 216.094 621.436 216.094 623.114C216.094 623.852 216.362 624.456 216.698 624.456C216.966 624.456 216.161 627.007 214.886 630.094C212.94 634.658 212.067 635.933 210.188 636.94C208.98 637.611 205.826 640.765 203.275 643.987C197.638 651.101 192.268 656.135 185.893 660.363C179.248 664.792 168.51 669.96 163.611 671.101C158.778 672.175 156.966 673.785 156.832 676.873C156.698 678.685 157.033 679.222 158.443 679.692C160.725 680.564 163.745 679.088 168.443 674.725C172.939 670.564 174.819 669.691 180.859 669.087C186.966 668.483 189.517 667.007 196.967 659.356C200.322 656 204.282 652.443 205.893 651.504C207.436 650.564 209.248 648.886 209.852 647.678C212.134 643.181 215.02 639.691 217.101 638.819C219.114 638.014 219.651 637.141 222 631.034C225.154 623.047 226.832 615.53 226.832 609.691C226.832 606.067 226.698 605.665 225.423 605.665C224.282 605.665 224.08 605.329 224.282 603.182C224.55 599.826 225.691 599.691 227.772 602.779C229.45 605.195 229.517 605.732 229.517 614.792C229.517 623.316 229.383 624.389 228.175 625.463C226.765 626.739 225.087 631.235 224.416 635.732C224.08 637.678 223.678 638.483 223.141 638.282C222.671 638.148 220.926 639.691 219.181 641.772C212.537 650.094 208.913 653.987 205.691 656.403C203.879 657.812 201.195 660.228 199.718 661.839C196.363 665.598 191.195 669.356 188.309 670.161C186.631 670.631 185.825 671.369 185.289 672.913C183.208 678.886 178.376 682.108 170.725 682.644C165.892 683.047 165.758 683.114 165.758 684.792C165.758 686.94 166.899 688.215 168.779 688.215C171.53 688.215 181.127 682.846 187.369 677.812C192.268 673.853 194.08 672.779 195.758 672.779C197.369 672.779 198.711 672.108 200.591 670.43C202 669.154 203.678 668.081 204.282 668.081C204.886 668.081 205.355 667.678 205.355 667.141C205.355 665.463 208.107 662.711 211.463 661.034C213.275 660.094 215.154 658.685 215.624 657.812C216.161 657.007 217.57 654.658 218.778 652.51C219.987 650.43 221.732 648.416 222.604 648.013C223.611 647.544 224.148 646.738 224.148 645.53C224.148 644.457 225.154 642.645 226.765 640.833C231.799 635.128 234.886 623.718 234.886 611.101V604.591L231.731 601.503C229.919 599.759 227.369 597.879 226.027 597.275C223.007 596.067 222.805 596.067 222.537 597.074Z" fill="black" fill-opacity="0.9"/>
<path d="M119.92 597.342C119.651 597.611 119.45 598.416 119.45 599.087C119.45 599.96 118.98 600.295 117.772 600.295C116.497 600.295 116.027 600.765 115.691 602.107C115.087 605.127 114.819 605.664 114.148 605.664C113.812 605.664 113.275 605.06 113.074 604.322C112.873 603.584 112.201 602.98 111.664 602.98C110.524 602.98 110.322 608.684 111.396 609.355C111.799 609.557 112.067 609.154 112.067 608.416C112.067 607.275 112.336 607.208 113.946 607.678C117.235 608.617 121.195 606.134 122.671 602.241C123.208 600.832 123.074 600.161 121.933 598.684C121.128 597.677 120.188 597.073 119.92 597.342Z" fill="black" fill-opacity="0.9"/>
<path d="M282.537 600.43C282.604 606.134 283.947 613.584 286.899 624.457C288.51 630.564 290.658 640.363 291.598 646.202C293.477 657.41 295.154 663.114 297.235 664.994C299.785 667.276 299.584 663.92 296.698 655.531C295.96 653.249 295.289 650.363 295.289 649.155C295.289 647.947 294.685 645.329 293.946 643.383C291.598 637.209 290.054 630.698 287.235 615.061C285.759 606.738 284.349 599.423 284.148 598.752C283.476 596.604 282.537 597.611 282.537 600.43Z" fill="black" fill-opacity="0.9"/>
<path d="M154.081 603.383C153.409 604.322 152.335 607.209 151.664 609.893C150.859 613.249 150.322 614.389 149.986 613.517C149.315 611.839 147.168 612.108 146.698 613.853C146.496 614.725 144.953 616.269 143.275 617.276C140.255 619.222 139.248 620.967 139.718 623.853C139.852 625.061 140.255 625.396 141.262 625.262C143.812 624.859 147.973 621.436 149.45 618.484C150.255 616.873 151.53 614.86 152.268 614.121C153.879 612.376 158.376 602.846 157.973 602.175C157.235 601.034 155.154 601.705 154.081 603.383Z" fill="black" fill-opacity="0.9"/>
<path d="M185.222 604.323C184.752 605.195 182.068 608.349 179.181 611.437C176.296 614.524 173.611 618.014 173.141 619.356C172.671 620.9 171.933 621.772 170.994 621.907C168.846 622.242 166.631 625.531 167.503 627.007C168.578 628.618 170.658 628.417 171.463 626.605C171.799 625.799 172.671 625.128 173.342 625.128C174.081 625.128 175.021 624.122 175.759 622.443C176.43 620.967 177.168 619.96 177.437 620.229C177.973 620.833 185.692 613.316 186.967 610.9C188.108 608.685 188.108 606.47 186.967 604.39L186.094 602.779L185.222 604.323Z" fill="black" fill-opacity="0.9"/>
<path d="M161.463 606.269C159.987 609.02 160.121 609.691 162.067 609.691C163.879 609.691 164.282 609.154 164.551 606.336C164.819 603.853 162.739 603.786 161.463 606.269Z" fill="black" fill-opacity="0.9"/>
<path d="M121.597 611.369C121.127 612.376 120.523 614.591 120.322 616.336C119.919 619.155 119.986 619.356 120.993 618.484C122.536 617.276 123.744 612.51 123.006 610.833C122.469 609.625 122.335 609.691 121.597 611.369Z" fill="black" fill-opacity="0.9"/>
<path d="M157.973 610.229C156.899 610.9 155.691 613.45 155.691 614.994C155.691 617.812 159.114 615.866 159.92 612.578C160.255 610.967 159.114 609.49 157.973 610.229Z" fill="black" fill-opacity="0.9"/>
<path d="M163.074 615.396C162.201 617.745 162.201 622.241 163.141 622.779C164.282 623.517 164.685 622.644 164.953 618.483C165.289 614.188 164.215 612.443 163.074 615.396Z" fill="black" fill-opacity="0.9"/>
<path d="M115.825 616.672C115.355 618.551 116.362 621.772 117.436 621.772C118.443 621.772 118.04 615.598 117.033 615.262C116.563 615.128 116.094 615.732 115.825 616.672Z" fill="black" fill-opacity="0.9"/>
<path d="M127.638 618.081C125.423 620.497 124.55 622.846 124.953 624.792C125.087 625.732 125.825 625.396 128.711 623.047C131.664 620.564 132.201 619.759 132.067 618.081C131.799 615.262 130.121 615.262 127.638 618.081Z" fill="black" fill-opacity="0.9"/>
<path d="M158.778 618.416C156.496 619.154 154.416 620.899 153.678 622.845C153.275 623.785 152.268 624.456 150.724 624.725C147.637 625.329 143.275 628.282 135.355 635.262C129.181 640.631 128.979 640.899 130.724 641.235C135.758 642.309 142.469 639.087 148.778 632.711C151.463 630.027 154.013 627.812 154.55 627.812C155.02 627.812 156.429 627.074 157.704 626.134C158.979 625.194 160.322 624.456 160.657 624.456C161.06 624.456 161.396 622.98 161.396 621.101C161.396 619.221 161.261 617.745 161.06 617.812C160.858 617.812 159.852 618.148 158.778 618.416Z" fill="black" fill-opacity="0.9"/>
<path d="M226.833 622.107C226.833 623.382 227.168 624.456 227.503 624.456C227.906 624.456 228.175 623.382 228.175 622.107C228.175 620.832 227.906 619.758 227.503 619.758C227.168 619.758 226.833 620.832 226.833 622.107Z" fill="black" fill-opacity="0.9"/>
<path d="M302.671 622.108C302 622.913 302.134 624.255 303.678 629.624C304.617 633.248 306.027 637.275 306.765 638.55L308.108 640.899L307.839 636.403C307.571 632.98 307.034 631.101 305.356 628.148C303.611 625.06 303.342 624.255 304.081 623.383C304.617 622.712 304.685 622.175 304.215 621.705C303.745 621.235 303.275 621.369 302.671 622.108Z" fill="black" fill-opacity="0.9"/>
<path d="M131.463 626.671C125.826 631.973 123.343 635.195 124.953 635.195C126.564 635.195 135.826 630.497 137.705 628.685C139.114 627.343 139.45 626.537 139.114 625.195C138.712 623.316 137.705 621.772 136.967 621.772C136.766 621.839 134.282 623.987 131.463 626.671Z" fill="black" fill-opacity="0.9"/>
<path d="M120.121 627.812C120.121 631.839 120.926 632.107 122.134 628.55C123.006 625.798 122.671 624.456 121.06 624.456C120.389 624.456 120.121 625.329 120.121 627.812Z" fill="black" fill-opacity="0.9"/>
<path d="M164.215 628.819C162.872 630.027 161.866 630.363 160.725 630.094C159.517 629.826 159.047 630.027 158.712 631.101C158.376 632.175 157.705 632.51 156.161 632.51C153.544 632.51 152.067 633.45 145.691 639.356C142.805 642.04 139.852 644.188 138.779 644.389C136.363 644.859 135.893 645.866 136.698 649.02L137.235 651.436L140.591 648.483C145.423 644.188 160.725 633.181 161.933 633.181C162.067 633.181 162 634.255 161.866 635.53C161.463 638.819 162.537 638.483 164.684 634.523C165.691 632.711 166.967 630.899 167.571 630.631C168.376 630.161 168.443 629.759 167.839 628.551C166.832 626.805 166.564 626.805 164.215 628.819Z" fill="black" fill-opacity="0.9"/>
<path d="M114.953 629.49C114.752 630.094 114.752 630.698 114.953 630.899C115.557 631.503 116.765 630.497 116.765 629.423C116.765 628.148 115.49 628.215 114.953 629.49Z" fill="black" fill-opacity="0.9"/>
<path d="M250.993 629.557C250.993 630.228 249.316 635.597 247.302 641.57C245.289 647.61 243.611 652.845 243.611 653.315C243.611 653.785 242.738 655.261 241.732 656.604C240.658 657.946 238.309 661.57 236.497 664.658C234.685 667.745 231.127 672.376 228.644 674.926C224.483 679.154 221.53 683.785 221.463 686.067C221.463 687.141 228.175 682.04 232.537 677.745C235.96 674.322 238.577 669.691 239.315 665.799C239.584 664.12 240.658 662.308 242.201 660.765C243.812 659.154 245.825 655.53 248.241 650.027C252.738 639.758 253.678 636.604 253.678 632.04C253.678 628.953 253.544 628.483 252.336 628.483C251.53 628.483 250.993 628.953 250.993 629.557Z" fill="black" fill-opacity="0.9"/>
<path d="M110.188 631.906C110.322 633.181 110.725 634.121 111.06 633.987C112.067 633.785 111.866 630.295 110.859 629.96C110.188 629.758 109.986 630.295 110.188 631.906Z" fill="black" fill-opacity="0.9"/>
<path d="M277.571 639.96C276.9 643.382 277.101 647.879 278.175 654.322C278.779 657.611 279.45 663.45 279.785 667.208C280.121 670.966 280.591 674.322 280.859 674.725C282.739 677.879 283.141 667.41 281.463 655.664C280.927 651.571 280.323 646.269 280.054 643.785C279.584 638.618 278.242 636.537 277.571 639.96Z" fill="black" fill-opacity="0.9"/>
<path d="M121.53 641.235C120.591 644.322 120.591 644.591 121.463 644.591C121.866 644.591 122.134 644.121 122.134 643.517C122.134 642.645 122.604 642.51 124.819 642.913C127.235 643.316 127.503 643.249 127.503 641.973C127.503 641.168 127.101 640.564 126.698 640.564C126.228 640.564 125.02 640.161 124.081 639.624C122.336 638.752 122.268 638.752 121.53 641.235Z" fill="black" fill-opacity="0.9"/>
<path d="M157.57 639.692C156.966 640.363 156.228 641.571 155.825 642.309C155.423 643.115 154.148 643.92 152.94 644.188C148.98 644.994 144.953 647.88 143.611 650.832C142.939 652.376 142.403 653.719 142.537 653.786C142.738 654.054 154.819 647.611 156.161 646.47C157.772 645.128 161.06 639.759 160.657 639.155C160.053 638.215 158.644 638.484 157.57 639.692Z" fill="black" fill-opacity="0.9"/>
<path d="M164.953 640.228C163.477 641.705 161.732 645.798 161.732 647.879C161.732 648.953 167.974 644.054 168.98 642.107C170.859 638.617 167.906 637.208 164.953 640.228Z" fill="black" fill-opacity="0.9"/>
<path d="M115.759 640.497C112.94 641.101 112.604 643.987 115.088 645.665C116.094 646.336 117.034 646.537 117.369 646.202C118.108 645.396 118.913 639.893 118.309 639.96C117.973 640.028 116.9 640.229 115.759 640.497Z" fill="black" fill-opacity="0.9"/>
<path d="M300.457 644.993C299.92 645.53 300.591 648.685 301.329 649.49C302 650.228 302.94 646.201 302.336 645.262C301.866 644.523 301.061 644.389 300.457 644.993Z" fill="black" fill-opacity="0.9"/>
<path d="M131.53 646.604C130.993 646.94 129.987 647.074 129.383 646.873C128.443 646.604 128.175 646.94 128.175 648.483C128.175 651.033 127.503 651.571 126.362 649.96C125.154 648.215 124.886 648.282 122.336 650.698C118.913 653.852 119.383 654.658 124.416 654.658C131.732 654.658 135.49 652.376 135.02 648.282C134.752 645.866 133.611 645.262 131.53 646.604Z" fill="black" fill-opacity="0.9"/>
<path d="M158.51 648.081C157.369 649.222 157.504 651.303 158.712 651.303C159.852 651.303 161.329 648.887 160.725 647.947C160.188 647.075 159.517 647.075 158.51 648.081Z" fill="black" fill-opacity="0.9"/>
<path d="M154.214 652.779C153.006 653.987 152.335 655.463 152.335 656.671C152.335 658.886 152.537 659.02 154.349 658.014C155.825 657.208 157.57 652.242 156.631 651.369C156.295 651.034 155.221 651.638 154.214 652.779Z" fill="black" fill-opacity="0.9"/>
<path d="M146.631 657.946C146.027 659.154 145.893 660.094 146.296 660.363C147.034 660.832 149.651 659.557 149.651 658.684C149.651 658.416 149.853 657.678 150.054 657.074C150.859 654.993 147.772 655.866 146.631 657.946Z" fill="black" fill-opacity="0.9"/>
<path d="M157.302 657.678C157.1 658.617 157.033 659.557 157.234 659.759C157.906 660.429 159.046 659.288 159.046 658.013C159.046 656 157.771 655.799 157.302 657.678Z" fill="black" fill-opacity="0.9"/>
<path d="M140.322 657.275C138.778 657.678 137.436 659.825 138.04 660.832C138.376 661.503 140.993 661.503 142.067 660.832C142.47 660.564 143.074 659.49 143.275 658.483C143.812 656.537 143.409 656.403 140.322 657.275Z" fill="black" fill-opacity="0.9"/>
<path d="M135.96 658.349C135.691 659.155 135.288 659.289 134.282 658.685C133.342 658.215 132.805 658.215 132.537 658.685C131.664 660.094 132.805 661.37 134.886 661.37C136.698 661.37 136.899 661.168 136.899 659.356C136.899 657.141 136.564 656.806 135.96 658.349Z" fill="black" fill-opacity="0.9"/>
<path d="M126.833 659.96C125.759 662.04 126.027 664.054 127.369 664.054C129.114 664.054 130.188 662.711 130.188 660.564C130.188 659.155 129.853 658.685 128.846 658.685C128.175 658.685 127.235 659.289 126.833 659.96Z" fill="black" fill-opacity="0.9"/>
<path d="M122.134 661.369C122.134 662.242 122.469 662.577 123.141 662.309C123.677 662.04 124.147 661.503 124.147 660.967C124.147 660.43 123.677 660.027 123.141 660.027C122.604 660.027 122.134 660.631 122.134 661.369Z" fill="black" fill-opacity="0.9"/>
<path d="M274.215 669.558C273.879 673.584 273.141 675.867 270.054 682.377C267.973 686.739 266.43 690.43 266.631 690.632C267.235 691.236 269.517 689.692 270.725 687.88C271.396 686.873 271.933 684.726 272 683.115C272.067 681.504 272.335 680.162 272.671 680.162C272.94 680.162 273.745 679.155 274.483 677.947C275.49 676.336 275.825 674.591 275.825 671.101C275.825 664.457 274.819 663.517 274.215 669.558Z" fill="black" fill-opacity="0.9"/>
<path d="M139.718 667.141C139.852 668.148 140.322 669.088 140.792 669.289C141.463 669.49 141.664 669.021 141.463 667.678C141.329 666.672 140.859 665.732 140.389 665.53C139.718 665.329 139.517 665.799 139.718 667.141Z" fill="black" fill-opacity="0.9"/>
<path d="M145.221 666.335C144.684 667.812 145.154 670.295 146.161 670.631C146.698 670.765 146.966 670.027 146.966 668.147C146.966 665.463 145.959 664.456 145.221 666.335Z" fill="black" fill-opacity="0.9"/>
<path d="M150.053 666.47C149.449 668.081 149.583 670.765 150.322 670.765C151.194 670.765 152.335 668.484 152.335 666.806C152.335 665.128 150.657 664.926 150.053 666.47Z" fill="black" fill-opacity="0.9"/>
<path d="M131.262 667.812C130.591 669.624 130.792 670.765 131.866 670.765C132.47 670.765 132.872 670.161 132.872 669.154C132.872 667.141 131.866 666.335 131.262 667.812Z" fill="black" fill-opacity="0.9"/>
<path d="M125.893 669.154C125.624 669.758 125.624 670.43 125.826 670.631C126.228 671.034 128.175 669.423 128.175 668.685C128.175 667.611 126.295 668.014 125.893 669.154Z" fill="black" fill-opacity="0.9"/>
<path d="M258.376 671.973C258.376 672.443 256.765 674.59 254.752 676.738C251.53 680.228 249.517 684.322 250.523 685.329C251.194 685.933 254.416 683.315 256.295 680.563C258.577 677.208 259.987 672.778 259.047 671.839C258.577 671.369 258.376 671.436 258.376 671.973Z" fill="black" fill-opacity="0.9"/>
<path d="M175.423 673.383C173.544 674.524 170.457 678.081 170.457 679.088C170.457 679.624 178.577 678.752 179.92 678.081C180.524 677.745 181.396 676.604 181.732 675.463C182.336 673.785 182.269 673.383 181.195 672.779C179.316 671.772 177.772 671.973 175.423 673.383Z" fill="black" fill-opacity="0.9"/>
<path d="M152.47 675.194C150.724 676.403 150.523 679.356 152.067 679.96C153.409 680.497 155.02 678.55 155.02 676.403C155.02 674.322 154.214 673.986 152.47 675.194Z" fill="black" fill-opacity="0.9"/>
<path d="M198.846 675.732C196.765 676.738 196.564 681.504 198.577 681.504C200.255 681.504 202 679.02 202 676.672C202 674.658 201.329 674.457 198.846 675.732Z" fill="black" fill-opacity="0.9"/>
<path d="M141.396 677.074C140.725 678.752 140.792 681.504 141.53 681.504C142.402 681.504 142.939 678.886 142.335 677.275C141.866 676.067 141.798 676 141.396 677.074Z" fill="black" fill-opacity="0.9"/>
<path d="M263.879 676.94C262.738 678.081 262.873 681.504 264.014 681.504C265.088 681.504 265.759 680.094 265.759 677.745C265.759 676 265.088 675.732 263.879 676.94Z" fill="black" fill-opacity="0.9"/>
<path d="M145.624 678.752C145.624 679.49 145.96 680.295 146.295 680.497C146.698 680.765 146.966 680.161 146.966 679.221C146.966 678.282 146.698 677.477 146.295 677.477C145.96 677.477 145.624 678.081 145.624 678.752Z" fill="black" fill-opacity="0.9"/>
<path d="M191.597 680.161C190.524 680.899 188.779 682.577 187.705 683.986C185.96 686.335 185.893 686.604 186.966 687.342C188.51 688.483 188.51 688.483 192.067 686.872C194.752 685.731 195.155 685.194 195.557 683.047C195.759 681.637 195.96 680.094 195.96 679.624C195.96 678.416 193.879 678.617 191.597 680.161Z" fill="black" fill-opacity="0.9"/>
<path d="M162.067 683.718C161.396 685.396 162 687.879 163.074 687.879C164.483 687.879 164.685 685.798 163.477 684.053C162.604 682.845 162.403 682.778 162.067 683.718Z" fill="black" fill-opacity="0.9"/>
<path d="M126.698 685.799C125.221 689.087 128.979 690.832 135.02 689.691C137.302 689.221 138.644 689.288 139.852 689.892C141.731 690.899 142.268 690.631 142.268 688.55C142.268 685.597 140.523 685.06 136.228 686.671C132.268 688.08 132.268 688.08 131.06 686.738C128.778 684.188 127.57 683.987 126.698 685.799Z" fill="black" fill-opacity="0.9"/>
<path d="M155.825 685.195C153.007 686.403 153.342 687.812 156.497 688.081C158.376 688.215 159.181 687.947 159.987 686.739C160.591 685.933 161.06 684.993 161.06 684.725C161.06 683.852 158.242 684.121 155.825 685.195Z" fill="black" fill-opacity="0.9"/>
<path d="M150.053 686.538C149.852 687.074 149.181 687.544 148.577 687.544C147.1 687.544 147.771 689.155 149.449 689.423C151.06 689.692 152.603 687.947 152.067 686.538C151.597 685.262 150.59 685.262 150.053 686.538Z" fill="black" fill-opacity="0.9"/>
<path d="M204.684 686.872C204.684 687.611 205.02 688.215 205.355 688.215C205.758 688.215 206.027 687.611 206.027 686.872C206.027 686.134 205.758 685.53 205.355 685.53C205.02 685.53 204.684 686.134 204.684 686.872Z" fill="black" fill-opacity="0.9"/>
<path d="M217.235 687.41C216.027 688.685 215.423 689.96 215.558 690.967L215.759 692.443L217.638 690.833C219.115 689.625 219.517 688.685 219.316 687.275L219.115 685.396L217.235 687.41Z" fill="black" fill-opacity="0.9"/>
<path d="M179.315 688.215C178.107 688.954 176.764 690.296 176.362 691.235C175.691 692.712 175.556 692.779 174.818 691.772C173.342 689.759 171.798 691.168 171.798 694.591C171.798 698.148 173.342 698.819 174.684 695.732C175.221 694.457 175.892 693.987 176.697 694.121C179.114 694.591 181.261 693.517 183.207 690.766C184.348 689.289 185.221 687.746 185.221 687.41C185.221 686.403 181.53 686.873 179.315 688.215Z" fill="black" fill-opacity="0.9"/>
<path d="M144.281 688.685C144.281 689.49 144.617 690.363 144.952 690.565C145.825 691.101 145.825 689.558 144.952 688.215C144.415 687.41 144.281 687.477 144.281 688.685Z" fill="black" fill-opacity="0.9"/>
<path d="M195.624 690.9C195.154 692.309 196.362 695.195 197.235 694.658C197.906 694.255 197.302 689.558 196.631 689.558C196.295 689.558 195.892 690.162 195.624 690.9Z" fill="black" fill-opacity="0.9"/>
<path d="M276.497 691.034C276.497 691.503 276.832 692.376 277.168 692.913C277.705 693.718 277.839 693.651 277.839 692.443C277.839 691.638 277.57 690.765 277.168 690.564C276.832 690.363 276.497 690.564 276.497 691.034Z" fill="black" fill-opacity="0.9"/>
<path d="M263.209 692.443C261.262 694.523 261.329 695.463 263.41 695.061C264.349 694.926 265.088 694.39 265.088 693.919C265.088 693.383 265.289 692.577 265.49 691.973C266.094 690.43 264.886 690.698 263.209 692.443Z" fill="black" fill-opacity="0.9"/>
<path d="M191.531 692.578C191.262 693.249 190.188 693.584 188.175 693.584C184.282 693.584 180.121 695.329 178.51 697.611C175.49 701.839 177.369 702.645 183.88 700.027C186.027 699.154 188.779 698.215 189.852 697.946C191.396 697.611 191.933 697.141 191.933 696.067C191.933 695.262 192.537 694.188 193.275 693.718C194.081 693.249 194.483 692.578 194.282 692.242C193.678 691.235 191.933 691.437 191.531 692.578Z" fill="black" fill-opacity="0.9"/>
<path d="M222.201 693.316C220.657 695.329 220.322 697.612 221.664 697.612C223.342 697.544 226.093 694.457 225.691 692.981C225.221 691.101 223.879 691.236 222.201 693.316Z" fill="black" fill-opacity="0.9"/>
<path d="M165.624 692.98C163.879 693.987 164.148 695.127 166.496 696.47C169.047 697.879 169.785 697.477 169.785 694.523C169.785 692.577 169.584 692.242 168.308 692.242C167.436 692.242 166.228 692.577 165.624 692.98Z" fill="black" fill-opacity="0.9"/>
<path d="M210.524 692.711C209.45 693.718 210.121 694.994 211.53 694.792C213.477 694.523 214.081 692.242 212.201 692.242C211.53 692.242 210.725 692.443 210.524 692.711Z" fill="black" fill-opacity="0.9"/>
<path d="M206.027 697.41C206.027 699.087 207.034 699.96 207.705 698.886C207.973 698.483 207.705 697.678 207.101 697.074C206.094 696.067 206.027 696.067 206.027 697.41Z" fill="black" fill-opacity="0.9"/>
<path d="M230.389 697.074C229.987 697.544 229.517 698.484 229.315 699.088C228.98 700.027 229.248 700.296 230.456 700.296C232 700.296 232.873 699.155 232.873 697.209C232.873 696.067 231.262 696 230.389 697.074Z" fill="black" fill-opacity="0.9"/>
<path d="M147.302 698.282C147.101 698.618 147.235 699.557 147.638 700.363C148.376 701.705 148.443 701.705 149.316 700.497C149.853 699.826 150.323 698.886 150.323 698.417C150.323 697.477 147.906 697.343 147.302 698.282Z" fill="black" fill-opacity="0.9"/>
<path d="M215.088 698.953C214.416 699.692 213.477 700.296 212.94 700.296C211.933 700.296 211.799 702.175 212.672 703.584C213.141 704.323 213.812 704.121 216.027 702.376C218.913 700.094 219.719 697.611 217.571 697.611C216.832 697.611 215.759 698.215 215.088 698.953Z" fill="black" fill-opacity="0.9"/>
<path d="M201.195 700.631C199.651 702.645 199.651 704.524 201.127 704.188C202.403 703.92 203.745 700.43 202.939 699.625C202.604 699.289 201.799 699.758 201.195 700.631Z" fill="black" fill-opacity="0.9"/>
<path d="M191.06 702.779C190.255 703.517 190.523 704.323 191.597 704.323C192.134 704.323 192.604 703.853 192.604 703.316C192.604 702.242 191.798 701.973 191.06 702.779Z" fill="black" fill-opacity="0.9"/>
</svg>
