<svg width="428" height="926" viewBox="0 0 428 926" fill="none" xmlns="http://www.w3.org/2000/svg">
<path d="M305.316 672.12C304.873 672.293 304.922 673.032 305.489 675.028C305.76 675.964 305.982 676.827 305.982 676.926C305.982 677.246 304.897 677.147 302.729 676.63C298.86 675.743 297.085 675.693 296.765 676.507C296.666 676.778 297.061 677.098 298.169 677.64C300.313 678.725 301.102 679.513 300.93 680.376C300.757 681.09 301.102 681.337 301.472 680.77C301.595 680.548 301.694 680.696 301.817 681.189C301.915 681.608 302.063 682.101 302.137 682.323C302.581 683.358 294.177 690.381 289.741 692.747C286.414 694.521 286.02 694.891 285.872 696.616C285.774 697.676 285.971 698.735 286.858 702.013C287.967 705.981 287.967 706.054 287.523 706.572C287.252 706.843 287.006 707.287 286.957 707.558C286.883 707.853 286.71 708.001 286.488 707.952C286.291 707.878 285.379 707.804 284.468 707.78C283.556 707.755 282.767 707.706 282.742 707.656C282.693 707.607 281.929 706.769 281.042 705.833L279.391 704.108L280.13 701.397C281.215 697.528 281.215 695.285 280.155 690.8C279.711 688.902 279.194 686.882 278.972 686.315C278.627 685.403 278.504 685.28 277.691 685.206C276.927 685.132 276.779 685.033 276.606 684.368C276.483 683.924 275.941 683.21 275.226 682.618C274.585 682.076 273.846 681.214 273.575 680.721C273.033 679.735 272.589 679.538 272.786 680.376C272.934 680.918 272.934 680.918 272.589 680.474C272.392 680.203 272.22 679.834 272.22 679.661C272.22 679.489 272.072 679.341 271.875 679.341C271.579 679.341 271.554 679.513 271.751 680.129C272.022 681.14 271.85 681.312 271.53 680.351C271.258 679.562 271.061 679.464 270.421 679.735C270.076 679.858 270.076 679.981 270.396 680.869C270.84 682.125 271.727 683.185 273.329 684.319L274.61 685.231L275.3 688.878C275.694 690.874 276.015 692.969 276.039 693.511C276.089 694.053 276.187 694.94 276.286 695.482C276.434 696.296 276.31 696.813 275.571 698.538C274.561 700.953 274.216 701.372 272.639 702.185C271.012 702.999 270.692 702.875 270.396 701.397L270.125 700.165L268.893 700.091C268.203 700.041 267.562 699.918 267.439 699.77C267.291 699.647 266.675 699.549 266.034 699.549C265.319 699.549 264.777 699.401 264.58 699.179C263.816 698.267 262.337 698.883 260.366 700.929C258.468 702.949 258.321 703.245 258.518 705.192C258.666 706.473 258.838 706.966 259.356 707.533C260.119 708.346 262.239 709.357 263.717 709.628C264.383 709.751 264.679 709.924 264.629 710.17C264.58 710.367 264.802 710.983 265.098 711.55L265.664 712.61L264.358 713.94L263.027 715.271L263.2 716.528L263.372 717.76L262.165 718.376C261.5 718.721 260.292 719.387 259.503 719.855C258.715 720.348 257.803 720.742 257.507 720.742C256.94 720.742 255.339 719.19 254.279 717.612C253.934 717.095 253.416 716.405 253.096 716.06C252.776 715.715 252.233 714.877 251.913 714.212L251.322 712.979L252.036 712.166C252.85 711.254 252.899 710.761 252.406 709.529C251.938 708.42 251.568 708.445 251.47 709.579C251.42 710.318 251.272 710.54 250.878 710.589C250.459 710.638 250.336 710.441 250.016 709.135C249.547 707.065 249.054 706.917 249.03 708.839C249.005 710.515 248.611 709.973 248.586 708.223C248.562 707.558 248.438 707.188 248.241 707.188C247.896 707.188 247.132 708.346 246.837 709.357C246.639 710.022 246.639 710.022 246.615 709.209C246.59 708.297 246.245 708.174 245.826 708.938C245.383 709.8 245.728 710.983 246.96 712.659C247.65 713.62 248.044 714.384 247.97 714.655C247.921 714.902 248.069 715.616 248.34 716.232C248.907 717.588 248.931 717.982 248.414 718.549C248.019 718.968 248.118 719.14 249.671 721.038C250.582 722.172 251.667 723.675 252.061 724.389C252.825 725.72 254.599 727.396 255.265 727.396C255.955 727.396 262.214 725.153 263.348 724.513C263.964 724.143 265.27 723.33 266.28 722.664C268.104 721.457 268.129 721.457 269.854 721.555C273.871 721.777 280.943 722.738 281.929 723.182C282.496 723.428 283.679 724.168 284.566 724.808C285.429 725.449 286.612 726.188 287.178 726.435C288.115 726.878 288.312 726.878 289.766 726.533C290.604 726.336 291.935 726.164 292.699 726.164H294.079L294.67 724.882C295.163 723.847 295.483 723.502 296.494 722.985C297.184 722.615 298.416 721.851 299.278 721.26C300.535 720.373 300.954 719.88 301.595 718.574C302.31 717.12 302.384 716.775 302.359 714.852C302.359 713.694 302.162 711.501 301.94 709.997C301.718 708.519 301.422 705.857 301.299 704.083C301.176 702.333 301.004 700.559 300.93 700.165C300.806 699.573 300.905 699.277 301.398 698.735C302.211 697.848 302.581 697.133 303.271 694.989C305.144 689.321 306.524 687.621 309.629 687.128C310.861 686.931 312.167 686.315 313.325 685.329C314.089 684.664 314.114 684.59 313.843 683.777C313.67 683.308 313.104 682.298 312.586 681.534C312.069 680.77 311.576 679.71 311.477 679.193C311.255 677.616 309.925 675.373 308.175 673.599C306.647 672.071 306.105 671.775 305.316 672.12Z" fill="black" fill-opacity="0.9"/>
<path d="M146.106 327.296C146.131 327.468 146.279 328.257 146.451 329.021C146.87 330.746 146.525 330.918 145.86 329.341C145.416 328.306 145.047 327.986 144.776 328.429C144.726 328.528 144.997 329.366 145.416 330.302C145.811 331.214 146.205 332.372 146.279 332.865C146.427 333.654 146.377 333.728 145.959 333.53C145.096 333.185 144.381 333.111 144.381 333.358C144.381 333.728 146.082 335.009 147.117 335.453C147.61 335.65 148.078 335.946 148.176 336.069C148.571 336.709 149.064 340.702 149.064 343.363C149.064 346.247 149.039 346.321 148.226 347.799C147.339 349.376 146.747 350.017 144.751 351.496L143.519 352.432L143.371 351.225C143.272 350.584 143.322 349.647 143.445 349.155C143.839 347.799 143.248 346.912 141.326 345.976C139.28 344.965 137.235 344.743 136.002 345.433C133.661 346.715 133.218 350.658 135.066 353.862C135.657 354.872 135.707 356.548 135.165 357.386C134.943 357.706 134.351 358.15 133.858 358.371C133.218 358.667 132.602 359.283 131.912 360.343C129.94 363.275 129.62 364.409 130.063 366.627C130.211 367.391 130.433 369.929 130.532 372.27C130.778 376.977 130.95 377.52 132.454 378.16C133.563 378.629 139.206 378.678 139.921 378.234C140.537 377.84 141.671 378.284 142.361 379.245C142.656 379.614 143.223 380.009 143.617 380.107C144.036 380.181 144.8 380.477 145.318 380.723C148.99 382.498 154.535 381.561 157.689 378.604C159.685 376.756 160.301 375.178 161.016 370.25C161.657 365.715 162.297 362.24 162.495 362.043C162.568 361.969 164.195 362.068 166.117 362.24C171.071 362.684 181.963 362.265 182.431 361.624C182.727 361.23 182.85 361.255 184.23 362.019C185.512 362.709 185.783 362.783 186.128 362.511C186.621 362.117 188.001 357.854 188.001 356.745C188.001 356.301 188.124 355.808 188.247 355.685C188.715 355.217 189.775 349.155 189.652 347.651C189.504 345.902 189.381 345.729 188.395 345.729C187.286 345.729 186.892 346.123 186.399 347.701C185.61 350.214 183.245 351.939 178.587 353.467C176.591 354.133 175.778 354.28 174.866 354.182C174.225 354.108 173.658 353.96 173.609 353.886C173.535 353.788 174.816 353.245 176.443 352.629C178.069 352.038 179.499 351.422 179.647 351.249C179.794 351.077 179.868 350.461 179.819 349.869L179.745 348.81L181.224 348.267C182.037 347.947 183.097 347.503 183.565 347.257C184.403 346.838 184.427 346.789 184.403 345.483C184.378 344.177 183.811 342.599 183.22 342.23C183.072 342.131 182.949 341.441 182.924 340.702C182.85 338.213 181.027 335.551 178.513 334.245L177.133 333.53L176.517 334.245C176.024 334.787 175.925 335.108 176.049 335.6C176.147 335.946 176.27 337.35 176.344 338.73C176.468 341.392 176.073 343.018 175.334 343.018C175.112 343.018 174.792 343.339 174.595 343.733C174.2 344.497 172.845 345.729 172.426 345.729C172.278 345.729 170.972 346.296 169.543 346.986C166.339 348.538 165.526 348.834 162.84 349.426C161.657 349.672 160.005 350.239 159.168 350.658C157.714 351.397 157.615 351.496 156.777 353.319C156.284 354.354 155.422 355.759 154.855 356.449C154.288 357.115 152.908 358.987 151.799 360.565C150.69 362.166 149.68 363.522 149.557 363.596C149.335 363.744 148.817 362.955 147.486 360.441C146.402 358.371 146.451 358.174 149.014 355.463C150.961 353.393 152.982 350.116 153.869 347.553C154.313 346.296 154.313 346.247 153.746 344.103C153.401 342.747 153.13 340.85 153.056 339.125L152.933 336.34L152.046 335.921C151.183 335.527 151.158 335.428 150.986 333.9C150.912 333.013 150.666 331.756 150.444 331.091C150.222 330.425 150.049 329.563 150.049 329.168C150.049 328.109 149.458 328.429 149.359 329.538C149.236 330.894 148.867 330.647 148.694 329.095C148.472 327.443 148.004 327.394 147.831 328.996C147.684 330.253 147.536 330.105 147.068 328.281C146.895 327.567 146.624 327 146.427 327C146.254 327 146.106 327.148 146.106 327.296Z" fill="black" fill-opacity="0.9"/>
<path d="M172.879 645.339C175.41 646.604 177.582 648.275 178.132 649.326C178.347 649.756 178.848 650.615 179.254 651.236C179.922 652.239 180.113 652.382 180.83 652.382C181.522 652.382 181.856 652.597 182.788 653.6C183.408 654.268 184.077 655.152 184.316 655.558L184.721 656.322L183.122 657.993C182.238 658.924 181.068 659.879 180.543 660.142C179.994 660.404 179.158 661.145 178.657 661.813C178.179 662.458 177.582 663.055 177.32 663.15C177.081 663.246 176.389 664.058 175.768 664.989C175.147 665.92 174.073 667.257 173.38 667.949C171.566 669.836 169.56 672.199 169.799 672.199C169.894 672.199 170.348 671.984 170.778 671.722C171.208 671.459 171.733 671.244 171.948 671.244C172.163 671.244 172.998 670.815 173.786 670.313C175.434 669.239 177.487 668.379 178.347 668.379C179.158 668.379 181.904 665.848 183.265 663.843C184.363 662.243 184.387 662.171 184.554 659.76C184.721 657.563 184.793 657.253 185.342 656.751C185.677 656.465 186.13 656.202 186.345 656.202C187.276 656.202 189.616 663.27 189.377 665.347C189.306 665.896 189.139 666.779 189.019 667.305C188.78 668.14 188.828 668.379 189.282 669.095C189.688 669.788 189.783 670.313 189.807 672.032C189.807 673.632 189.736 674.181 189.449 674.348C188.948 674.659 185.677 674.635 184.172 674.324C183.05 674.086 182.788 674.109 181.236 674.706C180.304 675.065 179.373 675.447 179.182 675.566C178.848 675.781 177.177 676.593 174.765 677.715C172.521 678.765 167.674 680.532 166.05 680.89C165.095 681.105 164.092 681.439 163.806 681.63C163.543 681.821 163.137 681.989 162.899 681.989C162.206 681.989 162.373 682.848 163.687 685.809C165.238 689.343 166.265 692.017 167.316 695.121C167.769 696.505 168.414 698.272 168.748 699.06C169.083 699.848 169.465 701.185 169.608 702.021C169.847 703.501 169.823 703.597 169.083 705.005C168.629 705.865 167.674 707.035 166.767 707.894C165.907 708.706 164.594 709.948 163.806 710.688L162.397 712.001L164.092 713.219C166.098 714.675 166.48 715.2 166.91 717.039C167.101 717.875 167.411 718.543 167.722 718.758C170.396 720.692 171.518 721.934 171.231 722.674C170.993 723.247 167.196 725.682 166.504 725.682C166.146 725.682 165.191 725.372 164.355 724.966L162.827 724.273L160.248 724.608C157.049 725.038 155.306 725.491 152.775 726.542C151.677 726.995 150.602 727.354 150.364 727.354C150.125 727.354 149.337 726.971 148.621 726.494L147.307 725.658L143.129 725.825C138.425 725.993 136.42 725.778 134.128 724.847C133.292 724.512 132.432 724.25 132.17 724.25C131.668 724.25 129.567 723.032 128.159 721.91C127.609 721.48 127.06 721.146 126.917 721.146C126.583 721.146 125.867 720.024 126.01 719.761C126.416 719.116 124.195 718.281 122.046 718.281C121.378 718.281 120.518 718.09 119.969 717.803C119.444 717.54 118.871 717.325 118.68 717.325C118.202 717.325 114.334 714.365 114.143 713.84C114.072 713.649 114 712.908 114 712.216C114 711.165 114.119 710.783 114.716 710.043C115.385 709.208 116.388 706.915 116.388 706.247C116.388 706.056 116.77 705.578 117.271 705.149C118.011 704.48 118.274 704.408 119.086 704.504C119.706 704.599 120.279 704.886 120.781 705.363C121.593 706.151 122.07 706.223 124.147 705.96L125.27 705.793L125.102 704.934C125.007 704.456 124.959 703.358 124.959 702.474C124.983 701.281 124.911 700.803 124.625 700.564C123.336 699.514 123.264 699.371 123.383 698.415C123.551 697.15 123.097 695.741 122.046 694.189C121.091 692.828 120.972 692.088 121.426 690.56C121.64 689.868 121.64 689.056 121.426 687.218C121.187 684.997 121.211 684.663 121.64 683.087C122.404 680.484 122.595 680.079 123.383 679.696C124.195 679.267 125.126 679.386 126.798 680.102C128.063 680.675 127.944 680.962 126.44 681.081C125.508 681.153 125.341 681.248 125.15 681.821C124.864 682.753 125.27 683.182 125.89 682.633C126.392 682.18 126.893 682.108 126.893 682.466C126.893 682.609 126.463 683.326 125.914 684.042C125.198 685.021 125.007 685.451 125.198 685.642C125.341 685.785 125.461 686.119 125.461 686.358C125.461 686.883 128.397 693.019 129.138 694.022C129.4 694.404 129.902 695.216 130.236 695.837C131.645 698.439 132.337 699.609 133.722 701.663C136.993 706.581 137.685 707.536 137.9 707.393C138.02 707.321 138.115 706.915 138.115 706.51C138.115 706.08 138.354 705.268 138.616 704.671C138.998 703.859 139.118 703.024 139.166 701.209C139.213 699.633 139.404 698.129 139.762 696.792C140.073 695.67 140.336 694.333 140.383 693.807C140.431 693.282 140.574 692.423 140.741 691.897C140.885 691.372 141.171 689.963 141.338 688.793C141.696 686.334 142.078 684.711 142.437 683.97C142.652 683.588 142.628 682.968 142.437 681.559C142.198 679.888 142.198 679.529 142.58 678.503C143.057 677.213 143.821 676.664 144.657 676.975C144.944 677.07 145.588 677.285 146.114 677.452C146.83 677.667 147.188 677.954 147.475 678.55C148.048 679.649 148.024 679.84 147.307 679.84C146.591 679.84 146.328 680.317 146.161 681.989C146.09 682.705 145.803 683.779 145.541 684.376C144.92 685.737 144.92 686.406 145.517 687.17C145.899 687.647 145.994 688.149 145.994 689.486C145.994 691.157 146.806 697.819 147.069 698.224C147.14 698.344 147.307 699.466 147.427 700.731C147.546 702.021 147.689 703.119 147.785 703.191C147.857 703.262 148.358 702.904 148.931 702.379C150.483 700.922 150.746 700.755 151.939 700.612C152.918 700.517 153.038 700.421 153.109 699.824C153.157 699.466 153.396 699.06 153.658 698.941C154.494 698.487 154.876 697.341 154.685 695.98C154.59 695.312 154.542 694.333 154.566 693.807C154.59 693.282 154.446 691.515 154.232 689.868C153.658 685.307 153.276 680.461 153.3 677.858L153.324 675.518L154.972 673.847C155.879 672.916 157.144 671.77 157.813 671.292C161.991 668.236 167.769 663.222 168.295 662.195C168.844 661.097 169.87 660.022 171.59 658.662L172.974 657.611V654.722C172.974 651.236 172.688 650.496 170.563 648.204C169.106 646.652 168.82 645.816 169.393 644.718C169.775 644.025 170.563 644.169 172.879 645.339Z" fill="black" fill-opacity="0.9"/>
<path d="M286.739 360.765C285.087 361.026 284.797 361.171 283.406 362.534C282.391 363.519 281.463 364.099 280.362 364.476C279.492 364.766 278.246 365.287 277.608 365.635C276.796 366.099 276.275 366.215 275.869 366.07C275.55 365.925 274.941 365.809 274.506 365.809C273.782 365.78 273.579 366.041 272.245 368.737C271.318 370.65 270.477 372.94 269.926 375.143C269.434 377.027 268.738 379.172 268.361 379.926C267.984 380.68 267.317 382.448 266.883 383.897C266.448 385.318 265.723 387.492 265.288 388.68C264.825 389.898 264.361 391.695 264.245 392.739C264.1 394.043 263.81 394.913 263.288 395.637C261.462 398.13 260.418 399.232 259.201 399.928C256.128 401.696 253.809 403.841 252.969 405.754C252.534 406.711 251.954 407.522 251.577 407.667C251.229 407.841 250.911 408.276 250.853 408.682C250.795 409.088 250.621 409.522 250.476 409.667C250.331 409.841 250.215 410.189 250.215 410.45C250.215 411.117 249.345 411.32 245.055 411.725C244.185 411.812 243.374 411.957 243.2 412.044C242.707 412.334 237.75 411.494 237.75 411.117C237.75 410.508 236.562 409.261 234.909 408.131C233.953 407.493 232.938 406.479 232.532 405.783C232.127 405.116 230.561 402.652 229.025 400.333C225.662 395.232 225.431 394.449 226.706 392.536C228.097 390.449 227.779 389.724 226.097 391.144C224.648 392.362 224.416 392.159 224.416 389.724C224.416 388.535 224.3 387.492 224.184 387.405C223.662 387.086 223.314 387.753 223.112 389.463C222.996 390.478 222.822 391.289 222.677 391.289C222.561 391.289 222.155 390.478 221.807 389.463C220.995 387.318 220.677 386.796 220.271 387.202C220.097 387.376 220.184 388.217 220.503 389.55C220.793 390.68 220.937 391.666 220.88 391.753C220.793 391.811 220.242 391.173 219.633 390.275C218.503 388.651 218.213 388.448 217.894 388.999C217.575 389.492 217.981 390.536 219.053 392.101C219.604 392.942 220.068 393.927 220.068 394.333C220.068 395.145 219.343 395.608 218.821 395.087C218.647 394.913 218.068 394.768 217.546 394.768C216.734 394.768 216.589 394.855 216.589 395.492C216.589 396.014 216.792 396.246 217.372 396.391C217.807 396.507 218.995 396.971 219.981 397.435C220.966 397.869 222.039 398.246 222.329 398.246C223.083 398.246 224.358 400.13 224.996 402.275C225.749 404.681 226.793 406.624 227.865 407.667C228.358 408.131 228.909 409.001 229.054 409.58C229.228 410.16 229.866 411.291 230.503 412.102C231.286 413.088 231.663 413.842 231.663 414.45C231.663 415.349 231.054 415.697 230.648 415.059C230.561 414.885 230.184 414.769 229.808 414.769C229.46 414.769 229.025 414.624 228.822 414.421C228.648 414.247 227.721 413.986 226.822 413.87C225.894 413.726 224.735 413.552 224.242 413.465C223.546 413.32 223.112 413.494 222.039 414.334C220.619 415.378 220.213 416.247 219.952 418.537C219.865 419.262 219.72 420.393 219.604 421.059C219.314 423.002 220.648 424.509 221.749 423.407C221.981 423.175 222.358 423.349 223.256 424.132C223.894 424.741 224.706 425.205 225.054 425.205C225.373 425.205 226.068 425.523 226.561 425.871C227.373 426.509 227.605 426.538 229.199 426.306C230.155 426.161 231.257 426.045 231.605 426.045C232.069 426.016 232.59 425.61 233.199 424.741C233.692 424.045 234.243 423.465 234.417 423.465C234.591 423.465 235.576 423.929 236.62 424.48C239.403 425.958 242.214 426.944 243.635 426.944C245.026 426.944 249.983 425.465 251.954 424.48C253.288 423.813 254.882 422.625 256.824 420.914C257.404 420.393 258.679 419.581 259.665 419.117C262.303 417.842 264.593 415.552 267.636 411.175C271.492 405.609 271.955 404.681 272.274 402.073C272.854 397.29 274.245 394.478 276.014 394.478C276.709 394.478 276.999 394.217 277.898 392.739C279.028 390.883 280.217 389.811 281.666 389.347C282.188 389.173 282.565 388.854 282.623 388.477C282.768 387.434 281.927 387.086 279.086 387.057C275.347 387.028 275.289 386.97 276.217 384.97C278.536 379.839 278.912 379.288 282.246 375.781C284.072 373.868 285.58 372.1 285.58 371.839C285.58 371.578 285.377 371.201 285.145 370.998C284.304 370.302 284.652 369.114 286.304 367.027C288.449 364.389 288.768 364.041 290.015 363.084C291.261 362.157 291.29 361.925 290.507 361.142C289.928 360.562 288.71 360.447 286.739 360.765Z" fill="black" fill-opacity="0.9"/>
<path d="M216.847 469.447C212.692 471.018 208.537 473.741 206.756 476.116C205.918 477.233 204.626 478.35 203.509 478.979C201.763 479.991 198.691 482.889 198.691 483.553C198.691 483.727 200.471 485.578 202.636 487.673C207.699 492.596 208.642 494.272 209.654 500.277C209.794 501.15 209.654 501.569 209.096 502.093L208.362 502.791L209.619 506.039C210.283 507.819 211.121 510.298 211.435 511.52C212.273 514.837 214.438 519.586 217.161 524.09L219.57 528.14L220.234 533.448C220.618 536.45 220.758 538.79 220.583 538.79C220.408 538.79 218.418 537.638 216.184 536.206C213.914 534.774 211.225 533.343 210.178 532.994C209.131 532.68 207.978 532.121 207.594 531.807C207.21 531.457 206.337 531.108 205.674 530.969C203.195 530.515 200.855 528.978 195.409 524.335C188.914 518.748 188.53 518.434 187.378 518.608C186.784 518.678 185.807 518.154 184.061 516.828L181.582 514.977L182.664 513.755C183.223 513.092 183.677 512.393 183.607 512.184C183.537 511.974 182.909 511.625 182.21 511.381C180.22 510.717 177.147 507.54 176.309 505.305C175.925 504.258 175.052 502.756 174.354 502.023C173.132 500.662 173.132 500.592 173.342 498.322C173.481 497.065 173.656 495.389 173.761 494.621C173.9 493.539 173.795 492.98 173.132 492.037C172.678 491.374 171.98 490.71 171.526 490.571C170.513 490.187 169.501 491.199 167.615 494.446C165.451 498.252 164.752 500.487 164.543 504.572C164.403 507.819 164.263 508.343 163.425 509.53C162.657 510.578 162.413 511.416 162.203 513.511C162.064 514.977 162.099 516.304 162.273 516.478C162.483 516.688 172.259 518.189 173.621 518.189C173.726 518.189 174.284 518.573 174.843 519.027C175.402 519.516 176.275 520.005 176.763 520.11C177.252 520.249 178.614 521.332 179.836 522.554C181.931 524.684 182.036 524.858 181.652 525.696C181.407 526.22 181.337 526.814 181.477 527.058C181.652 527.337 182.943 528.455 184.375 529.607C185.807 530.759 188.321 532.819 189.962 534.216C191.603 535.578 194.431 537.603 196.247 538.685C205.01 543.818 205.429 544.132 210.003 548.671C212.448 551.115 215.276 553.734 216.288 554.467C219.117 556.597 219.326 556.981 221.037 562.812C221.875 565.745 223.306 567.561 226.204 569.411C227.427 570.214 228.265 571.052 228.579 571.82C229.137 573.182 229.242 576.15 228.718 576.15C227.182 576.15 222.189 572.554 216.253 567.107C211.61 562.882 210.143 561.066 209.515 558.692C209.026 556.807 207.35 553.455 206.931 553.455C206.756 553.455 206.756 554.293 206.861 555.27L207.105 557.121L205.604 555.724C202.811 553.105 202.252 552.686 201.833 552.931C201.589 553.07 201.903 553.734 202.776 554.781L204.103 556.422L202.077 554.746C200.925 553.839 199.878 553.105 199.738 553.105C198.76 553.105 199.214 554.083 200.855 555.619C202.566 557.26 202.357 557.26 199.878 555.689C199.284 555.27 198.9 555.2 198.656 555.445C198.411 555.689 198.795 556.248 199.878 557.156C201.658 558.622 201.728 559.041 200.087 558.168C198.132 557.156 198.167 557.819 200.157 559.32C201.24 560.124 202.427 561.206 202.811 561.73C203.195 562.288 204.557 563.266 205.814 563.894C207.874 564.907 208.537 565.536 211.889 569.621C218.209 577.372 219.291 578.839 219.291 579.607C219.291 580.061 219.71 580.584 220.443 581.003C222.049 581.946 224.878 584.251 224.878 584.6C224.878 585.193 223.272 584.809 220.129 583.447C216.742 581.946 211.505 578.07 208.153 574.614L206.582 573.042L206.547 569.97C206.477 566.688 205.744 564.279 204.836 564.279C204.417 564.279 204.382 564.663 204.522 566.199C204.801 568.922 204.103 568.748 201.624 565.396C199.564 562.672 198.795 561.834 198.272 561.834C197.748 561.834 197.992 562.777 198.9 564.418C199.424 565.326 199.738 566.129 199.668 566.199C199.598 566.304 198.691 565.501 197.643 564.418C195.374 562.079 194.536 561.555 194.117 562.218C193.907 562.568 194.571 563.475 196.351 565.291L198.865 567.875L196.456 566.234C195.164 565.361 193.837 564.628 193.593 564.628C192.58 564.628 193.174 565.605 195.409 567.561C196.666 568.678 197.608 569.656 197.538 569.76C197.434 569.83 196.735 569.586 195.932 569.202C194.256 568.329 194.152 568.329 194.152 568.957C194.152 569.237 194.675 569.83 195.304 570.284C197.294 571.681 208.537 581.457 212.098 584.879C213.984 586.695 216.079 588.894 216.707 589.767C217.336 590.64 218.698 591.897 219.745 592.561C222.678 594.446 234.375 602.232 235.178 602.826C235.841 603.315 235.841 603.35 234.759 603.594C234.13 603.699 233.432 604.048 233.223 604.292C233.013 604.572 232.524 604.781 232.175 604.781C231.721 604.781 231.512 605.026 231.512 605.514C231.512 605.898 231.058 606.632 230.499 607.155C229.94 607.679 229.382 608.657 229.242 609.32C229.103 609.984 228.753 610.717 228.474 610.926C228.055 611.206 227.985 611.729 228.16 613.196C228.265 614.243 228.404 615.57 228.474 616.129C228.579 617.7 232.594 622.623 233.467 622.344C233.711 622.274 234.34 622.623 234.933 623.112C235.492 623.601 236.19 623.985 236.435 623.985C236.679 623.985 237.168 624.264 237.552 624.613C238.181 625.172 238.251 625.172 239.228 623.985C239.787 623.322 240.45 622.763 240.695 622.763C241.218 622.763 243.977 620.528 245.897 618.573C249.947 614.383 250.297 613.929 251.204 611.171C251.693 609.669 252.112 608.343 252.112 608.203C252.112 608.063 251.309 607.54 250.366 607.051C248.306 606.003 248.062 605.514 247.748 601.778L247.503 599.02L248.97 596.75C252.741 590.78 253.369 588.44 252.636 583.133C252.357 581.108 251.973 578.175 251.798 576.604C251.169 571.471 250.297 569.481 242.126 554.153C241.253 552.512 240.031 550.626 239.403 549.963C238.704 549.23 238.146 548.217 238.006 547.414C237.657 545.529 235.702 539.628 233.886 534.949C233.013 532.749 232.035 529.991 231.686 528.839C231.372 527.687 230.744 526.115 230.325 525.347C229.906 524.579 229.242 523.182 228.893 522.24C228.509 521.157 227.636 519.9 226.589 518.853C225.646 517.98 224.878 517.002 224.878 516.723C224.878 516.409 224.389 515.606 223.83 514.872C223.237 514.139 222.503 512.673 222.224 511.59C221.177 508.064 217.929 500.382 216.882 499.055C216.114 498.078 214.403 494.027 214.403 493.189C214.403 493.155 214.962 492.805 215.625 492.386C216.777 491.723 216.847 491.583 216.847 489.803C216.847 488.546 216.672 487.743 216.323 487.463C215.346 486.66 215.136 484.879 215.66 481.458C216.393 476.569 216.463 476.36 218.104 474.509C219.815 472.589 220.234 471.402 219.78 470.04C219.396 468.993 218.558 468.818 216.847 469.447Z" fill="black" fill-opacity="0.9"/>
</svg>
