<svg width="428" height="926" viewBox="0 0 428 926" fill="none" xmlns="http://www.w3.org/2000/svg">
<path d="M214.483 374.859C213.946 375.664 213.61 376.537 213.811 376.805C214.282 377.611 217.771 376.201 219.181 374.657C220.322 373.449 220.254 373.382 217.906 373.382C216.228 373.382 215.221 373.785 214.483 374.859Z" fill="black" fill-opacity="0.9"/>
<path d="M195.087 377.007C194.886 377.544 194.953 378.215 195.289 378.416C196.161 378.953 196.899 377.409 196.094 376.604C195.691 376.201 195.356 376.335 195.087 377.007Z" fill="black" fill-opacity="0.9"/>
<path d="M206.362 377.678C201.262 379.691 196.295 382.175 191.396 385.262C185.289 389.154 168.443 401.168 168.779 401.436C169.517 402.175 173.611 400.43 178.645 397.208C181.732 395.262 185.624 393.181 187.302 392.644C189.651 391.839 190.255 391.302 190.255 390.094C190.255 388.685 190.725 388.416 193.544 388.013C195.289 387.745 198.309 386.805 200.188 385.866C205.222 383.45 213.409 375.933 210.926 376.067C210.591 376.134 208.577 376.805 206.362 377.678Z" fill="black" fill-opacity="0.9"/>
<path d="M239.718 377.208C239.852 378.014 240.523 378.416 241.597 378.416C242.671 378.416 243.342 378.014 243.477 377.208C243.678 376.336 243.275 376.067 241.597 376.067C239.919 376.067 239.517 376.336 239.718 377.208Z" fill="black" fill-opacity="0.9"/>
<path d="M188.241 380.497C186.966 381.772 187.235 382.309 188.845 381.705C189.449 381.503 189.919 380.899 189.919 380.363C189.919 379.155 189.584 379.155 188.241 380.497Z" fill="black" fill-opacity="0.9"/>
<path d="M214.416 382.107C211.127 383.181 207.101 384.389 205.557 384.792C203.812 385.194 202.604 386 202.335 386.805C201.664 388.886 198.376 391.235 193.409 393.114C189.92 394.456 187.973 395.731 185.557 398.282C183.074 400.899 180.457 402.577 173.543 405.933C164.617 410.295 159.718 413.651 159.718 415.396C159.718 416.671 159.852 416.604 164.08 414.59C166.094 413.651 168.846 412.711 170.255 412.51C171.866 412.242 173.812 411.235 175.557 409.624C177.101 408.215 179.852 406.604 181.933 405.933C188.04 403.919 190.322 402.443 194.349 397.879C198.443 393.248 201.664 390.832 203.678 390.832C204.349 390.832 206.228 389.624 207.839 388.08C211.329 384.859 214.416 383.45 217.973 383.45C219.651 383.45 220.993 382.98 221.664 382.242C224.148 379.49 222.604 379.49 214.416 382.107Z" fill="black" fill-opacity="0.9"/>
<path d="M227.839 384.859C225.154 385.463 223.208 387.141 223.879 388.215C224.08 388.55 225.221 388.819 226.496 388.819C228.107 388.819 229.114 388.349 230.12 387.074C231.53 385.262 231.933 384.054 231.06 384.188C230.725 384.255 229.315 384.523 227.839 384.859Z" fill="black" fill-opacity="0.9"/>
<path d="M232.873 385.463C232.873 386.537 233.342 386.805 235.222 386.805C237.101 386.805 237.57 386.537 237.57 385.463C237.57 384.389 237.101 384.121 235.222 384.121C233.342 384.121 232.873 384.389 232.873 385.463Z" fill="black" fill-opacity="0.9"/>
<path d="M244.551 385.128C244.752 385.732 244.953 386.403 244.953 386.537C244.953 386.671 245.423 386.806 246.027 386.806C247.504 386.806 246.9 384.524 245.356 384.255C244.416 384.054 244.215 384.255 244.551 385.128Z" fill="black" fill-opacity="0.9"/>
<path d="M220.322 387.812C220.121 388.416 220.121 389.02 220.322 389.222C220.926 389.826 222.134 388.819 222.134 387.745C222.134 386.47 220.859 386.537 220.322 387.812Z" fill="black" fill-opacity="0.9"/>
<path d="M212.47 390.564C212.067 391.57 213.61 393.449 214.953 393.517C215.691 393.517 215.49 391.168 214.617 390.295C213.544 389.221 212.94 389.288 212.47 390.564Z" fill="black" fill-opacity="0.9"/>
<path d="M232.134 390.161C225.087 390.497 225.02 390.497 223.208 392.645C221.865 394.188 220.792 394.859 219.382 394.859C218.309 394.859 216.295 395.262 214.953 395.799C213.543 396.336 208.98 397.88 204.751 399.222C200.12 400.631 195.221 402.779 192.336 404.524C189.718 406.135 186.832 407.678 185.893 407.947C184.953 408.215 183.006 409.557 181.53 410.9C180.054 412.309 177.57 413.786 176.027 414.255C174.416 414.658 172.537 415.866 171.53 417.007C170.322 418.484 169.248 419.02 167.772 419.02C166.228 419.02 165.557 419.356 165.288 420.296C165.087 420.967 163.544 422.443 161.865 423.584C160.121 424.725 157.839 426.537 156.698 427.745L154.685 429.826L157.705 429.356C162.671 428.618 164.416 427.343 164.416 424.591C164.416 423.248 164.55 423.182 166.094 423.852C168.241 424.792 170.859 423.651 177.167 419.02C179.584 417.276 182.537 415.329 183.745 414.725C185.154 413.987 185.893 413.114 185.893 412.242C185.893 411.034 186.027 410.967 186.899 411.638C187.705 412.309 188.174 412.309 188.711 411.772C189.181 411.302 190.053 410.967 190.657 410.967C191.261 410.967 194.416 409.289 197.704 407.275C203.611 403.517 212.335 400.229 216.161 400.229C217.302 400.229 219.181 399.49 220.322 398.618C222.537 396.94 227.57 395.061 234.215 393.517C237.973 392.577 239.919 391.437 239.517 390.363C239.382 390.094 236.027 389.96 232.134 390.161Z" fill="black" fill-opacity="0.9"/>
<path d="M241.598 390.161C241.598 390.497 242 390.833 242.537 390.833C243.075 390.833 243.745 390.497 243.947 390.161C244.148 389.759 243.745 389.49 243.007 389.49C242.202 389.49 241.598 389.759 241.598 390.161Z" fill="black" fill-opacity="0.9"/>
<path d="M204.953 392.174C203.611 392.711 200.389 396.201 200.859 396.604C201.262 397.006 209.45 394.322 210.523 393.449C211.396 392.644 211.396 392.51 210.255 392.107C208.644 391.436 206.698 391.436 204.953 392.174Z" fill="black" fill-opacity="0.9"/>
<path d="M245.557 393.517C240.187 394.457 235.892 397.477 236.362 399.96C236.563 401.034 236.832 400.967 238.308 399.356L239.986 397.477L241.261 398.886C242.872 400.631 243.074 400.631 248.174 398.081L252.537 396L257.503 397.208L262.469 398.484L264.215 396.671L266.027 394.926L264.013 394.121C261.597 393.182 249.65 392.712 245.557 393.517Z" fill="black" fill-opacity="0.9"/>
<path d="M222.201 401.37C215.49 403.316 207.638 405.866 204.751 407.007C198.577 409.49 191.261 413.987 187.503 417.544C185.691 419.356 184.148 420.161 182.939 420.161C181.664 420.161 180.121 421.101 177.973 423.182C176.228 424.859 170.322 429.155 164.752 432.779C154.617 439.356 152.134 441.235 144.282 447.88C139.114 452.242 138.913 452.443 138.913 454.457C138.913 456.806 140.993 456.067 142.604 453.115C143.678 451.101 144.684 450.363 147.772 449.222C149.852 448.484 152.537 446.94 153.61 445.866C154.685 444.725 156.295 443.853 157.101 443.853C159.248 443.853 162.537 441.101 165.087 437.209C166.228 435.329 167.57 433.786 168.04 433.786C170.054 433.786 176.295 430.027 184.214 424.121C195.825 415.329 197.906 414.255 210.255 410.229C216.094 408.349 221.933 406.067 223.208 405.195C227.235 402.443 229.584 401.437 231.127 401.839C233.074 402.309 235.087 400.833 234.751 399.155C234.55 397.88 234.013 397.947 222.201 401.37Z" fill="black" fill-opacity="0.9"/>
<path d="M256.295 401.57C254.215 401.906 248.98 403.047 244.55 404.188C240.188 405.261 234.886 406.335 232.872 406.604C228.912 407.141 226.228 408.214 224.886 409.892C224.08 410.832 224.282 410.966 226.631 410.966C228.107 410.966 234.416 410.026 240.658 408.818C250.59 406.939 253.409 406.671 263.409 406.671C273.477 406.671 275.289 406.805 278.711 408.08C282.469 409.557 282.537 409.557 282.537 408.214C282.537 407.476 282 406.738 281.396 406.469C280.725 406.268 278.107 405.06 275.49 403.785C271.664 401.973 269.785 401.503 265.423 401.235C262.47 401.1 258.376 401.235 256.295 401.57Z" fill="black" fill-opacity="0.9"/>
<path d="M254.886 410.295C253.879 410.564 251.396 411.772 249.45 412.913C245.49 415.195 243.477 415.396 238.309 414.188C235.087 413.45 234.752 413.517 233.275 414.926C232.067 416.067 231.06 416.336 229.114 416.201C226.698 416 226.496 416.134 226.295 417.946L226.027 419.893L229.852 419.423C232 419.221 240.524 417.611 248.913 416C269.853 411.839 270.993 411.705 273.544 413.852C274.685 414.859 276.832 415.799 278.376 416.067C281.195 416.537 284.551 416 284.551 415.128C284.551 414.322 279.718 411.839 275.893 410.698C271.933 409.557 258.242 409.289 254.886 410.295Z" fill="black" fill-opacity="0.9"/>
<path d="M214.886 412.645C199.45 416.604 178.242 430.162 164.618 444.792C162 447.544 159.92 449.222 158.98 449.222C158.175 449.222 156.161 450.699 154.148 452.712C152.202 454.658 149.181 457.343 147.302 458.618C145.49 459.893 143.342 462.041 142.604 463.383C141.463 465.464 141.061 465.732 140.054 465.061C139.047 464.457 138.577 464.658 137.235 466.135C135.49 468.148 132.671 475.061 133.007 476.537C133.141 477.141 135.691 475.128 139.584 471.369C146.698 464.39 155.02 457.611 163.678 451.571C168.107 448.416 169.853 446.739 171.262 444.188C172.269 442.376 174.081 440.027 175.289 439.021C179.584 435.397 193.074 427.208 205.557 420.631C216.094 415.061 222.873 410.967 221.463 411.034C221.262 411.034 218.309 411.772 214.886 412.645Z" fill="black" fill-opacity="0.9"/>
<path d="M255.691 418.35C255.691 419.491 258.912 422.376 261.262 423.383C264.819 424.859 270.188 425.33 272.402 424.39C274.214 423.651 274.617 423.786 276.698 425.33C280.389 428.148 295.221 433.383 296.362 432.242C297.167 431.437 295.154 429.088 293.611 429.088C292.335 429.088 291.866 428.618 291.396 426.873C290.859 424.793 290.591 424.658 281.664 421.907C276.631 420.363 270.658 418.752 268.309 418.35C262.738 417.477 255.691 417.477 255.691 418.35Z" fill="black" fill-opacity="0.9"/>
<path d="M212.403 420.228C208.108 421.705 204.551 423.785 196.766 429.423C193.275 431.906 187.839 435.396 184.685 437.275C181.464 439.087 177.571 441.638 176.027 442.913C173.41 445.061 169.987 449.624 170.591 450.228C171.262 450.966 178.242 446.873 185.222 441.638C192.94 435.799 204.886 429.087 212.806 426.134C216.497 424.792 217.168 424.255 217.571 422.443C218.108 420.497 218.376 420.362 221.128 420.362C222.739 420.362 224.282 420.027 224.483 419.691C225.155 418.55 216.027 418.953 212.403 420.228Z" fill="black" fill-opacity="0.9"/>
<path d="M242.94 421.973C242 422.577 239.517 423.047 237.235 423.047C232.537 423.047 231.732 423.45 230.926 426.135L230.39 428.148L240.524 427.879C250.323 427.611 255.691 426.94 255.691 425.799C255.691 425.531 254.819 424.456 253.678 423.383C251.262 421.101 245.692 420.363 242.94 421.973Z" fill="black" fill-opacity="0.9"/>
<path d="M256.363 426.537C256.363 428.55 257.37 430.027 258.242 429.49C258.645 429.221 259.987 429.96 261.262 431.033C263.007 432.577 265.356 433.516 271.799 435.127C281.664 437.611 284.081 438.55 287.436 441.235C289.383 442.846 290.39 443.181 291.866 442.846C293.342 442.51 294.215 442.846 295.826 444.188C296.9 445.127 298.108 445.866 298.51 445.866C299.651 445.866 300.054 443.718 299.181 442.644C297.437 440.563 288.376 435.127 283.343 433.181C277.638 431.033 258.578 425.06 257.235 425.06C256.765 425.06 256.363 425.732 256.363 426.537Z" fill="black" fill-opacity="0.9"/>
<path d="M223.477 427.074C210.256 429.826 196.295 437.141 181.665 449.155C176.027 453.785 174.484 454.658 174.484 453.248C174.484 452.309 171.598 452.376 170.591 453.383C170.121 453.852 169.786 454.859 169.786 455.664C169.786 457.476 168.712 458.349 168.175 456.94C167.638 455.463 165.49 455.732 164.014 457.343C163.343 458.148 159.249 461.571 155.02 464.994C146.967 471.437 140.322 478.148 138.578 481.504C137.705 483.114 137.235 483.383 135.893 483.047C134.551 482.712 134.014 483.047 132.873 484.993C132.067 486.268 131.061 487.544 130.524 487.745C129.987 487.947 129.182 489.356 128.779 490.899C128.108 493.047 127.437 493.919 125.692 494.658C123.141 495.665 122.135 497.41 123.544 498.282C126.027 499.826 130.792 495.463 132.202 490.43C133.074 487.476 133.812 487.208 134.349 489.691C134.484 490.698 136.027 489.691 141.799 484.993C145.826 481.772 149.651 478.819 150.323 478.484C150.994 478.081 152.067 476.873 152.739 475.799C156.161 469.893 161.598 465.598 174.148 458.618C178.98 455.933 186.027 451.369 189.92 448.484C199.114 441.705 204.014 438.752 208.041 437.745C210.256 437.208 211.531 436.403 212.135 435.262C213.276 433.182 216.497 431.571 218.511 432.04C219.45 432.309 220.792 432.04 221.665 431.503C222.47 430.967 224.282 430.295 225.625 430.094C228.309 429.557 229.786 428.349 229.383 426.872C229.249 426.067 228.309 426.067 223.477 427.074Z" fill="black" fill-opacity="0.9"/>
<path d="M233.074 432.04C228.377 433.114 226.833 433.852 223.276 436.671C221.262 438.215 220.524 438.483 220.122 437.812C219.249 436.47 213.88 437.41 209.182 439.758C206.9 440.899 201.397 444.591 196.967 447.946C192.47 451.369 186.43 455.262 183.208 456.739C176.833 459.826 170.121 464.859 159.719 474.389C155.826 478.013 151.665 481.705 150.457 482.577C148.98 483.785 148.041 485.262 147.571 487.275C146.699 490.631 145.893 491.436 145.289 489.49C144.685 487.544 143.611 487.812 143.611 489.96C143.611 492.51 142.94 494.859 142.202 494.859C141.866 494.859 141.598 494.121 141.598 493.182C141.598 492.242 141.329 491.503 140.927 491.503C140.591 491.503 140.256 491.973 140.256 492.577C140.256 493.182 139.316 493.987 138.242 494.39C136.296 495.127 136.162 495.329 136.564 497.678C137.034 500.229 137.034 500.228 134.954 499.826C133.276 499.49 132.538 499.758 130.86 501.437C129.249 503.047 128.846 504.054 128.846 506.269C128.846 508.886 128.913 509.02 130.658 508.819C132.336 508.617 132.537 508.349 132.47 506.067C132.403 503.517 133.276 502.913 134.752 504.389C135.423 505.061 137.168 503.651 143.141 497.342C147.571 492.711 151.866 488.819 153.611 487.947C155.759 486.806 156.833 485.799 157.37 484.121C157.974 482.309 160.39 480.228 170.524 472.846C177.303 467.879 187.101 460.43 192.269 456.268C202.873 447.812 206.095 445.53 211.396 442.846C214.551 441.235 215.289 441.101 217.101 441.772C219.383 442.577 222.672 441.906 235.893 437.812C239.92 436.604 243.679 435.799 245.289 435.933C247.638 436.134 247.974 435.933 248.175 434.658C248.376 433.517 247.974 432.913 246.766 432.51C243.679 431.302 237.303 431.101 233.074 432.04Z" fill="black" fill-opacity="0.9"/>
<path d="M252.671 431.638C250.188 432.175 248.98 433.719 249.785 435.464C250.389 436.806 251.128 437.007 255.759 437.41C260.054 437.813 261.463 438.215 263.074 439.557C265.356 441.504 267.369 441.437 267.638 439.49C267.973 437.007 256.363 430.9 252.671 431.638Z" fill="black" fill-opacity="0.9"/>
<path d="M272.135 438.483C271.665 439.289 272.269 440.497 273.208 440.497C274.014 440.497 274.014 438.685 273.208 438.148C272.873 437.946 272.403 438.081 272.135 438.483Z" fill="black" fill-opacity="0.9"/>
<path d="M276.363 441.302C276.161 443.45 276.094 443.517 273.477 443.316C269.785 443.047 263.611 441.973 258.175 440.698C251.799 439.222 242.739 439.826 233.209 442.51C229.182 443.584 221.598 445.597 216.363 446.806C203.477 449.96 195.96 453.517 193.879 457.477C193.208 458.685 193.343 458.685 195.423 458.282C196.631 458.014 200.725 456.739 204.484 455.531C209.249 453.92 212.537 453.248 215.423 453.248C219.182 453.248 219.719 453.047 221.262 451.235C222.336 449.96 223.544 449.222 224.685 449.222C225.624 449.222 230.926 448.282 236.497 447.141C249.383 444.524 254.618 444.389 259.92 446.806C264.282 448.752 266.296 448.953 268.108 447.611C269.181 446.806 269.718 447.007 272.336 448.819C274.886 450.631 275.826 450.9 279.584 450.9C281.933 450.9 283.879 451.101 283.879 451.369C283.879 452.443 287.235 453.987 291.195 454.658C294.618 455.262 296.161 456 299.45 458.685C303.141 461.638 306.698 462.98 306.698 461.37C306.698 460.295 296.229 450.9 292.403 448.685C290.322 447.41 286.631 445.732 284.081 444.927C280.255 443.652 279.383 443.047 278.577 441.302C277.302 438.55 276.631 438.618 276.363 441.302Z" fill="black" fill-opacity="0.9"/>
<path d="M242.604 451.839C238.913 453.517 238.376 453.651 237.101 452.778C235.758 451.839 235.288 451.906 232.47 453.517C230.591 454.59 228.308 455.261 226.698 455.261C223.879 455.261 213.946 458.483 213.477 459.49C212.805 461.1 208.913 464.859 206.631 466.067C205.154 466.805 200.792 468.416 196.832 469.691C188.174 472.51 182.873 475.933 174.215 484.121C168.845 489.221 149.651 510.362 149.651 511.235C149.651 511.369 150.792 511.235 152.134 510.832C156.161 509.758 159.986 506.537 167.57 498.013C172.201 492.845 176.765 488.483 180.792 485.53C188.376 479.893 208.107 468.013 209.852 468.013C210.523 468.013 213.074 466.939 215.557 465.664C217.973 464.322 222.336 462.711 225.154 461.973C227.973 461.235 232.067 459.557 234.282 458.215C238.174 455.798 238.309 455.732 243.61 456.134C246.631 456.336 249.382 456.805 249.852 457.141C250.322 457.544 253.074 457.812 256.027 457.879C260.188 457.879 263.074 458.416 269.114 460.295C273.342 461.57 278.241 462.644 279.919 462.644C281.865 462.644 283.342 463.047 283.879 463.651C285.02 465.06 290.322 468.013 291.664 468.013C292.268 468.013 294.55 469.221 296.765 470.698C298.98 472.174 301.329 473.382 301.933 473.382C302.537 473.382 303.61 474.255 304.214 475.329C305.49 477.543 307.772 478.617 308.913 477.476C310.121 476.268 308.443 473.852 303.275 469.288C300.59 466.939 296.899 463.449 295.087 461.637C293.275 459.758 291.933 458.819 292.201 459.423C292.403 460.094 292.805 461.168 293.074 461.772C293.476 462.912 293.409 462.912 292.134 461.772C291.396 461.168 290.456 460.631 290.054 460.631C289.651 460.631 288.443 459.892 287.369 458.953C286.228 457.946 283.812 457.007 281.732 456.604C279.785 456.201 275.289 455.06 271.798 453.986C260.926 450.63 257.369 449.893 251.933 449.893C247.503 449.893 245.96 450.228 242.604 451.839Z" fill="black" fill-opacity="0.9"/>
<path d="M204.147 458.282C192.537 460.43 188.711 462.175 181.127 468.685C178.174 471.235 173.611 474.457 171.06 475.799C164.08 479.49 153.543 491.436 146.765 503.383C144.617 507.141 143.61 508.282 142.604 508.148C141.664 508.013 141.194 508.416 141.06 509.423C140.657 512.04 142.939 511.235 148.845 506.738C150.859 505.262 156.496 499.289 161.396 493.584C170.188 483.248 175.355 478.484 182.537 473.92C188.845 469.893 198.308 465.463 202.604 464.457C206.966 463.45 208.912 462.107 210.456 459.155C211.597 456.94 211.664 456.94 204.147 458.282Z" fill="black" fill-opacity="0.9"/>
<path d="M155.222 460.967C155.02 461.571 155.02 462.175 155.222 462.376C155.826 462.98 157.034 461.974 157.034 460.899C157.034 459.624 155.759 459.691 155.222 460.967Z" fill="black" fill-opacity="0.9"/>
<path d="M234.55 462.98C203.879 472.577 188.309 482.108 161.732 507.409C155.893 512.98 154.148 514.322 152.47 514.322C150.725 514.322 150.322 514.725 148.711 518.282C147.772 520.43 146.966 522.644 146.966 523.114C146.966 523.785 146.698 523.718 145.892 522.913C144.886 521.973 144.349 522.242 139.047 526C135.356 528.618 132.671 531.101 131.597 532.913C130.658 534.457 129.382 535.933 128.778 536.134C128.241 536.336 127.101 537.678 126.228 539.154C125.423 540.631 124.215 542.175 123.611 542.644C122.872 543.248 122.403 544.658 122.268 546.671C122.201 548.483 122.268 549.892 122.47 549.892C122.604 549.892 124.953 548.148 127.57 546C130.725 543.517 132.872 541.235 133.611 539.49C134.282 538.013 134.886 537.208 134.886 537.611C134.886 538.081 135.087 538.483 135.423 538.483C135.691 538.483 139.651 534.792 144.282 530.228C148.913 525.731 157.973 517.342 164.416 511.705C170.859 506 179.651 498.147 183.879 494.255C189.181 489.288 192.604 486.738 194.684 485.933C196.429 485.262 201.396 482.577 205.758 479.96C220.725 471.034 227.503 468.819 242.269 468.215C254.08 467.745 264.215 469.423 278.107 474.121C289.919 478.081 291.799 479.02 292.537 480.966C292.939 481.973 293.678 482.443 295.154 482.51C296.497 482.577 298.577 483.718 301.127 485.732C304.819 488.617 307.503 489.557 308.309 488.282C308.913 487.342 302.067 478.886 298.711 476.47C294.349 473.248 291.127 471.973 287.168 471.906C284.013 471.839 283.879 471.705 283.879 469.96C283.879 468.147 283.745 468.081 281.732 468.483C280.524 468.752 278.778 468.953 277.839 469.02C276.362 469.02 276.161 468.752 276.161 466.47C276.161 465.127 275.96 463.987 275.691 463.987C275.356 463.987 275.154 464.389 275.154 464.926C275.154 466.872 273.678 466.738 267.57 464.188C261.799 461.772 260.926 461.638 254.349 461.571C250.255 461.571 246.698 461.235 245.825 460.765C244.081 459.759 245.624 459.49 234.55 462.98Z" fill="black" fill-opacity="0.9"/>
<path d="M148.912 465.933C146.765 468.148 146.161 470.161 148.174 468.618C150.59 466.806 152.335 465.061 152.335 464.523C152.335 463.45 150.859 464.054 148.912 465.933Z" fill="black" fill-opacity="0.9"/>
<path d="M245.96 471.839C244.484 471.973 238.577 472.712 232.94 473.45C223.208 474.725 222.403 474.926 220.188 476.873C217.571 479.222 215.289 480.228 210.256 481.436C205.692 482.443 201.262 485.195 192.269 492.443C188.242 495.665 183.208 499.222 181.195 500.229C178.913 501.369 176.229 503.584 174.081 506.068C168.712 512.242 159.786 521.034 146.027 533.785L133.41 545.531L133.812 549.356C134.215 553.584 133.208 555.329 132.47 551.571C132.269 550.295 131.866 549.222 131.598 549.222C130.859 549.289 129.182 550.899 126.967 553.718C125.692 555.396 124.148 556.604 123.41 556.604C122.269 556.604 122.135 556.94 122.537 558.886C123.074 561.906 122.269 563.316 121.061 561.638C120.188 560.497 120.054 560.564 119.114 562.846C117.906 565.732 117.772 571.772 118.913 572.443C119.853 573.047 122.873 569.423 122.672 568.013C122.537 567.477 121.799 566.94 120.927 566.805C117.772 566.336 119.853 564.658 123.544 564.658C126.564 564.658 128.51 562.242 129.114 557.946C129.584 554.859 129.718 554.524 130.255 555.732C130.524 556.604 131.195 557.275 131.732 557.275C132.202 557.275 134.685 554.658 137.235 551.37C139.786 548.148 146.094 541.235 151.262 536C158.175 528.819 160.457 526.134 160.188 525.195C159.92 524.121 160.457 523.718 162.671 523.047C164.886 522.443 167.101 520.497 173.813 513.584C178.443 508.819 182.739 504.926 183.343 504.926C184.551 504.926 188.644 501.235 191.195 497.879C192.135 496.604 192.806 496.134 193.007 496.671C193.611 498.014 194.416 497.745 198.108 494.792C202.605 491.302 207.571 488.752 218.108 484.792C222.739 483.047 228.376 480.698 230.524 479.692C234.417 477.812 234.819 477.745 245.289 477.745H256.027L266.43 481.638C273.007 484.121 278.578 485.732 281.531 486.135C287.772 486.873 287.974 486.94 291.53 491.503C294.551 495.329 297.302 497.007 303.477 498.55C305.759 499.154 306.9 500.229 308.913 503.383C310.725 506.201 312.067 507.074 312.067 505.396C312.067 503.383 306.698 495.665 302.604 491.906C296.833 486.537 290.39 483.383 279.383 480.363C278.913 480.228 278.511 479.423 278.511 478.484C278.511 477.544 278.242 476.604 277.839 476.403C277.504 476.201 277.168 476.47 277.168 477.007C277.168 478.819 275.96 478.819 273.007 476.873C266.363 472.443 257.37 470.765 245.96 471.839Z" fill="black" fill-opacity="0.9"/>
<path d="M244.686 481.302C243.209 482.98 242.202 483.248 231.196 484.456C219.249 485.732 216.766 486.604 210.39 491.839C207.437 494.255 202.94 497.275 200.323 498.684C188.846 504.658 175.558 515.261 168.242 524.389C165.759 527.476 162.873 530.362 161.799 530.832C160.726 531.302 159.048 532.778 157.974 534.121C154.081 539.154 151.598 541.705 150.122 542.107C149.048 542.376 147.773 544.255 145.424 548.886C143.679 552.376 142.269 555.731 142.269 556.268C142.269 557.611 141.598 557.543 140.457 556.067C139.585 554.993 139.518 554.993 138.511 556.268C137.974 557.007 136.632 559.02 135.558 560.765C134.148 562.98 133.142 563.986 132.135 563.986C130.793 563.986 130.726 564.188 131.128 567.275C131.397 569.289 131.263 570.765 130.86 571.033C130.524 571.235 130.189 570.832 130.189 570.094C130.189 568.752 129.048 567.543 128.444 568.214C128.242 568.416 128.31 570.295 128.578 572.443L129.048 576.268L132.739 572.309C134.82 570.161 138.712 566 141.397 563.181C144.283 560.161 146.296 557.476 146.296 556.671C146.296 555.731 146.699 555.262 147.638 555.262C148.578 555.262 149.652 554.188 150.994 552.04C152.068 550.295 154.081 547.678 155.491 546.201C156.9 544.725 159.249 541.637 160.726 539.356C162.403 536.805 164.216 534.859 165.558 534.188C166.967 533.517 167.907 532.51 168.175 531.302C168.377 530.295 168.578 529.222 168.645 528.953C168.981 527.678 189.048 511.033 195.625 506.604C207.303 498.819 226.095 489.96 237.236 487.141C244.417 485.329 254.081 486.067 263.41 489.154C268.645 490.899 280.524 496.872 291.934 503.584C302.471 509.758 310.591 513.986 311.128 513.517C311.262 513.382 310.591 512.107 309.652 510.698C308.578 509.154 305.088 506.335 300.39 503.248C296.229 500.497 292.001 497.208 290.994 495.933C289.786 494.322 288.309 493.315 286.497 492.846C285.021 492.443 279.518 490.295 274.35 488.08C262.605 483.181 255.692 480.966 250.189 480.362C246.43 480.027 245.826 480.094 244.686 481.302Z" fill="black" fill-opacity="0.9"/>
<path d="M234.549 491.906C222.939 494.456 211.596 499.624 198.912 508.214C187.435 515.933 181.999 521.033 169.248 536.134C157.637 549.892 156.563 551.033 154.08 552.241C152.133 553.181 148.711 558.483 147.57 562.308C146.966 564.456 146.16 565.664 145.154 566.067C144.348 566.335 142.872 567.879 141.932 569.422C140.321 571.906 140.254 572.241 141.194 573.315C141.798 573.986 142.268 574.859 142.268 575.261C142.268 576.537 143.946 576.201 145.422 574.523C146.16 573.718 147.436 571.838 148.174 570.362C148.912 568.886 150.456 567.006 151.597 566.134C152.738 565.329 154.281 563.382 155.087 561.771C155.892 560.228 158.711 556.671 161.328 553.919C163.946 551.168 168.04 546 170.389 542.51C175.087 535.463 177.503 533.047 192.268 520.564C197.838 515.865 203.677 510.832 205.355 509.288C207.905 507.006 209.113 506.402 212.939 505.731C215.489 505.262 220.322 503.651 223.677 502.174C241.798 494.188 245.355 493.718 257.033 497.744C260.925 499.02 265.153 500.295 266.496 500.496C267.771 500.765 271.798 502.845 275.355 505.194C281.731 509.422 285.623 511.436 286.227 510.832C286.429 510.698 286.765 509.557 286.966 508.416C287.301 506.738 287.167 506.201 286.161 505.798C285.422 505.463 282.805 503.852 280.187 502.174C274.281 498.282 267.301 494.724 261.731 492.845C255.892 490.832 241.529 490.362 234.549 491.906Z" fill="black" fill-opacity="0.9"/>
<path d="M234.416 499.49C233.208 500.295 232.202 501.168 232.202 501.503C232.202 502.242 236.027 502.778 241.396 502.846C245.221 502.846 248.577 504.255 249.584 506.201C250.121 507.208 251.329 507.477 255.356 507.745C259.718 508.013 261.329 508.55 266.631 511.168C274.148 514.926 280.591 520.43 293.879 534.389C299.181 540.027 303.611 544.456 303.812 544.255C304.282 543.785 300.859 537.342 296.966 531.436C292.134 523.987 288.443 520.094 284.483 518.148C282.671 517.208 280.188 515.262 279.114 513.92C274.148 507.678 269.45 505.463 251.329 500.832C240.389 498.081 237.168 497.812 234.416 499.49Z" fill="black" fill-opacity="0.9"/>
<path d="M141.597 502.913C141.06 503.987 141.06 504.255 141.866 504.255C142.94 504.255 143.812 502.443 142.94 501.906C142.604 501.705 142 502.174 141.597 502.913Z" fill="black" fill-opacity="0.9"/>
<path d="M222.805 505.263C220.993 506.739 219.516 507.477 218.778 507.276C216.026 506.403 207.906 511.504 198.107 520.296C194.55 523.45 188.442 528.752 184.617 532.041C177.033 538.685 173.006 543.182 169.717 549.088C168.509 551.169 165.959 554.591 164.08 556.672C162.201 558.752 159.181 562.645 157.369 565.396C155.624 568.148 154.08 570.497 153.946 570.631C153.811 570.766 153.275 570.564 152.805 570.095C151.664 569.222 150.724 570.43 148.443 575.598C146.362 580.296 144.349 582.846 141.865 583.853C140.523 584.457 139.583 585.262 139.583 586.001C139.583 587.813 137.1 591.437 135.288 592.309C134.349 592.712 133.543 593.652 133.409 594.39C133.275 595.128 132.335 596.269 131.194 596.873C129.651 597.746 129.114 598.551 128.845 600.631C128.577 602.578 128.375 602.98 127.973 602.041C127.234 600.095 125.959 601.101 125.087 604.323C124.684 606.135 124.013 607.209 123.476 607.074C122.939 606.94 122.805 607.276 123.14 608.081C123.409 608.752 123.812 609.826 123.946 610.43C124.55 612.444 126.161 611.773 127.302 609.088C128.577 605.934 128.577 605.934 129.919 607.007C131.127 608.014 130.791 608.35 134.953 602.376C136.093 600.766 138.04 598.887 139.248 598.081C140.724 597.276 142.335 595.329 143.61 592.913C144.751 590.833 147.033 587.477 148.644 585.464C150.322 583.45 152.939 579.692 154.483 577.074C156.026 574.524 158.308 571.101 159.516 569.491C160.725 567.88 161.731 565.799 161.731 564.86C161.731 563.786 162.604 562.376 164.214 560.9C165.557 559.625 166.899 558.618 167.167 558.618C167.436 558.618 170.456 555.195 173.812 551.034C180.322 543.115 183.678 539.759 186.698 538.148C187.906 537.477 188.912 536 189.718 533.786C190.791 530.766 191.933 529.356 191.933 531.101C191.933 532.511 193.275 531.638 197.436 527.544C200.12 524.927 203.744 522.242 207.302 520.363C210.456 518.685 215.422 515.598 218.375 513.45L223.745 509.558L232.201 509.759C239.986 509.893 240.791 509.826 243.476 508.283C246.63 506.471 247.033 505.598 244.751 505.598C243.879 505.598 240.322 504.994 236.832 504.256C227.704 502.376 226.161 502.444 222.805 505.263Z" fill="black" fill-opacity="0.9"/>
<path d="M125.288 506.671C124.55 508.013 124.08 511.57 124.55 513.248C125.221 515.933 126.832 514.188 126.832 510.698C126.832 507.946 125.96 505.664 125.288 506.671Z" fill="black" fill-opacity="0.9"/>
<path d="M136.967 507.88C136.43 508.484 136.228 509.155 136.497 509.423C137.101 510.027 138.443 508.551 138.108 507.611C137.973 507.074 137.571 507.141 136.967 507.88Z" fill="black" fill-opacity="0.9"/>
<path d="M286.9 511.101C286.564 513.181 286.967 513.785 293.41 520.497C300.457 527.812 302.739 529.154 305.289 527.745C307.235 526.738 307.101 526.269 304.416 524.792C303.141 524.121 300.054 521.034 297.638 517.947C293.276 512.443 289.584 508.953 288.041 508.953C287.638 508.953 287.101 509.96 286.9 511.101Z" fill="black" fill-opacity="0.9"/>
<path d="M130.926 512.175C129.986 513.92 130.456 514.994 131.597 513.853C132 513.45 132.201 512.578 132.067 511.907C131.865 510.766 131.731 510.766 130.926 512.175Z" fill="black" fill-opacity="0.9"/>
<path d="M246.631 511.369C245.893 511.504 241.53 511.907 236.899 512.242C226.631 513.115 223.879 513.92 220.591 517.208C218.712 519.087 217.772 519.624 217.168 519.087C216.564 518.551 215.221 519.423 212.067 522.376C209.718 524.524 207.57 526.202 207.235 526C206.966 525.799 205.356 526.269 203.678 527.007C199.785 528.752 182.94 545.665 174.618 556.134C171.396 560.229 166.564 566.201 163.947 569.423C161.262 572.712 159.047 575.531 159.047 575.732C159.047 575.933 157.973 578.349 156.698 581.168C155.423 583.92 154.349 586.671 154.349 587.209C154.349 587.946 153.946 588.081 153.007 587.813C152.067 587.544 151.53 587.745 151.195 588.618C150.993 589.289 149.651 591.369 148.242 593.249C146.765 595.128 145.423 597.544 145.222 598.685C144.953 600.027 144.148 601.034 142.604 601.839C141.329 602.511 137.906 605.732 134.953 608.954C132 612.175 128.51 615.329 127.101 616C124.685 617.141 124.685 617.209 125.087 620.229C125.289 621.906 125.691 623.45 125.893 623.651C126.899 624.658 130.054 621.638 131.933 617.813C133.409 614.859 134.148 613.853 134.416 614.591C134.685 615.195 135.49 615.665 136.295 615.665C137.638 615.665 137.705 615.396 137.302 612.913C136.967 610.967 137.101 610.295 137.638 610.698C138.376 611.168 144.953 604.658 144.953 603.45C144.953 603.115 145.222 602.98 145.557 603.248C146.698 603.92 150.524 599.356 153.812 593.45C157.705 586.605 158.51 585.598 162.537 582.846C165.691 580.766 167.436 577.544 168.779 571.504C169.047 570.296 170.389 567.947 171.866 566.269C173.275 564.591 174.483 562.645 174.483 561.973C174.483 561.101 175.423 560.161 177.101 559.289C178.778 558.484 181.799 555.463 185.356 551.101C192.067 542.846 196.43 539.088 212.738 527.544C224.148 519.423 225.356 518.752 227.839 518.886C229.315 518.953 233.074 518.551 236.161 517.947C239.249 517.41 242.94 517.141 244.282 517.343C246.497 517.745 246.832 517.611 247.302 516.202C247.705 514.927 247.839 514.859 248.108 515.799C248.51 517.41 250.658 517.947 255.49 517.745C260.725 517.544 263.946 518.886 271.262 524.39C274.215 526.671 277.436 528.618 278.443 528.819C279.785 529.088 280.792 530.296 282.671 533.718C286.363 540.497 292.671 548.551 298.443 553.853C301.262 556.47 303.678 558.484 303.879 558.349C304.013 558.148 303.611 556.47 303.007 554.524C302.067 551.839 300.59 549.691 296.564 545.531C293.611 542.511 291.262 539.49 291.262 538.886C291.262 536.806 288.04 532.712 282.47 527.678C267.772 514.457 257.101 509.557 246.631 511.369Z" fill="black" fill-opacity="0.9"/>
<path d="M298.98 513.047C300.524 517.947 304.484 522.041 307.168 521.504C308.376 521.302 308.712 521.504 308.712 522.51C308.712 524.189 309.92 526.403 310.859 526.403C311.866 526.403 310.993 522.645 309.316 519.893C308.51 518.685 306.228 516.47 304.081 515.061C298.309 511.168 298.443 511.235 298.98 513.047Z" fill="black" fill-opacity="0.9"/>
<path d="M120.121 513.45C120.188 514.389 122.134 516.604 122.537 516.201C123.208 515.463 122.067 512.98 121.06 512.98C120.523 512.98 120.121 513.181 120.121 513.45Z" fill="black" fill-opacity="0.9"/>
<path d="M136.362 513.785C135.893 514.255 135.557 515.531 135.557 516.739C135.557 518.551 135.356 518.819 134.282 518.551C133.611 518.349 132.805 518.551 132.604 518.953C132.336 519.356 131.53 519.691 130.725 519.691C129.584 519.691 129.45 519.96 129.852 521.168C130.121 522.041 130.322 523.383 130.322 524.188C130.322 525.061 130.524 525.732 130.792 525.732C131.53 525.732 133.879 522.98 134.886 521.101C135.49 519.96 135.826 519.759 136.228 520.363C136.631 520.967 137.034 520.967 138.242 520.363C139.517 519.691 139.651 519.222 139.248 517.477C138.98 516.269 138.711 514.792 138.711 514.121C138.644 512.779 137.503 512.644 136.362 513.785Z" fill="black" fill-opacity="0.9"/>
<path d="M141.128 513.719C140.054 514.792 139.987 517.007 140.927 517.007C141.799 517.007 142.47 515.396 142.135 513.987C142.001 513.115 141.799 513.047 141.128 513.719Z" fill="black" fill-opacity="0.9"/>
<path d="M144.819 516.47C142.671 518.886 142.47 519.691 143.946 519.691C145.154 519.691 147.168 516.739 146.832 515.396C146.698 514.591 146.161 514.926 144.819 516.47Z" fill="black" fill-opacity="0.9"/>
<path d="M230.524 521.571C219.048 525.799 218.645 526 217.034 528.483C214.954 531.772 211.867 534.255 204.887 538.148C198.041 541.906 193.41 546 191.195 550.228C190.256 552.04 188.846 553.517 187.706 553.987C186.631 554.456 184.215 556.604 182.403 558.886C180.524 561.101 177.705 563.92 176.162 565.061C173.276 567.275 171.531 570.363 171.933 572.376C172.269 574.188 179.316 568.617 190.591 557.611C199.853 548.618 206.699 542.913 210.994 540.698C212.538 539.893 213.209 539.825 214.484 540.497C216.296 541.504 217.571 540.832 221.665 536.94C223.88 534.859 224.417 534.658 227.303 534.926C229.115 535.128 232.537 534.792 235.021 534.188C239.518 533.114 239.584 533.114 242.001 534.792C244.954 536.805 248.578 537.544 250.726 536.537C253.007 535.53 252.739 533.517 250.189 531.57C245.625 528.215 241.732 527.745 232.202 529.423C229.048 529.96 224.82 530.43 222.806 530.43C219.316 530.43 219.249 530.362 220.658 529.356C225.491 526 238.175 523.987 242.135 526C244.685 527.342 245.894 527.342 247.169 526.134C248.041 525.262 248.377 525.463 250.256 527.745C251.531 529.289 254.081 531.168 256.699 532.51C259.115 533.651 261.061 535.061 261.061 535.597C261.061 536.201 261.8 537.477 262.739 538.617C263.679 539.692 264.417 540.967 264.417 541.504C264.417 541.973 265.96 543.383 267.84 544.591C272.471 547.544 276.631 552.711 283.209 563.785C286.296 568.886 290.323 575.128 292.269 577.745C294.216 580.295 296.229 583.785 296.699 585.396C297.236 587.275 298.712 589.49 300.457 591.235C302.538 593.316 304.752 597.074 308.377 604.658C311.195 610.43 313.611 614.994 313.813 614.792C314.417 614.188 312.672 606.067 311.33 602.913C310.591 601.235 309.182 599.02 308.175 598.013C306.833 596.604 306.43 595.597 306.564 593.92C306.833 591.436 305.826 590.295 304.417 591.436C303.679 592.041 303.41 591.772 303.142 590.027C302.135 584.255 301.598 582.98 298.578 579.02C296.766 576.604 291.867 569.49 287.638 563.114C283.41 556.806 276.967 548.08 273.343 543.785C269.652 539.49 265.96 535.061 265.155 533.92C264.081 532.376 263.142 531.772 261.8 531.772C260.323 531.772 258.913 530.698 255.424 527.007C251.934 523.248 250.658 522.309 249.518 522.577C248.578 522.846 247.773 522.51 246.967 521.503C245.96 520.295 244.954 520.027 240.86 519.826C236.699 519.691 235.021 519.96 230.524 521.571Z" fill="black" fill-opacity="0.9"/>
<path d="M254.416 521.101C252.537 521.839 252.604 521.973 257.637 525.329C259.584 526.671 262 527.745 263.007 527.745C264.349 527.745 265.087 528.349 266.295 530.43C267.1 531.906 269.517 534.322 271.664 535.866C273.745 537.342 276.228 539.49 277.168 540.497C278.577 542.108 279.047 542.242 279.986 541.571C282.537 539.692 278.577 533.114 274.886 533.114C274.013 533.114 272.738 532.107 271.597 530.43C267.034 523.987 258.577 519.423 254.416 521.101Z" fill="black" fill-opacity="0.9"/>
<path d="M125.154 524.121C124.953 525.799 124.282 528.416 123.745 529.893C123.208 531.437 122.872 532.778 123.007 532.846C123.141 532.98 124.08 532.712 125.087 532.242C126.497 531.638 126.765 531.101 126.497 529.893C126.228 528.953 126.631 527.879 127.503 526.94C128.376 525.933 128.644 525.262 128.174 524.792C127.839 524.456 127.503 523.45 127.503 522.577C127.503 519.691 125.691 520.899 125.154 524.121Z" fill="black" fill-opacity="0.9"/>
<path d="M121.261 526.268C119.114 528.618 117.973 533.919 119.449 534.792C120.188 535.262 120.724 533.986 122.402 528.55C123.409 524.926 123.073 524.188 121.261 526.268Z" fill="black" fill-opacity="0.9"/>
<path d="M302 531.034C302 533.182 315.422 546.873 315.96 545.195C316.093 544.859 315.087 542.443 313.745 539.826C310.725 534.188 306.899 530.43 304.013 530.43C302.872 530.43 302 530.698 302 531.034Z" fill="black" fill-opacity="0.9"/>
<path d="M253.812 537.611C253.947 538.752 254.416 539.49 255.02 539.49C255.624 539.49 256.094 538.752 256.228 537.611C256.43 536.135 256.161 535.799 255.02 535.799C253.879 535.799 253.611 536.135 253.812 537.611Z" fill="black" fill-opacity="0.9"/>
<path d="M228.175 538.081C226.833 538.617 224.148 539.825 222.135 540.832C220.121 541.839 216.699 543.114 214.484 543.651C209.383 544.792 208.108 545.732 197.302 556.202L188.242 564.993L187.571 569.825C187.168 572.51 187.101 574.725 187.369 574.725C187.638 574.725 189.249 572.98 191.061 570.9C197.906 562.778 202.269 558.752 205.021 558.014C206.9 557.544 208.108 556.671 208.98 555.195C210.524 552.644 213.812 550.564 216.43 550.564C217.974 550.564 219.182 549.826 221.061 547.947C230.121 538.685 245.222 540.631 264.551 553.517C269.652 556.873 270.323 557.678 272.336 561.705C273.544 564.121 277.705 571.369 281.531 577.812C290.457 592.712 290.658 593.047 290.524 596C290.457 597.409 291.195 600.631 292.134 603.248C294.618 610.094 297.302 619.423 298.041 623.92C298.779 628.55 299.652 630.43 301.128 630.43C303.074 630.43 301.665 623.249 297.906 613.517C294.953 605.933 294.349 603.718 294.081 598.886C293.813 593.249 293.745 593.047 287.168 580.094C277.504 560.833 272.135 552.98 264.551 547.074C260.926 544.188 260.524 543.987 259.517 544.993C258.51 546 258.242 545.799 255.558 543.181C252.806 540.43 252.47 540.228 248.644 540.161C246.161 540.027 243.477 539.49 241.598 538.617C238.108 536.94 231.933 536.738 228.175 538.081Z" fill="black" fill-opacity="0.9"/>
<path d="M257.034 538.685C257.034 540.161 258.846 542.51 259.919 542.51C260.725 542.51 260.457 538.819 259.584 537.947C258.309 536.672 257.034 537.007 257.034 538.685Z" fill="black" fill-opacity="0.9"/>
<path d="M280.993 541.637C279.718 542.845 280.591 546.402 282.604 548.281C283.745 549.355 285.423 551.503 286.363 553.047C287.235 554.657 288.913 556.671 289.987 557.543C291.06 558.483 291.933 559.691 291.933 560.295C291.933 562.845 294.55 566.47 297.772 568.147C300.59 569.691 301.194 570.429 302.269 573.516C304.483 579.758 307.302 584.792 309.047 585.597C311.396 586.671 311.732 585.932 310.524 582.644C308.577 577.61 303.678 569.892 295.154 558.55C290.658 552.509 286.161 546.066 285.222 544.322C283.678 541.436 282.134 540.429 280.993 541.637Z" fill="black" fill-opacity="0.9"/>
<path d="M118.578 545.665C118.309 545.866 118.108 546.739 118.108 547.611C118.108 548.752 118.376 549.02 119.45 548.752C120.323 548.551 120.792 547.812 120.792 546.806C120.792 545.262 119.517 544.658 118.578 545.665Z" fill="black" fill-opacity="0.9"/>
<path d="M227.638 545.664C226.027 546 221.463 549.96 221.463 551.033C221.463 551.436 223.007 551.571 225.155 551.369C227.369 551.168 231.195 551.571 234.618 552.242C239.315 553.248 240.792 553.315 242.604 552.711C245.356 551.638 246.832 552.175 253.409 556.671C256.228 558.55 259.45 560.497 260.725 561.034C262.335 561.705 263.543 563.047 265.289 566.134C266.564 568.483 270.054 574.524 273.007 579.624C275.96 584.725 279.517 591.906 280.926 595.597C282.805 600.497 283.745 602.241 284.617 602.241C285.557 602.241 286.161 603.718 287.571 610.094C291.933 629.154 293.41 635.128 295.087 640.161C296.899 645.731 299.718 651.906 300.457 651.906C301.329 651.906 299.852 645.329 297.973 641.235C296.765 638.416 295.423 633.382 294.282 627.342C291.866 613.584 288.376 602.241 286.631 602.241C286.295 602.241 285.892 600.631 285.759 598.685C285.288 593.785 279.383 580.832 277.369 580.363C276.497 580.094 275.96 579.691 276.161 579.423C276.832 578.282 274.483 572.577 271.53 568.081C267.638 562.242 259.718 554.322 254.819 551.369C252.805 550.161 249.316 548.483 247.033 547.745C243.275 546.47 242.537 546.403 239.315 547.208C235.893 548.013 235.557 547.946 233.879 546.604C232.067 545.261 230.859 545.06 227.638 545.664Z" fill="black" fill-opacity="0.9"/>
<path d="M304.685 546.403C304.685 548.282 306.631 550.564 308.309 550.564C309.651 550.564 309.919 550.967 310.255 553.383C310.524 555.262 311.261 556.806 312.671 558.215C315.087 560.631 315.288 559.96 313.745 554.658C312.067 549.155 304.685 542.376 304.685 546.403Z" fill="black" fill-opacity="0.9"/>
<path d="M118.309 552.309C117.302 553.852 117.101 553.919 116.363 552.98C115.691 551.973 115.557 552.04 115.155 553.517C114.752 555.262 115.222 557.275 116.094 557.275C117.101 557.275 120.121 553.182 120.121 551.839C120.121 550.094 119.718 550.228 118.309 552.309Z" fill="black" fill-opacity="0.9"/>
<path d="M242.269 555.329C242.269 556.873 249.584 563.45 254.013 565.799C258.107 568.081 258.711 568.617 259.248 570.832C259.584 572.242 260.993 574.658 262.47 576.268C266.698 581.168 273.678 599.423 276.899 614.322C277.503 617.074 278.174 624.457 278.443 630.765C278.98 642.04 278.98 642.242 281.664 648.886C283.879 654.255 284.819 658.148 286.496 668.148C288.51 679.758 290.188 686.805 291.06 686.805C291.329 686.805 291.262 683.853 291.06 680.161C290.591 673.517 289.114 665.463 286.564 655.665C285.825 652.712 285.221 649.289 285.221 647.946C285.154 646.604 284.617 644.322 283.879 642.846C283.074 641.168 282.537 638.685 282.537 636.135C282.537 633.584 282 631.034 281.128 629.088C280.188 627.007 279.852 625.329 280.121 623.651C280.389 622.175 280.121 620.229 279.584 618.886C278.778 617.007 278.712 615.598 279.248 611.772C280.053 605.933 279.248 601.973 275.289 593.114C273.812 589.826 272.269 585.933 271.798 584.457C269.517 577.275 263.074 568.349 255.221 561.638C249.382 556.604 242.269 553.182 242.269 555.329Z" fill="black" fill-opacity="0.9"/>
<path d="M213.074 557.275C205.02 560.497 194.349 571.101 188.108 581.973C186.362 585.127 183.477 589.222 181.798 591.101C180.121 592.98 176.966 596.805 174.751 599.557C172.604 602.309 169.651 605.732 168.242 607.141C165.892 609.423 165.759 609.826 166.161 612.175C166.698 615.262 166.967 615.664 168.175 615.664C168.846 615.664 169.114 614.725 169.114 611.772L169.181 607.946L170.255 609.96L171.329 611.906L172.403 610.295C173.007 609.356 175.758 605.799 178.577 602.241C181.396 598.752 184.483 594.457 185.49 592.778C186.497 591.034 187.839 589.49 188.577 589.289C189.248 589.087 190.859 587.543 192.067 585.731C193.275 583.987 195.288 581.235 196.496 579.624C197.772 577.879 198.644 575.933 198.644 574.725C198.644 572.913 198.779 572.779 200.591 573.114C203.342 573.718 204.819 572.644 207.973 567.745C210.926 563.181 212.805 561.973 214.416 563.315C215.221 563.986 215.49 563.919 215.825 562.913C216.899 559.557 217.637 557.946 218.108 557.946C219.248 557.946 219.383 561.302 218.376 563.651C217.839 564.993 217.503 566.269 217.637 566.403C217.772 566.537 218.845 566.269 219.987 565.866C222.201 564.993 222.738 563.517 221.396 562.174C220.926 561.705 220.792 560.899 221.06 560.295C221.396 559.423 222 559.222 223.745 559.557C225.49 559.893 226.094 559.758 226.429 558.886C227.168 557.007 225.759 556.335 220.926 556.134C217.637 556 215.49 556.268 213.074 557.275Z" fill="black" fill-opacity="0.9"/>
<path d="M227.503 558.215C227.503 560.9 228.913 561.705 232.47 561.034C233.812 560.765 235.087 560.967 235.893 561.571C237.168 562.51 237.235 562.577 236.027 564.591C234.618 566.94 235.021 569.557 236.765 569.222C237.369 569.088 238.108 568.014 238.51 566.806C238.846 565.665 239.383 564.658 239.718 564.658C240.054 564.658 242.403 566.604 244.953 569.02C247.504 571.436 250.054 573.383 250.524 573.383C251.06 573.383 252.739 575.933 254.215 579.087C255.759 582.242 258.779 587.813 261.061 591.437C263.275 595.061 265.087 598.752 265.087 599.692C265.087 600.631 265.893 604.121 266.833 607.343C267.772 610.631 268.98 614.994 269.584 617.007C270.322 619.759 270.725 626.739 271.128 644.39C271.665 667.208 271.665 668.215 270.389 670.363C269.047 672.645 266.765 682.712 267.504 683.383C268.376 684.256 270.389 680.564 271.463 676.067C272.134 673.249 273.141 670.967 273.88 670.497C274.953 669.691 275.155 668.215 275.557 658.215C277.034 619.692 268.108 585.329 252.202 568.282C248.376 564.188 246.228 563.114 245.222 564.725C245.02 565.128 243.947 563.987 242.873 562.108C240.457 557.88 236.833 555.933 231.329 555.933H227.503V558.215Z" fill="black" fill-opacity="0.9"/>
<path d="M304.818 559.423C303.678 560.564 303.812 561.034 305.624 562.846C306.563 563.785 308.174 566.269 309.248 568.416C310.322 570.631 311.865 572.98 312.671 573.651C314.08 574.927 314.08 574.927 314.08 572.98C314.08 570.766 312.738 568.148 309.584 563.987C308.375 562.376 307.369 560.564 307.369 559.826C307.369 558.484 306.026 558.215 304.818 559.423Z" fill="black" fill-opacity="0.9"/>
<path d="M224.148 563.652C222.872 565.195 223.879 566.806 225.96 566.537C227.436 566.403 227.906 565.933 228.04 564.457C228.242 562.913 228.04 562.645 226.631 562.645C225.691 562.645 224.618 563.115 224.148 563.652Z" fill="black" fill-opacity="0.9"/>
<path d="M230.322 564.993C229.182 567.477 229.315 568.013 231.128 568.013C233.275 568.013 233.879 566.94 232.806 564.926C231.732 562.913 231.262 562.913 230.322 564.993Z" fill="black" fill-opacity="0.9"/>
<path d="M211.262 566.068C210.054 566.739 209.517 571.37 210.591 571.37C212.134 571.37 214.081 569.088 214.081 567.276C214.081 565.262 213.275 564.86 211.262 566.068Z" fill="black" fill-opacity="0.9"/>
<path d="M113.41 568.953C113.41 570.228 113.141 571.504 112.739 571.705C111.933 572.175 111.866 575.195 112.605 575.664C113.41 576.134 117.437 573.584 117.437 572.644C117.437 572.175 117.101 570.698 116.631 569.289C116.094 567.477 115.49 566.671 114.618 566.671C113.678 566.671 113.41 567.208 113.41 568.953Z" fill="black" fill-opacity="0.9"/>
<path d="M181.731 569.356C179.047 570.832 177.1 573.248 175.959 576.537C175.087 579.155 175.355 579.222 178.51 577.343C182.47 574.927 186.563 570.43 186.563 568.349C186.563 567.611 184.147 568.148 181.731 569.356Z" fill="black" fill-opacity="0.9"/>
<path d="M220.121 568.483C216.363 568.685 215.624 568.953 215.088 570.228C214.685 571.101 213.678 571.772 212.604 571.906C211.665 572.04 210.389 572.845 209.785 573.718C209.114 574.725 208.309 575.195 207.437 574.926C206.497 574.658 205.49 575.53 203.276 578.551C201.732 580.698 197.638 585.127 194.215 588.349C187.303 594.859 182.873 600.966 181.665 605.463C181.128 607.476 180.389 608.617 179.383 609.02C178.51 609.356 177.839 610.027 177.839 610.631C177.839 611.168 177.235 611.638 176.497 611.638C175.49 611.638 175.021 612.242 174.685 613.718C174.417 615.127 173.477 616.268 171.732 617.41C168.913 619.154 166.9 622.376 167.235 624.59C167.571 627.074 169.383 626.201 171.128 622.711C172.134 620.832 173.209 619.423 173.678 619.49C174.148 619.624 174.484 618.953 174.484 618.014C174.484 616.537 174.685 616.335 176.094 616.738C177.504 617.074 177.772 616.873 177.973 615.262C178.108 613.852 178.645 613.248 180.188 612.846C181.396 612.51 183.141 611.034 184.551 609.288C185.826 607.611 187.907 605.799 189.047 605.195C190.994 604.322 191.262 603.852 191.262 601.637C191.262 599.49 191.665 598.819 194.014 596.873C195.558 595.665 198.108 592.577 199.786 590.094C201.933 586.738 203.544 585.06 205.557 584.054C207.101 583.248 211.195 580.698 214.685 578.349C218.108 576 221.463 574.054 222.135 574.054C222.806 574.054 225.49 574.524 228.108 575.128C233.141 576.268 235.49 576.067 237.168 574.322C238.779 572.779 238.51 572.175 235.893 570.9C234.014 570.027 233.074 569.893 231.598 570.429C229.987 571.101 229.584 570.966 228.309 569.557C227.571 568.752 226.363 568.081 225.692 568.148C225.021 568.215 222.537 568.349 220.121 568.483Z" fill="black" fill-opacity="0.9"/>
<path d="M238.912 574.323C238.912 577.343 239.114 578.081 240.187 578.416C241.866 578.953 244.617 582.175 247.771 587.342C249.248 589.826 251.261 592.108 252.872 593.047C255.355 594.658 255.624 595.128 257.57 602.04C260.724 612.846 262.268 620.161 263.476 629.557C264.751 639.222 264.281 643.987 261.463 650.9C259.986 654.658 259.382 657.007 257.704 666C257.168 668.953 256.161 670.832 252.939 675.061C250.657 678.014 247.369 683.45 245.557 687.141C243.61 691.302 241.194 695.061 239.315 697.007C236.228 700.228 233.812 704.054 234.483 704.725C234.684 704.926 235.825 704.457 237.033 703.718C239.516 702.175 242.536 698.282 247.1 690.832C248.845 688.081 250.993 685.061 252 684.121C254.08 682.175 255.691 678.685 255.691 676.202C255.691 675.329 256.429 673.92 257.234 673.114C259.181 671.302 260.523 667.678 262.402 659.155C263.275 655.262 264.348 651.973 265.154 651.101L266.496 649.557L266.228 654.591C266.027 657.41 264.751 663.719 263.342 668.819C260.322 679.96 260.993 682.108 264.952 673.718C267.771 667.745 268.107 664.591 267.906 644.591C267.704 627.477 267.57 624.926 266.16 618.752C265.288 615.061 264.013 608.953 263.342 605.262C262.268 599.692 261.664 597.947 259.382 594.524C257.839 592.309 255.154 587.946 253.342 584.792C248.979 577.074 247.167 574.859 243.678 572.577C239.382 569.893 238.912 570.027 238.912 574.323Z" fill="black" fill-opacity="0.9"/>
<path d="M124.953 571.839C124.483 572.04 123.074 574.255 121.798 576.738C119.986 580.363 119.248 581.235 118.241 580.967C117.436 580.765 116.765 581.235 116.228 582.376C115.825 583.315 115.691 584.121 116.027 584.121C116.362 584.121 116.832 584.859 117.033 585.799C117.57 588.014 118.174 587.879 119.584 585.463C120.255 584.322 121.731 582.913 122.872 582.242C124.013 581.638 125.691 580.496 126.564 579.759C127.973 578.483 128.04 578.215 127.302 574.859C126.899 572.98 126.429 571.369 126.228 571.436C125.959 571.436 125.423 571.637 124.953 571.839Z" fill="black" fill-opacity="0.9"/>
<path d="M137.638 574.859C137.302 575.799 136.966 576 136.631 575.531C135.826 574.121 134.215 575.531 130.121 581.168C127.906 584.256 125.49 587.141 124.752 587.477C123.275 588.282 123.141 589.692 124.215 592.779C125.02 594.994 126.161 595.464 127.436 593.92C127.973 593.316 127.973 592.511 127.57 591.302C126.765 589.222 127.235 588.618 128.913 589.692C130.658 590.765 132 589.826 134.617 585.866C137.302 581.839 139.584 579.423 140.725 579.423C141.195 579.423 141.597 578.819 141.597 578.014C141.597 574.725 138.577 572.309 137.638 574.859Z" fill="black" fill-opacity="0.9"/>
<path d="M182.671 577.343C181.194 578.483 178.107 581.974 175.826 585.262C173.476 588.483 170.054 592.98 168.175 595.195C166.228 597.409 163.879 600.296 162.94 601.571C160.993 604.121 158.107 610.899 158.711 611.503C158.913 611.705 159.785 611.503 160.657 611.101C161.732 610.631 162.604 609.289 163.342 607.074C164.282 604.322 165.02 603.383 167.637 601.772C169.785 600.43 172.738 597.276 176.966 591.772C180.322 587.41 184.214 582.578 185.557 581.101C186.832 579.691 187.772 578.081 187.57 577.544C187.369 577.074 187.235 576.336 187.235 576C187.235 574.859 185.423 575.396 182.671 577.343Z" fill="black" fill-opacity="0.9"/>
<path d="M199.651 577.812C199.047 578.752 198.712 579.691 198.913 579.892C199.45 580.496 202.001 578.08 202.001 576.94C202.001 575.53 200.926 575.933 199.651 577.812Z" fill="black" fill-opacity="0.9"/>
<path d="M169.047 579.49C167.772 581.034 165.624 583.517 164.215 584.993C162.872 586.47 161.128 588.886 160.322 590.43C159.584 591.906 158.376 594.255 157.705 595.53C156.966 596.805 156.362 598.55 156.362 599.423C156.362 600.765 156.698 600.966 158.241 600.765C159.92 600.564 160.053 600.362 159.852 598.013C159.718 595.866 159.852 595.53 161.128 595.53C163.074 595.53 165.691 592.51 168.04 587.678C169.516 584.523 170.255 583.718 171.127 583.919C172.738 584.322 174.618 581.436 174.349 578.953C174.013 575.866 171.731 576.134 169.047 579.49Z" fill="black" fill-opacity="0.9"/>
<path d="M221.463 580.094C219.316 580.833 217.033 582.175 215.96 583.383C214.55 584.994 213.544 585.463 211.732 585.463C208.51 585.463 204.618 589.088 201.933 594.524C200.255 598.014 199.651 598.618 198.443 598.416C197.168 598.148 196.497 598.953 194.148 603.047C192.604 605.799 190.725 608.551 190.054 609.155C188.98 610.094 188.846 610.967 189.114 613.517C189.651 618.886 190.121 618.953 193.275 614.39C194.819 612.041 197.973 608.081 200.188 605.463C202.47 602.846 206.228 598.416 208.577 595.597C211.262 592.309 213.409 590.363 214.617 590.027C215.624 589.826 217.101 589.356 217.906 589.155C219.114 588.752 219.383 588.953 219.584 590.564C219.718 591.571 220.188 592.577 220.725 592.712C221.396 592.913 221.53 592.645 221.262 591.571C220.389 588.215 223.879 582.108 226.698 582.108C227.503 582.108 227.638 583.182 227.436 588.282L227.168 594.524L229.383 594.457C231.127 594.322 231.53 594.591 231.53 595.732C231.53 596.47 232.47 598.551 233.678 600.363C235.087 602.644 235.826 604.792 236.094 607.141C236.228 609.087 236.966 612.376 237.772 614.524C239.047 618.148 239.047 618.886 238.309 623.92C236.564 635.799 232.806 647.41 227.973 656.068C225.49 660.497 224.416 661.705 221.933 662.98C221.195 663.316 218.712 666.336 216.497 669.691C213.678 673.853 211.597 676.134 209.92 677.074C207.772 678.215 207.369 678.752 207.369 680.698C207.369 682.712 207.235 682.913 205.758 682.51C204.282 682.175 204.148 682.309 203.812 685.933C203.41 689.893 203.745 691.571 204.483 688.953C204.752 687.745 205.356 687.477 207.302 687.477C210.255 687.41 212.604 685.531 217.101 679.423C218.913 677.007 222.201 673.114 224.483 670.698C229.718 665.195 231.127 662.644 236.228 650.229C239.517 642.175 240.389 639.289 240.59 635.799C240.725 633.383 241.262 630.228 241.799 628.752C244.282 621.839 243.678 607.208 240.658 600.497C238.846 596.537 235.154 592.175 231.866 590.161L229.651 588.819L230.926 586.134C231.664 584.658 232.335 583.45 232.47 583.45C232.738 583.45 241.061 597.745 242.805 601.235C245.624 606.873 246.564 611.638 246.497 619.692C246.429 631.436 243.611 642.242 237.503 654.927C233.342 663.584 229.584 669.222 224.08 675.061C220.926 678.417 219.517 680.43 219.181 682.175C218.846 684.121 218.309 684.725 216.429 685.464C215.154 686 214.081 686.672 214.081 687.074C214.081 687.477 212.738 689.155 211.128 690.832C208.242 693.719 207.772 694.792 207.973 698.014C208.107 700.497 209.92 699.826 210.457 697.141C210.792 695.396 211.329 694.591 212.671 694.121C218.376 692.04 224.617 686.336 228.913 679.155C230.322 676.873 231.664 675.396 232.403 675.396C234.618 675.396 244.081 653.92 247.302 641.504C249.852 631.504 250.524 625.128 250.121 614.054C249.718 602.913 248.241 594.054 246.228 589.96C244.483 586.671 240.121 581.906 237.034 579.96L234.685 578.483L233.678 579.96C232.47 581.772 231.866 581.772 230.188 580.094C228.51 578.416 226.228 578.416 221.463 580.094Z" fill="black" fill-opacity="0.9"/>
<path d="M223.61 585.397C222.335 586.202 222.872 588.417 224.416 588.685C226.093 589.021 227.033 587.88 226.496 586.202C226.027 584.725 225.087 584.457 223.61 585.397Z" fill="black" fill-opacity="0.9"/>
<path d="M110.926 586.604C109.047 586.94 108.98 588.618 110.725 590.765C112 592.242 112.134 592.309 113.745 591.235C115.355 590.161 116.161 586.806 114.819 586.806C114.483 586.806 113.812 586.671 113.275 586.537C112.805 586.403 111.731 586.47 110.926 586.604Z" fill="black" fill-opacity="0.9"/>
<path d="M311.396 590.095C311.396 591.974 311.866 593.316 313.074 594.658L314.684 596.537L314.752 593.987C314.752 591.303 313.141 587.477 312.067 587.477C311.664 587.477 311.396 588.685 311.396 590.095Z" fill="black" fill-opacity="0.9"/>
<path d="M120.255 592.309C118.51 594.054 119.718 599.557 121.866 599.557C122.671 599.557 122.805 598.818 122.671 595.731C122.47 591.906 121.732 590.832 120.255 592.309Z" fill="black" fill-opacity="0.9"/>
<path d="M212.94 594.255C211.866 595.329 211.799 597.007 212.873 598.081C214.013 599.221 212.94 599.893 211.195 599.087C209.651 598.349 209.316 598.752 204.953 604.792C193.476 620.832 180.524 635.799 176.564 637.678C173.275 639.221 171.127 642.644 171.127 646.268C171.127 647.879 171.463 649.356 171.866 649.557C172.202 649.826 173.678 649.222 175.087 648.282C176.43 647.342 177.906 646.537 178.376 646.537C179.45 646.537 180.457 644.322 180.658 641.571C180.859 638.819 181.061 638.684 182.336 640.295C183.208 641.436 183.342 641.369 184.349 639.825C184.953 638.886 187.033 636.604 188.98 634.792C190.859 632.913 193.007 630.497 193.678 629.423C194.416 628.282 196.363 625.866 198.175 624.054C199.919 622.174 203.141 617.946 205.356 614.591C209.853 607.678 214.148 603.383 218.51 601.504L221.463 600.161L224.282 601.772C225.893 602.712 227.503 603.316 227.906 603.181C228.309 602.98 228.913 603.987 229.248 605.329C230.456 610.228 233.745 609.96 233.41 604.926C233.208 603.047 232.604 602.174 229.651 599.893C227.705 598.416 225.759 596.47 225.289 595.53C224.215 593.382 221.262 593.047 218.108 594.725C215.825 596 215.758 596 214.752 594.725C213.946 593.718 213.611 593.584 212.94 594.255Z" fill="black" fill-opacity="0.9"/>
<path d="M249.651 596.269C249.651 597.544 250.457 601.705 251.463 605.598C253.208 612.175 253.275 613.517 253.208 625.262C253.141 634.725 253.275 637.812 253.879 637.611C254.35 637.477 255.02 636.202 255.423 634.725C256.564 630.631 258.041 631.303 257.772 635.799C257.504 641.839 255.759 648.349 251.799 658.282C249.584 663.987 247.974 669.087 247.772 671.235C247.504 674.188 247.168 674.926 245.826 675.598C244.014 676.403 242.403 678.886 240.256 684.322C239.047 687.477 238.51 688.081 237.504 687.812C236.631 687.544 236.229 687.745 236.229 688.416C236.229 688.953 234.417 690.967 232.269 692.846C227.974 696.604 226.967 698.752 228.175 701.906L228.913 703.786L229.987 702.175C230.658 701.302 233.477 697.678 236.296 694.188C241.262 688.081 244.953 681.772 244.953 679.289C244.953 678.55 245.289 678.282 245.893 678.484C247.101 678.953 248.376 676.537 249.987 671.034C250.725 668.349 251.866 666.202 253.477 664.524C255.49 662.511 255.96 661.436 256.229 658.484C256.43 656.403 257.235 653.718 258.309 651.906C259.786 649.356 260.054 647.946 260.255 642.309C260.457 638.685 260.188 633.987 259.786 631.907C259.383 629.826 258.712 624.524 258.376 620.161C257.235 608.148 254.081 597.678 250.725 594.926C249.786 594.121 249.651 594.322 249.651 596.269Z" fill="black" fill-opacity="0.9"/>
<path d="M296.832 597.679C297.167 599.222 299.852 607.343 301.798 612.981C302.402 614.658 303.879 616.94 305.154 618.148C306.966 619.893 307.369 620.765 307.369 623.182C307.369 626.873 308.174 628.215 309.382 626.739C311.798 623.786 300.791 596.336 297.033 596.202C296.764 596.202 296.631 596.873 296.832 597.679Z" fill="black" fill-opacity="0.9"/>
<path d="M115.423 598.953C115.423 600.698 115.221 600.966 113.946 600.765C112.738 600.631 112.335 600.966 112.201 602.174C111.799 604.657 113.141 605.396 114.953 603.718C115.825 602.913 116.832 602.241 117.302 602.241C118.644 602.241 118.845 600.966 117.772 598.886C116.429 596.269 115.423 596.335 115.423 598.953Z" fill="black" fill-opacity="0.9"/>
<path d="M153.208 602.241C151.866 604.725 149.92 606.805 145.826 610.027C144.416 611.235 142.202 614.054 140.994 616.335C138.376 621.235 136.631 623.181 135.289 622.644C134.752 622.443 134.081 622.778 133.745 623.517C132.671 625.597 133.141 626.738 135.02 626.94C136.363 627.074 137.705 626.269 141.061 623.181C143.343 621.034 145.96 618.886 146.833 618.416C148.376 617.611 148.376 617.141 147.168 613.785C146.967 613.315 147.437 612.98 148.51 612.98C150.524 612.98 152.873 610.228 155.088 605.329C156.363 602.376 156.363 601.973 155.423 601.033C154.484 600.094 154.282 600.228 153.208 602.241Z" fill="black" fill-opacity="0.9"/>
<path d="M108.309 603.919C108.376 606.134 109.383 606.134 109.383 603.919C109.383 602.98 109.114 602.241 108.779 602.241C108.443 602.241 108.242 602.98 108.309 603.919Z" fill="black" fill-opacity="0.9"/>
<path d="M220.121 604.926C219.584 605.262 218.309 605.597 217.302 605.597C214.819 605.597 210.926 610.228 204.349 621.101C199.919 628.349 197.436 631.57 190.322 639.02C185.557 644.054 180.725 648.618 179.584 649.154C178.443 649.758 176.295 651.839 174.819 653.853C172.671 656.671 171.262 657.745 168.644 658.752C164.617 660.228 160.389 664.456 160.389 667.007C160.389 668.617 160.456 668.617 162.94 667.745C170.456 665.06 177.638 660.094 188.845 649.691L195.96 643.047L196.027 639.624C196.094 637.678 196.295 636.94 196.429 637.947C196.967 641.302 198.912 639.892 203.342 632.845C204.886 630.429 206.698 628.282 207.436 628.081C208.174 627.812 208.711 627.074 208.711 626.134C208.711 623.047 209.517 620.43 210.389 620.765C210.792 620.966 212.738 619.02 214.617 616.335C216.564 613.718 218.845 611.235 219.785 610.832C221.195 610.228 221.463 609.624 221.463 607.141C221.463 605.597 221.396 604.255 221.329 604.255C221.195 604.255 220.657 604.591 220.121 604.926Z" fill="black" fill-opacity="0.9"/>
<path d="M222.537 607.074C222.336 607.544 222.067 609.289 221.933 610.832C221.664 612.913 221.128 614.121 219.987 614.859C217.168 616.873 215.557 619.087 212.336 625.262C210.523 628.886 207.705 632.98 205.691 635.195C203.745 637.208 201.396 640.43 200.389 642.309C199.45 644.188 197.839 646.336 196.832 647.074C195.758 647.812 191.664 651.772 187.637 655.799C183.275 660.228 179.651 663.316 178.577 663.517C177.638 663.718 173.745 665.732 169.987 668.014C164.684 671.235 162.47 672.175 160.053 672.376C158.04 672.51 156.429 673.047 155.691 673.786C154.148 675.396 153.141 680.094 154.349 680.094C156.228 680.094 169.114 675.799 173.611 673.651C178.242 671.436 181.866 668.215 181.866 666.269C181.866 665.732 182.201 665.329 182.537 665.329C182.94 665.329 183.208 665.933 183.208 666.671C183.208 667.41 183.544 668.014 183.879 668.014C184.282 668.014 184.55 667.745 184.55 667.41C184.55 667.074 186.631 665.128 189.248 663.047C192 660.832 194.08 658.551 194.349 657.544C194.617 656.537 195.154 656 195.691 656.201C196.228 656.403 197.772 655.128 199.45 653.181C201.06 651.369 204.014 648.081 206.094 646C209.718 642.242 210.859 640.295 216.564 627.745C218.913 622.645 223.208 616.537 223.946 617.208C224.08 617.342 223.409 619.893 222.47 622.779C220.591 628.551 217.503 634.792 217.436 632.913C217.436 631.302 216.094 631.436 216.094 633.114C216.094 633.852 216.362 634.456 216.698 634.456C216.966 634.456 216.161 637.007 214.886 640.094C212.94 644.658 212.067 645.933 210.188 646.94C208.98 647.611 205.826 650.765 203.275 653.987C197.638 661.101 192.268 666.135 185.893 670.363C179.248 674.792 168.51 679.96 163.611 681.101C158.778 682.175 156.966 683.785 156.832 686.873C156.698 688.685 157.033 689.222 158.443 689.692C160.725 690.564 163.745 689.088 168.443 684.725C172.939 680.564 174.819 679.691 180.859 679.087C186.966 678.483 189.517 677.007 196.967 669.356C200.322 666 204.282 662.443 205.893 661.504C207.436 660.564 209.248 658.886 209.852 657.678C212.134 653.181 215.02 649.691 217.101 648.819C219.114 648.014 219.651 647.141 222 641.034C225.154 633.047 226.832 625.53 226.832 619.691C226.832 616.067 226.698 615.665 225.423 615.665C224.282 615.665 224.08 615.329 224.282 613.182C224.55 609.826 225.691 609.691 227.772 612.779C229.45 615.195 229.517 615.732 229.517 624.792C229.517 633.316 229.383 634.389 228.175 635.463C226.765 636.739 225.087 641.235 224.416 645.732C224.08 647.678 223.678 648.483 223.141 648.282C222.671 648.148 220.926 649.691 219.181 651.772C212.537 660.094 208.913 663.987 205.691 666.403C203.879 667.812 201.195 670.228 199.718 671.839C196.363 675.598 191.195 679.356 188.309 680.161C186.631 680.631 185.825 681.369 185.289 682.913C183.208 688.886 178.376 692.108 170.725 692.644C165.892 693.047 165.758 693.114 165.758 694.792C165.758 696.94 166.899 698.215 168.779 698.215C171.53 698.215 181.127 692.846 187.369 687.812C192.268 683.853 194.08 682.779 195.758 682.779C197.369 682.779 198.711 682.108 200.591 680.43C202 679.154 203.678 678.081 204.282 678.081C204.886 678.081 205.355 677.678 205.355 677.141C205.355 675.463 208.107 672.711 211.463 671.034C213.275 670.094 215.154 668.685 215.624 667.812C216.161 667.007 217.57 664.658 218.778 662.51C219.987 660.43 221.732 658.416 222.604 658.013C223.611 657.544 224.148 656.738 224.148 655.53C224.148 654.457 225.154 652.645 226.765 650.833C231.799 645.128 234.886 633.718 234.886 621.101V614.591L231.731 611.503C229.919 609.759 227.369 607.879 226.027 607.275C223.007 606.067 222.805 606.067 222.537 607.074Z" fill="black" fill-opacity="0.9"/>
<path d="M119.92 607.342C119.651 607.611 119.45 608.416 119.45 609.087C119.45 609.96 118.98 610.295 117.772 610.295C116.497 610.295 116.027 610.765 115.691 612.107C115.087 615.127 114.819 615.664 114.148 615.664C113.812 615.664 113.275 615.06 113.074 614.322C112.873 613.584 112.201 612.98 111.664 612.98C110.524 612.98 110.322 618.684 111.396 619.355C111.799 619.557 112.067 619.154 112.067 618.416C112.067 617.275 112.336 617.208 113.946 617.678C117.235 618.617 121.195 616.134 122.671 612.241C123.208 610.832 123.074 610.161 121.933 608.684C121.128 607.677 120.188 607.073 119.92 607.342Z" fill="black" fill-opacity="0.9"/>
<path d="M282.537 610.43C282.604 616.134 283.947 623.584 286.899 634.457C288.51 640.564 290.658 650.363 291.598 656.202C293.477 667.41 295.154 673.114 297.235 674.994C299.785 677.276 299.584 673.92 296.698 665.531C295.96 663.249 295.289 660.363 295.289 659.155C295.289 657.947 294.685 655.329 293.946 653.383C291.598 647.209 290.054 640.698 287.235 625.061C285.759 616.738 284.349 609.423 284.148 608.752C283.476 606.604 282.537 607.611 282.537 610.43Z" fill="black" fill-opacity="0.9"/>
<path d="M154.081 613.383C153.409 614.322 152.335 617.209 151.664 619.893C150.859 623.249 150.322 624.389 149.986 623.517C149.315 621.839 147.168 622.108 146.698 623.853C146.496 624.725 144.953 626.269 143.275 627.276C140.255 629.222 139.248 630.967 139.718 633.853C139.852 635.061 140.255 635.396 141.262 635.262C143.812 634.859 147.973 631.436 149.45 628.484C150.255 626.873 151.53 624.86 152.268 624.121C153.879 622.376 158.376 612.846 157.973 612.175C157.235 611.034 155.154 611.705 154.081 613.383Z" fill="black" fill-opacity="0.9"/>
<path d="M185.222 614.323C184.752 615.195 182.068 618.349 179.181 621.437C176.296 624.524 173.611 628.014 173.141 629.356C172.671 630.9 171.933 631.772 170.994 631.907C168.846 632.242 166.631 635.531 167.503 637.007C168.578 638.618 170.658 638.417 171.463 636.605C171.799 635.799 172.671 635.128 173.342 635.128C174.081 635.128 175.021 634.122 175.759 632.443C176.43 630.967 177.168 629.96 177.437 630.229C177.973 630.833 185.692 623.316 186.967 620.9C188.108 618.685 188.108 616.47 186.967 614.39L186.094 612.779L185.222 614.323Z" fill="black" fill-opacity="0.9"/>
<path d="M161.463 616.269C159.987 619.02 160.121 619.691 162.067 619.691C163.879 619.691 164.282 619.154 164.551 616.336C164.819 613.853 162.739 613.786 161.463 616.269Z" fill="black" fill-opacity="0.9"/>
<path d="M121.597 621.369C121.127 622.376 120.523 624.591 120.322 626.336C119.919 629.155 119.986 629.356 120.993 628.484C122.536 627.276 123.744 622.51 123.006 620.833C122.469 619.625 122.335 619.691 121.597 621.369Z" fill="black" fill-opacity="0.9"/>
<path d="M157.973 620.229C156.899 620.9 155.691 623.45 155.691 624.994C155.691 627.812 159.114 625.866 159.92 622.578C160.255 620.967 159.114 619.49 157.973 620.229Z" fill="black" fill-opacity="0.9"/>
<path d="M163.074 625.396C162.201 627.745 162.201 632.241 163.141 632.779C164.282 633.517 164.685 632.644 164.953 628.483C165.289 624.188 164.215 622.443 163.074 625.396Z" fill="black" fill-opacity="0.9"/>
<path d="M115.825 626.672C115.355 628.551 116.362 631.772 117.436 631.772C118.443 631.772 118.04 625.598 117.033 625.262C116.563 625.128 116.094 625.732 115.825 626.672Z" fill="black" fill-opacity="0.9"/>
<path d="M127.638 628.081C125.423 630.497 124.55 632.846 124.953 634.792C125.087 635.732 125.825 635.396 128.711 633.047C131.664 630.564 132.201 629.759 132.067 628.081C131.799 625.262 130.121 625.262 127.638 628.081Z" fill="black" fill-opacity="0.9"/>
<path d="M158.778 628.416C156.496 629.154 154.416 630.899 153.678 632.845C153.275 633.785 152.268 634.456 150.724 634.725C147.637 635.329 143.275 638.282 135.355 645.262C129.181 650.631 128.979 650.899 130.724 651.235C135.758 652.309 142.469 649.087 148.778 642.711C151.463 640.027 154.013 637.812 154.55 637.812C155.02 637.812 156.429 637.074 157.704 636.134C158.979 635.194 160.322 634.456 160.657 634.456C161.06 634.456 161.396 632.98 161.396 631.101C161.396 629.221 161.261 627.745 161.06 627.812C160.858 627.812 159.852 628.148 158.778 628.416Z" fill="black" fill-opacity="0.9"/>
<path d="M226.833 632.107C226.833 633.382 227.168 634.456 227.503 634.456C227.906 634.456 228.175 633.382 228.175 632.107C228.175 630.832 227.906 629.758 227.503 629.758C227.168 629.758 226.833 630.832 226.833 632.107Z" fill="black" fill-opacity="0.9"/>
<path d="M302.671 632.108C302 632.913 302.134 634.255 303.678 639.624C304.617 643.248 306.027 647.275 306.765 648.55L308.108 650.899L307.839 646.403C307.571 642.98 307.034 641.101 305.356 638.148C303.611 635.06 303.342 634.255 304.081 633.383C304.617 632.712 304.685 632.175 304.215 631.705C303.745 631.235 303.275 631.369 302.671 632.108Z" fill="black" fill-opacity="0.9"/>
<path d="M131.463 636.671C125.826 641.973 123.343 645.195 124.953 645.195C126.564 645.195 135.826 640.497 137.705 638.685C139.114 637.343 139.45 636.537 139.114 635.195C138.712 633.316 137.705 631.772 136.967 631.772C136.766 631.839 134.282 633.987 131.463 636.671Z" fill="black" fill-opacity="0.9"/>
<path d="M120.121 637.812C120.121 641.839 120.926 642.107 122.134 638.55C123.006 635.798 122.671 634.456 121.06 634.456C120.389 634.456 120.121 635.329 120.121 637.812Z" fill="black" fill-opacity="0.9"/>
<path d="M164.215 638.819C162.872 640.027 161.866 640.363 160.725 640.094C159.517 639.826 159.047 640.027 158.712 641.101C158.376 642.175 157.705 642.51 156.161 642.51C153.544 642.51 152.067 643.45 145.691 649.356C142.805 652.04 139.852 654.188 138.779 654.389C136.363 654.859 135.893 655.866 136.698 659.02L137.235 661.436L140.591 658.483C145.423 654.188 160.725 643.181 161.933 643.181C162.067 643.181 162 644.255 161.866 645.53C161.463 648.819 162.537 648.483 164.684 644.523C165.691 642.711 166.967 640.899 167.571 640.631C168.376 640.161 168.443 639.759 167.839 638.551C166.832 636.805 166.564 636.805 164.215 638.819Z" fill="black" fill-opacity="0.9"/>
<path d="M114.953 639.49C114.752 640.094 114.752 640.698 114.953 640.899C115.557 641.503 116.765 640.497 116.765 639.423C116.765 638.148 115.49 638.215 114.953 639.49Z" fill="black" fill-opacity="0.9"/>
<path d="M250.993 639.557C250.993 640.228 249.316 645.597 247.302 651.57C245.289 657.61 243.611 662.845 243.611 663.315C243.611 663.785 242.738 665.261 241.732 666.604C240.658 667.946 238.309 671.57 236.497 674.658C234.685 677.745 231.127 682.376 228.644 684.926C224.483 689.154 221.53 693.785 221.463 696.067C221.463 697.141 228.175 692.04 232.537 687.745C235.96 684.322 238.577 679.691 239.315 675.799C239.584 674.12 240.658 672.308 242.201 670.765C243.812 669.154 245.825 665.53 248.241 660.027C252.738 649.758 253.678 646.604 253.678 642.04C253.678 638.953 253.544 638.483 252.336 638.483C251.53 638.483 250.993 638.953 250.993 639.557Z" fill="black" fill-opacity="0.9"/>
<path d="M110.188 641.906C110.322 643.181 110.725 644.121 111.06 643.987C112.067 643.785 111.866 640.295 110.859 639.96C110.188 639.758 109.986 640.295 110.188 641.906Z" fill="black" fill-opacity="0.9"/>
<path d="M277.571 649.96C276.9 653.382 277.101 657.879 278.175 664.322C278.779 667.611 279.45 673.45 279.785 677.208C280.121 680.966 280.591 684.322 280.859 684.725C282.739 687.879 283.141 677.41 281.463 665.664C280.927 661.571 280.323 656.269 280.054 653.785C279.584 648.618 278.242 646.537 277.571 649.96Z" fill="black" fill-opacity="0.9"/>
<path d="M121.53 651.235C120.591 654.322 120.591 654.591 121.463 654.591C121.866 654.591 122.134 654.121 122.134 653.517C122.134 652.645 122.604 652.51 124.819 652.913C127.235 653.316 127.503 653.249 127.503 651.973C127.503 651.168 127.101 650.564 126.698 650.564C126.228 650.564 125.02 650.161 124.081 649.624C122.336 648.752 122.268 648.752 121.53 651.235Z" fill="black" fill-opacity="0.9"/>
<path d="M157.57 649.692C156.966 650.363 156.228 651.571 155.825 652.309C155.423 653.115 154.148 653.92 152.94 654.188C148.98 654.994 144.953 657.88 143.611 660.832C142.939 662.376 142.403 663.719 142.537 663.786C142.738 664.054 154.819 657.611 156.161 656.47C157.772 655.128 161.06 649.759 160.657 649.155C160.053 648.215 158.644 648.484 157.57 649.692Z" fill="black" fill-opacity="0.9"/>
<path d="M164.953 650.228C163.477 651.705 161.732 655.798 161.732 657.879C161.732 658.953 167.974 654.054 168.98 652.107C170.859 648.617 167.906 647.208 164.953 650.228Z" fill="black" fill-opacity="0.9"/>
<path d="M115.759 650.497C112.94 651.101 112.604 653.987 115.088 655.665C116.094 656.336 117.034 656.537 117.369 656.202C118.108 655.396 118.913 649.893 118.309 649.96C117.973 650.028 116.9 650.229 115.759 650.497Z" fill="black" fill-opacity="0.9"/>
<path d="M300.457 654.993C299.92 655.53 300.591 658.685 301.329 659.49C302 660.228 302.94 656.201 302.336 655.262C301.866 654.523 301.061 654.389 300.457 654.993Z" fill="black" fill-opacity="0.9"/>
<path d="M131.53 656.604C130.993 656.94 129.987 657.074 129.383 656.873C128.443 656.604 128.175 656.94 128.175 658.483C128.175 661.033 127.503 661.571 126.362 659.96C125.154 658.215 124.886 658.282 122.336 660.698C118.913 663.852 119.383 664.658 124.416 664.658C131.732 664.658 135.49 662.376 135.02 658.282C134.752 655.866 133.611 655.262 131.53 656.604Z" fill="black" fill-opacity="0.9"/>
<path d="M158.51 658.081C157.369 659.222 157.504 661.303 158.712 661.303C159.852 661.303 161.329 658.887 160.725 657.947C160.188 657.075 159.517 657.075 158.51 658.081Z" fill="black" fill-opacity="0.9"/>
<path d="M154.214 662.779C153.006 663.987 152.335 665.463 152.335 666.671C152.335 668.886 152.537 669.02 154.349 668.014C155.825 667.208 157.57 662.242 156.631 661.369C156.295 661.034 155.221 661.638 154.214 662.779Z" fill="black" fill-opacity="0.9"/>
<path d="M146.631 667.946C146.027 669.154 145.893 670.094 146.296 670.363C147.034 670.832 149.651 669.557 149.651 668.684C149.651 668.416 149.853 667.678 150.054 667.074C150.859 664.993 147.772 665.866 146.631 667.946Z" fill="black" fill-opacity="0.9"/>
<path d="M157.302 667.678C157.1 668.617 157.033 669.557 157.234 669.759C157.906 670.429 159.046 669.288 159.046 668.013C159.046 666 157.771 665.799 157.302 667.678Z" fill="black" fill-opacity="0.9"/>
<path d="M140.322 667.275C138.778 667.678 137.436 669.825 138.04 670.832C138.376 671.503 140.993 671.503 142.067 670.832C142.47 670.564 143.074 669.49 143.275 668.483C143.812 666.537 143.409 666.403 140.322 667.275Z" fill="black" fill-opacity="0.9"/>
<path d="M135.96 668.349C135.691 669.155 135.288 669.289 134.282 668.685C133.342 668.215 132.805 668.215 132.537 668.685C131.664 670.094 132.805 671.37 134.886 671.37C136.698 671.37 136.899 671.168 136.899 669.356C136.899 667.141 136.564 666.806 135.96 668.349Z" fill="black" fill-opacity="0.9"/>
<path d="M126.833 669.96C125.759 672.04 126.027 674.054 127.369 674.054C129.114 674.054 130.188 672.711 130.188 670.564C130.188 669.155 129.853 668.685 128.846 668.685C128.175 668.685 127.235 669.289 126.833 669.96Z" fill="black" fill-opacity="0.9"/>
<path d="M122.134 671.369C122.134 672.242 122.469 672.577 123.141 672.309C123.677 672.04 124.147 671.503 124.147 670.967C124.147 670.43 123.677 670.027 123.141 670.027C122.604 670.027 122.134 670.631 122.134 671.369Z" fill="black" fill-opacity="0.9"/>
<path d="M274.215 679.558C273.879 683.584 273.141 685.867 270.054 692.377C267.973 696.739 266.43 700.43 266.631 700.632C267.235 701.236 269.517 699.692 270.725 697.88C271.396 696.873 271.933 694.726 272 693.115C272.067 691.504 272.335 690.162 272.671 690.162C272.94 690.162 273.745 689.155 274.483 687.947C275.49 686.336 275.825 684.591 275.825 681.101C275.825 674.457 274.819 673.517 274.215 679.558Z" fill="black" fill-opacity="0.9"/>
<path d="M139.718 677.141C139.852 678.148 140.322 679.088 140.792 679.289C141.463 679.49 141.664 679.021 141.463 677.678C141.329 676.672 140.859 675.732 140.389 675.53C139.718 675.329 139.517 675.799 139.718 677.141Z" fill="black" fill-opacity="0.9"/>
<path d="M145.221 676.335C144.684 677.812 145.154 680.295 146.161 680.631C146.698 680.765 146.966 680.027 146.966 678.147C146.966 675.463 145.959 674.456 145.221 676.335Z" fill="black" fill-opacity="0.9"/>
<path d="M150.053 676.47C149.449 678.081 149.583 680.765 150.322 680.765C151.194 680.765 152.335 678.484 152.335 676.806C152.335 675.128 150.657 674.926 150.053 676.47Z" fill="black" fill-opacity="0.9"/>
<path d="M131.262 677.812C130.591 679.624 130.792 680.765 131.866 680.765C132.47 680.765 132.872 680.161 132.872 679.154C132.872 677.141 131.866 676.335 131.262 677.812Z" fill="black" fill-opacity="0.9"/>
<path d="M125.893 679.154C125.624 679.758 125.624 680.43 125.826 680.631C126.228 681.034 128.175 679.423 128.175 678.685C128.175 677.611 126.295 678.014 125.893 679.154Z" fill="black" fill-opacity="0.9"/>
<path d="M258.376 681.973C258.376 682.443 256.765 684.59 254.752 686.738C251.53 690.228 249.517 694.322 250.523 695.329C251.194 695.933 254.416 693.315 256.295 690.563C258.577 687.208 259.987 682.778 259.047 681.839C258.577 681.369 258.376 681.436 258.376 681.973Z" fill="black" fill-opacity="0.9"/>
<path d="M175.423 683.383C173.544 684.524 170.457 688.081 170.457 689.088C170.457 689.624 178.577 688.752 179.92 688.081C180.524 687.745 181.396 686.604 181.732 685.463C182.336 683.785 182.269 683.383 181.195 682.779C179.316 681.772 177.772 681.973 175.423 683.383Z" fill="black" fill-opacity="0.9"/>
<path d="M152.47 685.194C150.724 686.403 150.523 689.356 152.067 689.96C153.409 690.497 155.02 688.55 155.02 686.403C155.02 684.322 154.214 683.986 152.47 685.194Z" fill="black" fill-opacity="0.9"/>
<path d="M198.846 685.732C196.765 686.738 196.564 691.504 198.577 691.504C200.255 691.504 202 689.02 202 686.672C202 684.658 201.329 684.457 198.846 685.732Z" fill="black" fill-opacity="0.9"/>
<path d="M141.396 687.074C140.725 688.752 140.792 691.504 141.53 691.504C142.402 691.504 142.939 688.886 142.335 687.275C141.866 686.067 141.798 686 141.396 687.074Z" fill="black" fill-opacity="0.9"/>
<path d="M263.879 686.94C262.738 688.081 262.873 691.504 264.014 691.504C265.088 691.504 265.759 690.094 265.759 687.745C265.759 686 265.088 685.732 263.879 686.94Z" fill="black" fill-opacity="0.9"/>
<path d="M145.624 688.752C145.624 689.49 145.96 690.295 146.295 690.497C146.698 690.765 146.966 690.161 146.966 689.221C146.966 688.282 146.698 687.477 146.295 687.477C145.96 687.477 145.624 688.081 145.624 688.752Z" fill="black" fill-opacity="0.9"/>
<path d="M191.597 690.161C190.524 690.899 188.779 692.577 187.705 693.986C185.96 696.335 185.893 696.604 186.966 697.342C188.51 698.483 188.51 698.483 192.067 696.872C194.752 695.731 195.155 695.194 195.557 693.047C195.759 691.637 195.96 690.094 195.96 689.624C195.96 688.416 193.879 688.617 191.597 690.161Z" fill="black" fill-opacity="0.9"/>
<path d="M162.067 693.718C161.396 695.396 162 697.879 163.074 697.879C164.483 697.879 164.685 695.798 163.477 694.053C162.604 692.845 162.403 692.778 162.067 693.718Z" fill="black" fill-opacity="0.9"/>
<path d="M126.698 695.799C125.221 699.087 128.979 700.832 135.02 699.691C137.302 699.221 138.644 699.288 139.852 699.892C141.731 700.899 142.268 700.631 142.268 698.55C142.268 695.597 140.523 695.06 136.228 696.671C132.268 698.08 132.268 698.08 131.06 696.738C128.778 694.188 127.57 693.987 126.698 695.799Z" fill="black" fill-opacity="0.9"/>
<path d="M155.825 695.195C153.007 696.403 153.342 697.812 156.497 698.081C158.376 698.215 159.181 697.947 159.987 696.739C160.591 695.933 161.06 694.993 161.06 694.725C161.06 693.852 158.242 694.121 155.825 695.195Z" fill="black" fill-opacity="0.9"/>
<path d="M150.053 696.538C149.852 697.074 149.181 697.544 148.577 697.544C147.1 697.544 147.771 699.155 149.449 699.423C151.06 699.692 152.603 697.947 152.067 696.538C151.597 695.262 150.59 695.262 150.053 696.538Z" fill="black" fill-opacity="0.9"/>
<path d="M204.684 696.872C204.684 697.611 205.02 698.215 205.355 698.215C205.758 698.215 206.027 697.611 206.027 696.872C206.027 696.134 205.758 695.53 205.355 695.53C205.02 695.53 204.684 696.134 204.684 696.872Z" fill="black" fill-opacity="0.9"/>
<path d="M217.235 697.41C216.027 698.685 215.423 699.96 215.558 700.967L215.759 702.443L217.638 700.833C219.115 699.625 219.517 698.685 219.316 697.275L219.115 695.396L217.235 697.41Z" fill="black" fill-opacity="0.9"/>
<path d="M179.315 698.215C178.107 698.954 176.764 700.296 176.362 701.235C175.691 702.712 175.556 702.779 174.818 701.772C173.342 699.759 171.798 701.168 171.798 704.591C171.798 708.148 173.342 708.819 174.684 705.732C175.221 704.457 175.892 703.987 176.697 704.121C179.114 704.591 181.261 703.517 183.207 700.766C184.348 699.289 185.221 697.746 185.221 697.41C185.221 696.403 181.53 696.873 179.315 698.215Z" fill="black" fill-opacity="0.9"/>
<path d="M144.281 698.685C144.281 699.49 144.617 700.363 144.952 700.565C145.825 701.101 145.825 699.558 144.952 698.215C144.415 697.41 144.281 697.477 144.281 698.685Z" fill="black" fill-opacity="0.9"/>
<path d="M195.624 700.9C195.154 702.309 196.362 705.195 197.235 704.658C197.906 704.255 197.302 699.558 196.631 699.558C196.295 699.558 195.892 700.162 195.624 700.9Z" fill="black" fill-opacity="0.9"/>
<path d="M276.497 701.034C276.497 701.503 276.832 702.376 277.168 702.913C277.705 703.718 277.839 703.651 277.839 702.443C277.839 701.638 277.57 700.765 277.168 700.564C276.832 700.363 276.497 700.564 276.497 701.034Z" fill="black" fill-opacity="0.9"/>
<path d="M263.209 702.443C261.262 704.523 261.329 705.463 263.41 705.061C264.349 704.926 265.088 704.39 265.088 703.919C265.088 703.383 265.289 702.577 265.49 701.973C266.094 700.43 264.886 700.698 263.209 702.443Z" fill="black" fill-opacity="0.9"/>
<path d="M191.531 702.578C191.262 703.249 190.188 703.584 188.175 703.584C184.282 703.584 180.121 705.329 178.51 707.611C175.49 711.839 177.369 712.645 183.88 710.027C186.027 709.154 188.779 708.215 189.852 707.946C191.396 707.611 191.933 707.141 191.933 706.067C191.933 705.262 192.537 704.188 193.275 703.718C194.081 703.249 194.483 702.578 194.282 702.242C193.678 701.235 191.933 701.437 191.531 702.578Z" fill="black" fill-opacity="0.9"/>
<path d="M222.201 703.316C220.657 705.329 220.322 707.612 221.664 707.612C223.342 707.544 226.093 704.457 225.691 702.981C225.221 701.101 223.879 701.236 222.201 703.316Z" fill="black" fill-opacity="0.9"/>
<path d="M165.624 702.98C163.879 703.987 164.148 705.127 166.496 706.47C169.047 707.879 169.785 707.477 169.785 704.523C169.785 702.577 169.584 702.242 168.308 702.242C167.436 702.242 166.228 702.577 165.624 702.98Z" fill="black" fill-opacity="0.9"/>
<path d="M210.524 702.711C209.45 703.718 210.121 704.994 211.53 704.792C213.477 704.523 214.081 702.242 212.201 702.242C211.53 702.242 210.725 702.443 210.524 702.711Z" fill="black" fill-opacity="0.9"/>
<path d="M206.027 707.41C206.027 709.087 207.034 709.96 207.705 708.886C207.973 708.483 207.705 707.678 207.101 707.074C206.094 706.067 206.027 706.067 206.027 707.41Z" fill="black" fill-opacity="0.9"/>
<path d="M230.389 707.074C229.987 707.544 229.517 708.484 229.315 709.088C228.98 710.027 229.248 710.296 230.456 710.296C232 710.296 232.873 709.155 232.873 707.209C232.873 706.067 231.262 706 230.389 707.074Z" fill="black" fill-opacity="0.9"/>
<path d="M147.302 708.282C147.101 708.618 147.235 709.557 147.638 710.363C148.376 711.705 148.443 711.705 149.316 710.497C149.853 709.826 150.323 708.886 150.323 708.417C150.323 707.477 147.906 707.343 147.302 708.282Z" fill="black" fill-opacity="0.9"/>
<path d="M215.088 708.953C214.416 709.692 213.477 710.296 212.94 710.296C211.933 710.296 211.799 712.175 212.672 713.584C213.141 714.323 213.812 714.121 216.027 712.376C218.913 710.094 219.719 707.611 217.571 707.611C216.832 707.611 215.759 708.215 215.088 708.953Z" fill="black" fill-opacity="0.9"/>
<path d="M201.195 710.631C199.651 712.645 199.651 714.524 201.127 714.188C202.403 713.92 203.745 710.43 202.939 709.625C202.604 709.289 201.799 709.758 201.195 710.631Z" fill="black" fill-opacity="0.9"/>
<path d="M191.06 712.779C190.255 713.517 190.523 714.323 191.597 714.323C192.134 714.323 192.604 713.853 192.604 713.316C192.604 712.242 191.798 711.973 191.06 712.779Z" fill="black" fill-opacity="0.9"/>
</svg>
