<svg width="428" height="926" viewBox="0 0 428 926" fill="none" xmlns="http://www.w3.org/2000/svg">
<path d="M214.483 354.859C213.946 355.664 213.61 356.537 213.811 356.805C214.282 357.611 217.771 356.201 219.181 354.657C220.322 353.449 220.254 353.382 217.906 353.382C216.228 353.382 215.221 353.785 214.483 354.859Z" fill="black" fill-opacity="0.9"/>
<path d="M195.087 357.007C194.886 357.544 194.953 358.215 195.289 358.416C196.161 358.953 196.899 357.409 196.094 356.604C195.691 356.201 195.356 356.335 195.087 357.007Z" fill="black" fill-opacity="0.9"/>
<path d="M206.362 357.678C201.262 359.691 196.295 362.175 191.396 365.262C185.289 369.154 168.443 381.168 168.779 381.436C169.517 382.175 173.611 380.43 178.645 377.208C181.732 375.262 185.624 373.181 187.302 372.644C189.651 371.839 190.255 371.302 190.255 370.094C190.255 368.685 190.725 368.416 193.544 368.013C195.289 367.745 198.309 366.805 200.188 365.866C205.222 363.45 213.409 355.933 210.926 356.067C210.591 356.134 208.577 356.805 206.362 357.678Z" fill="black" fill-opacity="0.9"/>
<path d="M239.718 357.208C239.852 358.014 240.523 358.416 241.597 358.416C242.671 358.416 243.342 358.014 243.477 357.208C243.678 356.336 243.275 356.067 241.597 356.067C239.919 356.067 239.517 356.336 239.718 357.208Z" fill="black" fill-opacity="0.9"/>
<path d="M188.241 360.497C186.966 361.772 187.235 362.309 188.845 361.705C189.449 361.503 189.919 360.899 189.919 360.363C189.919 359.155 189.584 359.155 188.241 360.497Z" fill="black" fill-opacity="0.9"/>
<path d="M214.416 362.107C211.127 363.181 207.101 364.389 205.557 364.792C203.812 365.194 202.604 366 202.335 366.805C201.664 368.886 198.376 371.235 193.409 373.114C189.92 374.456 187.973 375.731 185.557 378.282C183.074 380.899 180.457 382.577 173.543 385.933C164.617 390.295 159.718 393.651 159.718 395.396C159.718 396.671 159.852 396.604 164.08 394.59C166.094 393.651 168.846 392.711 170.255 392.51C171.866 392.242 173.812 391.235 175.557 389.624C177.101 388.215 179.852 386.604 181.933 385.933C188.04 383.919 190.322 382.443 194.349 377.879C198.443 373.248 201.664 370.832 203.678 370.832C204.349 370.832 206.228 369.624 207.839 368.08C211.329 364.859 214.416 363.45 217.973 363.45C219.651 363.45 220.993 362.98 221.664 362.242C224.148 359.49 222.604 359.49 214.416 362.107Z" fill="black" fill-opacity="0.9"/>
<path d="M227.839 364.859C225.154 365.463 223.208 367.141 223.879 368.215C224.08 368.55 225.221 368.819 226.496 368.819C228.107 368.819 229.114 368.349 230.12 367.074C231.53 365.262 231.933 364.054 231.06 364.188C230.725 364.255 229.315 364.523 227.839 364.859Z" fill="black" fill-opacity="0.9"/>
<path d="M232.873 365.463C232.873 366.537 233.342 366.805 235.222 366.805C237.101 366.805 237.57 366.537 237.57 365.463C237.57 364.389 237.101 364.121 235.222 364.121C233.342 364.121 232.873 364.389 232.873 365.463Z" fill="black" fill-opacity="0.9"/>
<path d="M244.551 365.128C244.752 365.732 244.953 366.403 244.953 366.537C244.953 366.671 245.423 366.806 246.027 366.806C247.504 366.806 246.9 364.524 245.356 364.255C244.416 364.054 244.215 364.255 244.551 365.128Z" fill="black" fill-opacity="0.9"/>
<path d="M220.322 367.812C220.121 368.416 220.121 369.02 220.322 369.222C220.926 369.826 222.134 368.819 222.134 367.745C222.134 366.47 220.859 366.537 220.322 367.812Z" fill="black" fill-opacity="0.9"/>
<path d="M212.47 370.564C212.067 371.57 213.61 373.449 214.953 373.517C215.691 373.517 215.49 371.168 214.617 370.295C213.544 369.221 212.94 369.288 212.47 370.564Z" fill="black" fill-opacity="0.9"/>
<path d="M232.134 370.161C225.087 370.497 225.02 370.497 223.208 372.645C221.865 374.188 220.792 374.859 219.382 374.859C218.309 374.859 216.295 375.262 214.953 375.799C213.543 376.336 208.98 377.88 204.751 379.222C200.12 380.631 195.221 382.779 192.336 384.524C189.718 386.135 186.832 387.678 185.893 387.947C184.953 388.215 183.006 389.557 181.53 390.9C180.054 392.309 177.57 393.786 176.027 394.255C174.416 394.658 172.537 395.866 171.53 397.007C170.322 398.484 169.248 399.02 167.772 399.02C166.228 399.02 165.557 399.356 165.288 400.296C165.087 400.967 163.544 402.443 161.865 403.584C160.121 404.725 157.839 406.537 156.698 407.745L154.685 409.826L157.705 409.356C162.671 408.618 164.416 407.343 164.416 404.591C164.416 403.248 164.55 403.182 166.094 403.852C168.241 404.792 170.859 403.651 177.167 399.02C179.584 397.276 182.537 395.329 183.745 394.725C185.154 393.987 185.893 393.114 185.893 392.242C185.893 391.034 186.027 390.967 186.899 391.638C187.705 392.309 188.174 392.309 188.711 391.772C189.181 391.302 190.053 390.967 190.657 390.967C191.261 390.967 194.416 389.289 197.704 387.275C203.611 383.517 212.335 380.229 216.161 380.229C217.302 380.229 219.181 379.49 220.322 378.618C222.537 376.94 227.57 375.061 234.215 373.517C237.973 372.577 239.919 371.437 239.517 370.363C239.382 370.094 236.027 369.96 232.134 370.161Z" fill="black" fill-opacity="0.9"/>
<path d="M241.598 370.161C241.598 370.497 242 370.833 242.537 370.833C243.075 370.833 243.745 370.497 243.947 370.161C244.148 369.759 243.745 369.49 243.007 369.49C242.202 369.49 241.598 369.759 241.598 370.161Z" fill="black" fill-opacity="0.9"/>
<path d="M204.953 372.174C203.611 372.711 200.389 376.201 200.859 376.604C201.262 377.006 209.45 374.322 210.523 373.449C211.396 372.644 211.396 372.51 210.255 372.107C208.644 371.436 206.698 371.436 204.953 372.174Z" fill="black" fill-opacity="0.9"/>
<path d="M245.557 373.517C240.187 374.457 235.892 377.477 236.362 379.96C236.563 381.034 236.832 380.967 238.308 379.356L239.986 377.477L241.261 378.886C242.872 380.631 243.074 380.631 248.174 378.081L252.537 376L257.503 377.208L262.469 378.484L264.215 376.671L266.027 374.926L264.013 374.121C261.597 373.182 249.65 372.712 245.557 373.517Z" fill="black" fill-opacity="0.9"/>
<path d="M222.201 381.37C215.49 383.316 207.638 385.866 204.751 387.007C198.577 389.49 191.261 393.987 187.503 397.544C185.691 399.356 184.148 400.161 182.939 400.161C181.664 400.161 180.121 401.101 177.973 403.182C176.228 404.859 170.322 409.155 164.752 412.779C154.617 419.356 152.134 421.235 144.282 427.88C139.114 432.242 138.913 432.443 138.913 434.457C138.913 436.806 140.993 436.067 142.604 433.115C143.678 431.101 144.684 430.363 147.772 429.222C149.852 428.484 152.537 426.94 153.61 425.866C154.685 424.725 156.295 423.853 157.101 423.853C159.248 423.853 162.537 421.101 165.087 417.209C166.228 415.329 167.57 413.786 168.04 413.786C170.054 413.786 176.295 410.027 184.214 404.121C195.825 395.329 197.906 394.255 210.255 390.229C216.094 388.349 221.933 386.067 223.208 385.195C227.235 382.443 229.584 381.437 231.127 381.839C233.074 382.309 235.087 380.833 234.751 379.155C234.55 377.88 234.013 377.947 222.201 381.37Z" fill="black" fill-opacity="0.9"/>
<path d="M256.295 381.57C254.215 381.906 248.98 383.047 244.55 384.188C240.188 385.261 234.886 386.335 232.872 386.604C228.912 387.141 226.228 388.214 224.886 389.892C224.08 390.832 224.282 390.966 226.631 390.966C228.107 390.966 234.416 390.026 240.658 388.818C250.59 386.939 253.409 386.671 263.409 386.671C273.477 386.671 275.289 386.805 278.711 388.08C282.469 389.557 282.537 389.557 282.537 388.214C282.537 387.476 282 386.738 281.396 386.469C280.725 386.268 278.107 385.06 275.49 383.785C271.664 381.973 269.785 381.503 265.423 381.235C262.47 381.1 258.376 381.235 256.295 381.57Z" fill="black" fill-opacity="0.9"/>
<path d="M254.886 390.295C253.879 390.564 251.396 391.772 249.45 392.913C245.49 395.195 243.477 395.396 238.309 394.188C235.087 393.45 234.752 393.517 233.275 394.926C232.067 396.067 231.06 396.336 229.114 396.201C226.698 396 226.496 396.134 226.295 397.946L226.027 399.893L229.852 399.423C232 399.221 240.524 397.611 248.913 396C269.853 391.839 270.993 391.705 273.544 393.852C274.685 394.859 276.832 395.799 278.376 396.067C281.195 396.537 284.551 396 284.551 395.128C284.551 394.322 279.718 391.839 275.893 390.698C271.933 389.557 258.242 389.289 254.886 390.295Z" fill="black" fill-opacity="0.9"/>
<path d="M214.886 392.645C199.45 396.604 178.242 410.162 164.618 424.792C162 427.544 159.92 429.222 158.98 429.222C158.175 429.222 156.161 430.699 154.148 432.712C152.202 434.658 149.181 437.343 147.302 438.618C145.49 439.893 143.342 442.041 142.604 443.383C141.463 445.464 141.061 445.732 140.054 445.061C139.047 444.457 138.577 444.658 137.235 446.135C135.49 448.148 132.671 455.061 133.007 456.537C133.141 457.141 135.691 455.128 139.584 451.369C146.698 444.39 155.02 437.611 163.678 431.571C168.107 428.416 169.853 426.739 171.262 424.188C172.269 422.376 174.081 420.027 175.289 419.021C179.584 415.397 193.074 407.208 205.557 400.631C216.094 395.061 222.873 390.967 221.463 391.034C221.262 391.034 218.309 391.772 214.886 392.645Z" fill="black" fill-opacity="0.9"/>
<path d="M255.691 398.35C255.691 399.491 258.912 402.376 261.262 403.383C264.819 404.859 270.188 405.33 272.402 404.39C274.214 403.651 274.617 403.786 276.698 405.33C280.389 408.148 295.221 413.383 296.362 412.242C297.167 411.437 295.154 409.088 293.611 409.088C292.335 409.088 291.866 408.618 291.396 406.873C290.859 404.793 290.591 404.658 281.664 401.907C276.631 400.363 270.658 398.752 268.309 398.35C262.738 397.477 255.691 397.477 255.691 398.35Z" fill="black" fill-opacity="0.9"/>
<path d="M212.403 400.228C208.108 401.705 204.551 403.785 196.766 409.423C193.275 411.906 187.839 415.396 184.685 417.275C181.464 419.087 177.571 421.638 176.027 422.913C173.41 425.061 169.987 429.624 170.591 430.228C171.262 430.966 178.242 426.873 185.222 421.638C192.94 415.799 204.886 409.087 212.806 406.134C216.497 404.792 217.168 404.255 217.571 402.443C218.108 400.497 218.376 400.362 221.128 400.362C222.739 400.362 224.282 400.027 224.483 399.691C225.155 398.55 216.027 398.953 212.403 400.228Z" fill="black" fill-opacity="0.9"/>
<path d="M242.94 401.973C242 402.577 239.517 403.047 237.235 403.047C232.537 403.047 231.732 403.45 230.926 406.135L230.39 408.148L240.524 407.879C250.323 407.611 255.691 406.94 255.691 405.799C255.691 405.531 254.819 404.456 253.678 403.383C251.262 401.101 245.692 400.363 242.94 401.973Z" fill="black" fill-opacity="0.9"/>
<path d="M256.363 406.537C256.363 408.55 257.37 410.027 258.242 409.49C258.645 409.221 259.987 409.96 261.262 411.033C263.007 412.577 265.356 413.516 271.799 415.127C281.664 417.611 284.081 418.55 287.436 421.235C289.383 422.846 290.39 423.181 291.866 422.846C293.342 422.51 294.215 422.846 295.826 424.188C296.9 425.127 298.108 425.866 298.51 425.866C299.651 425.866 300.054 423.718 299.181 422.644C297.437 420.563 288.376 415.127 283.343 413.181C277.638 411.033 258.578 405.06 257.235 405.06C256.765 405.06 256.363 405.732 256.363 406.537Z" fill="black" fill-opacity="0.9"/>
<path d="M223.477 407.074C210.256 409.826 196.295 417.141 181.665 429.155C176.027 433.785 174.484 434.658 174.484 433.248C174.484 432.309 171.598 432.376 170.591 433.383C170.121 433.852 169.786 434.859 169.786 435.664C169.786 437.476 168.712 438.349 168.175 436.94C167.638 435.463 165.49 435.732 164.014 437.343C163.343 438.148 159.249 441.571 155.02 444.994C146.967 451.437 140.322 458.148 138.578 461.504C137.705 463.114 137.235 463.383 135.893 463.047C134.551 462.712 134.014 463.047 132.873 464.993C132.067 466.268 131.061 467.544 130.524 467.745C129.987 467.947 129.182 469.356 128.779 470.899C128.108 473.047 127.437 473.919 125.692 474.658C123.141 475.665 122.135 477.41 123.544 478.282C126.027 479.826 130.792 475.463 132.202 470.43C133.074 467.476 133.812 467.208 134.349 469.691C134.484 470.698 136.027 469.691 141.799 464.993C145.826 461.772 149.651 458.819 150.323 458.484C150.994 458.081 152.067 456.873 152.739 455.799C156.161 449.893 161.598 445.598 174.148 438.618C178.98 435.933 186.027 431.369 189.92 428.484C199.114 421.705 204.014 418.752 208.041 417.745C210.256 417.208 211.531 416.403 212.135 415.262C213.276 413.182 216.497 411.571 218.511 412.04C219.45 412.309 220.792 412.04 221.665 411.503C222.47 410.967 224.282 410.295 225.625 410.094C228.309 409.557 229.786 408.349 229.383 406.872C229.249 406.067 228.309 406.067 223.477 407.074Z" fill="black" fill-opacity="0.9"/>
<path d="M233.074 412.04C228.377 413.114 226.833 413.852 223.276 416.671C221.262 418.215 220.524 418.483 220.122 417.812C219.249 416.47 213.88 417.41 209.182 419.758C206.9 420.899 201.397 424.591 196.967 427.946C192.47 431.369 186.43 435.262 183.208 436.739C176.833 439.826 170.121 444.859 159.719 454.389C155.826 458.013 151.665 461.705 150.457 462.577C148.98 463.785 148.041 465.262 147.571 467.275C146.699 470.631 145.893 471.436 145.289 469.49C144.685 467.544 143.611 467.812 143.611 469.96C143.611 472.51 142.94 474.859 142.202 474.859C141.866 474.859 141.598 474.121 141.598 473.182C141.598 472.242 141.329 471.503 140.927 471.503C140.591 471.503 140.256 471.973 140.256 472.577C140.256 473.182 139.316 473.987 138.242 474.39C136.296 475.127 136.162 475.329 136.564 477.678C137.034 480.229 137.034 480.228 134.954 479.826C133.276 479.49 132.538 479.758 130.86 481.437C129.249 483.047 128.846 484.054 128.846 486.269C128.846 488.886 128.913 489.02 130.658 488.819C132.336 488.617 132.537 488.349 132.47 486.067C132.403 483.517 133.276 482.913 134.752 484.389C135.423 485.061 137.168 483.651 143.141 477.342C147.571 472.711 151.866 468.819 153.611 467.947C155.759 466.806 156.833 465.799 157.37 464.121C157.974 462.309 160.39 460.228 170.524 452.846C177.303 447.879 187.101 440.43 192.269 436.268C202.873 427.812 206.095 425.53 211.396 422.846C214.551 421.235 215.289 421.101 217.101 421.772C219.383 422.577 222.672 421.906 235.893 417.812C239.92 416.604 243.679 415.799 245.289 415.933C247.638 416.134 247.974 415.933 248.175 414.658C248.376 413.517 247.974 412.913 246.766 412.51C243.679 411.302 237.303 411.101 233.074 412.04Z" fill="black" fill-opacity="0.9"/>
<path d="M252.671 411.638C250.188 412.175 248.98 413.719 249.785 415.464C250.389 416.806 251.128 417.007 255.759 417.41C260.054 417.813 261.463 418.215 263.074 419.557C265.356 421.504 267.369 421.437 267.638 419.49C267.973 417.007 256.363 410.9 252.671 411.638Z" fill="black" fill-opacity="0.9"/>
<path d="M272.135 418.483C271.665 419.289 272.269 420.497 273.208 420.497C274.014 420.497 274.014 418.685 273.208 418.148C272.873 417.946 272.403 418.081 272.135 418.483Z" fill="black" fill-opacity="0.9"/>
<path d="M276.363 421.302C276.161 423.45 276.094 423.517 273.477 423.316C269.785 423.047 263.611 421.973 258.175 420.698C251.799 419.222 242.739 419.826 233.209 422.51C229.182 423.584 221.598 425.597 216.363 426.806C203.477 429.96 195.96 433.517 193.879 437.477C193.208 438.685 193.343 438.685 195.423 438.282C196.631 438.014 200.725 436.739 204.484 435.531C209.249 433.92 212.537 433.248 215.423 433.248C219.182 433.248 219.719 433.047 221.262 431.235C222.336 429.96 223.544 429.222 224.685 429.222C225.624 429.222 230.926 428.282 236.497 427.141C249.383 424.524 254.618 424.389 259.92 426.806C264.282 428.752 266.296 428.953 268.108 427.611C269.181 426.806 269.718 427.007 272.336 428.819C274.886 430.631 275.826 430.9 279.584 430.9C281.933 430.9 283.879 431.101 283.879 431.369C283.879 432.443 287.235 433.987 291.195 434.658C294.618 435.262 296.161 436 299.45 438.685C303.141 441.638 306.698 442.98 306.698 441.37C306.698 440.295 296.229 430.9 292.403 428.685C290.322 427.41 286.631 425.732 284.081 424.927C280.255 423.652 279.383 423.047 278.577 421.302C277.302 418.55 276.631 418.618 276.363 421.302Z" fill="black" fill-opacity="0.9"/>
<path d="M242.604 431.839C238.913 433.517 238.376 433.651 237.101 432.778C235.758 431.839 235.288 431.906 232.47 433.517C230.591 434.59 228.308 435.261 226.698 435.261C223.879 435.261 213.946 438.483 213.477 439.49C212.805 441.1 208.913 444.859 206.631 446.067C205.154 446.805 200.792 448.416 196.832 449.691C188.174 452.51 182.873 455.933 174.215 464.121C168.845 469.221 149.651 490.362 149.651 491.235C149.651 491.369 150.792 491.235 152.134 490.832C156.161 489.758 159.986 486.537 167.57 478.013C172.201 472.845 176.765 468.483 180.792 465.53C188.376 459.893 208.107 448.013 209.852 448.013C210.523 448.013 213.074 446.939 215.557 445.664C217.973 444.322 222.336 442.711 225.154 441.973C227.973 441.235 232.067 439.557 234.282 438.215C238.174 435.798 238.309 435.732 243.61 436.134C246.631 436.336 249.382 436.805 249.852 437.141C250.322 437.544 253.074 437.812 256.027 437.879C260.188 437.879 263.074 438.416 269.114 440.295C273.342 441.57 278.241 442.644 279.919 442.644C281.865 442.644 283.342 443.047 283.879 443.651C285.02 445.06 290.322 448.013 291.664 448.013C292.268 448.013 294.55 449.221 296.765 450.698C298.98 452.174 301.329 453.382 301.933 453.382C302.537 453.382 303.61 454.255 304.214 455.329C305.49 457.543 307.772 458.617 308.913 457.476C310.121 456.268 308.443 453.852 303.275 449.288C300.59 446.939 296.899 443.449 295.087 441.637C293.275 439.758 291.933 438.819 292.201 439.423C292.403 440.094 292.805 441.168 293.074 441.772C293.476 442.912 293.409 442.912 292.134 441.772C291.396 441.168 290.456 440.631 290.054 440.631C289.651 440.631 288.443 439.892 287.369 438.953C286.228 437.946 283.812 437.007 281.732 436.604C279.785 436.201 275.289 435.06 271.798 433.986C260.926 430.63 257.369 429.893 251.933 429.893C247.503 429.893 245.96 430.228 242.604 431.839Z" fill="black" fill-opacity="0.9"/>
<path d="M204.147 438.282C192.537 440.43 188.711 442.175 181.127 448.685C178.174 451.235 173.611 454.457 171.06 455.799C164.08 459.49 153.543 471.436 146.765 483.383C144.617 487.141 143.61 488.282 142.604 488.148C141.664 488.013 141.194 488.416 141.06 489.423C140.657 492.04 142.939 491.235 148.845 486.738C150.859 485.262 156.496 479.289 161.396 473.584C170.188 463.248 175.355 458.484 182.537 453.92C188.845 449.893 198.308 445.463 202.604 444.457C206.966 443.45 208.912 442.107 210.456 439.155C211.597 436.94 211.664 436.94 204.147 438.282Z" fill="black" fill-opacity="0.9"/>
<path d="M155.222 440.967C155.02 441.571 155.02 442.175 155.222 442.376C155.826 442.98 157.034 441.974 157.034 440.899C157.034 439.624 155.759 439.691 155.222 440.967Z" fill="black" fill-opacity="0.9"/>
<path d="M234.55 442.98C203.879 452.577 188.309 462.108 161.732 487.409C155.893 492.98 154.148 494.322 152.47 494.322C150.725 494.322 150.322 494.725 148.711 498.282C147.772 500.43 146.966 502.644 146.966 503.114C146.966 503.785 146.698 503.718 145.892 502.913C144.886 501.973 144.349 502.242 139.047 506C135.356 508.618 132.671 511.101 131.597 512.913C130.658 514.457 129.382 515.933 128.778 516.134C128.241 516.336 127.101 517.678 126.228 519.154C125.423 520.631 124.215 522.175 123.611 522.644C122.872 523.248 122.403 524.658 122.268 526.671C122.201 528.483 122.268 529.892 122.47 529.892C122.604 529.892 124.953 528.148 127.57 526C130.725 523.517 132.872 521.235 133.611 519.49C134.282 518.013 134.886 517.208 134.886 517.611C134.886 518.081 135.087 518.483 135.423 518.483C135.691 518.483 139.651 514.792 144.282 510.228C148.913 505.731 157.973 497.342 164.416 491.705C170.859 486 179.651 478.147 183.879 474.255C189.181 469.288 192.604 466.738 194.684 465.933C196.429 465.262 201.396 462.577 205.758 459.96C220.725 451.034 227.503 448.819 242.269 448.215C254.08 447.745 264.215 449.423 278.107 454.121C289.919 458.081 291.799 459.02 292.537 460.966C292.939 461.973 293.678 462.443 295.154 462.51C296.497 462.577 298.577 463.718 301.127 465.732C304.819 468.617 307.503 469.557 308.309 468.282C308.913 467.342 302.067 458.886 298.711 456.47C294.349 453.248 291.127 451.973 287.168 451.906C284.013 451.839 283.879 451.705 283.879 449.96C283.879 448.147 283.745 448.081 281.732 448.483C280.524 448.752 278.778 448.953 277.839 449.02C276.362 449.02 276.161 448.752 276.161 446.47C276.161 445.127 275.96 443.987 275.691 443.987C275.356 443.987 275.154 444.389 275.154 444.926C275.154 446.872 273.678 446.738 267.57 444.188C261.799 441.772 260.926 441.638 254.349 441.571C250.255 441.571 246.698 441.235 245.825 440.765C244.081 439.759 245.624 439.49 234.55 442.98Z" fill="black" fill-opacity="0.9"/>
<path d="M148.912 445.933C146.765 448.148 146.161 450.161 148.174 448.618C150.59 446.806 152.335 445.061 152.335 444.523C152.335 443.45 150.859 444.054 148.912 445.933Z" fill="black" fill-opacity="0.9"/>
<path d="M245.96 451.839C244.484 451.973 238.577 452.712 232.94 453.45C223.208 454.725 222.403 454.926 220.188 456.873C217.571 459.222 215.289 460.228 210.256 461.436C205.692 462.443 201.262 465.195 192.269 472.443C188.242 475.665 183.208 479.222 181.195 480.229C178.913 481.369 176.229 483.584 174.081 486.068C168.712 492.242 159.786 501.034 146.027 513.785L133.41 525.531L133.812 529.356C134.215 533.584 133.208 535.329 132.47 531.571C132.269 530.295 131.866 529.222 131.598 529.222C130.859 529.289 129.182 530.899 126.967 533.718C125.692 535.396 124.148 536.604 123.41 536.604C122.269 536.604 122.135 536.94 122.537 538.886C123.074 541.906 122.269 543.316 121.061 541.638C120.188 540.497 120.054 540.564 119.114 542.846C117.906 545.732 117.772 551.772 118.913 552.443C119.853 553.047 122.873 549.423 122.672 548.013C122.537 547.477 121.799 546.94 120.927 546.805C117.772 546.336 119.853 544.658 123.544 544.658C126.564 544.658 128.51 542.242 129.114 537.946C129.584 534.859 129.718 534.524 130.255 535.732C130.524 536.604 131.195 537.275 131.732 537.275C132.202 537.275 134.685 534.658 137.235 531.37C139.786 528.148 146.094 521.235 151.262 516C158.175 508.819 160.457 506.134 160.188 505.195C159.92 504.121 160.457 503.718 162.671 503.047C164.886 502.443 167.101 500.497 173.813 493.584C178.443 488.819 182.739 484.926 183.343 484.926C184.551 484.926 188.644 481.235 191.195 477.879C192.135 476.604 192.806 476.134 193.007 476.671C193.611 478.014 194.416 477.745 198.108 474.792C202.605 471.302 207.571 468.752 218.108 464.792C222.739 463.047 228.376 460.698 230.524 459.692C234.417 457.812 234.819 457.745 245.289 457.745H256.027L266.43 461.638C273.007 464.121 278.578 465.732 281.531 466.135C287.772 466.873 287.974 466.94 291.53 471.503C294.551 475.329 297.302 477.007 303.477 478.55C305.759 479.154 306.9 480.229 308.913 483.383C310.725 486.201 312.067 487.074 312.067 485.396C312.067 483.383 306.698 475.665 302.604 471.906C296.833 466.537 290.39 463.383 279.383 460.363C278.913 460.228 278.511 459.423 278.511 458.484C278.511 457.544 278.242 456.604 277.839 456.403C277.504 456.201 277.168 456.47 277.168 457.007C277.168 458.819 275.96 458.819 273.007 456.873C266.363 452.443 257.37 450.765 245.96 451.839Z" fill="black" fill-opacity="0.9"/>
<path d="M244.686 461.302C243.209 462.98 242.202 463.248 231.196 464.456C219.249 465.732 216.766 466.604 210.39 471.839C207.437 474.255 202.94 477.275 200.323 478.684C188.846 484.658 175.558 495.261 168.242 504.389C165.759 507.476 162.873 510.362 161.799 510.832C160.726 511.302 159.048 512.778 157.974 514.121C154.081 519.154 151.598 521.705 150.122 522.107C149.048 522.376 147.773 524.255 145.424 528.886C143.679 532.376 142.269 535.731 142.269 536.268C142.269 537.611 141.598 537.543 140.457 536.067C139.585 534.993 139.518 534.993 138.511 536.268C137.974 537.007 136.632 539.02 135.558 540.765C134.148 542.98 133.142 543.986 132.135 543.986C130.793 543.986 130.726 544.188 131.128 547.275C131.397 549.289 131.263 550.765 130.86 551.033C130.524 551.235 130.189 550.832 130.189 550.094C130.189 548.752 129.048 547.543 128.444 548.214C128.242 548.416 128.31 550.295 128.578 552.443L129.048 556.268L132.739 552.309C134.82 550.161 138.712 546 141.397 543.181C144.283 540.161 146.296 537.476 146.296 536.671C146.296 535.731 146.699 535.262 147.638 535.262C148.578 535.262 149.652 534.188 150.994 532.04C152.068 530.295 154.081 527.678 155.491 526.201C156.9 524.725 159.249 521.637 160.726 519.356C162.403 516.805 164.216 514.859 165.558 514.188C166.967 513.517 167.907 512.51 168.175 511.302C168.377 510.295 168.578 509.222 168.645 508.953C168.981 507.678 189.048 491.033 195.625 486.604C207.303 478.819 226.095 469.96 237.236 467.141C244.417 465.329 254.081 466.067 263.41 469.154C268.645 470.899 280.524 476.872 291.934 483.584C302.471 489.758 310.591 493.986 311.128 493.517C311.262 493.382 310.591 492.107 309.652 490.698C308.578 489.154 305.088 486.335 300.39 483.248C296.229 480.497 292.001 477.208 290.994 475.933C289.786 474.322 288.309 473.315 286.497 472.846C285.021 472.443 279.518 470.295 274.35 468.08C262.605 463.181 255.692 460.966 250.189 460.362C246.43 460.027 245.826 460.094 244.686 461.302Z" fill="black" fill-opacity="0.9"/>
<path d="M234.549 471.906C222.939 474.456 211.596 479.624 198.912 488.214C187.435 495.933 181.999 501.033 169.248 516.134C157.637 529.892 156.563 531.033 154.08 532.241C152.133 533.181 148.711 538.483 147.57 542.308C146.966 544.456 146.16 545.664 145.154 546.067C144.348 546.335 142.872 547.879 141.932 549.422C140.321 551.906 140.254 552.241 141.194 553.315C141.798 553.986 142.268 554.859 142.268 555.261C142.268 556.537 143.946 556.201 145.422 554.523C146.16 553.718 147.436 551.838 148.174 550.362C148.912 548.886 150.456 547.006 151.597 546.134C152.738 545.329 154.281 543.382 155.087 541.771C155.892 540.228 158.711 536.671 161.328 533.919C163.946 531.168 168.04 526 170.389 522.51C175.087 515.463 177.503 513.047 192.268 500.564C197.838 495.865 203.677 490.832 205.355 489.288C207.905 487.006 209.113 486.402 212.939 485.731C215.489 485.262 220.322 483.651 223.677 482.174C241.798 474.188 245.355 473.718 257.033 477.744C260.925 479.02 265.153 480.295 266.496 480.496C267.771 480.765 271.798 482.845 275.355 485.194C281.731 489.422 285.623 491.436 286.227 490.832C286.429 490.698 286.765 489.557 286.966 488.416C287.301 486.738 287.167 486.201 286.161 485.798C285.422 485.463 282.805 483.852 280.187 482.174C274.281 478.282 267.301 474.724 261.731 472.845C255.892 470.832 241.529 470.362 234.549 471.906Z" fill="black" fill-opacity="0.9"/>
<path d="M234.416 479.49C233.208 480.295 232.202 481.168 232.202 481.503C232.202 482.242 236.027 482.778 241.396 482.846C245.221 482.846 248.577 484.255 249.584 486.201C250.121 487.208 251.329 487.477 255.356 487.745C259.718 488.013 261.329 488.55 266.631 491.168C274.148 494.926 280.591 500.43 293.879 514.389C299.181 520.027 303.611 524.456 303.812 524.255C304.282 523.785 300.859 517.342 296.966 511.436C292.134 503.987 288.443 500.094 284.483 498.148C282.671 497.208 280.188 495.262 279.114 493.92C274.148 487.678 269.45 485.463 251.329 480.832C240.389 478.081 237.168 477.812 234.416 479.49Z" fill="black" fill-opacity="0.9"/>
<path d="M141.597 482.913C141.06 483.987 141.06 484.255 141.866 484.255C142.94 484.255 143.812 482.443 142.94 481.906C142.604 481.705 142 482.174 141.597 482.913Z" fill="black" fill-opacity="0.9"/>
<path d="M222.805 485.263C220.993 486.739 219.516 487.477 218.778 487.276C216.026 486.403 207.906 491.504 198.107 500.296C194.55 503.45 188.442 508.752 184.617 512.041C177.033 518.685 173.006 523.182 169.717 529.088C168.509 531.169 165.959 534.591 164.08 536.672C162.201 538.752 159.181 542.645 157.369 545.396C155.624 548.148 154.08 550.497 153.946 550.631C153.811 550.766 153.275 550.564 152.805 550.095C151.664 549.222 150.724 550.43 148.443 555.598C146.362 560.296 144.349 562.846 141.865 563.853C140.523 564.457 139.583 565.262 139.583 566.001C139.583 567.813 137.1 571.437 135.288 572.309C134.349 572.712 133.543 573.652 133.409 574.39C133.275 575.128 132.335 576.269 131.194 576.873C129.651 577.746 129.114 578.551 128.845 580.631C128.577 582.578 128.375 582.98 127.973 582.041C127.234 580.095 125.959 581.101 125.087 584.323C124.684 586.135 124.013 587.209 123.476 587.074C122.939 586.94 122.805 587.276 123.14 588.081C123.409 588.752 123.812 589.826 123.946 590.43C124.55 592.444 126.161 591.773 127.302 589.088C128.577 585.934 128.577 585.934 129.919 587.007C131.127 588.014 130.791 588.35 134.953 582.376C136.093 580.766 138.04 578.887 139.248 578.081C140.724 577.276 142.335 575.329 143.61 572.913C144.751 570.833 147.033 567.477 148.644 565.464C150.322 563.45 152.939 559.692 154.483 557.074C156.026 554.524 158.308 551.101 159.516 549.491C160.725 547.88 161.731 545.799 161.731 544.86C161.731 543.786 162.604 542.376 164.214 540.9C165.557 539.625 166.899 538.618 167.167 538.618C167.436 538.618 170.456 535.195 173.812 531.034C180.322 523.115 183.678 519.759 186.698 518.148C187.906 517.477 188.912 516 189.718 513.786C190.791 510.766 191.933 509.356 191.933 511.101C191.933 512.511 193.275 511.638 197.436 507.544C200.12 504.927 203.744 502.242 207.302 500.363C210.456 498.685 215.422 495.598 218.375 493.45L223.745 489.558L232.201 489.759C239.986 489.893 240.791 489.826 243.476 488.283C246.63 486.471 247.033 485.598 244.751 485.598C243.879 485.598 240.322 484.994 236.832 484.256C227.704 482.376 226.161 482.444 222.805 485.263Z" fill="black" fill-opacity="0.9"/>
<path d="M125.288 486.671C124.55 488.013 124.08 491.57 124.55 493.248C125.221 495.933 126.832 494.188 126.832 490.698C126.832 487.946 125.96 485.664 125.288 486.671Z" fill="black" fill-opacity="0.9"/>
<path d="M136.967 487.88C136.43 488.484 136.228 489.155 136.497 489.423C137.101 490.027 138.443 488.551 138.108 487.611C137.973 487.074 137.571 487.141 136.967 487.88Z" fill="black" fill-opacity="0.9"/>
<path d="M286.9 491.101C286.564 493.181 286.967 493.785 293.41 500.497C300.457 507.812 302.739 509.154 305.289 507.745C307.235 506.738 307.101 506.269 304.416 504.792C303.141 504.121 300.054 501.034 297.638 497.947C293.276 492.443 289.584 488.953 288.041 488.953C287.638 488.953 287.101 489.96 286.9 491.101Z" fill="black" fill-opacity="0.9"/>
<path d="M130.926 492.175C129.986 493.92 130.456 494.994 131.597 493.853C132 493.45 132.201 492.578 132.067 491.907C131.865 490.766 131.731 490.766 130.926 492.175Z" fill="black" fill-opacity="0.9"/>
<path d="M246.631 491.369C245.893 491.504 241.53 491.907 236.899 492.242C226.631 493.115 223.879 493.92 220.591 497.208C218.712 499.087 217.772 499.624 217.168 499.087C216.564 498.551 215.221 499.423 212.067 502.376C209.718 504.524 207.57 506.202 207.235 506C206.966 505.799 205.356 506.269 203.678 507.007C199.785 508.752 182.94 525.665 174.618 536.134C171.396 540.229 166.564 546.201 163.947 549.423C161.262 552.712 159.047 555.531 159.047 555.732C159.047 555.933 157.973 558.349 156.698 561.168C155.423 563.92 154.349 566.671 154.349 567.209C154.349 567.946 153.946 568.081 153.007 567.813C152.067 567.544 151.53 567.745 151.195 568.618C150.993 569.289 149.651 571.369 148.242 573.249C146.765 575.128 145.423 577.544 145.222 578.685C144.953 580.027 144.148 581.034 142.604 581.839C141.329 582.511 137.906 585.732 134.953 588.954C132 592.175 128.51 595.329 127.101 596C124.685 597.141 124.685 597.209 125.087 600.229C125.289 601.906 125.691 603.45 125.893 603.651C126.899 604.658 130.054 601.638 131.933 597.813C133.409 594.859 134.148 593.853 134.416 594.591C134.685 595.195 135.49 595.665 136.295 595.665C137.638 595.665 137.705 595.396 137.302 592.913C136.967 590.967 137.101 590.295 137.638 590.698C138.376 591.168 144.953 584.658 144.953 583.45C144.953 583.115 145.222 582.98 145.557 583.248C146.698 583.92 150.524 579.356 153.812 573.45C157.705 566.605 158.51 565.598 162.537 562.846C165.691 560.766 167.436 557.544 168.779 551.504C169.047 550.296 170.389 547.947 171.866 546.269C173.275 544.591 174.483 542.645 174.483 541.973C174.483 541.101 175.423 540.161 177.101 539.289C178.778 538.484 181.799 535.463 185.356 531.101C192.067 522.846 196.43 519.088 212.738 507.544C224.148 499.423 225.356 498.752 227.839 498.886C229.315 498.953 233.074 498.551 236.161 497.947C239.249 497.41 242.94 497.141 244.282 497.343C246.497 497.745 246.832 497.611 247.302 496.202C247.705 494.927 247.839 494.859 248.108 495.799C248.51 497.41 250.658 497.947 255.49 497.745C260.725 497.544 263.946 498.886 271.262 504.39C274.215 506.671 277.436 508.618 278.443 508.819C279.785 509.088 280.792 510.296 282.671 513.718C286.363 520.497 292.671 528.551 298.443 533.853C301.262 536.47 303.678 538.484 303.879 538.349C304.013 538.148 303.611 536.47 303.007 534.524C302.067 531.839 300.59 529.691 296.564 525.531C293.611 522.511 291.262 519.49 291.262 518.886C291.262 516.806 288.04 512.712 282.47 507.678C267.772 494.457 257.101 489.557 246.631 491.369Z" fill="black" fill-opacity="0.9"/>
<path d="M298.98 493.047C300.524 497.947 304.484 502.041 307.168 501.504C308.376 501.302 308.712 501.504 308.712 502.51C308.712 504.189 309.92 506.403 310.859 506.403C311.866 506.403 310.993 502.645 309.316 499.893C308.51 498.685 306.228 496.47 304.081 495.061C298.309 491.168 298.443 491.235 298.98 493.047Z" fill="black" fill-opacity="0.9"/>
<path d="M120.121 493.45C120.188 494.389 122.134 496.604 122.537 496.201C123.208 495.463 122.067 492.98 121.06 492.98C120.523 492.98 120.121 493.181 120.121 493.45Z" fill="black" fill-opacity="0.9"/>
<path d="M136.362 493.785C135.893 494.255 135.557 495.531 135.557 496.739C135.557 498.551 135.356 498.819 134.282 498.551C133.611 498.349 132.805 498.551 132.604 498.953C132.336 499.356 131.53 499.691 130.725 499.691C129.584 499.691 129.45 499.96 129.852 501.168C130.121 502.041 130.322 503.383 130.322 504.188C130.322 505.061 130.524 505.732 130.792 505.732C131.53 505.732 133.879 502.98 134.886 501.101C135.49 499.96 135.826 499.759 136.228 500.363C136.631 500.967 137.034 500.967 138.242 500.363C139.517 499.691 139.651 499.222 139.248 497.477C138.98 496.269 138.711 494.792 138.711 494.121C138.644 492.779 137.503 492.644 136.362 493.785Z" fill="black" fill-opacity="0.9"/>
<path d="M141.128 493.719C140.054 494.792 139.987 497.007 140.927 497.007C141.799 497.007 142.47 495.396 142.135 493.987C142.001 493.115 141.799 493.047 141.128 493.719Z" fill="black" fill-opacity="0.9"/>
<path d="M144.819 496.47C142.671 498.886 142.47 499.691 143.946 499.691C145.154 499.691 147.168 496.739 146.832 495.396C146.698 494.591 146.161 494.926 144.819 496.47Z" fill="black" fill-opacity="0.9"/>
<path d="M230.524 501.571C219.048 505.799 218.645 506 217.034 508.483C214.954 511.772 211.867 514.255 204.887 518.148C198.041 521.906 193.41 526 191.195 530.228C190.256 532.04 188.846 533.517 187.706 533.987C186.631 534.456 184.215 536.604 182.403 538.886C180.524 541.101 177.705 543.92 176.162 545.061C173.276 547.275 171.531 550.363 171.933 552.376C172.269 554.188 179.316 548.617 190.591 537.611C199.853 528.618 206.699 522.913 210.994 520.698C212.538 519.893 213.209 519.825 214.484 520.497C216.296 521.504 217.571 520.832 221.665 516.94C223.88 514.859 224.417 514.658 227.303 514.926C229.115 515.128 232.537 514.792 235.021 514.188C239.518 513.114 239.584 513.114 242.001 514.792C244.954 516.805 248.578 517.544 250.726 516.537C253.007 515.53 252.739 513.517 250.189 511.57C245.625 508.215 241.732 507.745 232.202 509.423C229.048 509.96 224.82 510.43 222.806 510.43C219.316 510.43 219.249 510.362 220.658 509.356C225.491 506 238.175 503.987 242.135 506C244.685 507.342 245.894 507.342 247.169 506.134C248.041 505.262 248.377 505.463 250.256 507.745C251.531 509.289 254.081 511.168 256.699 512.51C259.115 513.651 261.061 515.061 261.061 515.597C261.061 516.201 261.8 517.477 262.739 518.617C263.679 519.692 264.417 520.967 264.417 521.504C264.417 521.973 265.96 523.383 267.84 524.591C272.471 527.544 276.631 532.711 283.209 543.785C286.296 548.886 290.323 555.128 292.269 557.745C294.216 560.295 296.229 563.785 296.699 565.396C297.236 567.275 298.712 569.49 300.457 571.235C302.538 573.316 304.752 577.074 308.377 584.658C311.195 590.43 313.611 594.994 313.813 594.792C314.417 594.188 312.672 586.067 311.33 582.913C310.591 581.235 309.182 579.02 308.175 578.013C306.833 576.604 306.43 575.597 306.564 573.92C306.833 571.436 305.826 570.295 304.417 571.436C303.679 572.041 303.41 571.772 303.142 570.027C302.135 564.255 301.598 562.98 298.578 559.02C296.766 556.604 291.867 549.49 287.638 543.114C283.41 536.806 276.967 528.08 273.343 523.785C269.652 519.49 265.96 515.061 265.155 513.92C264.081 512.376 263.142 511.772 261.8 511.772C260.323 511.772 258.913 510.698 255.424 507.007C251.934 503.248 250.658 502.309 249.518 502.577C248.578 502.846 247.773 502.51 246.967 501.503C245.96 500.295 244.954 500.027 240.86 499.826C236.699 499.691 235.021 499.96 230.524 501.571Z" fill="black" fill-opacity="0.9"/>
<path d="M254.416 501.101C252.537 501.839 252.604 501.973 257.637 505.329C259.584 506.671 262 507.745 263.007 507.745C264.349 507.745 265.087 508.349 266.295 510.43C267.1 511.906 269.517 514.322 271.664 515.866C273.745 517.342 276.228 519.49 277.168 520.497C278.577 522.108 279.047 522.242 279.986 521.571C282.537 519.692 278.577 513.114 274.886 513.114C274.013 513.114 272.738 512.107 271.597 510.43C267.034 503.987 258.577 499.423 254.416 501.101Z" fill="black" fill-opacity="0.9"/>
<path d="M125.154 504.121C124.953 505.799 124.282 508.416 123.745 509.893C123.208 511.437 122.872 512.778 123.007 512.846C123.141 512.98 124.08 512.712 125.087 512.242C126.497 511.638 126.765 511.101 126.497 509.893C126.228 508.953 126.631 507.879 127.503 506.94C128.376 505.933 128.644 505.262 128.174 504.792C127.839 504.456 127.503 503.45 127.503 502.577C127.503 499.691 125.691 500.899 125.154 504.121Z" fill="black" fill-opacity="0.9"/>
<path d="M121.261 506.268C119.114 508.618 117.973 513.919 119.449 514.792C120.188 515.262 120.724 513.986 122.402 508.55C123.409 504.926 123.073 504.188 121.261 506.268Z" fill="black" fill-opacity="0.9"/>
<path d="M302 511.034C302 513.182 315.422 526.873 315.96 525.195C316.093 524.859 315.087 522.443 313.745 519.826C310.725 514.188 306.899 510.43 304.013 510.43C302.872 510.43 302 510.698 302 511.034Z" fill="black" fill-opacity="0.9"/>
<path d="M253.812 517.611C253.947 518.752 254.416 519.49 255.02 519.49C255.624 519.49 256.094 518.752 256.228 517.611C256.43 516.135 256.161 515.799 255.02 515.799C253.879 515.799 253.611 516.135 253.812 517.611Z" fill="black" fill-opacity="0.9"/>
<path d="M228.175 518.081C226.833 518.617 224.148 519.825 222.135 520.832C220.121 521.839 216.699 523.114 214.484 523.651C209.383 524.792 208.108 525.732 197.302 536.202L188.242 544.993L187.571 549.825C187.168 552.51 187.101 554.725 187.369 554.725C187.638 554.725 189.249 552.98 191.061 550.9C197.906 542.778 202.269 538.752 205.021 538.014C206.9 537.544 208.108 536.671 208.98 535.195C210.524 532.644 213.812 530.564 216.43 530.564C217.974 530.564 219.182 529.826 221.061 527.947C230.121 518.685 245.222 520.631 264.551 533.517C269.652 536.873 270.323 537.678 272.336 541.705C273.544 544.121 277.705 551.369 281.531 557.812C290.457 572.712 290.658 573.047 290.524 576C290.457 577.409 291.195 580.631 292.134 583.248C294.618 590.094 297.302 599.423 298.041 603.92C298.779 608.55 299.652 610.43 301.128 610.43C303.074 610.43 301.665 603.249 297.906 593.517C294.953 585.933 294.349 583.718 294.081 578.886C293.813 573.249 293.745 573.047 287.168 560.094C277.504 540.833 272.135 532.98 264.551 527.074C260.926 524.188 260.524 523.987 259.517 524.993C258.51 526 258.242 525.799 255.558 523.181C252.806 520.43 252.47 520.228 248.644 520.161C246.161 520.027 243.477 519.49 241.598 518.617C238.108 516.94 231.933 516.738 228.175 518.081Z" fill="black" fill-opacity="0.9"/>
<path d="M257.034 518.685C257.034 520.161 258.846 522.51 259.919 522.51C260.725 522.51 260.457 518.819 259.584 517.947C258.309 516.672 257.034 517.007 257.034 518.685Z" fill="black" fill-opacity="0.9"/>
<path d="M280.993 521.637C279.718 522.845 280.591 526.402 282.604 528.281C283.745 529.355 285.423 531.503 286.363 533.047C287.235 534.657 288.913 536.671 289.987 537.543C291.06 538.483 291.933 539.691 291.933 540.295C291.933 542.845 294.55 546.47 297.772 548.147C300.59 549.691 301.194 550.429 302.269 553.516C304.483 559.758 307.302 564.792 309.047 565.597C311.396 566.671 311.732 565.932 310.524 562.644C308.577 557.61 303.678 549.892 295.154 538.55C290.658 532.509 286.161 526.066 285.222 524.322C283.678 521.436 282.134 520.429 280.993 521.637Z" fill="black" fill-opacity="0.9"/>
<path d="M118.578 525.665C118.309 525.866 118.108 526.739 118.108 527.611C118.108 528.752 118.376 529.02 119.45 528.752C120.323 528.551 120.792 527.812 120.792 526.806C120.792 525.262 119.517 524.658 118.578 525.665Z" fill="black" fill-opacity="0.9"/>
<path d="M227.638 525.664C226.027 526 221.463 529.96 221.463 531.033C221.463 531.436 223.007 531.571 225.155 531.369C227.369 531.168 231.195 531.571 234.618 532.242C239.315 533.248 240.792 533.315 242.604 532.711C245.356 531.638 246.832 532.175 253.409 536.671C256.228 538.55 259.45 540.497 260.725 541.034C262.335 541.705 263.543 543.047 265.289 546.134C266.564 548.483 270.054 554.524 273.007 559.624C275.96 564.725 279.517 571.906 280.926 575.597C282.805 580.497 283.745 582.241 284.617 582.241C285.557 582.241 286.161 583.718 287.571 590.094C291.933 609.154 293.41 615.128 295.087 620.161C296.899 625.731 299.718 631.906 300.457 631.906C301.329 631.906 299.852 625.329 297.973 621.235C296.765 618.416 295.423 613.382 294.282 607.342C291.866 593.584 288.376 582.241 286.631 582.241C286.295 582.241 285.892 580.631 285.759 578.685C285.288 573.785 279.383 560.832 277.369 560.363C276.497 560.094 275.96 559.691 276.161 559.423C276.832 558.282 274.483 552.577 271.53 548.081C267.638 542.242 259.718 534.322 254.819 531.369C252.805 530.161 249.316 528.483 247.033 527.745C243.275 526.47 242.537 526.403 239.315 527.208C235.893 528.013 235.557 527.946 233.879 526.604C232.067 525.261 230.859 525.06 227.638 525.664Z" fill="black" fill-opacity="0.9"/>
<path d="M304.685 526.403C304.685 528.282 306.631 530.564 308.309 530.564C309.651 530.564 309.919 530.967 310.255 533.383C310.524 535.262 311.261 536.806 312.671 538.215C315.087 540.631 315.288 539.96 313.745 534.658C312.067 529.155 304.685 522.376 304.685 526.403Z" fill="black" fill-opacity="0.9"/>
<path d="M118.309 532.309C117.302 533.852 117.101 533.919 116.363 532.98C115.691 531.973 115.557 532.04 115.155 533.517C114.752 535.262 115.222 537.275 116.094 537.275C117.101 537.275 120.121 533.182 120.121 531.839C120.121 530.094 119.718 530.228 118.309 532.309Z" fill="black" fill-opacity="0.9"/>
<path d="M242.269 535.329C242.269 536.873 249.584 543.45 254.013 545.799C258.107 548.081 258.711 548.617 259.248 550.832C259.584 552.242 260.993 554.658 262.47 556.268C266.698 561.168 273.678 579.423 276.899 594.322C277.503 597.074 278.174 604.457 278.443 610.765C278.98 622.04 278.98 622.242 281.664 628.886C283.879 634.255 284.819 638.148 286.496 648.148C288.51 659.758 290.188 666.805 291.06 666.805C291.329 666.805 291.262 663.853 291.06 660.161C290.591 653.517 289.114 645.463 286.564 635.665C285.825 632.712 285.221 629.289 285.221 627.946C285.154 626.604 284.617 624.322 283.879 622.846C283.074 621.168 282.537 618.685 282.537 616.135C282.537 613.584 282 611.034 281.128 609.088C280.188 607.007 279.852 605.329 280.121 603.651C280.389 602.175 280.121 600.229 279.584 598.886C278.778 597.007 278.712 595.598 279.248 591.772C280.053 585.933 279.248 581.973 275.289 573.114C273.812 569.826 272.269 565.933 271.798 564.457C269.517 557.275 263.074 548.349 255.221 541.638C249.382 536.604 242.269 533.182 242.269 535.329Z" fill="black" fill-opacity="0.9"/>
<path d="M213.074 537.275C205.02 540.497 194.349 551.101 188.108 561.973C186.362 565.127 183.477 569.222 181.798 571.101C180.121 572.98 176.966 576.805 174.751 579.557C172.604 582.309 169.651 585.732 168.242 587.141C165.892 589.423 165.759 589.826 166.161 592.175C166.698 595.262 166.967 595.664 168.175 595.664C168.846 595.664 169.114 594.725 169.114 591.772L169.181 587.946L170.255 589.96L171.329 591.906L172.403 590.295C173.007 589.356 175.758 585.799 178.577 582.241C181.396 578.752 184.483 574.457 185.49 572.778C186.497 571.034 187.839 569.49 188.577 569.289C189.248 569.087 190.859 567.543 192.067 565.731C193.275 563.987 195.288 561.235 196.496 559.624C197.772 557.879 198.644 555.933 198.644 554.725C198.644 552.913 198.779 552.779 200.591 553.114C203.342 553.718 204.819 552.644 207.973 547.745C210.926 543.181 212.805 541.973 214.416 543.315C215.221 543.986 215.49 543.919 215.825 542.913C216.899 539.557 217.637 537.946 218.108 537.946C219.248 537.946 219.383 541.302 218.376 543.651C217.839 544.993 217.503 546.269 217.637 546.403C217.772 546.537 218.845 546.269 219.987 545.866C222.201 544.993 222.738 543.517 221.396 542.174C220.926 541.705 220.792 540.899 221.06 540.295C221.396 539.423 222 539.222 223.745 539.557C225.49 539.893 226.094 539.758 226.429 538.886C227.168 537.007 225.759 536.335 220.926 536.134C217.637 536 215.49 536.268 213.074 537.275Z" fill="black" fill-opacity="0.9"/>
<path d="M227.503 538.215C227.503 540.9 228.913 541.705 232.47 541.034C233.812 540.765 235.087 540.967 235.893 541.571C237.168 542.51 237.235 542.577 236.027 544.591C234.618 546.94 235.021 549.557 236.765 549.222C237.369 549.088 238.108 548.014 238.51 546.806C238.846 545.665 239.383 544.658 239.718 544.658C240.054 544.658 242.403 546.604 244.953 549.02C247.504 551.436 250.054 553.383 250.524 553.383C251.06 553.383 252.739 555.933 254.215 559.087C255.759 562.242 258.779 567.813 261.061 571.437C263.275 575.061 265.087 578.752 265.087 579.692C265.087 580.631 265.893 584.121 266.833 587.343C267.772 590.631 268.98 594.994 269.584 597.007C270.322 599.759 270.725 606.739 271.128 624.39C271.665 647.208 271.665 648.215 270.389 650.363C269.047 652.645 266.765 662.712 267.504 663.383C268.376 664.256 270.389 660.564 271.463 656.067C272.134 653.249 273.141 650.967 273.88 650.497C274.953 649.691 275.155 648.215 275.557 638.215C277.034 599.692 268.108 565.329 252.202 548.282C248.376 544.188 246.228 543.114 245.222 544.725C245.02 545.128 243.947 543.987 242.873 542.108C240.457 537.88 236.833 535.933 231.329 535.933H227.503V538.215Z" fill="black" fill-opacity="0.9"/>
<path d="M304.818 539.423C303.678 540.564 303.812 541.034 305.624 542.846C306.563 543.785 308.174 546.269 309.248 548.416C310.322 550.631 311.865 552.98 312.671 553.651C314.08 554.927 314.08 554.927 314.08 552.98C314.08 550.766 312.738 548.148 309.584 543.987C308.375 542.376 307.369 540.564 307.369 539.826C307.369 538.484 306.026 538.215 304.818 539.423Z" fill="black" fill-opacity="0.9"/>
<path d="M224.148 543.652C222.872 545.195 223.879 546.806 225.96 546.537C227.436 546.403 227.906 545.933 228.04 544.457C228.242 542.913 228.04 542.645 226.631 542.645C225.691 542.645 224.618 543.115 224.148 543.652Z" fill="black" fill-opacity="0.9"/>
<path d="M230.322 544.993C229.182 547.477 229.315 548.013 231.128 548.013C233.275 548.013 233.879 546.94 232.806 544.926C231.732 542.913 231.262 542.913 230.322 544.993Z" fill="black" fill-opacity="0.9"/>
<path d="M211.262 546.068C210.054 546.739 209.517 551.37 210.591 551.37C212.134 551.37 214.081 549.088 214.081 547.276C214.081 545.262 213.275 544.86 211.262 546.068Z" fill="black" fill-opacity="0.9"/>
<path d="M113.41 548.953C113.41 550.228 113.141 551.504 112.739 551.705C111.933 552.175 111.866 555.195 112.605 555.664C113.41 556.134 117.437 553.584 117.437 552.644C117.437 552.175 117.101 550.698 116.631 549.289C116.094 547.477 115.49 546.671 114.618 546.671C113.678 546.671 113.41 547.208 113.41 548.953Z" fill="black" fill-opacity="0.9"/>
<path d="M181.731 549.356C179.047 550.832 177.1 553.248 175.959 556.537C175.087 559.155 175.355 559.222 178.51 557.343C182.47 554.927 186.563 550.43 186.563 548.349C186.563 547.611 184.147 548.148 181.731 549.356Z" fill="black" fill-opacity="0.9"/>
<path d="M220.121 548.483C216.363 548.685 215.624 548.953 215.088 550.228C214.685 551.101 213.678 551.772 212.604 551.906C211.665 552.04 210.389 552.845 209.785 553.718C209.114 554.725 208.309 555.195 207.437 554.926C206.497 554.658 205.49 555.53 203.276 558.551C201.732 560.698 197.638 565.127 194.215 568.349C187.303 574.859 182.873 580.966 181.665 585.463C181.128 587.476 180.389 588.617 179.383 589.02C178.51 589.356 177.839 590.027 177.839 590.631C177.839 591.168 177.235 591.638 176.497 591.638C175.49 591.638 175.021 592.242 174.685 593.718C174.417 595.127 173.477 596.268 171.732 597.41C168.913 599.154 166.9 602.376 167.235 604.59C167.571 607.074 169.383 606.201 171.128 602.711C172.134 600.832 173.209 599.423 173.678 599.49C174.148 599.624 174.484 598.953 174.484 598.014C174.484 596.537 174.685 596.335 176.094 596.738C177.504 597.074 177.772 596.873 177.973 595.262C178.108 593.852 178.645 593.248 180.188 592.846C181.396 592.51 183.141 591.034 184.551 589.288C185.826 587.611 187.907 585.799 189.047 585.195C190.994 584.322 191.262 583.852 191.262 581.637C191.262 579.49 191.665 578.819 194.014 576.873C195.558 575.665 198.108 572.577 199.786 570.094C201.933 566.738 203.544 565.06 205.557 564.054C207.101 563.248 211.195 560.698 214.685 558.349C218.108 556 221.463 554.054 222.135 554.054C222.806 554.054 225.49 554.524 228.108 555.128C233.141 556.268 235.49 556.067 237.168 554.322C238.779 552.779 238.51 552.175 235.893 550.9C234.014 550.027 233.074 549.893 231.598 550.429C229.987 551.101 229.584 550.966 228.309 549.557C227.571 548.752 226.363 548.081 225.692 548.148C225.021 548.215 222.537 548.349 220.121 548.483Z" fill="black" fill-opacity="0.9"/>
<path d="M238.912 554.323C238.912 557.343 239.114 558.081 240.187 558.416C241.866 558.953 244.617 562.175 247.771 567.342C249.248 569.826 251.261 572.108 252.872 573.047C255.355 574.658 255.624 575.128 257.57 582.04C260.724 592.846 262.268 600.161 263.476 609.557C264.751 619.222 264.281 623.987 261.463 630.9C259.986 634.658 259.382 637.007 257.704 646C257.168 648.953 256.161 650.832 252.939 655.061C250.657 658.014 247.369 663.45 245.557 667.141C243.61 671.302 241.194 675.061 239.315 677.007C236.228 680.228 233.812 684.054 234.483 684.725C234.684 684.926 235.825 684.457 237.033 683.718C239.516 682.175 242.536 678.282 247.1 670.832C248.845 668.081 250.993 665.061 252 664.121C254.08 662.175 255.691 658.685 255.691 656.202C255.691 655.329 256.429 653.92 257.234 653.114C259.181 651.302 260.523 647.678 262.402 639.155C263.275 635.262 264.348 631.973 265.154 631.101L266.496 629.557L266.228 634.591C266.027 637.41 264.751 643.719 263.342 648.819C260.322 659.96 260.993 662.108 264.952 653.718C267.771 647.745 268.107 644.591 267.906 624.591C267.704 607.477 267.57 604.926 266.16 598.752C265.288 595.061 264.013 588.953 263.342 585.262C262.268 579.692 261.664 577.947 259.382 574.524C257.839 572.309 255.154 567.946 253.342 564.792C248.979 557.074 247.167 554.859 243.678 552.577C239.382 549.893 238.912 550.027 238.912 554.323Z" fill="black" fill-opacity="0.9"/>
<path d="M124.953 551.839C124.483 552.04 123.074 554.255 121.798 556.738C119.986 560.363 119.248 561.235 118.241 560.967C117.436 560.765 116.765 561.235 116.228 562.376C115.825 563.315 115.691 564.121 116.027 564.121C116.362 564.121 116.832 564.859 117.033 565.799C117.57 568.014 118.174 567.879 119.584 565.463C120.255 564.322 121.731 562.913 122.872 562.242C124.013 561.638 125.691 560.496 126.564 559.759C127.973 558.483 128.04 558.215 127.302 554.859C126.899 552.98 126.429 551.369 126.228 551.436C125.959 551.436 125.423 551.637 124.953 551.839Z" fill="black" fill-opacity="0.9"/>
<path d="M137.638 554.859C137.302 555.799 136.966 556 136.631 555.531C135.826 554.121 134.215 555.531 130.121 561.168C127.906 564.256 125.49 567.141 124.752 567.477C123.275 568.282 123.141 569.692 124.215 572.779C125.02 574.994 126.161 575.464 127.436 573.92C127.973 573.316 127.973 572.511 127.57 571.302C126.765 569.222 127.235 568.618 128.913 569.692C130.658 570.765 132 569.826 134.617 565.866C137.302 561.839 139.584 559.423 140.725 559.423C141.195 559.423 141.597 558.819 141.597 558.014C141.597 554.725 138.577 552.309 137.638 554.859Z" fill="black" fill-opacity="0.9"/>
<path d="M182.671 557.343C181.194 558.483 178.107 561.974 175.826 565.262C173.476 568.483 170.054 572.98 168.175 575.195C166.228 577.409 163.879 580.296 162.94 581.571C160.993 584.121 158.107 590.899 158.711 591.503C158.913 591.705 159.785 591.503 160.657 591.101C161.732 590.631 162.604 589.289 163.342 587.074C164.282 584.322 165.02 583.383 167.637 581.772C169.785 580.43 172.738 577.276 176.966 571.772C180.322 567.41 184.214 562.578 185.557 561.101C186.832 559.691 187.772 558.081 187.57 557.544C187.369 557.074 187.235 556.336 187.235 556C187.235 554.859 185.423 555.396 182.671 557.343Z" fill="black" fill-opacity="0.9"/>
<path d="M199.651 557.812C199.047 558.752 198.712 559.691 198.913 559.892C199.45 560.496 202.001 558.08 202.001 556.94C202.001 555.53 200.926 555.933 199.651 557.812Z" fill="black" fill-opacity="0.9"/>
<path d="M169.047 559.49C167.772 561.034 165.624 563.517 164.215 564.993C162.872 566.47 161.128 568.886 160.322 570.43C159.584 571.906 158.376 574.255 157.705 575.53C156.966 576.805 156.362 578.55 156.362 579.423C156.362 580.765 156.698 580.966 158.241 580.765C159.92 580.564 160.053 580.362 159.852 578.013C159.718 575.866 159.852 575.53 161.128 575.53C163.074 575.53 165.691 572.51 168.04 567.678C169.516 564.523 170.255 563.718 171.127 563.919C172.738 564.322 174.618 561.436 174.349 558.953C174.013 555.866 171.731 556.134 169.047 559.49Z" fill="black" fill-opacity="0.9"/>
<path d="M221.463 560.094C219.316 560.833 217.033 562.175 215.96 563.383C214.55 564.994 213.544 565.463 211.732 565.463C208.51 565.463 204.618 569.088 201.933 574.524C200.255 578.014 199.651 578.618 198.443 578.416C197.168 578.148 196.497 578.953 194.148 583.047C192.604 585.799 190.725 588.551 190.054 589.155C188.98 590.094 188.846 590.967 189.114 593.517C189.651 598.886 190.121 598.953 193.275 594.39C194.819 592.041 197.973 588.081 200.188 585.463C202.47 582.846 206.228 578.416 208.577 575.597C211.262 572.309 213.409 570.363 214.617 570.027C215.624 569.826 217.101 569.356 217.906 569.155C219.114 568.752 219.383 568.953 219.584 570.564C219.718 571.571 220.188 572.577 220.725 572.712C221.396 572.913 221.53 572.645 221.262 571.571C220.389 568.215 223.879 562.108 226.698 562.108C227.503 562.108 227.638 563.182 227.436 568.282L227.168 574.524L229.383 574.457C231.127 574.322 231.53 574.591 231.53 575.732C231.53 576.47 232.47 578.551 233.678 580.363C235.087 582.644 235.826 584.792 236.094 587.141C236.228 589.087 236.966 592.376 237.772 594.524C239.047 598.148 239.047 598.886 238.309 603.92C236.564 615.799 232.806 627.41 227.973 636.068C225.49 640.497 224.416 641.705 221.933 642.98C221.195 643.316 218.712 646.336 216.497 649.691C213.678 653.853 211.597 656.134 209.92 657.074C207.772 658.215 207.369 658.752 207.369 660.698C207.369 662.712 207.235 662.913 205.758 662.51C204.282 662.175 204.148 662.309 203.812 665.933C203.41 669.893 203.745 671.571 204.483 668.953C204.752 667.745 205.356 667.477 207.302 667.477C210.255 667.41 212.604 665.531 217.101 659.423C218.913 657.007 222.201 653.114 224.483 650.698C229.718 645.195 231.127 642.644 236.228 630.229C239.517 622.175 240.389 619.289 240.59 615.799C240.725 613.383 241.262 610.228 241.799 608.752C244.282 601.839 243.678 587.208 240.658 580.497C238.846 576.537 235.154 572.175 231.866 570.161L229.651 568.819L230.926 566.134C231.664 564.658 232.335 563.45 232.47 563.45C232.738 563.45 241.061 577.745 242.805 581.235C245.624 586.873 246.564 591.638 246.497 599.692C246.429 611.436 243.611 622.242 237.503 634.927C233.342 643.584 229.584 649.222 224.08 655.061C220.926 658.417 219.517 660.43 219.181 662.175C218.846 664.121 218.309 664.725 216.429 665.464C215.154 666 214.081 666.672 214.081 667.074C214.081 667.477 212.738 669.155 211.128 670.832C208.242 673.719 207.772 674.792 207.973 678.014C208.107 680.497 209.92 679.826 210.457 677.141C210.792 675.396 211.329 674.591 212.671 674.121C218.376 672.04 224.617 666.336 228.913 659.155C230.322 656.873 231.664 655.396 232.403 655.396C234.618 655.396 244.081 633.92 247.302 621.504C249.852 611.504 250.524 605.128 250.121 594.054C249.718 582.913 248.241 574.054 246.228 569.96C244.483 566.671 240.121 561.906 237.034 559.96L234.685 558.483L233.678 559.96C232.47 561.772 231.866 561.772 230.188 560.094C228.51 558.416 226.228 558.416 221.463 560.094Z" fill="black" fill-opacity="0.9"/>
<path d="M223.61 565.397C222.335 566.202 222.872 568.417 224.416 568.685C226.093 569.021 227.033 567.88 226.496 566.202C226.027 564.725 225.087 564.457 223.61 565.397Z" fill="black" fill-opacity="0.9"/>
<path d="M110.926 566.604C109.047 566.94 108.98 568.618 110.725 570.765C112 572.242 112.134 572.309 113.745 571.235C115.355 570.161 116.161 566.806 114.819 566.806C114.483 566.806 113.812 566.671 113.275 566.537C112.805 566.403 111.731 566.47 110.926 566.604Z" fill="black" fill-opacity="0.9"/>
<path d="M311.396 570.095C311.396 571.974 311.866 573.316 313.074 574.658L314.684 576.537L314.752 573.987C314.752 571.303 313.141 567.477 312.067 567.477C311.664 567.477 311.396 568.685 311.396 570.095Z" fill="black" fill-opacity="0.9"/>
<path d="M120.255 572.309C118.51 574.054 119.718 579.557 121.866 579.557C122.671 579.557 122.805 578.818 122.671 575.731C122.47 571.906 121.732 570.832 120.255 572.309Z" fill="black" fill-opacity="0.9"/>
<path d="M212.94 574.255C211.866 575.329 211.799 577.007 212.873 578.081C214.013 579.221 212.94 579.893 211.195 579.087C209.651 578.349 209.316 578.752 204.953 584.792C193.476 600.832 180.524 615.799 176.564 617.678C173.275 619.221 171.127 622.644 171.127 626.268C171.127 627.879 171.463 629.356 171.866 629.557C172.202 629.826 173.678 629.222 175.087 628.282C176.43 627.342 177.906 626.537 178.376 626.537C179.45 626.537 180.457 624.322 180.658 621.571C180.859 618.819 181.061 618.684 182.336 620.295C183.208 621.436 183.342 621.369 184.349 619.825C184.953 618.886 187.033 616.604 188.98 614.792C190.859 612.913 193.007 610.497 193.678 609.423C194.416 608.282 196.363 605.866 198.175 604.054C199.919 602.174 203.141 597.946 205.356 594.591C209.853 587.678 214.148 583.383 218.51 581.504L221.463 580.161L224.282 581.772C225.893 582.712 227.503 583.316 227.906 583.181C228.309 582.98 228.913 583.987 229.248 585.329C230.456 590.228 233.745 589.96 233.41 584.926C233.208 583.047 232.604 582.174 229.651 579.893C227.705 578.416 225.759 576.47 225.289 575.53C224.215 573.382 221.262 573.047 218.108 574.725C215.825 576 215.758 576 214.752 574.725C213.946 573.718 213.611 573.584 212.94 574.255Z" fill="black" fill-opacity="0.9"/>
<path d="M249.651 576.269C249.651 577.544 250.457 581.705 251.463 585.598C253.208 592.175 253.275 593.517 253.208 605.262C253.141 614.725 253.275 617.812 253.879 617.611C254.35 617.477 255.02 616.202 255.423 614.725C256.564 610.631 258.041 611.303 257.772 615.799C257.504 621.839 255.759 628.349 251.799 638.282C249.584 643.987 247.974 649.087 247.772 651.235C247.504 654.188 247.168 654.926 245.826 655.598C244.014 656.403 242.403 658.886 240.256 664.322C239.047 667.477 238.51 668.081 237.504 667.812C236.631 667.544 236.229 667.745 236.229 668.416C236.229 668.953 234.417 670.967 232.269 672.846C227.974 676.604 226.967 678.752 228.175 681.906L228.913 683.786L229.987 682.175C230.658 681.302 233.477 677.678 236.296 674.188C241.262 668.081 244.953 661.772 244.953 659.289C244.953 658.55 245.289 658.282 245.893 658.484C247.101 658.953 248.376 656.537 249.987 651.034C250.725 648.349 251.866 646.202 253.477 644.524C255.49 642.511 255.96 641.436 256.229 638.484C256.43 636.403 257.235 633.718 258.309 631.906C259.786 629.356 260.054 627.946 260.255 622.309C260.457 618.685 260.188 613.987 259.786 611.907C259.383 609.826 258.712 604.524 258.376 600.161C257.235 588.148 254.081 577.678 250.725 574.926C249.786 574.121 249.651 574.322 249.651 576.269Z" fill="black" fill-opacity="0.9"/>
<path d="M296.832 577.679C297.167 579.222 299.852 587.343 301.798 592.981C302.402 594.658 303.879 596.94 305.154 598.148C306.966 599.893 307.369 600.765 307.369 603.182C307.369 606.873 308.174 608.215 309.382 606.739C311.798 603.786 300.791 576.336 297.033 576.202C296.764 576.202 296.631 576.873 296.832 577.679Z" fill="black" fill-opacity="0.9"/>
<path d="M115.423 578.953C115.423 580.698 115.221 580.966 113.946 580.765C112.738 580.631 112.335 580.966 112.201 582.174C111.799 584.657 113.141 585.396 114.953 583.718C115.825 582.913 116.832 582.241 117.302 582.241C118.644 582.241 118.845 580.966 117.772 578.886C116.429 576.269 115.423 576.335 115.423 578.953Z" fill="black" fill-opacity="0.9"/>
<path d="M153.208 582.241C151.866 584.725 149.92 586.805 145.826 590.027C144.416 591.235 142.202 594.054 140.994 596.335C138.376 601.235 136.631 603.181 135.289 602.644C134.752 602.443 134.081 602.778 133.745 603.517C132.671 605.597 133.141 606.738 135.02 606.94C136.363 607.074 137.705 606.269 141.061 603.181C143.343 601.034 145.96 598.886 146.833 598.416C148.376 597.611 148.376 597.141 147.168 593.785C146.967 593.315 147.437 592.98 148.51 592.98C150.524 592.98 152.873 590.228 155.088 585.329C156.363 582.376 156.363 581.973 155.423 581.033C154.484 580.094 154.282 580.228 153.208 582.241Z" fill="black" fill-opacity="0.9"/>
<path d="M108.309 583.919C108.376 586.134 109.383 586.134 109.383 583.919C109.383 582.98 109.114 582.241 108.779 582.241C108.443 582.241 108.242 582.98 108.309 583.919Z" fill="black" fill-opacity="0.9"/>
<path d="M220.121 584.926C219.584 585.262 218.309 585.597 217.302 585.597C214.819 585.597 210.926 590.228 204.349 601.101C199.919 608.349 197.436 611.57 190.322 619.02C185.557 624.054 180.725 628.618 179.584 629.154C178.443 629.758 176.295 631.839 174.819 633.853C172.671 636.671 171.262 637.745 168.644 638.752C164.617 640.228 160.389 644.456 160.389 647.007C160.389 648.617 160.456 648.617 162.94 647.745C170.456 645.06 177.638 640.094 188.845 629.691L195.96 623.047L196.027 619.624C196.094 617.678 196.295 616.94 196.429 617.947C196.967 621.302 198.912 619.892 203.342 612.845C204.886 610.429 206.698 608.282 207.436 608.081C208.174 607.812 208.711 607.074 208.711 606.134C208.711 603.047 209.517 600.43 210.389 600.765C210.792 600.966 212.738 599.02 214.617 596.335C216.564 593.718 218.845 591.235 219.785 590.832C221.195 590.228 221.463 589.624 221.463 587.141C221.463 585.597 221.396 584.255 221.329 584.255C221.195 584.255 220.657 584.591 220.121 584.926Z" fill="black" fill-opacity="0.9"/>
<path d="M222.537 587.074C222.336 587.544 222.067 589.289 221.933 590.832C221.664 592.913 221.128 594.121 219.987 594.859C217.168 596.873 215.557 599.087 212.336 605.262C210.523 608.886 207.705 612.98 205.691 615.195C203.745 617.208 201.396 620.43 200.389 622.309C199.45 624.188 197.839 626.336 196.832 627.074C195.758 627.812 191.664 631.772 187.637 635.799C183.275 640.228 179.651 643.316 178.577 643.517C177.638 643.718 173.745 645.732 169.987 648.014C164.684 651.235 162.47 652.175 160.053 652.376C158.04 652.51 156.429 653.047 155.691 653.786C154.148 655.396 153.141 660.094 154.349 660.094C156.228 660.094 169.114 655.799 173.611 653.651C178.242 651.436 181.866 648.215 181.866 646.269C181.866 645.732 182.201 645.329 182.537 645.329C182.94 645.329 183.208 645.933 183.208 646.671C183.208 647.41 183.544 648.014 183.879 648.014C184.282 648.014 184.55 647.745 184.55 647.41C184.55 647.074 186.631 645.128 189.248 643.047C192 640.832 194.08 638.551 194.349 637.544C194.617 636.537 195.154 636 195.691 636.201C196.228 636.403 197.772 635.128 199.45 633.181C201.06 631.369 204.014 628.081 206.094 626C209.718 622.242 210.859 620.295 216.564 607.745C218.913 602.645 223.208 596.537 223.946 597.208C224.08 597.342 223.409 599.893 222.47 602.779C220.591 608.551 217.503 614.792 217.436 612.913C217.436 611.302 216.094 611.436 216.094 613.114C216.094 613.852 216.362 614.456 216.698 614.456C216.966 614.456 216.161 617.007 214.886 620.094C212.94 624.658 212.067 625.933 210.188 626.94C208.98 627.611 205.826 630.765 203.275 633.987C197.638 641.101 192.268 646.135 185.893 650.363C179.248 654.792 168.51 659.96 163.611 661.101C158.778 662.175 156.966 663.785 156.832 666.873C156.698 668.685 157.033 669.222 158.443 669.692C160.725 670.564 163.745 669.088 168.443 664.725C172.939 660.564 174.819 659.691 180.859 659.087C186.966 658.483 189.517 657.007 196.967 649.356C200.322 646 204.282 642.443 205.893 641.504C207.436 640.564 209.248 638.886 209.852 637.678C212.134 633.181 215.02 629.691 217.101 628.819C219.114 628.014 219.651 627.141 222 621.034C225.154 613.047 226.832 605.53 226.832 599.691C226.832 596.067 226.698 595.665 225.423 595.665C224.282 595.665 224.08 595.329 224.282 593.182C224.55 589.826 225.691 589.691 227.772 592.779C229.45 595.195 229.517 595.732 229.517 604.792C229.517 613.316 229.383 614.389 228.175 615.463C226.765 616.739 225.087 621.235 224.416 625.732C224.08 627.678 223.678 628.483 223.141 628.282C222.671 628.148 220.926 629.691 219.181 631.772C212.537 640.094 208.913 643.987 205.691 646.403C203.879 647.812 201.195 650.228 199.718 651.839C196.363 655.598 191.195 659.356 188.309 660.161C186.631 660.631 185.825 661.369 185.289 662.913C183.208 668.886 178.376 672.108 170.725 672.644C165.892 673.047 165.758 673.114 165.758 674.792C165.758 676.94 166.899 678.215 168.779 678.215C171.53 678.215 181.127 672.846 187.369 667.812C192.268 663.853 194.08 662.779 195.758 662.779C197.369 662.779 198.711 662.108 200.591 660.43C202 659.154 203.678 658.081 204.282 658.081C204.886 658.081 205.355 657.678 205.355 657.141C205.355 655.463 208.107 652.711 211.463 651.034C213.275 650.094 215.154 648.685 215.624 647.812C216.161 647.007 217.57 644.658 218.778 642.51C219.987 640.43 221.732 638.416 222.604 638.013C223.611 637.544 224.148 636.738 224.148 635.53C224.148 634.457 225.154 632.645 226.765 630.833C231.799 625.128 234.886 613.718 234.886 601.101V594.591L231.731 591.503C229.919 589.759 227.369 587.879 226.027 587.275C223.007 586.067 222.805 586.067 222.537 587.074Z" fill="black" fill-opacity="0.9"/>
<path d="M119.92 587.342C119.651 587.611 119.45 588.416 119.45 589.087C119.45 589.96 118.98 590.295 117.772 590.295C116.497 590.295 116.027 590.765 115.691 592.107C115.087 595.127 114.819 595.664 114.148 595.664C113.812 595.664 113.275 595.06 113.074 594.322C112.873 593.584 112.201 592.98 111.664 592.98C110.524 592.98 110.322 598.684 111.396 599.355C111.799 599.557 112.067 599.154 112.067 598.416C112.067 597.275 112.336 597.208 113.946 597.678C117.235 598.617 121.195 596.134 122.671 592.241C123.208 590.832 123.074 590.161 121.933 588.684C121.128 587.677 120.188 587.073 119.92 587.342Z" fill="black" fill-opacity="0.9"/>
<path d="M282.537 590.43C282.604 596.134 283.947 603.584 286.899 614.457C288.51 620.564 290.658 630.363 291.598 636.202C293.477 647.41 295.154 653.114 297.235 654.994C299.785 657.276 299.584 653.92 296.698 645.531C295.96 643.249 295.289 640.363 295.289 639.155C295.289 637.947 294.685 635.329 293.946 633.383C291.598 627.209 290.054 620.698 287.235 605.061C285.759 596.738 284.349 589.423 284.148 588.752C283.476 586.604 282.537 587.611 282.537 590.43Z" fill="black" fill-opacity="0.9"/>
<path d="M154.081 593.383C153.409 594.322 152.335 597.209 151.664 599.893C150.859 603.249 150.322 604.389 149.986 603.517C149.315 601.839 147.168 602.108 146.698 603.853C146.496 604.725 144.953 606.269 143.275 607.276C140.255 609.222 139.248 610.967 139.718 613.853C139.852 615.061 140.255 615.396 141.262 615.262C143.812 614.859 147.973 611.436 149.45 608.484C150.255 606.873 151.53 604.86 152.268 604.121C153.879 602.376 158.376 592.846 157.973 592.175C157.235 591.034 155.154 591.705 154.081 593.383Z" fill="black" fill-opacity="0.9"/>
<path d="M185.222 594.323C184.752 595.195 182.068 598.349 179.181 601.437C176.296 604.524 173.611 608.014 173.141 609.356C172.671 610.9 171.933 611.772 170.994 611.907C168.846 612.242 166.631 615.531 167.503 617.007C168.578 618.618 170.658 618.417 171.463 616.605C171.799 615.799 172.671 615.128 173.342 615.128C174.081 615.128 175.021 614.122 175.759 612.443C176.43 610.967 177.168 609.96 177.437 610.229C177.973 610.833 185.692 603.316 186.967 600.9C188.108 598.685 188.108 596.47 186.967 594.39L186.094 592.779L185.222 594.323Z" fill="black" fill-opacity="0.9"/>
<path d="M161.463 596.269C159.987 599.02 160.121 599.691 162.067 599.691C163.879 599.691 164.282 599.154 164.551 596.336C164.819 593.853 162.739 593.786 161.463 596.269Z" fill="black" fill-opacity="0.9"/>
<path d="M121.597 601.369C121.127 602.376 120.523 604.591 120.322 606.336C119.919 609.155 119.986 609.356 120.993 608.484C122.536 607.276 123.744 602.51 123.006 600.833C122.469 599.625 122.335 599.691 121.597 601.369Z" fill="black" fill-opacity="0.9"/>
<path d="M157.973 600.229C156.899 600.9 155.691 603.45 155.691 604.994C155.691 607.812 159.114 605.866 159.92 602.578C160.255 600.967 159.114 599.49 157.973 600.229Z" fill="black" fill-opacity="0.9"/>
<path d="M163.074 605.396C162.201 607.745 162.201 612.241 163.141 612.779C164.282 613.517 164.685 612.644 164.953 608.483C165.289 604.188 164.215 602.443 163.074 605.396Z" fill="black" fill-opacity="0.9"/>
<path d="M115.825 606.672C115.355 608.551 116.362 611.772 117.436 611.772C118.443 611.772 118.04 605.598 117.033 605.262C116.563 605.128 116.094 605.732 115.825 606.672Z" fill="black" fill-opacity="0.9"/>
<path d="M127.638 608.081C125.423 610.497 124.55 612.846 124.953 614.792C125.087 615.732 125.825 615.396 128.711 613.047C131.664 610.564 132.201 609.759 132.067 608.081C131.799 605.262 130.121 605.262 127.638 608.081Z" fill="black" fill-opacity="0.9"/>
<path d="M158.778 608.416C156.496 609.154 154.416 610.899 153.678 612.845C153.275 613.785 152.268 614.456 150.724 614.725C147.637 615.329 143.275 618.282 135.355 625.262C129.181 630.631 128.979 630.899 130.724 631.235C135.758 632.309 142.469 629.087 148.778 622.711C151.463 620.027 154.013 617.812 154.55 617.812C155.02 617.812 156.429 617.074 157.704 616.134C158.979 615.194 160.322 614.456 160.657 614.456C161.06 614.456 161.396 612.98 161.396 611.101C161.396 609.221 161.261 607.745 161.06 607.812C160.858 607.812 159.852 608.148 158.778 608.416Z" fill="black" fill-opacity="0.9"/>
<path d="M226.833 612.107C226.833 613.382 227.168 614.456 227.503 614.456C227.906 614.456 228.175 613.382 228.175 612.107C228.175 610.832 227.906 609.758 227.503 609.758C227.168 609.758 226.833 610.832 226.833 612.107Z" fill="black" fill-opacity="0.9"/>
<path d="M302.671 612.108C302 612.913 302.134 614.255 303.678 619.624C304.617 623.248 306.027 627.275 306.765 628.55L308.108 630.899L307.839 626.403C307.571 622.98 307.034 621.101 305.356 618.148C303.611 615.06 303.342 614.255 304.081 613.383C304.617 612.712 304.685 612.175 304.215 611.705C303.745 611.235 303.275 611.369 302.671 612.108Z" fill="black" fill-opacity="0.9"/>
<path d="M131.463 616.671C125.826 621.973 123.343 625.195 124.953 625.195C126.564 625.195 135.826 620.497 137.705 618.685C139.114 617.343 139.45 616.537 139.114 615.195C138.712 613.316 137.705 611.772 136.967 611.772C136.766 611.839 134.282 613.987 131.463 616.671Z" fill="black" fill-opacity="0.9"/>
<path d="M120.121 617.812C120.121 621.839 120.926 622.107 122.134 618.55C123.006 615.798 122.671 614.456 121.06 614.456C120.389 614.456 120.121 615.329 120.121 617.812Z" fill="black" fill-opacity="0.9"/>
<path d="M164.215 618.819C162.872 620.027 161.866 620.363 160.725 620.094C159.517 619.826 159.047 620.027 158.712 621.101C158.376 622.175 157.705 622.51 156.161 622.51C153.544 622.51 152.067 623.45 145.691 629.356C142.805 632.04 139.852 634.188 138.779 634.389C136.363 634.859 135.893 635.866 136.698 639.02L137.235 641.436L140.591 638.483C145.423 634.188 160.725 623.181 161.933 623.181C162.067 623.181 162 624.255 161.866 625.53C161.463 628.819 162.537 628.483 164.684 624.523C165.691 622.711 166.967 620.899 167.571 620.631C168.376 620.161 168.443 619.759 167.839 618.551C166.832 616.805 166.564 616.805 164.215 618.819Z" fill="black" fill-opacity="0.9"/>
<path d="M114.953 619.49C114.752 620.094 114.752 620.698 114.953 620.899C115.557 621.503 116.765 620.497 116.765 619.423C116.765 618.148 115.49 618.215 114.953 619.49Z" fill="black" fill-opacity="0.9"/>
<path d="M250.993 619.557C250.993 620.228 249.316 625.597 247.302 631.57C245.289 637.61 243.611 642.845 243.611 643.315C243.611 643.785 242.738 645.261 241.732 646.604C240.658 647.946 238.309 651.57 236.497 654.658C234.685 657.745 231.127 662.376 228.644 664.926C224.483 669.154 221.53 673.785 221.463 676.067C221.463 677.141 228.175 672.04 232.537 667.745C235.96 664.322 238.577 659.691 239.315 655.799C239.584 654.12 240.658 652.308 242.201 650.765C243.812 649.154 245.825 645.53 248.241 640.027C252.738 629.758 253.678 626.604 253.678 622.04C253.678 618.953 253.544 618.483 252.336 618.483C251.53 618.483 250.993 618.953 250.993 619.557Z" fill="black" fill-opacity="0.9"/>
<path d="M110.188 621.906C110.322 623.181 110.725 624.121 111.06 623.987C112.067 623.785 111.866 620.295 110.859 619.96C110.188 619.758 109.986 620.295 110.188 621.906Z" fill="black" fill-opacity="0.9"/>
<path d="M277.571 629.96C276.9 633.382 277.101 637.879 278.175 644.322C278.779 647.611 279.45 653.45 279.785 657.208C280.121 660.966 280.591 664.322 280.859 664.725C282.739 667.879 283.141 657.41 281.463 645.664C280.927 641.571 280.323 636.269 280.054 633.785C279.584 628.618 278.242 626.537 277.571 629.96Z" fill="black" fill-opacity="0.9"/>
<path d="M121.53 631.235C120.591 634.322 120.591 634.591 121.463 634.591C121.866 634.591 122.134 634.121 122.134 633.517C122.134 632.645 122.604 632.51 124.819 632.913C127.235 633.316 127.503 633.249 127.503 631.973C127.503 631.168 127.101 630.564 126.698 630.564C126.228 630.564 125.02 630.161 124.081 629.624C122.336 628.752 122.268 628.752 121.53 631.235Z" fill="black" fill-opacity="0.9"/>
<path d="M157.57 629.692C156.966 630.363 156.228 631.571 155.825 632.309C155.423 633.115 154.148 633.92 152.94 634.188C148.98 634.994 144.953 637.88 143.611 640.832C142.939 642.376 142.403 643.719 142.537 643.786C142.738 644.054 154.819 637.611 156.161 636.47C157.772 635.128 161.06 629.759 160.657 629.155C160.053 628.215 158.644 628.484 157.57 629.692Z" fill="black" fill-opacity="0.9"/>
<path d="M164.953 630.228C163.477 631.705 161.732 635.798 161.732 637.879C161.732 638.953 167.974 634.054 168.98 632.107C170.859 628.617 167.906 627.208 164.953 630.228Z" fill="black" fill-opacity="0.9"/>
<path d="M115.759 630.497C112.94 631.101 112.604 633.987 115.088 635.665C116.094 636.336 117.034 636.537 117.369 636.202C118.108 635.396 118.913 629.893 118.309 629.96C117.973 630.028 116.9 630.229 115.759 630.497Z" fill="black" fill-opacity="0.9"/>
<path d="M300.457 634.993C299.92 635.53 300.591 638.685 301.329 639.49C302 640.228 302.94 636.201 302.336 635.262C301.866 634.523 301.061 634.389 300.457 634.993Z" fill="black" fill-opacity="0.9"/>
<path d="M131.53 636.604C130.993 636.94 129.987 637.074 129.383 636.873C128.443 636.604 128.175 636.94 128.175 638.483C128.175 641.033 127.503 641.571 126.362 639.96C125.154 638.215 124.886 638.282 122.336 640.698C118.913 643.852 119.383 644.658 124.416 644.658C131.732 644.658 135.49 642.376 135.02 638.282C134.752 635.866 133.611 635.262 131.53 636.604Z" fill="black" fill-opacity="0.9"/>
<path d="M158.51 638.081C157.369 639.222 157.504 641.303 158.712 641.303C159.852 641.303 161.329 638.887 160.725 637.947C160.188 637.075 159.517 637.075 158.51 638.081Z" fill="black" fill-opacity="0.9"/>
<path d="M154.214 642.779C153.006 643.987 152.335 645.463 152.335 646.671C152.335 648.886 152.537 649.02 154.349 648.014C155.825 647.208 157.57 642.242 156.631 641.369C156.295 641.034 155.221 641.638 154.214 642.779Z" fill="black" fill-opacity="0.9"/>
<path d="M146.631 647.946C146.027 649.154 145.893 650.094 146.296 650.363C147.034 650.832 149.651 649.557 149.651 648.684C149.651 648.416 149.853 647.678 150.054 647.074C150.859 644.993 147.772 645.866 146.631 647.946Z" fill="black" fill-opacity="0.9"/>
<path d="M157.302 647.678C157.1 648.617 157.033 649.557 157.234 649.759C157.906 650.429 159.046 649.288 159.046 648.013C159.046 646 157.771 645.799 157.302 647.678Z" fill="black" fill-opacity="0.9"/>
<path d="M140.322 647.275C138.778 647.678 137.436 649.825 138.04 650.832C138.376 651.503 140.993 651.503 142.067 650.832C142.47 650.564 143.074 649.49 143.275 648.483C143.812 646.537 143.409 646.403 140.322 647.275Z" fill="black" fill-opacity="0.9"/>
<path d="M135.96 648.349C135.691 649.155 135.288 649.289 134.282 648.685C133.342 648.215 132.805 648.215 132.537 648.685C131.664 650.094 132.805 651.37 134.886 651.37C136.698 651.37 136.899 651.168 136.899 649.356C136.899 647.141 136.564 646.806 135.96 648.349Z" fill="black" fill-opacity="0.9"/>
<path d="M126.833 649.96C125.759 652.04 126.027 654.054 127.369 654.054C129.114 654.054 130.188 652.711 130.188 650.564C130.188 649.155 129.853 648.685 128.846 648.685C128.175 648.685 127.235 649.289 126.833 649.96Z" fill="black" fill-opacity="0.9"/>
<path d="M122.134 651.369C122.134 652.242 122.469 652.577 123.141 652.309C123.677 652.04 124.147 651.503 124.147 650.967C124.147 650.43 123.677 650.027 123.141 650.027C122.604 650.027 122.134 650.631 122.134 651.369Z" fill="black" fill-opacity="0.9"/>
<path d="M274.215 659.558C273.879 663.584 273.141 665.867 270.054 672.377C267.973 676.739 266.43 680.43 266.631 680.632C267.235 681.236 269.517 679.692 270.725 677.88C271.396 676.873 271.933 674.726 272 673.115C272.067 671.504 272.335 670.162 272.671 670.162C272.94 670.162 273.745 669.155 274.483 667.947C275.49 666.336 275.825 664.591 275.825 661.101C275.825 654.457 274.819 653.517 274.215 659.558Z" fill="black" fill-opacity="0.9"/>
<path d="M139.718 657.141C139.852 658.148 140.322 659.088 140.792 659.289C141.463 659.49 141.664 659.021 141.463 657.678C141.329 656.672 140.859 655.732 140.389 655.53C139.718 655.329 139.517 655.799 139.718 657.141Z" fill="black" fill-opacity="0.9"/>
<path d="M145.221 656.335C144.684 657.812 145.154 660.295 146.161 660.631C146.698 660.765 146.966 660.027 146.966 658.147C146.966 655.463 145.959 654.456 145.221 656.335Z" fill="black" fill-opacity="0.9"/>
<path d="M150.053 656.47C149.449 658.081 149.583 660.765 150.322 660.765C151.194 660.765 152.335 658.484 152.335 656.806C152.335 655.128 150.657 654.926 150.053 656.47Z" fill="black" fill-opacity="0.9"/>
<path d="M131.262 657.812C130.591 659.624 130.792 660.765 131.866 660.765C132.47 660.765 132.872 660.161 132.872 659.154C132.872 657.141 131.866 656.335 131.262 657.812Z" fill="black" fill-opacity="0.9"/>
<path d="M125.893 659.154C125.624 659.758 125.624 660.43 125.826 660.631C126.228 661.034 128.175 659.423 128.175 658.685C128.175 657.611 126.295 658.014 125.893 659.154Z" fill="black" fill-opacity="0.9"/>
<path d="M258.376 661.973C258.376 662.443 256.765 664.59 254.752 666.738C251.53 670.228 249.517 674.322 250.523 675.329C251.194 675.933 254.416 673.315 256.295 670.563C258.577 667.208 259.987 662.778 259.047 661.839C258.577 661.369 258.376 661.436 258.376 661.973Z" fill="black" fill-opacity="0.9"/>
<path d="M175.423 663.383C173.544 664.524 170.457 668.081 170.457 669.088C170.457 669.624 178.577 668.752 179.92 668.081C180.524 667.745 181.396 666.604 181.732 665.463C182.336 663.785 182.269 663.383 181.195 662.779C179.316 661.772 177.772 661.973 175.423 663.383Z" fill="black" fill-opacity="0.9"/>
<path d="M152.47 665.194C150.724 666.403 150.523 669.356 152.067 669.96C153.409 670.497 155.02 668.55 155.02 666.403C155.02 664.322 154.214 663.986 152.47 665.194Z" fill="black" fill-opacity="0.9"/>
<path d="M198.846 665.732C196.765 666.738 196.564 671.504 198.577 671.504C200.255 671.504 202 669.02 202 666.672C202 664.658 201.329 664.457 198.846 665.732Z" fill="black" fill-opacity="0.9"/>
<path d="M141.396 667.074C140.725 668.752 140.792 671.504 141.53 671.504C142.402 671.504 142.939 668.886 142.335 667.275C141.866 666.067 141.798 666 141.396 667.074Z" fill="black" fill-opacity="0.9"/>
<path d="M263.879 666.94C262.738 668.081 262.873 671.504 264.014 671.504C265.088 671.504 265.759 670.094 265.759 667.745C265.759 666 265.088 665.732 263.879 666.94Z" fill="black" fill-opacity="0.9"/>
<path d="M145.624 668.752C145.624 669.49 145.96 670.295 146.295 670.497C146.698 670.765 146.966 670.161 146.966 669.221C146.966 668.282 146.698 667.477 146.295 667.477C145.96 667.477 145.624 668.081 145.624 668.752Z" fill="black" fill-opacity="0.9"/>
<path d="M191.597 670.161C190.524 670.899 188.779 672.577 187.705 673.986C185.96 676.335 185.893 676.604 186.966 677.342C188.51 678.483 188.51 678.483 192.067 676.872C194.752 675.731 195.155 675.194 195.557 673.047C195.759 671.637 195.96 670.094 195.96 669.624C195.96 668.416 193.879 668.617 191.597 670.161Z" fill="black" fill-opacity="0.9"/>
<path d="M162.067 673.718C161.396 675.396 162 677.879 163.074 677.879C164.483 677.879 164.685 675.798 163.477 674.053C162.604 672.845 162.403 672.778 162.067 673.718Z" fill="black" fill-opacity="0.9"/>
<path d="M126.698 675.799C125.221 679.087 128.979 680.832 135.02 679.691C137.302 679.221 138.644 679.288 139.852 679.892C141.731 680.899 142.268 680.631 142.268 678.55C142.268 675.597 140.523 675.06 136.228 676.671C132.268 678.08 132.268 678.08 131.06 676.738C128.778 674.188 127.57 673.987 126.698 675.799Z" fill="black" fill-opacity="0.9"/>
<path d="M155.825 675.195C153.007 676.403 153.342 677.812 156.497 678.081C158.376 678.215 159.181 677.947 159.987 676.739C160.591 675.933 161.06 674.993 161.06 674.725C161.06 673.852 158.242 674.121 155.825 675.195Z" fill="black" fill-opacity="0.9"/>
<path d="M150.053 676.538C149.852 677.074 149.181 677.544 148.577 677.544C147.1 677.544 147.771 679.155 149.449 679.423C151.06 679.692 152.603 677.947 152.067 676.538C151.597 675.262 150.59 675.262 150.053 676.538Z" fill="black" fill-opacity="0.9"/>
<path d="M204.684 676.872C204.684 677.611 205.02 678.215 205.355 678.215C205.758 678.215 206.027 677.611 206.027 676.872C206.027 676.134 205.758 675.53 205.355 675.53C205.02 675.53 204.684 676.134 204.684 676.872Z" fill="black" fill-opacity="0.9"/>
<path d="M217.235 677.41C216.027 678.685 215.423 679.96 215.558 680.967L215.759 682.443L217.638 680.833C219.115 679.625 219.517 678.685 219.316 677.275L219.115 675.396L217.235 677.41Z" fill="black" fill-opacity="0.9"/>
<path d="M179.315 678.215C178.107 678.954 176.764 680.296 176.362 681.235C175.691 682.712 175.556 682.779 174.818 681.772C173.342 679.759 171.798 681.168 171.798 684.591C171.798 688.148 173.342 688.819 174.684 685.732C175.221 684.457 175.892 683.987 176.697 684.121C179.114 684.591 181.261 683.517 183.207 680.766C184.348 679.289 185.221 677.746 185.221 677.41C185.221 676.403 181.53 676.873 179.315 678.215Z" fill="black" fill-opacity="0.9"/>
<path d="M144.281 678.685C144.281 679.49 144.617 680.363 144.952 680.565C145.825 681.101 145.825 679.558 144.952 678.215C144.415 677.41 144.281 677.477 144.281 678.685Z" fill="black" fill-opacity="0.9"/>
<path d="M195.624 680.9C195.154 682.309 196.362 685.195 197.235 684.658C197.906 684.255 197.302 679.558 196.631 679.558C196.295 679.558 195.892 680.162 195.624 680.9Z" fill="black" fill-opacity="0.9"/>
<path d="M276.497 681.034C276.497 681.503 276.832 682.376 277.168 682.913C277.705 683.718 277.839 683.651 277.839 682.443C277.839 681.638 277.57 680.765 277.168 680.564C276.832 680.363 276.497 680.564 276.497 681.034Z" fill="black" fill-opacity="0.9"/>
<path d="M263.209 682.443C261.262 684.523 261.329 685.463 263.41 685.061C264.349 684.926 265.088 684.39 265.088 683.919C265.088 683.383 265.289 682.577 265.49 681.973C266.094 680.43 264.886 680.698 263.209 682.443Z" fill="black" fill-opacity="0.9"/>
<path d="M191.531 682.578C191.262 683.249 190.188 683.584 188.175 683.584C184.282 683.584 180.121 685.329 178.51 687.611C175.49 691.839 177.369 692.645 183.88 690.027C186.027 689.154 188.779 688.215 189.852 687.946C191.396 687.611 191.933 687.141 191.933 686.067C191.933 685.262 192.537 684.188 193.275 683.718C194.081 683.249 194.483 682.578 194.282 682.242C193.678 681.235 191.933 681.437 191.531 682.578Z" fill="black" fill-opacity="0.9"/>
<path d="M222.201 683.316C220.657 685.329 220.322 687.612 221.664 687.612C223.342 687.544 226.093 684.457 225.691 682.981C225.221 681.101 223.879 681.236 222.201 683.316Z" fill="black" fill-opacity="0.9"/>
<path d="M165.624 682.98C163.879 683.987 164.148 685.127 166.496 686.47C169.047 687.879 169.785 687.477 169.785 684.523C169.785 682.577 169.584 682.242 168.308 682.242C167.436 682.242 166.228 682.577 165.624 682.98Z" fill="black" fill-opacity="0.9"/>
<path d="M210.524 682.711C209.45 683.718 210.121 684.994 211.53 684.792C213.477 684.523 214.081 682.242 212.201 682.242C211.53 682.242 210.725 682.443 210.524 682.711Z" fill="black" fill-opacity="0.9"/>
<path d="M206.027 687.41C206.027 689.087 207.034 689.96 207.705 688.886C207.973 688.483 207.705 687.678 207.101 687.074C206.094 686.067 206.027 686.067 206.027 687.41Z" fill="black" fill-opacity="0.9"/>
<path d="M230.389 687.074C229.987 687.544 229.517 688.484 229.315 689.088C228.98 690.027 229.248 690.296 230.456 690.296C232 690.296 232.873 689.155 232.873 687.209C232.873 686.067 231.262 686 230.389 687.074Z" fill="black" fill-opacity="0.9"/>
<path d="M147.302 688.282C147.101 688.618 147.235 689.557 147.638 690.363C148.376 691.705 148.443 691.705 149.316 690.497C149.853 689.826 150.323 688.886 150.323 688.417C150.323 687.477 147.906 687.343 147.302 688.282Z" fill="black" fill-opacity="0.9"/>
<path d="M215.088 688.953C214.416 689.692 213.477 690.296 212.94 690.296C211.933 690.296 211.799 692.175 212.672 693.584C213.141 694.323 213.812 694.121 216.027 692.376C218.913 690.094 219.719 687.611 217.571 687.611C216.832 687.611 215.759 688.215 215.088 688.953Z" fill="black" fill-opacity="0.9"/>
<path d="M201.195 690.631C199.651 692.645 199.651 694.524 201.127 694.188C202.403 693.92 203.745 690.43 202.939 689.625C202.604 689.289 201.799 689.758 201.195 690.631Z" fill="black" fill-opacity="0.9"/>
<path d="M191.06 692.779C190.255 693.517 190.523 694.323 191.597 694.323C192.134 694.323 192.604 693.853 192.604 693.316C192.604 692.242 191.798 691.973 191.06 692.779Z" fill="black" fill-opacity="0.9"/>
</svg>
