<svg width="428" height="926" viewBox="0 0 428 926" fill="none" xmlns="http://www.w3.org/2000/svg">
<path d="M398.675 625.129C398.231 625.302 398.281 626.041 398.848 628.037C399.119 628.974 399.34 629.836 399.34 629.935C399.34 630.255 398.256 630.157 396.087 629.639C392.218 628.752 390.444 628.703 390.124 629.516C390.025 629.787 390.419 630.107 391.528 630.65C393.672 631.734 394.461 632.522 394.288 633.385C394.116 634.1 394.461 634.346 394.831 633.779C394.954 633.557 395.052 633.705 395.176 634.198C395.274 634.617 395.422 635.11 395.496 635.332C395.94 636.367 387.536 643.39 383.1 645.756C379.773 647.53 379.379 647.9 379.231 649.625C379.133 650.685 379.33 651.745 380.217 655.022C381.326 658.99 381.326 659.064 380.882 659.581C380.611 659.852 380.365 660.296 380.315 660.567C380.242 660.863 380.069 661.011 379.847 660.961C379.65 660.887 378.738 660.813 377.826 660.789C376.915 660.764 376.126 660.715 376.101 660.666C376.052 660.616 375.288 659.778 374.401 658.842L372.75 657.117L373.489 654.406C374.573 650.537 374.573 648.294 373.514 643.809C373.07 641.912 372.553 639.891 372.331 639.324C371.986 638.412 371.863 638.289 371.049 638.215C370.285 638.141 370.138 638.043 369.965 637.377C369.842 636.934 369.3 636.219 368.585 635.628C367.944 635.085 367.205 634.223 366.934 633.73C366.392 632.744 365.948 632.547 366.145 633.385C366.293 633.927 366.293 633.927 365.948 633.484C365.751 633.212 365.578 632.843 365.578 632.67C365.578 632.498 365.431 632.35 365.233 632.35C364.938 632.35 364.913 632.522 365.11 633.139C365.381 634.149 365.209 634.321 364.888 633.36C364.617 632.572 364.42 632.473 363.779 632.744C363.434 632.867 363.434 632.991 363.755 633.878C364.198 635.135 365.086 636.194 366.687 637.328L367.969 638.24L368.659 641.887C369.053 643.883 369.374 645.978 369.398 646.52C369.448 647.062 369.546 647.949 369.645 648.492C369.793 649.305 369.669 649.822 368.93 651.547C367.92 653.963 367.575 654.381 365.997 655.195C364.371 656.008 364.051 655.885 363.755 654.406L363.484 653.174L362.252 653.1C361.562 653.051 360.921 652.927 360.798 652.78C360.65 652.656 360.034 652.558 359.393 652.558C358.678 652.558 358.136 652.41 357.939 652.188C357.175 651.276 355.696 651.892 353.725 653.938C351.827 655.959 351.679 656.254 351.877 658.201C352.024 659.483 352.197 659.976 352.714 660.542C353.478 661.356 355.598 662.366 357.076 662.637C357.742 662.76 358.037 662.933 357.988 663.179C357.939 663.376 358.161 663.993 358.456 664.559L359.023 665.619L357.717 666.95L356.386 668.281L356.559 669.537L356.731 670.77L355.524 671.386C354.858 671.731 353.651 672.396 352.862 672.864C352.074 673.357 351.162 673.751 350.866 673.751C350.299 673.751 348.697 672.199 347.638 670.622C347.293 670.104 346.775 669.414 346.455 669.069C346.135 668.724 345.592 667.886 345.272 667.221L344.681 665.989L345.395 665.175C346.208 664.264 346.258 663.771 345.765 662.539C345.297 661.43 344.927 661.454 344.828 662.588C344.779 663.327 344.631 663.549 344.237 663.598C343.818 663.648 343.695 663.45 343.374 662.144C342.906 660.074 342.413 659.926 342.389 661.849C342.364 663.524 341.97 662.982 341.945 661.232C341.92 660.567 341.797 660.197 341.6 660.197C341.255 660.197 340.491 661.356 340.195 662.366C339.998 663.031 339.998 663.031 339.974 662.218C339.949 661.306 339.604 661.183 339.185 661.947C338.741 662.81 339.086 663.993 340.319 665.668C341.009 666.629 341.403 667.393 341.329 667.664C341.28 667.911 341.428 668.626 341.699 669.242C342.265 670.597 342.29 670.991 341.773 671.558C341.378 671.977 341.477 672.15 343.029 674.047C343.941 675.181 345.026 676.684 345.42 677.399C346.184 678.729 347.958 680.405 348.624 680.405C349.314 680.405 355.573 678.163 356.707 677.522C357.323 677.152 358.629 676.339 359.639 675.674C361.463 674.466 361.488 674.466 363.213 674.565C367.23 674.786 374.302 675.748 375.288 676.191C375.855 676.438 377.038 677.177 377.925 677.818C378.788 678.458 379.97 679.198 380.537 679.444C381.474 679.888 381.671 679.888 383.125 679.543C383.963 679.346 385.293 679.173 386.057 679.173H387.437L388.029 677.892C388.522 676.857 388.842 676.512 389.853 675.994C390.543 675.624 391.775 674.86 392.637 674.269C393.894 673.382 394.313 672.889 394.954 671.583C395.669 670.129 395.742 669.784 395.718 667.862C395.718 666.703 395.521 664.51 395.299 663.007C395.077 661.528 394.781 658.867 394.658 657.092C394.535 655.343 394.362 653.568 394.288 653.174C394.165 652.582 394.264 652.287 394.757 651.745C395.57 650.857 395.94 650.143 396.63 647.999C398.503 642.331 399.883 640.63 402.988 640.137C404.22 639.94 405.526 639.324 406.684 638.338C407.448 637.673 407.473 637.599 407.202 636.786C407.029 636.318 406.462 635.307 405.945 634.543C405.427 633.779 404.935 632.72 404.836 632.202C404.614 630.625 403.283 628.382 401.534 626.608C400.006 625.08 399.464 624.784 398.675 625.129Z" fill="black" fill-opacity="0.9"/>
<path d="M36.2187 382.296C36.2434 382.468 36.3912 383.257 36.5637 384.021C36.9827 385.746 36.6377 385.918 35.9723 384.341C35.5287 383.306 35.159 382.986 34.8879 383.429C34.8387 383.528 35.1097 384.366 35.5287 385.302C35.923 386.214 36.3173 387.372 36.3912 387.865C36.5391 388.654 36.4898 388.728 36.0708 388.53C35.2083 388.185 34.4936 388.111 34.4936 388.358C34.4936 388.728 36.1941 390.009 37.2291 390.453C37.722 390.65 38.1902 390.946 38.2888 391.069C38.6831 391.709 39.176 395.702 39.176 398.363C39.176 401.247 39.1513 401.321 38.3381 402.799C37.4509 404.376 36.8594 405.017 34.8633 406.496L33.6311 407.432L33.4832 406.225C33.3847 405.584 33.434 404.647 33.5572 404.155C33.9515 402.799 33.36 401.912 31.4378 400.976C29.3924 399.965 27.347 399.743 26.1148 400.433C23.7736 401.715 23.33 405.658 25.1783 408.862C25.7698 409.872 25.819 411.548 25.2769 412.386C25.0551 412.706 24.4636 413.15 23.9708 413.371C23.33 413.667 22.7139 414.283 22.0239 415.343C20.0524 418.275 19.732 419.409 20.1756 421.627C20.3235 422.391 20.5453 424.929 20.6438 427.27C20.8903 431.977 21.0628 432.52 22.5661 433.16C23.675 433.629 29.3185 433.678 30.0331 433.234C30.6492 432.84 31.7828 433.284 32.4729 434.245C32.7686 434.614 33.3354 435.009 33.7297 435.107C34.1486 435.181 34.9126 435.477 35.4301 435.723C39.102 437.498 44.6469 436.561 47.8013 433.604C49.7974 431.756 50.4135 430.178 51.1282 425.25C51.7689 420.715 52.4097 417.24 52.6068 417.043C52.6807 416.969 54.3072 417.068 56.2294 417.24C61.1828 417.684 72.0754 417.265 72.5436 416.624C72.8393 416.23 72.9626 416.255 74.3426 417.019C75.6241 417.709 75.8952 417.783 76.2402 417.511C76.7331 417.117 78.1131 412.854 78.1131 411.745C78.1131 411.301 78.2363 410.808 78.3596 410.685C78.8278 410.217 79.8875 404.155 79.7642 402.651C79.6164 400.902 79.4932 400.729 78.5074 400.729C77.3984 400.729 77.0041 401.123 76.5113 402.701C75.7227 405.214 73.3569 406.939 68.6992 408.467C66.7031 409.133 65.8898 409.28 64.978 409.182C64.3372 409.108 63.7704 408.96 63.7212 408.886C63.6472 408.788 64.9287 408.245 66.5552 407.629C68.1817 407.038 69.611 406.422 69.7589 406.249C69.9067 406.077 69.9807 405.461 69.9314 404.869L69.8575 403.81L71.3361 403.267C72.1493 402.947 73.209 402.503 73.6772 402.257C74.5151 401.838 74.5398 401.789 74.5151 400.483C74.4905 399.177 73.9237 397.599 73.3322 397.23C73.1844 397.131 73.0611 396.441 73.0365 395.702C72.9626 393.213 71.1389 390.551 68.6253 389.245L67.2452 388.53L66.6291 389.245C66.1362 389.787 66.0377 390.108 66.1609 390.6C66.2595 390.946 66.3827 392.35 66.4566 393.73C66.5798 396.392 66.1855 398.018 65.4462 398.018C65.2244 398.018 64.9041 398.339 64.7069 398.733C64.3126 399.497 62.9572 400.729 62.5383 400.729C62.3904 400.729 61.0843 401.296 59.6549 401.986C56.4512 403.538 55.638 403.834 52.9518 404.426C51.7689 404.672 50.1178 405.239 49.2799 405.658C47.8259 406.397 47.7273 406.496 46.8895 408.319C46.3966 409.354 45.5341 410.759 44.9672 411.449C44.4004 412.115 43.0204 413.987 41.9114 415.565C40.8024 417.166 39.7921 418.522 39.6688 418.596C39.447 418.744 38.9295 417.955 37.5988 415.441C36.5144 413.371 36.5637 413.174 39.1267 410.463C41.0735 408.393 43.0943 405.116 43.9815 402.553C44.4251 401.296 44.4251 401.247 43.8583 399.103C43.5133 397.747 43.2422 395.85 43.1683 394.125L43.045 391.34L42.1579 390.921C41.2953 390.527 41.2707 390.428 41.0982 388.9C41.0242 388.013 40.7778 386.756 40.556 386.091C40.3342 385.425 40.1617 384.563 40.1617 384.168C40.1617 383.109 39.5703 383.429 39.4717 384.538C39.3485 385.894 38.9788 385.647 38.8063 384.095C38.5845 382.443 38.1163 382.394 37.9438 383.996C37.7959 385.253 37.648 385.105 37.1798 383.281C37.0073 382.567 36.7362 382 36.5391 382C36.3666 382 36.2187 382.148 36.2187 382.296Z" fill="black" fill-opacity="0.9"/>
<path d="M98.8789 598.038C101.41 599.304 103.582 600.975 104.132 602.026C104.347 602.455 104.848 603.315 105.254 603.936C105.922 604.939 106.113 605.082 106.83 605.082C107.522 605.082 107.856 605.297 108.788 606.299C109.408 606.968 110.077 607.851 110.316 608.257L110.721 609.021L109.122 610.693C108.238 611.624 107.068 612.579 106.543 612.842C105.994 613.104 105.158 613.844 104.657 614.513C104.179 615.158 103.582 615.754 103.32 615.85C103.081 615.945 102.389 616.757 101.768 617.688C101.147 618.62 100.073 619.957 99.3803 620.649C97.5657 622.535 95.5601 624.899 95.7988 624.899C95.8943 624.899 96.348 624.684 96.7778 624.422C97.2075 624.159 97.7328 623.944 97.9477 623.944C98.1626 623.944 98.9982 623.514 99.7862 623.013C101.434 621.938 103.487 621.079 104.347 621.079C105.158 621.079 107.904 618.548 109.265 616.542C110.363 614.943 110.387 614.871 110.554 612.46C110.721 610.263 110.793 609.953 111.342 609.451C111.677 609.165 112.13 608.902 112.345 608.902C113.276 608.902 115.616 615.969 115.377 618.047C115.306 618.596 115.139 619.479 115.019 620.004C114.78 620.84 114.828 621.079 115.282 621.795C115.688 622.488 115.783 623.013 115.807 624.732C115.807 626.332 115.736 626.881 115.449 627.048C114.948 627.358 111.677 627.334 110.172 627.024C109.05 626.785 108.788 626.809 107.236 627.406C106.304 627.764 105.373 628.146 105.182 628.266C104.848 628.48 103.177 629.292 100.765 630.414C98.5207 631.465 93.6738 633.232 92.0503 633.59C91.0952 633.805 90.0924 634.139 89.8059 634.33C89.5432 634.521 89.1373 634.688 88.8986 634.688C88.2062 634.688 88.3733 635.548 89.6865 638.509C91.2385 642.042 92.2651 644.716 93.3157 647.82C93.7693 649.205 94.414 650.972 94.7483 651.76C95.0825 652.548 95.4646 653.885 95.6078 654.721C95.8466 656.201 95.8227 656.296 95.0825 657.705C94.6289 658.565 93.6738 659.735 92.7665 660.594C91.907 661.406 90.5938 662.647 89.8059 663.388L88.3972 664.701L90.0924 665.918C92.098 667.375 92.48 667.9 92.9098 669.739C93.1008 670.574 93.4112 671.243 93.7216 671.458C96.3957 673.392 97.5179 674.633 97.2314 675.373C96.9926 675.947 93.1963 678.382 92.5039 678.382C92.1458 678.382 91.1907 678.071 90.355 677.666L88.827 676.973L86.2483 677.307C83.0489 677.737 81.3059 678.191 78.7751 679.241C77.6767 679.695 76.6023 680.053 76.3635 680.053C76.1248 680.053 75.3369 679.671 74.6206 679.194L73.3074 678.358L69.129 678.525C64.4254 678.692 62.4198 678.477 60.1277 677.546C59.292 677.212 58.4325 676.949 58.1698 676.949C57.6684 676.949 55.5673 675.732 54.1586 674.609C53.6095 674.18 53.0603 673.845 52.9171 673.845C52.5828 673.845 51.8665 672.723 52.0098 672.461C52.4157 671.816 50.1952 670.98 48.0463 670.98C47.3778 670.98 46.5182 670.789 45.9691 670.503C45.4438 670.24 44.8708 670.025 44.6798 670.025C44.2022 670.025 40.3343 667.065 40.1433 666.539C40.0716 666.348 40 665.608 40 664.916C40 663.865 40.1194 663.483 40.7163 662.743C41.3848 661.907 42.3876 659.615 42.3876 658.947C42.3876 658.756 42.7697 658.278 43.2711 657.848C44.0112 657.18 44.2739 657.108 45.0856 657.204C45.7064 657.299 46.2795 657.586 46.7809 658.063C47.5927 658.851 48.0702 658.923 50.1474 658.66L51.2696 658.493L51.1025 657.633C51.007 657.156 50.9592 656.058 50.9592 655.174C50.9831 653.98 50.9115 653.503 50.6249 653.264C49.3356 652.214 49.264 652.07 49.3834 651.115C49.5505 649.85 49.0969 648.441 48.0463 646.889C47.0913 645.528 46.9719 644.788 47.4255 643.26C47.6404 642.567 47.6404 641.756 47.4255 639.917C47.1868 637.697 47.2106 637.362 47.6404 635.787C48.4044 633.184 48.5955 632.778 49.3834 632.396C50.1952 631.966 51.1263 632.086 52.7977 632.802C54.0631 633.375 53.9437 633.662 52.4395 633.781C51.5084 633.853 51.3412 633.948 51.1502 634.521C50.8637 635.452 51.2696 635.882 51.8904 635.333C52.3918 634.879 52.8932 634.808 52.8932 635.166C52.8932 635.309 52.4634 636.025 51.9143 636.742C51.198 637.721 51.007 638.15 51.198 638.341C51.3412 638.485 51.4606 638.819 51.4606 639.058C51.4606 639.583 54.3974 645.719 55.1376 646.722C55.4002 647.104 55.9016 647.916 56.2359 648.537C57.6446 651.139 58.337 652.309 59.7218 654.362C62.9928 659.281 63.6853 660.236 63.9001 660.093C64.0195 660.021 64.115 659.615 64.115 659.209C64.115 658.779 64.3538 657.968 64.6164 657.371C64.9984 656.559 65.1178 655.723 65.1656 653.909C65.2133 652.333 65.4043 650.829 65.7625 649.492C66.0729 648.369 66.3355 647.032 66.3833 646.507C66.431 645.982 66.5743 645.122 66.7414 644.597C66.8847 644.072 67.1712 642.663 67.3383 641.493C67.6965 639.034 68.0785 637.41 68.4366 636.67C68.6515 636.288 68.6276 635.667 68.4366 634.259C68.1979 632.587 68.1979 632.229 68.5799 631.202C69.0574 629.913 69.8215 629.364 70.6571 629.674C70.9436 629.77 71.5883 629.985 72.1136 630.152C72.8299 630.367 73.188 630.653 73.4745 631.25C74.0476 632.348 74.0237 632.539 73.3074 632.539C72.5911 632.539 72.3285 633.017 72.1613 634.688C72.0897 635.405 71.8032 636.479 71.5405 637.076C70.9198 638.437 70.9198 639.105 71.5167 639.869C71.8987 640.347 71.9942 640.848 71.9942 642.185C71.9942 643.857 72.806 650.518 73.0686 650.924C73.1403 651.044 73.3074 652.166 73.4268 653.431C73.5462 654.721 73.6894 655.819 73.7849 655.89C73.8565 655.962 74.3579 655.604 74.931 655.079C76.4829 653.622 76.7456 653.455 77.9394 653.312C78.9183 653.216 79.0377 653.121 79.1093 652.524C79.1571 652.166 79.3958 651.76 79.6585 651.64C80.4941 651.187 80.8762 650.041 80.6852 648.68C80.5896 648.011 80.5419 647.032 80.5658 646.507C80.5896 645.982 80.4464 644.215 80.2315 642.567C79.6585 638.007 79.2765 633.16 79.3003 630.558L79.3242 628.218L80.9717 626.547C81.879 625.615 83.1444 624.469 83.8129 623.992C87.9913 620.936 93.7693 615.922 94.2946 614.895C94.8438 613.797 95.8705 612.722 97.5895 611.361L98.9744 610.311V607.422C98.9744 603.936 98.6879 603.196 96.5629 600.903C95.1064 599.351 94.8199 598.516 95.3929 597.417C95.7749 596.725 96.5629 596.868 98.8789 598.038Z" fill="black" fill-opacity="0.9"/>
<path d="M389.15 371.174C387.497 371.435 387.208 371.58 385.816 372.942C384.802 373.928 383.874 374.508 382.772 374.884C381.903 375.174 380.656 375.696 380.019 376.044C379.207 376.508 378.685 376.624 378.279 376.479C377.961 376.334 377.352 376.218 376.917 376.218C376.192 376.189 375.989 376.45 374.656 379.146C373.728 381.059 372.888 383.349 372.337 385.552C371.844 387.436 371.148 389.581 370.772 390.335C370.395 391.089 369.728 392.857 369.293 394.306C368.858 395.727 368.134 397.901 367.699 399.089C367.235 400.307 366.771 402.104 366.655 403.147C366.51 404.452 366.221 405.321 365.699 406.046C363.873 408.539 362.829 409.64 361.612 410.336C358.539 412.104 356.22 414.25 355.379 416.163C354.944 417.119 354.365 417.931 353.988 418.076C353.64 418.25 353.321 418.685 353.263 419.09C353.205 419.496 353.031 419.931 352.886 420.076C352.741 420.25 352.625 420.598 352.625 420.859C352.625 421.525 351.756 421.728 347.466 422.134C346.596 422.221 345.784 422.366 345.611 422.453C345.118 422.743 340.161 421.902 340.161 421.525C340.161 420.917 338.972 419.67 337.32 418.54C336.364 417.902 335.349 416.887 334.943 416.192C334.537 415.525 332.972 413.061 331.436 410.742C328.073 405.64 327.841 404.858 329.117 402.944C330.508 400.857 330.189 400.133 328.508 401.553C327.059 402.77 326.827 402.568 326.827 400.133C326.827 398.944 326.711 397.901 326.595 397.814C326.073 397.495 325.725 398.161 325.522 399.872C325.406 400.886 325.232 401.698 325.087 401.698C324.971 401.698 324.566 400.886 324.218 399.872C323.406 397.727 323.087 397.205 322.681 397.611C322.507 397.785 322.594 398.625 322.913 399.959C323.203 401.089 323.348 402.075 323.29 402.162C323.203 402.22 322.652 401.582 322.044 400.683C320.913 399.06 320.623 398.857 320.304 399.408C319.986 399.901 320.391 400.944 321.464 402.51C322.015 403.35 322.478 404.336 322.478 404.742C322.478 405.553 321.754 406.017 321.232 405.495C321.058 405.321 320.478 405.176 319.957 405.176C319.145 405.176 319 405.263 319 405.901C319 406.423 319.203 406.655 319.783 406.8C320.217 406.916 321.406 407.379 322.392 407.843C323.377 408.278 324.45 408.655 324.74 408.655C325.493 408.655 326.769 410.539 327.406 412.684C328.16 415.09 329.204 417.032 330.276 418.076C330.769 418.54 331.32 419.409 331.465 419.989C331.639 420.569 332.276 421.699 332.914 422.511C333.697 423.497 334.073 424.25 334.073 424.859C334.073 425.758 333.465 426.105 333.059 425.468C332.972 425.294 332.595 425.178 332.218 425.178C331.87 425.178 331.436 425.033 331.233 424.83C331.059 424.656 330.131 424.395 329.233 424.279C328.305 424.134 327.145 423.96 326.653 423.873C325.957 423.728 325.522 423.902 324.45 424.743C323.029 425.787 322.623 426.656 322.363 428.946C322.276 429.671 322.131 430.801 322.015 431.468C321.725 433.41 323.058 434.918 324.16 433.816C324.392 433.584 324.769 433.758 325.667 434.541C326.305 435.149 327.116 435.613 327.464 435.613C327.783 435.613 328.479 435.932 328.972 436.28C329.783 436.918 330.015 436.947 331.61 436.715C332.566 436.57 333.668 436.454 334.016 436.454C334.479 436.425 335.001 436.019 335.61 435.149C336.103 434.454 336.653 433.874 336.827 433.874C337.001 433.874 337.987 434.338 339.03 434.889C341.813 436.367 344.625 437.353 346.045 437.353C347.437 437.353 352.394 435.874 354.365 434.889C355.698 434.222 357.292 433.033 359.235 431.323C359.814 430.801 361.09 429.99 362.075 429.526C364.713 428.25 367.003 425.96 370.047 421.583C373.902 416.018 374.366 415.09 374.685 412.481C375.265 407.698 376.656 404.887 378.424 404.887C379.12 404.887 379.41 404.626 380.309 403.147C381.439 401.292 382.628 400.22 384.077 399.756C384.599 399.582 384.976 399.263 385.033 398.886C385.178 397.843 384.338 397.495 381.497 397.466C377.758 397.437 377.7 397.379 378.627 395.379C380.946 390.248 381.323 389.697 384.657 386.19C386.483 384.276 387.99 382.508 387.99 382.247C387.99 381.986 387.787 381.61 387.555 381.407C386.715 380.711 387.063 379.522 388.715 377.435C390.86 374.798 391.179 374.45 392.425 373.493C393.672 372.565 393.701 372.334 392.918 371.551C392.338 370.971 391.121 370.855 389.15 371.174Z" fill="black" fill-opacity="0.9"/>
<path d="M216.847 469.447C212.692 471.018 208.537 473.741 206.756 476.116C205.918 477.233 204.626 478.35 203.509 478.979C201.763 479.991 198.691 482.889 198.691 483.553C198.691 483.727 200.471 485.578 202.636 487.673C207.699 492.596 208.642 494.272 209.654 500.277C209.794 501.15 209.654 501.569 209.096 502.093L208.362 502.791L209.619 506.039C210.283 507.819 211.121 510.298 211.435 511.52C212.273 514.837 214.438 519.586 217.161 524.09L219.57 528.14L220.234 533.448C220.618 536.45 220.758 538.79 220.583 538.79C220.408 538.79 218.418 537.638 216.184 536.206C213.914 534.774 211.225 533.343 210.178 532.994C209.131 532.68 207.978 532.121 207.594 531.807C207.21 531.457 206.337 531.108 205.674 530.969C203.195 530.515 200.855 528.978 195.409 524.335C188.914 518.748 188.53 518.434 187.378 518.608C186.784 518.678 185.807 518.154 184.061 516.828L181.582 514.977L182.664 513.755C183.223 513.092 183.677 512.393 183.607 512.184C183.537 511.974 182.909 511.625 182.21 511.381C180.22 510.717 177.147 507.54 176.309 505.305C175.925 504.258 175.052 502.756 174.354 502.023C173.132 500.662 173.132 500.592 173.342 498.322C173.481 497.065 173.656 495.389 173.761 494.621C173.9 493.539 173.795 492.98 173.132 492.037C172.678 491.374 171.98 490.71 171.526 490.571C170.513 490.187 169.501 491.199 167.615 494.446C165.451 498.252 164.752 500.487 164.543 504.572C164.403 507.819 164.263 508.343 163.425 509.53C162.657 510.578 162.413 511.416 162.203 513.511C162.064 514.977 162.099 516.304 162.273 516.478C162.483 516.688 172.259 518.189 173.621 518.189C173.726 518.189 174.284 518.573 174.843 519.027C175.402 519.516 176.275 520.005 176.763 520.11C177.252 520.249 178.614 521.332 179.836 522.554C181.931 524.684 182.036 524.858 181.652 525.696C181.407 526.22 181.337 526.814 181.477 527.058C181.652 527.337 182.943 528.455 184.375 529.607C185.807 530.759 188.321 532.819 189.962 534.216C191.603 535.578 194.431 537.603 196.247 538.685C205.01 543.818 205.429 544.132 210.003 548.671C212.448 551.115 215.276 553.734 216.288 554.467C219.117 556.597 219.326 556.981 221.037 562.812C221.875 565.745 223.306 567.561 226.204 569.411C227.427 570.214 228.265 571.052 228.579 571.82C229.137 573.182 229.242 576.15 228.718 576.15C227.182 576.15 222.189 572.554 216.253 567.107C211.61 562.882 210.143 561.066 209.515 558.692C209.026 556.807 207.35 553.455 206.931 553.455C206.756 553.455 206.756 554.293 206.861 555.27L207.105 557.121L205.604 555.724C202.811 553.105 202.252 552.686 201.833 552.931C201.589 553.07 201.903 553.734 202.776 554.781L204.103 556.422L202.077 554.746C200.925 553.839 199.878 553.105 199.738 553.105C198.76 553.105 199.214 554.083 200.855 555.619C202.566 557.26 202.357 557.26 199.878 555.689C199.284 555.27 198.9 555.2 198.656 555.445C198.411 555.689 198.795 556.248 199.878 557.156C201.658 558.622 201.728 559.041 200.087 558.168C198.132 557.156 198.167 557.819 200.157 559.32C201.24 560.124 202.427 561.206 202.811 561.73C203.195 562.288 204.557 563.266 205.814 563.894C207.874 564.907 208.537 565.536 211.889 569.621C218.209 577.372 219.291 578.839 219.291 579.607C219.291 580.061 219.71 580.584 220.443 581.003C222.049 581.946 224.878 584.251 224.878 584.6C224.878 585.193 223.272 584.809 220.129 583.447C216.742 581.946 211.505 578.07 208.153 574.614L206.582 573.042L206.547 569.97C206.477 566.688 205.744 564.279 204.836 564.279C204.417 564.279 204.382 564.663 204.522 566.199C204.801 568.922 204.103 568.748 201.624 565.396C199.564 562.672 198.795 561.834 198.272 561.834C197.748 561.834 197.992 562.777 198.9 564.418C199.424 565.326 199.738 566.129 199.668 566.199C199.598 566.304 198.691 565.501 197.643 564.418C195.374 562.079 194.536 561.555 194.117 562.218C193.907 562.568 194.571 563.475 196.351 565.291L198.865 567.875L196.456 566.234C195.164 565.361 193.837 564.628 193.593 564.628C192.58 564.628 193.174 565.605 195.409 567.561C196.666 568.678 197.608 569.656 197.538 569.76C197.434 569.83 196.735 569.586 195.932 569.202C194.256 568.329 194.152 568.329 194.152 568.957C194.152 569.237 194.675 569.83 195.304 570.284C197.294 571.681 208.537 581.457 212.098 584.879C213.984 586.695 216.079 588.894 216.707 589.767C217.336 590.64 218.698 591.897 219.745 592.561C222.678 594.446 234.375 602.232 235.178 602.826C235.841 603.315 235.841 603.35 234.759 603.594C234.13 603.699 233.432 604.048 233.223 604.292C233.013 604.572 232.524 604.781 232.175 604.781C231.721 604.781 231.512 605.026 231.512 605.514C231.512 605.898 231.058 606.632 230.499 607.155C229.94 607.679 229.382 608.657 229.242 609.32C229.103 609.984 228.753 610.717 228.474 610.926C228.055 611.206 227.985 611.729 228.16 613.196C228.265 614.243 228.404 615.57 228.474 616.129C228.579 617.7 232.594 622.623 233.467 622.344C233.711 622.274 234.34 622.623 234.933 623.112C235.492 623.601 236.19 623.985 236.435 623.985C236.679 623.985 237.168 624.264 237.552 624.613C238.181 625.172 238.251 625.172 239.228 623.985C239.787 623.322 240.45 622.763 240.695 622.763C241.218 622.763 243.977 620.528 245.897 618.573C249.947 614.383 250.297 613.929 251.204 611.171C251.693 609.669 252.112 608.343 252.112 608.203C252.112 608.063 251.309 607.54 250.366 607.051C248.306 606.003 248.062 605.514 247.748 601.778L247.503 599.02L248.97 596.75C252.741 590.78 253.369 588.44 252.636 583.133C252.357 581.108 251.973 578.175 251.798 576.604C251.169 571.471 250.297 569.481 242.126 554.153C241.253 552.512 240.031 550.626 239.403 549.963C238.704 549.23 238.146 548.217 238.006 547.414C237.657 545.529 235.702 539.628 233.886 534.949C233.013 532.749 232.035 529.991 231.686 528.839C231.372 527.687 230.744 526.115 230.325 525.347C229.906 524.579 229.242 523.182 228.893 522.24C228.509 521.157 227.636 519.9 226.589 518.853C225.646 517.98 224.878 517.002 224.878 516.723C224.878 516.409 224.389 515.606 223.83 514.872C223.237 514.139 222.503 512.673 222.224 511.59C221.177 508.064 217.929 500.382 216.882 499.055C216.114 498.078 214.403 494.027 214.403 493.189C214.403 493.155 214.962 492.805 215.625 492.386C216.777 491.723 216.847 491.583 216.847 489.803C216.847 488.546 216.672 487.743 216.323 487.463C215.346 486.66 215.136 484.879 215.66 481.458C216.393 476.569 216.463 476.36 218.104 474.509C219.815 472.589 220.234 471.402 219.78 470.04C219.396 468.993 218.558 468.818 216.847 469.447Z" fill="black" fill-opacity="0.9"/>
</svg>
