<svg width="428" height="926" viewBox="0 0 428 926" fill="none" xmlns="http://www.w3.org/2000/svg">
<path d="M204.567 416.804C195.414 420.265 186.261 426.265 182.338 431.495C180.492 433.956 177.646 436.418 175.185 437.802C171.339 440.033 164.57 446.417 164.57 447.879C164.57 448.263 168.493 452.34 173.262 456.955C184.415 467.801 186.492 471.493 188.722 484.723C189.03 486.646 188.722 487.569 187.492 488.723L185.876 490.261L188.645 497.414C190.107 501.337 191.953 506.798 192.645 509.491C194.491 516.798 199.26 527.259 205.26 537.181L210.567 546.104L212.029 557.795C212.875 564.41 213.182 569.564 212.798 569.564C212.413 569.564 208.029 567.026 203.106 563.872C198.106 560.718 192.184 557.565 189.876 556.796C187.568 556.103 185.03 554.873 184.184 554.18C183.338 553.411 181.415 552.642 179.954 552.334C174.492 551.334 169.339 547.95 157.339 537.72C143.033 525.413 142.186 524.72 139.648 525.105C138.341 525.259 136.187 524.105 132.341 521.182L126.88 517.106L129.264 514.413C130.495 512.952 131.495 511.414 131.341 510.952C131.187 510.491 129.803 509.721 128.264 509.183C123.88 507.721 117.111 500.722 115.265 495.799C114.419 493.491 112.496 490.184 110.958 488.569C108.265 485.569 108.265 485.415 108.727 480.415C109.035 477.646 109.419 473.954 109.65 472.262C109.958 469.877 109.727 468.647 108.265 466.57C107.265 465.109 105.727 463.647 104.727 463.339C102.496 462.493 100.266 464.724 96.1122 471.877C91.3433 480.261 89.8049 485.184 89.3434 494.184C89.0357 501.337 88.728 502.491 86.882 505.106C85.1898 507.414 84.6514 509.26 84.1898 513.875C83.8822 517.106 83.9591 520.028 84.3437 520.413C84.8052 520.875 106.342 524.182 109.342 524.182C109.573 524.182 110.804 525.028 112.034 526.028C113.265 527.105 115.188 528.182 116.265 528.413C117.342 528.72 120.342 531.105 123.034 533.797C127.649 538.489 127.88 538.873 127.034 540.72C126.495 541.873 126.341 543.181 126.649 543.719C127.034 544.335 129.88 546.796 133.033 549.334C136.187 551.873 141.725 556.411 145.34 559.488C148.955 562.487 155.186 566.949 159.186 569.333C178.492 580.64 179.415 581.333 189.491 591.332C194.876 596.716 201.106 602.485 203.337 604.1C209.567 608.793 210.029 609.639 213.798 622.484C215.644 628.945 218.797 632.945 225.182 637.022C227.874 638.791 229.72 640.637 230.412 642.329C231.643 645.329 231.874 651.867 230.72 651.867C227.335 651.867 216.336 643.944 203.26 631.945C193.03 622.638 189.799 618.638 188.415 613.408C187.338 609.254 183.646 601.87 182.723 601.87C182.338 601.87 182.338 603.716 182.569 605.87L183.107 609.946L179.8 606.87C173.646 601.101 172.416 600.178 171.492 600.716C170.954 601.024 171.646 602.485 173.569 604.793L176.492 608.408L172.031 604.716C169.493 602.716 167.185 601.101 166.877 601.101C164.724 601.101 165.724 603.254 169.339 606.639C173.108 610.254 172.646 610.254 167.185 606.793C165.877 605.87 165.031 605.716 164.493 606.254C163.954 606.793 164.801 608.023 167.185 610.023C171.108 613.254 171.262 614.177 167.647 612.254C163.339 610.023 163.416 611.485 167.8 614.792C170.185 616.561 172.8 618.946 173.646 620.1C174.492 621.33 177.492 623.484 180.261 624.868C184.799 627.099 186.261 628.484 193.645 637.483C207.567 654.559 209.952 657.79 209.952 659.482C209.952 660.482 210.875 661.636 212.49 662.559C216.028 664.635 222.259 669.712 222.259 670.481C222.259 671.789 218.721 670.943 211.798 667.943C204.337 664.635 192.799 656.097 185.415 648.483L181.953 645.021L181.876 638.252C181.723 631.022 180.107 625.715 178.107 625.715C177.184 625.715 177.108 626.561 177.415 629.945C178.031 635.945 176.492 635.56 171.031 628.176C166.493 622.176 164.801 620.33 163.647 620.33C162.493 620.33 163.031 622.407 165.031 626.022C166.185 628.022 166.877 629.791 166.724 629.945C166.57 630.176 164.57 628.407 162.262 626.022C157.263 620.869 155.416 619.715 154.493 621.176C154.032 621.946 155.493 623.945 159.416 627.945L164.954 633.637L159.647 630.022C156.801 628.099 153.878 626.484 153.34 626.484C151.109 626.484 152.417 628.638 157.339 632.945C160.109 635.406 162.185 637.56 162.031 637.791C161.801 637.945 160.262 637.406 158.493 636.56C154.801 634.637 154.57 634.637 154.57 636.022C154.57 636.637 155.724 637.945 157.109 638.945C161.493 642.021 186.261 663.559 194.107 671.097C198.26 675.096 202.875 679.942 204.26 681.865C205.644 683.788 208.644 686.557 210.952 688.019C217.413 692.172 243.181 709.325 244.95 710.633C246.411 711.71 246.411 711.787 244.027 712.325C242.642 712.556 241.104 713.325 240.642 713.863C240.181 714.479 239.104 714.94 238.335 714.94C237.335 714.94 236.873 715.479 236.873 716.556C236.873 717.402 235.873 719.017 234.643 720.171C233.412 721.324 232.181 723.478 231.874 724.94C231.566 726.401 230.797 728.016 230.181 728.478C229.258 729.093 229.105 730.247 229.489 733.478C229.72 735.785 230.028 738.708 230.181 739.939C230.412 743.4 239.258 754.246 241.181 753.63C241.719 753.476 243.104 754.246 244.411 755.322C245.642 756.399 247.18 757.245 247.719 757.245C248.257 757.245 249.334 757.861 250.18 758.63C251.565 759.861 251.719 759.861 253.872 757.245C255.103 755.784 256.564 754.553 257.103 754.553C258.257 754.553 264.333 749.631 268.564 745.323C277.486 736.093 278.256 735.093 280.255 729.016C281.332 725.709 282.255 722.786 282.255 722.478C282.255 722.171 280.486 721.017 278.409 719.94C273.871 717.632 273.333 716.556 272.64 708.325L272.102 702.249L275.333 697.249C283.64 684.096 285.024 678.942 283.409 667.251C282.794 662.789 281.948 656.328 281.563 652.867C280.179 641.56 278.256 637.175 260.257 603.408C258.334 599.793 255.641 595.639 254.257 594.178C252.719 592.563 251.488 590.332 251.18 588.563C250.411 584.409 246.104 571.41 242.104 561.103C240.181 556.257 238.027 550.181 237.258 547.642C236.566 545.104 235.181 541.643 234.258 539.95C233.335 538.258 231.874 535.181 231.104 533.105C230.258 530.72 228.335 527.951 226.028 525.643C223.951 523.721 222.259 521.567 222.259 520.951C222.259 520.259 221.182 518.49 219.951 516.875C218.644 515.259 217.028 512.029 216.413 509.644C214.105 501.876 206.952 484.954 204.644 482.031C202.952 479.877 199.183 470.954 199.183 469.108C199.183 469.031 200.414 468.262 201.875 467.339C204.414 465.878 204.567 465.57 204.567 461.647C204.567 458.878 204.183 457.109 203.414 456.494C201.26 454.725 200.798 450.802 201.952 443.264C203.568 432.495 203.721 432.034 207.337 427.957C211.106 423.726 212.029 421.111 211.029 418.111C210.183 415.804 208.337 415.419 204.567 416.804Z" fill="black" fill-opacity="0.9"/>
</svg>
