<svg width="428" height="926" viewBox="0 0 428 926" fill="none" xmlns="http://www.w3.org/2000/svg">
<path d="M398.675 625.129C398.231 625.302 398.281 626.041 398.848 628.037C399.119 628.974 399.34 629.836 399.34 629.935C399.34 630.255 398.256 630.157 396.087 629.639C392.218 628.752 390.444 628.703 390.124 629.516C390.025 629.787 390.419 630.107 391.528 630.65C393.672 631.734 394.461 632.522 394.288 633.385C394.116 634.1 394.461 634.346 394.831 633.779C394.954 633.557 395.052 633.705 395.176 634.198C395.274 634.617 395.422 635.11 395.496 635.332C395.94 636.367 387.536 643.39 383.1 645.756C379.773 647.53 379.379 647.9 379.231 649.625C379.133 650.685 379.33 651.745 380.217 655.022C381.326 658.99 381.326 659.064 380.882 659.581C380.611 659.852 380.365 660.296 380.315 660.567C380.242 660.863 380.069 661.011 379.847 660.961C379.65 660.887 378.738 660.813 377.826 660.789C376.915 660.764 376.126 660.715 376.101 660.666C376.052 660.616 375.288 659.778 374.401 658.842L372.75 657.117L373.489 654.406C374.573 650.537 374.573 648.294 373.514 643.809C373.07 641.912 372.553 639.891 372.331 639.324C371.986 638.412 371.863 638.289 371.049 638.215C370.285 638.141 370.138 638.043 369.965 637.377C369.842 636.934 369.3 636.219 368.585 635.628C367.944 635.085 367.205 634.223 366.934 633.73C366.392 632.744 365.948 632.547 366.145 633.385C366.293 633.927 366.293 633.927 365.948 633.484C365.751 633.212 365.578 632.843 365.578 632.67C365.578 632.498 365.431 632.35 365.233 632.35C364.938 632.35 364.913 632.522 365.11 633.139C365.381 634.149 365.209 634.321 364.888 633.36C364.617 632.572 364.42 632.473 363.779 632.744C363.434 632.867 363.434 632.991 363.755 633.878C364.198 635.135 365.086 636.194 366.687 637.328L367.969 638.24L368.659 641.887C369.053 643.883 369.374 645.978 369.398 646.52C369.448 647.062 369.546 647.949 369.645 648.492C369.793 649.305 369.669 649.822 368.93 651.547C367.92 653.963 367.575 654.381 365.997 655.195C364.371 656.008 364.051 655.885 363.755 654.406L363.484 653.174L362.252 653.1C361.562 653.051 360.921 652.927 360.798 652.78C360.65 652.656 360.034 652.558 359.393 652.558C358.678 652.558 358.136 652.41 357.939 652.188C357.175 651.276 355.696 651.892 353.725 653.938C351.827 655.959 351.679 656.254 351.877 658.201C352.024 659.483 352.197 659.976 352.714 660.542C353.478 661.356 355.598 662.366 357.076 662.637C357.742 662.76 358.037 662.933 357.988 663.179C357.939 663.376 358.161 663.993 358.456 664.559L359.023 665.619L357.717 666.95L356.386 668.281L356.559 669.537L356.731 670.77L355.524 671.386C354.858 671.731 353.651 672.396 352.862 672.864C352.074 673.357 351.162 673.751 350.866 673.751C350.299 673.751 348.697 672.199 347.638 670.622C347.293 670.104 346.775 669.414 346.455 669.069C346.135 668.724 345.592 667.886 345.272 667.221L344.681 665.989L345.395 665.175C346.208 664.264 346.258 663.771 345.765 662.539C345.297 661.43 344.927 661.454 344.828 662.588C344.779 663.327 344.631 663.549 344.237 663.598C343.818 663.648 343.695 663.45 343.374 662.144C342.906 660.074 342.413 659.926 342.389 661.849C342.364 663.524 341.97 662.982 341.945 661.232C341.92 660.567 341.797 660.197 341.6 660.197C341.255 660.197 340.491 661.356 340.195 662.366C339.998 663.031 339.998 663.031 339.974 662.218C339.949 661.306 339.604 661.183 339.185 661.947C338.741 662.81 339.086 663.993 340.319 665.668C341.009 666.629 341.403 667.393 341.329 667.664C341.28 667.911 341.428 668.626 341.699 669.242C342.265 670.597 342.29 670.991 341.773 671.558C341.378 671.977 341.477 672.15 343.029 674.047C343.941 675.181 345.026 676.684 345.42 677.399C346.184 678.729 347.958 680.405 348.624 680.405C349.314 680.405 355.573 678.163 356.707 677.522C357.323 677.152 358.629 676.339 359.639 675.674C361.463 674.466 361.488 674.466 363.213 674.565C367.23 674.786 374.302 675.748 375.288 676.191C375.855 676.438 377.038 677.177 377.925 677.818C378.788 678.458 379.97 679.198 380.537 679.444C381.474 679.888 381.671 679.888 383.125 679.543C383.963 679.346 385.293 679.173 386.057 679.173H387.437L388.029 677.892C388.522 676.857 388.842 676.512 389.853 675.994C390.543 675.624 391.775 674.86 392.637 674.269C393.894 673.382 394.313 672.889 394.954 671.583C395.669 670.129 395.742 669.784 395.718 667.862C395.718 666.703 395.521 664.51 395.299 663.007C395.077 661.528 394.781 658.867 394.658 657.092C394.535 655.343 394.362 653.568 394.288 653.174C394.165 652.582 394.264 652.287 394.757 651.745C395.57 650.857 395.94 650.143 396.63 647.999C398.503 642.331 399.883 640.63 402.988 640.137C404.22 639.94 405.526 639.324 406.684 638.338C407.448 637.673 407.473 637.599 407.202 636.786C407.029 636.318 406.462 635.307 405.945 634.543C405.427 633.779 404.935 632.72 404.836 632.202C404.614 630.625 403.283 628.382 401.534 626.608C400.006 625.08 399.464 624.784 398.675 625.129Z" fill="black" fill-opacity="0.9"/>
<path d="M16.2187 394.296C16.2434 394.468 16.3912 395.257 16.5637 396.021C16.9827 397.746 16.6377 397.918 15.9723 396.341C15.5287 395.306 15.159 394.986 14.8879 395.429C14.8387 395.528 15.1097 396.366 15.5287 397.302C15.923 398.214 16.3173 399.372 16.3912 399.865C16.5391 400.654 16.4898 400.728 16.0708 400.53C15.2083 400.185 14.4936 400.111 14.4936 400.358C14.4936 400.728 16.1941 402.009 17.2291 402.453C17.722 402.65 18.1902 402.946 18.2888 403.069C18.6831 403.709 19.176 407.702 19.176 410.363C19.176 413.247 19.1513 413.321 18.3381 414.799C17.4509 416.376 16.8594 417.017 14.8633 418.496L13.6311 419.432L13.4832 418.225C13.3847 417.584 13.434 416.647 13.5572 416.155C13.9515 414.799 13.36 413.912 11.4378 412.976C9.39238 411.965 7.34695 411.743 6.11476 412.433C3.77361 413.715 3.33002 417.658 5.1783 420.862C5.76975 421.872 5.81904 423.548 5.27688 424.386C5.05508 424.706 4.46363 425.15 3.97076 425.371C3.33002 425.667 2.71392 426.283 2.0239 427.343C0.0523968 430.275 -0.267972 431.409 0.175616 433.627C0.323478 434.391 0.545272 436.929 0.643847 439.27C0.890285 443.977 1.06279 444.52 2.56606 445.16C3.67503 445.629 9.31845 445.678 10.0331 445.234C10.6492 444.84 11.7828 445.284 12.4729 446.245C12.7686 446.614 13.3354 447.009 13.7297 447.107C14.1486 447.181 14.9126 447.477 15.4301 447.723C19.102 449.498 24.6469 448.561 27.8013 445.604C29.7974 443.756 30.4135 442.178 31.1282 437.25C31.7689 432.715 32.4097 429.24 32.6068 429.043C32.6807 428.969 34.3072 429.068 36.2294 429.24C41.1828 429.684 52.0754 429.265 52.5436 428.624C52.8393 428.23 52.9626 428.255 54.3426 429.019C55.6241 429.709 55.8952 429.783 56.2402 429.511C56.7331 429.117 58.1131 424.854 58.1131 423.745C58.1131 423.301 58.2363 422.808 58.3596 422.685C58.8278 422.217 59.8875 416.155 59.7642 414.651C59.6164 412.902 59.4932 412.729 58.5074 412.729C57.3984 412.729 57.0041 413.123 56.5113 414.701C55.7227 417.214 53.3569 418.939 48.6992 420.467C46.7031 421.133 45.8898 421.28 44.978 421.182C44.3372 421.108 43.7704 420.96 43.7212 420.886C43.6472 420.788 44.9287 420.245 46.5552 419.629C48.1817 419.038 49.611 418.422 49.7589 418.249C49.9067 418.077 49.9807 417.461 49.9314 416.869L49.8575 415.81L51.3361 415.267C52.1493 414.947 53.209 414.503 53.6772 414.257C54.5151 413.838 54.5398 413.789 54.5151 412.483C54.4905 411.177 53.9237 409.599 53.3322 409.23C53.1844 409.131 53.0611 408.441 53.0365 407.702C52.9626 405.213 51.1389 402.551 48.6253 401.245L47.2452 400.53L46.6291 401.245C46.1362 401.787 46.0377 402.108 46.1609 402.6C46.2595 402.946 46.3827 404.35 46.4566 405.73C46.5798 408.392 46.1855 410.018 45.4462 410.018C45.2244 410.018 44.9041 410.339 44.7069 410.733C44.3126 411.497 42.9572 412.729 42.5383 412.729C42.3904 412.729 41.0843 413.296 39.6549 413.986C36.4512 415.538 35.638 415.834 32.9518 416.426C31.7689 416.672 30.1178 417.239 29.2799 417.658C27.8259 418.397 27.7273 418.496 26.8895 420.319C26.3966 421.354 25.5341 422.759 24.9672 423.449C24.4004 424.115 23.0204 425.987 21.9114 427.565C20.8024 429.166 19.7921 430.522 19.6688 430.596C19.447 430.744 18.9295 429.955 17.5988 427.441C16.5144 425.371 16.5637 425.174 19.1267 422.463C21.0735 420.393 23.0943 417.116 23.9815 414.553C24.4251 413.296 24.4251 413.247 23.8583 411.103C23.5133 409.747 23.2422 407.85 23.1683 406.125L23.045 403.34L22.1579 402.921C21.2953 402.527 21.2707 402.428 21.0982 400.9C21.0242 400.013 20.7778 398.756 20.556 398.091C20.3342 397.425 20.1617 396.563 20.1617 396.168C20.1617 395.109 19.5703 395.429 19.4717 396.538C19.3485 397.894 18.9788 397.647 18.8063 396.095C18.5845 394.443 18.1163 394.394 17.9438 395.996C17.7959 397.253 17.648 397.105 17.1798 395.281C17.0073 394.567 16.7362 394 16.5391 394C16.3666 394 16.2187 394.148 16.2187 394.296Z" fill="black" fill-opacity="0.9"/>
<path d="M98.8789 598.038C101.41 599.304 103.582 600.975 104.132 602.026C104.347 602.455 104.848 603.315 105.254 603.936C105.922 604.939 106.113 605.082 106.83 605.082C107.522 605.082 107.856 605.297 108.788 606.299C109.408 606.968 110.077 607.851 110.316 608.257L110.721 609.021L109.122 610.693C108.238 611.624 107.068 612.579 106.543 612.842C105.994 613.104 105.158 613.844 104.657 614.513C104.179 615.158 103.582 615.754 103.32 615.85C103.081 615.945 102.389 616.757 101.768 617.688C101.147 618.62 100.073 619.957 99.3803 620.649C97.5657 622.535 95.5601 624.899 95.7988 624.899C95.8943 624.899 96.348 624.684 96.7778 624.422C97.2075 624.159 97.7328 623.944 97.9477 623.944C98.1626 623.944 98.9982 623.514 99.7862 623.013C101.434 621.938 103.487 621.079 104.347 621.079C105.158 621.079 107.904 618.548 109.265 616.542C110.363 614.943 110.387 614.871 110.554 612.46C110.721 610.263 110.793 609.953 111.342 609.451C111.677 609.165 112.13 608.902 112.345 608.902C113.276 608.902 115.616 615.969 115.377 618.047C115.306 618.596 115.139 619.479 115.019 620.004C114.78 620.84 114.828 621.079 115.282 621.795C115.688 622.488 115.783 623.013 115.807 624.732C115.807 626.332 115.736 626.881 115.449 627.048C114.948 627.358 111.677 627.334 110.172 627.024C109.05 626.785 108.788 626.809 107.236 627.406C106.304 627.764 105.373 628.146 105.182 628.266C104.848 628.48 103.177 629.292 100.765 630.414C98.5207 631.465 93.6738 633.232 92.0503 633.59C91.0952 633.805 90.0924 634.139 89.8059 634.33C89.5432 634.521 89.1373 634.688 88.8986 634.688C88.2062 634.688 88.3733 635.548 89.6865 638.509C91.2385 642.042 92.2651 644.716 93.3157 647.82C93.7693 649.205 94.414 650.972 94.7483 651.76C95.0825 652.548 95.4646 653.885 95.6078 654.721C95.8466 656.201 95.8227 656.296 95.0825 657.705C94.6289 658.565 93.6738 659.735 92.7665 660.594C91.907 661.406 90.5938 662.647 89.8059 663.388L88.3972 664.701L90.0924 665.918C92.098 667.375 92.48 667.9 92.9098 669.739C93.1008 670.574 93.4112 671.243 93.7216 671.458C96.3957 673.392 97.5179 674.633 97.2314 675.373C96.9926 675.947 93.1963 678.382 92.5039 678.382C92.1458 678.382 91.1907 678.071 90.355 677.666L88.827 676.973L86.2483 677.307C83.0489 677.737 81.3059 678.191 78.7751 679.241C77.6767 679.695 76.6023 680.053 76.3635 680.053C76.1248 680.053 75.3369 679.671 74.6206 679.194L73.3074 678.358L69.129 678.525C64.4254 678.692 62.4198 678.477 60.1277 677.546C59.292 677.212 58.4325 676.949 58.1698 676.949C57.6684 676.949 55.5673 675.732 54.1586 674.609C53.6095 674.18 53.0603 673.845 52.9171 673.845C52.5828 673.845 51.8665 672.723 52.0098 672.461C52.4157 671.816 50.1952 670.98 48.0463 670.98C47.3778 670.98 46.5182 670.789 45.9691 670.503C45.4438 670.24 44.8708 670.025 44.6798 670.025C44.2022 670.025 40.3343 667.065 40.1433 666.539C40.0716 666.348 40 665.608 40 664.916C40 663.865 40.1194 663.483 40.7163 662.743C41.3848 661.907 42.3876 659.615 42.3876 658.947C42.3876 658.756 42.7697 658.278 43.2711 657.848C44.0112 657.18 44.2739 657.108 45.0856 657.204C45.7064 657.299 46.2795 657.586 46.7809 658.063C47.5927 658.851 48.0702 658.923 50.1474 658.66L51.2696 658.493L51.1025 657.633C51.007 657.156 50.9592 656.058 50.9592 655.174C50.9831 653.98 50.9115 653.503 50.6249 653.264C49.3356 652.214 49.264 652.07 49.3834 651.115C49.5505 649.85 49.0969 648.441 48.0463 646.889C47.0913 645.528 46.9719 644.788 47.4255 643.26C47.6404 642.567 47.6404 641.756 47.4255 639.917C47.1868 637.697 47.2106 637.362 47.6404 635.787C48.4044 633.184 48.5955 632.778 49.3834 632.396C50.1952 631.966 51.1263 632.086 52.7977 632.802C54.0631 633.375 53.9437 633.662 52.4395 633.781C51.5084 633.853 51.3412 633.948 51.1502 634.521C50.8637 635.452 51.2696 635.882 51.8904 635.333C52.3918 634.879 52.8932 634.808 52.8932 635.166C52.8932 635.309 52.4634 636.025 51.9143 636.742C51.198 637.721 51.007 638.15 51.198 638.341C51.3412 638.485 51.4606 638.819 51.4606 639.058C51.4606 639.583 54.3974 645.719 55.1376 646.722C55.4002 647.104 55.9016 647.916 56.2359 648.537C57.6446 651.139 58.337 652.309 59.7218 654.362C62.9928 659.281 63.6853 660.236 63.9001 660.093C64.0195 660.021 64.115 659.615 64.115 659.209C64.115 658.779 64.3538 657.968 64.6164 657.371C64.9984 656.559 65.1178 655.723 65.1656 653.909C65.2133 652.333 65.4043 650.829 65.7625 649.492C66.0729 648.369 66.3355 647.032 66.3833 646.507C66.431 645.982 66.5743 645.122 66.7414 644.597C66.8847 644.072 67.1712 642.663 67.3383 641.493C67.6965 639.034 68.0785 637.41 68.4366 636.67C68.6515 636.288 68.6276 635.667 68.4366 634.259C68.1979 632.587 68.1979 632.229 68.5799 631.202C69.0574 629.913 69.8215 629.364 70.6571 629.674C70.9436 629.77 71.5883 629.985 72.1136 630.152C72.8299 630.367 73.188 630.653 73.4745 631.25C74.0476 632.348 74.0237 632.539 73.3074 632.539C72.5911 632.539 72.3285 633.017 72.1613 634.688C72.0897 635.405 71.8032 636.479 71.5405 637.076C70.9198 638.437 70.9198 639.105 71.5167 639.869C71.8987 640.347 71.9942 640.848 71.9942 642.185C71.9942 643.857 72.806 650.518 73.0686 650.924C73.1403 651.044 73.3074 652.166 73.4268 653.431C73.5462 654.721 73.6894 655.819 73.7849 655.89C73.8565 655.962 74.3579 655.604 74.931 655.079C76.4829 653.622 76.7456 653.455 77.9394 653.312C78.9183 653.216 79.0377 653.121 79.1093 652.524C79.1571 652.166 79.3958 651.76 79.6585 651.64C80.4941 651.187 80.8762 650.041 80.6852 648.68C80.5896 648.011 80.5419 647.032 80.5658 646.507C80.5896 645.982 80.4464 644.215 80.2315 642.567C79.6585 638.007 79.2765 633.16 79.3003 630.558L79.3242 628.218L80.9717 626.547C81.879 625.615 83.1444 624.469 83.8129 623.992C87.9913 620.936 93.7693 615.922 94.2946 614.895C94.8438 613.797 95.8705 612.722 97.5895 611.361L98.9744 610.311V607.422C98.9744 603.936 98.6879 603.196 96.5629 600.903C95.1064 599.351 94.8199 598.516 95.3929 597.417C95.7749 596.725 96.5629 596.868 98.8789 598.038Z" fill="black" fill-opacity="0.9"/>
<path d="M323.15 361.174C321.497 361.435 321.208 361.58 319.816 362.942C318.802 363.928 317.874 364.508 316.772 364.884C315.903 365.174 314.656 365.696 314.019 366.044C313.207 366.508 312.685 366.624 312.279 366.479C311.961 366.334 311.352 366.218 310.917 366.218C310.192 366.189 309.989 366.45 308.656 369.146C307.728 371.059 306.888 373.349 306.337 375.552C305.844 377.436 305.148 379.581 304.772 380.335C304.395 381.089 303.728 382.857 303.293 384.306C302.858 385.727 302.134 387.901 301.699 389.089C301.235 390.307 300.771 392.104 300.655 393.147C300.51 394.452 300.221 395.321 299.699 396.046C297.873 398.539 296.829 399.64 295.612 400.336C292.539 402.104 290.22 404.25 289.379 406.163C288.944 407.119 288.365 407.931 287.988 408.076C287.64 408.25 287.321 408.685 287.263 409.09C287.205 409.496 287.031 409.931 286.886 410.076C286.741 410.25 286.625 410.598 286.625 410.859C286.625 411.525 285.756 411.728 281.466 412.134C280.596 412.221 279.784 412.366 279.611 412.453C279.118 412.743 274.161 411.902 274.161 411.525C274.161 410.917 272.972 409.67 271.32 408.54C270.364 407.902 269.349 406.887 268.943 406.192C268.537 405.525 266.972 403.061 265.436 400.742C262.073 395.64 261.841 394.858 263.117 392.944C264.508 390.857 264.189 390.133 262.508 391.553C261.059 392.77 260.827 392.568 260.827 390.133C260.827 388.944 260.711 387.901 260.595 387.814C260.073 387.495 259.725 388.161 259.522 389.872C259.406 390.886 259.232 391.698 259.087 391.698C258.971 391.698 258.566 390.886 258.218 389.872C257.406 387.727 257.087 387.205 256.681 387.611C256.507 387.785 256.594 388.625 256.913 389.959C257.203 391.089 257.348 392.075 257.29 392.162C257.203 392.22 256.652 391.582 256.044 390.683C254.913 389.06 254.623 388.857 254.304 389.408C253.986 389.901 254.391 390.944 255.464 392.51C256.015 393.35 256.478 394.336 256.478 394.742C256.478 395.553 255.754 396.017 255.232 395.495C255.058 395.321 254.478 395.176 253.957 395.176C253.145 395.176 253 395.263 253 395.901C253 396.423 253.203 396.655 253.783 396.8C254.217 396.916 255.406 397.379 256.392 397.843C257.377 398.278 258.45 398.655 258.74 398.655C259.493 398.655 260.769 400.539 261.406 402.684C262.16 405.09 263.204 407.032 264.276 408.076C264.769 408.54 265.32 409.409 265.465 409.989C265.639 410.569 266.276 411.699 266.914 412.511C267.697 413.497 268.073 414.25 268.073 414.859C268.073 415.758 267.465 416.105 267.059 415.468C266.972 415.294 266.595 415.178 266.218 415.178C265.87 415.178 265.436 415.033 265.233 414.83C265.059 414.656 264.131 414.395 263.233 414.279C262.305 414.134 261.145 413.96 260.653 413.873C259.957 413.728 259.522 413.902 258.45 414.743C257.029 415.787 256.623 416.656 256.363 418.946C256.276 419.671 256.131 420.801 256.015 421.468C255.725 423.41 257.058 424.918 258.16 423.816C258.392 423.584 258.769 423.758 259.667 424.541C260.305 425.149 261.116 425.613 261.464 425.613C261.783 425.613 262.479 425.932 262.972 426.28C263.783 426.918 264.015 426.947 265.61 426.715C266.566 426.57 267.668 426.454 268.016 426.454C268.479 426.425 269.001 426.019 269.61 425.149C270.103 424.454 270.653 423.874 270.827 423.874C271.001 423.874 271.987 424.338 273.03 424.889C275.813 426.367 278.625 427.353 280.045 427.353C281.437 427.353 286.394 425.874 288.365 424.889C289.698 424.222 291.292 423.033 293.235 421.323C293.814 420.801 295.09 419.99 296.075 419.526C298.713 418.25 301.003 415.96 304.047 411.583C307.902 406.018 308.366 405.09 308.685 402.481C309.265 397.698 310.656 394.887 312.424 394.887C313.12 394.887 313.41 394.626 314.309 393.147C315.439 391.292 316.628 390.22 318.077 389.756C318.599 389.582 318.976 389.263 319.033 388.886C319.178 387.843 318.338 387.495 315.497 387.466C311.758 387.437 311.7 387.379 312.627 385.379C314.946 380.248 315.323 379.697 318.657 376.19C320.483 374.276 321.99 372.508 321.99 372.247C321.99 371.986 321.787 371.61 321.555 371.407C320.715 370.711 321.063 369.522 322.715 367.435C324.86 364.798 325.179 364.45 326.425 363.493C327.672 362.565 327.701 362.334 326.918 361.551C326.338 360.971 325.121 360.855 323.15 361.174Z" fill="black" fill-opacity="0.9"/>
<path d="M216.847 469.447C212.692 471.018 208.537 473.741 206.756 476.116C205.918 477.233 204.626 478.35 203.509 478.979C201.763 479.991 198.691 482.889 198.691 483.553C198.691 483.727 200.471 485.578 202.636 487.673C207.699 492.596 208.642 494.272 209.654 500.277C209.794 501.15 209.654 501.569 209.096 502.093L208.362 502.791L209.619 506.039C210.283 507.819 211.121 510.298 211.435 511.52C212.273 514.837 214.438 519.586 217.161 524.09L219.57 528.14L220.234 533.448C220.618 536.45 220.758 538.79 220.583 538.79C220.408 538.79 218.418 537.638 216.184 536.206C213.914 534.774 211.225 533.343 210.178 532.994C209.131 532.68 207.978 532.121 207.594 531.807C207.21 531.457 206.337 531.108 205.674 530.969C203.195 530.515 200.855 528.978 195.409 524.335C188.914 518.748 188.53 518.434 187.378 518.608C186.784 518.678 185.807 518.154 184.061 516.828L181.582 514.977L182.664 513.755C183.223 513.092 183.677 512.393 183.607 512.184C183.537 511.974 182.909 511.625 182.21 511.381C180.22 510.717 177.147 507.54 176.309 505.305C175.925 504.258 175.052 502.756 174.354 502.023C173.132 500.662 173.132 500.592 173.342 498.322C173.481 497.065 173.656 495.389 173.761 494.621C173.9 493.539 173.795 492.98 173.132 492.037C172.678 491.374 171.98 490.71 171.526 490.571C170.513 490.187 169.501 491.199 167.615 494.446C165.451 498.252 164.752 500.487 164.543 504.572C164.403 507.819 164.263 508.343 163.425 509.53C162.657 510.578 162.413 511.416 162.203 513.511C162.064 514.977 162.099 516.304 162.273 516.478C162.483 516.688 172.259 518.189 173.621 518.189C173.726 518.189 174.284 518.573 174.843 519.027C175.402 519.516 176.275 520.005 176.763 520.11C177.252 520.249 178.614 521.332 179.836 522.554C181.931 524.684 182.036 524.858 181.652 525.696C181.407 526.22 181.337 526.814 181.477 527.058C181.652 527.337 182.943 528.455 184.375 529.607C185.807 530.759 188.321 532.819 189.962 534.216C191.603 535.578 194.431 537.603 196.247 538.685C205.01 543.818 205.429 544.132 210.003 548.671C212.448 551.115 215.276 553.734 216.288 554.467C219.117 556.597 219.326 556.981 221.037 562.812C221.875 565.745 223.306 567.561 226.204 569.411C227.427 570.214 228.265 571.052 228.579 571.82C229.137 573.182 229.242 576.15 228.718 576.15C227.182 576.15 222.189 572.554 216.253 567.107C211.61 562.882 210.143 561.066 209.515 558.692C209.026 556.807 207.35 553.455 206.931 553.455C206.756 553.455 206.756 554.293 206.861 555.27L207.105 557.121L205.604 555.724C202.811 553.105 202.252 552.686 201.833 552.931C201.589 553.07 201.903 553.734 202.776 554.781L204.103 556.422L202.077 554.746C200.925 553.839 199.878 553.105 199.738 553.105C198.76 553.105 199.214 554.083 200.855 555.619C202.566 557.26 202.357 557.26 199.878 555.689C199.284 555.27 198.9 555.2 198.656 555.445C198.411 555.689 198.795 556.248 199.878 557.156C201.658 558.622 201.728 559.041 200.087 558.168C198.132 557.156 198.167 557.819 200.157 559.32C201.24 560.124 202.427 561.206 202.811 561.73C203.195 562.288 204.557 563.266 205.814 563.894C207.874 564.907 208.537 565.536 211.889 569.621C218.209 577.372 219.291 578.839 219.291 579.607C219.291 580.061 219.71 580.584 220.443 581.003C222.049 581.946 224.878 584.251 224.878 584.6C224.878 585.193 223.272 584.809 220.129 583.447C216.742 581.946 211.505 578.07 208.153 574.614L206.582 573.042L206.547 569.97C206.477 566.688 205.744 564.279 204.836 564.279C204.417 564.279 204.382 564.663 204.522 566.199C204.801 568.922 204.103 568.748 201.624 565.396C199.564 562.672 198.795 561.834 198.272 561.834C197.748 561.834 197.992 562.777 198.9 564.418C199.424 565.326 199.738 566.129 199.668 566.199C199.598 566.304 198.691 565.501 197.643 564.418C195.374 562.079 194.536 561.555 194.117 562.218C193.907 562.568 194.571 563.475 196.351 565.291L198.865 567.875L196.456 566.234C195.164 565.361 193.837 564.628 193.593 564.628C192.58 564.628 193.174 565.605 195.409 567.561C196.666 568.678 197.608 569.656 197.538 569.76C197.434 569.83 196.735 569.586 195.932 569.202C194.256 568.329 194.152 568.329 194.152 568.957C194.152 569.237 194.675 569.83 195.304 570.284C197.294 571.681 208.537 581.457 212.098 584.879C213.984 586.695 216.079 588.894 216.707 589.767C217.336 590.64 218.698 591.897 219.745 592.561C222.678 594.446 234.375 602.232 235.178 602.826C235.841 603.315 235.841 603.35 234.759 603.594C234.13 603.699 233.432 604.048 233.223 604.292C233.013 604.572 232.524 604.781 232.175 604.781C231.721 604.781 231.512 605.026 231.512 605.514C231.512 605.898 231.058 606.632 230.499 607.155C229.94 607.679 229.382 608.657 229.242 609.32C229.103 609.984 228.753 610.717 228.474 610.926C228.055 611.206 227.985 611.729 228.16 613.196C228.265 614.243 228.404 615.57 228.474 616.129C228.579 617.7 232.594 622.623 233.467 622.344C233.711 622.274 234.34 622.623 234.933 623.112C235.492 623.601 236.19 623.985 236.435 623.985C236.679 623.985 237.168 624.264 237.552 624.613C238.181 625.172 238.251 625.172 239.228 623.985C239.787 623.322 240.45 622.763 240.695 622.763C241.218 622.763 243.977 620.528 245.897 618.573C249.947 614.383 250.297 613.929 251.204 611.171C251.693 609.669 252.112 608.343 252.112 608.203C252.112 608.063 251.309 607.54 250.366 607.051C248.306 606.003 248.062 605.514 247.748 601.778L247.503 599.02L248.97 596.75C252.741 590.78 253.369 588.44 252.636 583.133C252.357 581.108 251.973 578.175 251.798 576.604C251.169 571.471 250.297 569.481 242.126 554.153C241.253 552.512 240.031 550.626 239.403 549.963C238.704 549.23 238.146 548.217 238.006 547.414C237.657 545.529 235.702 539.628 233.886 534.949C233.013 532.749 232.035 529.991 231.686 528.839C231.372 527.687 230.744 526.115 230.325 525.347C229.906 524.579 229.242 523.182 228.893 522.24C228.509 521.157 227.636 519.9 226.589 518.853C225.646 517.98 224.878 517.002 224.878 516.723C224.878 516.409 224.389 515.606 223.83 514.872C223.237 514.139 222.503 512.673 222.224 511.59C221.177 508.064 217.929 500.382 216.882 499.055C216.114 498.078 214.403 494.027 214.403 493.189C214.403 493.155 214.962 492.805 215.625 492.386C216.777 491.723 216.847 491.583 216.847 489.803C216.847 488.546 216.672 487.743 216.323 487.463C215.346 486.66 215.136 484.879 215.66 481.458C216.393 476.569 216.463 476.36 218.104 474.509C219.815 472.589 220.234 471.402 219.78 470.04C219.396 468.993 218.558 468.818 216.847 469.447Z" fill="black" fill-opacity="0.9"/>
</svg>
