<svg width="428" height="926" viewBox="0 0 428 926" fill="none" xmlns="http://www.w3.org/2000/svg">
<path d="M204.567 356.804C195.414 360.265 186.261 366.265 182.338 371.495C180.492 373.956 177.646 376.418 175.185 377.802C171.339 380.033 164.57 386.417 164.57 387.879C164.57 388.263 168.493 392.34 173.262 396.955C184.415 407.801 186.492 411.493 188.722 424.723C189.03 426.646 188.722 427.569 187.492 428.723L185.876 430.261L188.645 437.414C190.107 441.337 191.953 446.798 192.645 449.491C194.491 456.798 199.26 467.259 205.26 477.181L210.567 486.104L212.029 497.795C212.875 504.41 213.182 509.564 212.798 509.564C212.413 509.564 208.029 507.026 203.106 503.872C198.106 500.718 192.184 497.565 189.876 496.796C187.568 496.103 185.03 494.873 184.184 494.18C183.338 493.411 181.415 492.642 179.954 492.334C174.492 491.334 169.339 487.95 157.339 477.72C143.033 465.413 142.186 464.72 139.648 465.105C138.341 465.259 136.187 464.105 132.341 461.182L126.88 457.106L129.264 454.413C130.495 452.952 131.495 451.414 131.341 450.952C131.187 450.491 129.803 449.721 128.264 449.183C123.88 447.721 117.111 440.722 115.265 435.799C114.419 433.491 112.496 430.184 110.958 428.569C108.265 425.569 108.265 425.415 108.727 420.415C109.035 417.646 109.419 413.954 109.65 412.262C109.958 409.877 109.727 408.647 108.265 406.57C107.265 405.109 105.727 403.647 104.727 403.339C102.496 402.493 100.266 404.724 96.1122 411.877C91.3433 420.261 89.8049 425.184 89.3434 434.184C89.0357 441.337 88.728 442.491 86.882 445.106C85.1898 447.414 84.6514 449.26 84.1898 453.875C83.8822 457.106 83.9591 460.028 84.3437 460.413C84.8052 460.875 106.342 464.182 109.342 464.182C109.573 464.182 110.804 465.028 112.034 466.028C113.265 467.105 115.188 468.182 116.265 468.413C117.342 468.72 120.342 471.105 123.034 473.797C127.649 478.489 127.88 478.873 127.034 480.72C126.495 481.873 126.341 483.181 126.649 483.719C127.034 484.335 129.88 486.796 133.033 489.334C136.187 491.873 141.725 496.411 145.34 499.488C148.955 502.487 155.186 506.949 159.186 509.333C178.492 520.64 179.415 521.333 189.491 531.332C194.876 536.716 201.106 542.485 203.337 544.1C209.567 548.793 210.029 549.639 213.798 562.484C215.644 568.945 218.797 572.945 225.182 577.022C227.874 578.791 229.72 580.637 230.412 582.329C231.643 585.329 231.874 591.867 230.72 591.867C227.335 591.867 216.336 583.944 203.26 571.945C193.03 562.638 189.799 558.638 188.415 553.408C187.338 549.254 183.646 541.87 182.723 541.87C182.338 541.87 182.338 543.716 182.569 545.87L183.107 549.946L179.8 546.87C173.646 541.101 172.416 540.178 171.492 540.716C170.954 541.024 171.646 542.485 173.569 544.793L176.492 548.408L172.031 544.716C169.493 542.716 167.185 541.101 166.877 541.101C164.724 541.101 165.724 543.254 169.339 546.639C173.108 550.254 172.646 550.254 167.185 546.793C165.877 545.87 165.031 545.716 164.493 546.254C163.954 546.793 164.801 548.023 167.185 550.023C171.108 553.254 171.262 554.177 167.647 552.254C163.339 550.023 163.416 551.485 167.8 554.792C170.185 556.561 172.8 558.946 173.646 560.1C174.492 561.33 177.492 563.484 180.261 564.868C184.799 567.099 186.261 568.484 193.645 577.483C207.567 594.559 209.952 597.79 209.952 599.482C209.952 600.482 210.875 601.636 212.49 602.559C216.028 604.635 222.259 609.712 222.259 610.481C222.259 611.789 218.721 610.943 211.798 607.943C204.337 604.635 192.799 596.097 185.415 588.483L181.953 585.021L181.876 578.252C181.723 571.022 180.107 565.715 178.107 565.715C177.184 565.715 177.108 566.561 177.415 569.945C178.031 575.945 176.492 575.56 171.031 568.176C166.493 562.176 164.801 560.33 163.647 560.33C162.493 560.33 163.031 562.407 165.031 566.022C166.185 568.022 166.877 569.791 166.724 569.945C166.57 570.176 164.57 568.407 162.262 566.022C157.263 560.869 155.416 559.715 154.493 561.176C154.032 561.946 155.493 563.945 159.416 567.945L164.954 573.637L159.647 570.022C156.801 568.099 153.878 566.484 153.34 566.484C151.109 566.484 152.417 568.638 157.339 572.945C160.109 575.406 162.185 577.56 162.031 577.791C161.801 577.945 160.262 577.406 158.493 576.56C154.801 574.637 154.57 574.637 154.57 576.022C154.57 576.637 155.724 577.945 157.109 578.945C161.493 582.021 186.261 603.559 194.107 611.097C198.26 615.096 202.875 619.942 204.26 621.865C205.644 623.788 208.644 626.557 210.952 628.019C217.413 632.172 243.181 649.325 244.95 650.633C246.411 651.71 246.411 651.787 244.027 652.325C242.642 652.556 241.104 653.325 240.642 653.863C240.181 654.479 239.104 654.94 238.335 654.94C237.335 654.94 236.873 655.479 236.873 656.556C236.873 657.402 235.873 659.017 234.643 660.171C233.412 661.324 232.181 663.478 231.874 664.94C231.566 666.401 230.797 668.016 230.181 668.478C229.258 669.093 229.105 670.247 229.489 673.478C229.72 675.785 230.028 678.708 230.181 679.939C230.412 683.4 239.258 694.246 241.181 693.63C241.719 693.476 243.104 694.246 244.411 695.322C245.642 696.399 247.18 697.245 247.719 697.245C248.257 697.245 249.334 697.861 250.18 698.63C251.565 699.861 251.719 699.861 253.872 697.245C255.103 695.784 256.564 694.553 257.103 694.553C258.257 694.553 264.333 689.631 268.564 685.323C277.486 676.093 278.256 675.093 280.255 669.016C281.332 665.709 282.255 662.786 282.255 662.478C282.255 662.171 280.486 661.017 278.409 659.94C273.871 657.632 273.333 656.556 272.64 648.325L272.102 642.249L275.333 637.249C283.64 624.096 285.024 618.942 283.409 607.251C282.794 602.789 281.948 596.328 281.563 592.867C280.179 581.56 278.256 577.175 260.257 543.408C258.334 539.793 255.641 535.639 254.257 534.178C252.719 532.563 251.488 530.332 251.18 528.563C250.411 524.409 246.104 511.41 242.104 501.103C240.181 496.257 238.027 490.181 237.258 487.642C236.566 485.104 235.181 481.643 234.258 479.95C233.335 478.258 231.874 475.181 231.104 473.105C230.258 470.72 228.335 467.951 226.028 465.643C223.951 463.721 222.259 461.567 222.259 460.951C222.259 460.259 221.182 458.49 219.951 456.875C218.644 455.259 217.028 452.029 216.413 449.644C214.105 441.876 206.952 424.954 204.644 422.031C202.952 419.877 199.183 410.954 199.183 409.108C199.183 409.031 200.414 408.262 201.875 407.339C204.414 405.878 204.567 405.57 204.567 401.647C204.567 398.878 204.183 397.109 203.414 396.494C201.26 394.725 200.798 390.802 201.952 383.264C203.568 372.495 203.721 372.034 207.337 367.957C211.106 363.726 212.029 361.111 211.029 358.111C210.183 355.804 208.337 355.419 204.567 356.804Z" fill="black" fill-opacity="0.9"/>
</svg>
