<svg width="428" height="926" viewBox="0 0 428 926" fill="none" xmlns="http://www.w3.org/2000/svg">
<path d="M224.567 356.804C215.414 360.265 206.261 366.265 202.338 371.495C200.492 373.956 197.646 376.418 195.185 377.802C191.339 380.033 184.57 386.417 184.57 387.879C184.57 388.263 188.493 392.34 193.262 396.955C204.415 407.801 206.492 411.493 208.722 424.723C209.03 426.646 208.722 427.569 207.492 428.723L205.876 430.261L208.645 437.414C210.107 441.337 211.953 446.798 212.645 449.491C214.491 456.798 219.26 467.259 225.26 477.181L230.567 486.104L232.029 497.795C232.875 504.41 233.182 509.564 232.798 509.564C232.413 509.564 228.029 507.026 223.106 503.872C218.106 500.718 212.184 497.565 209.876 496.796C207.568 496.103 205.03 494.873 204.184 494.18C203.338 493.411 201.415 492.642 199.954 492.334C194.492 491.334 189.339 487.95 177.339 477.72C163.033 465.413 162.186 464.72 159.648 465.105C158.341 465.259 156.187 464.105 152.341 461.182L146.88 457.106L149.264 454.413C150.495 452.952 151.495 451.414 151.341 450.952C151.187 450.491 149.803 449.721 148.264 449.183C143.88 447.721 137.111 440.722 135.265 435.799C134.419 433.491 132.496 430.184 130.958 428.569C128.265 425.569 128.265 425.415 128.727 420.415C129.035 417.646 129.419 413.954 129.65 412.262C129.958 409.877 129.727 408.647 128.265 406.57C127.265 405.109 125.727 403.647 124.727 403.339C122.496 402.493 120.266 404.724 116.112 411.877C111.343 420.261 109.805 425.184 109.343 434.184C109.036 441.337 108.728 442.491 106.882 445.106C105.19 447.414 104.651 449.26 104.19 453.875C103.882 457.106 103.959 460.028 104.344 460.413C104.805 460.875 126.342 464.182 129.342 464.182C129.573 464.182 130.804 465.028 132.034 466.028C133.265 467.105 135.188 468.182 136.265 468.413C137.342 468.72 140.342 471.105 143.034 473.797C147.649 478.489 147.88 478.873 147.034 480.72C146.495 481.873 146.341 483.181 146.649 483.719C147.034 484.335 149.88 486.796 153.033 489.334C156.187 491.873 161.725 496.411 165.34 499.488C168.955 502.487 175.186 506.949 179.186 509.333C198.492 520.64 199.415 521.333 209.491 531.332C214.876 536.716 221.106 542.485 223.337 544.1C229.567 548.793 230.029 549.639 233.798 562.484C235.644 568.945 238.797 572.945 245.182 577.022C247.874 578.791 249.72 580.637 250.412 582.329C251.643 585.329 251.874 591.867 250.72 591.867C247.335 591.867 236.336 583.944 223.26 571.945C213.03 562.638 209.799 558.638 208.415 553.408C207.338 549.254 203.646 541.87 202.723 541.87C202.338 541.87 202.338 543.716 202.569 545.87L203.107 549.946L199.8 546.87C193.646 541.101 192.416 540.178 191.492 540.716C190.954 541.024 191.646 542.485 193.569 544.793L196.492 548.408L192.031 544.716C189.493 542.716 187.185 541.101 186.877 541.101C184.724 541.101 185.724 543.254 189.339 546.639C193.108 550.254 192.646 550.254 187.185 546.793C185.877 545.87 185.031 545.716 184.493 546.254C183.954 546.793 184.801 548.023 187.185 550.023C191.108 553.254 191.262 554.177 187.647 552.254C183.339 550.023 183.416 551.485 187.8 554.792C190.185 556.561 192.8 558.946 193.646 560.1C194.492 561.33 197.492 563.484 200.261 564.868C204.799 567.099 206.261 568.484 213.645 577.483C227.567 594.559 229.952 597.79 229.952 599.482C229.952 600.482 230.875 601.636 232.49 602.559C236.028 604.635 242.259 609.712 242.259 610.481C242.259 611.789 238.721 610.943 231.798 607.943C224.337 604.635 212.799 596.097 205.415 588.483L201.953 585.021L201.876 578.252C201.723 571.022 200.107 565.715 198.107 565.715C197.184 565.715 197.108 566.561 197.415 569.945C198.031 575.945 196.492 575.56 191.031 568.176C186.493 562.176 184.801 560.33 183.647 560.33C182.493 560.33 183.031 562.407 185.031 566.022C186.185 568.022 186.877 569.791 186.724 569.945C186.57 570.176 184.57 568.407 182.262 566.022C177.263 560.869 175.416 559.715 174.493 561.176C174.032 561.946 175.493 563.945 179.416 567.945L184.954 573.637L179.647 570.022C176.801 568.099 173.878 566.484 173.34 566.484C171.109 566.484 172.417 568.638 177.339 572.945C180.109 575.406 182.185 577.56 182.031 577.791C181.801 577.945 180.262 577.406 178.493 576.56C174.801 574.637 174.57 574.637 174.57 576.022C174.57 576.637 175.724 577.945 177.109 578.945C181.493 582.021 206.261 603.559 214.107 611.097C218.26 615.096 222.875 619.942 224.26 621.865C225.644 623.788 228.644 626.557 230.952 628.019C237.413 632.172 263.181 649.325 264.95 650.633C266.411 651.71 266.411 651.787 264.027 652.325C262.642 652.556 261.104 653.325 260.642 653.863C260.181 654.479 259.104 654.94 258.335 654.94C257.335 654.94 256.873 655.479 256.873 656.556C256.873 657.402 255.873 659.017 254.643 660.171C253.412 661.324 252.181 663.478 251.874 664.94C251.566 666.401 250.797 668.016 250.181 668.478C249.258 669.093 249.105 670.247 249.489 673.478C249.72 675.785 250.028 678.708 250.181 679.939C250.412 683.4 259.258 694.246 261.181 693.63C261.719 693.476 263.104 694.246 264.411 695.322C265.642 696.399 267.18 697.245 267.719 697.245C268.257 697.245 269.334 697.861 270.18 698.63C271.565 699.861 271.719 699.861 273.872 697.245C275.103 695.784 276.564 694.553 277.103 694.553C278.257 694.553 284.333 689.631 288.564 685.323C297.486 676.093 298.256 675.093 300.255 669.016C301.332 665.709 302.255 662.786 302.255 662.478C302.255 662.171 300.486 661.017 298.409 659.94C293.871 657.632 293.333 656.556 292.64 648.325L292.102 642.249L295.333 637.249C303.64 624.096 305.024 618.942 303.409 607.251C302.794 602.789 301.948 596.328 301.563 592.867C300.179 581.56 298.256 577.175 280.257 543.408C278.334 539.793 275.641 535.639 274.257 534.178C272.719 532.563 271.488 530.332 271.18 528.563C270.411 524.409 266.104 511.41 262.104 501.103C260.181 496.257 258.027 490.181 257.258 487.642C256.566 485.104 255.181 481.643 254.258 479.95C253.335 478.258 251.874 475.181 251.104 473.105C250.258 470.72 248.335 467.951 246.028 465.643C243.951 463.721 242.259 461.567 242.259 460.951C242.259 460.259 241.182 458.49 239.951 456.875C238.644 455.259 237.028 452.029 236.413 449.644C234.105 441.876 226.952 424.954 224.644 422.031C222.952 419.877 219.183 410.954 219.183 409.108C219.183 409.031 220.414 408.262 221.875 407.339C224.414 405.878 224.567 405.57 224.567 401.647C224.567 398.878 224.183 397.109 223.414 396.494C221.26 394.725 220.798 390.802 221.952 383.264C223.568 372.495 223.721 372.034 227.337 367.957C231.106 363.726 232.029 361.111 231.029 358.111C230.183 355.804 228.337 355.419 224.567 356.804Z" fill="black" fill-opacity="0.9"/>
</svg>
