<svg width="428" height="926" viewBox="0 0 428 926" fill="none" xmlns="http://www.w3.org/2000/svg">
<g clip-path="url(#clip0_19_58)">
<rect width="428" height="926" fill="white"/>
<path d="M325.728 28.4876C325.008 29.5111 325.159 29.7765 326.865 30.0797C328.343 30.383 329.291 29.8902 329.291 28.7909C329.291 27.4641 326.6 27.1987 325.728 28.4876ZM328.723 28.9804C328.723 29.6248 328.495 29.7386 327.434 29.6248C325.879 29.5111 325.728 29.3974 326.031 28.6013C326.372 27.6536 328.723 27.9948 328.723 28.9804Z" fill="black"/>
<path d="M245.857 29.0562C245.364 29.6628 245.402 29.7007 246.009 29.2079C246.615 28.7151 246.805 28.4118 246.502 28.4118C246.426 28.4118 246.122 28.7151 245.857 29.0562Z" fill="black"/>
<path d="M248.548 28.5634C248.548 28.6393 248.852 28.9425 249.231 29.2079C249.799 29.7007 249.837 29.6628 249.344 29.0562C248.852 28.4497 248.548 28.2602 248.548 28.5634Z" fill="black"/>
<path d="M250.254 31.4445C250.14 31.6719 250.292 31.7098 250.595 31.5961C251.277 31.3308 251.391 31.0654 250.86 31.0654C250.633 31.0654 250.368 31.217 250.254 31.4445Z" fill="black"/>
<path d="M247.335 32.468C247.563 32.5439 248.018 32.5439 248.283 32.468C248.511 32.3543 248.321 32.2785 247.79 32.2785C247.26 32.2785 247.07 32.3543 247.335 32.468Z" fill="black"/>
<path d="M133.082 38.457C132.931 38.7602 132.969 39.4426 133.082 39.9354C133.272 40.6935 133.575 40.8831 135.016 40.9968C136.646 41.1105 136.722 41.0726 136.722 40.087C136.722 39.0256 136.191 38.5707 134.333 38.1158C133.575 37.9263 133.234 38.04 133.082 38.457Z" fill="black"/>
<path d="M360.375 68.3663C359.883 70.1859 360.224 71.2473 361.323 71.2473C362.119 71.2473 363.067 69.3898 362.953 68.101C362.877 67.1154 362.65 66.85 361.854 66.7742C360.982 66.6605 360.83 66.85 360.375 68.3663Z" fill="black"/>
<path d="M73.3776 75.8719C74.5528 77.4261 71.8992 78.0327 70.2692 76.6301C69.6627 76.0615 69.6248 76.0994 69.8522 76.668C69.9659 77.0471 70.5346 77.4261 71.1032 77.5399C71.6339 77.6536 72.392 77.8431 72.7332 77.9189C73.1123 78.0327 73.5293 77.7673 73.7946 77.2745C74.1737 76.6301 74.1358 76.3647 73.5672 75.834C72.9227 75.2654 72.9227 75.2654 73.3776 75.8719Z" fill="black"/>
<path d="M108.67 81.0654C108.67 82.0509 108.822 82.2405 109.542 82.2026C110.148 82.1647 110.224 82.1268 109.731 81.9751C109.352 81.8993 109.049 81.4823 109.049 81.0654C109.049 80.0039 110.452 80.1177 110.679 81.1791C110.869 81.9372 110.869 81.9372 110.831 81.1033C110.755 80.383 110.527 80.1177 109.731 80.0418C108.784 79.9281 108.67 80.0418 108.67 81.0654Z" fill="black"/>
<path d="M230.921 85.3868C230.466 86.107 230.428 86.524 230.769 87.5096L231.186 88.7227L233.726 88.6089C236.683 88.4573 237.024 87.9266 235.47 85.8417C234.598 84.7424 234.181 84.5149 232.968 84.5149C231.869 84.5149 231.376 84.7424 230.921 85.3868Z" fill="black"/>
<path d="M110.527 93.4989C110.034 94.1054 110.072 94.1433 110.679 93.6505C111.02 93.3851 111.323 93.0819 111.323 93.0061C111.323 92.7028 111.02 92.8923 110.527 93.4989Z" fill="black"/>
<path d="M113.939 95.0152C113.446 95.6217 113.484 95.6596 114.091 95.1669C114.697 94.6741 114.887 94.3708 114.584 94.3708C114.508 94.3708 114.204 94.6741 113.939 95.0152Z" fill="black"/>
<path d="M109.049 96.6453C109.049 96.8349 109.238 97.0244 109.466 97.0244C109.655 97.0244 109.731 96.8349 109.617 96.6453C109.504 96.4179 109.314 96.2663 109.2 96.2663C109.125 96.2663 109.049 96.4179 109.049 96.6453Z" fill="black"/>
<path d="M58.8589 97.7447C58.0249 98.6545 58.1766 100.777 59.0864 101.346C59.5412 101.611 60.072 101.611 60.7922 101.346C61.7399 101.005 61.8536 100.815 61.7778 99.5263C61.6262 97.1003 60.2236 96.2284 58.8589 97.7447Z" fill="black"/>
<path d="M304.803 108.549C304.045 110.52 305.675 111.733 307.229 110.292C308.215 109.345 308.291 108.928 307.457 108.624C306.926 108.435 306.888 108.473 307.267 108.928C307.646 109.345 307.532 109.572 306.85 110.065C305.561 110.975 305.031 110.823 305.031 109.572C305.031 108.7 305.22 108.397 305.902 108.283L306.736 108.132L305.865 108.056C305.41 108.056 304.917 108.245 304.803 108.549Z" fill="black"/>
<path d="M393.886 110.444C393.204 110.975 393.204 111.088 393.734 112.074C394.227 112.908 394.606 113.135 395.63 113.135C396.615 113.135 396.957 112.946 396.994 112.453C397.032 111.998 397.032 111.96 396.881 112.377C396.502 113.628 393.734 112.642 393.734 111.24C393.734 110.178 396.16 109.951 396.729 110.937C397.07 111.543 397.108 111.543 397.146 111.012C397.146 109.875 395.137 109.534 393.886 110.444Z" fill="black"/>
<path d="M359.997 112.339C359.997 113.211 360.414 114.083 360.868 114.083C361.134 114.083 361.134 113.931 360.831 113.628C360.072 112.87 360.3 112.112 361.248 112.263C361.854 112.339 362.081 112.605 362.044 113.211C362.044 113.704 362.157 114.083 362.347 114.083C362.802 114.083 362.726 112.794 362.195 112.263C361.551 111.619 359.997 111.695 359.997 112.339Z" fill="black"/>
<path d="M278.344 116.774C277.813 117.419 277.358 118.177 277.358 118.48C277.358 119.162 278.874 119.162 281.073 118.518C282.438 118.101 282.627 117.949 282.21 117.456C281.679 116.774 279.974 115.599 279.594 115.599C279.443 115.599 278.874 116.13 278.344 116.774Z" fill="black"/>
<path d="M63.446 116.244C62.8774 116.812 63.1806 119.276 63.9388 119.958C64.3557 120.338 64.6969 120.868 64.6969 121.096C64.6969 121.361 64.3557 122.005 63.9388 122.536C62.9532 123.787 62.9911 124.469 64.0904 125.19C64.8865 125.72 65.076 125.72 66.1753 125.038C67.1609 124.432 67.3504 124.09 67.3504 122.915C67.3504 122.119 66.9335 120.679 66.4028 119.693C65.8721 118.708 65.4551 117.57 65.4551 117.191C65.4551 116.244 64.0525 115.599 63.446 116.244ZM65.076 117.419C65.076 117.684 65.4172 118.594 65.8721 119.466C66.9714 121.626 67.1609 123.484 66.3649 124.356C65.5688 125.228 64.5832 125.266 63.9388 124.507C63.5597 124.052 63.5976 123.749 64.1662 122.915C65.3413 121.209 65.4172 120.413 64.4695 119.655C63.3702 118.821 63.3322 116.888 64.3557 116.888C64.7727 116.888 65.076 117.115 65.076 117.419Z" fill="black"/>
<path d="M65.4553 121.816C65.4553 121.892 65.7586 122.195 66.1377 122.46C66.7063 122.953 66.7442 122.915 66.2514 122.309C65.7586 121.702 65.4553 121.513 65.4553 121.816Z" fill="black"/>
<path d="M65.0003 122.688C65.3793 122.84 65.3793 122.991 65.0003 123.484C64.5454 124.053 64.5833 124.091 65.1519 123.598C65.8721 123.067 65.7205 122.385 64.9624 122.46C64.6591 122.46 64.6591 122.536 65.0003 122.688Z" fill="black"/>
<path d="M144.872 116.585C143.848 117.608 144.303 118.783 145.743 118.935C147.108 119.087 147.563 118.442 147.184 116.926C146.919 115.827 145.819 115.675 144.872 116.585Z" fill="black"/>
<path d="M132.817 119.162C131.983 120.375 132.021 120.868 132.893 122.043C133.575 122.877 133.727 122.915 134.561 122.46C135.091 122.157 135.736 121.437 136.001 120.83C136.532 119.542 136.077 118.859 134.409 118.442C133.651 118.253 133.31 118.404 132.817 119.162Z" fill="black"/>
<path d="M247.298 118.48C246.843 118.973 246.994 122.309 247.525 122.726C248.283 123.37 250.444 121.93 250.444 120.755C250.444 119.845 249.572 118.632 248.928 118.632C248.738 118.632 248.359 118.556 248.094 118.442C247.79 118.329 247.449 118.366 247.298 118.48ZM249.686 119.579C250.33 120.338 249.837 121.93 248.89 122.233C247.79 122.574 247.487 122.119 247.677 120.413C247.904 118.897 248.776 118.518 249.686 119.579Z" fill="black"/>
<path d="M143.772 129.852C143.431 130.156 143.166 130.573 143.166 130.762C143.166 131.331 144.682 131.937 145.44 131.71C146.426 131.407 146.426 130.156 145.478 129.625C144.53 129.132 144.454 129.132 143.772 129.852ZM145.478 130.231C145.857 130.724 145.857 130.876 145.478 131.141C144.947 131.444 143.545 131.217 143.545 130.8C143.545 130.459 144.379 129.625 144.72 129.625C144.871 129.625 145.175 129.89 145.478 130.231Z" fill="black"/>
<path d="M253.021 136.335C252.111 136.562 252.149 137.851 253.059 138.154C254.158 138.495 255.03 137.965 254.916 137.055C254.803 136.259 254.196 135.993 253.021 136.335ZM254.613 136.979C254.613 137.661 253.438 138.078 252.945 137.586C252.642 137.282 252.68 137.055 253.097 136.827C253.931 136.297 254.613 136.372 254.613 136.979Z" fill="black"/>
<path d="M320.193 139.064C320.193 140.353 320.307 141.376 320.421 141.376C320.572 141.376 321.331 141.187 322.127 140.922C323.15 140.656 323.605 140.277 323.605 139.822C323.605 138.647 322.771 137.207 322.051 137.207C321.71 137.207 321.141 137.093 320.8 136.979C320.269 136.79 320.193 137.093 320.193 139.064ZM322.847 138.306C323.491 139.557 323.264 140.088 321.899 140.505L320.572 140.922V139.254C320.572 137.737 320.648 137.586 321.52 137.586C322.051 137.586 322.619 137.889 322.847 138.306Z" fill="black"/>
<path d="M75.5386 140.58C74.97 141.225 74.9321 141.452 75.3112 141.945C76.4484 143.31 78.6091 142.135 77.6993 140.656C77.1307 139.746 76.2968 139.746 75.5386 140.58Z" fill="black"/>
<path d="M365.228 140.884C364.924 142.097 365.341 142.514 366.858 142.514C368.147 142.514 368.336 142.4 368.336 141.604C368.336 140.922 368.071 140.656 367.161 140.467C365.493 140.125 365.417 140.163 365.228 140.884Z" fill="black"/>
<path d="M371.444 145.243C370.61 146.077 370.913 147.062 371.975 147.062C372.809 147.062 372.923 146.911 372.809 146.039C372.695 144.902 372.127 144.561 371.444 145.243Z" fill="black"/>
<path d="M142.028 148.086C142.028 148.427 142.142 148.579 142.256 148.465C142.9 147.858 143.886 149.034 144.037 150.588L144.189 152.18L144.227 150.474C144.303 148.958 144.189 148.692 143.166 148.124C142.142 147.517 142.028 147.517 142.028 148.086Z" fill="black"/>
<path d="M141.801 152.521C141.839 154.189 141.99 154.795 142.407 154.909C142.786 155.023 142.824 154.985 142.521 154.757C142.294 154.568 141.99 153.507 141.915 152.369L141.763 150.284L141.801 152.521Z" fill="black"/>
<path d="M143.621 154.492C143.356 154.796 143.318 155.023 143.507 155.023C143.886 155.023 144.455 154.303 144.265 154.075C144.189 154.037 143.886 154.189 143.621 154.492Z" fill="black"/>
<path d="M121.672 156.388C121.331 157.297 122.051 158.965 122.81 159.117C123.568 159.269 124.364 157.563 124.023 156.501C123.719 155.592 122.013 155.516 121.672 156.388Z" fill="black"/>
<path d="M252.225 156.047C252.074 156.16 251.96 156.464 251.96 156.691C251.96 156.918 252.112 156.88 252.301 156.577C252.794 155.819 254.007 156.35 253.666 157.222C253.476 157.714 253.514 157.752 253.893 157.411C254.272 157.032 254.234 156.843 253.855 156.35C253.363 155.743 252.642 155.592 252.225 156.047Z" fill="black"/>
<path d="M18.4493 158.018C17.5016 159.799 18.3735 162.225 19.8898 162.225C21.2924 162.225 21.6714 161.505 21.5577 159.117C21.4819 158.359 21.1786 158.018 20.3068 157.714C18.7905 157.184 18.9421 157.184 18.4493 158.018ZM20.0035 159.458C20.4963 160.065 20.4584 160.103 19.8898 159.61C19.2453 159.117 19.0558 158.814 19.3591 158.814C19.4349 158.814 19.7381 159.117 20.0035 159.458ZM20.2689 161.657C20.1551 161.77 19.9277 161.581 19.814 161.202C19.5865 160.671 19.6244 160.633 20.0035 160.974C20.2689 161.24 20.3826 161.543 20.2689 161.657Z" fill="black"/>
<path d="M142.028 158.359C142.028 158.548 142.294 158.7 142.597 158.7C142.9 158.7 143.052 158.548 142.938 158.359C142.824 158.207 142.597 158.056 142.369 158.056C142.18 158.056 142.028 158.207 142.028 158.359Z" fill="black"/>
<path d="M142.18 160.557C141.498 161.088 141.498 161.126 142.332 160.709C142.787 160.482 143.166 160.216 143.166 160.14C143.166 159.837 142.976 159.913 142.18 160.557Z" fill="black"/>
<path d="M127.813 161.05C127.51 162.036 127.927 162.87 128.799 163.098C129.822 163.363 130.618 161.771 129.898 160.899C129.253 160.103 128.116 160.179 127.813 161.05ZM128.874 162.036C128.609 162.832 128.42 162.756 128.495 161.884C128.495 161.467 128.685 161.202 128.837 161.316C128.988 161.43 129.026 161.733 128.874 162.036Z" fill="black"/>
<path d="M149.61 163.514C149.383 163.818 148.625 164.159 147.98 164.235L146.767 164.386L147.942 164.424C148.7 164.462 149.345 164.235 149.8 163.742C150.179 163.325 150.406 162.984 150.292 162.984C150.179 162.984 149.876 163.211 149.61 163.514Z" fill="black"/>
<path d="M277.055 163.969C275.917 164.766 276.069 166.168 277.282 166.32C278.116 166.433 279.632 165.486 279.632 164.841C279.632 164.462 278.533 163.363 278.192 163.363C278.04 163.363 277.509 163.628 277.055 163.969Z" fill="black"/>
<path d="M282.362 164.576C281.755 165.182 281.793 167.646 282.437 169.2C282.968 170.489 284.826 172.195 285.356 171.892C285.508 171.778 286.342 171.968 287.176 172.309C288.616 172.878 288.806 172.878 289.716 172.309C290.663 171.664 291.384 170.3 291.156 169.617C290.929 169.087 287.82 167.153 287.176 167.191C286.873 167.191 287.024 167.343 287.517 167.533C288.01 167.76 288.958 168.329 289.678 168.897C290.929 169.845 290.967 169.921 290.436 170.944C289.791 172.157 289.261 172.423 287.972 172.081C287.024 171.854 287.024 171.854 287.82 171.399C289.299 170.603 289.147 169.959 286.721 167.457C283.992 164.614 283.006 163.931 282.362 164.576Z" fill="black"/>
<path d="M251.808 168.139C251.505 168.973 251.922 170.49 252.567 170.717C254.045 171.286 255.106 169.466 254.007 168.253C253.211 167.381 252.112 167.305 251.808 168.139Z" fill="black"/>
<path d="M232.437 173.749C231.376 174.811 231.3 175.19 231.869 176.289C232.703 177.806 235.47 176.782 235.205 175.076C235.129 174.583 234.901 174.204 234.636 174.242C234.409 174.28 234.257 174.053 234.295 173.712C234.371 172.726 233.461 172.726 232.437 173.749Z" fill="black"/>
<path d="M73.7949 176.971C73.7949 177.199 73.9466 177.464 74.174 177.578C74.4014 177.692 74.4394 177.54 74.3256 177.237C74.0603 176.554 73.7949 176.441 73.7949 176.971Z" fill="black"/>
<path d="M124.212 189.026C123.681 189.292 122.885 189.519 122.43 189.519C121.672 189.519 121.558 189.709 121.558 190.846C121.558 191.869 121.71 192.173 122.241 192.135C122.62 192.135 122.696 192.021 122.43 191.907C122.165 191.831 121.937 191.301 121.937 190.808C121.937 190.125 122.127 189.898 122.809 189.898C123.264 189.898 124.06 189.633 124.515 189.292C125.273 188.761 125.539 188.837 125.387 189.633C125.349 189.822 125.501 189.86 125.728 189.709C126.941 188.95 125.539 188.306 124.212 189.026Z" fill="black"/>
<path d="M123.795 190.921L122.885 191.983L123.947 191.073C124.894 190.201 125.16 189.898 124.856 189.898C124.781 189.898 124.326 190.353 123.795 190.921Z" fill="black"/>
<path d="M66.5924 193.689C66.0996 193.992 66.1375 194.068 66.7061 194.068C67.2747 194.068 67.3884 194.333 67.2747 195.281C67.161 196.456 67.0473 196.532 65.5689 196.646C64.1284 196.759 63.9389 196.684 63.7114 195.812C63.5977 195.281 63.5598 194.561 63.7114 194.258C63.8251 193.954 63.7493 193.689 63.5598 193.689C63.067 193.689 63.067 195.433 63.5598 196.38C63.8251 196.873 64.3558 197.101 65.2656 197.101C67.2368 197.101 67.7296 196.759 67.7296 195.433C67.7296 193.878 67.3126 193.234 66.5924 193.689Z" fill="black"/>
<path d="M159.731 193.954C159.238 194.409 159.466 195.546 160.148 195.925C160.868 196.304 162.877 196.039 162.877 195.584C162.877 195.129 160.982 193.689 160.413 193.689C160.186 193.689 159.845 193.803 159.731 193.954Z" fill="black"/>
<path d="M282.665 200.626C282.058 200.929 281.679 201.498 281.603 202.18C281.414 203.696 281.982 204.151 283.385 203.545C284.674 203.014 284.674 203.09 284.067 201.384C283.65 200.247 283.537 200.171 282.665 200.626Z" fill="black"/>
<path d="M356.509 209.648C355.144 210.406 355.978 213.022 357.532 213.022C358.48 213.022 359.996 211.847 359.996 211.126C359.996 210.558 358.404 209.231 357.76 209.231C357.418 209.231 356.85 209.421 356.509 209.648Z" fill="black"/>
<path d="M128.799 214.69C128.23 215.372 128.685 216.433 129.519 216.433C130.277 216.433 130.884 215.182 130.467 214.538C130.125 214.007 129.291 214.083 128.799 214.69Z" fill="black"/>
<path d="M359.693 223.408C359.959 223.712 360.262 223.863 360.338 223.825C360.527 223.598 359.959 222.878 359.58 222.878C359.39 222.878 359.428 223.105 359.693 223.408Z" fill="black"/>
<path d="M360.641 228.223C360.906 228.488 361.21 228.602 361.323 228.488C361.437 228.374 361.248 228.147 360.868 228.033C360.338 227.806 360.3 227.844 360.641 228.223Z" fill="black"/>
<path d="M363.218 228.185C363.105 228.412 363.256 228.45 363.56 228.337C364.242 228.071 364.356 227.806 363.825 227.806C363.597 227.806 363.332 227.958 363.218 228.185Z" fill="black"/>
<path d="M196.236 233.53C196.236 235.16 198.814 236.903 201.24 236.903C202.036 236.903 203.818 234.364 203.818 233.226C203.818 232.43 203.704 232.392 200.027 232.468L196.236 232.544V233.53Z" fill="black"/>
<path d="M220.648 234.932C221.33 236.108 220.497 237.321 218.336 238.306C216.289 239.254 216.175 239.254 215.682 238.609C215.417 238.192 215.189 238.079 215.189 238.306C215.189 238.534 215.455 238.913 215.758 239.178C216.63 239.898 220.572 237.851 221.027 236.411C221.293 235.653 221.255 235.274 220.876 234.895C220.497 234.515 220.459 234.553 220.648 234.932Z" fill="black"/>
<path d="M293.999 240.96C293.506 241.566 293.544 241.604 294.151 241.111C294.757 240.618 294.947 240.315 294.644 240.315C294.568 240.315 294.265 240.618 293.999 240.96Z" fill="black"/>
<path d="M295.554 240.884C295.554 241.68 296.918 242.969 297.79 242.969C298.662 242.969 299.761 241.604 299.458 240.846C299.155 240.088 295.554 240.126 295.554 240.884Z" fill="black"/>
<path d="M291.99 244.371C291.763 244.902 291.801 244.94 292.18 244.599C292.445 244.333 292.559 244.03 292.445 243.916C292.332 243.803 292.104 243.992 291.99 244.371Z" fill="black"/>
<path d="M293.961 245.129C294.189 245.205 294.644 245.205 294.909 245.129C295.137 245.016 294.947 244.94 294.416 244.94C293.886 244.94 293.696 245.016 293.961 245.129Z" fill="black"/>
<path d="M352.832 248.882C351.808 250.171 351.77 251.953 352.756 252.256C354.007 252.635 357.343 251.308 357.836 250.247C358.215 249.451 358.139 249.223 357.381 248.617C356.016 247.518 353.779 247.669 352.832 248.882Z" fill="black"/>
<path d="M274.25 256.274C273.378 256.767 273.378 257.866 274.288 258.663C275.046 259.345 275.728 259.459 278.495 259.345L280.163 259.269L278.495 257.563C276.79 255.819 275.615 255.478 274.25 256.274Z" fill="black"/>
<path d="M271.331 272.953C269.549 273.901 269.208 274.621 269.928 275.797C271.027 277.427 273.984 276.744 274.705 274.697C275.159 273.295 275.197 273.446 274.477 272.764C273.757 272.006 272.999 272.044 271.331 272.953Z" fill="black"/>
<path d="M112.84 303.507C113.257 304.303 113.598 305.402 113.598 305.971C113.598 307.108 113.939 307.298 114.659 306.578C115.493 305.744 115.19 303.735 114.129 302.901C112.498 301.612 111.968 301.877 112.84 303.507ZM114.659 304.72C114.811 306.54 114.204 306.35 113.598 304.379C112.991 302.559 112.991 302.559 113.787 303.09C114.242 303.393 114.621 304.076 114.659 304.72Z" fill="black"/>
<path d="M147.373 303.848C147.373 304.265 147.487 304.379 147.601 304.075C147.715 303.81 147.677 303.469 147.563 303.355C147.449 303.204 147.335 303.431 147.373 303.848Z" fill="black"/>
<path d="M145.933 305.023C146.274 305.099 146.805 305.099 147.07 305.023C147.298 304.909 147.032 304.834 146.388 304.834C145.781 304.834 145.554 304.909 145.933 305.023Z" fill="black"/>
<path d="M124.439 314.652C123.302 315.979 123.264 316.434 123.984 318.215C124.401 319.201 124.78 319.542 125.463 319.542C126.713 319.542 127.813 318.67 127.51 317.874C127.358 317.495 127.396 317.305 127.623 317.457C128.04 317.722 128.116 316.434 127.775 314.652C127.434 313.022 125.804 312.984 124.439 314.652ZM126.979 314.424C126.865 314.766 126.676 314.955 126.6 314.841C126.486 314.728 126.524 314.5 126.676 314.273C127.017 313.666 127.244 313.78 126.979 314.424ZM125.728 315.372C126.145 315.638 126.145 315.751 125.804 315.751C125.538 315.751 125.425 315.941 125.576 316.206C125.728 316.471 125.69 316.509 125.387 316.358C125.159 316.206 125.046 315.941 125.159 315.751C125.273 315.6 125.121 315.334 124.894 315.258C124.629 315.145 124.591 315.031 124.78 315.031C125.008 315.031 125.425 315.183 125.728 315.372ZM126.979 316.13C126.865 316.585 126.676 316.851 126.562 316.737C126.372 316.509 126.751 315.372 127.017 315.372C127.093 315.372 127.093 315.713 126.979 316.13ZM126.751 318.215C126.751 318.518 126.6 318.67 126.41 318.556C126.259 318.443 126.107 318.215 126.107 317.988C126.107 317.798 126.259 317.647 126.41 317.647C126.6 317.647 126.751 317.912 126.751 318.215Z" fill="black"/>
<path d="M161.096 318.594C159.163 319.959 160.868 322.688 163.143 321.93C164.583 321.437 164.621 320.907 163.181 319.352C161.968 318.064 161.892 318.026 161.096 318.594Z" fill="black"/>
<path d="M186.835 325.228C186.835 325.759 186.911 325.948 187.024 325.683C187.1 325.455 187.1 325.001 187.024 324.735C186.911 324.508 186.835 324.697 186.835 325.228Z" fill="black"/>
<path d="M12.3848 325.721C12.3848 326.1 12.688 326.365 13.0671 326.365C13.4083 326.365 13.5599 326.214 13.3325 326.062C13.1429 325.91 12.8397 325.645 12.688 325.455C12.4985 325.266 12.3848 325.38 12.3848 325.721Z" fill="black"/>
<path d="M13.446 325.493C13.7113 325.607 14.0525 325.569 14.1662 325.455C14.3179 325.342 14.0904 325.228 13.6734 325.266C13.2565 325.266 13.1427 325.38 13.446 325.493Z" fill="black"/>
<path d="M14.5829 326.062C13.8627 326.782 14.0901 326.972 14.9999 326.403C15.2652 326.214 15.4548 325.91 15.379 325.721C15.3031 325.531 14.9241 325.683 14.5829 326.062Z" fill="black"/>
<path d="M155.22 338.382C154.5 339.178 154.348 340.619 154.879 341.453C155.41 342.324 156.092 340.96 155.978 339.254C155.864 337.7 155.864 337.662 155.22 338.382Z" fill="black"/>
<path d="M352.529 340.96C351.24 341.491 350.747 342.628 350.975 344.22C351.088 344.978 351.278 345.13 352.339 345.016C353.06 344.978 353.969 344.751 354.348 344.523C355.258 344.03 355.296 342.249 354.424 341.225C353.78 340.467 353.628 340.467 352.529 340.96Z" fill="black"/>
<path d="M294.454 345.471C294.53 345.547 295.023 345.812 295.554 346.039C296.463 346.456 296.463 346.456 295.781 345.926C295.175 345.433 293.924 345.016 294.454 345.471Z" fill="black"/>
<path d="M292.938 346.684C292.938 347.101 293.052 347.215 293.166 346.911C293.279 346.646 293.241 346.305 293.128 346.191C293.014 346.04 292.9 346.267 292.938 346.684Z" fill="black"/>
<path d="M295.63 347.897C295.213 348.845 295.213 348.845 295.781 348.276C296.123 347.935 296.35 347.48 296.274 347.253C296.198 347.025 295.895 347.328 295.63 347.897Z" fill="black"/>
<path d="M292.976 348.504C293.204 349.034 293.658 349.565 293.962 349.679C294.455 349.868 294.455 349.792 293.924 349.186C293.583 348.807 293.279 348.276 293.279 348.049C293.279 347.783 293.128 347.594 292.9 347.594C292.673 347.594 292.711 347.935 292.976 348.504Z" fill="black"/>
<path d="M154.993 353.621C154.652 353.81 154.538 354.531 154.614 355.592C154.727 357.071 154.841 357.26 155.751 357.374C156.585 357.488 156.85 357.298 157.04 356.464C157.533 354.455 156.32 352.749 154.993 353.621Z" fill="black"/>
<path d="M135.394 364.424C134.864 364.803 134.75 365.22 134.939 366.358C135.053 367.116 135.243 367.836 135.318 367.912C135.66 368.291 136.759 367.533 137.707 366.282C138.692 364.993 138.692 364.917 138.048 364.424C137.138 363.742 136.304 363.742 135.394 364.424Z" fill="black"/>
<path d="M46.1601 386.221C45.7811 386.487 45.8948 386.562 46.615 386.525C47.1457 386.487 47.4869 386.335 47.3732 386.145C47.1457 385.804 46.8046 385.804 46.1601 386.221Z" fill="black"/>
<path d="M60.8306 387.283C59.807 387.813 59.011 388.382 59.011 388.534C59.011 388.913 63.1429 390.808 64.0527 390.808C65.7206 390.808 65.8723 390.353 64.8867 388.23C63.8252 385.956 63.4083 385.842 60.8306 387.283Z" fill="black"/>
<path d="M49.3442 387.775C49.4579 387.965 49.6475 388.155 49.7612 388.155C49.837 388.155 49.9128 387.965 49.9128 387.775C49.9128 387.548 49.7233 387.396 49.4958 387.396C49.3063 387.396 49.2305 387.548 49.3442 387.775Z" fill="black"/>
<path d="M48.3207 390.695C48.5861 390.808 48.9273 390.77 49.041 390.657C49.1926 390.543 48.9652 390.429 48.5482 390.467C48.1312 390.467 48.0175 390.581 48.3207 390.695Z" fill="black"/>
<path d="M63.5977 397.669C62.9154 397.897 62.4226 398.124 62.4984 398.2C62.5742 398.314 63.2566 398.2 63.9768 398.011C65.7206 397.48 65.7585 397.518 65.948 398.579C66.0996 399.451 66.0996 399.451 66.0617 398.503C66.0238 397.29 65.4931 397.139 63.5977 397.669Z" fill="black"/>
<path d="M58.8591 399.603L57.0396 400.854L57.1912 403.697C57.3049 405.289 57.5703 406.881 57.8356 407.298C58.2905 408.056 58.2905 408.056 58.0631 407.298C57.9114 406.881 57.684 405.327 57.6082 403.848L57.4186 401.157L58.6696 400.209C59.3898 399.679 60.4891 399.072 61.0957 398.845C61.9296 398.541 62.0434 398.428 61.4747 398.428C61.0198 398.39 59.8826 398.958 58.8591 399.603Z" fill="black"/>
<path d="M65.1143 401.612C65.0763 402.408 67.275 405.403 67.6541 405.024C67.7678 404.91 67.3508 404.265 66.7064 403.583C66.0619 402.939 65.4554 402.029 65.3417 401.612C65.1522 400.854 65.1522 400.854 65.1143 401.612Z" fill="black"/>
<path d="M60.3378 403.735C59.1627 406.35 59.3522 406.843 61.5509 407.222C63.143 407.526 63.9391 406.73 63.9391 404.872C63.9391 403.356 62.7639 401.422 61.892 401.422C61.6267 401.422 60.9064 402.446 60.3378 403.735Z" fill="black"/>
<path d="M66.5166 408.625C66.1754 409.231 65.3035 410.103 64.6212 410.52C63.9389 410.937 63.6356 411.278 63.9768 411.278C64.8866 411.278 67.7675 408.17 67.3126 407.677C67.1989 407.601 66.8578 408.018 66.5166 408.625Z" fill="black"/>
<path d="M344.34 408.132C343.62 408.814 344.151 409.383 345.554 409.383C346.842 409.383 346.994 409.269 346.842 408.625C346.691 408.094 346.312 407.867 345.629 407.867C345.061 407.867 344.454 407.98 344.34 408.132ZM346.122 408.549C346.198 408.701 345.895 408.852 345.402 408.852C344.909 408.852 344.606 408.701 344.682 408.549C344.795 408.397 345.099 408.246 345.402 408.246C345.705 408.246 346.008 408.397 346.122 408.549Z" fill="black"/>
<path d="M58.2524 408.359C58.2524 409.042 59.9962 411.278 60.5269 411.24C60.9439 411.24 60.9439 411.164 60.6027 411.013C60.3374 410.899 59.6929 410.217 59.2001 409.459C58.6694 408.7 58.2524 408.208 58.2524 408.359Z" fill="black"/>
<path d="M131.642 420.869C131.111 421.248 131.035 421.816 131.111 423.788C131.225 426.062 131.3 426.289 132.286 426.744C135.66 428.374 137.024 423.977 133.992 421.437C132.551 420.224 132.513 420.224 131.642 420.869Z" fill="black"/>
<path d="M26.6377 486.032C25.3867 486.714 26.486 490.126 27.9644 490.126C30.0873 490.126 30.7696 488.685 29.4428 487.018C28.571 485.88 27.5474 485.539 26.6377 486.032Z" fill="black"/>
<path d="M165.721 519.353C165.569 519.58 165.532 519.808 165.645 519.922C165.721 520.035 165.911 519.846 166.024 519.505C166.29 518.86 166.062 518.746 165.721 519.353Z" fill="black"/>
<path d="M170.004 519.959C170.27 520.073 170.611 520.035 170.725 519.921C170.876 519.808 170.649 519.694 170.232 519.732C169.815 519.732 169.701 519.845 170.004 519.959Z" fill="black"/>
<path d="M171.824 520.642C171.975 520.945 171.824 521.514 171.558 521.893C171.066 522.461 171.104 522.499 171.71 522.006C172.43 521.438 172.544 520.642 171.975 520.263C171.748 520.149 171.71 520.301 171.824 520.642Z" fill="black"/>
<path d="M24.2496 585.539C24.5908 585.615 25.1973 585.615 25.5764 585.539C25.9175 585.426 25.6143 585.35 24.894 585.35C24.1738 585.35 23.8705 585.426 24.2496 585.539Z" fill="black"/>
<path d="M22.8468 586.222C22.5056 587.207 22.5814 587.435 23.0363 586.677C23.2638 586.298 23.3775 585.881 23.2638 585.805C23.188 585.691 22.9984 585.881 22.8468 586.222Z" fill="black"/>
<path d="M27.5094 586.601C27.699 587.018 28.1539 587.7 28.495 588.117L29.1016 588.875L28.7225 588.117C28.533 587.7 28.0781 587.018 27.7369 586.601L27.1304 585.843L27.5094 586.601Z" fill="black"/>
<path d="M22.2781 589.065C22.2402 590.695 22.8088 591.339 24.1356 591.301C25.0075 591.263 25.0075 591.226 23.9461 590.998C22.9605 590.809 22.7709 590.543 22.5814 589.254L22.354 587.738L22.2781 589.065Z" fill="black"/>
<path d="M28.6847 589.747C28.6847 589.975 28.3815 590.24 28.0403 590.316C27.4338 590.468 27.4338 590.505 28.0024 590.543C28.6847 590.581 29.2913 589.937 28.9122 589.558C28.7985 589.406 28.6847 589.52 28.6847 589.747Z" fill="black"/>
<path d="M25.5764 590.846C25.8417 590.96 26.1829 590.922 26.2966 590.808C26.4482 590.695 26.2208 590.581 25.8038 590.619C25.3868 590.619 25.2731 590.733 25.5764 590.846Z" fill="black"/>
<path d="M71.3305 600.21C69.8521 601.271 71.4063 606.502 73.2637 606.805C73.6807 606.881 74.7042 606.313 75.614 605.555C76.9029 604.417 77.2061 603.924 77.2061 602.901C77.2061 602.219 76.9408 601.347 76.5617 601.006C75.2349 599.679 72.6193 599.262 71.3305 600.21Z" fill="black"/>
<path d="M197.411 657.526C197.411 657.943 197.525 658.056 197.639 657.753C197.752 657.488 197.715 657.147 197.601 657.033C197.487 656.881 197.373 657.109 197.411 657.526Z" fill="black"/>
<path d="M381.869 717.079C381.718 717.193 381.604 717.875 381.604 718.557C381.604 720.301 383.12 721.438 385.167 721.287C386.608 721.173 386.759 721.059 387.176 719.732C387.897 717.534 387.366 716.813 385.092 716.889L383.31 716.927L384.902 717.079C386.949 717.268 387.366 717.799 386.873 719.581C386.532 720.87 386.38 720.983 385.092 720.983C383.044 720.983 381.907 720.073 382.059 718.595C382.135 717.875 382.362 717.42 382.665 717.458C382.893 717.534 383.12 717.382 383.12 717.193C383.12 716.776 382.248 716.662 381.869 717.079Z" fill="black"/>
<path d="M403.401 731.673C400.33 732.735 400.444 732.621 400.709 734.365C400.861 735.237 401.126 736.108 401.316 736.298C401.505 736.488 402.491 736.336 403.666 735.919C406.016 735.085 406.888 733.834 406.244 732.204C405.865 731.143 405.296 731.029 403.401 731.673Z" fill="black"/>
<path d="M381.728 430.488C381.007 431.511 381.159 431.776 382.865 432.08C384.343 432.383 385.291 431.89 385.291 430.791C385.291 429.464 382.599 429.199 381.728 430.488ZM384.722 430.98C384.722 431.625 384.495 431.739 383.433 431.625C381.879 431.511 381.728 431.397 382.031 430.601C382.372 429.654 384.722 429.995 384.722 430.98Z" fill="black"/>
<path d="M301.857 431.056C301.364 431.663 301.402 431.701 302.008 431.208C302.615 430.715 302.805 430.412 302.501 430.412C302.425 430.412 302.122 430.715 301.857 431.056Z" fill="black"/>
<path d="M304.548 430.563C304.548 430.639 304.851 430.943 305.23 431.208C305.799 431.701 305.837 431.663 305.344 431.056C304.851 430.45 304.548 430.26 304.548 430.563Z" fill="black"/>
<path d="M306.254 433.444C306.14 433.672 306.291 433.71 306.595 433.596C307.277 433.331 307.391 433.065 306.86 433.065C306.633 433.065 306.367 433.217 306.254 433.444Z" fill="black"/>
<path d="M303.335 434.468C303.563 434.544 304.017 434.544 304.283 434.468C304.51 434.354 304.321 434.279 303.79 434.279C303.259 434.279 303.07 434.354 303.335 434.468Z" fill="black"/>
<path d="M189.082 440.457C188.931 440.76 188.969 441.443 189.082 441.935C189.272 442.694 189.575 442.883 191.016 442.997C192.646 443.11 192.722 443.073 192.722 442.087C192.722 441.026 192.191 440.571 190.333 440.116C189.575 439.926 189.234 440.04 189.082 440.457Z" fill="black"/>
<path d="M416.375 470.366C415.882 472.186 416.224 473.247 417.323 473.247C418.119 473.247 419.067 471.39 418.953 470.101C418.877 469.115 418.65 468.85 417.854 468.774C416.982 468.66 416.83 468.85 416.375 470.366Z" fill="black"/>
<path d="M129.378 477.872C130.553 479.426 127.899 480.033 126.269 478.63C125.663 478.061 125.625 478.099 125.852 478.668C125.966 479.047 126.535 479.426 127.103 479.54C127.634 479.654 128.392 479.843 128.733 479.919C129.112 480.033 129.529 479.767 129.795 479.275C130.174 478.63 130.136 478.365 129.567 477.834C128.923 477.265 128.923 477.265 129.378 477.872Z" fill="black"/>
<path d="M164.67 483.065C164.67 484.051 164.822 484.24 165.542 484.203C166.148 484.165 166.224 484.127 165.731 483.975C165.352 483.899 165.049 483.482 165.049 483.065C165.049 482.004 166.452 482.118 166.679 483.179C166.869 483.937 166.869 483.937 166.831 483.103C166.755 482.383 166.527 482.118 165.731 482.042C164.784 481.928 164.67 482.042 164.67 483.065Z" fill="black"/>
<path d="M286.921 487.387C286.466 488.107 286.428 488.524 286.769 489.51L287.186 490.723L289.726 490.609C292.683 490.457 293.024 489.927 291.47 487.842C290.598 486.742 290.181 486.515 288.968 486.515C287.869 486.515 287.376 486.742 286.921 487.387Z" fill="black"/>
<path d="M166.527 495.499C166.034 496.105 166.072 496.143 166.679 495.65C167.02 495.385 167.323 495.082 167.323 495.006C167.323 494.703 167.02 494.892 166.527 495.499Z" fill="black"/>
<path d="M169.939 497.015C169.446 497.622 169.484 497.66 170.091 497.167C170.697 496.674 170.887 496.371 170.584 496.371C170.508 496.371 170.204 496.674 169.939 497.015Z" fill="black"/>
<path d="M165.049 498.645C165.049 498.835 165.238 499.024 165.466 499.024C165.655 499.024 165.731 498.835 165.617 498.645C165.504 498.418 165.314 498.266 165.2 498.266C165.125 498.266 165.049 498.418 165.049 498.645Z" fill="black"/>
<path d="M114.859 499.745C114.025 500.654 114.177 502.777 115.086 503.346C115.541 503.611 116.072 503.611 116.792 503.346C117.74 503.005 117.854 502.815 117.778 501.526C117.626 499.1 116.224 498.228 114.859 499.745Z" fill="black"/>
<path d="M360.803 510.549C360.045 512.52 361.675 513.733 363.229 512.292C364.214 511.345 364.29 510.928 363.456 510.624C362.925 510.435 362.888 510.473 363.267 510.928C363.646 511.345 363.532 511.572 362.85 512.065C361.561 512.975 361.03 512.823 361.03 511.572C361.03 510.7 361.22 510.397 361.902 510.283L362.736 510.132L361.864 510.056C361.409 510.056 360.916 510.245 360.803 510.549Z" fill="black"/>
<path d="M415.997 514.339C415.997 515.211 416.414 516.083 416.868 516.083C417.134 516.083 417.134 515.931 416.831 515.628C416.072 514.87 416.3 514.112 417.248 514.263C417.854 514.339 418.081 514.605 418.044 515.211C418.044 515.704 418.157 516.083 418.347 516.083C418.802 516.083 418.726 514.794 418.195 514.263C417.551 513.619 415.997 513.695 415.997 514.339Z" fill="black"/>
<path d="M-4.09447 515.969C-5.57287 517.902 -5.45914 518.357 -3.60167 518.357C-0.910234 518.357 0.037455 517.22 -0.98605 515.287C-1.63048 514.149 -2.95724 514.415 -4.09447 515.969Z" fill="black"/>
<path d="M334.343 518.774C333.813 519.419 333.358 520.177 333.358 520.48C333.358 521.162 334.874 521.162 337.073 520.518C338.437 520.101 338.627 519.949 338.21 519.456C337.679 518.774 335.973 517.599 335.594 517.599C335.443 517.599 334.874 518.13 334.343 518.774Z" fill="black"/>
<path d="M119.446 518.244C118.877 518.812 119.181 521.276 119.939 521.958C120.356 522.338 120.697 522.868 120.697 523.096C120.697 523.361 120.356 524.005 119.939 524.536C118.953 525.787 118.991 526.469 120.09 527.19C120.886 527.72 121.076 527.72 122.175 527.038C123.161 526.432 123.35 526.09 123.35 524.915C123.35 524.119 122.933 522.679 122.403 521.693C121.872 520.708 121.455 519.57 121.455 519.191C121.455 518.244 120.052 517.599 119.446 518.244ZM121.076 519.419C121.076 519.684 121.417 520.594 121.872 521.466C122.971 523.626 123.161 525.484 122.365 526.356C121.569 527.228 120.583 527.266 119.939 526.507C119.56 526.052 119.598 525.749 120.166 524.915C121.341 523.209 121.417 522.413 120.469 521.655C119.37 520.821 119.332 518.888 120.356 518.888C120.773 518.888 121.076 519.115 121.076 519.419Z" fill="black"/>
<path d="M121.455 523.816C121.455 523.892 121.759 524.195 122.138 524.46C122.706 524.953 122.744 524.915 122.251 524.309C121.759 523.702 121.455 523.513 121.455 523.816Z" fill="black"/>
<path d="M121 524.688C121.379 524.84 121.379 524.991 121 525.484C120.545 526.053 120.583 526.091 121.152 525.598C121.872 525.067 121.721 524.385 120.962 524.46C120.659 524.46 120.659 524.536 121 524.688Z" fill="black"/>
<path d="M200.872 518.585C199.848 519.608 200.303 520.783 201.743 520.935C203.108 521.087 203.563 520.442 203.184 518.926C202.919 517.827 201.819 517.675 200.872 518.585Z" fill="black"/>
<path d="M188.817 521.162C187.983 522.375 188.021 522.868 188.893 524.043C189.575 524.877 189.727 524.915 190.561 524.46C191.091 524.157 191.736 523.437 192.001 522.83C192.532 521.542 192.077 520.859 190.409 520.442C189.651 520.253 189.31 520.404 188.817 521.162Z" fill="black"/>
<path d="M303.297 520.48C302.843 520.973 302.994 524.309 303.525 524.726C304.283 525.37 306.444 523.93 306.444 522.755C306.444 521.845 305.572 520.632 304.927 520.632C304.738 520.632 304.359 520.556 304.093 520.442C303.79 520.329 303.449 520.366 303.297 520.48ZM305.686 521.579C306.33 522.338 305.837 523.93 304.89 524.233C303.79 524.574 303.487 524.119 303.677 522.413C303.904 520.897 304.776 520.518 305.686 521.579Z" fill="black"/>
<path d="M199.772 531.852C199.431 532.156 199.166 532.573 199.166 532.762C199.166 533.331 200.682 533.937 201.44 533.71C202.426 533.407 202.426 532.156 201.478 531.625C200.53 531.132 200.454 531.132 199.772 531.852ZM201.478 532.231C201.857 532.724 201.857 532.876 201.478 533.141C200.947 533.444 199.545 533.217 199.545 532.8C199.545 532.459 200.379 531.625 200.72 531.625C200.871 531.625 201.175 531.89 201.478 532.231Z" fill="black"/>
<path d="M309.021 538.335C308.111 538.562 308.149 539.851 309.059 540.154C310.158 540.495 311.03 539.965 310.916 539.055C310.803 538.259 310.196 537.993 309.021 538.335ZM310.613 538.979C310.613 539.661 309.438 540.078 308.945 539.586C308.642 539.282 308.68 539.055 309.097 538.827C309.931 538.297 310.613 538.372 310.613 538.979Z" fill="black"/>
<path d="M376.193 541.064C376.193 542.353 376.307 543.376 376.421 543.376C376.572 543.376 377.33 543.187 378.126 542.922C379.15 542.656 379.605 542.277 379.605 541.822C379.605 540.647 378.771 539.207 378.051 539.207C377.709 539.207 377.141 539.093 376.8 538.979C376.269 538.79 376.193 539.093 376.193 541.064ZM378.847 540.306C379.491 541.557 379.264 542.088 377.899 542.505L376.572 542.922V541.254C376.572 539.737 376.648 539.586 377.52 539.586C378.051 539.586 378.619 539.889 378.847 540.306Z" fill="black"/>
<path d="M131.539 542.58C130.97 543.225 130.932 543.452 131.311 543.945C132.448 545.31 134.609 544.135 133.699 542.656C133.131 541.746 132.297 541.746 131.539 542.58Z" fill="black"/>
<path d="M421.228 542.884C420.924 544.097 421.341 544.514 422.858 544.514C424.146 544.514 424.336 544.4 424.336 543.604C424.336 542.922 424.071 542.656 423.161 542.467C421.493 542.125 421.417 542.163 421.228 542.884Z" fill="black"/>
<path d="M427.444 547.243C426.61 548.077 426.913 549.062 427.975 549.062C428.809 549.062 428.923 548.911 428.809 548.039C428.695 546.902 428.127 546.561 427.444 547.243Z" fill="black"/>
<path d="M198.028 550.086C198.028 550.427 198.142 550.579 198.256 550.465C198.9 549.858 199.886 551.034 200.037 552.588L200.189 554.18L200.227 552.474C200.303 550.958 200.189 550.692 199.166 550.124C198.142 549.517 198.028 549.517 198.028 550.086Z" fill="black"/>
<path d="M197.801 554.521C197.839 556.189 197.99 556.795 198.407 556.909C198.786 557.023 198.824 556.985 198.521 556.757C198.294 556.568 197.99 555.507 197.915 554.369L197.763 552.284L197.801 554.521Z" fill="black"/>
<path d="M199.621 556.492C199.356 556.796 199.318 557.023 199.507 557.023C199.886 557.023 200.455 556.303 200.265 556.075C200.189 556.037 199.886 556.189 199.621 556.492Z" fill="black"/>
<path d="M177.672 558.388C177.331 559.297 178.051 560.965 178.81 561.117C179.568 561.269 180.364 559.563 180.023 558.501C179.719 557.592 178.013 557.516 177.672 558.388Z" fill="black"/>
<path d="M308.225 558.047C308.073 558.16 307.96 558.464 307.96 558.691C307.96 558.918 308.111 558.88 308.301 558.577C308.794 557.819 310.007 558.35 309.666 559.222C309.476 559.714 309.514 559.752 309.893 559.411C310.272 559.032 310.234 558.843 309.855 558.35C309.362 557.743 308.642 557.592 308.225 558.047Z" fill="black"/>
<path d="M74.4493 560.018C73.5016 561.799 74.3735 564.225 75.8898 564.225C77.2924 564.225 77.6714 563.505 77.5577 561.117C77.4819 560.359 77.1786 560.018 76.3068 559.714C74.7905 559.184 74.9421 559.184 74.4493 560.018ZM76.0035 561.458C76.4963 562.065 76.4584 562.103 75.8898 561.61C75.2453 561.117 75.0558 560.814 75.3591 560.814C75.4349 560.814 75.7381 561.117 76.0035 561.458ZM76.2689 563.657C76.1551 563.77 75.9277 563.581 75.814 563.202C75.5865 562.671 75.6244 562.633 76.0035 562.974C76.2689 563.24 76.3826 563.543 76.2689 563.657Z" fill="black"/>
<path d="M198.028 560.359C198.028 560.548 198.294 560.7 198.597 560.7C198.9 560.7 199.052 560.548 198.938 560.359C198.824 560.207 198.597 560.056 198.369 560.056C198.18 560.056 198.028 560.207 198.028 560.359Z" fill="black"/>
<path d="M198.18 562.557C197.498 563.088 197.498 563.126 198.332 562.709C198.787 562.482 199.166 562.216 199.166 562.14C199.166 561.837 198.976 561.913 198.18 562.557Z" fill="black"/>
<path d="M16.5267 562.785C15.6927 563.619 15.9581 565.666 17.0195 566.348C18.9149 567.561 20.7723 565.628 19.8246 563.391C19.4835 562.557 19.1423 562.33 18.1946 562.33C17.5123 562.33 16.792 562.519 16.5267 562.785Z" fill="black"/>
<path d="M183.813 563.05C183.51 564.036 183.927 564.87 184.799 565.098C185.822 565.363 186.618 563.771 185.898 562.899C185.253 562.103 184.116 562.179 183.813 563.05ZM184.874 564.036C184.609 564.832 184.42 564.756 184.495 563.884C184.495 563.467 184.685 563.202 184.837 563.316C184.988 563.43 185.026 563.733 184.874 564.036Z" fill="black"/>
<path d="M205.61 565.514C205.383 565.818 204.625 566.159 203.98 566.235L202.767 566.386L203.942 566.424C204.7 566.462 205.345 566.235 205.8 565.742C206.179 565.325 206.406 564.984 206.292 564.984C206.179 564.984 205.876 565.211 205.61 565.514Z" fill="black"/>
<path d="M333.054 565.969C331.917 566.766 332.069 568.168 333.282 568.32C334.116 568.433 335.632 567.486 335.632 566.841C335.632 566.462 334.533 565.363 334.192 565.363C334.04 565.363 333.509 565.628 333.054 565.969Z" fill="black"/>
<path d="M338.361 566.576C337.755 567.182 337.793 569.646 338.437 571.2C338.968 572.489 340.825 574.195 341.356 573.892C341.508 573.778 342.342 573.968 343.176 574.309C344.616 574.878 344.806 574.878 345.715 574.309C346.663 573.664 347.383 572.3 347.156 571.617C346.928 571.087 343.82 569.153 343.176 569.191C342.872 569.191 343.024 569.343 343.517 569.533C344.01 569.76 344.957 570.329 345.678 570.897C346.928 571.845 346.966 571.921 346.436 572.944C345.791 574.157 345.261 574.423 343.972 574.081C343.024 573.854 343.024 573.854 343.82 573.399C345.298 572.603 345.147 571.959 342.721 569.457C339.991 566.614 339.006 565.931 338.361 566.576Z" fill="black"/>
<path d="M11.03 568.661C10.8784 568.774 10.7646 570.063 10.7646 571.504C10.7646 574.271 11.2954 575.029 12.6221 574.195C13.3803 573.702 13.6077 570.935 13.0012 569.495C12.5842 568.471 11.5986 568.054 11.03 568.661ZM12.2051 569.646C12.7358 569.495 12.7358 569.532 12.281 569.836C11.6744 570.291 11.1437 570.101 11.1816 569.419C11.1816 569.078 11.2574 569.078 11.3712 569.419C11.4849 569.684 11.864 569.76 12.2051 569.646Z" fill="black"/>
<path d="M307.808 570.139C307.505 570.973 307.922 572.49 308.566 572.717C310.045 573.286 311.106 571.466 310.007 570.253C309.211 569.381 308.111 569.305 307.808 570.139Z" fill="black"/>
<path d="M288.437 575.749C287.376 576.811 287.3 577.19 287.869 578.289C288.703 579.806 291.47 578.782 291.205 577.076C291.129 576.583 290.901 576.204 290.636 576.242C290.409 576.28 290.257 576.053 290.295 575.712C290.371 574.726 289.461 574.726 288.437 575.749Z" fill="black"/>
<path d="M129.795 578.971C129.795 579.199 129.947 579.464 130.174 579.578C130.401 579.692 130.439 579.54 130.326 579.237C130.06 578.554 129.795 578.441 129.795 578.971Z" fill="black"/>
<path d="M8.94531 582.611C8.94531 583.217 9.02113 583.445 9.13485 583.066C9.21067 582.724 9.21067 582.194 9.13485 581.928C9.02113 581.701 8.94531 581.966 8.94531 582.611Z" fill="black"/>
<path d="M10.7646 582.194C10.7646 582.269 11.0679 582.573 11.447 582.838C12.0156 583.331 12.0535 583.293 11.5607 582.686C11.0679 582.08 10.7646 581.89 10.7646 582.194Z" fill="black"/>
<path d="M11.9403 584.165C11.9403 584.582 12.054 584.695 12.1677 584.392C12.2815 584.127 12.2436 583.786 12.1298 583.672C12.0161 583.52 11.9024 583.748 11.9403 584.165Z" fill="black"/>
<path d="M11.3714 586.136L10.6511 587.159L11.5609 586.325C12.0158 585.871 12.357 585.416 12.2432 585.302C12.1674 585.226 11.7504 585.605 11.3714 586.136Z" fill="black"/>
<path d="M8.49072 586.401C8.49072 586.705 8.64235 586.97 8.8698 586.97C9.05934 586.97 9.13515 586.705 9.02143 586.401C8.8698 586.098 8.71817 585.833 8.64235 585.833C8.56654 585.833 8.49072 586.098 8.49072 586.401Z" fill="black"/>
<path d="M180.212 591.026C179.681 591.292 178.885 591.519 178.43 591.519C177.672 591.519 177.558 591.709 177.558 592.846C177.558 593.869 177.71 594.173 178.241 594.135C178.62 594.135 178.696 594.021 178.43 593.907C178.165 593.831 177.937 593.301 177.937 592.808C177.937 592.125 178.127 591.898 178.809 591.898C179.264 591.898 180.06 591.633 180.515 591.292C181.273 590.761 181.539 590.837 181.387 591.633C181.349 591.822 181.501 591.86 181.728 591.709C182.941 590.95 181.539 590.306 180.212 591.026Z" fill="black"/>
<path d="M179.795 592.921L178.885 593.983L179.947 593.073C180.894 592.201 181.16 591.898 180.856 591.898C180.781 591.898 180.326 592.353 179.795 592.921Z" fill="black"/>
<path d="M122.592 595.689C122.1 595.992 122.137 596.068 122.706 596.068C123.275 596.068 123.388 596.333 123.275 597.281C123.161 598.456 123.047 598.532 121.569 598.646C120.128 598.759 119.939 598.684 119.711 597.812C119.598 597.281 119.56 596.561 119.711 596.258C119.825 595.954 119.749 595.689 119.56 595.689C119.067 595.689 119.067 597.433 119.56 598.38C119.825 598.873 120.356 599.101 121.266 599.101C123.237 599.101 123.73 598.759 123.73 597.433C123.73 595.878 123.313 595.234 122.592 595.689Z" fill="black"/>
<path d="M215.731 595.954C215.238 596.409 215.466 597.546 216.148 597.925C216.868 598.304 218.877 598.039 218.877 597.584C218.877 597.129 216.982 595.689 216.413 595.689C216.186 595.689 215.845 595.803 215.731 595.954Z" fill="black"/>
<path d="M338.665 602.626C338.058 602.929 337.679 603.498 337.603 604.18C337.414 605.696 337.982 606.151 339.385 605.545C340.674 605.014 340.674 605.09 340.067 603.384C339.65 602.247 339.537 602.171 338.665 602.626Z" fill="black"/>
<path d="M412.509 611.648C411.144 612.406 411.978 615.022 413.532 615.022C414.48 615.022 415.996 613.847 415.996 613.126C415.996 612.558 414.404 611.231 413.76 611.231C413.418 611.231 412.85 611.421 412.509 611.648Z" fill="black"/>
<path d="M184.799 616.69C184.23 617.372 184.685 618.433 185.519 618.433C186.277 618.433 186.884 617.182 186.467 616.538C186.125 616.007 185.291 616.083 184.799 616.69Z" fill="black"/>
<path d="M415.693 625.408C415.958 625.712 416.262 625.863 416.338 625.825C416.527 625.598 415.958 624.878 415.579 624.878C415.39 624.878 415.428 625.105 415.693 625.408Z" fill="black"/>
<path d="M416.641 630.223C416.906 630.488 417.209 630.602 417.323 630.488C417.437 630.374 417.247 630.147 416.868 630.033C416.338 629.806 416.3 629.844 416.641 630.223Z" fill="black"/>
<path d="M419.218 630.185C419.105 630.412 419.256 630.45 419.56 630.337C420.242 630.071 420.356 629.806 419.825 629.806C419.597 629.806 419.332 629.958 419.218 630.185Z" fill="black"/>
<path d="M252.236 635.53C252.236 637.16 254.814 638.903 257.24 638.903C258.036 638.903 259.818 636.364 259.818 635.226C259.818 634.43 259.704 634.392 256.027 634.468L252.236 634.544V635.53Z" fill="black"/>
<path d="M276.648 636.932C277.33 638.108 276.496 639.321 274.335 640.306C272.288 641.254 272.175 641.254 271.682 640.609C271.416 640.192 271.189 640.079 271.189 640.306C271.189 640.534 271.454 640.913 271.758 641.178C272.629 641.898 276.572 639.851 277.027 638.411C277.292 637.653 277.254 637.274 276.875 636.895C276.496 636.515 276.458 636.553 276.648 636.932Z" fill="black"/>
<path d="M349.999 642.96C349.506 643.566 349.544 643.604 350.151 643.111C350.757 642.618 350.947 642.315 350.643 642.315C350.568 642.315 350.264 642.618 349.999 642.96Z" fill="black"/>
<path d="M351.553 642.884C351.553 643.68 352.918 644.969 353.79 644.969C354.662 644.969 355.761 643.604 355.458 642.846C355.154 642.088 351.553 642.126 351.553 642.884Z" fill="black"/>
<path d="M347.99 646.371C347.763 646.902 347.801 646.94 348.18 646.599C348.445 646.333 348.559 646.03 348.445 645.916C348.331 645.803 348.104 645.992 347.99 646.371Z" fill="black"/>
<path d="M349.961 647.129C350.189 647.205 350.644 647.205 350.909 647.129C351.137 647.016 350.947 646.94 350.416 646.94C349.886 646.94 349.696 647.016 349.961 647.129Z" fill="black"/>
<path d="M408.831 650.882C407.808 652.171 407.77 653.953 408.756 654.256C410.007 654.635 413.342 653.308 413.835 652.247C414.214 651.451 414.139 651.223 413.38 650.617C412.016 649.518 409.779 649.669 408.831 650.882Z" fill="black"/>
<path d="M330.25 658.274C329.378 658.767 329.378 659.866 330.287 660.663C331.046 661.345 331.728 661.459 334.495 661.345L336.163 661.269L334.495 659.563C332.789 657.819 331.614 657.478 330.25 658.274Z" fill="black"/>
<path d="M327.33 674.953C325.549 675.901 325.208 676.621 325.928 677.797C327.027 679.427 329.984 678.744 330.704 676.697C331.159 675.295 331.197 675.446 330.477 674.764C329.757 674.006 328.998 674.044 327.33 674.953Z" fill="black"/>
<path d="M168.84 705.507C169.257 706.303 169.598 707.402 169.598 707.971C169.598 709.108 169.939 709.298 170.659 708.578C171.493 707.744 171.19 705.735 170.129 704.901C168.498 703.612 167.968 703.877 168.84 705.507ZM170.659 706.72C170.811 708.54 170.204 708.35 169.598 706.379C168.991 704.559 168.991 704.559 169.787 705.09C170.242 705.393 170.621 706.076 170.659 706.72Z" fill="black"/>
<path d="M203.373 705.848C203.373 706.265 203.487 706.379 203.601 706.075C203.715 705.81 203.677 705.469 203.563 705.355C203.449 705.204 203.335 705.431 203.373 705.848Z" fill="black"/>
<path d="M201.933 707.023C202.274 707.099 202.805 707.099 203.07 707.023C203.298 706.909 203.032 706.834 202.388 706.834C201.781 706.834 201.554 706.909 201.933 707.023Z" fill="black"/>
<path d="M180.439 716.652C179.302 717.979 179.264 718.434 179.984 720.215C180.401 721.201 180.78 721.542 181.463 721.542C182.713 721.542 183.813 720.67 183.51 719.874C183.358 719.495 183.396 719.305 183.623 719.457C184.04 719.722 184.116 718.434 183.775 716.652C183.434 715.022 181.804 714.984 180.439 716.652ZM182.979 716.424C182.865 716.766 182.676 716.955 182.6 716.841C182.486 716.728 182.524 716.5 182.676 716.273C183.017 715.666 183.244 715.78 182.979 716.424ZM181.728 717.372C182.145 717.638 182.145 717.751 181.804 717.751C181.538 717.751 181.425 717.941 181.576 718.206C181.728 718.471 181.69 718.509 181.387 718.358C181.159 718.206 181.046 717.941 181.159 717.751C181.273 717.6 181.121 717.334 180.894 717.258C180.629 717.145 180.591 717.031 180.78 717.031C181.008 717.031 181.425 717.183 181.728 717.372ZM182.979 718.13C182.865 718.585 182.676 718.851 182.562 718.737C182.372 718.509 182.751 717.372 183.017 717.372C183.093 717.372 183.093 717.713 182.979 718.13ZM182.751 720.215C182.751 720.518 182.6 720.67 182.41 720.556C182.259 720.443 182.107 720.215 182.107 719.988C182.107 719.798 182.259 719.647 182.41 719.647C182.6 719.647 182.751 719.912 182.751 720.215Z" fill="black"/>
<path d="M217.096 720.594C215.163 721.959 216.868 724.688 219.143 723.93C220.583 723.437 220.621 722.907 219.181 721.352C217.968 720.064 217.892 720.026 217.096 720.594Z" fill="black"/>
<path d="M242.835 727.228C242.835 727.759 242.911 727.948 243.024 727.683C243.1 727.455 243.1 727.001 243.024 726.735C242.911 726.508 242.835 726.697 242.835 727.228Z" fill="black"/>
<path d="M68.3848 727.721C68.3848 728.1 68.688 728.365 69.0671 728.365C69.4083 728.365 69.5599 728.214 69.3325 728.062C69.1429 727.91 68.8397 727.645 68.688 727.455C68.4985 727.266 68.3848 727.38 68.3848 727.721Z" fill="black"/>
<path d="M69.446 727.493C69.7113 727.607 70.0525 727.569 70.1662 727.455C70.3179 727.342 70.0904 727.228 69.6734 727.266C69.2565 727.266 69.1427 727.38 69.446 727.493Z" fill="black"/>
<path d="M70.5829 728.062C69.8627 728.782 70.0901 728.972 70.9999 728.403C71.2652 728.214 71.4548 727.91 71.379 727.721C71.3031 727.531 70.9241 727.683 70.5829 728.062Z" fill="black"/>
<path d="M211.22 740.382C210.5 741.178 210.348 742.619 210.879 743.453C211.41 744.324 212.092 742.96 211.978 741.254C211.864 739.7 211.864 739.662 211.22 740.382Z" fill="black"/>
<path d="M408.529 742.96C407.24 743.491 406.747 744.628 406.974 746.22C407.088 746.978 407.278 747.13 408.339 747.016C409.059 746.978 409.969 746.751 410.348 746.523C411.258 746.03 411.296 744.249 410.424 743.225C409.78 742.467 409.628 742.467 408.529 742.96Z" fill="black"/>
<path d="M350.454 747.471C350.53 747.547 351.023 747.812 351.554 748.039C352.463 748.456 352.463 748.456 351.781 747.926C351.175 747.433 349.924 747.016 350.454 747.471Z" fill="black"/>
<path d="M348.938 748.684C348.938 749.101 349.051 749.215 349.165 748.911C349.279 748.646 349.241 748.305 349.127 748.191C349.013 748.04 348.9 748.267 348.938 748.684Z" fill="black"/>
<path d="M351.629 749.897C351.212 750.845 351.212 750.845 351.781 750.276C352.122 749.935 352.35 749.48 352.274 749.253C352.198 749.025 351.895 749.328 351.629 749.897Z" fill="black"/>
<path d="M348.976 750.504C349.203 751.034 349.658 751.565 349.961 751.679C350.454 751.868 350.454 751.792 349.924 751.186C349.582 750.807 349.279 750.276 349.279 750.049C349.279 749.783 349.128 749.594 348.9 749.594C348.673 749.594 348.711 749.935 348.976 750.504Z" fill="black"/>
<path d="M210.993 755.621C210.652 755.81 210.538 756.531 210.614 757.592C210.727 759.071 210.841 759.26 211.751 759.374C212.585 759.488 212.85 759.298 213.04 758.464C213.533 756.455 212.32 754.749 210.993 755.621Z" fill="black"/>
<path d="M191.394 766.424C190.864 766.803 190.75 767.22 190.939 768.358C191.053 769.116 191.243 769.836 191.318 769.912C191.66 770.291 192.759 769.533 193.707 768.282C194.692 766.993 194.692 766.917 194.048 766.424C193.138 765.742 192.304 765.742 191.394 766.424Z" fill="black"/>
<path d="M102.16 788.221C101.781 788.487 101.895 788.562 102.615 788.525C103.146 788.487 103.487 788.335 103.373 788.145C103.146 787.804 102.805 787.804 102.16 788.221Z" fill="black"/>
<path d="M116.831 789.283C115.807 789.813 115.011 790.382 115.011 790.534C115.011 790.913 119.143 792.808 120.053 792.808C121.721 792.808 121.872 792.353 120.887 790.23C119.825 787.956 119.408 787.842 116.831 789.283Z" fill="black"/>
<path d="M105.344 789.775C105.458 789.965 105.647 790.155 105.761 790.155C105.837 790.155 105.913 789.965 105.913 789.775C105.913 789.548 105.723 789.396 105.496 789.396C105.306 789.396 105.23 789.548 105.344 789.775Z" fill="black"/>
<path d="M104.321 792.695C104.586 792.808 104.927 792.77 105.041 792.657C105.193 792.543 104.965 792.429 104.548 792.467C104.131 792.467 104.017 792.581 104.321 792.695Z" fill="black"/>
<path d="M119.598 799.669C118.915 799.897 118.423 800.124 118.498 800.2C118.574 800.314 119.257 800.2 119.977 800.011C121.721 799.48 121.758 799.518 121.948 800.579C122.1 801.451 122.1 801.451 122.062 800.503C122.024 799.29 121.493 799.139 119.598 799.669Z" fill="black"/>
<path d="M114.859 801.603L113.04 802.854L113.191 805.697C113.305 807.289 113.57 808.881 113.836 809.298C114.291 810.056 114.291 810.056 114.063 809.298C113.911 808.881 113.684 807.327 113.608 805.848L113.419 803.157L114.67 802.209C115.39 801.679 116.489 801.072 117.096 800.845C117.93 800.541 118.043 800.428 117.475 800.428C117.02 800.39 115.883 800.958 114.859 801.603Z" fill="black"/>
<path d="M121.114 803.612C121.076 804.408 123.275 807.403 123.654 807.024C123.768 806.91 123.351 806.265 122.706 805.583C122.062 804.939 121.455 804.029 121.342 803.612C121.152 802.854 121.152 802.854 121.114 803.612Z" fill="black"/>
<path d="M116.338 805.735C115.163 808.35 115.352 808.843 117.551 809.222C119.143 809.526 119.939 808.73 119.939 806.872C119.939 805.356 118.764 803.422 117.892 803.422C117.627 803.422 116.906 804.446 116.338 805.735Z" fill="black"/>
<path d="M122.517 810.625C122.175 811.231 121.304 812.103 120.621 812.52C119.939 812.937 119.636 813.278 119.977 813.278C120.887 813.278 123.768 810.17 123.313 809.677C123.199 809.601 122.858 810.018 122.517 810.625Z" fill="black"/>
<path d="M400.34 810.132C399.62 810.814 400.151 811.383 401.553 811.383C402.842 811.383 402.994 811.269 402.842 810.625C402.691 810.094 402.311 809.867 401.629 809.867C401.06 809.867 400.454 809.98 400.34 810.132ZM402.122 810.549C402.198 810.701 401.894 810.852 401.402 810.852C400.909 810.852 400.606 810.701 400.681 810.549C400.795 810.397 401.098 810.246 401.402 810.246C401.705 810.246 402.008 810.397 402.122 810.549Z" fill="black"/>
<path d="M114.252 810.359C114.252 811.042 115.996 813.278 116.527 813.24C116.944 813.24 116.944 813.164 116.603 813.013C116.337 812.899 115.693 812.217 115.2 811.459C114.669 810.7 114.252 810.208 114.252 810.359Z" fill="black"/>
<path d="M187.642 822.869C187.111 823.248 187.035 823.816 187.111 825.788C187.225 828.062 187.3 828.289 188.286 828.744C191.66 830.374 193.024 825.977 189.992 823.437C188.551 822.224 188.513 822.224 187.642 822.869Z" fill="black"/>
<path d="M46.7772 870.405C46.3223 870.973 46.019 871.845 46.0949 872.376C46.2086 873.21 46.436 873.4 47.8007 873.589C49.1654 873.741 49.3928 873.665 49.5824 873.021C49.9993 871.428 49.8098 870.177 49.0896 869.76C47.9902 869.192 47.687 869.268 46.7772 870.405Z" fill="black"/>
<path d="M82.6377 888.032C81.3867 888.714 82.486 892.126 83.9644 892.126C86.0873 892.126 86.7696 890.685 85.4428 889.018C84.571 887.88 83.5474 887.539 82.6377 888.032Z" fill="black"/>
<path d="M221.721 921.353C221.569 921.58 221.532 921.808 221.645 921.922C221.721 922.035 221.911 921.846 222.024 921.505C222.29 920.86 222.062 920.746 221.721 921.353Z" fill="black"/>
<path d="M226.004 921.959C226.27 922.073 226.611 922.035 226.725 921.921C226.876 921.808 226.649 921.694 226.232 921.732C225.815 921.732 225.701 921.845 226.004 921.959Z" fill="black"/>
<path d="M227.824 922.642C227.975 922.945 227.824 923.514 227.558 923.893C227.066 924.461 227.104 924.499 227.71 924.006C228.43 923.438 228.544 922.642 227.975 922.263C227.748 922.149 227.71 922.301 227.824 922.642Z" fill="black"/>
</g>
<defs>
<clipPath id="clip0_19_58">
<rect width="428" height="926" fill="white"/>
</clipPath>
</defs>
</svg>
