<svg xmlns="http://www.w3.org/2000/svg" viewBox="0 0 277 468">
  <path fill="#FFF212" d="M109.0236 170.4965h58.6471c2.4942 0 4.5122-2.0259 4.5122-4.5122v-58.65c0-2.4896-2.018-4.5156-4.5122-4.5156h-58.6471c-2.4991 0-4.5151 2.026-4.5151 4.5156v58.65c0 2.4863 2.016 4.5122 4.5151 4.5122"/>
  <path d="M258.8573.0093H17.839c-8.9204 0-16.1377 7.2258-16.1377 16.1421V257.168c0 8.913 7.2173 16.1425 16.1377 16.1425h241.0183c8.9024 0 16.1348-7.2295 16.1348-16.1425V16.1514c0-8.9163-7.2324-16.1421-16.1348-16.1421zm-86.6744 165.975c0 2.4863-2.018 4.5122-4.5122 4.5122h-58.6471c-2.4991 0-4.5151-2.0259-4.5151-4.5122v-58.65c0-2.4896 2.016-4.5156 4.5151-4.5156h58.6471c2.4942 0 4.5122 2.026 4.5122 4.5156v58.65z"/>
  <g fill="#373435">
    <path d="M21.1972 316.7492c-.8533-3.3086-2.9909-5.7354-7.1927-5.7354-6.1897 0-8.7783 5.4522-8.7783 10.9911 0 5.5312 2.5886 10.997 8.7783 10.997 4.4842 0 6.9512-3.361 7.3557-7.5634h4.93c-.4096 6.9063-5.2954 11.6887-12.2857 11.6887-8.6561 0-13.8294-6.88-13.8294-15.1223 0-8.2491 5.1733-15.122 13.8294-15.122 6.5055.0459 11.6343 3.6437 12.2463 9.8663h-5.0536z"/>
    <path d="M64.9304 322.0049c0 8.2423-5.1733 15.1223-13.8277 15.1223-8.6514 0-13.8232-6.88-13.8232-15.1223 0-8.2491 5.1718-15.122 13.8232-15.122 8.6544 0 13.8277 6.8729 13.8277 15.122zm-22.6007 0c0 5.5312 2.5881 10.997 8.773 10.997 6.1897 0 8.7749-5.4658 8.7749-10.997 0-5.5389-2.5852-10.9911-8.7749-10.9911-6.1849 0-8.773 5.4522-8.773 10.9911z"/>
    <path d="M77.2585 307.5802h5.3283l13.1851 21.2587h.0805v-21.2587h4.8101v28.8564h-5.3331l-13.1392-21.2275h-.1216v21.2275h-4.8101z"/>
    <path d="M117.8728 326.8068c0 4.4529 3.2754 6.1951 7.3227 6.1951 4.4527 0 6.0973-2.1835 6.0973-4.3603 0-2.2303-1.205-3.1172-2.3774-3.571-2.0217-.7569-4.6539-1.2824-8.6108-2.3752-4.9382-1.336-6.3938-4.3282-6.3938-7.3202 0-5.7824 5.3413-8.4923 10.5613-8.4923 6.0151 0 11.073 3.1964 11.073 9.2149h-5.0579c-.2341-3.716-2.7434-5.084-6.2257-5.084-2.3448 0-5.2954.8487-5.2954 3.75 0 2.0245 1.3731 3.1572 3.4398 3.7216.4445.1261 6.8327 1.7765 8.3242 2.2238 3.8005 1.1375 5.6211 4.3614 5.6211 7.3593 0 6.4667-5.7427 9.0587-11.4797 9.0587-6.5891 0-11.9305-3.1573-12.0509-10.3204h5.0522z"/>
    <path d="M148.678 307.5802h20.7748v4.3546h-15.7201v7.5634h14.5531v4.1182h-14.5531v8.4521h16.0084v4.3681H148.678z"/>
    <path d="M182.0593 307.5802h5.0548v24.4883h14.6766v4.3681h-19.7314z"/>
    <path d="M213.0619 307.5802h5.0496v11.4716h13.1471v-11.4716h5.0474v28.8564h-5.0474v-13.0175h-13.1471v13.0175h-5.0496z"/>
    <path d="M276.4051 322.0049c0 8.2423-5.1726 15.1223-13.822 15.1223-8.6564 0-13.8262-6.88-13.8262-15.1223 0-8.2491 5.1698-15.122 13.8262-15.122 8.6494 0 13.822 6.8729 13.822 15.122zm-22.5966 0c0 5.5312 2.5869 10.997 8.7746 10.997 6.1824 0 8.7713-5.4658 8.7713-10.997 0-5.5389-2.5889-10.9911-8.7713-10.9911-6.1877 0-8.7746 5.4522-8.7746 10.9911z"/>
    <path d="M1.7127 351.0059h13.7851c6.3065 0 9.5341 2.9063 9.5341 7.7941 0 5.5389-3.8347 6.9599-4.7636 7.2811v.0791c1.7382.2443 4.2783 1.54 4.2783 6.0979 0 3.361.4853 6.4335 1.5826 7.6045h-5.4219c-.7613-1.2569-.7613-2.8353-.7613-4.2435 0-5.2948-1.0922-7.6357-5.7476-7.6357H6.7626v11.8792H1.7127v-28.8567zm5.0499 13.1349h8.2865c3.1935 0 4.9312-1.5713 4.9312-4.6103 0-3.6768-2.3843-4.4073-5.0055-4.4073H6.7626v9.0176z"/>
    <path d="M30.7712 351.0059h20.7853v4.3614h-15.732v7.5634h14.5562v4.1181H35.8245v8.4524h16.0053v4.3614H30.7712z"/>
    <path d="M82.0289 379.8626h-3.2343l-.7676-3.3948c-2.7136 3.0713-5.1752 4.085-8.6893 4.085-8.6562 0-13.828-6.874-13.828-15.122 0-8.248 5.1718-15.1163 13.828-15.1163 6.3031 0 11.6044 3.3557 12.3672 9.8603h-4.9311c-.4853-3.7959-3.8004-5.7362-7.4361-5.7362-6.1895 0-8.7778 5.4542-8.7778 10.9922 0 5.5381 2.5883 10.9914 8.7778 10.9914 5.1718.0847 8.0013-3.0187 8.0787-7.92h-7.6745v-3.835h12.287v15.1954z"/>
    <path d="M88.1266 351.0059h5.0567v28.8567h-5.0567z"/>
    <path d="M126.0895 365.4308c0 8.248-5.176 15.122-13.8257 15.122-8.6567 0-13.8333-6.874-13.8333-15.122 0-8.248 5.1766-15.1163 13.8333-15.1163 8.6497 0 13.8257 6.8683 13.8257 15.1163zm-22.604 0c0 5.5381 2.5869 10.9914 8.7783 10.9914 6.1892 0 8.771-5.4533 8.771-10.9914 0-5.538-2.5818-10.9922-8.771-10.9922-6.1914 0-8.7783 5.4542-8.7783 10.9922z"/>
    <path d="M131.0955 351.0059h5.3345l13.1766 21.2522h.0862v-21.2522h4.8115v28.8567h-5.3413l-13.1326-21.214h-.1199v21.214h-4.815z"/>
    <path d="M168.8034 351.0059h5.3804l11.1147 28.8567h-5.4165l-2.7099-7.6437h-11.5174l-2.7085 7.6437h-5.2214l11.0786-28.8567zm-1.7739 17.378h8.8126l-4.3251-12.412h-.1216l-4.3659 12.412z"/>
    <path d="M188.655 351.0059h5.0567v24.4953h14.6713v4.3614h-19.728z"/>
    <path d="M224.3009 351.0059h11.9713c8.8915 0 12.7313 6.459 12.7313 14.4249 0 7.9727-3.8398 14.4318-12.7313 14.4318h-11.9713v-28.8567zm5.0539 24.7382h4.9774c7.9214 0 9.6182-4.532 9.6182-10.3133 0-5.7812-1.6968-10.3076-9.6182-10.3076h-4.9774v20.6209z"/>
    <path d="M254.0976 351.0059h20.7695v4.3614h-15.7207v7.5634h14.5528v4.1181h-14.5528v8.4524h16.0078v4.3614h-21.0566z"/>
    <path d="M1.7127 394.4318h12.7295c8.2466 0 9.8266 5.3339 9.8266 8.9317 0 3.5526-1.58 8.8945-9.8266 8.8546H6.7626v11.0769H1.7127v-28.8632zm5.0499 13.661h7.4032c2.2573 0 5.0516-1.1307 5.0516-4.7684 0-3.7951-2.3091-4.7688-4.9711-4.7688H6.7626v9.5372z"/>
    <path d="M35.3049 413.6719c0 4.4462 3.2726 6.1827 7.3091 6.1827 4.4502 0 6.1124-2.1835 6.1124-4.3671 0-2.2178-1.2164-3.1056-2.3893-3.5529-2.0191-.7696-4.6469-1.2957-8.6069-2.3868-4.9317-1.3357-6.3887-4.3291-6.3887-7.3153 0-5.7822 5.3359-8.4921 10.546-8.4921 6.0214 0 11.0801 3.1972 11.0801 9.2157h-5.0587c-.2412-3.7236-2.7442-5.0907-6.2187-5.0907-2.3436 0-5.2934.8544-5.2934 3.7616 0 2.0197 1.376 3.1515 3.435 3.7168.4388.1182 6.8296 1.7753 8.3209 2.2226 3.8035 1.1319 5.6282 4.3682 5.6282 7.3613 0 6.459-5.7504 9.051-11.4838 9.051-6.5874 0-11.9253-3.1504-12.0472-10.3068h5.055z"/>
    <path d="M61.4905 394.4318h5.0548v28.8632h-5.0548z"/>
    <path d="M95.5281 403.6016c-.8481-3.3086-2.9908-5.7362-7.1958-5.7362-6.1817 0-8.7701 5.459-8.7701 10.9981 0 5.5378 2.5884 10.9911 8.7701 10.9911 4.4873 0 6.954-3.3554 7.3568-7.5586h4.9371c-.4062 6.9131-5.2968 11.6827-12.2939 11.6827-8.6479 0-13.8228-6.874-13.8228-15.1152 0-8.2482 5.1749-15.1231 13.8228-15.1231 6.5118.0468 11.6425 3.6445 12.2511 9.8612h-5.0553z"/>
    <path d="M134.6524 408.8635c0 8.2412-5.1718 15.1152-13.8285 15.1152-8.6431 0-13.8226-6.874-13.8226-15.1152 0-8.2482 5.1795-15.1231 13.8226-15.1231 8.6567 0 13.8285 6.8749 13.8285 15.1231zm-22.5912 0c0 5.5378 2.5866 10.9911 8.7627 10.9911 6.19 0 8.7783-5.4533 8.7783-10.9911 0-5.5391-2.5883-10.9981-8.7783-10.9981-6.1761 0-8.7627 5.459-8.7627 10.9981z"/>
    <path d="M142.5764 394.4318h5.0508V418.92h14.6792v4.375h-19.73z"/>
    <path d="M195.205 408.8635c0 8.2412-5.1721 15.1152-13.8263 15.1152-8.6581 0-13.8296-6.874-13.8296-15.1152 0-8.2482 5.1715-15.1231 13.8296-15.1231 8.6542 0 13.8263 6.8749 13.8263 15.1231zm-22.6046 0c0 5.5378 2.5883 10.9911 8.7783 10.9911 6.1889 0 8.7744-5.4533 8.7744-10.9911 0-5.5391-2.5855-10.9981-8.7744-10.9981-6.19 0-8.7783 5.459-8.7783 10.9981z"/>
    <path d="M228.3089 423.295h-3.2364l-.7631-3.4013c-2.7164 3.0713-5.1729 4.085-8.6924 4.085-8.6559 0-13.8263-6.874-13.8263-15.1152 0-8.2482 5.1704-15.1231 13.8263-15.1231 6.3079 0 11.598 3.3613 12.3676 9.8612h-4.9283c-.4853-3.7899-3.8002-5.7362-7.4393-5.7362-6.1894 0-8.778 5.459-8.778 10.9981 0 5.5378 2.5886 10.9911 8.778 10.9911 5.1766.0791 8.0053-3.0331 8.079-7.92h-7.6728v-3.8418h12.2857v15.2022z"/>
    <path d="M237.113 394.4318h5.0576v28.8632h-5.0576z"/>
    <path d="M259.3896 394.4318h5.3739l11.1184 28.8632h-5.419l-2.7032-7.6436h-11.5273l-2.7091 7.6436h-5.2058l11.0721-28.8632zm-1.7833 17.3778h8.8195l-4.3263-12.4053h-.1221l-4.3711 12.4053z"/>
    <path d="M1.6305 437.8634H8.744l7.9671 22.5887h.0756l7.7599-22.5887h7.0373v28.8564h-4.8087v-22.2783h-.0805l-8.0036 22.2783h-4.1684l-8.0019-22.2783h-.0819v22.2783H1.6305z"/>
    <path d="M36.6726 437.8634h5.0522v28.8564h-5.0522z"/>
    <path d="M46.7365 437.8634h5.3365l13.1782 21.2598h.0854v-21.2598h4.8101v28.8564h-5.3379L51.6747 445.507h-.1216v21.2128h-4.8166z"/>
    <path d="M82.8782 437.8634h5.3683l11.122 28.8564h-5.4176l-2.7079-7.6485H79.7238l-2.7065 7.6485H71.801l11.0772-28.8564zm-1.7833 17.3721h8.8146l-4.3214-12.4121h-.1216l-4.3716 12.4121z"/>
    <path d="M104.4592 457.0967c0 4.4397 3.2754 6.1838 7.3179 6.1838 4.4479 0 6.1022-2.1778 6.1022-4.3605 0-2.2235-1.215-3.1122-2.3777-3.5595-2.0262-.7628-4.6537-1.2892-8.6117-2.3819-4.9371-1.334-6.3887-4.3271-6.3887-7.3202 0-5.7813 5.3277-8.4855 10.5469-8.4855 6.0225 0 11.0752 3.1915 11.0752 9.21h-5.0527c-.2438-3.7179-2.7533-5.0859-6.2227-5.0859-2.3448 0-5.2968.8487-5.2968 3.7499 0 2.0322 1.3745 3.1573 3.4404 3.7287.4402.1191 6.827 1.7706 8.3203 2.2235 3.8004 1.1251 5.6233 4.3614 5.6233 7.3545 0 6.4658-5.7429 9.0567-11.4774 9.0567-6.5937 0-11.9268-3.1572-12.0473-10.3136h5.0488z"/>
    <path d="M161.8211 466.7198h-3.2343l-.7677-3.3934c-2.7099 3.0711-5.1754 4.0839-8.6964 4.0839-8.6439 0-13.8191-6.88-13.8191-15.122 0-8.2471 5.1752-15.1154 13.8191-15.1154 6.3068 0 11.5988 3.3556 12.375 9.8606h-4.9366c-.4819-3.7951-3.7958-5.7365-7.4384-5.7365-6.1826 0-8.7709 5.4541-8.7709 10.9913 0 5.5321 2.5883 10.9922 8.7709 10.9922 5.1787.078 8.0088-3.0265 8.0896-7.92h-7.6862v-3.8409h12.295v15.2002z"/>
    <path d="M166.3367 437.8634h20.7862v4.3546h-15.7275v7.5653h14.5497v4.1239h-14.5497v8.4455h16.0047v4.3671h-21.0634z"/>
    <path d="M190.8343 437.8634h13.786c6.3068 0 9.5411 2.9083 9.5411 7.795 0 5.5389-3.8392 6.9531-4.7704 7.2754v.0791c1.7334.2488 4.2854 1.5457 4.2854 6.1103 0 3.3545.485 6.4267 1.5772 7.5966h-5.417c-.7727-1.2569-.7727-2.827-.7727-4.2421 0-5.2959-1.0831-7.6436-5.7339-7.6436h-7.4424v11.8857h-5.0533v-28.8564zm5.0533 13.1357h8.2925c3.1938 0 4.9266-1.578 4.9266-4.6162 0-3.6777-2.3891-4.4082-5.0122-4.4082h-8.2069v9.0244z"/>
    <path d="M226.0391 437.8634h5.3791l11.1177 28.8564h-5.4229l-2.7034-7.6485H222.887l-2.7099 7.6485h-5.2095l11.0715-28.8564zm-1.7821 17.3721h8.8223l-4.3299-12.4121h-.1217l-4.3707 12.4121z"/>
    <path d="M244.3067 437.8634h5.057v28.8564h-5.057z"/>
    <path d="M257.8915 457.0967c0 4.4397 3.2774 6.1838 7.3213 6.1838 4.4425 0 6.0988-2.1778 6.0988-4.3605 0-2.2235-1.2121-3.1122-2.384-3.5595-2.0165-.7628-4.6502-1.2892-8.6074-2.3819-4.9317-1.334-6.3935-4.3271-6.3935-7.3202 0-5.7813 5.341-8.4855 10.5568-8.4855 6.0205 0 11.0741 3.1915 11.0741 9.21h-5.0536c-.2413-3.7179-2.7443-5.0859-6.2266-5.0859-2.3437 0-5.296.8487-5.296 3.7499 0 2.0322 1.3751 3.1573 3.4424 3.7287.4433.1191 6.8273 1.7706 8.3242 2.2235 3.7999 1.1251 5.6191 4.3614 5.6191 7.3545 0 6.4658-5.7412 9.0567-11.4774 9.0567-6.5928 0-11.9316-3.1572-12.0538-10.3136h5.0556z"/>
  </g>
</svg>
