<svg width="121" height="121" viewBox="0 0 121 121" fill="none" xmlns="http://www.w3.org/2000/svg">
<path d="M60.5 121C60.5 121 18.15 65.7635 18.15 42.35C18.15 36.7885 19.2454 31.2815 21.3737 26.1434C23.502 21.0052 26.6215 16.3366 30.554 12.404C34.4866 8.47147 39.1552 5.35199 44.2934 3.2237C49.4315 1.09541 54.9385 0 60.5 0C66.0615 0 71.5685 1.09541 76.7066 3.2237C81.8448 5.35199 86.5134 8.47147 90.446 12.404C94.3785 16.3366 97.498 21.0052 99.6263 26.1434C101.755 31.2815 102.85 36.7885 102.85 42.35C102.85 65.7635 60.5 121 60.5 121ZM60.5 54.45C63.7091 54.45 66.7868 53.1752 69.056 50.906C71.3252 48.6368 72.6 45.5591 72.6 42.35C72.6 39.1409 71.3252 36.0632 69.056 33.794C66.7868 31.5248 63.7091 30.25 60.5 30.25C57.2909 30.25 54.2132 31.5248 51.944 33.794C49.6748 36.0632 48.4 39.1409 48.4 42.35C48.4 45.5591 49.6748 48.6368 51.944 50.906C54.2132 53.1752 57.2909 54.45 60.5 54.45Z" fill="#ABCC63"/>
</svg>
