<svg width="169" height="171" viewBox="0 0 169 171" fill="none" xmlns="http://www.w3.org/2000/svg">
<path d="M48.1 13.3856C36.8514 19.0195 27.0878 27.2233 19.5999 37.3328C12.112 47.4424 7.11036 59.1733 5 71.5756" stroke="white" stroke-width="10" stroke-miterlimit="10" stroke-linecap="round"/>
<path d="M98.55 80.0256C118.34 74.7856 130.63 55.0756 126.89 35.7756C123.37 17.6756 106.6 4.33559 87.45 5.02559" stroke="white" stroke-width="10" stroke-miterlimit="10" stroke-linecap="round"/>
<path d="M163.75 80.3256C162.955 66.1332 158.369 52.4135 150.47 40.5956" stroke="white" stroke-width="10" stroke-miterlimit="10" stroke-linecap="round"/>
<path d="M158.11 114.396C152.02 135.326 130.43 147.096 111.27 141.716C94.42 136.976 82.59 119.856 84.27 100.956" stroke="white" stroke-width="10" stroke-miterlimit="10" stroke-linecap="round"/>
<path d="M71.35 164.026C75.4977 164.684 79.6904 165.018 83.89 165.026C90.5981 165.032 97.2805 164.196 103.78 162.536" stroke="white" stroke-width="10" stroke-miterlimit="10" stroke-linecap="round"/>
<path d="M28 142.236C9.44 124.506 9.77 96.6956 24.44 82.6556C35.44 72.1256 53.9 69.9556 69.93 77.7956" stroke="white" stroke-width="10" stroke-miterlimit="10" stroke-linecap="round"/>
<path d="M24.07 65.1356C21.3695 73.314 20.3686 81.9579 21.1287 90.537C21.8887 99.1161 24.3937 107.449 28.49 115.026" stroke="white" stroke-width="10" stroke-miterlimit="10" stroke-linecap="round"/>
<path d="M41.42 38.4257C50.62 29.9257 64.15 28.4957 74.22 34.6257C85.66 41.6257 90.31 56.9257 84.22 69.9557" stroke="white" stroke-width="10" stroke-miterlimit="10" stroke-linecap="round"/>
<path d="M137.73 52.2356C132.782 44.0938 126.052 37.1801 118.046 32.015C110.041 26.8498 100.968 23.5677 91.51 22.4156" stroke="white" stroke-width="10" stroke-miterlimit="10" stroke-linecap="round"/>
<path d="M96.27 94.9456C99.6213 100.433 104.807 104.557 110.908 106.587C117.009 108.617 123.632 108.421 129.603 106.035C135.574 103.648 140.507 99.2253 143.528 93.5495C146.55 87.8736 147.464 81.3114 146.11 75.0256" stroke="white" stroke-width="10" stroke-miterlimit="10" stroke-linecap="round"/>
<path d="M81.56 147.916C66.9 148.246 54.44 137.576 52.56 123.856C50.9 111.456 58.19 99.0256 70.39 94.1256" stroke="white" stroke-width="10" stroke-miterlimit="10" stroke-linecap="round"/>
<path d="M115.29 139.586C122.691 135.332 129.154 129.624 134.29 122.806" stroke="white" stroke-width="10" stroke-miterlimit="10" stroke-linecap="round"/>
<path d="M83.89 98.9557C91.622 98.9557 97.89 92.6877 97.89 84.9557C97.89 77.2237 91.622 70.9557 83.89 70.9557C76.158 70.9557 69.89 77.2237 69.89 84.9557C69.89 92.6877 76.158 98.9557 83.89 98.9557Z" stroke="white" stroke-width="10" stroke-miterlimit="10"/>
<path d="M114 79.7657C112.643 71.9603 108.309 64.9868 101.91 60.3157" stroke="white" stroke-width="10" stroke-miterlimit="10" stroke-linecap="round"/>
<path d="M89.82 114.886C94.6051 113.933 99.0924 111.848 102.906 108.805C106.72 105.762 109.749 101.85 111.74 97.3956" stroke="white" stroke-width="10" stroke-miterlimit="10" stroke-linecap="round"/>
<path d="M85.94 54.5256C85.26 54.5256 84.57 54.4556 83.94 54.4556C76.1625 54.4305 68.6703 57.3823 63 62.7056" stroke="white" stroke-width="10" stroke-miterlimit="10" stroke-linecap="round"/>
<path d="M53.74 80.3157C53.5073 81.8514 53.3903 83.4024 53.39 84.9557C53.3856 89.7931 54.5334 94.562 56.7384 98.8677C58.9434 103.173 62.1422 106.892 66.07 109.716" stroke="white" stroke-width="10" stroke-miterlimit="10" stroke-linecap="round"/>
<path d="M120 114.376C125.314 107.839 128.755 99.9826 129.958 91.6445C131.161 83.3063 130.08 74.798 126.83 67.0256" stroke="white" stroke-width="10" stroke-miterlimit="10" stroke-linecap="round"/>
<path d="M45.12 110.576C50.5867 118.837 58.5445 125.141 67.8378 128.572C77.1312 132.003 87.2763 132.383 96.8 129.656" stroke="white" stroke-width="10" stroke-miterlimit="10" stroke-linecap="round"/>
<path d="M52.36 50.8257C47.6464 55.1728 43.8859 60.4505 41.3161 66.3251C38.7463 72.1997 37.423 78.5436 37.43 84.9557C37.43 86.4057 37.5 87.8257 37.63 89.2357" stroke="white" stroke-width="10" stroke-miterlimit="10" stroke-linecap="round"/>
<path d="M109.73 46.2656C104.148 42.5471 97.829 40.0787 91.2047 39.0293C84.5805 37.9799 77.8076 38.3743 71.35 40.1856" stroke="white" stroke-width="10" stroke-miterlimit="10" stroke-linecap="round"/>
</svg>
