<?xml version="1.0" encoding="UTF-8" standalone="no" ?>
<!DOCTYPE svg PUBLIC "-//W3C//DTD SVG 1.1//EN" "http://www.w3.org/Graphics/SVG/1.1/DTD/svg11.dtd">
<svg xmlns="http://www.w3.org/2000/svg" xmlns:xlink="http://www.w3.org/1999/xlink" version="1.1" width="2000" height="2000" viewBox="0 0 2000 2000" xml:space="preserve">
<desc>Created with Fabric.js 5.2.4</desc>
<defs>
</defs>
<g transform="matrix(1 0 0 1 1000 1000)" id="2cf717cd-5956-46a0-9651-9c646382730c"  >
<rect style="stroke: none; stroke-width: 1; stroke-dasharray: none; stroke-linecap: butt; stroke-dashoffset: 0; stroke-linejoin: miter; stroke-miterlimit: 4; fill: rgb(255,255,255); fill-rule: nonzero; opacity: 1; visibility: hidden;" vector-effect="non-scaling-stroke"  x="-1000" y="-1000" rx="0" ry="0" width="2000" height="2000" />
</g>
<g transform="matrix(Infinity NaN NaN Infinity 0 0)" id="fd9661b6-be01-4eee-82b3-dcb2c196fa43"  >
</g>
<g transform="matrix(1.85 0 0 1.85 2416.44 1000)"  >
<g style="" vector-effect="non-scaling-stroke"   >
		<g transform="matrix(1 0 0 1 -765.76 0)"  >
<rect style="stroke: none; stroke-width: 1; stroke-dasharray: none; stroke-linecap: butt; stroke-dashoffset: 0; stroke-linejoin: miter; stroke-miterlimit: 4; fill: rgb(255,255,255); fill-rule: nonzero; opacity: 1; visibility: hidden;" vector-effect="non-scaling-stroke"  x="-540" y="-540" rx="0" ry="0" width="1080" height="1080" />
</g>
		<g transform="matrix(6.09 0 0 6.09 580.83 0.01)"  >
<path style="stroke: none; stroke-width: 1; stroke-dasharray: none; stroke-linecap: butt; stroke-dashoffset: 0; stroke-linejoin: miter; stroke-miterlimit: 4; fill: rgb(69,16,15); fill-rule: nonzero; opacity: 1;" vector-effect="non-scaling-stroke"  transform=" translate(-305.13, -84.02)" d="M 195.61 52.57 C 195.65380382196898 52.87292587199786 195.57057912708484 53.18049539656963 195.38000000000002 53.42 C 195.1027447273695 53.58367409797405 194.78018357389863 53.653796087859014 194.46000000000004 53.620000000000005 L 192.46000000000004 53.620000000000005 C 192.13981642610145 53.653796087859014 191.81725527263058 53.58367409797405 191.54000000000005 53.42 C 191.34942087291523 53.18049539656963 191.2661961780311 52.87292587199786 191.31000000000006 52.57 L 191.31000000000006 31.87 L 187.64000000000007 31.87 C 187.33707412800223 31.91380382196895 187.02950460343044 31.83057912708482 186.79000000000008 31.64 C 186.62632590202603 31.362744727369453 186.5562039121411 31.0401835738986 186.5900000000001 30.72 L 186.5900000000001 29.14 C 186.5562039121411 28.8198164261014 186.62632590202603 28.497255272630547 186.79000000000008 28.22 C 187.02950460343044 28.02942087291518 187.33707412800223 27.94619617803105 187.64000000000007 27.99 L 194.45000000000007 27.99 C 194.77014436071602 27.956916213063064 195.09248468085684 28.026990195702375 195.37000000000006 28.189999999999998 C 195.56057912708488 28.429504603430363 195.64380382196902 28.737074128002142 195.60000000000005 29.04 z M 205.28 40.730000000000004 C 203.81287140469954 40.81864183418831 202.37163123246714 40.314207773906965 201.28 39.330000000000005 C 200.27912616999166 38.29050885885101 199.75722023767452 36.8806379722443 199.84 35.440000000000005 L 199.84 33.440000000000005 C 199.92273159896308 31.248446388587496 201.25760926959668 29.29952014215357 203.27118416944398 28.430458653036023 C 205.28475906929125 27.56139716391848 207.61855548096864 27.926919007912783 209.27 29.370000000000005 C 210.27087383000836 30.409491141149 210.7927797623255 31.81936202775571 210.71 33.260000000000005 L 210.71 35.260000000000005 C 210.85676814557505 36.745535806122874 210.33210804904013 38.218950666321625 209.2794678760995 39.27739584021595 C 208.22682770315888 40.33584101411029 206.75632049274245 40.868596221746806 205.27 40.730000000000004 z M 205.28 30.540000000000006 C 204.56889237256937 30.477181244736812 203.86941073304897 30.751052362855905 203.39000000000001 31.280000000000005 C 202.93725872037356 31.979556751755183 202.72972557762617 32.80968932274476 202.8 33.64000000000001 L 202.8 35.080000000000005 C 202.72972557762617 35.910310677255254 202.93725872037356 36.74044324824483 203.39000000000001 37.440000000000005 C 204.4580500774941 38.42357897976208 206.10194992250592 38.42357897976208 207.17000000000002 37.440000000000005 C 207.62274127962647 36.74044324824483 207.83027442237386 35.910310677255254 207.76000000000002 35.080000000000005 L 207.76000000000002 33.64000000000001 C 207.83027442237386 32.80968932274476 207.62274127962647 31.979556751755183 207.17000000000002 31.28000000000001 C 206.68968704034265 30.7523618673682 205.99088087265613 30.478755219702585 205.28000000000003 30.54000000000001 z M 234.92000000000002 46.06 C 234.91043930231197 45.79360639952817 235.00763381923989 45.53442102105376 235.19000000000003 45.34 C 235.45871802902863 45.19330816308881 235.76526431399026 45.130605513892114 236.07000000000002 45.160000000000004 L 238.23000000000002 45.160000000000004 C 238.55014436071596 45.12691621306307 238.8724846808568 45.196990195702384 239.15 45.36000000000001 C 239.33096169988823 45.57321492937623 239.4143737843831 45.85246408181548 239.38 46.13000000000001 C 239.41009845444714 47.222400210330086 239.25108968705482 48.311779425230775 238.91 49.35000000000001 C 238.56759601722985 50.24702729630638 238.03937483264212 51.06151028415455 237.35999999999999 51.74000000000001 Q 234.98 54.19000000000001 230.16 54.19000000000001 C 228.41197999325294 54.23537526771582 226.68425582142416 53.80689967310228 225.16 52.95 C 223.74895387538726 52.09601592263258 222.64317489986277 50.81877121989067 222 49.3 C 221.67671571396107 48.56754782591905 221.45791172660088 47.793318332183 221.35 47 C 221.21371072607238 45.878693510548324 221.15357292854736 44.749439312578446 221.17 43.620000000000005 L 221.17 38.349999999999994 C 221.15678834056894 37.26654847066102 221.22363693519495 36.18360123771947 221.36999999999998 35.11000000000001 C 221.4942502934755 34.27365130730609 221.70539254160704 33.452542564572276 221.99999999999997 32.66 C 222.58556090936597 31.03058596162601 223.71131033569515 29.650748890482713 225.18999999999997 28.749999999999993 C 226.8598422314639 27.800706607867696 228.76034076310185 27.333370903366557 230.67999999999998 27.39999999999999 Q 235.29 27.399999999999988 237.51999999999998 29.809999999999988 C 238.18243767373758 30.496367047523716 238.68747050097707 31.318751583771803 238.99999999999997 32.219999999999985 C 239.30828434762074 33.23395645988037 239.45342875539728 34.2904727304398 239.42999999999998 35.34999999999999 C 239.46437378438307 35.62753591818452 239.38096169988822 35.90678507062377 239.2 36.11999999999999 C 238.92274472736943 36.283674097974036 238.6001835738986 36.353796087859 238.28 36.31999999999999 L 236 36.31999999999999 C 235.69526431399024 36.34939448610788 235.3887180290286 36.28669183691119 235.12 36.13999999999999 C 234.93763381923986 35.94557897894624 234.84043930231195 35.686393600471824 234.85 35.419999999999995 C 234.92119775094991 34.241149360631844 234.5342685843808 33.080361860924555 233.76999999999998 32.17999999999999 C 232.82201902727445 31.431075916014247 231.62339757466896 31.073278467475294 230.42 31.179999999999993 C 229.0128436137511 31.03127725266915 227.6233997555659 31.589301874959155 226.70999999999998 32.669999999999995 Q 225.62999999999997 34.16 225.62999999999997 37.73 L 225.62999999999997 43.73 Q 225.62999999999997 47.19 226.72999999999996 48.73 C 227.61396448641136 49.818677496841715 228.98395678037966 50.39294823924486 230.37999999999997 50.26 C 231.5900854287907 50.371961765437106 232.7968392980119 50.013874563887796 233.74999999999997 49.26 C 234.5443483223089 48.387915174933774 234.96449794829297 47.23878799275506 234.91999999999996 46.059999999999995 z M 252.19000000000003 27.410000000000004 C 254.06079338996983 27.346985695737924 255.9155252861677 27.774470370698026 257.57000000000005 28.65 C 259.018772179396 29.47546376595862 260.15163111627385 30.759605107450533 260.7900000000001 32.300000000000004 C 261.116137233963 33.045371507527896 261.33498040573045 33.83320692589064 261.44000000000005 34.64 C 261.5743458577248 35.75142870979146 261.6344790765371 36.870574726576564 261.62000000000006 37.99 L 261.62000000000006 43.25 C 261.6301608800411 44.326728186855235 261.56332380943144 45.40280502367098 261.4200000000001 46.469999999999985 C 261.303165519649 47.31432895964827 261.0918401170081 48.14285871285936 260.7900000000001 48.94 C 260.17679653138765 50.56512406002248 259.0450897980296 51.942853996284434 257.57000000000005 52.86 C 255.9347621851579 53.79381395615379 254.0719869568223 54.25431415200627 252.19000000000005 54.19 C 250.31916149684997 54.2534809967413 248.46431099787463 53.82596898582506 246.81000000000006 52.949999999999996 C 245.36074063170884 52.12513527602801 244.22771376781034 50.840803582478465 243.59000000000006 49.3 C 243.2632232811914 48.55485607532251 243.04435434818961 47.766927916516124 242.94000000000005 46.959999999999994 C 242.8053873142954 45.848594575409926 242.74525313665626 44.72943071379266 242.76000000000005 43.609999999999985 L 242.76000000000005 38.349999999999994 C 242.74959943280393 37.273265521792254 242.81643756714197 36.19717155894972 242.96000000000004 35.129999999999995 C 243.07666823906305 34.28563845307004 243.2879983424021 33.45709027013765 243.59000000000003 32.660000000000004 C 244.2025485013005 31.03449732785048 245.33441159642277 29.65657703813644 246.81000000000003 28.74 C 248.4452378148422 27.8061860438462 250.30801304317777 27.34568584799372 252.19000000000003 27.409999999999997 z M 252.19000000000003 31.260000000000005 C 250.75338335429237 31.117120391053888 249.33673048354228 31.68005350548353 248.39000000000001 32.77 Q 247.26000000000002 34.28 247.26000000000002 37.77 L 247.26000000000002 43.77 Q 247.26000000000002 47.260000000000005 248.39000000000001 48.77 C 250.52202934670922 50.786568140296275 253.8579706532908 50.786568140296275 255.99 48.77 Q 257.12 47.260000000000005 257.12 43.77 L 257.12 37.77 Q 257.12 34.28 255.99 32.77 C 255.04326951645774 31.68005350548353 253.62661664570766 31.117120391053888 252.19 31.26 z M 270 36.3 L 270 52.56999999999999 C 270.04380382196894 52.87292587199785 269.9605791270848 53.18049539656963 269.77 53.419999999999995 C 269.4927447273694 53.58367409797404 269.17018357389856 53.653796087859014 268.84999999999997 53.62 L 266.84999999999997 53.62 C 266.5298164261014 53.653796087859014 266.2072552726305 53.58367409797404 265.92999999999995 53.419999999999995 C 265.7394208729151 53.18049539656963 265.656196178031 52.87292587199785 265.69999999999993 52.56999999999999 L 265.69999999999993 29 C 265.656196178031 28.69707412800214 265.7394208729151 28.38950460343036 265.92999999999995 28.15 C 266.2072552726305 27.98632590202595 266.5298164261014 27.916203912140983 266.84999999999997 27.95 L 269 27.95 C 269.34117684782854 27.92629486651877 269.68325167920233 27.981026839538576 270 28.11 C 270.29720960269987 28.326370866274612 270.5290320391087 28.62047395724104 270.67 28.96 L 279.28000000000003 45.269999999999996 L 279.28000000000003 29 C 279.2361961780311 28.69707412800214 279.3194208729152 28.38950460343036 279.51000000000005 28.15 C 279.7872552726306 27.98632590202595 280.1098164261015 27.916203912140983 280.43000000000006 27.95 L 282.43000000000006 27.95 C 282.75014436071604 27.916916213063057 283.07248468085686 27.98699019570237 283.3500000000001 28.15 C 283.5405791270849 28.38950460343036 283.62380382196903 28.69707412800214 283.5800000000001 29 L 283.5800000000001 52.57 C 283.62380382196903 52.87292587199786 283.5405791270849 53.18049539656964 283.3500000000001 53.42 C 283.0727447273695 53.583674097974054 282.75018357389865 53.65379608785902 282.43000000000006 53.620000000000005 L 280.30000000000007 53.620000000000005 C 279.95882315217153 53.643705133481234 279.61674832079774 53.58897316046143 279.30000000000007 53.46000000000001 C 279.0027903973002 53.24362913372539 278.77096796089137 52.94952604275897 278.63000000000005 52.61000000000001 z M 287.68 38.349999999999994 C 287.5945636264987 36.41792231803402 287.87620335727655 34.487163199810176 288.51 32.660000000000004 C 289.1473271427336 31.003600293526436 290.3379732972348 29.618635033691266 291.88 28.739999999999995 C 293.583726442274 27.814395621556862 295.5018399890594 27.355566301912134 297.44 27.409999999999997 C 298.6116004291656 27.403913690145227 299.7787074689255 27.555267629018996 300.91 27.859999999999996 C 301.9441854884921 28.134201024979994 302.91542645165845 28.606237716868534 303.77000000000004 29.249999999999993 C 304.5933938835557 29.88530316286601 305.257589063839 30.703564235483128 305.71000000000004 31.639999999999993 C 306.2140962991326 32.725760715125006 306.4605049218841 33.913313383107855 306.43000000000006 35.11 C 306.4616420461272 35.36377015893346 306.3684844890144 35.61715871428031 306.18000000000006 35.79 C 305.90343403809095 35.934967259069644 305.59104829525063 35.99744440763771 305.2800000000001 35.97 L 303.05000000000007 35.97 C 302.7452643139903 35.99939448610789 302.4387180290287 35.936691836911194 302.1700000000001 35.79 C 301.98763381923993 35.595578978946236 301.890439302312 35.33639360047183 301.9000000000001 35.07 C 301.9283541807761 33.9275943506724 301.4529497779447 32.83050726721531 300.6000000000001 32.07 C 299.57719979771065 31.397266704496797 298.36096370581686 31.080904715275867 297.1400000000001 31.17 C 296.37179997457343 31.154372200709496 295.60588099139966 31.258969066253048 294.8700000000001 31.48 C 294.2645905051169 31.670580963931737 293.7311483309946 32.040155280643944 293.34000000000015 32.54 C 292.9028032216256 33.13363514430806 292.60229511135225 33.81660812220209 292.46000000000015 34.540000000000006 C 292.2474482664241 35.58284513830294 292.15019733115037 36.64589846526062 292.17000000000013 37.71 L 292.17000000000013 43.71 Q 292.17000000000013 47.35 293.3800000000001 48.82 C 294.3361998189544 49.86944093724542 295.72502153771586 50.41610480526854 297.1400000000001 50.3 C 298.4555684291814 50.3966046522016 299.7542092185117 49.9565097180397 300.7400000000001 49.08 Q 302 48 302 45 L 302 44.32 L 299.2 44.32 C 298.89707412800215 44.36380382196896 298.5895046034303 44.28057912708483 298.34999999999997 44.09 C 298.18632590202594 43.812744727369456 298.116203912141 43.4901835738986 298.15 43.17 L 298.15 41.59 C 298.116203912141 41.26981642610141 298.18632590202594 40.94725527263055 298.34999999999997 40.67 C 298.5895046034303 40.47942087291518 298.89707412800215 40.39619617803105 299.2 40.440000000000005 L 305.28999999999996 40.440000000000005 C 305.61018357389855 40.40620391214099 305.9327447273694 40.476325902025955 306.21 40.64000000000001 C 306.4005791270848 40.87950460343037 306.48380382196893 41.18707412800215 306.44 41.49000000000001 L 306.44 45.56000000000001 C 306.4464075008138 46.69395963146112 306.2569575606241 47.82051016866059 305.88 48.890000000000015 C 305.51532103880896 49.91941835190629 304.93193930407284 50.857605352212936 304.17 51.64000000000001 C 303.3450826615475 52.46931135988979 302.34833949521607 53.10763660682123 301.25 53.510000000000005 C 299.92371845297544 53.989940921844095 298.52011941724743 54.220483758630344 297.11 54.190000000000005 C 295.18330677972733 54.288084001439316 293.26764569485266 53.84467601072691 291.58000000000004 52.910000000000004 C 290.21030992801695 52.04322305414471 289.1362277471618 50.78082776365909 288.50000000000006 49.290000000000006 C 288.17503967909875 48.55117861462274 287.9562058954779 47.7701103407761 287.8500000000001 46.970000000000006 C 287.71416135054653 45.852003374686305 287.6540243667385 44.72610540005813 287.6700000000001 43.6 z M 314.83 43.60999999999999 L 314.83 52.60999999999999 C 314.86350327286596 52.904477458734306 314.78496543360967 53.20077930683755 314.60999999999996 53.43999999999999 C 314.3330138299527 53.62328295263988 313.9995543760035 53.701326654627984 313.66999999999996 53.65999999999999 L 311.66999999999996 53.65999999999999 C 311.3404456239964 53.701326654627984 311.00698617004724 53.62328295263988 310.72999999999996 53.43999999999999 C 310.55503456639025 53.20077930683755 310.47649672713396 52.904477458734306 310.50999999999993 52.60999999999999 L 310.50999999999993 29 C 310.47649672713396 28.70552254126569 310.55503456639025 28.40922069316244 310.72999999999996 28.17 C 311.00698617004724 27.986717047360113 311.3404456239964 27.90867334537201 311.66999999999996 27.950000000000003 L 319.37999999999994 27.950000000000003 Q 323.6599999999999 27.950000000000003 325.6499999999999 29.730000000000004 Q 327.63999999999993 31.510000000000005 327.6499999999999 35.440000000000005 L 327.6499999999999 36.120000000000005 Q 327.6499999999999 41.59 323.2899999999999 43.03 L 328.6599999999999 52.53 C 328.7402107177189 52.67465503070152 328.78798260056755 52.83503206597905 328.7999999999999 53 Q 328.7999999999999 53.58 327.8599999999999 53.58 L 325.1599999999999 53.58 C 324.8531837886699 53.603956104188526 324.54632278600974 53.53421496722031 324.2799999999999 53.379999999999995 C 324.0165807286131 53.14045983962522 323.8025622628174 52.85170476672617 323.6499999999999 52.529999999999994 L 318.7899999999999 43.529999999999994 z M 314.83 39.86999999999999 L 319.33 39.86999999999999 C 320.4024710700733 39.98739347492283 321.47850372224985 39.68251755680613 322.33 39.01999999999999 C 322.98520601049836 38.20316575610751 323.2939742693004 37.16197046479833 323.19 36.11999999999999 L 323.19 35.61999999999999 C 323.2939673903349 34.54869459726165 322.99047545666883 33.47754659608725 322.34 32.61999999999999 C 321.49297418949936 31.948085052626585 320.4143616918052 31.63888280328759 319.34 31.75999999999999 L 314.84 31.75999999999999 z M 348.09999999999997 52.459999999999994 C 348.13379608785897 52.78018357389859 348.063674097974 53.10274472736945 347.9 53.379999999999995 C 347.6604953965696 53.57057912708482 347.3529258719978 53.65380382196895 347.04999999999995 53.60999999999999 L 333.47999999999996 53.60999999999999 C 333.1598164261014 53.64379608785901 332.8372552726305 53.573674097974035 332.55999999999995 53.40999999999999 C 332.3694208729151 53.17049539656963 332.286196178031 52.862925871997845 332.3299999999999 52.55999999999999 L 332.3299999999999 29 C 332.286196178031 28.69707412800214 332.3694208729151 28.38950460343036 332.55999999999995 28.15 C 332.8372552726305 27.98632590202595 333.1598164261014 27.916203912140983 333.47999999999996 27.95 L 346.90999999999997 27.95 C 347.2129258719978 27.906196178031042 347.52049539656963 27.989420872915172 347.76 28.18 C 347.92300980429764 28.457515319143223 347.9930837869369 28.77985563928405 347.96 29.1 L 347.96 30.68 C 347.993796087859 31.0001835738986 347.923674097974 31.322744727369454 347.76 31.6 C 347.52049539656963 31.79057912708483 347.2129258719978 31.87380382196896 346.90999999999997 31.830000000000002 L 336.71999999999997 31.830000000000002 L 336.71999999999997 38.5 L 346 38.5 C 346.30292587199784 38.45619617803104 346.61049539656966 38.53942087291517 346.85 38.73 C 347.01367409797405 39.007255272630545 347.083796087859 39.3298164261014 347.05 39.65 L 347.05 41.23 C 347.083796087859 41.55018357389859 347.01367409797405 41.87274472736945 346.85 42.15 C 346.61049539656966 42.34057912708482 346.30292587199784 42.42380382196895 346 42.379999999999995 L 336.75 42.379999999999995 L 336.75 49.72 L 347.08 49.72 C 347.3829258719978 49.67619617803104 347.69049539656964 49.75942087291517 347.93 49.949999999999996 C 348.09300980429765 50.22751531914322 348.1630837869369 50.54985563928405 348.13 50.87 z M 355.61999999999995 47.349999999999994 C 355.7707082041301 48.274686112397795 356.27215498633666 49.10565506576875 357.0199999999999 49.669999999999995 C 357.93562634373166 50.2374124073547 359.0048673528462 50.50646978546521 360.0799999999999 50.44 C 361.2327169587759 50.53878206202006 362.38578263017274 50.25403108829095 363.3599999999999 49.629999999999995 C 364.0873995027305 48.95030952143373 364.45702760595736 47.97079504788251 364.3599999999999 46.98 C 364.39433326203675 46.11628484051164 364.0974300328888 45.272078068476354 363.5299999999999 44.62 C 362.78862932337614 43.899612660991586 361.871548208225 43.38590932957236 360.8699999999999 43.129999999999995 L 357.06 42 C 355.47947331458323 41.55357831196125 354.0666705654973 40.64882778298996 353 39.4 C 352.0522419682332 38.2467575785595 351.54853363024836 36.792388433673715 351.58 35.300000000000004 L 351.58 35 C 351.4617437194087 32.889657611573384 352.3033727873575 30.838875865217762 353.87 29.42 C 355.7213264334827 27.985005800684608 358.03220356188297 27.273966684253768 360.37 27.42 Q 364.91 27.42 367.1 29.830000000000002 C 368.0997605754664 30.985288616929008 368.63124935947803 32.4727438043978 368.59000000000003 34 C 368.6243737843831 34.27753591818454 368.54096169988827 34.55678507062379 368.36 34.77 C 368.08274472736946 34.93367409797405 367.7601835738986 35.00379608785902 367.44 34.970000000000006 L 365.39 34.970000000000006 C 365.078619323273 35.00417193240127 364.7642852660552 34.94130512095771 364.49 34.790000000000006 C 364.31059974503233 34.59224064523251 364.2077523250099 34.33689532655605 364.2 34.07000000000001 Q 363.88 31.070000000000007 359.99 31.070000000000007 Q 356.1 31.070000000000007 355.99 34.63000000000001 C 355.98236554552295 35.05691513409462 356.04313468615555 35.48229911852276 356.17 35.89000000000001 C 356.2844509940848 36.270022578167215 356.4944787069615 36.614330304194596 356.78000000000003 36.89000000000001 C 357.1152447873137 37.20005965995426 357.49641404599305 37.45642128526072 357.91 37.650000000000006 C 358.47583634427036 37.91659730830177 359.0607972440188 38.140553767062606 359.66 38.32000000000001 L 363.48 39.510000000000005 C 365.0875414088954 39.91982497749324 366.5211532648367 40.834672641064586 367.57 42.120000000000005 C 368.4902095579578 43.37623588567536 368.96526288100785 44.903444346443614 368.92 46.46000000000001 L 368.92 46.93000000000001 C 369.0394042874066 48.978461068997746 368.20070572761824 50.966213602769244 366.65000000000003 52.31000000000001 C 364.80269846995816 53.675448139853835 362.53259832110206 54.34479124146662 360.24 54.20000000000001 Q 355.34000000000003 54.20000000000001 353.07 51.93000000000001 C 352.4813529598327 51.32532962220738 352.01003898911193 50.6166632921309 351.68 49.84 C 351.35607279892423 49.07785067038551 351.1894076966856 48.258130473660636 351.19 47.430000000000014 C 351.1556262156169 47.15246408181547 351.23903830011176 46.87321492937622 351.42 46.660000000000004 C 351.69725527263057 46.49632590202596 352.01981642610144 46.426203912140984 352.34000000000003 46.46 L 354.34000000000003 46.46 C 354.6447356860098 46.43060551389211 354.9512819709714 46.493308163088805 355.22 46.64 C 355.43273923665873 46.82221398808745 355.5743834152998 47.073632405175395 355.62 47.35 z M 376.41999999999996 47.349999999999994 C 376.5707082041301 48.274686112397795 377.07215498633667 49.10565506576875 377.81999999999994 49.669999999999995 C 378.73562634373167 50.2374124073547 379.8048673528462 50.50646978546521 380.87999999999994 50.44 C 382.0327169587759 50.53878206202006 383.18578263017275 50.25403108829095 384.1599999999999 49.629999999999995 C 384.8873995027305 48.95030952143373 385.2570276059574 47.97079504788251 385.1599999999999 46.98 C 385.19433326203676 46.11628484051164 384.8974300328888 45.272078068476354 384.3299999999999 44.62 C 383.58862932337615 43.899612660991586 382.67154820822503 43.38590932957236 381.6699999999999 43.129999999999995 L 377.86 42 C 376.2734805059917 41.56996137138055 374.850135707701 40.67906584971202 373.77000000000004 39.44 C 372.82224196823324 38.2867575785595 372.3185336302484 36.832388433673714 372.35 35.34 L 372.35 35 C 372.2317437194087 32.889657611573384 373.0733727873575 30.838875865217762 374.64000000000004 29.42 C 376.49132643348275 27.985005800684608 378.802203561883 27.273966684253768 381.14000000000004 27.42 Q 385.68000000000006 27.42 387.87000000000006 29.830000000000002 C 388.876989289909 30.98232309715631 389.41572800303265 32.4700982188289 389.38000000000005 34 C 389.41437378438314 34.27753591818454 389.3309616998883 34.55678507062379 389.15000000000003 34.77 C 388.8727447273695 34.93367409797405 388.5501835738986 35.00379608785902 388.23 34.970000000000006 L 386.18 34.970000000000006 C 385.86861932327304 35.00417193240127 385.5542852660552 34.94130512095771 385.28000000000003 34.790000000000006 C 385.10059974503235 34.59224064523251 384.9977523250099 34.33689532655605 384.99 34.07000000000001 Q 384.67 31.070000000000007 380.78000000000003 31.070000000000007 Q 376.89000000000004 31.070000000000007 376.78000000000003 34.63000000000001 C 376.772365545523 35.05691513409462 376.8331346861556 35.48229911852276 376.96000000000004 35.89000000000001 C 377.0744509940848 36.270022578167215 377.2844787069615 36.614330304194596 377.57000000000005 36.89000000000001 C 377.90524478731373 37.20005965995426 378.28641404599307 37.45642128526072 378.70000000000005 37.650000000000006 C 379.2658363442704 37.91659730830177 379.8507972440188 38.140553767062606 380.45000000000005 38.32000000000001 L 384.27000000000004 39.510000000000005 C 385.8775414088954 39.91982497749324 387.3111532648367 40.834672641064586 388.36 42.120000000000005 C 389.28020955795785 43.37623588567536 389.75526288100787 44.903444346443614 389.71000000000004 46.46000000000001 L 389.71000000000004 46.93000000000001 C 389.82940428740665 48.978461068997746 388.99070572761826 50.966213602769244 387.44000000000005 52.31000000000001 C 385.5926984699582 53.675448139853835 383.3225983211021 54.34479124146662 381.03000000000003 54.20000000000001 Q 376.13000000000005 54.20000000000001 373.86 51.93000000000001 C 373.2713529598327 51.32532962220738 372.80003898911195 50.6166632921309 372.47 49.84 C 372.14607279892425 49.07785067038551 371.9794076966856 48.258130473660636 371.98 47.430000000000014 C 371.9456262156169 47.15246408181547 372.0290383001118 46.87321492937622 372.21000000000004 46.660000000000004 C 372.4872552726306 46.49632590202596 372.80981642610146 46.426203912140984 373.13000000000005 46.46 L 375.13000000000005 46.46 C 375.43473568600984 46.43060551389211 375.74128197097144 46.493308163088805 376.01000000000005 46.64 C 376.2264544112126 46.82062879510996 376.37175036842376 47.07223886735363 376.4200000000001 47.35 z M 402.49999999999994 27.409999999999993 C 404.3707933899697 27.34698569573792 406.22552528616757 27.77447037069802 407.87999999999994 28.649999999999984 C 409.3287721793959 29.475463765958605 410.46163111627374 30.759605107450515 411.09999999999997 32.29999999999999 C 411.4261372339629 33.04537150752788 411.64498040573034 33.83320692589063 411.74999999999994 34.639999999999986 C 411.88434585772467 35.75142870979145 411.944479076537 36.87057472657655 411.92999999999995 37.98999999999999 L 411.92999999999995 43.249999999999986 C 411.940160880041 44.32672818685522 411.8733238094313 45.402805023670965 411.72999999999996 46.46999999999997 C 411.6131655196489 47.31432895964826 411.40184011700796 48.14285871285934 411.09999999999997 48.93999999999998 C 410.48679653138754 50.56512406002246 409.3550897980295 51.94285399628442 407.87999999999994 52.859999999999985 C 406.2447621851578 53.79381395615378 404.3819869568222 54.25431415200626 402.49999999999994 54.18999999999998 C 400.62916149684986 54.25348099674129 398.7743109978745 53.82596898582504 397.11999999999995 52.94999999999998 C 395.6707406317087 52.125135276028004 394.5377137678102 50.84080358247846 393.8999999999999 49.29999999999998 C 393.57322328119125 48.55485607532249 393.3543543481895 47.76692791651611 393.24999999999994 46.95999999999998 C 393.1153873142953 45.84859457540991 393.0552531366562 44.729430713792645 393.06999999999994 43.60999999999997 L 393.06999999999994 38.34999999999998 C 393.0595994328038 37.27326552179224 393.12643756714186 36.197171558949705 393.2699999999999 35.12999999999998 C 393.38666823906294 34.28563845307003 393.597998342402 33.457090270137634 393.8999999999999 32.65999999999999 C 394.5125485013004 31.034497327850463 395.6444115964227 29.656577038136415 397.11999999999995 28.73999999999998 C 398.7552378148421 27.806186043846186 400.6180130431777 27.345685847993707 402.49999999999994 27.409999999999982 z M 402.49999999999994 31.259999999999994 C 401.0633833542923 31.11712039105388 399.64673048354217 31.68005350548352 398.69999999999993 32.769999999999996 Q 397.56999999999994 34.279999999999994 397.56999999999994 37.769999999999996 L 397.56999999999994 43.769999999999996 Q 397.56999999999994 47.26 398.69999999999993 48.769999999999996 C 400.83202934670913 50.78656814029629 404.16797065329075 50.78656814029629 406.29999999999995 48.769999999999996 Q 407.42999999999995 47.26 407.42999999999995 43.769999999999996 L 407.42999999999995 37.769999999999996 Q 407.42999999999995 34.279999999999994 406.29999999999995 32.769999999999996 C 405.3532695164577 31.680053505483524 403.9366166457076 31.11712039105388 402.49999999999994 31.259999999999994 z M 186.17 72.23 C 186.1331560808015 72.09938691819025 186.10970188425506 71.96536293792485 186.1 71.83 Q 186.1 71.17999999999999 186.89 71.17999999999999 L 189.48 71.17999999999999 C 189.7938944497413 71.14471085405349 190.11059454851758 71.21508865378155 190.38 71.38 C 190.58201801318114 71.6256142465601 190.7195098524119 71.9177844049255 190.78 72.22999999999999 L 196.29 91.38 L 201.79999999999998 72.22999999999999 C 201.85967153286947 71.9175177170968 201.99725471372793 71.62515345777257 202.2 71.38 C 202.4694054514824 71.21508865378155 202.7861055502587 71.14471085405349 203.1 71.17999999999999 L 205.57999999999998 71.17999999999999 Q 206.36999999999998 71.17999999999999 206.36999999999998 71.83 C 206.3602981157449 71.96536293792485 206.33684391919846 72.09938691819025 206.29999999999998 72.23 L 199 96.17 C 198.94875622286943 96.39834144857262 198.80349828324398 96.59443966706696 198.6 96.71000000000001 C 198.3561502720994 96.79541390971204 198.09806041518 96.83276902058196 197.84 96.82000000000001 L 194.64000000000001 96.82000000000001 C 194.38193958482003 96.83276902058196 194.12384972790062 96.79541390971204 193.88000000000002 96.71000000000001 C 193.67564499815322 96.59540959404598 193.53006629125136 96.39887833972847 193.48000000000002 96.17 z M 225.33999999999997 95.66 C 225.373796087859 95.9801835738986 225.30367409797404 96.30274472736946 225.14 96.58 C 224.90049539656962 96.77057912708482 224.59292587199783 96.85380382196895 224.29 96.81 L 210.73 96.81 C 210.4098164261014 96.843796087859 210.08725527263053 96.77367409797404 209.81 96.61 C 209.61942087291519 96.37049539656964 209.53619617803105 96.06292587199786 209.58 95.76 L 209.58 72.23 C 209.53619617803105 71.92707412800215 209.61942087291519 71.61950460343037 209.81 71.38000000000001 C 210.08725527263056 71.21632590202597 210.4098164261014 71.14620391214099 210.73 71.18 L 224.16 71.18 C 224.46292587199784 71.13619617803106 224.77049539656963 71.2194208729152 225.01 71.41000000000001 C 225.1730098042976 71.68751531914323 225.24308378693692 72.00985563928405 225.20999999999998 72.33000000000001 L 225.20999999999998 73.91000000000001 C 225.243796087859 74.23018357389861 225.17367409797404 74.55274472736947 225.01 74.83000000000001 C 224.77049539656963 75.02057912708483 224.46292587199784 75.10380382196897 224.16 75.06000000000002 L 214 75.06000000000002 L 214 81.70000000000002 L 223.25 81.70000000000002 C 223.55292587199784 81.65619617803107 223.86049539656963 81.7394208729152 224.1 81.93000000000002 C 224.26367409797405 82.20725527263056 224.33379608785899 82.52981642610142 224.29999999999998 82.85000000000002 L 224.29999999999998 84.43000000000002 C 224.333796087859 84.75018357389862 224.26367409797405 85.07274472736948 224.1 85.35000000000002 C 223.86049539656963 85.54057912708484 223.55292587199784 85.62380382196898 223.25 85.58000000000003 L 214 85.58000000000003 L 214 92.92000000000003 L 224.3 92.92000000000003 C 224.60292587199785 92.87619617803108 224.91049539656964 92.95942087291522 225.15 93.15000000000003 C 225.31300980429762 93.42751531914325 225.38308378693694 93.74985563928408 225.35 94.07000000000004 z M 233.57999999999998 86.81 L 233.57999999999998 95.81 C 233.61350327286596 96.10447745873431 233.53496543360967 96.40077930683756 233.35999999999999 96.64 C 233.08301382995273 96.82328295263989 232.74955437600354 96.901326654628 232.42 96.86 L 230.42 96.86 C 230.09044562399643 96.901326654628 229.75698617004724 96.82328295263989 229.48 96.64 C 229.3050345663903 96.40077930683756 229.22649672713402 96.10447745873431 229.26 95.81 L 229.26 72.23 C 229.22649672713402 71.9355225412657 229.3050345663903 71.63922069316244 229.48 71.4 C 229.75698617004724 71.21671704736012 230.09044562399643 71.13867334537201 230.42 71.18 L 238.13 71.18 Q 242.41 71.18 244.4 72.96000000000001 Q 246.39000000000001 74.74000000000001 246.4 78.67 L 246.4 79.35000000000001 Q 246.4 84.82000000000001 242.04 86.26 L 247.41 95.76 C 247.490210717719 95.90465503070152 247.53798260056763 96.06503206597905 247.54999999999998 96.23 Q 247.54999999999998 96.81 246.60999999999999 96.81 L 243.91 96.81 C 243.60318378866998 96.83395610418853 243.29632278600982 96.76421496722031 243.03 96.61 C 242.7665807286132 96.37045983962523 242.55256226281745 96.08170476672618 242.4 95.76 L 237.54 86.76 z M 233.57999999999998 83.07000000000001 L 238.07999999999998 83.07000000000001 C 239.15247107007332 83.18739347492286 240.22850372224988 82.88251755680615 241.07999999999998 82.22000000000001 C 241.7352060104984 81.40316575610753 242.0439742693004 80.36197046479835 241.94 79.32000000000001 L 241.94 78.82000000000001 C 242.04396739033493 77.74869459726168 241.74047545666886 76.67754659608727 241.09 75.82000000000001 C 240.2429741894994 75.1480850526266 239.16436169180523 74.8388828032876 238.09 74.96000000000001 L 233.59 74.96000000000001 z M 256.62 75.07000000000001 L 250.32 75.07000000000001 C 250.01707412800215 75.11380382196896 249.70950460343036 75.03057912708482 249.47 74.84 C 249.30632590202595 74.56274472736946 249.236203912141 74.2401835738986 249.27 73.92 L 249.27 72.34 C 249.236203912141 72.0198164261014 249.30632590202595 71.69725527263054 249.47 71.42 C 249.70950460343036 71.22942087291518 250.01707412800215 71.14619617803105 250.32 71.19 L 267.32 71.19 C 267.62292587199784 71.14619617803105 267.93049539656965 71.22942087291517 268.17 71.42 C 268.33300980429766 71.69751531914322 268.4030837869369 72.01985563928405 268.37 72.34 L 268.37 73.92 C 268.403796087859 74.2401835738986 268.33367409797404 74.56274472736946 268.17 74.84 C 267.93049539656965 75.03057912708483 267.62292587199784 75.11380382196896 267.32 75.07000000000001 L 261 75.07000000000001 L 261 95.77000000000001 C 261.04380382196894 96.07292587199787 260.9605791270848 96.38049539656964 260.77 96.62 C 260.4927447273694 96.78367409797406 260.17018357389856 96.85379608785902 259.84999999999997 96.82000000000001 L 257.76 96.82000000000001 C 257.4398164261014 96.85379608785902 257.11725527263053 96.78367409797406 256.84 96.62 C 256.64942087291513 96.38049539656964 256.566196178031 96.07292587199787 256.60999999999996 95.77000000000001 z M 287.43 95.66000000000001 C 287.463796087859 95.98018357389861 287.39367409797404 96.30274472736947 287.23 96.58000000000001 C 286.99049539656966 96.77057912708484 286.68292587199784 96.85380382196897 286.38 96.81000000000002 L 272.81 96.81000000000002 C 272.4898164261014 96.84379608785903 272.16725527263054 96.77367409797407 271.89 96.61000000000001 C 271.69942087291514 96.37049539656965 271.61619617803103 96.06292587199788 271.65999999999997 95.76000000000002 L 271.65999999999997 72.23 C 271.61619617803103 71.92707412800215 271.69942087291514 71.61950460343037 271.89 71.38000000000001 C 272.16725527263054 71.21632590202596 272.4898164261014 71.14620391214099 272.81 71.18 L 286.24 71.18 C 286.54292587199785 71.13619617803106 286.85049539656967 71.21942087291518 287.09000000000003 71.41000000000001 C 287.2530098042977 71.68751531914323 287.32308378693693 72.00985563928405 287.29 72.33000000000001 L 287.29 73.91000000000001 C 287.323796087859 74.23018357389861 287.25367409797406 74.55274472736947 287.09000000000003 74.83000000000001 C 286.85049539656967 75.02057912708484 286.54292587199785 75.10380382196897 286.24 75.06000000000002 L 276.06 75.06000000000002 L 276.06 81.70000000000002 L 285.31 81.70000000000002 C 285.61292587199785 81.65619617803107 285.92049539656966 81.73942087291519 286.16 81.93000000000002 C 286.32367409797405 82.20725527263056 286.393796087859 82.52981642610142 286.36 82.85000000000002 L 286.36 84.43000000000002 C 286.393796087859 84.75018357389862 286.32367409797405 85.07274472736948 286.16 85.35000000000002 C 285.92049539656966 85.54057912708485 285.61292587199785 85.62380382196898 285.31 85.58000000000003 L 276.06 85.58000000000003 L 276.06 92.92000000000003 L 286.39 92.92000000000003 C 286.69292587199783 92.87619617803108 287.00049539656965 92.9594208729152 287.24 93.15000000000003 C 287.40300980429765 93.42751531914325 287.4730837869369 93.74985563928408 287.44 94.07000000000004 z M 295.63 79.50000000000001 L 295.63 95.77000000000001 C 295.67380382196893 96.07292587199787 295.5905791270848 96.38049539656964 295.4 96.62 C 295.1227447273694 96.78367409797406 294.80018357389855 96.85379608785902 294.47999999999996 96.82000000000001 L 292.47999999999996 96.82000000000001 C 292.1598164261014 96.85379608785902 291.8372552726305 96.78367409797406 291.55999999999995 96.62 C 291.3694208729151 96.38049539656964 291.286196178031 96.07292587199787 291.3299999999999 95.77000000000001 L 291.3299999999999 72.23 C 291.286196178031 71.92707412800215 291.3694208729151 71.61950460343037 291.55999999999995 71.38000000000001 C 291.8372552726305 71.21632590202596 292.1598164261014 71.14620391214099 292.47999999999996 71.18 L 294.56999999999994 71.18 C 294.9111768478285 71.15629486651878 295.25325167920226 71.21102683953858 295.56999999999994 71.34 C 295.86720960269975 71.55637086627462 296.09903203910864 71.85047395724104 296.23999999999995 72.19 L 304.84999999999997 88.5 L 304.84999999999997 72.23 C 304.80619617803103 71.92707412800215 304.88942087291514 71.61950460343037 305.08 71.38000000000001 C 305.35725527263054 71.21632590202596 305.6798164261014 71.14620391214099 306 71.18 L 308 71.18 C 308.320144360716 71.14691621306307 308.6424846808568 71.21699019570238 308.92 71.38000000000001 C 309.11057912708486 71.61950460343037 309.19380382196897 71.92707412800215 309.15000000000003 72.23 L 309.15000000000003 95.77000000000001 C 309.19380382196897 96.07292587199787 309.11057912708486 96.38049539656964 308.92 96.62 C 308.64274472736946 96.78367409797406 308.3201835738986 96.85379608785902 308 96.82000000000001 L 305.91 96.82000000000001 C 305.5688231521715 96.84370513348124 305.2267483207977 96.78897316046144 304.91 96.66000000000001 C 304.6127903973002 96.4436291337254 304.3809679608913 96.14952604275898 304.24 95.81000000000002 z M 319.8 75.07000000000002 L 313.5 75.07000000000002 C 313.19707412800216 75.11380382196897 312.88950460343034 75.03057912708485 312.65 74.84000000000002 C 312.48632590202595 74.56274472736948 312.416203912141 74.24018357389862 312.45 73.92000000000002 L 312.45 72.34000000000002 C 312.416203912141 72.01981642610141 312.48632590202595 71.69725527263056 312.65 71.42000000000002 C 312.88950460343034 71.22942087291518 313.19707412800216 71.14619617803106 313.5 71.19000000000001 L 330.5 71.19000000000001 C 330.80292587199784 71.14619617803106 331.11049539656966 71.22942087291518 331.35 71.42000000000002 C 331.51300980429767 71.69751531914324 331.5830837869369 72.01985563928406 331.55 72.34000000000002 L 331.55 73.92000000000002 C 331.583796087859 74.24018357389862 331.51367409797405 74.56274472736948 331.35 74.84000000000002 C 331.11049539656966 75.03057912708485 330.80292587199784 75.11380382196897 330.5 75.07000000000002 L 324.2 75.07000000000002 L 324.2 95.77000000000002 C 324.2438038219689 96.07292587199788 324.1605791270848 96.38049539656966 323.96999999999997 96.62000000000002 C 323.6927447273694 96.78367409797407 323.37018357389854 96.85379608785904 323.04999999999995 96.82000000000002 L 321 96.82000000000002 C 320.6798164261014 96.85379608785904 320.35725527263054 96.78367409797407 320.08 96.62000000000002 C 319.88942087291514 96.38049539656966 319.80619617803103 96.07292587199788 319.84999999999997 95.77000000000002 z M 350.61 95.66000000000003 C 350.643796087859 95.98018357389863 350.57367409797405 96.30274472736949 350.41 96.58000000000003 C 350.17049539656966 96.77057912708486 349.86292587199785 96.85380382196898 349.56 96.81000000000003 L 336 96.81000000000003 C 335.6798164261014 96.84379608785905 335.35725527263054 96.77367409797408 335.08 96.61000000000003 C 334.88942087291514 96.37049539656967 334.80619617803103 96.06292587199789 334.84999999999997 95.76000000000003 L 334.84999999999997 72.23 C 334.80619617803103 71.92707412800215 334.88942087291514 71.61950460343037 335.08 71.38000000000001 C 335.35725527263054 71.21632590202596 335.6798164261014 71.14620391214099 336 71.18 L 349.43 71.18 C 349.73292587199785 71.13619617803106 350.04049539656967 71.21942087291518 350.28000000000003 71.41000000000001 C 350.4430098042977 71.68751531914323 350.51308378693693 72.00985563928405 350.48 72.33000000000001 L 350.48 73.91000000000001 C 350.513796087859 74.23018357389861 350.44367409797405 74.55274472736947 350.28000000000003 74.83000000000001 C 350.04049539656967 75.02057912708484 349.73292587199785 75.10380382196897 349.43 75.06000000000002 L 339.23 75.06000000000002 L 339.23 81.70000000000002 L 348.48 81.70000000000002 C 348.78292587199786 81.65619617803107 349.0904953965697 81.73942087291519 349.33000000000004 81.93000000000002 C 349.49367409797406 82.20725527263056 349.56379608785903 82.52981642610142 349.53000000000003 82.85000000000002 L 349.53000000000003 84.43000000000002 C 349.56379608785903 84.75018357389862 349.49367409797406 85.07274472736948 349.33000000000004 85.35000000000002 C 349.0904953965697 85.54057912708485 348.78292587199786 85.62380382196898 348.48 85.58000000000003 L 339.23 85.58000000000003 L 339.23 92.92000000000003 L 349.56 92.92000000000003 C 349.86292587199785 92.87619617803108 350.17049539656966 92.9594208729152 350.41 93.15000000000003 C 350.57300980429767 93.42751531914325 350.6430837869369 93.74985563928408 350.61 94.07000000000004 z M 358.14 90.55000000000003 C 358.2907082041301 91.47468611239782 358.7921549863367 92.30565506576878 359.53999999999996 92.87000000000002 C 360.4556263437317 93.43741240735471 361.52486735284623 93.70646978546523 362.59999999999997 93.64000000000001 C 363.7527169587759 93.73878206202008 364.9057826301728 93.45403108829096 365.87999999999994 92.83000000000001 C 366.6073995027305 92.15030952143374 366.9770276059574 91.17079504788252 366.87999999999994 90.18 C 366.9143332620368 89.31628484051164 366.6174300328888 88.47207806847636 366.04999999999995 87.82000000000001 C 365.3086293233762 87.0996126609916 364.39154820822506 86.58590932957237 363.38999999999993 86.33000000000001 L 359.56999999999994 85.14000000000001 C 357.9834805059916 84.70996137138057 356.5601357077009 83.81906584971203 355.47999999999996 82.58000000000001 C 354.53224196823317 81.42675757855952 354.0285336302483 79.97238843367373 354.05999999999995 78.48000000000002 L 354.05999999999995 78.16000000000003 C 353.94174371940863 76.04965761157341 354.78337278735745 73.99887586521778 356.34999999999997 72.58000000000003 C 358.2013264334827 71.14500580068463 360.5122035618829 70.43396668425379 362.84999999999997 70.58000000000003 Q 367.39 70.58000000000003 369.58 72.99000000000002 C 370.58934809573935 74.14488632627408 371.12824812284765 75.63667580528903 371.09 77.17000000000002 C 371.12437378438307 77.44753591818456 371.0409616998882 77.7267850706238 370.85999999999996 77.94000000000001 C 370.5827447273694 78.10367409797406 370.26018357389853 78.17379608785903 369.93999999999994 78.14000000000001 L 367.8999999999999 78.14000000000001 C 367.59274222875365 78.18642751255328 367.2786364624272 78.13756661556916 366.99999999999994 78.00000000000001 C 366.82059974503227 77.80224064523252 366.7177523250098 77.54689532655607 366.7099999999999 77.28000000000002 Q 366.38999999999993 74.28000000000002 362.49999999999994 74.28000000000002 Q 358.60999999999996 74.28000000000002 358.49999999999994 77.84000000000002 C 358.4923655455229 78.26691513409463 358.5531346861555 78.69229911852277 358.67999999999995 79.10000000000002 C 358.79445099408474 79.48002257816722 359.00447870696144 79.8243303041946 359.28999999999996 80.10000000000002 C 359.62524478731365 80.41005965995427 360.006414045993 80.66642128526074 360.41999999999996 80.86000000000003 C 360.9858363442703 81.1265973083018 361.5707972440187 81.35055376706262 362.16999999999996 81.53000000000003 L 366 82.7 C 367.6075414088954 83.10982497749323 369.0411532648367 84.02467264106458 370.09 85.31 C 371.0102095579578 86.56623588567535 371.4852628810078 88.0934443464436 371.44 89.65 L 371.44 90.12 C 371.5594042874066 92.16846106899774 370.7207057276182 94.15621360276923 369.17 95.5 C 367.32269846995814 96.86544813985383 365.05259832110204 97.53479124146662 362.76 97.39 Q 357.86 97.39 355.59 95.12 C 355.0089753338402 94.50389982844456 354.54777837203625 93.78497515269126 354.22999999999996 93 C 353.9060727989242 92.23785067038551 353.73940769668553 91.41813047366064 353.73999999999995 90.59 C 353.70562621561686 90.31246408181546 353.7890383001117 90.03321492937621 353.96999999999997 89.82000000000001 C 354.2472552726305 89.65632590202596 354.5698164261014 89.58620391214099 354.89 89.62 L 356.89 89.62 C 357.1947356860098 89.59060551389211 357.5012819709714 89.65330816308881 357.77 89.80000000000001 C 357.98001136743017 89.99700117369215 358.11146866825726 90.26346867536871 358.14 90.55000000000001 z M 391.15999999999997 71.18000000000002 C 392.2234594277247 71.16677690492374 393.2835977720237 71.30139764705694 394.30999999999995 71.58000000000003 C 395.17244213352944 71.81638590473919 395.9972325234711 72.17323399181599 396.75999999999993 72.64000000000003 C 397.434016437174 73.05596831671565 398.0353163113915 73.57957213977026 398.5399999999999 74.19000000000003 C 399.00987091051104 74.76309329972236 399.3969801467724 75.3992989140998 399.6899999999999 76.08000000000003 C 399.97013865511343 76.7845373959817 400.1811307542897 77.51463704075042 400.3199999999999 78.26000000000003 C 400.49580217187463 79.33739283928813 400.5727889073664 80.42859613364891 400.5499999999999 81.52000000000002 L 400.5499999999999 86.67000000000004 C 400.57238768746356 87.74148236812826 400.4953915472651 88.81273301436798 400.3199999999999 89.87000000000005 C 400.1828264818292 90.5962971767523 399.9717280738936 91.30666007329756 399.6899999999999 91.99000000000005 C 399.4158892820877 92.65295272617908 399.0525326119831 93.27536924441381 398.6099999999999 93.84000000000005 C 398.15630959769305 94.43645274027504 397.6132453703979 94.95927854916168 396.9999999999999 95.39000000000004 C 396.2949568957605 95.84346698431058 395.52183072449895 96.18107666608418 394.70999999999987 96.39000000000004 C 393.7328735770004 96.65725482524044 392.72290207701553 96.78518454857186 391.70999999999987 96.77000000000004 L 383.8199999999999 96.77000000000004 C 383.4998164261013 96.80379608785906 383.1772552726304 96.73367409797409 382.89999999999986 96.57000000000004 C 382.709420872915 96.33049539656967 382.6261961780309 96.0229258719979 382.66999999999985 95.72000000000004 L 382.66999999999985 72.23 C 382.6261961780309 71.92707412800215 382.709420872915 71.61950460343037 382.89999999999986 71.38000000000001 C 383.1772552726304 71.21632590202596 383.4998164261013 71.14620391214099 383.8199999999999 71.18 z M 387.04999999999995 92.92000000000002 L 391.04999999999995 92.92000000000002 C 391.77531297129207 92.9316430232099 392.4978057309935 92.82698285708491 393.18999999999994 92.61000000000001 C 393.7872113053782 92.42215833276973 394.32268977980686 92.07668834926734 394.73999999999995 91.61000000000001 C 395.2177289443907 91.05240553012192 395.55998538526546 90.39185059923366 395.73999999999995 89.68 C 395.97459365140315 88.69781189852124 396.082139141093 87.68957293267837 396.05999999999995 86.68 L 396.05999999999995 81.34 C 396.0842072795333 80.32916519076713 395.96981023356886 79.31977949108129 395.71999999999997 78.34 C 395.53409526034324 77.63040017163323 395.1924932829065 76.97110835518032 394.71999999999997 76.41 C 394.2983519256289 75.94841567818531 393.76434910269825 75.6038977279075 393.16999999999996 75.41 C 392.4899370913834 75.18430589248491 391.77640069302834 75.07609184154954 391.05999999999995 75.09 L 387.05999999999995 75.09 z M 424.09999999999997 95.77000000000001 C 424.13684391919844 95.90061308180977 424.1602981157449 96.03463706207516 424.16999999999996 96.17000000000002 Q 424.16999999999996 96.82000000000002 423.37999999999994 96.82000000000002 L 420.85999999999996 96.82000000000002 C 420.5523223242646 96.85792932981603 420.24106011906287 96.7871879195429 419.97999999999996 96.62000000000002 C 419.7870248894291 96.36745165052128 419.6475216688594 96.07823765665721 419.56999999999994 95.77000000000002 L 417.8999999999999 90.70000000000002 L 408.4699999999999 90.70000000000002 L 406.8499999999999 95.81000000000002 C 406.77583573866195 96.11337913721309 406.6358635863271 96.39673739681778 406.4399999999999 96.64000000000001 C 406.1736131949159 96.79295900367516 405.8650525802386 96.85607367485916 405.5599999999999 96.82000000000002 L 403.1799999999999 96.82000000000002 Q 402.3899999999999 96.82000000000002 402.3899999999999 96.17000000000002 C 402.3997018842549 96.03463706207516 402.4231560808014 95.90061308180977 402.45999999999987 95.77000000000001 L 410.5599999999999 71.83000000000001 C 410.6100662912512 71.60112166027156 410.75564499815306 71.40459040595404 410.95999999999987 71.29 C 411.20384972790043 71.20458609028798 411.46193958481985 71.16723097941805 411.71999999999986 71.18 L 414.95999999999987 71.18 C 415.2180604151799 71.16723097941805 415.47615027209923 71.20458609028798 415.71999999999986 71.29 C 415.92435500184666 71.40459040595404 416.0699337087485 71.60112166027156 416.11999999999983 71.83000000000001 z M 409.66 87 L 416.66 87 L 413.15000000000003 76 z M 192.11 130.51 L 192.11 139 C 192.15380382196898 139.30292587199784 192.07057912708484 139.61049539656963 191.88000000000002 139.85 C 191.60274472736947 140.01367409797402 191.28018357389863 140.08379608785899 190.96000000000004 140.04999999999998 L 188.96000000000004 140.04999999999998 C 188.63981642610145 140.08379608785899 188.3172552726306 140.01367409797402 188.04000000000005 139.85 C 187.84942087291523 139.61049539656963 187.7661961780311 139.30292587199784 187.81000000000006 139 L 187.81000000000006 115.43 C 187.7661961780311 115.12707412800215 187.84942087291523 114.81950460343037 188.04000000000005 114.58000000000001 C 188.31725527263058 114.41632590202597 188.63981642610145 114.346203912141 188.96000000000004 114.38000000000001 L 196.13000000000002 114.38000000000001 C 197.38883055787727 114.36135553561171 198.64510613737235 114.49907558577026 199.87000000000003 114.79 C 200.8632149509454 115.02258999616187 201.7879990325033 115.48498203694082 202.57000000000002 116.14 C 203.30797735131281 116.79090512953077 203.8658933744378 117.6208913120809 204.19000000000003 118.55 C 204.57964406487292 119.72285667580508 204.7623659371916 120.95453744476778 204.73000000000002 122.19 L 204.73000000000002 122.91 Q 204.73000000000002 126.83 202.55 128.67 Q 200.37 130.51 196.12 130.51 z M 192.11 126.77 L 196.11 126.77 C 196.84921924695087 126.79523366645985 197.58711854058163 126.69030303296189 198.29000000000002 126.46 C 198.77263333168227 126.29409190722427 199.2011965451859 126.00031873667744 199.53000000000003 125.61 C 199.82275266823734 125.2433116807975 200.02181938209574 124.81085640586373 200.11000000000004 124.35 C 200.20617374644488 123.85249018192786 200.25306718387517 123.34671096392961 200.25000000000003 122.83999999999999 L 200.25000000000003 122.33999999999999 C 200.2553949315625 121.78350435350276 200.2085225242314 121.22773152371943 200.11000000000004 120.67999999999999 C 200.0217431230416 120.19789419051821 199.82324317989153 119.74271328639819 199.53000000000003 119.35 C 199.20801509062463 118.9409287158785 198.7787218121574 118.62934488473294 198.29000000000002 118.44999999999999 C 197.5893168445508 118.20967815755962 196.8501898548677 118.10118245265201 196.11 118.13 L 192.11 118.13 z M 211.86 133.75 C 212.01070820413014 134.6746861123978 212.51215498633675 135.50565506576876 213.26000000000002 136.07 C 214.17562634373178 136.6374124073547 215.24486735284626 136.90646978546522 216.32000000000002 136.84 C 217.47271695877595 136.93878206202007 218.62578263017284 136.65403108829096 219.60000000000002 136.03 C 220.3273995027306 135.35030952143373 220.6970276059575 134.37079504788252 220.60000000000002 133.38 C 220.63433326203688 132.51628484051162 220.33743003288888 131.67207806847634 219.77 131.01999999999998 C 219.02862932337626 130.29961266099158 218.11154820822514 129.78590932957235 217.11 129.52999999999997 L 213.29000000000002 128.33999999999997 C 211.70348050599173 127.90996137138053 210.280135707701 127.01906584971199 209.20000000000002 125.77999999999997 C 208.25224196823322 124.62675757855948 207.7485336302484 123.17238843367369 207.78000000000003 121.67999999999998 L 207.78000000000003 121.35999999999999 C 207.66174371940872 119.24965761157337 208.50337278735753 117.19887586521774 210.07000000000002 115.77999999999999 C 211.92132643348273 114.34500580068459 214.23220356188295 113.63396668425375 216.57000000000002 113.77999999999999 Q 221.11 113.77999999999999 223.3 116.18999999999998 C 224.30934809573938 117.34488632627404 224.84824812284765 118.83667580528899 224.81 120.36999999999998 C 224.8443737843831 120.6475359181845 224.76096169988824 120.92678507062375 224.58 121.13999999999997 C 224.3027447273695 121.30367409797401 223.98018357389861 121.37379608785898 223.66000000000003 121.33999999999997 L 221.61 121.33999999999997 C 221.29861932327302 121.37417193240124 220.98428526605522 121.31130512095768 220.71 121.15999999999997 C 220.53059974503236 120.96224064523247 220.4277523250099 120.70689532655601 220.42000000000002 120.43999999999997 Q 220.10000000000002 117.43999999999997 216.21 117.43999999999997 Q 212.32 117.43999999999997 212.21 120.99999999999997 C 212.20236554552295 121.42691513409459 212.26313468615555 121.85229911852272 212.39000000000001 122.25999999999998 C 212.50445099408478 122.64002257816718 212.7144787069615 122.98433030419456 213.00000000000003 123.25999999999998 C 213.33524478731374 123.57005965995423 213.71641404599308 123.8264212852607 214.13000000000002 124.01999999999998 C 214.69583634427033 124.28659730830175 215.28079724401877 124.51055376706258 215.88000000000002 124.68999999999998 L 219.70000000000002 125.87999999999998 C 221.3075414088954 126.28982497749321 222.7411532648367 127.20467264106456 223.79000000000002 128.48999999999998 C 224.71020955795785 129.74623588567533 225.18526288100787 131.2734443464436 225.14000000000001 132.82999999999998 L 225.14000000000001 133.29999999999998 C 225.2594042874066 135.34846106899772 224.42070572761824 137.33621360276922 222.87 138.67999999999998 C 221.02269846995813 140.0454481398538 218.75259832110203 140.71479124146657 216.46 140.56999999999996 Q 211.56 140.56999999999996 209.29000000000002 138.29999999999995 C 208.7013529598327 137.6953296222073 208.230038989112 136.98666329213086 207.90000000000003 136.20999999999995 C 207.5760727989243 135.44785067038546 207.4094076966856 134.62813047366058 207.41000000000003 133.79999999999995 C 207.37562621561693 133.52246408181543 207.45903830011176 133.24321492937617 207.64000000000001 133.02999999999994 C 207.91725527263057 132.86632590202592 208.2398164261014 132.79620391214095 208.56 132.82999999999996 L 210.56 132.82999999999996 C 210.86473568600977 132.80060551389207 211.1712819709714 132.86330816308876 211.44 133.00999999999996 C 211.6664158990435 133.19647432906737 211.81598499831026 133.46000083729933 211.85999999999999 133.74999999999997 z M 233.21 139 C 233.25380382196897 139.30292587199784 233.17057912708484 139.61049539656963 232.98000000000002 139.85 C 232.70274472736946 140.01367409797402 232.38018357389862 140.08379608785899 232.06000000000003 140.04999999999998 L 230 140.04999999999998 C 229.6798164261014 140.08379608785899 229.35725527263057 140.01367409797402 229.08 139.85 C 228.8894208729152 139.61049539656963 228.80619617803106 139.30292587199784 228.85000000000002 139 L 228.85000000000002 115.43 C 228.80619617803106 115.12707412800215 228.8894208729152 114.81950460343037 229.08 114.58000000000001 C 229.35725527263054 114.41632590202597 229.6798164261014 114.346203912141 230 114.38000000000001 L 232.09 114.38000000000001 C 232.41014436071595 114.34691621306308 232.73248468085677 114.41699019570238 233.01 114.58000000000001 C 233.2005791270848 114.81950460343037 233.28380382196895 115.12707412800215 233.23999999999998 115.43 z M 251.13 132.46 C 251.12043930231195 132.19360639952816 251.21763381923986 131.93442102105377 251.4 131.74 C 251.6687180290286 131.5933081630888 251.97526431399024 131.5306055138921 252.28 131.56 L 254.44 131.56 C 254.76014436071594 131.52691621306306 255.08248468085677 131.59699019570238 255.35999999999999 131.76 C 255.54096169988824 131.9732149293762 255.62437378438307 132.25246408181548 255.58999999999997 132.53 C 255.62009845444712 133.62240021033008 255.4610896870548 134.71177942523076 255.11999999999998 135.75 C 254.77759601722983 136.64702729630636 254.2493748326421 137.46151028415454 253.56999999999996 138.14 Q 251.18999999999997 140.58999999999997 246.36999999999998 140.58999999999997 C 244.62197999325292 140.63537526771577 242.89425582142414 140.20689967310224 241.36999999999998 139.34999999999997 C 239.95523097325182 138.4976299041473 238.8458024980174 137.22021225916126 238.2 135.69999999999996 C 237.87671571396106 134.967547825919 237.65791172660087 134.19331833218297 237.54999999999998 133.39999999999995 C 237.41371072607237 132.27869351054827 237.35357292854735 131.1494393125784 237.36999999999998 130.01999999999995 L 237.36999999999998 124.75999999999995 C 237.35678834056893 123.67654847066098 237.42363693519493 122.59360123771943 237.56999999999996 121.51999999999997 C 237.69425029347548 120.68365130730605 237.90539254160703 119.86254256457224 238.19999999999996 119.06999999999995 C 238.78556090936596 117.44058596162597 239.91131033569513 116.06074889048267 241.38999999999996 115.15999999999995 C 243.05984223146388 114.21070660786766 244.96034076310184 113.74337090336653 246.87999999999997 113.80999999999996 Q 251.48999999999998 113.80999999999996 253.71999999999997 116.21999999999996 C 254.38243767373757 116.90636704752369 254.88747050097706 117.72875158377177 255.19999999999996 118.62999999999995 C 255.50828434762073 119.64395645988033 255.65342875539727 120.70047273043977 255.62999999999997 121.75999999999995 C 255.66437378438306 122.03753591818447 255.5809616998882 122.31678507062372 255.39999999999998 122.52999999999994 C 255.12274472736942 122.69367409797398 254.80018357389858 122.76379608785895 254.48 122.72999999999995 L 252.25 122.72999999999995 C 251.94526431399024 122.75939448610784 251.6387180290286 122.69669183691114 251.37 122.54999999999994 C 251.18763381923986 122.35557897894618 251.09043930231195 122.09639360047177 251.1 121.82999999999994 C 251.1630583151127 120.6518392202125 250.7690172582108 119.49479138949145 250 118.59999999999994 C 249.05201902727447 117.8510759160142 247.85339757466897 117.49327846747524 246.65 117.59999999999994 C 245.24284361375112 117.45127725266909 243.85339975556593 118.00930187495909 242.94 119.08999999999993 Q 241.85999999999999 120.57999999999993 241.85999999999999 124.14999999999993 L 241.85999999999999 130.14999999999992 Q 241.85999999999999 133.60999999999993 242.95999999999998 135.14999999999992 C 243.84396448641138 136.23867749684163 245.21395678037968 136.81294823924478 246.60999999999999 136.67999999999992 C 247.82008542879072 136.79196176543704 249.0268392980119 136.4338745638877 249.98 135.67999999999992 C 250.77205589479303 134.799775996622 251.1852497626095 133.6428331667359 251.13 132.45999999999992 z M 268.40999999999997 113.81 C 270.28079338996974 113.74698569573793 272.1355252861676 114.17447037069803 273.78999999999996 115.05 C 275.2350348111245 115.87718214992516 276.3642053344409 117.16112994123512 276.99999999999994 118.7 C 277.32613723396287 119.4453715075279 277.5449804057303 120.23320692589064 277.6499999999999 121.04 C 277.78434585772465 122.15142870979146 277.84447907653697 123.27057472657654 277.8299999999999 124.38999999999999 L 277.8299999999999 129.65 C 277.84016088004097 130.72672818685524 277.7733238094313 131.802805023671 277.62999999999994 132.86999999999998 C 277.51316551964885 133.71432895964827 277.30184011700794 134.54285871285936 276.99999999999994 135.34 C 276.3867965313875 136.96512406002248 275.2550897980295 138.34285399628442 273.7799999999999 139.26 C 272.1447621851578 140.1938139561538 270.28198695682215 140.65431415200626 268.3999999999999 140.59 C 266.52916149684984 140.6534809967413 264.6743109978745 140.22596898582506 263.0199999999999 139.35 C 261.5707406317087 138.525135276028 260.4377137678102 137.24080358247846 259.7999999999999 135.7 C 259.4732232811912 134.9548560753225 259.25435434818945 134.16692791651613 259.1499999999999 133.35999999999999 C 259.0249629705042 132.2446110795216 258.97485058625807 131.12209367240862 259 130 L 259 124.74 C 258.98959943280386 123.66326552179225 259.0564375671419 122.58717155894972 259.2 121.52 C 259.316668239063 120.67563845307005 259.52799834240204 119.84709027013764 259.83 119.05 C 260.44254850130045 117.42449732785047 261.57441159642275 116.04657703813643 263.05 115.13 C 264.68041113095126 114.20327436312802 266.53569671419007 113.74637567471848 268.41 113.81 z M 268.40999999999997 117.66 C 266.9733833542923 117.51712039105388 265.5567304835422 118.08005350548353 264.60999999999996 119.17 Q 263.47999999999996 120.68 263.47999999999996 124.17 L 263.47999999999996 130.17000000000002 Q 263.47999999999996 133.66000000000003 264.60999999999996 135.17000000000002 C 266.74202934670916 137.18656814029632 270.0779706532908 137.18656814029632 272.21 135.17000000000002 Q 273.34 133.66000000000003 273.34 130.17000000000002 L 273.34 124.17000000000002 Q 273.34 120.68000000000002 272.21 119.17000000000002 C 271.26326951645774 118.08005350548353 269.8466166457076 117.5171203910539 268.40999999999997 117.66000000000001 z M 296.99999999999994 138.85999999999999 C 297.03379608785895 139.18018357389857 296.963674097974 139.50274472736942 296.79999999999995 139.77999999999997 C 296.5604953965696 139.9705791270848 296.2529258719978 140.05380382196893 295.94999999999993 140.00999999999996 L 283.11999999999995 140.00999999999996 C 282.79981642610136 140.043796087859 282.4772552726305 139.97367409797403 282.19999999999993 139.80999999999997 C 282.03053693759745 139.5762813271327 281.95879709418585 139.28573496131577 281.99999999999994 138.99999999999997 L 281.99999999999994 115.42999999999998 C 281.956196178031 115.12707412800212 282.0394208729151 114.81950460343035 282.22999999999996 114.57999999999998 C 282.5072552726305 114.41632590202593 282.8298164261014 114.34620391214096 283.15 114.37999999999998 L 285.23999999999995 114.37999999999998 C 285.5601443607159 114.34691621306304 285.88248468085675 114.41699019570235 286.15999999999997 114.57999999999998 C 286.3505791270848 114.81950460343035 286.4338038219689 115.12707412800212 286.39 115.42999999999998 L 286.39 136.12999999999997 L 295.96999999999997 136.12999999999997 C 296.2729258719978 136.086196178031 296.58049539656963 136.16942087291514 296.82 136.35999999999996 C 296.983674097974 136.6372552726305 297.053796087859 136.95981642610136 297.02 137.27999999999994 z M 308.99999999999994 113.80999999999999 C 310.8707933899697 113.74698569573792 312.72552528616757 114.17447037069802 314.37999999999994 115.04999999999998 C 315.8287721793959 115.8754637659586 316.96163111627374 117.15960510745052 317.59999999999997 118.69999999999999 C 317.9261372339629 119.44537150752788 318.14498040573034 120.23320692589063 318.24999999999994 121.03999999999999 C 318.38434585772467 122.15142870979145 318.444479076537 123.27057472657653 318.42999999999995 124.38999999999997 L 318.42999999999995 129.64999999999998 C 318.440160880041 130.7267281868552 318.3733238094313 131.80280502367097 318.22999999999996 132.86999999999995 C 318.1131655196489 133.71432895964824 317.90184011700796 134.54285871285933 317.59999999999997 135.33999999999997 C 316.98679653138754 136.96512406002245 315.8550897980295 138.3428539962844 314.37999999999994 139.25999999999996 C 312.7447621851578 140.19381395615378 310.8819869568222 140.65431415200624 308.99999999999994 140.58999999999997 C 307.12916149684986 140.65348099674128 305.2743109978745 140.22596898582503 303.61999999999995 139.34999999999997 C 302.1707406317087 138.52513527602798 301.0377137678102 137.24080358247843 300.3999999999999 135.69999999999996 C 300.07322328119125 134.95485607532248 299.8543543481895 134.1669279165161 299.74999999999994 133.35999999999996 C 299.6153873142953 132.2485945754099 299.5552531366562 131.12943071379263 299.56999999999994 130.00999999999996 L 299.56999999999994 124.74999999999996 C 299.5595994328038 123.67326552179222 299.62643756714186 122.59717155894968 299.7699999999999 121.52999999999996 C 299.88666823906294 120.68563845307001 300.097998342402 119.8570902701376 300.3999999999999 119.05999999999996 C 301.0125485013004 117.43449732785044 302.1444115964227 116.0565770381364 303.61999999999995 115.13999999999996 C 305.2552378148421 114.20618604384616 307.1180130431777 113.74568584799368 308.99999999999994 113.80999999999996 z M 308.99999999999994 117.65999999999998 C 307.5633833542923 117.51712039105387 306.14673048354217 118.08005350548352 305.19999999999993 119.16999999999999 Q 304.06999999999994 120.67999999999999 304.06999999999994 124.16999999999999 L 304.06999999999994 130.17 Q 304.06999999999994 133.66 305.19999999999993 135.17 C 307.33202934670913 137.1865681402963 310.66797065329075 137.1865681402963 312.79999999999995 135.17 Q 313.92999999999995 133.66 313.92999999999995 130.17 L 313.92999999999995 124.16999999999999 Q 313.92999999999995 120.67999999999999 312.79999999999995 119.16999999999999 C 311.8532695164577 118.0800535054835 310.4366166457076 117.51712039105387 308.99999999999994 117.65999999999998 z M 321.99999999999994 124.74999999999999 C 321.91456362649865 122.81792231803402 322.1962033572765 120.88716319981016 322.8299999999999 119.05999999999999 C 323.46732714273355 117.40360029352642 324.6579732972347 116.01863503369125 326.19999999999993 115.13999999999999 C 327.9037264422739 114.21439562155685 329.82183998905936 113.75556630191213 331.75999999999993 113.80999999999999 C 332.93160042916554 113.80391369014522 334.09870746892545 113.95526762901899 335.22999999999996 114.25999999999999 C 336.26418548849205 114.53420102497999 337.2354264516584 115.00623771686853 338.09 115.64999999999999 C 338.9133938835556 116.285303162866 339.57758906383896 117.10356423548312 340.03 118.03999999999999 C 340.53409629913256 119.125760715125 340.780504921884 120.31331338310785 340.75 121.50999999999999 C 340.78164204612716 121.76377015893345 340.68848448901434 122.0171587142803 340.5 122.19 C 340.2234340380909 122.33496725906964 339.91104829525057 122.3974444076377 339.6 122.37 L 337.40000000000003 122.37 C 337.09526431399024 122.3993944861079 336.78871802902864 122.3366918369112 336.52000000000004 122.19 C 336.3376338192399 121.99557897894624 336.240439302312 121.73639360047183 336.25000000000006 121.47 C 336.2783541807761 120.3275943506724 335.80294977794466 119.23050726721532 334.95000000000005 118.47 C 333.9271997977106 117.79726670449679 332.7109637058168 117.48090471527586 331.49000000000007 117.57 C 330.7217999745734 117.5543722007095 329.9558809913996 117.65896906625304 329.2200000000001 117.88 C 328.6145905051169 118.07058096393173 328.08114833099455 118.44015528064395 327.6900000000001 118.94 C 327.2528032216256 119.53363514430805 326.9522951113522 120.21660812220209 326.8100000000001 120.94 C 326.59744826642407 121.98284513830295 326.50019733115033 123.04589846526062 326.5200000000001 124.11 L 326.5200000000001 130.11 Q 326.5200000000001 133.75 327.7300000000001 135.22000000000003 C 328.6861998189544 136.26944093724543 330.0750215377158 136.81610480526857 331.49000000000007 136.70000000000002 C 332.8055684291814 136.79660465220164 334.10420921851164 136.35650971803972 335.0900000000001 135.48000000000002 Q 336.3100000000001 134.26000000000002 336.3100000000001 131.3 L 336.3100000000001 130.62 L 333.54000000000013 130.62 C 333.2370741280023 130.66380382196897 332.9295046034305 130.58057912708483 332.6900000000001 130.39000000000001 C 332.5263259020261 130.11274472736946 332.4562039121411 129.79018357389862 332.4900000000001 129.47000000000003 L 332.4900000000001 128 C 332.4562039121411 127.6798164261014 332.5263259020261 127.35725527263054 332.6900000000001 127.08 C 332.9295046034305 126.88942087291517 333.2370741280023 126.80619617803104 333.54000000000013 126.85 L 339.6300000000001 126.85 C 339.9501835738987 126.81620391214098 340.27274472736957 126.88632590202594 340.5500000000001 127.05 C 340.74057912708497 127.28950460343036 340.8238038219691 127.59707412800213 340.78000000000014 127.89999999999999 L 340.78000000000014 132 C 340.78640750081394 133.13395963146112 340.5969575606242 134.26051016866057 340.22000000000014 135.33 C 339.8553210388091 136.3594183519063 339.271939304073 137.29760535221294 338.51000000000016 138.08 C 337.68508266154765 138.90931135988978 336.6883394952162 139.54763660682124 335.59000000000015 139.95000000000002 C 334.2637184529756 140.42994092184412 332.8601194172476 140.66048375863036 331.45000000000016 140.63000000000002 C 329.5233067797275 140.72808400143933 327.6076456948528 140.28467601072694 325.9200000000002 139.35000000000002 C 324.5503099280171 138.48322305414473 323.47622774716194 137.22082776365912 322.8400000000002 135.73000000000002 C 322.5150396790989 134.99117861462275 322.29620589547807 134.2101103407761 322.1900000000002 133.41000000000003 C 322.04900903223165 132.27899335677102 321.9855276066875 131.13966882463822 322 130 z M 349.24 139 C 349.28380382196895 139.30292587199784 349.20057912708484 139.61049539656963 349.01 139.85 C 348.73274472736944 140.01367409797405 348.41018357389856 140.083796087859 348.09 140.04999999999998 L 346 140.04999999999998 C 345.6798164261014 140.083796087859 345.35725527263054 140.01367409797405 345.08 139.85 C 344.88942087291514 139.61049539656963 344.80619617803103 139.30292587199784 344.84999999999997 139 L 344.84999999999997 115.43 C 344.80619617803103 115.12707412800215 344.88942087291514 114.81950460343037 345.08 114.58000000000001 C 345.35725527263054 114.41632590202596 345.6798164261014 114.346203912141 346 114.38000000000001 L 348.09 114.38000000000001 C 348.41014436071595 114.34691621306307 348.73248468085677 114.41699019570238 349.01 114.58000000000001 C 349.20057912708484 114.81950460343037 349.28380382196895 115.12707412800215 349.24 115.43 z M 374.08 139 C 374.11684391919846 139.13061308180974 374.14029811574494 139.26463706207517 374.15 139.4 Q 374.15 140.05 373.35999999999996 140.05 L 370.84 140.05 C 370.5323223242646 140.08792932981603 370.2210601190629 140.0171879195429 369.96 139.85000000000002 C 369.76702488942914 139.5974516505213 369.6275216688594 139.3082376566572 369.54999999999995 139.00000000000003 L 367.88999999999993 133.92000000000002 L 358.4599999999999 133.92000000000002 L 356.8299999999999 139.00000000000003 C 356.755835738662 139.3033791372131 356.6158635863271 139.5867373968178 356.4199999999999 139.83000000000004 C 356.1536131949159 139.9829590036752 355.84505258023864 140.0460736748592 355.5399999999999 140.01000000000005 L 353.1599999999999 140.01000000000005 Q 352.3699999999999 140.01000000000005 352.3699999999999 139.36000000000004 C 352.3797018842549 139.2246370620752 352.4031560808014 139.09061308180978 352.4399999999999 138.96000000000004 L 360.5399999999999 115.02000000000004 C 360.5900662912512 114.79112166027159 360.7356449981531 114.59459040595407 360.9399999999999 114.48000000000003 C 361.18384972790045 114.394586090288 361.44193958481986 114.35723097941808 361.6999999999999 114.37000000000003 L 364.9399999999999 114.37000000000003 C 365.1980604151799 114.35723097941808 365.45615027209925 114.394586090288 365.6999999999999 114.48000000000003 C 365.9043550018467 114.59459040595407 366.04993370874854 114.79112166027159 366.09999999999985 115.02000000000004 z M 359.64 130.18 L 366.64 130.18 L 363.11 119.24000000000001 z" stroke-linecap="round" />
</g>
		<g transform="matrix(6.09 0 0 6.09 -765.37 0.03)"  >
<path style="stroke: none; stroke-width: 1; stroke-dasharray: none; stroke-linecap: butt; stroke-dashoffset: 0; stroke-linejoin: miter; stroke-miterlimit: 4; fill: rgb(104,45,15); fill-rule: nonzero; opacity: 1;" vector-effect="non-scaling-stroke"  transform=" translate(-84, -84.01)" d="M 88.15 168 C 85.94086100067683 168.05522847498307 84.10522847498308 166.30913899932318 84.05 164.1 C 83.99477152501693 161.89086100067684 85.74086100067683 160.05522847498307 87.95 160 C 93.77169709759231 159.7043455496436 99.53984018156282 158.73795508531344 105.14000000000004 157.12 C 107.27181913434686 156.50696392768782 109.49696392768782 157.73818086565313 110.11 159.87 C 110.72303607231218 162.00181913434687 109.49181913434687 164.22696392768782 107.36 164.84 C 101.17022831112433 166.62963892654287 94.7948428540428 167.70003259012654 88.36000000000001 168.02999999999997 z M 145.63 139 C 144.69882591584943 138.99949338139538 143.7970040130981 138.67413018510865 143.07999999999998 138.08 C 142.25454599639258 137.40275793744618 141.73411444299194 136.4236069411713 141.63456884402044 135.36053507290976 C 141.53502324504896 134.29746320464824 141.8646268076724 133.23871528054775 142.54999999999998 132.42000000000002 C 160.58292242805823 110.45903932765162 165.01802377438403 80.33650798066355 154.07999999999998 54.110000000000014 C 153.50218127348325 52.78931032076276 153.67969528443734 51.25987010994452 154.54464928878937 50.10663540707062 C 155.40960329314137 48.95340070419672 156.82818056134215 48.354788044209684 158.25782615420684 48.53974530511019 C 159.68747174707153 48.72470256601069 160.90700569816386 49.66461507506985 161.45 51.000000000000014 C 173.54896862979706 79.98771817936537 168.6478685450155 113.28750023106795 148.71 137.55999999999995 C 147.94857403867397 138.47416038306258 146.8197289470619 139.00193211420589 145.62999999999997 139 z M 4 88 C 1.7908610006768262 88 0 86.20913899932317 0 84 C -0.058265686352820034 52.70896857119811 17.2365317177042 23.965177027247627 44.910000000000004 9.359999999999985 C 46.64078977802225 8.413336475887009 48.80037262346887 8.833488780448608 50.05 10.36 C 50.778817245559 11.294061238349757 51.05606740474353 12.503150930154 50.80703575208644 13.661437686698584 C 50.558004099429354 14.819724443243167 49.808315611721596 15.808022325965567 48.76 16.36 C 23.659140204626937 29.549779520693477 7.956499994621794 55.58472616917599 8.000000000000007 83.94 C 8.016070165829818 85.01122340355477 7.601747855051379 86.04412129736046 6.849853489534989 86.80729407835959 C 6.097959124018599 87.57046685935873 5.071343929849336 88.00012053307495 3.9999999999999964 88 z M 46 68.77 C 34.74 69.61 25.35 73.82 18.84 80.97 C 11.32 89.22 7.67 100.77 8.84 112.65 C 9.907895857349962 124.98415508866756 16.141075796273327 136.2917827983811 26.000000000000004 143.78 C 27.778619632743414 145.08784898667835 30.28051745851288 144.70741729581894 31.59 142.93 C 32.22863193325938 142.07504123923343 32.49915616633699 141.00033854499094 32.341405940441646 139.94491441459593 C 32.183655714546305 138.8894902842009 31.610711253526894 137.94085764388038 30.75 137.31 C 23.02 131.58 17.82 122.07000000000001 16.83 111.87 C 15.879999999999999 102.11 18.709999999999997 93.06 24.83 86.39 C 35.22 74.9 54.06 74.85 68.52 79.75 C 69.19649068347996 77.0813604478221 70.55012333599143 74.6324219848815 72.45 72.64 C 64.00105612913147 69.51421507767269 54.9903002152221 68.19581714244283 45.99999999999996 68.76999999999998 z M 118.7 10 C 111.33452473233433 3.7709742993301374 102.06323062933154 0.24308461021188243 92.41999999999997 7.105427357601002e-15 C 90.21086100067683 -0.04970562748477271 88.37970562748477 1.7008610006768237 88.33 3.9099999999999975 C 88.28029437251523 6.119138999323171 90.03086100067682 7.950294372515227 92.24 8 C 100.0560198567335 8.188943388286006 107.57358091242449 11.03933725642224 113.54999999999998 16.07999999999998 C 122.84 24 127 37.33 124 49.37 C 121.45 59.54 111.85 70.75999999999999 97.65 75.37 C 99.06548036573388 77.67389973522972 99.87398281406875 80.29895236535533 100 83 C 114 78.27 127.85 67.12 131.82 51.31 C 135.54 36.38 130.28 19.76 118.69999999999999 10 z" stroke-linecap="round" />
</g>
		<g transform="matrix(6.09 0 0 6.09 -764.27 14.22)"  >
<path style="stroke: none; stroke-width: 1; stroke-dasharray: none; stroke-linecap: butt; stroke-dashoffset: 0; stroke-linejoin: miter; stroke-miterlimit: 4; fill: rgb(161,48,3); fill-rule: nonzero; opacity: 1;" vector-effect="non-scaling-stroke"  transform=" translate(-84.17, -86.34)" d="M 84 152.27 C 75.01257800858257 152.275452537243 66.11480038318004 150.48365704294147 57.82999999999999 147 C 55.99371940986636 146.28280866142552 54.91540119807258 144.3727643870466 55.25 142.43 C 55.480630558074935 141.24762990638501 56.231850178624725 140.23216701423434 57.29499426970076 139.6656741773836 C 58.35813836077679 139.09918134053288 59.61997255734858 139.0419951184509 60.730000000000004 139.51000000000002 C 68.09061368571729 142.63127283037687 76.00494311852279 144.23658589109203 83.99999999999999 144.23 C 97.99808670275867 144.22345195224344 111.55212497630606 139.31626033506507 122.31 130.35999999999999 C 123.36151392836301 129.47433025499808 124.79418165382091 129.19072781882457 126.10381594590231 129.60899861598546 C 127.41345023798371 130.02726941314634 128.41651133041543 131.08879454154507 128.76 132.42 C 129.1810903083813 133.91554465855077 128.6743146075219 135.51837013103628 127.46999999999998 136.5 C 115.2701359264407 146.67857598638668 99.88835945573291 152.25876036510905 84 152.27 z M 23.759999999999998 109.54000000000002 C 22.07072000187777 109.53625147346551 20.565906033635386 108.47167563423021 20 106.88000000000002 C 18.23640145606963 101.94943740465635 17.04525433601006 96.83253780440054 16.449999999999974 91.63000000000001 C 16.195949015077833 89.43466811942262 17.769668119422594 87.4490509849222 19.964999999999996 87.19500000000002 C 22.1603318805774 86.94094901507786 24.145949015077832 88.51466811942262 24.4 90.71000000000002 C 24.924567863277982 95.29844741103665 25.97479317879263 99.81139645054849 27.53000000000001 104.16000000000005 C 27.895980230974764 105.1609917694681 27.847346149123293 106.26664906995529 27.394889039880024 107.23164058095546 C 26.942431930636758 108.19663209195562 26.123570606061048 108.9411517163795 25.119999999999994 109.30000000000003 C 24.684009868426646 109.45824428782574 24.223819309391814 109.53945438647894 23.759999999999998 109.54000000000002 z M 145.51 105.59000000000002 C 145.13432227478512 105.58905674279941 144.76065056883945 105.53519415455499 144.39999999999998 105.43000000000002 C 143.36874927671192 105.13774193596979 142.49793888177203 104.4438255800207 141.9828313870608 103.50384839989069 C 141.46772389234954 102.56387121976068 141.351420492512 101.45648503049551 141.65999999999997 100.43000000000002 C 142.9305626228018 95.98769881773582 143.68882431706766 91.41464267045978 143.91999999999996 86.80000000000005 C 144.03045694996612 84.59086100067685 145.9108610006768 82.88954305003386 148.11999999999995 83.00000000000003 C 150.32913899932313 83.11045694996619 152.03045694996612 84.99086100067686 151.91999999999996 87.20000000000003 C 151.65853900283008 92.43076279819408 150.79962322446798 97.61445372619971 149.35999999999996 102.65000000000003 C 148.88345070504275 104.38401793525401 147.3083068535841 105.58685505818607 145.50999999999996 105.59000000000003 z M 129.69 42.73000000000002 C 128.6175451889727 42.72823670202604 127.59071793284517 42.29588838365654 126.84 41.530000000000015 C 121.2541278060848 35.79419543739727 114.57159822505662 31.24055314274245 107.18999999999997 28.14 C 105.1437850018769 27.28672006151144 104.17672006151142 24.936214998123102 105.03 22.890000000000015 C 105.88327993848857 20.843785001876924 108.23378500187691 19.876720061511435 110.28 20.730000000000015 C 118.64535510886728 24.242381869487552 126.21885447823709 29.4013394551786 132.55 35.89999999999999 C 133.3006777434648 36.657712140154864 133.71764715528897 37.683853016335405 133.70825839656823 38.750416007012056 C 133.69886963784748 39.816978997688715 133.26390038190132 40.835620413765646 132.5 41.58000000000001 C 131.75087484340926 42.31774139282206 130.74140387381746 42.73087008144503 129.69 42.73000000000001 z M 86.27 26.82 C 80.27 21.82 72.55 19.69 63.97 20.65 C 56.42239958480946 21.58165383112388 49.252575760195484 24.482001034827764 43.179999999999986 29.060000000000016 C 35.015201747897706 35.236613759726254 28.372283886591912 43.199905614061926 23.75999999999999 52.34000000000001 C 22.74931890780965 54.308895133146784 23.52610486685322 56.72431890780965 25.495 57.735 C 27.463895133146778 58.74568109219035 29.879318907809647 57.96889513314678 30.89 56 C 34.95176271004601 47.94889848771635 40.804983314841664 40.93598075549478 47.99999999999999 35.5 C 57.46 28.41 71.91 25.27 81.2 33.01 C 90.33 40.61 92.11 56.879999999999995 85.42 67.75 C 88.1404592941779 67.99535879511353 90.7514394284838 68.93916955606316 92.99999999999999 70.49 C 100.77 56.33 98.06 36.62 86.27 26.819999999999993 z" stroke-linecap="round" />
</g>
		<g transform="matrix(6.09 0 0 6.09 -765.38 0.91)"  >
<path style="stroke: none; stroke-width: 1; stroke-dasharray: none; stroke-linecap: butt; stroke-dashoffset: 0; stroke-linejoin: miter; stroke-miterlimit: 4; fill: rgb(171,204,99); fill-rule: nonzero; opacity: 1;" vector-effect="non-scaling-stroke"  transform=" translate(-83.99, -84.16)" d="M 50.35 122.16 C 49.30205908678186 122.15824623489509 48.29665747876397 121.74531343160203 47.550000000000004 121.00999999999999 C 42.595227571066346 116.13586631401638 38.66784980741788 110.31790670050772 36 103.90000000000002 C 35.143958637762275 101.86206927312438 36.10206927312438 99.51604136223774 38.14 98.66000000000001 C 40.17793072687563 97.80395863776228 42.52395863776227 98.76206927312438 43.38 100.80000000000001 C 45.63623025676738 106.23109852981986 48.95835126718911 111.15477429552168 53.14999999999999 115.28 C 53.90725060329239 116.03106639962223 54.333193297366684 117.05344985451778 54.333193297366684 118.12 C 54.333193297366684 119.18655014548224 53.90725060329239 120.20893360037778 53.150000000000006 120.96000000000001 C 52.4114781595856 121.7136570548676 51.40507706760371 122.14497180857413 50.35000000000001 122.16000000000001 z M 120.91999999999999 118.58 C 119.98414843585734 118.57901772537151 119.0782659556257 118.24992760559985 118.35999999999999 117.64999999999999 C 117.53602058251755 116.97132244401105 117.01750382087016 115.99144250672137 116.91984138606098 114.92842446629828 C 116.82217895125179 113.86540642587518 117.1534741711558 112.80745188957371 117.83999999999999 111.99 C 128.31540679908548 99.273077793232 130.90131665804935 81.80664200478398 124.55999999999999 66.6 C 123.69843579026396 64.56483069687353 124.64983069687351 62.216564209736035 126.68499999999999 61.355 C 128.72016930312645 60.493435790263966 131.06843579026395 61.444830696873524 131.92999999999998 63.48 C 139.43403669699822 81.45093747045797 136.38213261730849 102.09843480656818 123.99999999999997 117.13 C 123.24049999445646 118.04789365647417 122.11137262644081 118.57946335894908 120.91999999999997 118.58 z M 36 88 C 34.9251265537861 88.00021499662543 33.895396746915786 87.56782367253352 33.14290856180504 86.80028572372055 C 32.39042037669428 86.03274777490759 31.97850250914383 84.99465847109032 32 83.92 C 32.00493396211801 64.54028862868563 42.75803677259619 46.76223613113288 59.91999999999997 37.76000000000002 C 60.99495170511402 37.19610510318448 62.26781020291968 37.150853898568876 63.380091433538794 37.636990800063245 C 64.49237266415791 38.123127701557614 65.32372174216248 39.08805004944692 65.64 40.260000000000005 C 66.1179361122193 42.110880322413585 65.25006265717494 44.045947451842636 63.55 44.92 C 49.05063407643157 52.56132284256555 39.9819480724815 67.61033554041562 40.00000000000001 84.00000000000003 C 40 86.20913899932317 38.20913899932317 88 36 88 z M 100.27 42.38 C 99.80954043488138 42.3782994044017 99.35283180279002 42.29710675869657 98.92 42.14 C 95.74686780163255 40.993322156101435 92.45156302564416 40.218153721016584 89.1 39.83 C 86.89086100067682 39.57871043882699 85.30371043882698 37.58413899932317 85.55499999999999 35.375 C 85.806289561173 33.16586100067683 87.80086100067682 31.578710438826988 90.00999999999999 31.83 C 93.97241872861699 32.2887200651539 97.86837589279585 33.20482368773861 101.61999999999998 34.56 C 103.50717920046768 35.17796544119281 104.65527940035444 37.08685944273586 104.3166214426423 39.0435498650727 C 103.97796348493016 41.00024028740954 102.25509396616991 42.412235683802145 100.27 42.35999999999999 z M 102.1 98.21000000000001 C 107.83 104.45 108.5 113.80000000000001 103.66999999999999 119.97000000000001 C 99.44999999999999 125.36000000000001 91.86999999999999 128.67000000000002 84.44999999999999 128.49 C 81.10511503108134 128.39208893417472 77.79430285702092 127.78859058472787 74.63 126.7 C 72.53131795064297 125.9737455539725 70.24125444602748 127.086317950643 69.51499999999999 129.185 C 68.7887455539725 131.28368204935703 69.90131795064298 133.57374555397251 72 134.3 C 75.92469210961738 135.6504667612809 80.03122726912682 136.39894853912253 84.18 136.52 L 85.06 136.52 C 94.67 136.52 104.35 132.03 109.92 124.92000000000002 C 117.16 115.68000000000002 116.31 101.85000000000002 107.92 92.74000000000001 C 105.56918619074584 90.18224765832599 102.78252635008681 88.06262547089882 99.69 86.48 C 99.23170473421432 89.16434969993784 98.09585702823982 91.68730839229936 96.39 93.81 C 98.52970802337009 94.94127056745816 100.46074154067995 96.42928238464965 102.1 98.21000000000001 z" stroke-linecap="round" />
</g>
		<g transform="matrix(6.09 0 0 6.09 -766.6 -3.87)"  >
<path style="stroke: none; stroke-width: 1; stroke-dasharray: none; stroke-linecap: butt; stroke-dashoffset: 0; stroke-linejoin: miter; stroke-miterlimit: 4; fill: rgb(9,22,125); fill-rule: nonzero; opacity: 1;" vector-effect="non-scaling-stroke"  transform=" translate(-83.79, -83.38)" d="M 102 114.32 C 100.24209663627761 114.31515215497676 98.69338689694492 113.16316237795805 98.18319729280906 111.48091557513168 C 97.67300768867318 109.7986687723053 98.32092797539912 107.9804879218098 99.78 107 C 106.12739340572955 102.63130898603055 110.41231913854807 95.85707985530988 111.64 88.25000000000001 C 111.99070081614255 86.06847523816836 114.04347523816837 84.58429918385744 116.225 84.935 C 118.40652476183163 85.28570081614255 119.89070081614256 87.33847523816836 119.54 89.52 C 117.96370504934227 99.30515497509478 112.45380315603853 108.01983259256927 104.29000000000002 113.64 C 103.61374928809428 114.09463027233367 102.81477763064498 114.33187949812648 102 114.32000000000001 z M 52 86 L 51.79 86 C 49.59175077643479 85.8868019428153 47.89803510000958 84.01879890126982 48 81.82 C 48.53155605649995 71.92219875414587 53.08308428046849 62.67103702273046 60.59999999999999 56.21000000000001 C 61.407500884500735 55.52157063216342 62.45545648297035 55.18220916380153 63.51322297131626 55.26660542616956 C 64.57098945966217 55.351001688537586 65.55187601765068 55.8522388608722 66.24 56.66 C 66.93469241878446 57.46858447449512 67.27788456731739 58.521018463390845 67.1933966446847 59.58368877917104 C 67.10890872205199 60.64635909495124 66.60373103717296 61.63134318543082 65.78999999999999 62.31999999999999 C 59.94654330870773 67.34696272524667 56.4100761148767 74.54271619829203 56.00000000000001 82.23999999999998 C 55.87288069148063 84.35489553002033 54.118709006131816 86.00381691424822 52 86 z M 109.44 68.25 C 108.19151008183562 68.24846929819385 107.01533602984023 67.66408093273702 106.25999999999999 66.67 C 101.6025291751335 60.55527086886953 94.64056944904117 56.618835696639756 87 55.78 C 84.79086100067683 55.54804040507106 83.18804040507106 53.56913899932317 83.42 51.36 C 83.65195959492894 49.15086100067683 85.63086100067683 47.54804040507106 87.84 47.78 C 97.67265594168501 48.85247594523092 106.63424093540884 53.91347594168649 112.63000000000001 61.78 C 113.28136316636537 62.62446230698494 113.56852808299861 63.694074972107494 113.42770043347745 64.75122119451298 C 113.2868727839563 65.80836741691847 112.72971467384309 66.76550365751885 111.88 67.41 C 111.18180063830555 67.95187062146583 110.32379779878742 68.24724864818518 109.44 68.25 z M 69.5 90.51 C 65.5 95.03 63.17 101.30000000000001 65.83 107.66 C 68.59 114.24 75.94 119 83.32 119 C 84.70767825650118 119.02560385139859 86.00944849771888 118.3300412399947 86.75945865975591 117.16222650399682 C 87.50946882179295 115.99441176799894 87.60050918293355 114.52127743605688 87 113.27 C 86.34628800059713 111.84723494514468 84.90506376014103 110.95336089437 83.34 111 C 79.02230092859772 110.94131451306328 75.10835255257629 108.44815649708129 73.23 104.56 C 72.02000000000001 101.68 73.05 98.95 74.69 96.8 C 72.44794843132927 95.1844577212367 70.66039427369748 93.01803852056156 69.5 90.50999999999999 z" stroke-linecap="round" />
</g>
		<g transform="matrix(6.09 0 0 6.09 -765.36 -0.09)"  >
<path style="stroke: none; stroke-width: 1; stroke-dasharray: none; stroke-linecap: butt; stroke-dashoffset: 0; stroke-linejoin: miter; stroke-miterlimit: 4; fill: rgb(161,48,3); fill-rule: nonzero; opacity: 1;" vector-effect="non-scaling-stroke"  transform=" translate(-84, -84)" d="M 84 104 C 72.95430500338414 104 64 95.04569499661586 64 84 C 64 72.95430500338414 72.95430500338414 64 84 64 C 95.04569499661586 64 104 72.95430500338412 104 84 C 104 95.04569499661586 95.04569499661586 104 84 104 z M 84 72 C 77.37258300203048 72 72 77.37258300203048 72 84 C 72 90.62741699796952 77.37258300203048 96 84 96 C 90.62741699796952 96 96 90.62741699796952 96 84 C 96 77.37258300203048 90.62741699796952 72 84 72 z" stroke-linecap="round" />
</g>
</g>
</g>
</svg>