<svg width="305" height="305" viewBox="0 0 305 305" fill="none" xmlns="http://www.w3.org/2000/svg">
<g clip-path="url(#clip0_296_210)">
<path d="M89.2362 27.1177C48.487 47.5269 19.897 86.1267 12.252 131.055" stroke="white" stroke-width="11" stroke-miterlimit="10" stroke-linecap="round"/>
<path d="M179.7 146.094C215.049 136.734 237.001 101.529 230.32 67.0555C224.033 34.7257 194.079 10.8981 159.874 12.1305" stroke="white" stroke-width="11" stroke-miterlimit="10" stroke-linecap="round"/>
<path d="M296.386 146.795C294.966 121.445 286.775 96.9389 272.666 75.83" stroke="white" stroke-width="11" stroke-miterlimit="10" stroke-linecap="round"/>
<path d="M286.049 207.855C275.171 245.239 236.608 266.263 202.384 256.653C172.287 248.186 151.157 217.607 154.158 183.848" stroke="white" stroke-width="11" stroke-miterlimit="10" stroke-linecap="round"/>
<path d="M131.051 296.746C138.46 297.921 145.949 298.519 153.45 298.532C165.432 298.544 177.368 297.049 188.977 294.084" stroke="white" stroke-width="11" stroke-miterlimit="10" stroke-linecap="round"/>
<path d="M53.368 257.462C20.2166 225.793 20.806 176.119 47.0092 151.041C66.6572 132.233 99.6301 128.357 128.263 142.361" stroke="white" stroke-width="11" stroke-miterlimit="10" stroke-linecap="round"/>
<path d="M46.3687 119.718C36.62 149.242 39.4761 181.48 54.2637 208.83" stroke="white" stroke-width="11" stroke-miterlimit="10" stroke-linecap="round"/>
<path d="M77.4741 71.9093C93.907 56.7268 118.074 54.1726 136.061 65.1218C156.495 77.6251 164.8 104.954 153.923 128.228" stroke="white" stroke-width="11" stroke-miterlimit="10" stroke-linecap="round"/>
<path d="M249.671 96.5305C231.765 67.0657 201.34 47.4359 167.114 43.2666" stroke="white" stroke-width="11" stroke-miterlimit="10" stroke-linecap="round"/>
<path d="M175.632 173.011C187.992 193.25 213.15 201.62 235.171 192.818C257.192 184.017 269.65 160.613 264.655 137.431" stroke="white" stroke-width="11" stroke-miterlimit="10" stroke-linecap="round"/>
<path d="M149.211 267.718C123.026 268.308 100.77 249.249 97.4121 224.743C94.447 202.594 107.468 180.392 129.26 171.64" stroke="white" stroke-width="11" stroke-miterlimit="10" stroke-linecap="round"/>
<path d="M209.696 252.95C222.915 245.351 234.459 235.156 243.634 222.978" stroke="white" stroke-width="11" stroke-miterlimit="10" stroke-linecap="round"/>
<path d="M153.432 180.16C167.243 180.16 178.438 168.965 178.438 155.154C178.438 141.343 167.243 130.147 153.432 130.147C139.621 130.147 128.425 141.343 128.425 155.154C128.425 168.965 139.621 180.16 153.432 180.16Z" stroke="white" stroke-width="11" stroke-miterlimit="10"/>
<path d="M207.352 145.858C204.929 131.916 197.186 119.46 185.757 111.117" stroke="white" stroke-width="11" stroke-miterlimit="10" stroke-linecap="round"/>
<path d="M164.098 208.71C181.441 205.259 196.035 193.614 203.251 177.47" stroke="white" stroke-width="11" stroke-miterlimit="10" stroke-linecap="round"/>
<path d="M157.052 100.759C155.837 100.759 154.605 100.634 153.479 100.634C139.587 100.589 126.205 105.862 116.077 115.37" stroke="white" stroke-width="11" stroke-miterlimit="10" stroke-linecap="round"/>
<path d="M99.5051 146.923C99.0893 149.666 98.8804 152.437 98.8799 155.211C98.8639 172.741 107.295 189.205 121.529 199.437" stroke="white" stroke-width="11" stroke-miterlimit="10" stroke-linecap="round"/>
<path d="M218.112 207.709C237.451 183.919 242.139 151.42 230.311 123.134" stroke="white" stroke-width="11" stroke-miterlimit="10" stroke-linecap="round"/>
<path d="M84.0791 201.083C104.118 231.366 141.479 245.16 176.389 235.163" stroke="white" stroke-width="11" stroke-miterlimit="10" stroke-linecap="round"/>
<path d="M96.9978 94.1488C79.976 109.847 70.3049 131.956 70.3301 155.111C70.3301 157.701 70.4552 160.237 70.6874 162.756" stroke="white" stroke-width="11" stroke-miterlimit="10" stroke-linecap="round"/>
<path d="M199.584 85.9052C179.409 72.4645 154.372 68.4983 131.031 75.0452" stroke="white" stroke-width="11" stroke-miterlimit="10" stroke-linecap="round"/>
</g>
<defs>
<clipPath id="clip0_296_210">
<rect width="304.549" height="304.549" fill="white"/>
</clipPath>
</defs>
</svg>
