<svg xmlns="http://www.w3.org/2000/svg" viewBox="0 0 422.74 169.93"><title>simbolo</title><path d="M48.1,13.36A80.11,80.11,0,0,0,5,71.55" style="fill:none;stroke:#063f20;stroke-linecap:round;stroke-miterlimit:10;stroke-width:10px"/><path d="M98.55,80c19.79-5.24,32.08-24.95,28.34-44.25C123.37,17.65,106.6,4.31,87.45,5" style="fill:none;stroke:#063f20;stroke-linecap:round;stroke-miterlimit:10;stroke-width:10px"/><path d="M163.75,80.3a79.5,79.5,0,0,0-13.28-39.73" style="fill:none;stroke:#063f20;stroke-linecap:round;stroke-miterlimit:10;stroke-width:10px"/><path d="M158.11,114.37c-6.09,20.93-27.68,32.7-46.84,27.32-16.85-4.74-28.68-21.86-27-40.76" style="fill:none;stroke:#063f20;stroke-linecap:round;stroke-miterlimit:10;stroke-width:10px"/><path d="M71.35,164a80.9,80.9,0,0,0,12.54,1,80.05,80.05,0,0,0,19.89-2.49" style="fill:none;stroke:#063f20;stroke-linecap:round;stroke-miterlimit:10;stroke-width:10px"/><path d="M28,142.21C9.44,124.48,9.77,96.67,24.44,82.63c11-10.53,29.46-12.7,45.49-4.86" style="fill:none;stroke:#063f20;stroke-linecap:round;stroke-miterlimit:10;stroke-width:10px"/><path d="M24.07,65.11A63.22,63.22,0,0,0,28.49,115" style="fill:none;stroke:#006237;stroke-linecap:round;stroke-miterlimit:10;stroke-width:10px"/><path d="M41.42,38.4c9.2-8.5,22.73-9.93,32.8-3.8,11.44,7,16.09,22.3,10,35.33" style="fill:none;stroke:#006237;stroke-linecap:round;stroke-miterlimit:10;stroke-width:10px"/><path d="M137.73,52.21A63,63,0,0,0,91.51,22.39" style="fill:none;stroke:#006237;stroke-linecap:round;stroke-miterlimit:10;stroke-width:10px"/><path d="M96.27,94.92A27.22,27.22,0,0,0,146.11,75" style="fill:none;stroke:#006237;stroke-linecap:round;stroke-miterlimit:10;stroke-width:10px"/><path d="M81.56,147.89c-14.66.33-27.12-10.34-29-24.06C50.9,111.43,58.19,99,70.39,94.1" style="fill:none;stroke:#006237;stroke-linecap:round;stroke-miterlimit:10;stroke-width:10px"/><path d="M115.29,139.56a63.26,63.26,0,0,0,19-16.78" style="fill:none;stroke:#006237;stroke-linecap:round;stroke-miterlimit:10;stroke-width:10px"/><circle cx="83.89" cy="84.93" r="14" style="fill:none;stroke:#006237;stroke-miterlimit:10;stroke-width:10px"/><path d="M114,79.74a30.56,30.56,0,0,0-12.09-19.45" style="fill:none;stroke:#489c60;stroke-linecap:round;stroke-miterlimit:10;stroke-width:10px"/><path d="M89.82,114.86a30.54,30.54,0,0,0,21.92-17.49" style="fill:none;stroke:#489c60;stroke-linecap:round;stroke-miterlimit:10;stroke-width:10px"/><path d="M85.94,54.5c-.68,0-1.37-.07-2-.07A30.45,30.45,0,0,0,63,62.68" style="fill:none;stroke:#489c60;stroke-linecap:round;stroke-miterlimit:10;stroke-width:10px"/><path d="M53.74,80.29a31,31,0,0,0-.35,4.64,30.46,30.46,0,0,0,12.68,24.76" style="fill:none;stroke:#489c60;stroke-linecap:round;stroke-miterlimit:10;stroke-width:10px"/><path d="M120,114.35A46.58,46.58,0,0,0,126.83,67" style="fill:none;stroke:#007f48;stroke-linecap:round;stroke-miterlimit:10;stroke-width:10px"/><path d="M45.12,110.55A46.59,46.59,0,0,0,96.8,129.63" style="fill:none;stroke:#007f48;stroke-linecap:round;stroke-miterlimit:10;stroke-width:10px"/><path d="M52.36,50.8A46.36,46.36,0,0,0,37.43,84.93c0,1.45.07,2.87.2,4.28" style="fill:none;stroke:#007f48;stroke-linecap:round;stroke-miterlimit:10;stroke-width:10px"/><path d="M109.73,46.24a46.55,46.55,0,0,0-38.38-6.08" style="fill:none;stroke:#007f48;stroke-linecap:round;stroke-miterlimit:10;stroke-width:10px"/><path d="M194.11,18.07a8.6,8.6,0,0,1,5.67,1.65,6,6,0,0,1,2,4.85v.75a5.2,5.2,0,0,1-1,3.13,6.43,6.43,0,0,1-2.7,2.09,5.27,5.27,0,0,1,3,1.92,5.79,5.79,0,0,1,1,3.53v1.39a6.36,6.36,0,0,1-2.21,5.15,9.2,9.2,0,0,1-6,1.84,12.71,12.71,0,0,1-4-.59A6.53,6.53,0,0,1,187,42.11a5.38,5.38,0,0,1-1.15-1.89,6.45,6.45,0,0,1-.44-2.28,1.33,1.33,0,0,1,.24-.94,1.35,1.35,0,0,1,.92-.22h2a1.42,1.42,0,0,1,.84.17.81.81,0,0,1,.28.62c.16,2,1.47,3,3.92,3a4.27,4.27,0,0,0,2.88-.86,3.19,3.19,0,0,0,1-2.55v-.91q0-3.52-3.71-3.53h-1.08a1.1,1.1,0,0,1-.85-.24,1.65,1.65,0,0,1-.2-1V29.83a1.62,1.62,0,0,1,.2-1,1.1,1.1,0,0,1,.85-.25h.65c2.59,0,3.88-1.12,3.88-3.38v-.45q0-3.08-3.52-3.08a4.25,4.25,0,0,0-2.69.73,3.68,3.68,0,0,0-1.17,2.43.91.91,0,0,1-.3.62,1.48,1.48,0,0,1-.81.17h-1.91a1.36,1.36,0,0,1-.92-.23,1.37,1.37,0,0,1-.23-.94,6.21,6.21,0,0,1,.41-2.2,5.76,5.76,0,0,1,1.17-1.86,6.79,6.79,0,0,1,2.76-1.8A12.2,12.2,0,0,1,194.11,18.07Z" style="fill:#063f20"/><path d="M215.56,23.27a5.25,5.25,0,0,1-.43,2.14A5.62,5.62,0,0,1,214,27.14a5.48,5.48,0,0,1-1.75,1.17,5.49,5.49,0,0,1-4.26,0,5.51,5.51,0,0,1-2.9-2.9,5.49,5.49,0,0,1,0-4.26,5.45,5.45,0,0,1,2.9-2.92,5.49,5.49,0,0,1,4.26,0A5.48,5.48,0,0,1,214,19.4a5.6,5.6,0,0,1,1.17,1.75A5.29,5.29,0,0,1,215.56,23.27Zm-7.77,0a2.46,2.46,0,0,0,.66,1.75,2.27,2.27,0,0,0,3.28,0,2.64,2.64,0,0,0,0-3.49,2.25,2.25,0,0,0-3.28,0A2.43,2.43,0,0,0,207.79,23.27Z" style="fill:#063f20"/><path d="M239.57,36.3a1,1,0,0,1,.27-.72,1.55,1.55,0,0,1,.89-.18h2.16a1.48,1.48,0,0,1,.91.2,1,1,0,0,1,.24.78,9.53,9.53,0,0,1-.47,3.22A6.77,6.77,0,0,1,242,42q-2.37,2.44-7.2,2.45a9.66,9.66,0,0,1-5-1.24,7.87,7.87,0,0,1-3.17-3.66,8.54,8.54,0,0,1-.64-2.3,25.07,25.07,0,0,1-.18-3.38V28.6a22.38,22.38,0,0,1,.19-3.24,13.53,13.53,0,0,1,.63-2.45A7.58,7.58,0,0,1,229.8,19a10.39,10.39,0,0,1,5.49-1.35q4.61,0,6.84,2.41a6.54,6.54,0,0,1,1.48,2.41,10.2,10.2,0,0,1,.43,3.13,1,1,0,0,1-.24.78,1.5,1.5,0,0,1-.91.19h-2.24a1.54,1.54,0,0,1-.88-.18,1,1,0,0,1-.27-.72,4.6,4.6,0,0,0-1.08-3.24,4.77,4.77,0,0,0-3.35-1,4.25,4.25,0,0,0-3.7,1.5c-.72,1-1.08,2.68-1.08,5.05v6.05q0,3.47,1.09,5A4.2,4.2,0,0,0,235,40.59a4.7,4.7,0,0,0,3.36-1.05A4.41,4.41,0,0,0,239.57,36.3Z" style="fill:#063f20"/><path d="M256.93,17.66a10.7,10.7,0,0,1,5.38,1.24,7.48,7.48,0,0,1,3.22,3.65,8.74,8.74,0,0,1,.65,2.34,25.3,25.3,0,0,1,.18,3.35V33.5a22.9,22.9,0,0,1-.2,3.22,11.06,11.06,0,0,1-.63,2.46,7.94,7.94,0,0,1-3.22,3.93,10.12,10.12,0,0,1-5.38,1.33,10.74,10.74,0,0,1-5.39-1.24,7.55,7.55,0,0,1-3.22-3.66,8.53,8.53,0,0,1-.65-2.34,25.13,25.13,0,0,1-.18-3.34V28.6a22.79,22.79,0,0,1,.2-3.22,11.3,11.3,0,0,1,.63-2.47A7.91,7.91,0,0,1,251.54,19,10.16,10.16,0,0,1,256.93,17.66Zm0,3.85a4.43,4.43,0,0,0-3.8,1.51Q252,24.54,252,28v6.05q0,3.49,1.14,5a5.52,5.52,0,0,0,7.59,0q1.14-1.52,1.14-5V28q0-3.48-1.14-5A4.42,4.42,0,0,0,256.93,21.51Z" style="fill:#063f20"/><path d="M275.18,26.55V42.82a1.08,1.08,0,0,1-.24.84,1.42,1.42,0,0,1-.91.2h-2a1.43,1.43,0,0,1-.92-.2,1.08,1.08,0,0,1-.24-.84V19.28a1.09,1.09,0,0,1,.24-.85,1.5,1.5,0,0,1,.92-.2h2.08a2.34,2.34,0,0,1,1,.16,2,2,0,0,1,.67.85l8.6,16.31V19.28a1.09,1.09,0,0,1,.24-.85,1.5,1.5,0,0,1,.92-.2h2a1.48,1.48,0,0,1,.91.2,1.09,1.09,0,0,1,.24.85V42.82a1.08,1.08,0,0,1-.24.84,1.42,1.42,0,0,1-.91.2h-2.09a2.19,2.19,0,0,1-1-.16,2,2,0,0,1-.67-.84Z" style="fill:#063f20"/><path d="M293.21,28.6a15.36,15.36,0,0,1,.83-5.69A7.69,7.69,0,0,1,297.41,19,11,11,0,0,1,303,17.66a13,13,0,0,1,3.47.45,8.27,8.27,0,0,1,2.86,1.38,6.67,6.67,0,0,1,1.95,2.4,7.76,7.76,0,0,1,.72,3.47.8.8,0,0,1-.25.68,1.64,1.64,0,0,1-.9.18h-2.23a1.55,1.55,0,0,1-.89-.18,1,1,0,0,1-.27-.72,3.88,3.88,0,0,0-1.29-2.95,5.57,5.57,0,0,0-3.46-.9,7.2,7.2,0,0,0-2.27.31,3.18,3.18,0,0,0-1.53,1.06,5.1,5.1,0,0,0-.88,2,14.59,14.59,0,0,0-.29,3.16v6.05q0,3.65,1.21,5.11a4.56,4.56,0,0,0,3.76,1.48,4.86,4.86,0,0,0,3.6-1.23q1.23-1.22,1.23-4.17v-.68h-2.78a1.08,1.08,0,0,1-.84-.24,1.43,1.43,0,0,1-.2-.92V31.84a1.45,1.45,0,0,1,.2-.92,1.12,1.12,0,0,1,.84-.23h6.09a1.42,1.42,0,0,1,.91.2,1.08,1.08,0,0,1,.24.84V35.8a9.86,9.86,0,0,1-.56,3.33,7.5,7.5,0,0,1-1.71,2.75,8,8,0,0,1-2.92,1.88,11.51,11.51,0,0,1-4.14.68,10.32,10.32,0,0,1-5.52-1.28A8,8,0,0,1,294,39.54a8.59,8.59,0,0,1-.65-2.32,25,25,0,0,1-.18-3.36Z" style="fill:#063f20"/><path d="M320.83,33.86v9a1.21,1.21,0,0,1-.22.83,1.43,1.43,0,0,1-.94.21h-2a1.45,1.45,0,0,1-.94-.21,1.22,1.22,0,0,1-.21-.83V19.28a1.2,1.2,0,0,1,.21-.83,1.38,1.38,0,0,1,.94-.22h7.7c2.86,0,4.94.6,6.27,1.78s2,3.09,2,5.71v.68c0,3.65-1.46,6-4.36,6.92l5.36,9.5a1.09,1.09,0,0,1,.15.47c0,.38-.31.57-.94.57h-2.7a1.45,1.45,0,0,1-.88-.2,2.7,2.7,0,0,1-.63-.84l-4.86-9Zm0-3.75h4.5a4.18,4.18,0,0,0,2.95-.84,4,4,0,0,0,.86-2.9v-.51a4.28,4.28,0,0,0-.84-3,4.09,4.09,0,0,0-3-.87h-4.5Z" style="fill:#063f20"/><path d="M354.34,42.71a1.52,1.52,0,0,1-.2.92c-.13.16-.41.23-.84.23H339.72a1.42,1.42,0,0,1-.91-.2,1.08,1.08,0,0,1-.24-.84V19.28a1.09,1.09,0,0,1,.24-.85,1.48,1.48,0,0,1,.91-.2h13.43a1.1,1.1,0,0,1,.85.24,1.48,1.48,0,0,1,.2.91V21a1.54,1.54,0,0,1-.2.92,1.15,1.15,0,0,1-.85.23H343v6.62h9.25a1.08,1.08,0,0,1,.84.24,1.5,1.5,0,0,1,.2.92v1.58a1.52,1.52,0,0,1-.2.92,1.12,1.12,0,0,1-.84.23H343V40H353.3a1.08,1.08,0,0,1,.84.24,1.52,1.52,0,0,1,.2.92Z" style="fill:#063f20"/><path d="M362.12,37.6a3.59,3.59,0,0,0,1.4,2.32,5.16,5.16,0,0,0,3.06.78,5.28,5.28,0,0,0,3.28-.81,3.22,3.22,0,0,0,1-2.65,3.39,3.39,0,0,0-.82-2.36,5.93,5.93,0,0,0-2.67-1.49l-3.81-1.19a8.26,8.26,0,0,1-4.09-2.56,6.24,6.24,0,0,1-1.42-4.1v-.32a7,7,0,0,1,2.28-5.58,9.64,9.64,0,0,1,6.5-2q4.55,0,6.73,2.41a6.11,6.11,0,0,1,1.52,4.17,1,1,0,0,1-.24.78,1.5,1.5,0,0,1-.92.2h-2.05A1.55,1.55,0,0,1,371,25a1.16,1.16,0,0,1-.29-.72c-.21-2-1.62-3-4.21-3s-4,1.19-4,3.57a4,4,0,0,0,.18,1.26,2.35,2.35,0,0,0,.61.95,4.43,4.43,0,0,0,1.14.76,11.88,11.88,0,0,0,1.74.66L370,29.75a7.75,7.75,0,0,1,4.09,2.61,7,7,0,0,1,1.35,4.34v.47a6.61,6.61,0,0,1-2.27,5.38,9.74,9.74,0,0,1-6.41,1.89q-4.89,0-7.16-2.27a6.7,6.7,0,0,1-1.39-2.09,6.18,6.18,0,0,1-.49-2.41,1,1,0,0,1,.24-.77,1.5,1.5,0,0,1,.92-.2h2a1.52,1.52,0,0,1,.88.18A1.21,1.21,0,0,1,362.12,37.6Z" style="fill:#063f20"/><path d="M382.67,37.6a3.65,3.65,0,0,0,1.41,2.32,5.16,5.16,0,0,0,3.06.78,5.23,5.23,0,0,0,3.27-.81,3.22,3.22,0,0,0,1-2.65,3.4,3.4,0,0,0-.83-2.36,5.89,5.89,0,0,0-2.66-1.49l-3.82-1.19A8.23,8.23,0,0,1,380,29.64a6.24,6.24,0,0,1-1.43-4.1v-.32a7,7,0,0,1,2.29-5.58,9.64,9.64,0,0,1,6.5-2c3,0,5.27.8,6.73,2.41a6.1,6.1,0,0,1,1.51,4.17,1,1,0,0,1-.23.78,1.52,1.52,0,0,1-.92.2h-2.05a1.51,1.51,0,0,1-.9-.18,1.16,1.16,0,0,1-.29-.72q-.33-3-4.21-3t-4,3.57a4,4,0,0,0,.18,1.26,2.25,2.25,0,0,0,.61.95,4.43,4.43,0,0,0,1.14.76,11.45,11.45,0,0,0,1.74.66l3.82,1.19a7.72,7.72,0,0,1,4.08,2.61A7,7,0,0,1,396,36.7v.47a6.58,6.58,0,0,1-2.27,5.38,9.71,9.71,0,0,1-6.4,1.89c-3.27,0-5.65-.76-7.17-2.27a6.67,6.67,0,0,1-1.38-2.09,6,6,0,0,1-.49-2.41,1,1,0,0,1,.23-.77,1.54,1.54,0,0,1,.92-.2h2a1.52,1.52,0,0,1,.88.18A1.15,1.15,0,0,1,382.67,37.6Z" style="fill:#063f20"/><path d="M408.77,17.66a10.68,10.68,0,0,1,5.38,1.24,7.45,7.45,0,0,1,3.23,3.65,8.73,8.73,0,0,1,.64,2.34,25.3,25.3,0,0,1,.18,3.35V33.5a23,23,0,0,1-.19,3.22,12.28,12.28,0,0,1-.63,2.46,7.9,7.9,0,0,1-3.23,3.93,10.1,10.1,0,0,1-5.38,1.33,10.7,10.7,0,0,1-5.38-1.24,7.5,7.5,0,0,1-3.22-3.66,8.53,8.53,0,0,1-.65-2.34,25.13,25.13,0,0,1-.18-3.34V28.6a22.79,22.79,0,0,1,.2-3.22,11.3,11.3,0,0,1,.63-2.47A7.86,7.86,0,0,1,403.39,19,10.12,10.12,0,0,1,408.77,17.66Zm0,3.85A4.45,4.45,0,0,0,405,23q-1.12,1.52-1.13,5v6.05q0,3.49,1.13,5a5.54,5.54,0,0,0,7.6,0c.76-1,1.13-2.68,1.13-5V28c0-2.32-.37-4-1.13-5A4.44,4.44,0,0,0,408.77,21.51Z" style="fill:#063f20"/><path d="M184.35,57.28a1.92,1.92,0,0,1-.07-.4c0-.43.26-.65.79-.65h2.59a1.41,1.41,0,0,1,.9.2,1.8,1.8,0,0,1,.4.85l5.51,19.15L200,57.28a1.9,1.9,0,0,1,.4-.85,1.41,1.41,0,0,1,.9-.2h2.49c.52,0,.79.22.79.65a2.21,2.21,0,0,1-.08.4l-7.3,23.94a.88.88,0,0,1-.4.54,2.1,2.1,0,0,1-.76.1h-3.2a2.1,2.1,0,0,1-.76-.1.87.87,0,0,1-.39-.54Z" style="fill:#063f20"/><path d="M223.41,80.71a1.52,1.52,0,0,1-.2.92c-.13.16-.41.23-.84.23H208.79a1.42,1.42,0,0,1-.91-.2,1.08,1.08,0,0,1-.24-.84V57.28a1.09,1.09,0,0,1,.24-.85,1.48,1.48,0,0,1,.91-.2h13.43a1.1,1.1,0,0,1,.85.24,1.48,1.48,0,0,1,.2.91V59a1.54,1.54,0,0,1-.2.92,1.15,1.15,0,0,1-.85.23H212v6.62h9.26a1.08,1.08,0,0,1,.84.24,1.5,1.5,0,0,1,.2.92v1.58a1.52,1.52,0,0,1-.2.92,1.12,1.12,0,0,1-.84.23H212V78h10.34a1.08,1.08,0,0,1,.84.24,1.52,1.52,0,0,1,.2.92Z" style="fill:#063f20"/><path d="M232.27,71.86v9a1.21,1.21,0,0,1-.22.83,1.43,1.43,0,0,1-.94.21h-2a1.45,1.45,0,0,1-.94-.21,1.22,1.22,0,0,1-.21-.83V57.28a1.2,1.2,0,0,1,.21-.83,1.38,1.38,0,0,1,.94-.22h7.7c2.86,0,4.95.6,6.27,1.78s2,3.09,2,5.71v.68c0,3.65-1.46,6-4.36,6.92l5.36,9.5a1.09,1.09,0,0,1,.15.47c0,.38-.31.57-.94.57h-2.7a1.45,1.45,0,0,1-.88-.2,2.7,2.7,0,0,1-.63-.84l-4.86-9Zm0-3.75h4.5a4.18,4.18,0,0,0,2.95-.84,4,4,0,0,0,.86-2.9v-.51a4.28,4.28,0,0,0-.84-3,4.09,4.09,0,0,0-3-.87h-4.5Z" style="fill:#063f20"/><path d="M254.41,60.12h-6.3a1.14,1.14,0,0,1-.85-.23,1.54,1.54,0,0,1-.2-.92V57.38a1.48,1.48,0,0,1,.2-.91,1.09,1.09,0,0,1,.85-.24h17a1.08,1.08,0,0,1,.84.24,1.42,1.42,0,0,1,.2.91V59a1.47,1.47,0,0,1-.2.92,1.12,1.12,0,0,1-.84.23h-6.3v20.7a1.08,1.08,0,0,1-.24.84,1.42,1.42,0,0,1-.91.2h-2.09a1.45,1.45,0,0,1-.92-.2c-.16-.13-.23-.41-.23-.84Z" style="fill:#063f20"/><path d="M285.22,80.71a1.45,1.45,0,0,1-.2.92c-.13.16-.41.23-.84.23H270.61a1.43,1.43,0,0,1-.92-.2,1.08,1.08,0,0,1-.24-.84V57.28a1.09,1.09,0,0,1,.24-.85,1.5,1.5,0,0,1,.92-.2H284a1.09,1.09,0,0,1,.85.24,1.48,1.48,0,0,1,.2.91V59a1.54,1.54,0,0,1-.2.92,1.14,1.14,0,0,1-.85.23H273.85v6.62h9.25a1.08,1.08,0,0,1,.84.24,1.43,1.43,0,0,1,.2.92v1.58a1.45,1.45,0,0,1-.2.92,1.12,1.12,0,0,1-.84.23h-9.25V78h10.33a1.08,1.08,0,0,1,.84.24,1.45,1.45,0,0,1,.2.92Z" style="fill:#063f20"/><path d="M294,64.55V80.82a1.12,1.12,0,0,1-.23.84,1.45,1.45,0,0,1-.92.2h-2a1.45,1.45,0,0,1-.92-.2,1.12,1.12,0,0,1-.23-.84V57.28a1.14,1.14,0,0,1,.23-.85,1.52,1.52,0,0,1,.92-.2H293a2.41,2.41,0,0,1,1,.16,2.05,2.05,0,0,1,.66.85l8.61,16.31V57.28a1.14,1.14,0,0,1,.23-.85,1.52,1.52,0,0,1,.92-.2h2a1.52,1.52,0,0,1,.92.2,1.14,1.14,0,0,1,.23.85V80.82a1.12,1.12,0,0,1-.23.84,1.45,1.45,0,0,1-.92.2H304.3a2.22,2.22,0,0,1-1-.16,2.08,2.08,0,0,1-.66-.84Z" style="fill:#063f20"/><path d="M318.2,60.12h-6.3a1.15,1.15,0,0,1-.85-.23,1.54,1.54,0,0,1-.2-.92V57.38a1.48,1.48,0,0,1,.2-.91,1.1,1.1,0,0,1,.85-.24h17a1.08,1.08,0,0,1,.84.24,1.42,1.42,0,0,1,.2.91V59a1.47,1.47,0,0,1-.2.92,1.12,1.12,0,0,1-.84.23h-6.3v20.7a1.08,1.08,0,0,1-.24.84,1.42,1.42,0,0,1-.91.2h-2.09a1.45,1.45,0,0,1-.92-.2c-.16-.13-.23-.41-.23-.84Z" style="fill:#063f20"/><path d="M349,80.71a1.45,1.45,0,0,1-.2.92c-.13.16-.41.23-.84.23H334.4a1.43,1.43,0,0,1-.92-.2,1.08,1.08,0,0,1-.24-.84V57.28a1.09,1.09,0,0,1,.24-.85,1.5,1.5,0,0,1,.92-.2h13.42a1.09,1.09,0,0,1,.85.24,1.48,1.48,0,0,1,.2.91V59a1.54,1.54,0,0,1-.2.92,1.14,1.14,0,0,1-.85.23H337.64v6.62h9.25a1.08,1.08,0,0,1,.84.24,1.43,1.43,0,0,1,.2.92v1.58a1.45,1.45,0,0,1-.2.92,1.12,1.12,0,0,1-.84.23h-9.25V78H348a1.08,1.08,0,0,1,.84.24,1.45,1.45,0,0,1,.2.92Z" style="fill:#063f20"/><path d="M356.79,75.6a3.59,3.59,0,0,0,1.4,2.32,5.16,5.16,0,0,0,3.06.78,5.26,5.26,0,0,0,3.28-.81,3.22,3.22,0,0,0,1-2.65,3.4,3.4,0,0,0-.83-2.36A5.88,5.88,0,0,0,362,71.39l-3.81-1.19a8.26,8.26,0,0,1-4.09-2.56,6.24,6.24,0,0,1-1.42-4.1v-.32A7,7,0,0,1,355,57.64a9.61,9.61,0,0,1,6.49-2c3,0,5.27.8,6.74,2.41a6.15,6.15,0,0,1,1.51,4.17,1,1,0,0,1-.24.78,1.48,1.48,0,0,1-.91.2h-2.06a1.55,1.55,0,0,1-.9-.18,1.1,1.1,0,0,1-.28-.72c-.22-2-1.62-3-4.22-3s-4,1.19-4,3.57a4,4,0,0,0,.18,1.26,2.28,2.28,0,0,0,.62,1,4.2,4.2,0,0,0,1.13.76,11.61,11.61,0,0,0,1.75.66l3.81,1.19a7.71,7.71,0,0,1,4.09,2.61,7,7,0,0,1,1.35,4.34v.47a6.61,6.61,0,0,1-2.27,5.38,9.74,9.74,0,0,1-6.41,1.89q-4.89,0-7.16-2.27a6.88,6.88,0,0,1-1.39-2.09,6.17,6.17,0,0,1-.48-2.41,1,1,0,0,1,.23-.77,1.52,1.52,0,0,1,.92-.2h2a1.55,1.55,0,0,1,.89.18A1.21,1.21,0,0,1,356.79,75.6Z" style="fill:#063f20"/><path d="M389.8,56.23a11.21,11.21,0,0,1,3.15.4,9.59,9.59,0,0,1,2.45,1.06,7.08,7.08,0,0,1,1.78,1.55,8,8,0,0,1,1.15,1.89,10.76,10.76,0,0,1,.63,2.18,17.39,17.39,0,0,1,.24,3.25v5.15a16.8,16.8,0,0,1-.24,3.2,9.91,9.91,0,0,1-.63,2.13,7.39,7.39,0,0,1-1.08,1.85,7.18,7.18,0,0,1-1.65,1.55,7.92,7.92,0,0,1-2.29,1,10.87,10.87,0,0,1-3,.37h-7.88a1.43,1.43,0,0,1-.92-.2,1.08,1.08,0,0,1-.24-.84V57.28a1.09,1.09,0,0,1,.24-.85,1.5,1.5,0,0,1,.92-.2ZM385.7,78h4a6.91,6.91,0,0,0,2.14-.3,3.48,3.48,0,0,0,1.55-1,4.67,4.67,0,0,0,.95-1.92,11.66,11.66,0,0,0,.33-3V66.38a11,11,0,0,0-.35-3,4.82,4.82,0,0,0-1-1.92,3.63,3.63,0,0,0-1.55-1.05,6.44,6.44,0,0,0-2.1-.32h-4Z" style="fill:#063f20"/><path d="M422.67,80.82a1.74,1.74,0,0,1,.07.4c0,.43-.26.64-.79.64h-2.52c-.46,0-.75-.06-.88-.2a2.26,2.26,0,0,1-.42-.84l-1.65-5.08H407l-1.62,5.12a2.07,2.07,0,0,1-.41.82,1.43,1.43,0,0,1-.88.18h-2.38c-.53,0-.79-.21-.79-.64a1.74,1.74,0,0,1,.07-.4l8.1-23.94a.82.82,0,0,1,.4-.54,2,2,0,0,1,.75-.11h3.24a2.07,2.07,0,0,1,.76.11.82.82,0,0,1,.4.54ZM408.23,72h7l-3.53-10.94Z" style="fill:#063f20"/><path d="M190.69,110.36v8.46a1.08,1.08,0,0,1-.24.84,1.43,1.43,0,0,1-.92.2h-2a1.45,1.45,0,0,1-.92-.2c-.16-.13-.23-.41-.23-.84V95.28c0-.44.07-.72.23-.85a1.52,1.52,0,0,1,.92-.2h7.16a15,15,0,0,1,3.75.42,6.37,6.37,0,0,1,2.7,1.35,5.65,5.65,0,0,1,1.62,2.41,10.6,10.6,0,0,1,.54,3.63v.72q0,3.93-2.18,5.76c-1.45,1.23-3.6,1.84-6.43,1.84Zm0-3.74h4a6.42,6.42,0,0,0,2.18-.31,2.8,2.8,0,0,0,1.24-.85,2.92,2.92,0,0,0,.58-1.26,8.15,8.15,0,0,0,.14-1.51v-.5a9.52,9.52,0,0,0-.14-1.66,3.2,3.2,0,0,0-.58-1.33,2.88,2.88,0,0,0-1.24-.9,5.94,5.94,0,0,0-2.18-.32h-4Z" style="fill:#063f20"/><path d="M210.16,113.6a3.65,3.65,0,0,0,1.41,2.32,5.16,5.16,0,0,0,3.06.78,5.3,5.3,0,0,0,3.27-.81,3.22,3.22,0,0,0,1-2.65,3.4,3.4,0,0,0-.83-2.36,5.89,5.89,0,0,0-2.66-1.49l-3.82-1.19a8.3,8.3,0,0,1-4.08-2.56,6.24,6.24,0,0,1-1.43-4.1v-.33a7,7,0,0,1,2.29-5.57,9.62,9.62,0,0,1,6.5-2c3,0,5.27.8,6.73,2.41a6.1,6.1,0,0,1,1.51,4.17,1,1,0,0,1-.23.78,1.53,1.53,0,0,1-.92.19h-2.05a1.52,1.52,0,0,1-.9-.17,1.15,1.15,0,0,1-.29-.72q-.33-3-4.21-3t-4,3.57a4,4,0,0,0,.18,1.26,2.25,2.25,0,0,0,.61,1,4.54,4.54,0,0,0,1.13.76,11.61,11.61,0,0,0,1.75.66l3.82,1.19a7.72,7.72,0,0,1,4.08,2.61,7,7,0,0,1,1.35,4.34v.47a6.58,6.58,0,0,1-2.27,5.38,9.71,9.71,0,0,1-6.4,1.89q-4.91,0-7.17-2.27a6.67,6.67,0,0,1-1.38-2.09,6,6,0,0,1-.49-2.41,1,1,0,0,1,.23-.77,1.54,1.54,0,0,1,.92-.2h2a1.54,1.54,0,0,1,.88.18A1.15,1.15,0,0,1,210.16,113.6Z" style="fill:#063f20"/><path d="M231.87,118.82a1.12,1.12,0,0,1-.23.84,1.45,1.45,0,0,1-.92.2h-2.09a1.47,1.47,0,0,1-.92-.2,1.12,1.12,0,0,1-.23-.84V95.28a1.14,1.14,0,0,1,.23-.85,1.54,1.54,0,0,1,.92-.2h2.09a1.52,1.52,0,0,1,.92.2,1.14,1.14,0,0,1,.23.85Z" style="fill:#063f20"/><path d="M250.19,112.3a1,1,0,0,1,.27-.72,1.55,1.55,0,0,1,.89-.18h2.16a1.48,1.48,0,0,1,.91.2,1,1,0,0,1,.24.77,9.55,9.55,0,0,1-.47,3.23,6.77,6.77,0,0,1-1.55,2.39q-2.37,2.45-7.2,2.45a9.66,9.66,0,0,1-5-1.24,7.87,7.87,0,0,1-3.17-3.66,8.54,8.54,0,0,1-.64-2.3,25.07,25.07,0,0,1-.18-3.38V104.6a22.38,22.38,0,0,1,.19-3.24,13.53,13.53,0,0,1,.63-2.45A7.64,7.64,0,0,1,240.42,95a10.48,10.48,0,0,1,5.49-1.34q4.6,0,6.84,2.41a6.54,6.54,0,0,1,1.48,2.41,10.2,10.2,0,0,1,.43,3.13,1,1,0,0,1-.24.78,1.5,1.5,0,0,1-.91.19h-2.24a1.54,1.54,0,0,1-.88-.18,1,1,0,0,1-.27-.72A4.6,4.6,0,0,0,249,98.44a4.77,4.77,0,0,0-3.35-1A4.27,4.27,0,0,0,242,99q-1.08,1.5-1.08,5.06v6c0,2.3.36,4,1.09,5a4.2,4.2,0,0,0,3.66,1.53,4.7,4.7,0,0,0,3.36-1A4.41,4.41,0,0,0,250.19,112.3Z" style="fill:#063f20"/><path d="M267.55,93.66a10.7,10.7,0,0,1,5.38,1.24,7.52,7.52,0,0,1,3.22,3.65,8.74,8.74,0,0,1,.65,2.34,25.19,25.19,0,0,1,.18,3.35v5.26a22.9,22.9,0,0,1-.2,3.22,11.06,11.06,0,0,1-.63,2.46,7.94,7.94,0,0,1-3.22,3.93,10.12,10.12,0,0,1-5.38,1.33,10.74,10.74,0,0,1-5.39-1.24,7.55,7.55,0,0,1-3.22-3.66,8.53,8.53,0,0,1-.65-2.34,25.13,25.13,0,0,1-.18-3.34V104.6a22.79,22.79,0,0,1,.2-3.22,11.3,11.3,0,0,1,.63-2.47A7.91,7.91,0,0,1,262.16,95,10.16,10.16,0,0,1,267.55,93.66Zm0,3.85a4.43,4.43,0,0,0-3.8,1.51q-1.14,1.52-1.14,5v6q0,3.5,1.14,5a5.52,5.52,0,0,0,7.59,0q1.14-1.52,1.14-5v-6q0-3.48-1.14-5A4.42,4.42,0,0,0,267.55,97.51Z" style="fill:#063f20"/><path d="M296.53,118.71a1.52,1.52,0,0,1-.2.92c-.13.16-.42.23-.85.23H282.67a1.43,1.43,0,0,1-.92-.2,1.08,1.08,0,0,1-.24-.84V95.28a1.09,1.09,0,0,1,.24-.85,1.5,1.5,0,0,1,.92-.2h2.08a1.5,1.5,0,0,1,.92.2,1.09,1.09,0,0,1,.24.85V116h9.57c.43,0,.72.07.85.23a1.52,1.52,0,0,1,.2.92Z" style="fill:#063f20"/><path d="M308.44,93.66a10.68,10.68,0,0,1,5.38,1.24,7.49,7.49,0,0,1,3.23,3.65,8.73,8.73,0,0,1,.64,2.34,25.19,25.19,0,0,1,.18,3.35v5.26a23,23,0,0,1-.19,3.22,12.28,12.28,0,0,1-.63,2.46,7.9,7.9,0,0,1-3.23,3.93,10.1,10.1,0,0,1-5.38,1.33,10.68,10.68,0,0,1-5.38-1.24,7.5,7.5,0,0,1-3.22-3.66,8.53,8.53,0,0,1-.65-2.34,25.13,25.13,0,0,1-.18-3.34V104.6a22.79,22.79,0,0,1,.2-3.22,11.3,11.3,0,0,1,.63-2.47A7.86,7.86,0,0,1,303.06,95,10.1,10.1,0,0,1,308.44,93.66Zm0,3.85a4.45,4.45,0,0,0-3.8,1.51q-1.12,1.52-1.13,5v6q0,3.5,1.13,5a5.54,5.54,0,0,0,7.6,0c.76-1,1.13-2.68,1.13-5v-6c0-2.32-.37-4-1.13-5A4.44,4.44,0,0,0,308.44,97.51Z" style="fill:#063f20"/><path d="M321.76,104.6a15.36,15.36,0,0,1,.83-5.69A7.69,7.69,0,0,1,326,95a11,11,0,0,1,5.56-1.33,13,13,0,0,1,3.47.45,8.27,8.27,0,0,1,2.86,1.38,6.67,6.67,0,0,1,1.95,2.4,7.76,7.76,0,0,1,.72,3.47.8.8,0,0,1-.25.68,1.64,1.64,0,0,1-.9.18h-2.24a1.54,1.54,0,0,1-.88-.18,1,1,0,0,1-.27-.72,3.88,3.88,0,0,0-1.29-2.95,5.58,5.58,0,0,0-3.46-.9,7.2,7.2,0,0,0-2.27.31,3.11,3.11,0,0,0-1.53,1.06,5.1,5.1,0,0,0-.88,2,14.59,14.59,0,0,0-.29,3.16v6q0,3.65,1.21,5.11a4.56,4.56,0,0,0,3.76,1.48,4.92,4.92,0,0,0,3.6-1.22c.81-.82,1.22-2.21,1.22-4.18v-.68h-2.77a1.08,1.08,0,0,1-.84-.24,1.43,1.43,0,0,1-.2-.92v-1.58a1.45,1.45,0,0,1,.2-.92,1.12,1.12,0,0,1,.84-.23h6.09a1.42,1.42,0,0,1,.91.2,1.08,1.08,0,0,1,.24.84v4.07a9.91,9.91,0,0,1-.56,3.33,7.5,7.5,0,0,1-1.71,2.75,8,8,0,0,1-2.92,1.87,11.29,11.29,0,0,1-4.14.69,10.32,10.32,0,0,1-5.52-1.28,8,8,0,0,1-3.08-3.62,8.59,8.59,0,0,1-.65-2.32,25,25,0,0,1-.18-3.36Z" style="fill:#063f20"/><path d="M349.45,118.82a1.08,1.08,0,0,1-.24.84,1.45,1.45,0,0,1-.92.2h-2.08a1.43,1.43,0,0,1-.92-.2,1.08,1.08,0,0,1-.24-.84V95.28a1.09,1.09,0,0,1,.24-.85,1.5,1.5,0,0,1,.92-.2h2.08a1.52,1.52,0,0,1,.92.2,1.09,1.09,0,0,1,.24.85Z" style="fill:#063f20"/><path d="M374.1,118.82a2,2,0,0,1,.08.39c0,.44-.27.65-.8.65h-2.52a1.28,1.28,0,0,1-.88-.2,2.29,2.29,0,0,1-.41-.84l-1.66-5.08h-9.43l-1.62,5.12a2.07,2.07,0,0,1-.41.82,1.47,1.47,0,0,1-.89.18h-2.37c-.53,0-.79-.21-.79-.65a1.77,1.77,0,0,1,.07-.39l8.1-23.94a.81.81,0,0,1,.39-.54,2.07,2.07,0,0,1,.76-.11H365a2.07,2.07,0,0,1,.76.11.81.81,0,0,1,.39.54ZM359.67,110h7l-3.53-10.94Z" style="fill:#063f20"/><path d="M196.12,147.37c0-.2.14-.29.37-.29H197a.33.33,0,0,1,.37.36,3.93,3.93,0,0,1-.15,1,5.48,5.48,0,0,1-.35,1,4.46,4.46,0,0,1-2,2.1,6.94,6.94,0,0,1-3.29.73,5.74,5.74,0,0,1-4.59-1.78,7.93,7.93,0,0,1-1.54-5.32V140a7.75,7.75,0,0,1,1.58-5.3,5.88,5.88,0,0,1,4.66-1.79q3.87,0,5.3,2.83a3.31,3.31,0,0,1,.31.92,5.65,5.65,0,0,1,.11,1.08.33.33,0,0,1-.37.37h-.49c-.23,0-.35-.1-.37-.29a4,4,0,0,0-1.34-2.82,4.76,4.76,0,0,0-3.15-.95,4.44,4.44,0,0,0-3.72,1.51,7.36,7.36,0,0,0-1.2,4.62V145a7.5,7.5,0,0,0,1.17,4.64,4.32,4.32,0,0,0,3.64,1.5,5,5,0,0,0,3.23-1A4,4,0,0,0,196.12,147.37Z" style="fill:#063f20"/><path d="M206.45,132.94q6.18,0,6.18,7.09v5.15a7.88,7.88,0,0,1-1.56,5.32,5.8,5.8,0,0,1-4.62,1.78q-6.16,0-6.17-7.1V140a7.9,7.9,0,0,1,1.55-5.31A5.78,5.78,0,0,1,206.45,132.94Zm0,1.14a4.39,4.39,0,0,0-3.68,1.47,7.48,7.48,0,0,0-1.16,4.66V145a7.51,7.51,0,0,0,1.16,4.67,4.39,4.39,0,0,0,3.68,1.47,4.43,4.43,0,0,0,3.69-1.47,7.5,7.5,0,0,0,1.17-4.67v-4.79a7.47,7.47,0,0,0-1.17-4.66A4.43,4.43,0,0,0,206.45,134.08Z" style="fill:#063f20"/><path d="M217.5,135.46v16a.33.33,0,0,1-.37.36h-.47a.32.32,0,0,1-.36-.36V133.71a.32.32,0,0,1,.36-.36h.63a.47.47,0,0,1,.44.23l9.46,16.2V133.71a.33.33,0,0,1,.37-.36H228a.32.32,0,0,1,.36.36V151.5a.32.32,0,0,1-.36.36h-.63a.45.45,0,0,1-.44-.23Z" style="fill:#063f20"/><path d="M231.09,134a1.27,1.27,0,0,1-.07-.24.56.56,0,0,1,0-.15c0-.14.09-.21.26-.21H232a.39.39,0,0,1,.39.31l5.2,16.44,5.22-16.44a.39.39,0,0,1,.39-.31h.65c.18,0,.26.07.26.21a1.25,1.25,0,0,1,0,.15c0,.08,0,.15-.08.24l-5.62,17.6a.39.39,0,0,1-.39.31h-.88a.39.39,0,0,1-.39-.31Z" style="fill:#063f20"/><path d="M257,151.5a.32.32,0,0,1-.36.36H247a.3.3,0,0,1-.34-.33V133.71a.32.32,0,0,1,.37-.36h9.36a.32.32,0,0,1,.36.36v.42a.33.33,0,0,1-.36.37H248v7.28h7.86a.32.32,0,0,1,.36.36v.42a.32.32,0,0,1-.36.36H248v7.8h8.61a.32.32,0,0,1,.36.36Z" style="fill:#063f20"/><path d="M261.9,144.27v7.23a.32.32,0,0,1-.36.36H261a.32.32,0,0,1-.37-.36V133.71a.32.32,0,0,1,.37-.36h5q5.57,0,5.57,5.23V139a5.16,5.16,0,0,1-1.41,3.93,5.85,5.85,0,0,1-4.16,1.32Zm0-9.77v8.63h4a4.79,4.79,0,0,0,3.34-1,4.09,4.09,0,0,0,1.06-3.13v-.44a4.11,4.11,0,0,0-1-3.11,4.84,4.84,0,0,0-3.36-1Z" style="fill:#063f20"/><path d="M284.78,133.07a5.2,5.2,0,0,1,3.71,1.21,4.59,4.59,0,0,1,1.29,3.49v.39a5.12,5.12,0,0,1-.86,3,9.53,9.53,0,0,1-2.81,2.49L283.85,145a10.87,10.87,0,0,0-1.6,1.16,5.44,5.44,0,0,0-1.07,1.26,5,5,0,0,0-.58,1.45,7.73,7.73,0,0,0-.19,1.74h8.95c.24,0,.36.13.36.38v.44c0,.26-.12.38-.36.38h-9.83c-.24,0-.36-.12-.36-.38v-.85a10.2,10.2,0,0,1,.2-2.08,6,6,0,0,1,.68-1.72,5.89,5.89,0,0,1,1.24-1.48,15.06,15.06,0,0,1,1.88-1.4l2.21-1.37a9.26,9.26,0,0,0,1.44-1,5.37,5.37,0,0,0,.95-1.05,3.84,3.84,0,0,0,.54-1.14,4.9,4.9,0,0,0,.16-1.31v-.16a3.6,3.6,0,0,0-.92-2.66,3.54,3.54,0,0,0-2.64-.93A4.75,4.75,0,0,0,282,135a3.55,3.55,0,0,0-1.3,2.34.69.69,0,0,1-.12.33.47.47,0,0,1-.3.06h-.44a.37.37,0,0,1-.29-.09.48.48,0,0,1-.08-.32,3.46,3.46,0,0,1,.21-1.07,4.64,4.64,0,0,1,.5-1.07,4.22,4.22,0,0,1,1.82-1.59A6.52,6.52,0,0,1,284.78,133.07Z" style="fill:#063f20"/><path d="M298.2,152.23q-5.62,0-5.62-7v-5.15a8.2,8.2,0,0,1,1.42-5.25,5.06,5.06,0,0,1,4.2-1.75q5.61,0,5.61,7v5.15Q303.81,152.22,298.2,152.23Zm0-18a3.74,3.74,0,0,0-3.28,1.44,8.2,8.2,0,0,0-1,4.61V145a8.2,8.2,0,0,0,1,4.61,4.42,4.42,0,0,0,6.54,0,8,8,0,0,0,1-4.6v-4.68a8,8,0,0,0-1-4.6A3.7,3.7,0,0,0,298.2,134.27Z" style="fill:#063f20"/><path d="M310.21,151.46c0,.26-.12.38-.36.38h-.58c-.24,0-.36-.12-.36-.38V134.65h-3.56a.33.33,0,0,1-.37-.38v-.44a.34.34,0,0,1,.37-.38h4.5c.24,0,.36.13.36.38Z" style="fill:#063f20"/><path d="M319.1,133.07a5.42,5.42,0,0,1,4.2,1.43,6.34,6.34,0,0,1,1.32,4.4V146a6.76,6.76,0,0,1-1.45,4.65,5.26,5.26,0,0,1-4.15,1.62,6.75,6.75,0,0,1-2.67-.45,4.19,4.19,0,0,1-1.75-1.44,3.23,3.23,0,0,1-.46-1,3.36,3.36,0,0,1-.19-1A.49.49,0,0,1,314,148a.37.37,0,0,1,.29-.08h.47a.53.53,0,0,1,.3,0,.7.7,0,0,1,.11.33,3.19,3.19,0,0,0,1.21,2.07,4.68,4.68,0,0,0,2.64.61q4.29,0,4.29-5.25v-2.85q-1.27,2.25-4.5,2.25a5.09,5.09,0,0,1-3.92-1.43,5.94,5.94,0,0,1-1.33-4.21v-.83a5.78,5.78,0,0,1,1.39-4.21A5.51,5.51,0,0,1,319.1,133.07Zm0,1.2a4.21,4.21,0,0,0-3.21,1.09,5.15,5.15,0,0,0-1,3.54v.43a5.27,5.27,0,0,0,1,3.51,3.82,3.82,0,0,0,3.05,1.12,4.38,4.38,0,0,0,3.32-1.18,4.79,4.79,0,0,0,1.13-3.45v-.43a5.09,5.09,0,0,0-1-3.52A4.2,4.2,0,0,0,319.1,134.27Z" style="fill:#063f20"/></svg>