<svg width="2000" height="2000" viewBox="0 0 2000 2000" fill="none" xmlns="http://www.w3.org/2000/svg">
<path d="M586.021 178.084C318.417 312.113 130.664 565.602 80.4585 860.653" stroke="#6C9A14" stroke-width="40" stroke-miterlimit="10" stroke-linecap="round"/>
<path d="M1180.11 959.412C1412.24 897.947 1556.4 666.749 1512.53 440.36C1471.25 228.047 1274.53 71.5685 1049.9 79.6622" stroke="#871907" stroke-width="40" stroke-miterlimit="10" stroke-linecap="round"/>
<path d="M1946.4 964.015C1937.07 797.538 1883.28 636.607 1790.62 497.982" stroke="#6C9A14" stroke-width="40" stroke-miterlimit="10" stroke-linecap="round"/>
<path d="M1878.51 1365C1807.07 1610.51 1553.82 1748.57 1329.08 1685.46C1131.43 1629.86 992.66 1429.05 1012.37 1207.35" stroke="#871907" stroke-width="40" stroke-miterlimit="10" stroke-linecap="round"/>
<path d="M860.627 1948.76C909.279 1956.48 958.459 1960.4 1007.72 1960.49C1086.41 1960.56 1164.79 1950.75 1241.03 1931.28" stroke="#6C9A14" stroke-width="40" stroke-miterlimit="10" stroke-linecap="round"/>
<path d="M350.474 1690.78C132.765 1482.8 136.636 1156.59 308.715 991.903C437.745 868.386 654.281 842.932 842.313 934.895" stroke="#871907" stroke-width="40" stroke-miterlimit="10" stroke-linecap="round"/>
<path d="M304.507 786.197C240.486 980.085 259.243 1191.79 356.354 1371.41" stroke="#6C9A14" stroke-width="40" stroke-miterlimit="10" stroke-linecap="round"/>
<path d="M508.78 472.235C616.696 372.53 775.403 355.756 893.524 427.661C1027.71 509.771 1082.26 689.24 1010.82 842.082" stroke="#A22C08" stroke-width="40" stroke-miterlimit="10" stroke-linecap="round"/>
<path d="M1639.61 633.924C1522.02 440.427 1322.21 311.516 1097.45 284.136" stroke="#6C9A14" stroke-width="40" stroke-miterlimit="10" stroke-linecap="round"/>
<path d="M1153.39 1136.18C1234.56 1269.09 1399.77 1324.05 1544.39 1266.26C1689 1208.46 1770.82 1054.76 1738.02 902.52" stroke="#A22C08" stroke-width="40" stroke-miterlimit="10" stroke-linecap="round"/>
<path d="M979.883 1758.13C807.921 1762 661.765 1636.84 639.713 1475.91C620.241 1330.45 705.752 1184.65 848.858 1127.17" stroke="#A22C08" stroke-width="40" stroke-miterlimit="10" stroke-linecap="round"/>
<path d="M1377.09 1661.14C1463.9 1611.24 1539.72 1544.29 1599.96 1464.32" stroke="#6C9A14" stroke-width="40" stroke-miterlimit="10" stroke-linecap="round"/>
<path d="M1007.6 1183.13C1098.3 1183.13 1171.82 1109.61 1171.82 1018.91C1171.82 928.214 1098.3 854.69 1007.6 854.69C916.904 854.69 843.38 928.214 843.38 1018.91C843.38 1109.61 916.904 1183.13 1007.6 1183.13Z" stroke="#B31812" stroke-width="40" stroke-miterlimit="10"/>
<path d="M1361.7 957.863C1345.78 866.306 1294.94 784.507 1219.88 729.714" stroke="#88B44D" stroke-width="40" stroke-miterlimit="10" stroke-linecap="round"/>
<path d="M1077.65 1370.62C1191.54 1347.95 1287.38 1271.48 1334.77 1165.46" stroke="#88B44D" stroke-width="40" stroke-miterlimit="10" stroke-linecap="round"/>
<path d="M1031.37 661.694C1023.4 661.694 1015.3 660.872 1007.91 660.872C916.684 660.577 828.799 695.202 762.287 757.645" stroke="#88B44D" stroke-width="40" stroke-miterlimit="10" stroke-linecap="round"/>
<path d="M653.457 964.859C650.727 982.873 649.355 1001.07 649.352 1019.29C649.247 1134.41 704.616 1242.52 798.088 1309.72" stroke="#88B44D" stroke-width="40" stroke-miterlimit="10" stroke-linecap="round"/>
<path d="M1432.36 1364.05C1559.36 1207.81 1590.15 994.389 1512.48 808.631" stroke="#B31812" stroke-width="40" stroke-miterlimit="10" stroke-linecap="round"/>
<path d="M552.157 1320.53C683.752 1519.4 929.107 1609.99 1158.36 1544.34" stroke="#B31812" stroke-width="40" stroke-miterlimit="10" stroke-linecap="round"/>
<path d="M636.993 618.284C525.21 721.377 461.698 866.564 461.864 1018.63C461.864 1035.64 462.685 1052.29 464.21 1068.83" stroke="#B31812" stroke-width="40" stroke-miterlimit="10" stroke-linecap="round"/>
<path d="M1310.69 564.147C1178.2 475.881 1013.78 449.834 860.491 492.829" stroke="#B31812" stroke-width="40" stroke-miterlimit="10" stroke-linecap="round"/>
</svg>
