<?xml version="1.0" standalone="no"?>
<!DOCTYPE svg PUBLIC "-//W3C//DTD SVG 20010904//EN"
 "http://www.w3.org/TR/2001/REC-SVG-20010904/DTD/svg10.dtd">
<svg version="1.0" xmlns="http://www.w3.org/2000/svg"
 width="236.000000pt" height="214.000000pt" viewBox="0 0 236.000000 214.000000"
 preserveAspectRatio="xMidYMid meet">

<g transform="translate(0.000000,214.000000) scale(0.100000,-0.100000)"
fill="#000000" stroke="none">
<path d="M1130 1509 c0 -48 -16 -69 -53 -69 -18 0 -50 -5 -72 -11 -22 -6 -87
-15 -145 -19 -327 -28 -461 -52 -240 -43 l125 5 -35 -23 c-25 -18 -52 -25
-105 -28 -56 -3 -65 -5 -45 -13 24 -9 23 -9 -20 -35 -40 -23 -156 -123 -144
-123 3 0 32 22 65 50 89 74 122 87 84 33 -16 -22 -37 -73 -31 -73 2 0 15 19
29 43 31 52 72 91 86 82 6 -3 47 19 90 49 78 55 80 56 149 56 39 0 82 4 96 10
18 6 26 6 26 -1 0 -6 7 -8 16 -5 9 3 12 2 9 -4 -12 -19 -105 -61 -157 -70 -29
-6 -61 -19 -72 -29 -12 -10 -28 -21 -36 -24 -8 -3 -10 -6 -3 -6 7 -1 29 10 49
24 20 14 45 25 56 25 19 0 19 -1 -2 -30 -30 -43 -74 -73 -160 -113 -76 -34
-190 -103 -190 -113 0 -4 10 0 23 8 58 37 145 88 151 88 15 0 4 -18 -19 -30
-14 -7 -32 -25 -42 -39 -11 -17 3 -9 42 24 34 29 56 42 52 32 -4 -10 -7 -38
-7 -62 0 -41 -3 -45 -42 -67 -35 -19 -46 -35 -75 -98 -29 -66 -30 -72 -9 -46
13 15 29 46 35 68 10 32 20 43 54 58 l42 19 3 -24 c2 -13 -7 -43 -20 -67 -25
-49 -49 -111 -44 -116 2 -2 12 17 21 42 10 25 21 46 26 46 4 0 11 10 15 22 l6
21 14 -24 c18 -32 17 -55 -3 -89 -15 -27 -15 -30 0 -54 9 -14 17 -33 18 -43 0
-11 2 -13 6 -5 3 7 -1 26 -7 43 -11 25 -10 35 6 64 17 32 17 37 1 87 -9 30
-18 92 -19 140 -3 73 0 89 16 107 24 26 40 27 26 2 -11 -22 -14 -170 -2 -188
4 -6 5 26 4 71 -3 70 0 90 18 126 16 32 24 40 33 31 9 -9 5 -29 -12 -80 -13
-38 -20 -74 -16 -81 4 -6 15 -35 26 -63 10 -29 18 -44 19 -35 0 10 -8 39 -18
66 -18 47 -18 48 5 97 12 28 23 68 23 90 0 60 29 99 96 129 32 15 66 34 76 43
10 9 18 12 18 6 0 -11 -93 -100 -129 -124 -20 -13 -25 -25 -27 -75 l-3 -59 9
53 c4 29 10 55 11 57 22 19 101 75 108 75 5 0 12 11 15 24 5 21 66 78 66 61 0
-15 -43 -87 -98 -163 -42 -57 -66 -103 -80 -150 -30 -100 -34 -122 -22 -122 5
0 10 10 10 23 0 31 11 67 20 67 11 0 30 -81 30 -126 0 -22 -14 -67 -35 -110
-42 -87 -43 -114 -9 -151 22 -25 24 -25 10 -3 -9 13 -16 37 -16 53 0 28 42
121 59 131 5 4 30 -37 55 -89 24 -52 47 -95 50 -95 7 0 -4 28 -25 65 -19 33
-59 150 -59 173 0 19 52 -46 91 -115 17 -29 33 -53 36 -53 7 0 -43 86 -74 128
-66 89 -109 238 -80 277 14 18 16 15 35 -45 16 -49 21 -58 21 -35 0 17 -8 49
-18 72 l-19 41 25 34 c14 18 49 70 79 116 29 45 55 82 58 82 2 0 -14 -34 -35
-76 -35 -71 -61 -134 -55 -134 1 0 24 42 50 94 26 52 57 102 68 113 21 18 21
18 13 -2 -4 -11 -17 -44 -27 -74 -10 -29 -28 -66 -40 -81 -13 -18 -23 -52 -28
-97 -4 -39 -15 -93 -25 -122 -9 -29 -15 -54 -12 -57 6 -6 42 116 55 187 11 58
66 160 75 137 3 -7 6 6 6 30 1 42 14 56 25 26 13 -33 5 -70 -35 -163 -58 -134
-61 -148 -48 -204 6 -26 13 -46 16 -44 2 3 0 23 -6 44 -9 32 -8 50 6 88 14 44
17 46 29 30 7 -10 23 -46 34 -80 22 -67 21 -75 -30 -188 -15 -35 -18 -52 -11
-65 9 -14 10 -13 11 11 0 15 8 42 17 60 l17 32 7 -35 c7 -38 36 -110 44 -110
3 0 -3 17 -12 38 -14 29 -17 58 -15 137 2 80 -1 112 -17 159 -12 33 -21 71
-21 85 0 23 4 20 30 -24 16 -27 30 -46 30 -41 0 5 -10 24 -21 43 -18 29 -20
41 -12 76 l10 42 12 -47 c7 -26 19 -53 27 -59 11 -9 11 -5 -1 24 -8 20 -15 49
-15 64 1 25 4 23 27 -22 14 -27 32 -77 39 -110 11 -54 10 -64 -7 -105 -39 -88
-35 -162 12 -220 17 -22 17 -20 -3 20 -28 54 -29 120 -4 169 10 19 22 55 26
80 l8 46 2 -45 3 -45 6 45 c6 43 7 44 19 22 7 -12 17 -72 22 -133 5 -60 12
-114 15 -120 4 -5 11 -31 16 -57 l8 -47 -4 45 c-3 25 -8 63 -11 85 l-5 40 50
-53 c58 -61 66 -99 30 -148 l-21 -29 26 28 c46 50 36 92 -45 184 -39 46 -55
94 -40 121 8 15 11 14 20 -8 5 -14 10 -19 10 -12 1 8 -8 25 -19 39 -11 14 -20
31 -20 38 0 7 -19 39 -43 72 -24 32 -60 88 -81 126 -36 65 -80 176 -73 184 8
7 57 -75 73 -119 8 -26 22 -53 31 -60 11 -9 9 0 -6 27 -11 22 -21 47 -21 55 0
9 -13 37 -30 63 -16 26 -27 47 -24 47 4 0 28 -14 56 -32 48 -31 49 -33 43 -71
-5 -29 -2 -49 14 -80 11 -23 23 -54 26 -69 3 -15 27 -52 54 -83 35 -40 53 -71
61 -106 7 -28 14 -48 17 -46 2 3 -2 29 -10 59 -10 37 -30 74 -61 112 -25 31
-46 66 -46 77 0 11 -9 37 -20 59 -21 42 -27 94 -9 88 6 -2 24 -35 40 -73 39
-92 61 -136 66 -131 3 2 -5 22 -17 45 -25 49 -8 56 33 13 18 -19 42 -75 77
-185 29 -87 54 -156 56 -154 3 3 -5 34 -18 70 -12 36 -19 69 -16 73 10 9 107
-66 123 -96 8 -14 14 -18 15 -10 0 8 -36 48 -79 90 -64 60 -81 84 -91 120 -20
80 -22 84 -53 113 l-31 29 30 -4 c22 -2 37 -15 62 -52 38 -57 43 -51 7 11 -22
37 -24 44 -10 49 31 12 63 -22 75 -81 6 -30 14 -55 16 -55 7 0 -7 71 -22 107
-13 34 -4 52 15 30 6 -8 15 -31 20 -53 l9 -39 1 43 c2 79 22 48 65 -100 9 -31
25 -67 36 -80 15 -19 15 -14 -5 27 -13 28 -27 66 -30 85 l-7 35 42 -48 c23
-26 52 -52 64 -58 14 -8 10 0 -13 22 -47 48 -85 98 -78 106 4 3 12 1 19 -5 8
-6 49 -20 93 -32 44 -12 89 -29 100 -38 l20 -16 -20 21 c-11 12 -54 31 -95 43
-46 13 -98 38 -135 63 l-60 42 -105 0 c-58 1 -111 2 -117 3 -14 2 -47 61 -39
69 3 3 25 -6 50 -21 65 -38 69 -32 6 9 -30 19 -60 35 -66 35 -6 0 -17 7 -24
15 -19 23 22 20 53 -5 14 -11 33 -20 44 -20 10 0 38 -9 62 -20 24 -11 48 -20
55 -20 19 0 -88 49 -108 50 -11 0 -27 7 -37 16 -10 9 -35 22 -56 29 -21 7 -36
17 -33 21 7 12 38 5 80 -16 20 -10 53 -21 73 -24 20 -3 53 -9 74 -12 26 -4 53
-21 97 -64 55 -52 142 -108 152 -97 2 2 -19 14 -46 27 -28 13 -57 32 -67 42
-15 17 -15 18 18 12 52 -10 102 -21 124 -28 12 -5 10 -2 -5 7 -14 8 -55 20
-92 27 -86 16 -105 34 -46 45 l43 9 -60 5 c-71 7 -99 20 -69 32 13 5 1 8 -36
9 l-55 2 75 14 c52 9 86 10 110 4 19 -6 69 -9 110 -8 l75 1 -90 9 c-49 6 -155
11 -235 12 -132 1 -310 18 -331 32 -5 3 -9 25 -9 50 l0 44 -55 0 c-55 0 -55 0
-55 -31z"/>
<path d="M930 1374 l-45 -14 44 4 c24 3 48 9 54 15 13 13 5 12 -53 -5z"/>
<path d="M813 1353 c15 -2 37 -2 50 0 12 2 0 4 -28 4 -27 0 -38 -2 -22 -4z"/>
<path d="M460 1300 c-20 -6 -21 -8 -5 -8 11 0 29 3 40 8 25 11 -1 11 -35 0z"/>
<path d="M604 1258 l-19 -23 23 19 c21 18 27 26 19 26 -2 0 -12 -10 -23 -22z"/>
<path d="M688 1253 c7 -3 16 -2 19 1 4 3 -2 6 -13 5 -11 0 -14 -3 -6 -6z"/>
<path d="M1152 1223 c-15 -48 -8 -55 8 -8 7 20 10 38 8 41 -3 2 -10 -13 -16
-33z"/>
<path d="M582 1210 c0 -14 2 -19 5 -12 2 6 2 18 0 25 -3 6 -5 1 -5 -13z"/>
<path d="M566 1163 c-6 -14 -5 -15 5 -6 7 7 10 15 7 18 -3 3 -9 -2 -12 -12z"/>
<path d="M1671 1120 c0 -8 4 -22 9 -30 12 -18 12 -2 0 25 -6 13 -9 15 -9 5z"/>
<path d="M1590 1104 c0 -6 7 -19 16 -30 14 -18 14 -18 3 6 -14 31 -19 36 -19
24z"/>
<path d="M1690 1065 c0 -5 5 -17 10 -25 5 -8 10 -10 10 -5 0 6 -5 17 -10 25
-5 8 -10 11 -10 5z"/>
<path d="M1357 883 c-3 -31 -2 -64 3 -72 6 -11 9 8 10 57 0 39 -2 72 -4 72 -2
0 -6 -26 -9 -57z"/>
<path d="M1480 893 c0 -7 10 -22 23 -35 12 -13 17 -17 11 -8 -6 8 -16 24 -22
35 -6 11 -12 15 -12 8z"/>
<path d="M1180 710 c6 -11 13 -20 16 -20 2 0 0 9 -6 20 -6 11 -13 20 -16 20
-2 0 0 -9 6 -20z"/>
</g>
</svg>
