<svg xmlns="http://www.w3.org/2000/svg" viewBox="0 0 95.92 27.85">
  <g fill="#1d1d1b" fill-rule="evenodd">
    <path d="M1.43,11.5V2.25C1.43,1.4.73,1.15,0,1.07V.26H5.63v.81c-.71.07-1.31.3-1.31,1.12v9.15c0,3.09,1.92,4.34,4.51,4.34,4.71,0,4.71-3.66,4.71-7v-4c0-2.86-.24-3.49-1.71-3.61V.26h4.74v.8c-.87.09-1.48.5-1.48,2.33v6.82c0,3.87-1.85,6.83-6.76,6.83C4,17,1.43,15.4,1.43,11.5Z"/>
    <path d="M25.95,14.71V2.52c0-1-.58-1.35-1.61-1.45V.18c1.88,0,3.75.05,5.64.05,3.17,0,5.15,0,7.1-.07l.1,2.66h-.9c-.48-1.38-1.37-1.59-3.84-1.59h-3.6V7.6H32c1.36,0,2.11,0,2.34-1.13H35V9.71h-.7c-.22-.91-.85-1-2.32-1H28.84V14c0,1.68.65,2.11,2.05,2.15V17H24.34v-.82C25.37,16.06,25.95,15.73,25.95,14.71Z"/>
    <path d="M94.74,12v4.27a24.51,24.51,0,0,1-6.31,1c-5.41,0-9.22-3.8-9.22-8.51C79.2,3.39,83.38,0,88.65,0a25,25,0,0,1,3.17.3c.43.07,2.62.47,3.09.58L95.12,4H94a4.64,4.64,0,0,0-4.76-2.89c-3.66,0-6.76,2.22-6.76,7.6,0,3.13,1.75,7.53,7.1,7.53A5.86,5.86,0,0,0,92,15.67c0-.3.07-2.15.07-2.59,0-1.49-.17-2.11-1.38-2.31V9.94h5.25v.78C95,10.8,94.74,11.11,94.74,12Z"/>
  </g>
  <g fill="#c80c0f">
    <path fill-rule="evenodd" d="M72,12c-.55.58-2.52,2.29-3.17,2.29-.26,0-.59-.14-.59-.44a8.4,8.4,0,0,1,.52-1.71l2.91-8.53A5.7,5.7,0,0,0,72,1.87,1.31,1.31,0,0,0,70.53.38C67.07.38,61.6,6.5,59.64,9h-.07l1.74-5.43a6.63,6.63,0,0,0,.4-2c0-.69-.51-1.2-1.64-1.2-3.24,0-8.64,6-10.38,8.52h-.08l1.89-5.5a5.88,5.88,0,0,0,.4-1.74A1.15,1.15,0,0,0,50.68.38c-2.41,0-5,2.91-6.34,4.62,0,0-.36.43-.07.67a.46.46,0,0,0,.62,0l1-1.09A3.39,3.39,0,0,1,48,3.29c.44,0,.58.32.58.73a5.31,5.31,0,0,1-.14.91L44.63,16.39c-.09.41.69.64,1.06.64.92,0,1.35-.27,1.45-.57l.66-1.91a21.46,21.46,0,0,1,4.56-7.43c1.16-1.27,3.35-3.82,5.31-3.82.51,0,.69.4.69.91a10.45,10.45,0,0,1-.62,2.7l-3.19,9.5c-.07.3.25.71,1.24.72s1.16-.32,1.27-.65l.6-1.49a22.84,22.84,0,0,1,3.75-6.63c1.17-1.42,4.48-5.1,6.37-5.1a.83.83,0,0,1,.84.87,5.84,5.84,0,0,1-.4,1.5l-2.95,8.45a5.93,5.93,0,0,0-.44,1.72c0,.94.66,1.23,1.35,1.23,2,0,3.71-1.64,5.14-3.21l1.13-1.24s.31-.33,0-.59A.37.37,0,0,0,72,12Z"/>
    <rect x="44.85" y="21.78" width="25.18" height="6.07"/>
  </g>
</svg>