<svg xmlns="http://www.w3.org/2000/svg" viewBox="0 0 358.29 357.39"><defs><style>.a{fill:#707070;}</style></defs><title>ufsj</title><path class="a" d="M0,352.1V0H355.9c.48,0,1,0,1.44,0a7.53,7.53,0,0,1,.87.14V256.8L290.15,138.92c-9.32,16.14-18.47,32-27.7,48-9.25-16-18.4-31.87-27.71-48-9.32,16.15-18.51,32.06-27.81,48.15l-27.8-48.15-28.06,48.59c-9.39-16.26-18.67-32.32-28-48.56-.45.75-.77,1.26-1.06,1.77L6.77,340.52C4.53,344.39,2.26,348.24,0,352.1ZM24.17,23.27c0,.42-.08.78-.08,1.13,0,16.68,0,33.35.15,50a26.93,26.93,0,0,0,2,10.89A28.8,28.8,0,0,0,40.35,99.64c9.94,4.9,20.35,5.16,30.82,2.11C81.88,98.63,92.45,89.42,92.26,73.4c-.19-16.2,0-32.4,0-48.6V23.31H80.54V25q0,23.82,0,47.63a26.79,26.79,0,0,1-.29,4.3c-1.1,6.63-5.11,10.93-11.11,13.54a28.59,28.59,0,0,1-13,1.93,23.3,23.3,0,0,1-10.76-3c-4.46-2.61-8-6-8.89-11.41a52,52,0,0,1-.59-7.88c-.05-15.12,0-30.24,0-45.36v-1.5ZM161.89,80.42V82c0,4.2,0,8.4,0,12.6A2.53,2.53,0,0,0,163,96.9c8,6.2,17.11,8,26.84,6,7.54-1.51,13.45-5.78,15.82-13.31,2.93-9.32,1.34-18-6.22-24.72-3.53-3.15-7.62-5.66-11.49-8.42-2.76-2-5.7-3.72-8.33-5.84a36.46,36.46,0,0,1-5.13-5.33,6,6,0,0,1-1.3-4.83c.53-3.61,2.79-5.74,6-7a17.08,17.08,0,0,1,10.37-.37c4.7,1.11,8.64,3.66,12.4,6.56.38.3.78.58,1.36,1,0-4.51,0-8.7,0-12.89a1.43,1.43,0,0,0-.69-1,32.86,32.86,0,0,0-22-4.79c-8.95,1.21-17.89,7.83-18.77,18.77-.47,5.8.79,11.09,5,15.33a48.16,48.16,0,0,0,6,5.14c4.38,3.15,8.93,6.06,13.33,9.17a51.93,51.93,0,0,1,6.05,4.89c3.93,3.82,4.3,12.52-2.71,15.63A18,18,0,0,1,179.84,92a22,22,0,0,1-12.21-5.92C165.74,84.39,164,82.52,161.89,80.42ZM119.81,67.05h30.9c1.65,0,1.65,0,1.66-1.59q0-3.78,0-7.56c0-.46-.05-.93-.09-1.56h-32.4V33.7h33.52c0-3.16,0-6.11,0-9.06,0-1.16-.32-1.47-1.47-1.46q-21.22,0-42.46,0c-.43,0-.85,0-1.42.07v54c0,7.88,0,15.75,0,23.63,0,1,.23,1.48,1.39,1.45,3-.08,6-.07,9,0,1.11,0,1.4-.32,1.4-1.42,0-10.75,0-21.51,0-32.27Zm99.74-43.78V25q0,38.67,0,77.36a51.43,51.43,0,0,1-.48,6.56c-.64,4.73-2.7,7.12-6.91,8.13a28,28,0,0,1-3.78.55c-1.61.14-3.23.18-5,.27.86,3.52,1.65,6.89,2.54,10.24.07.27.73.59,1.1.56a64.12,64.12,0,0,0,8.33-.73c7.59-1.51,12.74-5.89,14.7-13.53,1.21-4.72,1.19-9.59,1.19-14.42q0-37.66,0-75.32c0-.46-.07-.92-.11-1.39Z"/><path class="a" d="M3.58,357.31Q63.36,253.63,123,150.18l4.9,8.48q9.69,16.77,19.38,33.52a1.68,1.68,0,0,1,0,1.93q-46.86,81.11-93.68,162.23a1.67,1.67,0,0,1-1.65,1q-23.62,0-47.27,0C4.41,357.36,4.14,357.33,3.58,357.31Z"/><path class="a" d="M290.17,150.23l7.8,13.48q29.77,51.58,59.54,103.19a4.82,4.82,0,0,1,.67,2.23q.09,41.33.11,82.66v1c-.36-.56-.57-.85-.75-1.16Q326.28,297.46,295,243.33q-14.32-24.81-28.67-49.6a2,2,0,0,1,0-2.35q11.56-19.9,23-39.85C289.6,151.16,289.83,150.8,290.17,150.23Z"/><path class="a" d="M354.35,357.36h-1.68q-23,0-45.95,0a2.23,2.23,0,0,1-2.23-1.31q-33-57.21-66-114.39a1.56,1.56,0,0,1-.11-1.82q11.82-20.38,23.58-40.79c.13-.23.3-.46.55-.84Z"/><path class="a" d="M59.53,357.36l91.52-158.51c.27.43.48.75.67,1.07q11.66,20.19,23.33,40.37a1.74,1.74,0,0,1,0,2q-32.94,57-65.81,114a1.76,1.76,0,0,1-1.72,1.11q-23.4-.06-46.79,0Z"/><path class="a" d="M298.73,357.36h-1.52q-23.34,0-46.67,0a2.14,2.14,0,0,1-2.14-1.26q-18.94-32.92-38-65.8a1.56,1.56,0,0,1-.15-1.83q12-20.69,23.93-41.4c.12-.19.26-.38.47-.7Z"/><path class="a" d="M115.18,357.29,178.88,247l5.31,9.18q9.26,16,18.53,32.06a1.86,1.86,0,0,1,0,2.16q-19.1,33-38.12,66a1.68,1.68,0,0,1-1.66,1q-23.27,0-46.54,0C116.07,357.36,115.73,357.32,115.18,357.29Z"/><path class="a" d="M206.58,295l36,62.33h-72Z"/><path class="a" d="M179.16,150.27c1.16,2,2.26,3.87,3.35,5.76q10.31,17.83,20.61,35.69a1.57,1.57,0,0,1,.1,1.84q-12,20.69-23.93,41.4c-.1.17-.21.33-.39.59-.21-.3-.4-.53-.54-.78q-11.76-20.34-23.51-40.67a1.5,1.5,0,0,1-.09-1.73q12-20.67,23.92-41.39C178.8,150.77,178.94,150.59,179.16,150.27Z"/><path class="a" d="M206.55,283.59l-5-8.71L182.74,242.4a1.66,1.66,0,0,1-.14-1.94q11.93-20.52,23.76-41.08c.15-.27.33-.52.58-.91.27.43.48.74.67,1.07q11.64,20.13,23.26,40.25a1.41,1.41,0,0,1,.12,1.63q-12.08,20.84-24.11,41.7C206.82,283.22,206.75,283.31,206.55,283.59Z"/><path class="a" d="M234.61,235l-8-13.87q-7.92-13.71-15.83-27.4a1.61,1.61,0,0,1-.12-1.85q11.82-20.37,23.58-40.78c.14-.24.3-.46.54-.83.34.58.62,1,.89,1.51q11.43,19.78,22.86,39.54a2,2,0,0,1,0,2.36Q246.88,213.81,235.28,234C235.1,234.26,234.9,234.55,234.61,235Z"/></svg>